<svg version="1.2" xmlns="http://www.w3.org/2000/svg" viewBox="0 0 80 80" width="80" height="80"><style>.a{fill:#fff}</style><path class="a" d="m40 73.3c13.5 0 25.6-8.1 30.8-20.5 5.2-12.5 2.3-26.8-7.2-36.4-9.6-9.5-23.9-12.4-36.4-7.2-12.4 5.2-20.5 17.3-20.5 30.8 0 4.4 0.8 8.7 2.5 12.8 1.7 4 4.1 7.7 7.2 10.8 3.1 3.1 6.8 5.5 10.8 7.2 4.1 1.7 8.4 2.5 12.8 2.5zm0-60c10.8 0 20.5 6.5 24.6 16.5 4.2 10 1.9 21.4-5.7 29.1-7.7 7.6-19.1 9.9-29.1 5.7-10-4.1-16.5-13.8-16.5-24.6 0-3.5 0.7-7 2.1-10.2 1.3-3.2 3.3-6.2 5.8-8.6 2.4-2.5 5.4-4.5 8.6-5.8 3.2-1.4 6.7-2.1 10.2-2.1z"/><path fill-rule="evenodd" class="a" d="m35.7 55.7l15.7-15.7-15.7-15.7-4.7 4.7 11 11-11 11 4.7 4.7z"/></svg>