<svg version="1.2" xmlns="http://www.w3.org/2000/svg" viewBox="0 0 1772 45" width="1772" height="45">
	<title>anim1 (1)</title>
	<style>
		.s0 { fill: #8cc63f } 
		.s1 { mix-blend-mode: screen;fill: #8cc63f } 
	</style>
	<g id="anim1">
		<g id="base-group">
			<g id="base">
				<g id="&lt;Group&gt;">
					<path id="&lt;Path&gt;" class="s0" d="m1771.6 18.2c0 14.4-11.7 26.1-26 26.1-7.6 0-14.3-3.3-19.1-8.4-1.7 5.1-4.2 8.4-7 8.4-2.7 0-5.2-3.3-7-8.4-4.7 5.1-11.5 8.4-19 8.4-7.5 0-14.3-3.3-19.1-8.4-1.7 5.1-4.2 8.4-7 8.4-2.7 0-5.2-3.3-6.9-8.4-4.8 5.1-11.6 8.4-19.1 8.4-7.5 0-14.3-3.3-19-8.4-1.8 5.1-4.3 8.4-7 8.4-2.8 0-5.3-3.3-7-8.4-4.8 5.1-11.5 8.4-19.1 8.4-7.5 0-14.3-3.3-19-8.4-1.7 5.1-4.2 8.4-7 8.4-2.8 0-5.2-3.3-7-8.4-4.7 5.1-11.5 8.4-19 8.4-7.6 0-14.3-3.3-19.1-8.4-1.7 5.1-4.2 8.4-7 8.4-2.7 0-5.2-3.3-6.9-8.4-4.8 5.1-11.6 8.4-19.1 8.4-7.5 0-14.3-3.3-19-8.4-1.8 5.1-4.3 8.4-7 8.4-2.8 0-5.3-3.3-7-8.4-4.8 5.1-11.5 8.4-19.1 8.4-7.5 0-14.3-3.3-19-8.4-1.8 5.1-4.2 8.4-7 8.4-2.8 0-5.2-3.3-7-8.4-4.7 5.1-11.5 8.4-19 8.4-7.6 0-14.3-3.3-19.1-8.4-1.7 5.1-4.2 8.4-7 8.4-2.7 0-5.2-3.3-6.9-8.4-4.8 5.1-11.6 8.4-19.1 8.4-7.5 0-14.3-3.3-19.1-8.4-1.7 5.1-4.2 8.4-7 8.4-2.7 0-5.2-3.3-6.9-8.4-4.8 5.1-11.6 8.4-19.1 8.4-7.5 0-14.3-3.3-19-8.4-1.8 5.1-4.3 8.4-7 8.4-2.8 0-5.2-3.3-7-8.4-4.8 5.1-11.5 8.4-19.1 8.4-7.5 0-14.3-3.3-19-8.4-1.8 5.1-4.2 8.4-7 8.4-2.7 0-5.1-3.2-6.9-8.1-4.7 4.9-11.4 8.1-18.8 8.1h-0.3v-0.1c-7.4-0.1-14.1-3.2-18.8-8.3-1.7 5.1-4.2 8.4-6.9 8.4-2.8 0-5.3-3.3-7-8.4-4.8 5.1-11.5 8.4-19.1 8.4-7.5 0-14.3-3.3-19-8.4-1.8 5.1-4.3 8.4-7 8.4-2.8 0-5.2-3.3-7-8.4-4.7 5.1-11.5 8.4-19 8.4-7.6 0-14.3-3.3-19.1-8.4-1.8 5.1-4.2 8.4-7 8.4-2.7 0-5.2-3.3-7-8.4-4.7 5.1-11.5 8.4-19 8.4-7.6 0-14.3-3.3-19.1-8.4-1.7 5.1-4.2 8.4-6.9 8.4-2.8 0-5.3-3.3-7-8.4-4.8 5.1-11.5 8.4-19.1 8.4-7.5 0-14.3-3.3-19-8.4-1.8 5.1-4.3 8.4-7 8.4-2.8 0-5.3-3.3-7-8.4-4.8 5.1-11.5 8.4-19.1 8.4-7.5 0-14.3-3.3-19-8.4-1.8 5.1-4.2 8.4-7 8.4-2.8 0-5.2-3.3-7-8.4-4.7 5.1-11.5 8.4-19 8.4-7.6 0-14.3-3.3-19.1-8.4-1.7 5.1-4.2 8.4-7 8.4-2.7 0-5.2-3.3-7-8.4-4.7 5.1-11.5 8.4-19 8.4-7.5 0-14.3-3.3-19.1-8.4-1.7 5.1-4.2 8.4-6.9 8.4-2.8 0-5.3-3.3-7-8.4-4.8 5.1-11.5 8.4-19.1 8.4-7.5 0-14.3-3.3-19-8.4-1.8 5.1-4.2 8.4-7 8.4-2.8 0-5.3-3.3-7-8.4-4.7 5.1-11.5 8.4-19 8.4-7.6 0-14.3-3.3-19.1-8.4-1.7 5.1-4.2 8.4-7 8.4-2.7 0-5.2-3.3-7-8.4-4.7 5.1-11.5 8.4-19 8.4-7.5 0-14.3-3.3-19.1-8.4-1.7 5.1-4.2 8.4-6.9 8.4-2.8 0-5.3-3.3-7-8.4-4.8 5.1-11.6 8.4-19.1 8.4v-0.1c-0.5 0-0.9 0.1-1.4 0.1-7.6 0-14.4-3.3-19.1-8.4-1.7 5.1-4.2 8.4-7 8.4-2.7 0-5.2-3.3-7-8.4-4.7 5.1-11.5 8.4-19 8.4-7.6 0-14.3-3.3-19.1-8.4-1.7 5.1-4.2 8.4-7 8.4-2.7 0-5.2-3.3-6.9-8.4-4.8 5.1-11.6 8.4-19.1 8.4-7.5 0-14.3-3.3-19-8.4-1.8 5.1-4.3 8.4-7 8.4-2.8 0-5.3-3.3-7-8.4-4.8 5.1-11.5 8.4-19.1 8.4-7.5 0-14.3-3.3-19-8.4-1.8 5.1-4.2 8.4-7 8.4-2.8 0-5.2-3.3-7-8.4-4.7 5.1-11.5 8.4-19 8.4-7.6 0-14.3-3.3-19.1-8.4-1.7 5.1-4.2 8.4-7 8.4-2.7 0-5.2-3.3-6.9-8.4-4.8 5.1-11.6 8.4-19.1 8.4-7.5 0-14.3-3.3-19-8.4-1.8 5.1-4.3 8.4-7 8.4-2.8 0-5.3-3.3-7-8.4-4.8 5.1-11.5 8.4-19.1 8.4-7.5 0-14.3-3.3-19-8.4-1.8 5.1-4.3 8.4-7 8.4-2.8 0-5.2-3.3-7-8.4-4.7 5.1-11.5 8.4-19.1 8.4-7.5 0-14.3-3.3-19-8.4-1.7 5.1-4.2 8.4-7 8.4-2.7 0-5.2-3.3-7-8.4-4.7 5.1-11.5 8.4-19 8.4-7.6 0-14.3-3.3-19.1-8.4-1.7 5.1-4.2 8.4-7 8.4-2.7 0-5.2-3.3-6.9-8.4-4.8 5.1-11.6 8.4-19.1 8.4-7.5 0-14.3-3.3-19-8.4-1.8 5.1-4.3 8.4-7 8.4-2.8 0-5.2-3.3-7-8.4-4.8 5.1-11.5 8.4-19.1 8.4-7.5 0-14.3-3.3-19-8.4-1.8 5.1-4.2 8.4-7 8.4-2.7 0-5.2-3.3-7-8.4-4.7 5.1-11.5 8.4-19 8.4-14.4 0-26.1-11.7-26.1-26.1 0-0.3 0.1-2.7 0.1-5.7 0-2.2 0-4.8 0-7 0-2.8 2.3-5.1 5.1-5.1h1761.2c2.8 0 5.1 2.3 5.1 5.1 0 2.2 0.1 4.8 0.1 7 0 3 0 5.4 0 5.7z"/>
					<path id="&lt;Path&gt;" class="s1" d="m1771.6 12.5h-1771.5c0-2.2 0-4.8 0-7 0-2.8 2.3-5.1 5.1-5.1h1761.2c2.8 0 5.1 2.3 5.1 5.1 0 2.2 0.1 4.8 0.1 7z"/>
				</g>
			</g>
		</g>
	</g>
</svg>