<svg version="1.2" xmlns="http://www.w3.org/2000/svg" viewBox="0 0 274 81" width="274" height="81"><defs><linearGradient id="P" gradientUnits="userSpaceOnUse"/><linearGradient id="g1" x2="1" href="#P" gradientTransform="matrix(0,-75.22,272.942,0,126.771,80.44)"><stop stop-color="#8c2747"/><stop offset="1" stop-color="#d65731"/></linearGradient><linearGradient id="g2" x2="1" href="#P" gradientTransform="matrix(127.736,0,0,68.602,27.9,11.838)"><stop stop-color="#c77cbd"/><stop offset="1" stop-color="#974577"/></linearGradient><linearGradient id="g3" x2="1" href="#P" gradientTransform="matrix(150.97,0,0,68.364,43.595,12.076)"><stop stop-color="#c77cbd"/><stop offset="1" stop-color="#974577"/></linearGradient><linearGradient id="g4" x2="1" href="#P" gradientTransform="matrix(43.583,0,0,24.306,116.864,33.987)"><stop stop-color="#c77cbd"/><stop offset="1" stop-color="#974577"/></linearGradient><linearGradient id="g5" x2="1" href="#P" gradientTransform="matrix(44.061,0,0,65.761,13.354,7.366)"><stop stop-color="#c77cbd"/><stop offset="1" stop-color="#974577"/></linearGradient><linearGradient id="g6" x2="1" href="#P" gradientTransform="matrix(91.476,0,0,69.984,122.761,10.456)"><stop stop-color="#c77cbd"/><stop offset="1" stop-color="#974577"/></linearGradient><linearGradient id="g7" x2="1" href="#P" gradientTransform="matrix(117.632,0,0,68.364,148.197,12.076)"><stop stop-color="#c77cbd"/><stop offset="1" stop-color="#974577"/></linearGradient><linearGradient id="g8" x2="1" href="#P" gradientTransform="matrix(35.35,0,0,26.517,191.504,48.693)"><stop stop-color="#c77cbd"/><stop offset="1" stop-color="#974577"/></linearGradient><linearGradient id="g9" x2="1" href="#P" gradientTransform="matrix(75.112,0,0,44.366,198.488,36.074)"><stop stop-color="#c77cbd"/><stop offset="1" stop-color="#974577"/></linearGradient></defs><style>.a{fill:url(#g1)}.b{fill:#ff8b3e}.c{fill:#ec7034}.d{fill:#e06834}.e{fill:url(#g2)}.f{fill:url(#g3)}.g{fill:url(#g4)}.h{fill:url(#g5)}.i{fill:url(#g6)}.j{fill:url(#g7)}.k{fill:url(#g8)}.l{fill:url(#g9)}.m{fill:#b64034}.n{opacity:.4;fill:#d9772f}.o{fill:#7a1c34}.p{fill:#ff6f48}.q{fill:#892334}.r{mix-blend-mode:soft-light;fill:#fcca70}.s{fill:#f2774f}</style><path class="a" d="m242.4 69.8l-20.3 8.1 41.5-12.4c-3.7 4.7-8.6 9.7-14.9 14.9h-220.8c0 0-25.8-14.4-27.2-35.7q-0.1-2 0.1-4.1l0.4-0.2 13.8-5.2-10.4-5-0.8-0.4c3.8-7.7 11.2-16 24.1-24.6 0 0 0.8 0.1 2.4 0.2 16.9 1.6 121.7 10.3 212.1 2.6 0 0 47.1 16.2 25.6 51.4z"/><path class="b" d="m242.4 8l-6.3-7.5-127.3 4.7-72.4-4.7-8.5 4.7c0 0 120.6 13.4 214.5 2.8z"/><path class="c" d="m273.6 41c0 0 3.6-24.4-37.5-40.5l6.3 7.5c0 0 29.8 11.2 31.2 33z"/><path class="c" d="m0.8 40.6l0.4-0.2q-0.3 2.1-0.5 4.3 0 0.5 0 1c0 0-0.3-2 0-5.1z"/><path class="c" d="m36.4 0.5l-6.1 4.9-0.1 0.1c0 0-17.6 8.2-25.6 24.7l-0.8-0.4-0.8-0.3c3.6-10.1 12.4-22.4 33.4-29z"/><path class="d" d="m230 9.5h16.1l-6.1-4.3z"/><path class="d" d="m23.4 9.5l14.1-3.2-6.5-2.8z"/><path class="b" d="m1.2 40.4l6.6-8.7 7.2 3.5z"/><path class="b" d="m263.6 65.5l-3.4-3-38.1 15.4z"/><g style="opacity:.2;mix-blend-mode:multiply"><path class="e" d="m27.9 80.4c0 0 26.3-44.3 108.8-68.6l18.9 0.3c0 0-80.6 10.7-118.1 68.3z"/><path class="f" d="m43.6 80.4c0 0 52.3-52.6 127-68.3h24c0 0-106.9 17.2-126.3 68.3z"/><path class="g" d="m116.9 58.3c0 0 17.8-24.5 43.5-24.3 0 0-8.5 23.3-43.5 24.3z"/><path class="h" d="m54.9 7.4c0 0-39.3 25.4-41.5 61.7l4.3 4c0 0-5.7-37.3 39.7-65.6z"/><path class="i" d="m132.4 80.4c0 0 54.3-27.3 81.8-69.9l-4.9 0.3c0 0-21.1 45-86.5 69.6z"/><path class="j" d="m148.2 80.4c0 0 74.9-50.7 103.1-68.3 0 0 8.6 5.5 14.5 11.7 0 0-66.9 29.9-85.9 56.6z"/><path class="k" d="m191.5 75.2c0 0-0.8-11 35.4-26.5 0 0-22.3 10.7-35.4 26.5z"/><path class="l" d="m272.8 36.1l-74.3 44.3h8l67.1-39.4z"/></g><path class="d" d="m73.5 9l30 4.9 68.9-1.8-60-2.6z"/><path class="m" d="m194.6 12.1l31-1.6 11.3 1.6 14.7 1.8 16.9 13.3-7.1-8.4-15.3-9.3-15-0.5z"/><path class="m" d="m6.2 27.2l13.5-14.2 10.8-2.5 20.9-2.3 23.3 0.8-37.2-2.7-14.1 3.2-8.4 6.8c0 0-6.6 5.8-8.8 10.9z"/><path class="n" d="m140.1 76.2c0 0 34.1-16.9 62.1-49.7 0 0-20.9 30.8-62.1 49.7z"/><path class="n" d="m69.4 77.9c0 0 19.1-40.9 111.3-63.1 0 0-86.2 16.1-111.3 63.1z"/><path class="n" d="m37.5 80.4c0 0 33.5-49.9 113.4-67.7 0 0-65 5.6-113.4 67.7z"/><path class="n" d="m17.7 63.8c0 0 1.8-31.1 38.5-55.5 0 0-31.8 13.6-38.5 55.5z"/><path class="o" d="m15 35.2h27.6l111 5-128.2-3.7z"/><path class="p" d="m25.4 36.5l8.3 1.3h18.7z"/><path class="o" d="m27.9 80.4l65.5-3.4 46.1 3.4 44.4-1.7 7.6-3.5-6.3 5.2z"/><path class="o" d="m213.2 80.4l8.9-2.5-3.6 2.5z"/><path class="o" d="m59.3 73.1l-10.4-10.6 8.5 5.7z"/><path class="o" d="m168.5 75.5l27.6-5.3-17.7 5z"/><path class="q" d="m73.5 5.2l-8.3 3.1 4.2 6.5 0.7-6.5z"/><path class="b" d="m69.4 14.8l-1.8-2.7 2.4-2.6z"/><path class="q" d="m185.4 31.7l13.1 11.1-7-3.6z"/><path class="b" d="m168.5 75.5l9.9-0.3 17.7-5-18.6 4.4z"/><path class="p" d="m48.9 62.5l5.2 6.5 5.2 4.1z"/><path class="r" d="m189.7 11.6l-5.8-9.2 43-1.6 3.1 8.7z"/><path class="r" d="m41 6.5l4.1-5.4-8.7-0.6-4.3 3.5 5.4 2.3z"/><path class="q" d="m199.7 35.2l-5.5-17.2 4.3 9.2z"/><path class="o" d="m246.1 57.3l2.2-2.6 8.1 2.6-2.2 4.2h-5.3z"/><path class="q" d="m39.3 49.6l1-1 4.4 2.2-2.8 1.7-2.6-1.9z"/><path class="s" d="m246.1 57.3l2.7 3.4 4.5 0.5h1.1l-0.2 0.3-5.3 0.3z"/><path class="s" d="m39.3 50.6l1.8 1.1h1.9l1.7-0.9-2.3 1.7h-0.5z"/><path class="n" d="m118.6 58.2c0 0 31.1 4.4 41.8-24.2 0 0-7.9 24-41.8 24.2z"/></svg>