<svg width="80" height="2000" viewBox="0 0 56 2000" fill="none" xmlns="http://www.w3.org/2000/svg">
<style>
	@keyframes moveChain {
		0% { transform: translateX(0) rotate(0deg); }
		25% { transform: translateX(-20%) rotate(3deg); }
		50% { transform: translateX(0) rotate(0deg); }
		75% { transform: translateX(20%) rotate(-3deg); }
		100% { transform: translateX(0) rotate(0deg); }
	}
	@keyframes moveChain2{
		0% { transform: translateX(0) rotate(0deg); }
		25% { transform: translateX(20%) rotate(-3deg); }
		50% { transform: translateX(0) rotate(0deg); }
		75% { transform: translateX(-20%) rotate(3deg); }
		100% { transform: translateX(0) rotate(0deg); }
	}
	g#chain-wrapper > g {
		transform-origin: bottom center;
		transform-box: border-box;
	}
	g#chain-wrapper > g:nth-child(odd){
		animation: moveChain 6s linear infinite;
	}
	g#chain-wrapper > g:nth-child(even){
		animation: moveChain2 6s linear infinite;
	}
	
</style>
<g id="chain">
<g id="chain-wrapper">
<g id="ch1">
<g id="&#60;Group&#62;">
<g id="&#60;Group&#62;_2">
<g id="&#60;Group&#62;_3">
<g id="&#60;Group&#62;_4">
<path id="&#60;Compound Path&#62;" fill-rule="evenodd" clip-rule="evenodd" d="M27.5996 41.7998C42.6996 41.7998 54.9996 54.0998 54.9996 69.1998C54.9996 84.3998 42.6996 96.6998 27.5996 96.6998C12.3996 96.6998 0.0996094 84.3998 0.0996094 69.1998C0.0996094 54.0998 12.3996 41.7998 27.5996 41.7998ZM8.89961 69.1998C8.89961 79.5998 17.1996 87.8998 27.5996 87.8998C37.8996 87.8998 46.1996 79.5998 46.1996 69.1998C46.1996 58.8998 37.8996 50.5998 27.5996 50.5998C17.1996 50.5998 8.89961 58.8998 8.89961 69.1998Z" fill="#7C5438"/>
</g>
<g id="&#60;Group&#62;_5" opacity="0.5">
<path id="&#60;Compound Path&#62;_2" fill-rule="evenodd" clip-rule="evenodd" d="M27.2004 44.7998C40.9004 44.7998 52.0004 55.8998 52.0004 69.5998C52.0004 83.2998 40.9004 94.3998 27.2004 94.3998C13.5004 94.3998 2.40039 83.2998 2.40039 69.5998C2.40039 55.8998 13.5004 44.7998 27.2004 44.7998ZM5.40039 69.4998C5.40039 81.5998 15.2004 91.3998 27.3004 91.3998C39.3004 91.3998 49.1004 81.5998 49.1004 69.4998C49.1004 57.4998 39.3004 47.6998 27.3004 47.6998C15.2004 47.6998 5.40039 57.4998 5.40039 69.4998Z" fill="#CE9F38"/>
</g>
<path id="&#60;Path&#62;" d="M37.4 90.4997C38.7 90.6997 40.1 90.6997 41.2 89.9997L42.6 89.0997C44.8 85.6997 48.2 83.5997 50 79.6997C50.9 77.6997 51.5 75.3997 51.7 73.1997C52 70.6997 51.5 67.4997 49.3 70.5997C47 73.8997 47.4 79.0997 45.1 82.5997C43.5 84.8997 36.9 87.8997 37.4 90.4997Z" fill="#E5AE41"/>
<path id="&#60;Path&#62;_2" d="M4.2001 66.3999C6.5001 66.8999 8.0001 57.4999 9.8001 55.2999C13.0001 51.1999 16.5001 49.7999 21.2001 48.5999L22.1001 48.2999C24.4001 48.1999 24.2001 46.5999 22.1001 46.1999C21.0001 45.9999 18.8001 47.0999 17.8001 47.4999C15.1001 48.4999 12.9001 50.1999 10.9001 51.9999C7.4001 55.1999 2.2001 61.2999 4.2001 66.3999Z" fill="#E5AE41"/>
</g>
</g>
<path id="&#60;Path&#62;_3" d="M20.0996 13.8998C20.0996 10.7998 23.4996 8.2998 27.5996 8.2998C31.7996 8.2998 35.0996 10.7998 35.0996 13.8998V60.8998C35.0996 63.8998 31.7996 66.3998 27.5996 66.3998C23.4996 66.3998 20.0996 63.8998 20.0996 60.8998V13.8998Z" fill="#7C5438"/>
<path id="&#60;Path&#62;_4" opacity="0.4" d="M24.4004 28.0002C24.4004 25.9002 26.3004 24.2002 28.6004 24.2002C31.0004 24.2002 32.9004 25.9002 32.9004 28.0002V60.1002C32.9004 62.2002 31.0004 63.9002 28.6004 63.9002C26.3004 63.9002 24.4004 62.2002 24.4004 60.1002V28.0002Z" fill="#CE9F38"/>
<path id="&#60;Path&#62;_5" d="M28.8994 46.4994C29.4994 50.8994 27.4994 54.9994 28.0994 59.1994C28.6994 59.3994 29.2994 59.7994 29.9994 59.7994H30.2994C33.0994 56.9994 30.5994 50.3994 30.7994 46.7994C30.8994 44.7994 33.1994 35.3994 29.6994 35.3994C26.4994 35.3994 28.6994 44.6994 28.8994 46.4994Z" fill="#E5AE41"/>
</g>
<g id="&#60;Group&#62;_6">
<g id="&#60;Group&#62;_7">
<g id="&#60;Group&#62;_8">
<g id="&#60;Group&#62;_9">
<path id="&#60;Compound Path&#62;_3" fill-rule="evenodd" clip-rule="evenodd" d="M27.5996 112.6C42.6996 112.6 54.9996 124.9 54.9996 140C54.9996 155.2 42.6996 167.5 27.5996 167.5C12.3996 167.5 0.0996094 155.2 0.0996094 140C0.0996094 124.9 12.3996 112.6 27.5996 112.6ZM8.89961 140C8.89961 150.4 17.1996 158.7 27.5996 158.7C37.8996 158.7 46.1996 150.4 46.1996 140C46.1996 129.7 37.8996 121.4 27.5996 121.4C17.1996 121.4 8.89961 129.7 8.89961 140Z" fill="#7C5438"/>
</g>
<g id="&#60;Group&#62;_10" opacity="0.5">
<path id="&#60;Compound Path&#62;_4" fill-rule="evenodd" clip-rule="evenodd" d="M27.2004 115.5C40.9004 115.5 52.0004 126.6 52.0004 140.3C52.0004 154 40.9004 165.1 27.2004 165.1C13.5004 165.1 2.40039 154 2.40039 140.3C2.40039 126.6 13.5004 115.5 27.2004 115.5ZM5.40039 140.3C5.40039 152.4 15.2004 162.2 27.3004 162.2C39.3004 162.2 49.1004 152.4 49.1004 140.3C49.1004 128.3 39.3004 118.5 27.3004 118.5C15.2004 118.5 5.40039 128.3 5.40039 140.3Z" fill="#CE9F38"/>
</g>
<path id="&#60;Path&#62;_6" d="M37.4 161.3C38.7 161.5 40.1 161.4 41.2 160.7L42.6 159.9C44.8 156.5 48.2 154.4 50 150.5C50.9 148.4 51.5 146.1 51.7 144C52 141.5 51.5 138.3 49.3 141.4C47 144.6 47.4 149.9 45.1 153.4C43.5 155.7 36.9 158.7 37.4 161.3Z" fill="#E5AE41"/>
<path id="&#60;Path&#62;_7" d="M4.2001 137.2C6.5001 137.7 8.0001 128.3 9.8001 126.1C13.0001 122 16.5001 120.6 21.2001 119.3L22.1001 119C24.4001 119 24.2001 117.3 22.1001 117C21.0001 116.8 18.8001 117.8 17.8001 118.2C15.1001 119.3 12.9001 120.9 10.9001 122.8C7.4001 125.9 2.2001 132.1 4.2001 137.2Z" fill="#E5AE41"/>
</g>
</g>
<path id="&#60;Path&#62;_8" d="M20.0996 84.6C20.0996 81.5 23.4996 79 27.5996 79C31.7996 79 35.0996 81.5 35.0996 84.6V131.6C35.0996 134.7 31.7996 137.2 27.5996 137.2C23.4996 137.2 20.0996 134.7 20.0996 131.6V84.6Z" fill="#7C5438"/>
<path id="&#60;Path&#62;_9" opacity="0.4" d="M24.4004 98.8C24.4004 96.7 26.3004 95 28.6004 95C31.0004 95 32.9004 96.7 32.9004 98.8V130.9C32.9004 133 31.0004 134.7 28.6004 134.7C26.3004 134.7 24.4004 133 24.4004 130.9V98.8Z" fill="#CE9F38"/>
<path id="&#60;Path&#62;_10" d="M28.8994 117.3C29.4994 121.7 27.4994 125.7 28.0994 130C28.6994 130.2 29.2994 130.5 29.9994 130.6H30.2994C33.0994 127.8 30.5994 121.1 30.7994 117.5C30.8994 115.6 33.1994 106.1 29.6994 106.1C26.4994 106.1 28.6994 115.5 28.8994 117.3Z" fill="#E5AE41"/>
</g>
</g>
<g id="ch2">
<g id="&#60;Group&#62;_11">
<g id="&#60;Group&#62;_12">
<g id="&#60;Group&#62;_13">
<g id="&#60;Group&#62;_14">
<path id="&#60;Compound Path&#62;_5" fill-rule="evenodd" clip-rule="evenodd" d="M27.5996 182.8C42.6996 182.8 54.9996 195.1 54.9996 210.2C54.9996 225.4 42.6996 237.7 27.5996 237.7C12.3996 237.7 0.0996094 225.4 0.0996094 210.2C0.0996094 195.1 12.3996 182.8 27.5996 182.8ZM8.89961 210.2C8.89961 220.6 17.1996 228.9 27.5996 228.9C37.8996 228.9 46.1996 220.6 46.1996 210.2C46.1996 199.9 37.8996 191.6 27.5996 191.6C17.1996 191.6 8.89961 199.9 8.89961 210.2Z" fill="#7C5438"/>
</g>
<g id="&#60;Group&#62;_15" opacity="0.5">
<path id="&#60;Compound Path&#62;_6" fill-rule="evenodd" clip-rule="evenodd" d="M27.2004 185.8C40.9004 185.8 52.0004 196.9 52.0004 210.6C52.0004 224.3 40.9004 235.4 27.2004 235.4C13.5004 235.4 2.40039 224.3 2.40039 210.6C2.40039 196.9 13.5004 185.8 27.2004 185.8ZM5.40039 210.5C5.40039 222.6 15.2004 232.4 27.3004 232.4C39.3004 232.4 49.1004 222.6 49.1004 210.5C49.1004 198.5 39.3004 188.7 27.3004 188.7C15.2004 188.7 5.40039 198.5 5.40039 210.5Z" fill="#CE9F38"/>
</g>
<path id="&#60;Path&#62;_11" d="M37.4 231.5C38.7 231.7 40.1 231.7 41.2 231L42.6 230.1C44.8 226.7 48.2 224.6 50 220.7C50.9 218.7 51.5 216.4 51.7 214.2C52 211.7 51.5 208.5 49.3 211.6C47 214.9 47.4 220.1 45.1 223.6C43.5 225.9 36.9 228.9 37.4 231.5Z" fill="#E5AE41"/>
<path id="&#60;Path&#62;_12" d="M4.2001 207.4C6.5001 207.9 8.0001 198.5 9.8001 196.3C13.0001 192.2 16.5001 190.8 21.2001 189.6L22.1001 189.3C24.4001 189.2 24.2001 187.6 22.1001 187.2C21.0001 187 18.8001 188.1 17.8001 188.5C15.1001 189.5 12.9001 191.2 10.9001 193C7.4001 196.2 2.2001 202.3 4.2001 207.4Z" fill="#E5AE41"/>
</g>
</g>
<path id="&#60;Path&#62;_13" d="M20.0996 154.9C20.0996 151.8 23.4996 149.3 27.5996 149.3C31.7996 149.3 35.0996 151.8 35.0996 154.9V201.9C35.0996 204.9 31.7996 207.4 27.5996 207.4C23.4996 207.4 20.0996 204.9 20.0996 201.9V154.9Z" fill="#7C5438"/>
<path id="&#60;Path&#62;_14" opacity="0.4" d="M24.4004 169C24.4004 166.9 26.3004 165.2 28.6004 165.2C31.0004 165.2 32.9004 166.9 32.9004 169V201.1C32.9004 203.2 31.0004 204.9 28.6004 204.9C26.3004 204.9 24.4004 203.2 24.4004 201.1V169Z" fill="#CE9F38"/>
<path id="&#60;Path&#62;_15" d="M28.8994 187.499C29.4994 191.899 27.4994 195.999 28.0994 200.199C28.6994 200.399 29.2994 200.799 29.9994 200.799H30.2994C33.0994 197.999 30.5994 191.399 30.7994 187.799C30.8994 185.799 33.1994 176.399 29.6994 176.399C26.4994 176.399 28.6994 185.699 28.8994 187.499Z" fill="#E5AE41"/>
</g>
<g id="&#60;Group&#62;_16">
<g id="&#60;Group&#62;_17">
<g id="&#60;Group&#62;_18">
<g id="&#60;Group&#62;_19">
<path id="&#60;Compound Path&#62;_7" fill-rule="evenodd" clip-rule="evenodd" d="M27.5996 253.6C42.6996 253.6 54.9996 265.9 54.9996 281C54.9996 296.2 42.6996 308.5 27.5996 308.5C12.3996 308.5 0.0996094 296.2 0.0996094 281C0.0996094 265.9 12.3996 253.6 27.5996 253.6ZM8.89961 281C8.89961 291.4 17.1996 299.7 27.5996 299.7C37.8996 299.7 46.1996 291.4 46.1996 281C46.1996 270.7 37.8996 262.4 27.5996 262.4C17.1996 262.4 8.89961 270.7 8.89961 281Z" fill="#7C5438"/>
</g>
<g id="&#60;Group&#62;_20" opacity="0.5">
<path id="&#60;Compound Path&#62;_8" fill-rule="evenodd" clip-rule="evenodd" d="M27.2004 256.5C40.9004 256.5 52.0004 267.6 52.0004 281.3C52.0004 295 40.9004 306.1 27.2004 306.1C13.5004 306.1 2.40039 295 2.40039 281.3C2.40039 267.6 13.5004 256.5 27.2004 256.5ZM5.40039 281.3C5.40039 293.4 15.2004 303.2 27.3004 303.2C39.3004 303.2 49.1004 293.4 49.1004 281.3C49.1004 269.3 39.3004 259.5 27.3004 259.5C15.2004 259.5 5.40039 269.3 5.40039 281.3Z" fill="#CE9F38"/>
</g>
<path id="&#60;Path&#62;_16" d="M37.4 302.3C38.7 302.5 40.1 302.4 41.2 301.7L42.6 300.9C44.8 297.5 48.2 295.4 50 291.5C50.9 289.4 51.5 287.1 51.7 285C52 282.5 51.5 279.3 49.3 282.4C47 285.6 47.4 290.9 45.1 294.4C43.5 296.7 36.9 299.7 37.4 302.3Z" fill="#E5AE41"/>
<path id="&#60;Path&#62;_17" d="M4.2001 278.2C6.5001 278.7 8.0001 269.3 9.8001 267.1C13.0001 263 16.5001 261.6 21.2001 260.3L22.1001 260C24.4001 260 24.2001 258.3 22.1001 258C21.0001 257.8 18.8001 258.8 17.8001 259.2C15.1001 260.3 12.9001 261.9 10.9001 263.8C7.4001 266.9 2.2001 273.1 4.2001 278.2Z" fill="#E5AE41"/>
</g>
</g>
<path id="&#60;Path&#62;_18" d="M20.0996 225.6C20.0996 222.5 23.4996 220 27.5996 220C31.7996 220 35.0996 222.5 35.0996 225.6V272.6C35.0996 275.7 31.7996 278.2 27.5996 278.2C23.4996 278.2 20.0996 275.7 20.0996 272.6V225.6Z" fill="#7C5438"/>
<path id="&#60;Path&#62;_19" opacity="0.4" d="M24.4004 239.8C24.4004 237.7 26.3004 236 28.6004 236C31.0004 236 32.9004 237.7 32.9004 239.8V271.9C32.9004 274 31.0004 275.7 28.6004 275.7C26.3004 275.7 24.4004 274 24.4004 271.9V239.8Z" fill="#CE9F38"/>
<path id="&#60;Path&#62;_20" d="M28.8994 258.3C29.4994 262.7 27.4994 266.7 28.0994 271C28.6994 271.2 29.2994 271.5 29.9994 271.6H30.2994C33.0994 268.8 30.5994 262.1 30.7994 258.5C30.8994 256.6 33.1994 247.1 29.6994 247.1C26.4994 247.1 28.6994 256.5 28.8994 258.3Z" fill="#E5AE41"/>
</g>
</g>
<g id="ch3">
<g id="&#60;Group&#62;_21">
<g id="&#60;Group&#62;_22">
<g id="&#60;Group&#62;_23">
<g id="&#60;Group&#62;_24">
<path id="&#60;Compound Path&#62;_9" fill-rule="evenodd" clip-rule="evenodd" d="M27.5996 323.8C42.6996 323.8 54.9996 336.1 54.9996 351.2C54.9996 366.4 42.6996 378.7 27.5996 378.7C12.3996 378.7 0.0996094 366.4 0.0996094 351.2C0.0996094 336.1 12.3996 323.8 27.5996 323.8ZM8.89961 351.2C8.89961 361.6 17.1996 369.9 27.5996 369.9C37.8996 369.9 46.1996 361.6 46.1996 351.2C46.1996 340.9 37.8996 332.6 27.5996 332.6C17.1996 332.6 8.89961 340.9 8.89961 351.2Z" fill="#7C5438"/>
</g>
<g id="&#60;Group&#62;_25" opacity="0.5">
<path id="&#60;Compound Path&#62;_10" fill-rule="evenodd" clip-rule="evenodd" d="M27.2004 326.8C40.9004 326.8 52.0004 337.9 52.0004 351.6C52.0004 365.3 40.9004 376.4 27.2004 376.4C13.5004 376.4 2.40039 365.3 2.40039 351.6C2.40039 337.9 13.5004 326.8 27.2004 326.8ZM5.40039 351.5C5.40039 363.6 15.2004 373.4 27.3004 373.4C39.3004 373.4 49.1004 363.6 49.1004 351.5C49.1004 339.5 39.3004 329.7 27.3004 329.7C15.2004 329.7 5.40039 339.5 5.40039 351.5Z" fill="#CE9F38"/>
</g>
<path id="&#60;Path&#62;_21" d="M37.4 372.5C38.7 372.7 40.1 372.7 41.2 372L42.6 371.1C44.8 367.7 48.2 365.6 50 361.7C50.9 359.7 51.5 357.4 51.7 355.2C52 352.7 51.5 349.5 49.3 352.6C47 355.9 47.4 361.1 45.1 364.6C43.5 366.9 36.9 369.9 37.4 372.5Z" fill="#E5AE41"/>
<path id="&#60;Path&#62;_22" d="M4.2001 348.4C6.5001 348.9 8.0001 339.5 9.8001 337.3C13.0001 333.2 16.5001 331.8 21.2001 330.6L22.1001 330.3C24.4001 330.2 24.2001 328.6 22.1001 328.2C21.0001 328 18.8001 329.1 17.8001 329.5C15.1001 330.5 12.9001 332.2 10.9001 334C7.4001 337.2 2.2001 343.3 4.2001 348.4Z" fill="#E5AE41"/>
</g>
</g>
<path id="&#60;Path&#62;_23" d="M20.0996 295.9C20.0996 292.8 23.4996 290.3 27.5996 290.3C31.7996 290.3 35.0996 292.8 35.0996 295.9V342.9C35.0996 345.9 31.7996 348.4 27.5996 348.4C23.4996 348.4 20.0996 345.9 20.0996 342.9V295.9Z" fill="#7C5438"/>
<path id="&#60;Path&#62;_24" opacity="0.4" d="M24.4004 310C24.4004 307.9 26.3004 306.2 28.6004 306.2C31.0004 306.2 32.9004 307.9 32.9004 310V342.1C32.9004 344.2 31.0004 345.9 28.6004 345.9C26.3004 345.9 24.4004 344.2 24.4004 342.1V310Z" fill="#CE9F38"/>
<path id="&#60;Path&#62;_25" d="M28.8994 328.499C29.4994 332.899 27.4994 336.999 28.0994 341.199C28.6994 341.399 29.2994 341.799 29.9994 341.799H30.2994C33.0994 338.999 30.5994 332.399 30.7994 328.799C30.8994 326.799 33.1994 317.399 29.6994 317.399C26.4994 317.399 28.6994 326.699 28.8994 328.499Z" fill="#E5AE41"/>
</g>
<g id="&#60;Group&#62;_26">
<g id="&#60;Group&#62;_27">
<g id="&#60;Group&#62;_28">
<g id="&#60;Group&#62;_29">
<path id="&#60;Compound Path&#62;_11" fill-rule="evenodd" clip-rule="evenodd" d="M27.5996 394.6C42.6996 394.6 54.9996 406.9 54.9996 422C54.9996 437.2 42.6996 449.5 27.5996 449.5C12.3996 449.5 0.0996094 437.2 0.0996094 422C0.0996094 406.9 12.3996 394.6 27.5996 394.6ZM8.89961 422C8.89961 432.4 17.1996 440.7 27.5996 440.7C37.8996 440.7 46.1996 432.4 46.1996 422C46.1996 411.7 37.8996 403.4 27.5996 403.4C17.1996 403.4 8.89961 411.7 8.89961 422Z" fill="#7C5438"/>
</g>
<g id="&#60;Group&#62;_30" opacity="0.5">
<path id="&#60;Compound Path&#62;_12" fill-rule="evenodd" clip-rule="evenodd" d="M27.2004 397.5C40.9004 397.5 52.0004 408.6 52.0004 422.3C52.0004 436 40.9004 447.1 27.2004 447.1C13.5004 447.1 2.40039 436 2.40039 422.3C2.40039 408.6 13.5004 397.5 27.2004 397.5ZM5.40039 422.3C5.40039 434.4 15.2004 444.2 27.3004 444.2C39.3004 444.2 49.1004 434.4 49.1004 422.3C49.1004 410.3 39.3004 400.5 27.3004 400.5C15.2004 400.5 5.40039 410.3 5.40039 422.3Z" fill="#CE9F38"/>
</g>
<path id="&#60;Path&#62;_26" d="M37.4 443.3C38.7 443.5 40.1 443.4 41.2 442.7L42.6 441.9C44.8 438.5 48.2 436.4 50 432.5C50.9 430.4 51.5 428.1 51.7 426C52 423.5 51.5 420.3 49.3 423.4C47 426.6 47.4 431.9 45.1 435.4C43.5 437.7 36.9 440.7 37.4 443.3Z" fill="#E5AE41"/>
<path id="&#60;Path&#62;_27" d="M4.2001 419.2C6.5001 419.7 8.0001 410.3 9.8001 408.1C13.0001 404 16.5001 402.6 21.2001 401.3L22.1001 401C24.4001 401 24.2001 399.3 22.1001 399C21.0001 398.8 18.8001 399.8 17.8001 400.2C15.1001 401.3 12.9001 402.9 10.9001 404.8C7.4001 407.9 2.2001 414.1 4.2001 419.2Z" fill="#E5AE41"/>
</g>
</g>
<path id="&#60;Path&#62;_28" d="M20.0996 366.6C20.0996 363.5 23.4996 361 27.5996 361C31.7996 361 35.0996 363.5 35.0996 366.6V413.6C35.0996 416.7 31.7996 419.2 27.5996 419.2C23.4996 419.2 20.0996 416.7 20.0996 413.6V366.6Z" fill="#7C5438"/>
<path id="&#60;Path&#62;_29" opacity="0.4" d="M24.4004 380.8C24.4004 378.7 26.3004 377 28.6004 377C31.0004 377 32.9004 378.7 32.9004 380.8V412.9C32.9004 415 31.0004 416.7 28.6004 416.7C26.3004 416.7 24.4004 415 24.4004 412.9V380.8Z" fill="#CE9F38"/>
<path id="&#60;Path&#62;_30" d="M28.8994 399.3C29.4994 403.7 27.4994 407.7 28.0994 412C28.6994 412.2 29.2994 412.5 29.9994 412.6H30.2994C33.0994 409.8 30.5994 403.1 30.7994 399.5C30.8994 397.6 33.1994 388.1 29.6994 388.1C26.4994 388.1 28.6994 397.5 28.8994 399.3Z" fill="#E5AE41"/>
</g>
</g>
<g id="ch4">
<g id="&#60;Group&#62;_31">
<g id="&#60;Group&#62;_32">
<g id="&#60;Group&#62;_33">
<g id="&#60;Group&#62;_34">
<path id="&#60;Compound Path&#62;_13" fill-rule="evenodd" clip-rule="evenodd" d="M27.5996 464.8C42.6996 464.8 54.9996 477.1 54.9996 492.2C54.9996 507.4 42.6996 519.7 27.5996 519.7C12.3996 519.7 0.0996094 507.4 0.0996094 492.2C0.0996094 477.1 12.3996 464.8 27.5996 464.8ZM8.89961 492.2C8.89961 502.6 17.1996 510.9 27.5996 510.9C37.8996 510.9 46.1996 502.6 46.1996 492.2C46.1996 481.9 37.8996 473.6 27.5996 473.6C17.1996 473.6 8.89961 481.9 8.89961 492.2Z" fill="#7C5438"/>
</g>
<g id="&#60;Group&#62;_35" opacity="0.5">
<path id="&#60;Compound Path&#62;_14" fill-rule="evenodd" clip-rule="evenodd" d="M27.2004 467.8C40.9004 467.8 52.0004 478.9 52.0004 492.6C52.0004 506.3 40.9004 517.4 27.2004 517.4C13.5004 517.4 2.40039 506.3 2.40039 492.6C2.40039 478.9 13.5004 467.8 27.2004 467.8ZM5.40039 492.5C5.40039 504.6 15.2004 514.4 27.3004 514.4C39.3004 514.4 49.1004 504.6 49.1004 492.5C49.1004 480.5 39.3004 470.7 27.3004 470.7C15.2004 470.7 5.40039 480.5 5.40039 492.5Z" fill="#CE9F38"/>
</g>
<path id="&#60;Path&#62;_31" d="M37.4 513.5C38.7 513.7 40.1 513.7 41.2 513L42.6 512.1C44.8 508.7 48.2 506.6 50 502.7C50.9 500.7 51.5 498.4 51.7 496.2C52 493.7 51.5 490.5 49.3 493.6C47 496.9 47.4 502.1 45.1 505.6C43.5 507.9 36.9 510.9 37.4 513.5Z" fill="#E5AE41"/>
<path id="&#60;Path&#62;_32" d="M4.2001 489.4C6.5001 489.9 8.0001 480.5 9.8001 478.3C13.0001 474.2 16.5001 472.8 21.2001 471.6L22.1001 471.3C24.4001 471.2 24.2001 469.6 22.1001 469.2C21.0001 469 18.8001 470.1 17.8001 470.5C15.1001 471.5 12.9001 473.2 10.9001 475C7.4001 478.2 2.2001 484.3 4.2001 489.4Z" fill="#E5AE41"/>
</g>
</g>
<path id="&#60;Path&#62;_33" d="M20.0996 436.9C20.0996 433.8 23.4996 431.3 27.5996 431.3C31.7996 431.3 35.0996 433.8 35.0996 436.9V483.9C35.0996 486.9 31.7996 489.4 27.5996 489.4C23.4996 489.4 20.0996 486.9 20.0996 483.9V436.9Z" fill="#7C5438"/>
<path id="&#60;Path&#62;_34" opacity="0.4" d="M24.4004 451C24.4004 448.9 26.3004 447.2 28.6004 447.2C31.0004 447.2 32.9004 448.9 32.9004 451V483.1C32.9004 485.2 31.0004 486.9 28.6004 486.9C26.3004 486.9 24.4004 485.2 24.4004 483.1V451Z" fill="#CE9F38"/>
<path id="&#60;Path&#62;_35" d="M28.8994 469.499C29.4994 473.899 27.4994 477.999 28.0994 482.199C28.6994 482.399 29.2994 482.799 29.9994 482.799H30.2994C33.0994 479.999 30.5994 473.399 30.7994 469.799C30.8994 467.799 33.1994 458.399 29.6994 458.399C26.4994 458.399 28.6994 467.699 28.8994 469.499Z" fill="#E5AE41"/>
</g>
<g id="&#60;Group&#62;_36">
<g id="&#60;Group&#62;_37">
<g id="&#60;Group&#62;_38">
<g id="&#60;Group&#62;_39">
<path id="&#60;Compound Path&#62;_15" fill-rule="evenodd" clip-rule="evenodd" d="M27.5996 535.6C42.6996 535.6 54.9996 547.9 54.9996 563C54.9996 578.2 42.6996 590.5 27.5996 590.5C12.3996 590.5 0.0996094 578.2 0.0996094 563C0.0996094 547.9 12.3996 535.6 27.5996 535.6ZM8.89961 563C8.89961 573.4 17.1996 581.7 27.5996 581.7C37.8996 581.7 46.1996 573.4 46.1996 563C46.1996 552.7 37.8996 544.4 27.5996 544.4C17.1996 544.4 8.89961 552.7 8.89961 563Z" fill="#7C5438"/>
</g>
<g id="&#60;Group&#62;_40" opacity="0.5">
<path id="&#60;Compound Path&#62;_16" fill-rule="evenodd" clip-rule="evenodd" d="M27.2004 538.5C40.9004 538.5 52.0004 549.6 52.0004 563.3C52.0004 577 40.9004 588.1 27.2004 588.1C13.5004 588.1 2.40039 577 2.40039 563.3C2.40039 549.6 13.5004 538.5 27.2004 538.5ZM5.40039 563.3C5.40039 575.4 15.2004 585.2 27.3004 585.2C39.3004 585.2 49.1004 575.4 49.1004 563.3C49.1004 551.3 39.3004 541.5 27.3004 541.5C15.2004 541.5 5.40039 551.3 5.40039 563.3Z" fill="#CE9F38"/>
</g>
<path id="&#60;Path&#62;_36" d="M37.4 584.3C38.7 584.5 40.1 584.4 41.2 583.7L42.6 582.9C44.8 579.5 48.2 577.4 50 573.5C50.9 571.4 51.5 569.1 51.7 567C52 564.5 51.5 561.3 49.3 564.4C47 567.6 47.4 572.9 45.1 576.4C43.5 578.7 36.9 581.7 37.4 584.3Z" fill="#E5AE41"/>
<path id="&#60;Path&#62;_37" d="M4.2001 560.2C6.5001 560.7 8.0001 551.3 9.8001 549.1C13.0001 545 16.5001 543.6 21.2001 542.3L22.1001 542C24.4001 542 24.2001 540.3 22.1001 540C21.0001 539.8 18.8001 540.8 17.8001 541.2C15.1001 542.3 12.9001 543.9 10.9001 545.8C7.4001 548.9 2.2001 555.1 4.2001 560.2Z" fill="#E5AE41"/>
</g>
</g>
<path id="&#60;Path&#62;_38" d="M20.0996 507.6C20.0996 504.5 23.4996 502 27.5996 502C31.7996 502 35.0996 504.5 35.0996 507.6V554.6C35.0996 557.7 31.7996 560.2 27.5996 560.2C23.4996 560.2 20.0996 557.7 20.0996 554.6V507.6Z" fill="#7C5438"/>
<path id="&#60;Path&#62;_39" opacity="0.4" d="M24.4004 521.8C24.4004 519.7 26.3004 518 28.6004 518C31.0004 518 32.9004 519.7 32.9004 521.8V553.9C32.9004 556 31.0004 557.7 28.6004 557.7C26.3004 557.7 24.4004 556 24.4004 553.9V521.8Z" fill="#CE9F38"/>
<path id="&#60;Path&#62;_40" d="M28.8994 540.3C29.4994 544.7 27.4994 548.7 28.0994 553C28.6994 553.2 29.2994 553.5 29.9994 553.6H30.2994C33.0994 550.8 30.5994 544.1 30.7994 540.5C30.8994 538.6 33.1994 529.1 29.6994 529.1C26.4994 529.1 28.6994 538.5 28.8994 540.3Z" fill="#E5AE41"/>
</g>
</g>
<g id="ch5">
<g id="&#60;Group&#62;_41">
<g id="&#60;Group&#62;_42">
<g id="&#60;Group&#62;_43">
<g id="&#60;Group&#62;_44">
<path id="&#60;Compound Path&#62;_17" fill-rule="evenodd" clip-rule="evenodd" d="M27.5996 604.8C42.6996 604.8 54.9996 617.1 54.9996 632.3C54.9996 647.4 42.6996 659.7 27.5996 659.7C12.3996 659.7 0.0996094 647.4 0.0996094 632.3C0.0996094 617.1 12.3996 604.8 27.5996 604.8ZM8.89961 632.3C8.89961 642.6 17.1996 650.9 27.5996 650.9C37.8996 650.9 46.1996 642.6 46.1996 632.3C46.1996 621.9 37.8996 613.6 27.5996 613.6C17.1996 613.6 8.89961 621.9 8.89961 632.3Z" fill="#7C5438"/>
</g>
<g id="&#60;Group&#62;_45" opacity="0.5">
<path id="&#60;Compound Path&#62;_18" fill-rule="evenodd" clip-rule="evenodd" d="M27.2004 607.8C40.9004 607.8 52.0004 618.9 52.0004 632.6C52.0004 646.3 40.9004 657.4 27.2004 657.4C13.5004 657.4 2.40039 646.3 2.40039 632.6C2.40039 618.9 13.5004 607.8 27.2004 607.8ZM5.40039 632.5C5.40039 644.6 15.2004 654.4 27.3004 654.4C39.3004 654.4 49.1004 644.6 49.1004 632.5C49.1004 620.5 39.3004 610.7 27.3004 610.7C15.2004 610.7 5.40039 620.5 5.40039 632.5Z" fill="#CE9F38"/>
</g>
<path id="&#60;Path&#62;_41" d="M37.4 653.5C38.7 653.7 40.1 653.7 41.2 653L42.6 652.1C44.8 648.7 48.2 646.6 50 642.7C50.9 640.7 51.5 638.4 51.7 636.2C52 633.7 51.5 630.5 49.3 633.6C47 636.9 47.4 642.1 45.1 645.6C43.5 647.9 36.9 650.9 37.4 653.5Z" fill="#E5AE41"/>
<path id="&#60;Path&#62;_42" d="M4.2001 629.4C6.5001 629.9 8.0001 620.5 9.8001 618.3C13.0001 614.2 16.5001 612.8 21.2001 611.6L22.1001 611.3C24.4001 611.2 24.2001 609.6 22.1001 609.2C21.0001 609 18.8001 610.1 17.8001 610.5C15.1001 611.5 12.9001 613.2 10.9001 615C7.4001 618.2 2.2001 624.3 4.2001 629.4Z" fill="#E5AE41"/>
</g>
</g>
<path id="&#60;Path&#62;_43" d="M20.0996 576.9C20.0996 573.8 23.4996 571.3 27.5996 571.3C31.7996 571.3 35.0996 573.8 35.0996 576.9V623.9C35.0996 626.9 31.7996 629.4 27.5996 629.4C23.4996 629.4 20.0996 626.9 20.0996 623.9V576.9Z" fill="#7C5438"/>
<path id="&#60;Path&#62;_44" opacity="0.4" d="M24.4004 591C24.4004 588.9 26.3004 587.2 28.6004 587.2C31.0004 587.2 32.9004 588.9 32.9004 591V623.1C32.9004 625.2 31.0004 626.9 28.6004 626.9C26.3004 626.9 24.4004 625.2 24.4004 623.1V591Z" fill="#CE9F38"/>
<path id="&#60;Path&#62;_45" d="M28.8994 609.499C29.4994 613.899 27.4994 617.999 28.0994 622.199C28.6994 622.399 29.2994 622.799 29.9994 622.799H30.2994C33.0994 619.999 30.5994 613.399 30.7994 609.799C30.8994 607.799 33.1994 598.399 29.6994 598.399C26.4994 598.399 28.6994 607.699 28.8994 609.499Z" fill="#E5AE41"/>
</g>
<g id="&#60;Group&#62;_46">
<g id="&#60;Group&#62;_47">
<g id="&#60;Group&#62;_48">
<g id="&#60;Group&#62;_49">
<path id="&#60;Compound Path&#62;_19" fill-rule="evenodd" clip-rule="evenodd" d="M27.5996 675.6C42.6996 675.6 54.9996 687.9 54.9996 703.1C54.9996 718.2 42.6996 730.5 27.5996 730.5C12.3996 730.5 0.0996094 718.2 0.0996094 703.1C0.0996094 687.9 12.3996 675.6 27.5996 675.6ZM8.89961 703C8.89961 713.4 17.1996 721.7 27.5996 721.7C37.8996 721.7 46.1996 713.4 46.1996 703C46.1996 692.7 37.8996 684.4 27.5996 684.4C17.1996 684.4 8.89961 692.7 8.89961 703Z" fill="#7C5438"/>
</g>
<g id="&#60;Group&#62;_50" opacity="0.5">
<path id="&#60;Compound Path&#62;_20" fill-rule="evenodd" clip-rule="evenodd" d="M27.2004 678.5C40.9004 678.5 52.0004 689.6 52.0004 703.3C52.0004 717 40.9004 728.1 27.2004 728.1C13.5004 728.1 2.40039 717 2.40039 703.3C2.40039 689.6 13.5004 678.5 27.2004 678.5ZM5.40039 703.3C5.40039 715.4 15.2004 725.2 27.3004 725.2C39.3004 725.2 49.1004 715.4 49.1004 703.3C49.1004 691.3 39.3004 681.5 27.3004 681.5C15.2004 681.5 5.40039 691.3 5.40039 703.3Z" fill="#CE9F38"/>
</g>
<path id="&#60;Path&#62;_46" d="M37.4 724.3C38.7 724.5 40.1 724.4 41.2 723.7L42.6 722.9C44.8 719.5 48.2 717.4 50 713.5C50.9 711.4 51.5 709.1 51.7 707C52 704.5 51.5 701.3 49.3 704.4C47 707.6 47.4 712.9 45.1 716.4C43.5 718.7 36.9 721.7 37.4 724.3Z" fill="#E5AE41"/>
<path id="&#60;Path&#62;_47" d="M4.2001 700.2C6.5001 700.7 8.0001 691.3 9.8001 689.1C13.0001 685 16.5001 683.6 21.2001 682.3L22.1001 682C24.4001 682 24.2001 680.3 22.1001 680C21.0001 679.8 18.8001 680.8 17.8001 681.2C15.1001 682.3 12.9001 683.9 10.9001 685.8C7.4001 688.9 2.2001 695.1 4.2001 700.2Z" fill="#E5AE41"/>
</g>
</g>
<path id="&#60;Path&#62;_48" d="M20.0996 647.6C20.0996 644.5 23.4996 642 27.5996 642C31.7996 642 35.0996 644.5 35.0996 647.6V694.6C35.0996 697.7 31.7996 700.2 27.5996 700.2C23.4996 700.2 20.0996 697.7 20.0996 694.6V647.6Z" fill="#7C5438"/>
<path id="&#60;Path&#62;_49" opacity="0.4" d="M24.4004 661.8C24.4004 659.7 26.3004 658 28.6004 658C31.0004 658 32.9004 659.7 32.9004 661.8V693.9C32.9004 696 31.0004 697.7 28.6004 697.7C26.3004 697.7 24.4004 696 24.4004 693.9V661.8Z" fill="#CE9F38"/>
<path id="&#60;Path&#62;_50" d="M28.8994 680.3C29.4994 684.7 27.4994 688.7 28.0994 693C28.6994 693.2 29.2994 693.5 29.9994 693.6H30.2994C33.0994 690.8 30.5994 684.1 30.7994 680.5C30.8994 678.6 33.1994 669.1 29.6994 669.1C26.4994 669.1 28.6994 678.5 28.8994 680.3Z" fill="#E5AE41"/>
</g>
</g>
<g id="ch6">
<g id="&#60;Group&#62;_51">
<g id="&#60;Group&#62;_52">
<g id="&#60;Group&#62;_53">
<g id="&#60;Group&#62;_54">
<path id="&#60;Compound Path&#62;_21" fill-rule="evenodd" clip-rule="evenodd" d="M27.5996 745.8C42.6996 745.8 54.9996 758.1 54.9996 773.3C54.9996 788.4 42.6996 800.7 27.5996 800.7C12.3996 800.7 0.0996094 788.4 0.0996094 773.3C0.0996094 758.1 12.3996 745.8 27.5996 745.8ZM8.89961 773.3C8.89961 783.6 17.1996 791.9 27.5996 791.9C37.8996 791.9 46.1996 783.6 46.1996 773.3C46.1996 762.9 37.8996 754.6 27.5996 754.6C17.1996 754.6 8.89961 762.9 8.89961 773.3Z" fill="#7C5438"/>
</g>
<g id="&#60;Group&#62;_55" opacity="0.5">
<path id="&#60;Compound Path&#62;_22" fill-rule="evenodd" clip-rule="evenodd" d="M27.2004 748.8C40.9004 748.8 52.0004 759.9 52.0004 773.6C52.0004 787.3 40.9004 798.4 27.2004 798.4C13.5004 798.4 2.40039 787.3 2.40039 773.6C2.40039 759.9 13.5004 748.8 27.2004 748.8ZM5.40039 773.6C5.40039 785.6 15.2004 795.4 27.3004 795.4C39.3004 795.4 49.1004 785.6 49.1004 773.5C49.1004 761.5 39.3004 751.7 27.3004 751.7C15.2004 751.7 5.40039 761.5 5.40039 773.5V773.6Z" fill="#CE9F38"/>
</g>
<path id="&#60;Path&#62;_51" d="M37.4 794.5C38.7 794.7 40.1 794.7 41.2 794L42.6 793.1C44.8 789.7 48.2 787.6 50 783.7C50.9 781.7 51.5 779.4 51.7 777.2C52 774.7 51.5 771.5 49.3 774.6C47 777.9 47.4 783.1 45.1 786.6C43.5 788.9 36.9 791.9 37.4 794.5Z" fill="#E5AE41"/>
<path id="&#60;Path&#62;_52" d="M4.2001 770.4C6.5001 770.9 8.0001 761.5 9.8001 759.3C13.0001 755.2 16.5001 753.8 21.2001 752.6L22.1001 752.3C24.4001 752.2 24.2001 750.6 22.1001 750.2C21.0001 750 18.8001 751.1 17.8001 751.5C15.1001 752.5 12.9001 754.2 10.9001 756C7.4001 759.2 2.2001 765.3 4.2001 770.4Z" fill="#E5AE41"/>
</g>
</g>
<path id="&#60;Path&#62;_53" d="M20.0996 717.9C20.0996 714.8 23.4996 712.3 27.5996 712.3C31.7996 712.3 35.0996 714.8 35.0996 717.9V764.9C35.0996 767.9 31.7996 770.4 27.5996 770.4C23.4996 770.4 20.0996 767.9 20.0996 764.9V717.9Z" fill="#7C5438"/>
<path id="&#60;Path&#62;_54" opacity="0.4" d="M24.4004 732C24.4004 729.9 26.3004 728.2 28.6004 728.2C31.0004 728.2 32.9004 729.9 32.9004 732V764.1C32.9004 766.2 31.0004 767.9 28.6004 767.9C26.3004 767.9 24.4004 766.2 24.4004 764.1V732Z" fill="#CE9F38"/>
<path id="&#60;Path&#62;_55" d="M28.8994 750.499C29.4994 754.899 27.4994 758.999 28.0994 763.199C28.6994 763.399 29.2994 763.799 29.9994 763.799H30.2994C33.0994 760.999 30.5994 754.399 30.7994 750.799C30.8994 748.799 33.1994 739.399 29.6994 739.399C26.4994 739.399 28.6994 748.699 28.8994 750.499Z" fill="#E5AE41"/>
</g>
<g id="&#60;Group&#62;_56">
<g id="&#60;Group&#62;_57">
<g id="&#60;Group&#62;_58">
<g id="&#60;Group&#62;_59">
<path id="&#60;Compound Path&#62;_23" fill-rule="evenodd" clip-rule="evenodd" d="M27.5996 816.6C42.6996 816.6 54.9996 828.9 54.9996 844.1C54.9996 859.2 42.6996 871.5 27.5996 871.5C12.3996 871.5 0.0996094 859.2 0.0996094 844.1C0.0996094 828.9 12.3996 816.6 27.5996 816.6ZM8.89961 844C8.89961 854.4 17.1996 862.7 27.5996 862.7C37.8996 862.7 46.1996 854.4 46.1996 844C46.1996 833.7 37.8996 825.4 27.5996 825.4C17.1996 825.4 8.89961 833.7 8.89961 844Z" fill="#7C5438"/>
</g>
<g id="&#60;Group&#62;_60" opacity="0.5">
<path id="&#60;Compound Path&#62;_24" fill-rule="evenodd" clip-rule="evenodd" d="M27.2004 819.5C40.9004 819.5 52.0004 830.6 52.0004 844.3C52.0004 858 40.9004 869.1 27.2004 869.1C13.5004 869.1 2.40039 858 2.40039 844.3C2.40039 830.6 13.5004 819.5 27.2004 819.5ZM5.40039 844.3C5.40039 856.4 15.2004 866.2 27.3004 866.2C39.3004 866.2 49.1004 856.4 49.1004 844.3C49.1004 832.3 39.3004 822.5 27.3004 822.5C15.2004 822.5 5.40039 832.3 5.40039 844.3Z" fill="#CE9F38"/>
</g>
<path id="&#60;Path&#62;_56" d="M37.4 865.3C38.7 865.5 40.1 865.4 41.2 864.7L42.6 863.9C44.8 860.5 48.2 858.4 50 854.5C50.9 852.4 51.5 850.1 51.7 848C52 845.5 51.5 842.3 49.3 845.4C47 848.6 47.4 853.9 45.1 857.4C43.5 859.7 36.9 862.7 37.4 865.3Z" fill="#E5AE41"/>
<path id="&#60;Path&#62;_57" d="M4.2001 841.2C6.5001 841.7 8.0001 832.3 9.8001 830.1C13.0001 826 16.5001 824.6 21.2001 823.3L22.1001 823C24.4001 823 24.2001 821.3 22.1001 821C21.0001 820.8 18.8001 821.8 17.8001 822.2C15.1001 823.3 12.9001 824.9 10.9001 826.8C7.4001 829.9 2.2001 836.1 4.2001 841.2Z" fill="#E5AE41"/>
</g>
</g>
<path id="&#60;Path&#62;_58" d="M20.0996 788.6C20.0996 785.5 23.4996 783 27.5996 783C31.7996 783 35.0996 785.5 35.0996 788.6V835.6C35.0996 838.7 31.7996 841.2 27.5996 841.2C23.4996 841.2 20.0996 838.7 20.0996 835.6V788.6Z" fill="#7C5438"/>
<path id="&#60;Path&#62;_59" opacity="0.4" d="M24.4004 802.8C24.4004 800.7 26.3004 799 28.6004 799C31.0004 799 32.9004 800.7 32.9004 802.8V834.9C32.9004 837 31.0004 838.7 28.6004 838.7C26.3004 838.7 24.4004 837 24.4004 834.9V802.8Z" fill="#CE9F38"/>
<path id="&#60;Path&#62;_60" d="M28.8994 821.3C29.4994 825.7 27.4994 829.7 28.0994 834C28.6994 834.2 29.2994 834.5 29.9994 834.6H30.2994C33.0994 831.8 30.5994 825.1 30.7994 821.5C30.8994 819.6 33.1994 810.1 29.6994 810.1C26.4994 810.1 28.6994 819.5 28.8994 821.3Z" fill="#E5AE41"/>
</g>
</g>
<g id="ch7">
<g id="&#60;Group&#62;_61">
<g id="&#60;Group&#62;_62">
<g id="&#60;Group&#62;_63">
<g id="&#60;Group&#62;_64">
<path id="&#60;Compound Path&#62;_25" fill-rule="evenodd" clip-rule="evenodd" d="M27.5996 884.8C42.6996 884.8 54.9996 897.1 54.9996 912.3C54.9996 927.4 42.6996 939.7 27.5996 939.7C12.3996 939.7 0.0996094 927.4 0.0996094 912.3C0.0996094 897.1 12.3996 884.8 27.5996 884.8ZM8.89961 912.3C8.89961 922.6 17.1996 930.9 27.5996 930.9C37.8996 930.9 46.1996 922.6 46.1996 912.3C46.1996 901.9 37.8996 893.6 27.5996 893.6C17.1996 893.6 8.89961 901.9 8.89961 912.3Z" fill="#7C5438"/>
</g>
<g id="&#60;Group&#62;_65" opacity="0.5">
<path id="&#60;Compound Path&#62;_26" fill-rule="evenodd" clip-rule="evenodd" d="M27.2004 887.8C40.9004 887.8 52.0004 898.9 52.0004 912.6C52.0004 926.3 40.9004 937.4 27.2004 937.4C13.5004 937.4 2.40039 926.3 2.40039 912.6C2.40039 898.9 13.5004 887.8 27.2004 887.8ZM5.40039 912.5C5.40039 924.6 15.2004 934.4 27.3004 934.4C39.3004 934.4 49.1004 924.6 49.1004 912.5C49.1004 900.5 39.3004 890.7 27.3004 890.7C15.2004 890.7 5.40039 900.5 5.40039 912.5Z" fill="#CE9F38"/>
</g>
<path id="&#60;Path&#62;_61" d="M37.4 933.5C38.7 933.7 40.1 933.7 41.2 933L42.6 932.1C44.8 928.7 48.2 926.6 50 922.7C50.9 920.7 51.5 918.4 51.7 916.2C52 913.7 51.5 910.5 49.3 913.6C47 916.9 47.4 922.1 45.1 925.6C43.5 927.9 36.9 930.9 37.4 933.5Z" fill="#E5AE41"/>
<path id="&#60;Path&#62;_62" d="M4.2001 909.4C6.5001 909.9 8.0001 900.5 9.8001 898.3C13.0001 894.2 16.5001 892.8 21.2001 891.6L22.1001 891.3C24.4001 891.2 24.2001 889.6 22.1001 889.2C21.0001 889 18.8001 890.1 17.8001 890.5C15.1001 891.5 12.9001 893.2 10.9001 895C7.4001 898.2 2.2001 904.3 4.2001 909.4Z" fill="#E5AE41"/>
</g>
</g>
<path id="&#60;Path&#62;_63" d="M20.0996 856.9C20.0996 853.8 23.4996 851.3 27.5996 851.3C31.7996 851.3 35.0996 853.8 35.0996 856.9V903.9C35.0996 906.9 31.7996 909.4 27.5996 909.4C23.4996 909.4 20.0996 906.9 20.0996 903.9V856.9Z" fill="#7C5438"/>
<path id="&#60;Path&#62;_64" opacity="0.4" d="M24.4004 871C24.4004 868.9 26.3004 867.2 28.6004 867.2C31.0004 867.2 32.9004 868.9 32.9004 871V903.1C32.9004 905.2 31.0004 906.9 28.6004 906.9C26.3004 906.9 24.4004 905.2 24.4004 903.1V871Z" fill="#CE9F38"/>
<path id="&#60;Path&#62;_65" d="M28.8994 889.499C29.4994 893.899 27.4994 897.999 28.0994 902.199C28.6994 902.399 29.2994 902.799 29.9994 902.799H30.2994C33.0994 899.999 30.5994 893.399 30.7994 889.799C30.8994 887.799 33.1994 878.399 29.6994 878.399C26.4994 878.399 28.6994 887.699 28.8994 889.499Z" fill="#E5AE41"/>
</g>
<g id="&#60;Group&#62;_66">
<g id="&#60;Group&#62;_67">
<g id="&#60;Group&#62;_68">
<g id="&#60;Group&#62;_69">
<path id="&#60;Compound Path&#62;_27" fill-rule="evenodd" clip-rule="evenodd" d="M27.5996 955.6C42.6996 955.6 54.9996 967.9 54.9996 983C54.9996 998.2 42.6996 1010.5 27.5996 1010.5C12.3996 1010.5 0.0996094 998.2 0.0996094 983C0.0996094 967.9 12.3996 955.6 27.5996 955.6ZM8.89961 983C8.89961 993.4 17.1996 1001.7 27.5996 1001.7C37.8996 1001.7 46.1996 993.4 46.1996 983C46.1996 972.7 37.8996 964.4 27.5996 964.4C17.1996 964.4 8.89961 972.7 8.89961 983Z" fill="#7C5438"/>
</g>
<g id="&#60;Group&#62;_70" opacity="0.5">
<path id="&#60;Compound Path&#62;_28" fill-rule="evenodd" clip-rule="evenodd" d="M27.2004 958.5C40.9004 958.5 52.0004 969.6 52.0004 983.3C52.0004 997 40.9004 1008.1 27.2004 1008.1C13.5004 1008.1 2.40039 997 2.40039 983.3C2.40039 969.6 13.5004 958.5 27.2004 958.5ZM5.40039 983.3C5.40039 995.4 15.2004 1005.2 27.3004 1005.2C39.3004 1005.2 49.1004 995.4 49.1004 983.3C49.1004 971.3 39.3004 961.5 27.3004 961.5C15.2004 961.5 5.40039 971.3 5.40039 983.3Z" fill="#CE9F38"/>
</g>
<path id="&#60;Path&#62;_66" d="M37.4 1004.3C38.7 1004.5 40.1 1004.4 41.2 1003.7L42.6 1002.9C44.8 999.5 48.2 997.4 50 993.5C50.9 991.4 51.5 989.1 51.7 987C52 984.5 51.5 981.3 49.3 984.4C47 987.6 47.4 992.9 45.1 996.4C43.5 998.7 36.9 1001.7 37.4 1004.3Z" fill="#E5AE41"/>
<path id="&#60;Path&#62;_67" d="M4.2001 980.2C6.5001 980.7 8.0001 971.3 9.8001 969.1C13.0001 965 16.5001 963.6 21.2001 962.3L22.1001 962C24.4001 962 24.2001 960.3 22.1001 960C21.0001 959.8 18.8001 960.8 17.8001 961.2C15.1001 962.3 12.9001 963.9 10.9001 965.8C7.4001 968.9 2.2001 975.1 4.2001 980.2Z" fill="#E5AE41"/>
</g>
</g>
<path id="&#60;Path&#62;_68" d="M20.0996 927.6C20.0996 924.5 23.4996 922 27.5996 922C31.7996 922 35.0996 924.5 35.0996 927.6V974.6C35.0996 977.7 31.7996 980.2 27.5996 980.2C23.4996 980.2 20.0996 977.7 20.0996 974.6V927.6Z" fill="#7C5438"/>
<path id="&#60;Path&#62;_69" opacity="0.4" d="M24.4004 941.8C24.4004 939.7 26.3004 938 28.6004 938C31.0004 938 32.9004 939.7 32.9004 941.8V973.9C32.9004 976 31.0004 977.7 28.6004 977.7C26.3004 977.7 24.4004 976 24.4004 973.9V941.8Z" fill="#CE9F38"/>
<path id="&#60;Path&#62;_70" d="M28.8994 960.3C29.4994 964.7 27.4994 968.7 28.0994 973C28.6994 973.2 29.2994 973.5 29.9994 973.6H30.2994C33.0994 970.8 30.5994 964.1 30.7994 960.5C30.8994 958.6 33.1994 949.1 29.6994 949.1C26.4994 949.1 28.6994 958.5 28.8994 960.3Z" fill="#E5AE41"/>
</g>
</g>
<g id="ch8">
<g id="&#60;Group&#62;_71">
<g id="&#60;Group&#62;_72">
<g id="&#60;Group&#62;_73">
<g id="&#60;Group&#62;_74">
<path id="&#60;Compound Path&#62;_29" fill-rule="evenodd" clip-rule="evenodd" d="M27.5996 1025.8C42.6996 1025.8 54.9996 1038.1 54.9996 1053.3C54.9996 1068.4 42.6996 1080.7 27.5996 1080.7C12.3996 1080.7 0.0996094 1068.4 0.0996094 1053.3C0.0996094 1038.1 12.3996 1025.8 27.5996 1025.8ZM8.89961 1053.3C8.89961 1063.6 17.1996 1071.9 27.5996 1071.9C37.8996 1071.9 46.1996 1063.6 46.1996 1053.3C46.1996 1042.9 37.8996 1034.6 27.5996 1034.6C17.1996 1034.6 8.89961 1042.9 8.89961 1053.3Z" fill="#7C5438"/>
</g>
<g id="&#60;Group&#62;_75" opacity="0.5">
<path id="&#60;Compound Path&#62;_30" fill-rule="evenodd" clip-rule="evenodd" d="M27.2004 1028.8C40.9004 1028.8 52.0004 1039.9 52.0004 1053.6C52.0004 1067.3 40.9004 1078.4 27.2004 1078.4C13.5004 1078.4 2.40039 1067.3 2.40039 1053.6C2.40039 1039.9 13.5004 1028.8 27.2004 1028.8ZM5.40039 1053.5C5.40039 1065.6 15.2004 1075.4 27.3004 1075.4C39.3004 1075.4 49.1004 1065.6 49.1004 1053.5C49.1004 1041.5 39.3004 1031.7 27.3004 1031.7C15.2004 1031.7 5.40039 1041.5 5.40039 1053.5Z" fill="#CE9F38"/>
</g>
<path id="&#60;Path&#62;_71" d="M37.4 1074.5C38.7 1074.7 40.1 1074.7 41.2 1074L42.6 1073.1C44.8 1069.7 48.2 1067.6 50 1063.7C50.9 1061.7 51.5 1059.4 51.7 1057.2C52 1054.7 51.5 1051.5 49.3 1054.6C47 1057.9 47.4 1063.1 45.1 1066.6C43.5 1068.9 36.9 1071.9 37.4 1074.5Z" fill="#E5AE41"/>
<path id="&#60;Path&#62;_72" d="M4.2001 1050.4C6.5001 1050.9 8.0001 1041.5 9.8001 1039.3C13.0001 1035.2 16.5001 1033.8 21.2001 1032.6L22.1001 1032.3C24.4001 1032.2 24.2001 1030.6 22.1001 1030.2C21.0001 1030 18.8001 1031.1 17.8001 1031.5C15.1001 1032.5 12.9001 1034.2 10.9001 1036C7.4001 1039.2 2.2001 1045.3 4.2001 1050.4Z" fill="#E5AE41"/>
</g>
</g>
<path id="&#60;Path&#62;_73" d="M20.0996 997.9C20.0996 994.8 23.4996 992.3 27.5996 992.3C31.7996 992.3 35.0996 994.8 35.0996 997.9V1044.9C35.0996 1047.9 31.7996 1050.4 27.5996 1050.4C23.4996 1050.4 20.0996 1047.9 20.0996 1044.9V997.9Z" fill="#7C5438"/>
<path id="&#60;Path&#62;_74" opacity="0.4" d="M24.4004 1012C24.4004 1009.9 26.3004 1008.2 28.6004 1008.2C31.0004 1008.2 32.9004 1009.9 32.9004 1012V1044.1C32.9004 1046.2 31.0004 1047.9 28.6004 1047.9C26.3004 1047.9 24.4004 1046.2 24.4004 1044.1V1012Z" fill="#CE9F38"/>
<path id="&#60;Path&#62;_75" d="M28.8994 1030.5C29.4994 1034.9 27.4994 1039 28.0994 1043.2C28.6994 1043.4 29.2994 1043.8 29.9994 1043.8H30.2994C33.0994 1041 30.5994 1034.4 30.7994 1030.8C30.8994 1028.8 33.1994 1019.4 29.6994 1019.4C26.4994 1019.4 28.6994 1028.7 28.8994 1030.5Z" fill="#E5AE41"/>
</g>
<g id="&#60;Group&#62;_76">
<g id="&#60;Group&#62;_77">
<g id="&#60;Group&#62;_78">
<g id="&#60;Group&#62;_79">
<path id="&#60;Compound Path&#62;_31" fill-rule="evenodd" clip-rule="evenodd" d="M27.5996 1096.6C42.6996 1096.6 54.9996 1108.9 54.9996 1124.1C54.9996 1139.2 42.6996 1151.5 27.5996 1151.5C12.3996 1151.5 0.0996094 1139.2 0.0996094 1124.1C0.0996094 1108.9 12.3996 1096.6 27.5996 1096.6ZM8.89961 1124C8.89961 1134.4 17.1996 1142.7 27.5996 1142.7C37.8996 1142.7 46.1996 1134.4 46.1996 1124C46.1996 1113.7 37.8996 1105.4 27.5996 1105.4C17.1996 1105.4 8.89961 1113.7 8.89961 1124Z" fill="#7C5438"/>
</g>
<g id="&#60;Group&#62;_80" opacity="0.5">
<path id="&#60;Compound Path&#62;_32" fill-rule="evenodd" clip-rule="evenodd" d="M27.2004 1099.5C40.9004 1099.5 52.0004 1110.6 52.0004 1124.3C52.0004 1138 40.9004 1149.1 27.2004 1149.1C13.5004 1149.1 2.40039 1138 2.40039 1124.3C2.40039 1110.6 13.5004 1099.5 27.2004 1099.5ZM5.40039 1124.3C5.40039 1136.4 15.2004 1146.2 27.3004 1146.2C39.3004 1146.2 49.1004 1136.4 49.1004 1124.3C49.1004 1112.3 39.3004 1102.5 27.3004 1102.5C15.2004 1102.5 5.40039 1112.3 5.40039 1124.3Z" fill="#CE9F38"/>
</g>
<path id="&#60;Path&#62;_76" d="M37.4 1145.3C38.7 1145.5 40.1 1145.4 41.2 1144.7L42.6 1143.9C44.8 1140.5 48.2 1138.4 50 1134.5C50.9 1132.4 51.5 1130.1 51.7 1128C52 1125.5 51.5 1122.3 49.3 1125.4C47 1128.6 47.4 1133.9 45.1 1137.4C43.5 1139.7 36.9 1142.7 37.4 1145.3Z" fill="#E5AE41"/>
<path id="&#60;Path&#62;_77" d="M4.2001 1121.2C6.5001 1121.7 8.0001 1112.3 9.8001 1110.1C13.0001 1106 16.5001 1104.6 21.2001 1103.3L22.1001 1103C24.4001 1103 24.2001 1101.3 22.1001 1101C21.0001 1100.8 18.8001 1101.8 17.8001 1102.2C15.1001 1103.3 12.9001 1104.9 10.9001 1106.8C7.4001 1109.9 2.2001 1116.1 4.2001 1121.2Z" fill="#E5AE41"/>
</g>
</g>
<path id="&#60;Path&#62;_78" d="M20.0996 1068.6C20.0996 1065.5 23.4996 1063 27.5996 1063C31.7996 1063 35.0996 1065.5 35.0996 1068.6V1115.6C35.0996 1118.7 31.7996 1121.2 27.5996 1121.2C23.4996 1121.2 20.0996 1118.7 20.0996 1115.6V1068.6Z" fill="#7C5438"/>
<path id="&#60;Path&#62;_79" opacity="0.4" d="M24.4004 1082.8C24.4004 1080.7 26.3004 1079 28.6004 1079C31.0004 1079 32.9004 1080.7 32.9004 1082.8V1114.9C32.9004 1117 31.0004 1118.7 28.6004 1118.7C26.3004 1118.7 24.4004 1117 24.4004 1114.9V1082.8Z" fill="#CE9F38"/>
<path id="&#60;Path&#62;_80" d="M28.8994 1101.3C29.4994 1105.7 27.4994 1109.7 28.0994 1114C28.6994 1114.2 29.2994 1114.5 29.9994 1114.6H30.2994C33.0994 1111.8 30.5994 1105.1 30.7994 1101.5C30.8994 1099.6 33.1994 1090.1 29.6994 1090.1C26.4994 1090.1 28.6994 1099.5 28.8994 1101.3Z" fill="#E5AE41"/>
</g>
</g>
<g id="ch9">
<g id="&#60;Group&#62;_81">
<g id="&#60;Group&#62;_82">
<g id="&#60;Group&#62;_83">
<g id="&#60;Group&#62;_84">
<path id="&#60;Compound Path&#62;_33" fill-rule="evenodd" clip-rule="evenodd" d="M27.5996 1166.8C42.6996 1166.8 54.9996 1179.1 54.9996 1194.2C54.9996 1209.4 42.6996 1221.7 27.5996 1221.7C12.3996 1221.7 0.0996094 1209.4 0.0996094 1194.2C0.0996094 1179.1 12.3996 1166.8 27.5996 1166.8ZM8.89961 1194.2C8.89961 1204.6 17.1996 1212.9 27.5996 1212.9C37.8996 1212.9 46.1996 1204.6 46.1996 1194.2C46.1996 1183.9 37.8996 1175.6 27.5996 1175.6C17.1996 1175.6 8.89961 1183.9 8.89961 1194.2Z" fill="#7C5438"/>
</g>
<g id="&#60;Group&#62;_85" opacity="0.5">
<path id="&#60;Compound Path&#62;_34" fill-rule="evenodd" clip-rule="evenodd" d="M27.2004 1169.8C40.9004 1169.8 52.0004 1180.9 52.0004 1194.6C52.0004 1208.3 40.9004 1219.4 27.2004 1219.4C13.5004 1219.4 2.40039 1208.3 2.40039 1194.6C2.40039 1180.9 13.5004 1169.8 27.2004 1169.8ZM5.40039 1194.5C5.40039 1206.6 15.2004 1216.4 27.3004 1216.4C39.3004 1216.4 49.1004 1206.6 49.1004 1194.5C49.1004 1182.5 39.3004 1172.7 27.3004 1172.7C15.2004 1172.7 5.40039 1182.5 5.40039 1194.5Z" fill="#CE9F38"/>
</g>
<path id="&#60;Path&#62;_81" d="M37.4 1215.5C38.7 1215.7 40.1 1215.7 41.2 1215L42.6 1214.1C44.8 1210.7 48.2 1208.6 50 1204.7C50.9 1202.7 51.5 1200.4 51.7 1198.2C52 1195.7 51.5 1192.5 49.3 1195.6C47 1198.9 47.4 1204.1 45.1 1207.6C43.5 1209.9 36.9 1212.9 37.4 1215.5Z" fill="#E5AE41"/>
<path id="&#60;Path&#62;_82" d="M4.2001 1191.4C6.5001 1191.9 8.0001 1182.5 9.8001 1180.3C13.0001 1176.2 16.5001 1174.8 21.2001 1173.6L22.1001 1173.3C24.4001 1173.2 24.2001 1171.6 22.1001 1171.2C21.0001 1171 18.8001 1172.1 17.8001 1172.5C15.1001 1173.5 12.9001 1175.2 10.9001 1177C7.4001 1180.2 2.2001 1186.3 4.2001 1191.4Z" fill="#E5AE41"/>
</g>
</g>
<path id="&#60;Path&#62;_83" d="M20.0996 1138.9C20.0996 1135.8 23.4996 1133.3 27.5996 1133.3C31.7996 1133.3 35.0996 1135.8 35.0996 1138.9V1185.9C35.0996 1188.9 31.7996 1191.4 27.5996 1191.4C23.4996 1191.4 20.0996 1188.9 20.0996 1185.9V1138.9Z" fill="#7C5438"/>
<path id="&#60;Path&#62;_84" opacity="0.4" d="M24.4004 1153C24.4004 1150.9 26.3004 1149.2 28.6004 1149.2C31.0004 1149.2 32.9004 1150.9 32.9004 1153V1185.1C32.9004 1187.2 31.0004 1188.9 28.6004 1188.9C26.3004 1188.9 24.4004 1187.2 24.4004 1185.1V1153Z" fill="#CE9F38"/>
<path id="&#60;Path&#62;_85" d="M28.8994 1171.5C29.4994 1175.9 27.4994 1180 28.0994 1184.2C28.6994 1184.4 29.2994 1184.8 29.9994 1184.8H30.2994C33.0994 1182 30.5994 1175.4 30.7994 1171.8C30.8994 1169.8 33.1994 1160.4 29.6994 1160.4C26.4994 1160.4 28.6994 1169.7 28.8994 1171.5Z" fill="#E5AE41"/>
</g>
<g id="&#60;Group&#62;_86">
<g id="&#60;Group&#62;_87">
<g id="&#60;Group&#62;_88">
<g id="&#60;Group&#62;_89">
<path id="&#60;Compound Path&#62;_35" fill-rule="evenodd" clip-rule="evenodd" d="M27.5996 1237.6C42.6996 1237.6 54.9996 1249.9 54.9996 1265C54.9996 1280.2 42.6996 1292.5 27.5996 1292.5C12.3996 1292.5 0.0996094 1280.2 0.0996094 1265C0.0996094 1249.9 12.3996 1237.6 27.5996 1237.6ZM8.89961 1265C8.89961 1275.4 17.1996 1283.7 27.5996 1283.7C37.8996 1283.7 46.1996 1275.4 46.1996 1265C46.1996 1254.7 37.8996 1246.4 27.5996 1246.4C17.1996 1246.4 8.89961 1254.7 8.89961 1265Z" fill="#7C5438"/>
</g>
<g id="&#60;Group&#62;_90" opacity="0.5">
<path id="&#60;Compound Path&#62;_36" fill-rule="evenodd" clip-rule="evenodd" d="M27.2004 1240.5C40.9004 1240.5 52.0004 1251.6 52.0004 1265.3C52.0004 1279 40.9004 1290.1 27.2004 1290.1C13.5004 1290.1 2.40039 1279 2.40039 1265.3C2.40039 1251.6 13.5004 1240.5 27.2004 1240.5ZM5.40039 1265.3C5.40039 1277.4 15.2004 1287.2 27.3004 1287.2C39.3004 1287.2 49.1004 1277.4 49.1004 1265.3C49.1004 1253.3 39.3004 1243.5 27.3004 1243.5C15.2004 1243.5 5.40039 1253.3 5.40039 1265.3Z" fill="#CE9F38"/>
</g>
<path id="&#60;Path&#62;_86" d="M37.4 1286.3C38.7 1286.5 40.1 1286.4 41.2 1285.7L42.6 1284.9C44.8 1281.5 48.2 1279.4 50 1275.5C50.9 1273.4 51.5 1271.1 51.7 1269C52 1266.5 51.5 1263.3 49.3 1266.4C47 1269.6 47.4 1274.9 45.1 1278.4C43.5 1280.7 36.9 1283.7 37.4 1286.3Z" fill="#E5AE41"/>
<path id="&#60;Path&#62;_87" d="M4.2001 1262.2C6.5001 1262.7 8.0001 1253.3 9.8001 1251.1C13.0001 1247 16.5001 1245.6 21.2001 1244.3L22.1001 1244C24.4001 1244 24.2001 1242.3 22.1001 1242C21.0001 1241.8 18.8001 1242.8 17.8001 1243.2C15.1001 1244.3 12.9001 1245.9 10.9001 1247.8C7.4001 1250.9 2.2001 1257.1 4.2001 1262.2Z" fill="#E5AE41"/>
</g>
</g>
<path id="&#60;Path&#62;_88" d="M20.0996 1209.6C20.0996 1206.5 23.4996 1204 27.5996 1204C31.7996 1204 35.0996 1206.5 35.0996 1209.6V1256.6C35.0996 1259.7 31.7996 1262.2 27.5996 1262.2C23.4996 1262.2 20.0996 1259.7 20.0996 1256.6V1209.6Z" fill="#7C5438"/>
<path id="&#60;Path&#62;_89" opacity="0.4" d="M24.4004 1223.8C24.4004 1221.7 26.3004 1220 28.6004 1220C31.0004 1220 32.9004 1221.7 32.9004 1223.8V1255.9C32.9004 1258 31.0004 1259.7 28.6004 1259.7C26.3004 1259.7 24.4004 1258 24.4004 1255.9V1223.8Z" fill="#CE9F38"/>
<path id="&#60;Path&#62;_90" d="M28.8994 1242.3C29.4994 1246.7 27.4994 1250.7 28.0994 1255C28.6994 1255.2 29.2994 1255.5 29.9994 1255.6H30.2994C33.0994 1252.8 30.5994 1246.1 30.7994 1242.5C30.8994 1240.6 33.1994 1231.1 29.6994 1231.1C26.4994 1231.1 28.6994 1240.5 28.8994 1242.3Z" fill="#E5AE41"/>
</g>
</g>
<g id="ch10">
<g id="&#60;Group&#62;_91">
<g id="&#60;Group&#62;_92">
<g id="&#60;Group&#62;_93">
<g id="&#60;Group&#62;_94">
<path id="&#60;Compound Path&#62;_37" fill-rule="evenodd" clip-rule="evenodd" d="M27.5996 1307.8C42.6996 1307.8 54.9996 1320.1 54.9996 1335.3C54.9996 1350.4 42.6996 1362.7 27.5996 1362.7C12.3996 1362.7 0.0996094 1350.4 0.0996094 1335.3C0.0996094 1320.1 12.3996 1307.8 27.5996 1307.8ZM8.89961 1335.3C8.89961 1345.6 17.1996 1353.9 27.5996 1353.9C37.8996 1353.9 46.1996 1345.6 46.1996 1335.3C46.1996 1324.9 37.8996 1316.6 27.5996 1316.6C17.1996 1316.6 8.89961 1324.9 8.89961 1335.3Z" fill="#7C5438"/>
</g>
<g id="&#60;Group&#62;_95" opacity="0.5">
<path id="&#60;Compound Path&#62;_38" fill-rule="evenodd" clip-rule="evenodd" d="M27.2004 1310.8C40.9004 1310.8 52.0004 1321.9 52.0004 1335.6C52.0004 1349.3 40.9004 1360.4 27.2004 1360.4C13.5004 1360.4 2.40039 1349.3 2.40039 1335.6C2.40039 1321.9 13.5004 1310.8 27.2004 1310.8ZM5.40039 1335.5C5.40039 1347.6 15.2004 1357.4 27.3004 1357.4C39.3004 1357.4 49.1004 1347.6 49.1004 1335.5C49.1004 1323.5 39.3004 1313.7 27.3004 1313.7C15.2004 1313.7 5.40039 1323.5 5.40039 1335.5Z" fill="#CE9F38"/>
</g>
<path id="&#60;Path&#62;_91" d="M37.4 1356.5C38.7 1356.7 40.1 1356.7 41.2 1356L42.6 1355.1C44.8 1351.7 48.2 1349.6 50 1345.7C50.9 1343.7 51.5 1341.4 51.7 1339.2C52 1336.7 51.5 1333.5 49.3 1336.6C47 1339.9 47.4 1345.1 45.1 1348.6C43.5 1350.9 36.9 1353.9 37.4 1356.5Z" fill="#E5AE41"/>
<path id="&#60;Path&#62;_92" d="M4.2001 1332.4C6.5001 1332.9 8.0001 1323.5 9.8001 1321.3C13.0001 1317.2 16.5001 1315.8 21.2001 1314.6L22.1001 1314.3C24.4001 1314.2 24.2001 1312.6 22.1001 1312.2C21.0001 1312 18.8001 1313.1 17.8001 1313.5C15.1001 1314.5 12.9001 1316.2 10.9001 1318C7.4001 1321.2 2.2001 1327.3 4.2001 1332.4Z" fill="#E5AE41"/>
</g>
</g>
<path id="&#60;Path&#62;_93" d="M20.0996 1279.9C20.0996 1276.8 23.4996 1274.3 27.5996 1274.3C31.7996 1274.3 35.0996 1276.8 35.0996 1279.9V1326.9C35.0996 1329.9 31.7996 1332.4 27.5996 1332.4C23.4996 1332.4 20.0996 1329.9 20.0996 1326.9V1279.9Z" fill="#7C5438"/>
<path id="&#60;Path&#62;_94" opacity="0.4" d="M24.4004 1294C24.4004 1291.9 26.3004 1290.2 28.6004 1290.2C31.0004 1290.2 32.9004 1291.9 32.9004 1294V1326.1C32.9004 1328.2 31.0004 1329.9 28.6004 1329.9C26.3004 1329.9 24.4004 1328.2 24.4004 1326.1V1294Z" fill="#CE9F38"/>
<path id="&#60;Path&#62;_95" d="M28.8994 1312.5C29.4994 1316.9 27.4994 1321 28.0994 1325.2C28.6994 1325.4 29.2994 1325.8 29.9994 1325.8H30.2994C33.0994 1323 30.5994 1316.4 30.7994 1312.8C30.8994 1310.8 33.1994 1301.4 29.6994 1301.4C26.4994 1301.4 28.6994 1310.7 28.8994 1312.5Z" fill="#E5AE41"/>
</g>
<g id="&#60;Group&#62;_96">
<g id="&#60;Group&#62;_97">
<g id="&#60;Group&#62;_98">
<g id="&#60;Group&#62;_99">
<path id="&#60;Compound Path&#62;_39" fill-rule="evenodd" clip-rule="evenodd" d="M27.5996 1378.6C42.6996 1378.6 54.9996 1390.9 54.9996 1406.1C54.9996 1421.2 42.6996 1433.5 27.5996 1433.5C12.3996 1433.5 0.0996094 1421.2 0.0996094 1406.1C0.0996094 1390.9 12.3996 1378.6 27.5996 1378.6ZM8.89961 1406C8.89961 1416.4 17.1996 1424.7 27.5996 1424.7C37.8996 1424.7 46.1996 1416.4 46.1996 1406C46.1996 1395.7 37.8996 1387.4 27.5996 1387.4C17.1996 1387.4 8.89961 1395.7 8.89961 1406Z" fill="#7C5438"/>
</g>
<g id="&#60;Group&#62;_100" opacity="0.5">
<path id="&#60;Compound Path&#62;_40" fill-rule="evenodd" clip-rule="evenodd" d="M27.2004 1381.5C40.9004 1381.5 52.0004 1392.6 52.0004 1406.3C52.0004 1420 40.9004 1431.1 27.2004 1431.1C13.5004 1431.1 2.40039 1420 2.40039 1406.3C2.40039 1392.6 13.5004 1381.5 27.2004 1381.5ZM5.40039 1406.3C5.40039 1418.4 15.2004 1428.2 27.3004 1428.2C39.3004 1428.2 49.1004 1418.4 49.1004 1406.3C49.1004 1394.3 39.3004 1384.5 27.3004 1384.5C15.2004 1384.5 5.40039 1394.3 5.40039 1406.3Z" fill="#CE9F38"/>
</g>
<path id="&#60;Path&#62;_96" d="M37.4 1427.3C38.7 1427.5 40.1 1427.4 41.2 1426.7L42.6 1425.9C44.8 1422.5 48.2 1420.4 50 1416.5C50.9 1414.4 51.5 1412.1 51.7 1410C52 1407.5 51.5 1404.3 49.3 1407.4C47 1410.6 47.4 1415.9 45.1 1419.4C43.5 1421.7 36.9 1424.7 37.4 1427.3Z" fill="#E5AE41"/>
<path id="&#60;Path&#62;_97" d="M4.2001 1403.2C6.5001 1403.7 8.0001 1394.3 9.8001 1392.1C13.0001 1388 16.5001 1386.6 21.2001 1385.3L22.1001 1385C24.4001 1385 24.2001 1383.3 22.1001 1383C21.0001 1382.8 18.8001 1383.8 17.8001 1384.2C15.1001 1385.3 12.9001 1386.9 10.9001 1388.8C7.4001 1391.9 2.2001 1398.1 4.2001 1403.2Z" fill="#E5AE41"/>
</g>
</g>
<path id="&#60;Path&#62;_98" d="M20.0996 1350.6C20.0996 1347.5 23.4996 1345 27.5996 1345C31.7996 1345 35.0996 1347.5 35.0996 1350.6V1397.6C35.0996 1400.7 31.7996 1403.2 27.5996 1403.2C23.4996 1403.2 20.0996 1400.7 20.0996 1397.6V1350.6Z" fill="#7C5438"/>
<path id="&#60;Path&#62;_99" opacity="0.4" d="M24.4004 1364.8C24.4004 1362.7 26.3004 1361 28.6004 1361C31.0004 1361 32.9004 1362.7 32.9004 1364.8V1396.9C32.9004 1399 31.0004 1400.7 28.6004 1400.7C26.3004 1400.7 24.4004 1399 24.4004 1396.9V1364.8Z" fill="#CE9F38"/>
<path id="&#60;Path&#62;_100" d="M28.8994 1383.3C29.4994 1387.7 27.4994 1391.7 28.0994 1396C28.6994 1396.2 29.2994 1396.5 29.9994 1396.6H30.2994C33.0994 1393.8 30.5994 1387.1 30.7994 1383.5C30.8994 1381.6 33.1994 1372.1 29.6994 1372.1C26.4994 1372.1 28.6994 1381.5 28.8994 1383.3Z" fill="#E5AE41"/>
</g>
</g>
<g id="ch11">
<g id="&#60;Group&#62;_101">
<g id="&#60;Group&#62;_102">
<g id="&#60;Group&#62;_103">
<g id="&#60;Group&#62;_104">
<path id="&#60;Compound Path&#62;_41" fill-rule="evenodd" clip-rule="evenodd" d="M27.5996 1448.8C42.6996 1448.8 54.9996 1461.1 54.9996 1476.3C54.9996 1491.4 42.6996 1503.7 27.5996 1503.7C12.3996 1503.7 0.0996094 1491.4 0.0996094 1476.3C0.0996094 1461.1 12.3996 1448.8 27.5996 1448.8ZM8.89961 1476.3C8.89961 1486.6 17.1996 1494.9 27.5996 1494.9C37.8996 1494.9 46.1996 1486.6 46.1996 1476.3C46.1996 1465.9 37.8996 1457.6 27.5996 1457.6C17.1996 1457.6 8.89961 1465.9 8.89961 1476.3Z" fill="#7C5438"/>
</g>
<g id="&#60;Group&#62;_105" opacity="0.5">
<path id="&#60;Compound Path&#62;_42" fill-rule="evenodd" clip-rule="evenodd" d="M27.2004 1451.8C40.9004 1451.8 52.0004 1462.9 52.0004 1476.6C52.0004 1490.3 40.9004 1501.4 27.2004 1501.4C13.5004 1501.4 2.40039 1490.3 2.40039 1476.6C2.40039 1462.9 13.5004 1451.8 27.2004 1451.8ZM5.40039 1476.5C5.40039 1488.6 15.2004 1498.4 27.3004 1498.4C39.3004 1498.4 49.1004 1488.6 49.1004 1476.5C49.1004 1464.5 39.3004 1454.7 27.3004 1454.7C15.2004 1454.7 5.40039 1464.5 5.40039 1476.5Z" fill="#CE9F38"/>
</g>
<path id="&#60;Path&#62;_101" d="M37.4 1497.5C38.7 1497.7 40.1 1497.7 41.2 1497L42.6 1496.1C44.8 1492.7 48.2 1490.6 50 1486.7C50.9 1484.7 51.5 1482.4 51.7 1480.2C52 1477.7 51.5 1474.5 49.3 1477.6C47 1480.9 47.4 1486.1 45.1 1489.6C43.5 1491.9 36.9 1494.9 37.4 1497.5Z" fill="#E5AE41"/>
<path id="&#60;Path&#62;_102" d="M4.2001 1473.4C6.5001 1473.9 8.0001 1464.5 9.8001 1462.3C13.0001 1458.2 16.5001 1456.8 21.2001 1455.6L22.1001 1455.3C24.4001 1455.2 24.2001 1453.6 22.1001 1453.2C21.0001 1453 18.8001 1454.1 17.8001 1454.5C15.1001 1455.5 12.9001 1457.2 10.9001 1459C7.4001 1462.2 2.2001 1468.3 4.2001 1473.4Z" fill="#E5AE41"/>
</g>
</g>
<path id="&#60;Path&#62;_103" d="M20.0996 1420.9C20.0996 1417.8 23.4996 1415.3 27.5996 1415.3C31.7996 1415.3 35.0996 1417.8 35.0996 1420.9V1467.9C35.0996 1470.9 31.7996 1473.4 27.5996 1473.4C23.4996 1473.4 20.0996 1470.9 20.0996 1467.9V1420.9Z" fill="#7C5438"/>
<path id="&#60;Path&#62;_104" opacity="0.4" d="M24.4004 1435C24.4004 1432.9 26.3004 1431.2 28.6004 1431.2C31.0004 1431.2 32.9004 1432.9 32.9004 1435V1467.1C32.9004 1469.2 31.0004 1470.9 28.6004 1470.9C26.3004 1470.9 24.4004 1469.2 24.4004 1467.1V1435Z" fill="#CE9F38"/>
<path id="&#60;Path&#62;_105" d="M28.8994 1453.5C29.4994 1457.9 27.4994 1462 28.0994 1466.2C28.6994 1466.4 29.2994 1466.8 29.9994 1466.8H30.2994C33.0994 1464 30.5994 1457.4 30.7994 1453.8C30.8994 1451.8 33.1994 1442.4 29.6994 1442.4C26.4994 1442.4 28.6994 1451.7 28.8994 1453.5Z" fill="#E5AE41"/>
</g>
<g id="&#60;Group&#62;_106">
<g id="&#60;Group&#62;_107">
<g id="&#60;Group&#62;_108">
<g id="&#60;Group&#62;_109">
<path id="&#60;Compound Path&#62;_43" fill-rule="evenodd" clip-rule="evenodd" d="M27.5996 1519.6C42.6996 1519.6 54.9996 1531.9 54.9996 1547.1C54.9996 1562.2 42.6996 1574.5 27.5996 1574.5C12.3996 1574.5 0.0996094 1562.2 0.0996094 1547.1C0.0996094 1531.9 12.3996 1519.6 27.5996 1519.6ZM8.89961 1547.1C8.89961 1557.4 17.1996 1565.7 27.5996 1565.7C37.8996 1565.7 46.1996 1557.4 46.1996 1547.1C46.1996 1536.7 37.8996 1528.4 27.5996 1528.4C17.1996 1528.4 8.89961 1536.7 8.89961 1547.1Z" fill="#7C5438"/>
</g>
<g id="&#60;Group&#62;_110" opacity="0.5">
<path id="&#60;Compound Path&#62;_44" fill-rule="evenodd" clip-rule="evenodd" d="M27.2004 1522.5C40.9004 1522.5 52.0004 1533.6 52.0004 1547.3C52.0004 1561 40.9004 1572.1 27.2004 1572.1C13.5004 1572.1 2.40039 1561 2.40039 1547.3C2.40039 1533.6 13.5004 1522.5 27.2004 1522.5ZM5.40039 1547.3C5.40039 1559.4 15.2004 1569.2 27.3004 1569.2C39.3004 1569.2 49.1004 1559.4 49.1004 1547.3C49.1004 1535.3 39.3004 1525.5 27.3004 1525.5C15.2004 1525.5 5.40039 1535.3 5.40039 1547.3Z" fill="#CE9F38"/>
</g>
<path id="&#60;Path&#62;_106" d="M37.4 1568.3C38.7 1568.5 40.1 1568.4 41.2 1567.7L42.6 1566.9C44.8 1563.5 48.2 1561.4 50 1557.5C50.9 1555.4 51.5 1553.1 51.7 1551C52 1548.5 51.5 1545.3 49.3 1548.4C47 1551.6 47.4 1556.9 45.1 1560.4C43.5 1562.7 36.9 1565.7 37.4 1568.3Z" fill="#E5AE41"/>
<path id="&#60;Path&#62;_107" d="M4.2001 1544.2C6.5001 1544.7 8.0001 1535.3 9.8001 1533.1C13.0001 1529 16.5001 1527.6 21.2001 1526.3L22.1001 1526C24.4001 1526 24.2001 1524.3 22.1001 1524C21.0001 1523.8 18.8001 1524.8 17.8001 1525.2C15.1001 1526.3 12.9001 1527.9 10.9001 1529.8C7.4001 1532.9 2.2001 1539.1 4.2001 1544.2Z" fill="#E5AE41"/>
</g>
</g>
<path id="&#60;Path&#62;_108" d="M20.0996 1491.6C20.0996 1488.5 23.4996 1486 27.5996 1486C31.7996 1486 35.0996 1488.5 35.0996 1491.6V1538.6C35.0996 1541.7 31.7996 1544.2 27.5996 1544.2C23.4996 1544.2 20.0996 1541.7 20.0996 1538.6V1491.6Z" fill="#7C5438"/>
<path id="&#60;Path&#62;_109" opacity="0.4" d="M24.4004 1505.8C24.4004 1503.7 26.3004 1502 28.6004 1502C31.0004 1502 32.9004 1503.7 32.9004 1505.8V1537.9C32.9004 1540 31.0004 1541.7 28.6004 1541.7C26.3004 1541.7 24.4004 1540 24.4004 1537.9V1505.8Z" fill="#CE9F38"/>
<path id="&#60;Path&#62;_110" d="M28.8994 1524.3C29.4994 1528.7 27.4994 1532.7 28.0994 1537C28.6994 1537.2 29.2994 1537.5 29.9994 1537.6H30.2994C33.0994 1534.8 30.5994 1528.1 30.7994 1524.5C30.8994 1522.6 33.1994 1513.1 29.6994 1513.1C26.4994 1513.1 28.6994 1522.5 28.8994 1524.3Z" fill="#E5AE41"/>
</g>
</g>
<g id="ch12">
<g id="&#60;Group&#62;_111">
<g id="&#60;Group&#62;_112">
<g id="&#60;Group&#62;_113">
<g id="&#60;Group&#62;_114">
<path id="&#60;Compound Path&#62;_45" fill-rule="evenodd" clip-rule="evenodd" d="M27.5996 1589.8C42.6996 1589.8 54.9996 1602.1 54.9996 1617.3C54.9996 1632.4 42.6996 1644.7 27.5996 1644.7C12.3996 1644.7 0.0996094 1632.4 0.0996094 1617.3C0.0996094 1602.1 12.3996 1589.8 27.5996 1589.8ZM8.89961 1617.3C8.89961 1627.6 17.1996 1635.9 27.5996 1635.9C37.8996 1635.9 46.1996 1627.6 46.1996 1617.3C46.1996 1606.9 37.8996 1598.6 27.5996 1598.6C17.1996 1598.6 8.89961 1606.9 8.89961 1617.3Z" fill="#7C5438"/>
</g>
<g id="&#60;Group&#62;_115" opacity="0.5">
<path id="&#60;Compound Path&#62;_46" fill-rule="evenodd" clip-rule="evenodd" d="M27.2004 1592.8C40.9004 1592.8 52.0004 1603.9 52.0004 1617.6C52.0004 1631.3 40.9004 1642.4 27.2004 1642.4C13.5004 1642.4 2.40039 1631.3 2.40039 1617.6C2.40039 1603.9 13.5004 1592.8 27.2004 1592.8ZM5.40039 1617.6C5.40039 1629.6 15.2004 1639.4 27.3004 1639.4C39.3004 1639.4 49.1004 1629.6 49.1004 1617.6C49.1004 1605.5 39.3004 1595.7 27.3004 1595.7C15.2004 1595.7 5.40039 1605.5 5.40039 1617.6Z" fill="#CE9F38"/>
</g>
<path id="&#60;Path&#62;_111" d="M37.4 1638.5C38.7 1638.7 40.1 1638.7 41.2 1638L42.6 1637.1C44.8 1633.7 48.2 1631.6 50 1627.7C50.9 1625.7 51.5 1623.4 51.7 1621.2C52 1618.7 51.5 1615.5 49.3 1618.6C47 1621.9 47.4 1627.1 45.1 1630.6C43.5 1632.9 36.9 1635.9 37.4 1638.5Z" fill="#E5AE41"/>
<path id="&#60;Path&#62;_112" d="M4.2001 1614.4C6.5001 1614.9 8.0001 1605.5 9.8001 1603.3C13.0001 1599.2 16.5001 1597.8 21.2001 1596.6L22.1001 1596.3C24.4001 1596.2 24.2001 1594.6 22.1001 1594.2C21.0001 1594 18.8001 1595.1 17.8001 1595.5C15.1001 1596.5 12.9001 1598.2 10.9001 1600C7.4001 1603.2 2.2001 1609.3 4.2001 1614.4Z" fill="#E5AE41"/>
</g>
</g>
<path id="&#60;Path&#62;_113" d="M20.0996 1561.9C20.0996 1558.8 23.4996 1556.3 27.5996 1556.3C31.7996 1556.3 35.0996 1558.8 35.0996 1561.9V1608.9C35.0996 1611.9 31.7996 1614.4 27.5996 1614.4C23.4996 1614.4 20.0996 1611.9 20.0996 1608.9V1561.9Z" fill="#7C5438"/>
<path id="&#60;Path&#62;_114" opacity="0.4" d="M24.4004 1576C24.4004 1573.9 26.3004 1572.2 28.6004 1572.2C31.0004 1572.2 32.9004 1573.9 32.9004 1576V1608.1C32.9004 1610.2 31.0004 1611.9 28.6004 1611.9C26.3004 1611.9 24.4004 1610.2 24.4004 1608.1V1576Z" fill="#CE9F38"/>
<path id="&#60;Path&#62;_115" d="M28.8994 1594.5C29.4994 1598.9 27.4994 1603 28.0994 1607.2C28.6994 1607.4 29.2994 1607.8 29.9994 1607.8H30.2994C33.0994 1605 30.5994 1598.4 30.7994 1594.8C30.8994 1592.8 33.1994 1583.4 29.6994 1583.4C26.4994 1583.4 28.6994 1592.7 28.8994 1594.5Z" fill="#E5AE41"/>
</g>
<g id="&#60;Group&#62;_116">
<g id="&#60;Group&#62;_117">
<g id="&#60;Group&#62;_118">
<g id="&#60;Group&#62;_119">
<path id="&#60;Compound Path&#62;_47" fill-rule="evenodd" clip-rule="evenodd" d="M27.5996 1660.6C42.6996 1660.6 54.9996 1672.9 54.9996 1688.1C54.9996 1703.2 42.6996 1715.5 27.5996 1715.5C12.3996 1715.5 0.0996094 1703.2 0.0996094 1688.1C0.0996094 1672.9 12.3996 1660.6 27.5996 1660.6ZM8.89961 1688C8.89961 1698.4 17.1996 1706.7 27.5996 1706.7C37.8996 1706.7 46.1996 1698.4 46.1996 1688C46.1996 1677.7 37.8996 1669.4 27.5996 1669.4C17.1996 1669.4 8.89961 1677.7 8.89961 1688Z" fill="#7C5438"/>
</g>
<g id="&#60;Group&#62;_120" opacity="0.5">
<path id="&#60;Compound Path&#62;_48" fill-rule="evenodd" clip-rule="evenodd" d="M27.2004 1663.5C40.9004 1663.5 52.0004 1674.6 52.0004 1688.3C52.0004 1702 40.9004 1713.1 27.2004 1713.1C13.5004 1713.1 2.40039 1702 2.40039 1688.3C2.40039 1674.6 13.5004 1663.5 27.2004 1663.5ZM5.40039 1688.3C5.40039 1700.4 15.2004 1710.2 27.3004 1710.2C39.3004 1710.2 49.1004 1700.4 49.1004 1688.3C49.1004 1676.3 39.3004 1666.5 27.3004 1666.5C15.2004 1666.5 5.40039 1676.3 5.40039 1688.3Z" fill="#CE9F38"/>
</g>
<path id="&#60;Path&#62;_116" d="M37.4 1709.3C38.7 1709.5 40.1 1709.4 41.2 1708.7L42.6 1707.9C44.8 1704.5 48.2 1702.4 50 1698.5C50.9 1696.4 51.5 1694.1 51.7 1692C52 1689.5 51.5 1686.3 49.3 1689.4C47 1692.6 47.4 1697.9 45.1 1701.4C43.5 1703.7 36.9 1706.7 37.4 1709.3Z" fill="#E5AE41"/>
<path id="&#60;Path&#62;_117" d="M4.2001 1685.2C6.5001 1685.7 8.0001 1676.3 9.8001 1674.1C13.0001 1670 16.5001 1668.6 21.2001 1667.3L22.1001 1667C24.4001 1667 24.2001 1665.3 22.1001 1665C21.0001 1664.8 18.8001 1665.8 17.8001 1666.2C15.1001 1667.3 12.9001 1668.9 10.9001 1670.8C7.4001 1673.9 2.2001 1680.1 4.2001 1685.2Z" fill="#E5AE41"/>
</g>
</g>
<path id="&#60;Path&#62;_118" d="M20.0996 1632.6C20.0996 1629.5 23.4996 1627 27.5996 1627C31.7996 1627 35.0996 1629.5 35.0996 1632.6V1679.6C35.0996 1682.7 31.7996 1685.2 27.5996 1685.2C23.4996 1685.2 20.0996 1682.7 20.0996 1679.6V1632.6Z" fill="#7C5438"/>
<path id="&#60;Path&#62;_119" opacity="0.4" d="M24.4004 1646.8C24.4004 1644.7 26.3004 1643 28.6004 1643C31.0004 1643 32.9004 1644.7 32.9004 1646.8V1678.9C32.9004 1681 31.0004 1682.7 28.6004 1682.7C26.3004 1682.7 24.4004 1681 24.4004 1678.9V1646.8Z" fill="#CE9F38"/>
<path id="&#60;Path&#62;_120" d="M28.8994 1665.3C29.4994 1669.7 27.4994 1673.7 28.0994 1678C28.6994 1678.2 29.2994 1678.5 29.9994 1678.6H30.2994C33.0994 1675.8 30.5994 1669.1 30.7994 1665.5C30.8994 1663.6 33.1994 1654.1 29.6994 1654.1C26.4994 1654.1 28.6994 1663.5 28.8994 1665.3Z" fill="#E5AE41"/>
</g>
</g>
<g id="ch13">
<g id="&#60;Group&#62;_121">
<g id="&#60;Group&#62;_122">
<g id="&#60;Group&#62;_123">
<g id="&#60;Group&#62;_124">
<path id="&#60;Compound Path&#62;_49" fill-rule="evenodd" clip-rule="evenodd" d="M27.5996 1731.8C42.6996 1731.8 54.9996 1744.1 54.9996 1759.3C54.9996 1774.4 42.6996 1786.7 27.5996 1786.7C12.3996 1786.7 0.0996094 1774.4 0.0996094 1759.3C0.0996094 1744.1 12.3996 1731.8 27.5996 1731.8ZM8.89961 1759.3C8.89961 1769.6 17.1996 1777.9 27.5996 1777.9C37.8996 1777.9 46.1996 1769.6 46.1996 1759.3C46.1996 1748.9 37.8996 1740.6 27.5996 1740.6C17.1996 1740.6 8.89961 1748.9 8.89961 1759.3Z" fill="#7C5438"/>
</g>
<g id="&#60;Group&#62;_125" opacity="0.5">
<path id="&#60;Compound Path&#62;_50" fill-rule="evenodd" clip-rule="evenodd" d="M27.2004 1734.8C40.9004 1734.8 52.0004 1745.9 52.0004 1759.6C52.0004 1773.3 40.9004 1784.4 27.2004 1784.4C13.5004 1784.4 2.40039 1773.3 2.40039 1759.6C2.40039 1745.9 13.5004 1734.8 27.2004 1734.8ZM5.40039 1759.5C5.40039 1771.6 15.2004 1781.4 27.3004 1781.4C39.3004 1781.4 49.1004 1771.6 49.1004 1759.5C49.1004 1747.5 39.3004 1737.7 27.3004 1737.7C15.2004 1737.7 5.40039 1747.5 5.40039 1759.5Z" fill="#CE9F38"/>
</g>
<path id="&#60;Path&#62;_121" d="M37.4 1780.5C38.7 1780.7 40.1 1780.7 41.2 1780L42.6 1779.1C44.8 1775.7 48.2 1773.6 50 1769.7C50.9 1767.7 51.5 1765.4 51.7 1763.2C52 1760.7 51.5 1757.5 49.3 1760.6C47 1763.9 47.4 1769.1 45.1 1772.6C43.5 1774.9 36.9 1777.9 37.4 1780.5Z" fill="#E5AE41"/>
<path id="&#60;Path&#62;_122" d="M4.2001 1756.4C6.5001 1756.9 8.0001 1747.5 9.8001 1745.3C13.0001 1741.2 16.5001 1739.8 21.2001 1738.6L22.1001 1738.3C24.4001 1738.2 24.2001 1736.6 22.1001 1736.2C21.0001 1736 18.8001 1737.1 17.8001 1737.5C15.1001 1738.5 12.9001 1740.2 10.9001 1742C7.4001 1745.2 2.2001 1751.3 4.2001 1756.4Z" fill="#E5AE41"/>
</g>
</g>
<path id="&#60;Path&#62;_123" d="M20.0996 1703.9C20.0996 1700.8 23.4996 1698.3 27.5996 1698.3C31.7996 1698.3 35.0996 1700.8 35.0996 1703.9V1750.9C35.0996 1753.9 31.7996 1756.4 27.5996 1756.4C23.4996 1756.4 20.0996 1753.9 20.0996 1750.9V1703.9Z" fill="#7C5438"/>
<path id="&#60;Path&#62;_124" opacity="0.4" d="M24.4004 1718C24.4004 1715.9 26.3004 1714.2 28.6004 1714.2C31.0004 1714.2 32.9004 1715.9 32.9004 1718V1750.1C32.9004 1752.2 31.0004 1753.9 28.6004 1753.9C26.3004 1753.9 24.4004 1752.2 24.4004 1750.1V1718Z" fill="#CE9F38"/>
<path id="&#60;Path&#62;_125" d="M28.8994 1736.5C29.4994 1740.9 27.4994 1745 28.0994 1749.2C28.6994 1749.4 29.2994 1749.8 29.9994 1749.8H30.2994C33.0994 1747 30.5994 1740.4 30.7994 1736.8C30.8994 1734.8 33.1994 1725.4 29.6994 1725.4C26.4994 1725.4 28.6994 1734.7 28.8994 1736.5Z" fill="#E5AE41"/>
</g>
<g id="&#60;Group&#62;_126">
<g id="&#60;Group&#62;_127">
<g id="&#60;Group&#62;_128">
<g id="&#60;Group&#62;_129">
<path id="&#60;Compound Path&#62;_51" fill-rule="evenodd" clip-rule="evenodd" d="M27.5996 1802.6C42.6996 1802.6 54.9996 1814.9 54.9996 1830.1C54.9996 1845.2 42.6996 1857.5 27.5996 1857.5C12.3996 1857.5 0.0996094 1845.2 0.0996094 1830.1C0.0996094 1814.9 12.3996 1802.6 27.5996 1802.6ZM8.89961 1830.1C8.89961 1840.4 17.1996 1848.7 27.5996 1848.7C37.8996 1848.7 46.1996 1840.4 46.1996 1830.1C46.1996 1819.7 37.8996 1811.4 27.5996 1811.4C17.1996 1811.4 8.89961 1819.7 8.89961 1830.1Z" fill="#7C5438"/>
</g>
<g id="&#60;Group&#62;_130" opacity="0.5">
<path id="&#60;Compound Path&#62;_52" fill-rule="evenodd" clip-rule="evenodd" d="M27.2004 1805.5C40.9004 1805.5 52.0004 1816.6 52.0004 1830.3C52.0004 1844 40.9004 1855.1 27.2004 1855.1C13.5004 1855.1 2.40039 1844 2.40039 1830.3C2.40039 1816.6 13.5004 1805.5 27.2004 1805.5ZM5.40039 1830.3C5.40039 1842.4 15.2004 1852.2 27.3004 1852.2C39.3004 1852.2 49.1004 1842.4 49.1004 1830.3C49.1004 1818.3 39.3004 1808.5 27.3004 1808.5C15.2004 1808.5 5.40039 1818.3 5.40039 1830.3Z" fill="#CE9F38"/>
</g>
<path id="&#60;Path&#62;_126" d="M37.4 1851.3C38.7 1851.5 40.1 1851.4 41.2 1850.7L42.6 1849.9C44.8 1846.5 48.2 1844.4 50 1840.5C50.9 1838.4 51.5 1836.1 51.7 1834C52 1831.5 51.5 1828.3 49.3 1831.4C47 1834.6 47.4 1839.9 45.1 1843.4C43.5 1845.7 36.9 1848.7 37.4 1851.3Z" fill="#E5AE41"/>
<path id="&#60;Path&#62;_127" d="M4.2001 1827.2C6.5001 1827.7 8.0001 1818.3 9.8001 1816.1C13.0001 1812 16.5001 1810.6 21.2001 1809.3L22.1001 1809C24.4001 1809 24.2001 1807.3 22.1001 1807C21.0001 1806.8 18.8001 1807.8 17.8001 1808.2C15.1001 1809.3 12.9001 1810.9 10.9001 1812.8C7.4001 1815.9 2.2001 1822.1 4.2001 1827.2Z" fill="#E5AE41"/>
</g>
</g>
<path id="&#60;Path&#62;_128" d="M20.0996 1774.6C20.0996 1771.5 23.4996 1769 27.5996 1769C31.7996 1769 35.0996 1771.5 35.0996 1774.6V1821.6C35.0996 1824.7 31.7996 1827.2 27.5996 1827.2C23.4996 1827.2 20.0996 1824.7 20.0996 1821.6V1774.6Z" fill="#7C5438"/>
<path id="&#60;Path&#62;_129" opacity="0.4" d="M24.4004 1788.8C24.4004 1786.7 26.3004 1785 28.6004 1785C31.0004 1785 32.9004 1786.7 32.9004 1788.8V1820.9C32.9004 1823 31.0004 1824.7 28.6004 1824.7C26.3004 1824.7 24.4004 1823 24.4004 1820.9V1788.8Z" fill="#CE9F38"/>
<path id="&#60;Path&#62;_130" d="M28.8994 1807.3C29.4994 1811.7 27.4994 1815.7 28.0994 1820C28.6994 1820.2 29.2994 1820.5 29.9994 1820.6H30.2994C33.0994 1817.8 30.5994 1811.1 30.7994 1807.5C30.8994 1805.6 33.1994 1796.1 29.6994 1796.1C26.4994 1796.1 28.6994 1805.5 28.8994 1807.3Z" fill="#E5AE41"/>
</g>
</g>
<g id="ch14">
<g id="&#60;Group&#62;_131">
<g id="&#60;Group&#62;_132">
<g id="&#60;Group&#62;_133">
<g id="&#60;Group&#62;_134">
<path id="&#60;Compound Path&#62;_53" fill-rule="evenodd" clip-rule="evenodd" d="M27.5996 1872.8C42.6996 1872.8 54.9996 1885.1 54.9996 1900.3C54.9996 1915.4 42.6996 1927.7 27.5996 1927.7C12.3996 1927.7 0.0996094 1915.4 0.0996094 1900.3C0.0996094 1885.1 12.3996 1872.8 27.5996 1872.8ZM8.89961 1900.3C8.89961 1910.6 17.1996 1918.9 27.5996 1918.9C37.8996 1918.9 46.1996 1910.6 46.1996 1900.3C46.1996 1889.9 37.8996 1881.6 27.5996 1881.6C17.1996 1881.6 8.89961 1889.9 8.89961 1900.3Z" fill="#7C5438"/>
</g>
<g id="&#60;Group&#62;_135" opacity="0.5">
<path id="&#60;Compound Path&#62;_54" fill-rule="evenodd" clip-rule="evenodd" d="M27.2004 1875.8C40.9004 1875.8 52.0004 1886.9 52.0004 1900.6C52.0004 1914.3 40.9004 1925.4 27.2004 1925.4C13.5004 1925.4 2.40039 1914.3 2.40039 1900.6C2.40039 1886.9 13.5004 1875.8 27.2004 1875.8ZM5.40039 1900.6C5.40039 1912.6 15.2004 1922.4 27.3004 1922.4C39.3004 1922.4 49.1004 1912.6 49.1004 1900.6C49.1004 1888.5 39.3004 1878.7 27.3004 1878.7C15.2004 1878.7 5.40039 1888.5 5.40039 1900.6Z" fill="#CE9F38"/>
</g>
<path id="&#60;Path&#62;_131" d="M37.4 1921.5C38.7 1921.7 40.1 1921.7 41.2 1921L42.6 1920.1C44.8 1916.7 48.2 1914.6 50 1910.7C50.9 1908.7 51.5 1906.4 51.7 1904.2C52 1901.7 51.5 1898.5 49.3 1901.6C47 1904.9 47.4 1910.1 45.1 1913.6C43.5 1915.9 36.9 1918.9 37.4 1921.5Z" fill="#E5AE41"/>
<path id="&#60;Path&#62;_132" d="M4.2001 1897.4C6.5001 1897.9 8.0001 1888.5 9.8001 1886.3C13.0001 1882.2 16.5001 1880.8 21.2001 1879.6L22.1001 1879.3C24.4001 1879.2 24.2001 1877.6 22.1001 1877.2C21.0001 1877 18.8001 1878.1 17.8001 1878.5C15.1001 1879.5 12.9001 1881.2 10.9001 1883C7.4001 1886.2 2.2001 1892.3 4.2001 1897.4Z" fill="#E5AE41"/>
</g>
</g>
<path id="&#60;Path&#62;_133" d="M20.0996 1844.9C20.0996 1841.8 23.4996 1839.3 27.5996 1839.3C31.7996 1839.3 35.0996 1841.8 35.0996 1844.9V1891.9C35.0996 1894.9 31.7996 1897.4 27.5996 1897.4C23.4996 1897.4 20.0996 1894.9 20.0996 1891.9V1844.9Z" fill="#7C5438"/>
<path id="&#60;Path&#62;_134" opacity="0.4" d="M24.4004 1859C24.4004 1856.9 26.3004 1855.2 28.6004 1855.2C31.0004 1855.2 32.9004 1856.9 32.9004 1859V1891.1C32.9004 1893.2 31.0004 1894.9 28.6004 1894.9C26.3004 1894.9 24.4004 1893.2 24.4004 1891.1V1859Z" fill="#CE9F38"/>
<path id="&#60;Path&#62;_135" d="M28.8994 1877.5C29.4994 1881.9 27.4994 1886 28.0994 1890.2C28.6994 1890.4 29.2994 1890.8 29.9994 1890.8H30.2994C33.0994 1888 30.5994 1881.4 30.7994 1877.8C30.8994 1875.8 33.1994 1866.4 29.6994 1866.4C26.4994 1866.4 28.6994 1875.7 28.8994 1877.5Z" fill="#E5AE41"/>
</g>
<g id="&#60;Group&#62;_136">
<g id="&#60;Group&#62;_137">
<g id="&#60;Group&#62;_138">
<g id="&#60;Group&#62;_139">
<path id="&#60;Compound Path&#62;_55" fill-rule="evenodd" clip-rule="evenodd" d="M27.5996 1943.6C42.6996 1943.6 54.9996 1955.9 54.9996 1971.1C54.9996 1986.2 42.6996 1998.5 27.5996 1998.5C12.3996 1998.5 0.0996094 1986.2 0.0996094 1971.1C0.0996094 1955.9 12.3996 1943.6 27.5996 1943.6ZM8.89961 1971C8.89961 1981.4 17.1996 1989.7 27.5996 1989.7C37.8996 1989.7 46.1996 1981.4 46.1996 1971C46.1996 1960.7 37.8996 1952.4 27.5996 1952.4C17.1996 1952.4 8.89961 1960.7 8.89961 1971Z" fill="#7C5438"/>
</g>
<g id="&#60;Group&#62;_140" opacity="0.5">
<path id="&#60;Compound Path&#62;_56" fill-rule="evenodd" clip-rule="evenodd" d="M27.2004 1946.5C40.9004 1946.5 52.0004 1957.6 52.0004 1971.3C52.0004 1985 40.9004 1996.1 27.2004 1996.1C13.5004 1996.1 2.40039 1985 2.40039 1971.3C2.40039 1957.6 13.5004 1946.5 27.2004 1946.5ZM5.40039 1971.3C5.40039 1983.4 15.2004 1993.2 27.3004 1993.2C39.3004 1993.2 49.1004 1983.4 49.1004 1971.3C49.1004 1959.3 39.3004 1949.5 27.3004 1949.5C15.2004 1949.5 5.40039 1959.3 5.40039 1971.3Z" fill="#CE9F38"/>
</g>
<path id="&#60;Path&#62;_136" d="M37.4 1992.3C38.7 1992.5 40.1 1992.4 41.2 1991.7L42.6 1990.9C44.8 1987.5 48.2 1985.4 50 1981.5C50.9 1979.4 51.5 1977.1 51.7 1975C52 1972.5 51.5 1969.3 49.3 1972.4C47 1975.6 47.4 1980.9 45.1 1984.4C43.5 1986.7 36.9 1989.7 37.4 1992.3Z" fill="#E5AE41"/>
<path id="&#60;Path&#62;_137" d="M4.2001 1968.2C6.5001 1968.7 8.0001 1959.3 9.8001 1957.1C13.0001 1953 16.5001 1951.6 21.2001 1950.3L22.1001 1950C24.4001 1950 24.2001 1948.3 22.1001 1948C21.0001 1947.8 18.8001 1948.8 17.8001 1949.2C15.1001 1950.3 12.9001 1951.9 10.9001 1953.8C7.4001 1956.9 2.2001 1963.1 4.2001 1968.2Z" fill="#E5AE41"/>
</g>
</g>
<path id="&#60;Path&#62;_138" d="M20.0996 1915.6C20.0996 1912.5 23.4996 1910 27.5996 1910C31.7996 1910 35.0996 1912.5 35.0996 1915.6V1962.6C35.0996 1965.7 31.7996 1968.2 27.5996 1968.2C23.4996 1968.2 20.0996 1965.7 20.0996 1962.6V1915.6Z" fill="#7C5438"/>
<path id="&#60;Path&#62;_139" opacity="0.4" d="M24.4004 1929.8C24.4004 1927.7 26.3004 1926 28.6004 1926C31.0004 1926 32.9004 1927.7 32.9004 1929.8V1961.9C32.9004 1964 31.0004 1965.7 28.6004 1965.7C26.3004 1965.7 24.4004 1964 24.4004 1961.9V1929.8Z" fill="#CE9F38"/>
<path id="&#60;Path&#62;_140" d="M28.8994 1948.3C29.4994 1952.7 27.4994 1956.7 28.0994 1961C28.6994 1961.2 29.2994 1961.5 29.9994 1961.6H30.2994C33.0994 1958.8 30.5994 1952.1 30.7994 1948.5C30.8994 1946.6 33.1994 1937.1 29.6994 1937.1C26.4994 1937.1 28.6994 1946.5 28.8994 1948.3Z" fill="#E5AE41"/>
</g>
</g>
</g>
</g>
</svg>
