<svg version="1.2" xmlns="http://www.w3.org/2000/svg" viewBox="0 0 1800 2139" width="1800" height="2139"><style>.a{fill:#c68655}.b{fill:#da9859}.c{fill:#895b3d}.d{fill:#7c5438}.e{fill:#c6bc93}.f{fill:#968f71}.g{opacity:.5;fill:#968f71}</style><path class="a" d="m33.9 1936.9c1.9 50.4-9.3 131.5 23.3 143.6 34 12.4 72.9-9.1 123.6 9.5 0.1 7.3-0.5 11.5-2.6 18.3-15.4 1.3-31.4-0.5-46.7 1.3-6.2 3-4.1 20.6 1.6 23.3 38.5 18.4 95.6-10 139.9-11.9 65.2-2.9 129.6-7.3 194.7-7.1 74.4 0.2 149.5 0.4 224.1 4.8 47.6 2.7 94.9 11.5 142.4 16.3 58.5 5.9 118.7-11.4 177.7-11.1 152.6 0.5 310 3.8 460.5-30.3 56.6-12.9 116.3-17.3 173.1-21.9 34.9-2.9 83.7 22.2 116.5 0.7 54.9-36.1-33.2-57.7-27.7-70.4l7.2-7.9c58.8-0.4 39.1-50.6 43.9-124.5 2.2-32.2 9.8-63 11.3-97.4 1.4-32.7-0.7-64.6-1.2-97.4-0.9-44.6 1.9-57.2-25.8-66.4-19.7-6.6-39.1-17.4-58.9-23.8-40-13.1-82.7-7.2-122.8-20.6-6.9-2.3-12.1-4.9-18-11.1 58.2-8.1 114.4-7.1 174.4-7 28.6 0.2 58.2 11.1 54.4-49.6-2.8-44.6-3.7-93.2-35.8-91.2-2-6.4-2.5-11.2-2.2-18.2 25.7-1.7 19.9-24.3 19.2-59.1-0.6-32.1 0.8-65 1.2-97.3 0.3-28.4 6.2-70-10.9-85-15.5-13.7-49.9 3.3-65.7 6.9-80.8 18.5-165.7-3.6-247.3 2.7-76.1 6-150.3 11.2-226.7 10.8-93.8-0.2-188-4.2-280.8 23.2-104.6 30.8-204 86.4-310.3 103.7-62.7 10.1-127 9-189.2-4.1-70.1-14.8-141.1-22.5-212-17.6-52.3 3.6-92.7-0.5-143.1-18.7-22.2-8.1-32.9-15.5-48.8 14.2-14.6 27.4-13.8 55.4-15.2 89.6-0.9 22.9-13.6 80.1-6 101.4 6.8 18.7 39.4 14.8 54.2 22.4 24.5 12.6 50.9 21.3 75.1 37.2-15.5 25.6-41.1-15.9-56.6-5.2-12 8.2-12 45.6-19.3 61.6 17.2 12.1 35.8 25.8 53.4 33-3.9 12.5-5.6 30.3-0.4 42.6-16.4 9.3-41.4 9.6-59 14.1-12.8 3.3-51.5-4.4-61.2 9.3-33.2 47.2 20.5 211.7 22.5 264.3z"/><path class="b" d="m1765.6 1347.4c-22.3 0.6-40 2-60.8 4.4-39.2 5-89.8 17.8-117.3 35.5-27.9 18.1-42.2 39.6-85.6 47.8-16 3-56.3 7.3-25.4 15.4 15.3 3.9 46.5-0.6 63.4-0.2 48.4 1.4 97.5 4.7 147.3 6.2 27.9 0.8 79.2 0.7 109.7 9.8-2.8-33.8-8.9-62.7-33.9-61.2-2-6.4-2.5-11.2-2.2-18.2 20.9-1.4 21-16.3 20-40.4-6.4 0.5-12.1 0.8-15.2 0.9z"/><path class="b" d="m231 1846.5c79.6-0.2 154.9 14.5 232.3 23.4 63.7 7.4 126.3 7.1 190.9 7.1 60.1 0.2 117.5-6.5 175.7-14.5 47.9-6.6 96.2-19.4 145-21.9 83.8-4.3 156.7 24.8 237.7 29.2 59.1 3.3 119.2 0.9 178.2-1.8 62.8-2.9 129.1 3.3 190.3-6.6 49.8-8.1 101.3-5.9 152.1-10.9 15.3-1.6 35.9-1.3 54.4-2.1 2-15.8 4.7-31.5 6.7-47.9-35.4 4.6-79.7 4.9-112.2 6.5-48.9 2.6-98.3 0.2-147.2 1.4-59.1 1.6-115.4 12.9-174.4 16.4-28.2 1.8-56.2 5.7-84.2 2.6-24.1-2.6-46.5-8.5-70.6-11.3-59-7.2-111.7-16.2-150.8-43.9-16.1-11.3-30.9-27.9-60.2-26.3-37.5 2.4-69.2 32.2-96 44.8-106.1 49.9-252.9 3.4-370.6 15.9-67.7 7.1-135.2-3-203.4-1.4-53.1 1.3-106.5 0.2-159.3-1.5-43.3-1.3-86.5-5.9-129.6-6.9-5.4-0.2-15.7 0.2-27.2 0.5 2.9 17.1 6.4 34.5 9.8 51.1 70.1-3.8 142.1-1.9 212.6-1.9z"/><path class="b" d="m1781.2 1231.5c-12.3 0-22.9-0.5-25.6-0.6-42.4-3.9-81.6-4.3-125.1-3.2-60.1 1.7-117.5 6-176.3 13.4-32.6 4.3-110.6-3.5-134.9 10.4-15 8.7-10.9 24.8-15.1 36.1-4.6 12-14.4 25.6-24.9 36.1-17.6 17.8-41.8 47.7-74.2 56.1-50.4 13.1-85.9-15.9-126.8-27.6-41.3-11.9-79.9-0.1-119.2 8.3-57.3 12-118.7 18-176.9 29-65.1 12.3-136.3 2.5-201.5-4.8-73.1-8.1-145.1-23.3-211.9-43.4-46.7-14-73.3 6.1-119.9 10.5-49.9 4.7-100.4 8.7-152.3 8.9-14.6 0.2-39.8 1.8-65.9 2.4-1 10.5-3.2 24.9-5.1 39.5 47.5-4.2 95.1-8 143-12.3 70.4-6 137.9-13.3 205.3 3.4 96.4 23.7 201.2 28.9 304.3 33.2 89.1 3.8 173.3 3.7 257.9-15.8 26.5-6 62.2-22.2 90.8-21.9 52.5 0.7 94.8 34.5 151 36.7 87.6 3.5 167.7-29.8 207.2-72 42.8-45.8 101.4-68.4 189.8-79.6 42-5.4 85.8-2.6 128-5.9 25.6-1.9 51.6-1.9 77.6-1.8 0.3-11.6 0.6-23.4 0.7-35.1z"/><path class="b" d="m1763.8 1868.4c-56.9 3.1-114.4 1.5-171.2 6.2-118.5 9.4-242.4 19.8-362.2 6.5-83.2-9.3-166.4-18.2-251.7-14.2-62.6 2.9-115.1 14.8-176.3 23-51.1 6.9-110.6 3.3-163.5 3.3-109.9 0-209.9-12.3-318.4-20.4-84.8-6.5-168.8-12.9-254.3-7.7-13.8 0.8-28.6 2.7-43.5 4.1q3 14.1 5.4 26.7c38.8-1.6 81.9-3.8 121.4-2.7 87.7 2.2 181.9 12.9 267 26.7 62.7 10.1 140.2 17.3 205.1 15.3 33.5-1.1 66.7-2.3 99.1-6.9 16.3-2.4 45.4-10.7 61.5-4.8 59.6 21.7-59.5 38.9-77.4 42.3-61.4 11.6-121.3 27.5-184.1 37.3-39.6 6-79.8 4.9-120.2 6.9-55.1 2.8-110.8 7-166.2 8.4-70.2 1.9-135.9-3.8-200.7-15.1 0 6.7 0.2 13.3 0.5 19.8 77.7 1.7 200.2 16.9 214.1 19.1 74.8 11.8 161 21.3 239.3 18.9 87.8-2.4 160.8-19.1 234.9-45.6 44.6-15.9 83.4-36.7 130.9-49.8 49.5-13.7 103.4-21 157-26.9 106.7-11.9 223.5-8.8 331.2-4.4 106.7 4.3 211.2 16.5 317.6 21.5 44.2 2.2 83.4-5.4 125.7-8.7 0.9-20.6-1.3-47 0.7-77.6q0.1-2.2 0.3-4.2c-10.2 1.6-18.8 2.7-22 3z"/><path class="b" d="m1779.2 2054.3c-75-11.1-147.8-25.1-224.7-29.6-144.5-8.5-292.3 6.2-436.2 10.1-63.2 1.7-130.5 11-189.2 24.8-38.1 9.1-76.9 15-116.2 23.3-30.7 6.6-79.3 17.6-105.5 28.9-5.4 2.3-9.9 4.7-14 7 47.1 2.9 93.8 11.4 140.8 16.2 58.6 5.9 118.7-11.4 177.8-11.1 152.6 0.5 309.9 3.8 460.5-30.3 56.5-12.9 116.2-17.3 173-21.9 35-2.9 83.7 22.2 116.6 0.7 9.9-6.5 15.1-12.5 17.1-18.1z"/><path class="b" d="m13.6 1670.3c38 4 75.9 7.1 113.7 11.1 41 4.1 80.3 12.5 122.2 13.2 46.7 0.6 94.8-3.3 141.5-4.6 51-1.2 101.4 1.8 151.8-4.2 40-4.8 77.5-15.8 119-14.7 58 1.7 102.2 13.2 161.2 3 69.5-12 111.4-37.2 166-62.6 35.3-16.3 68.1-29.5 114-25 51.6 5.2 91.3 28.3 136.3 43 79.9 26.2 153.5 14.5 237.2-0.7 41.8-7.7 84.8-15.7 127.4-21.9 31.6-4.5 63.9-1.9 96-5.5 16.4-1.8 32.2-1.9 47.9-1.8-12.3-5.3-24.6-10.9-36.9-15-40.1-13.1-82.7-7.2-122.8-20.6-6.9-2.3-12.1-4.9-18-11.1 58.2-8.1 114.4-7.1 174.3-7 26 0.2 52.7 9.2 54.7-34.2-8.3-1.1-16.2-2.3-20.7-2.6-35.4-2.3-75.5-3.3-111.7-1.5-34.2 1.8-67.7 9.7-101.4 12.9-35.4 3.2-71 4.6-106.6 7.5-120.9 9.7-228.3-0.3-341.7-23.7-53.8-11.1-112.5-21-167.9-9.9-46.8 9.3-88.9 27.4-137.9 36.3-110.9 20-226.5 28-344.1 31.3-80.9 2.3-161.9-1.8-243.5-1.8-35.3 0-71.1 0.8-105.9-1.1-8.4-0.6-20.8-0.8-34.5-1.5-1.2 6.1-2.6 11.9-4.6 16 17.2 12.1 35.8 25.8 53.4 33-3.9 12.5-5.5 30.3-0.3 42.6-16.4 9.3-41.4 9.6-59.1 14.1-11.9 3.2-46.7-3.5-59 7z"/><path class="b" d="m6.1 1777.8c42-1 84.6 0 126.7 0 146.3 0 291.1 9.9 436.8 2.9 52.6-2.6 111-6.3 163.8-3 40.4 2.5 64.4 18.9 102.4 5.1 53.3-19.6 84.4-54.4 145.5-68.2 43.3-9.8 59.5 3.1 89.8 21.1 55.8 33.1 119.8 66 205 64.1 80.3-2 160.6-2.8 241-4.4 35.7-0.8 69.2-5.9 103.8-10.3 34.9-4.5 67-3.8 102.4-4.4 25.4-0.4 49-4.1 73.3-6.6q0.1-0.9 0.1-1.9c1.5-32.7-0.6-64.6-1.2-97.4-0.7-37.9 1.2-52.7-15.1-61.9-6.6-0.1-12-0.3-14.8-0.1-94.9 1.8-186 17.5-277 34-90.3 16.1-159 21.9-247.9 0.6-40.2-9.6-76.8-24.5-114.2-37.9-42.7-15.2-70.2-11.8-111.7 5.1-66.1 26.8-107.3 70.6-195.2 75.6-51 2.9-98.2-3.4-147.1-7.7-45.2-3.8-87.5 10.4-131.9 13.6-117.7 8.2-232 10.2-350.6 7.2-64.1-1.6-117.5-11.8-179.4-19.3-1.2-0.1-2.8-0.3-4.6-0.4-8 21.9-6.1 56.7-0.6 94.2q0.4 0 0.7 0z"/><path class="b" d="m273 2121c65.2-2.9 129.7-7.3 194.8-7.1 53.5 0.2 107.4 0.4 161.2 2 5.5-4.4 12.1-8.7 18.3-12.4 65-38.7 187.9-54.6 275.6-65.8 66.7-8.6 135-15.6 202.9-20.4 117.6-8.4 237.2-12.5 355.2-4.4 74.5 5.1 148.6 9.3 223.1 12.8 12 0.5 38.6 3.7 66.5 6-14.3-13.2-39.2-22.8-36.2-29.7l7.2-7.9c22.1-0.1 33.1-7.3 38.5-20.2-29.7 3-61.5 3.9-70.8 3.9-67.7 0-133.1-6.4-199.8-10.2-72.9-4-147.6-2.1-220.6-5.8-47.2-2.4-98.9-0.8-144.5-7.7-64.3-9.5-132.7-6.7-194.3 9.1-141.3 36.2-258.9 112-419 115.5-95.7 1.9-189.7-5.1-285.1-12.1-60.5-4.4-118.8-15.5-179.1-21.2-9.6-1-20.1-1.4-30.7-1.8 2.9 18.4 9 32.3 21.1 36.9 33.9 12.4 72.9-9.1 123.6 9.5 0.1 7.3-0.6 11.5-2.7 18.3-15.3 1.3-31.3-0.5-46.7 1.3-6.2 3-4 20.6 1.7 23.3 38.5 18.4 95.5-10 139.8-11.9z"/><path class="b" d="m129.8 1986.6c64.5-0.1 128.7 3.2 193.3 1.5 60-1.5 120.5-11.1 179-19 20.6-2.8 109-8.2 114.3-15.8-17.7-4.8-41.5-3.7-60.6-4.4-24-0.8-45.2-3.4-68.5-5.7-51.2-5.2-100.4-11.1-151.5-16.7-70.1-7.8-145-11-216.9-12.9-10.3-0.3-48.9 0.8-87.4 1.2 1.3 8.5 2.2 16.1 2.5 22.1 0.4 12.3 0.1 26.6-0.2 41.1 37.2 2.7 76.9 8.6 96 8.6z"/><path fill-rule="evenodd" class="b" d="m31.7 1343.5c1-28.7 2-52.9 14.8-76.9 15.9-29.7 26.5-22.3 48.7-14.2 50.5 18.2 90.8 22.3 143.1 18.7 70.9-4.9 142 2.8 212 17.6 62.2 13.1 126.6 14.2 189.3 4.1 106.3-17.3 205.7-72.9 310.3-103.7 92.7-27.4 187-23.4 280.8-23.2 76.3 0.4 150.6-4.8 226.7-10.8 81.5-6.3 166.5 15.8 247.2-2.7 15.9-3.6 50.2-20.6 65.8-6.9 15.1 13.3 12.2 47.6 11.1 74.8-23 0.2-46.2 0.4-69.1 0-48.2-1.1-96.1-7.9-144.5-3.1-57 5.7-113.6 12.4-171.9 13.5-56.8 1.1-116.4 0.2-137.6 37.4-14.4 25.2-2.8 57.7-32.9 79.5-24.3 17.6-67.6 18.5-97 6-23.5-10-38.4-34.7-73-32.9-28.5 1.5-69.5 13.2-96.4 19.2-176.8 39.3-391.4 38.4-564.9-8.9-31.7-8.8-61.6-11.8-96.4-7.7-35.4 4.3-62.5 16.9-99.6 18-56.2 1.8-111.4-0.4-166.5 2.2zm1158.2-63.5l5.1-8.9c-6.9-24.6-48-43.8-86.3-49.3-42.2-6.3-81.4-1.8-61.4 28.4 9.8 14.6 39.7 39.6 64.6 47.5 23.7 7.4 87.4 6.2 78-17.7z"/><path class="b" d="m112 1539.8c122.9 8.3 251.4 6.4 375.2 2.8 86.5-2.4 173.9-7.6 255.7-24.8 84.3-17.8 156.8-40.4 248.6-45.2 64.8-3.4 130.4-1.2 190.9 13.5 34.9 8.5 65.6 19.4 103.9 23 45.6 4.2 93.6 0.7 139.4-0.4 45.5-1 93.6 1.6 139-1 37.5-2.2 74.3-11.1 111.5-14.4 25.7-2.2 52.6-2.4 78.9-1.8 16.3 0.5 30 3.3 43.8 5.7q0-0.4 0-0.9c-0.3-5-0.6-10.2-1-15.4-23.9 4.8-62.4 0.5-82.4-0.6-42.6-2.5-83.9-10.5-126.8-11.9-34-1.2-68.5 0.5-102 1.5-19.7 0.6-57.1 3.7-73.6-4.1-44.6-21.4 65.7-42.3 86.3-48.2 59.3-17.3 95.5-50.2 159.7-64 41-8.8 81.7-15.9 121.2-17.8q-0.1-3.8-0.2-8c-0.3-13.1-0.2-26.4 0-39.7-38.6 1.9-89.1-0.3-102.6 0.4-55.5 3-108 15.2-157.9 29.6-42.9 12.4-53.8 36.9-78.6 59.5-36.3 33.1-97.5 53.4-162.3 63.1-40.6 6.2-94.4 3.7-134.4-1.6-45.7-6.2-95.6-29.6-139.6-16.6-46.3 13.7-87.8 17.5-141.3 19.3-62.1 2.2-122.5 12.2-185.2 13.2-78.5 1.3-151.5-2.4-227-13.5-27.3-4.1-53.3-9.4-77.2-17.8-18.8-6.5-33.2-16.1-53.5-20.9-21.7-5-45.7-3.2-69-3.3-71.2-0.1-153.2 17.4-227.6 18.3-1.5 16.1-1.8 31 1.4 39.8 6.7 18.7 39.3 14.8 54.1 22.4 24.5 12.6 51 21.3 75.1 37.2-15.4 25.6-41-15.9-56.6-5.2-5.6 3.8-8.6 14.1-10.9 25.6 9.3 0.8 18 1.6 25 2.2z"/><g style="opacity:.5"><path class="c" d="m1759.9 2045c-2.8-0.2-5.6-0.7-7.5-0.9q4 0.8 7.5 0.9z"/><path class="c" d="m1762.6 1404.6c-2-6.5-2.5-11.3-2.2-18.3 25.8-1.7 20-24.4 19.3-59.4-0.7-32.4 0.7-65.5 1.1-98 0.3-21 3.5-48.9-1.5-68.5-21.3 43.1-20.4 123.8-23.3 158.8-6.1 72 8.2 122.3 19.6 192.9-50.6 3.4-197.9-21.5-216.8 41.2q8.4-0.4 17-0.8c56-7.3 110.4-6.4 168.2-6.2 28.7 0.1 58.3 11.1 54.5-49.9-2.8-44.9-3.8-93.9-35.9-91.8z"/><path class="c" d="m1472.1 2093.3c56.5-13 116.2-17.4 173-22.1 35-2.9 83.7 22.3 116.6 0.7 18.5-12.3 20.7-22.7 15.8-32-4.3 3.8-10.3 5.4-17.6 5.1 4.1 0.4 8.4 0.7 10.9 0.3-65.9 24.8-90.1-8.4-213.8 4.7-89.7 9.5-208 26.5-296.5 32.8-166.8 12.3-351.4 26.3-519.1-3.5-81-14.3-142.8-11.9-226.9-10.7-84.4 1.4-177 19.7-259.4 21.4 24.8-65.6-79.2-39.5-118.3-40-34.7-0.4-65.2 6.6-102.1-14.9 2.4 22.3 8.4 39.8 22.2 44.9 33.9 12.6 72.9-9.1 123.6 9.7 0.1 7.3-0.6 11.6-2.7 18.3-15.4 1.4-31.3-0.4-46.7 1.4-6.2 3-4 20.7 1.6 23.4 38.6 18.5 95.6-10 139.9-12 65.2-2.9 129.7-7.3 194.8-7.1 74.3 0.2 149.5 0.4 224 4.8 47.7 2.7 94.9 11.6 142.4 16.4 58.5 5.9 118.7-11.5 177.8-11.2 152.6 0.6 309.9 3.9 460.5-30.4z"/><path class="c" d="m1795.1 1673c-0.8-42.8 1.7-56.3-21.8-65.5-7.1 15.2-9.9 157.5-12.3 184.8-5.5 62.9 5.3 127.5 4.3 187.2-13.7-1.5-30.9 4.5-44.3 2 2.7 10.5 7.1 17.1 12.8 21.4q0-0.4 0.2-0.8l7.2-7.9c58.7-0.4 39-51 43.9-125.3 2.1-32.3 9.7-63.4 11.2-97.9 1.5-33-0.6-65.1-1.2-98z"/></g><path fill-rule="evenodd" class="d" d="m193.6 1374.4c-16.2 0-29.3-13.1-29.3-29.3 0-16.2 13.1-29.3 29.3-29.3 16.3 0 29.4 13.1 29.4 29.3 0 16.2-13.1 29.3-29.4 29.3z"/><path fill-rule="evenodd" class="d" d="m1657.3 1299c-16.2 0-29.3-13.1-29.3-29.4 0-16.2 13.1-29.3 29.3-29.3 16.2 0 29.3 13.1 29.3 29.3 0 16.3-13.1 29.4-29.3 29.4z"/><path class="e" d="m208.1 598.8c0 9.7-5.7 17.4-12.8 17.4h-4.3c-7 0-12.8-7.7-12.8-17.4v-383.7c0-9.7 5.8-17.5 12.8-17.5h4.3c7.1 0 12.8 7.8 12.8 17.5z"/><path class="e" d="m208.1 218.8c0 9.7-5.7 17.4-12.8 17.4h-4.3c-7 0-12.8-7.7-12.8-17.4v-383.7c0-9.7 5.8-17.5 12.8-17.5h4.3c7.1 0 12.8 7.8 12.8 17.5z"/><path class="f" d="m189.5 255c6.7-5.7 13.3-12.3 17.3-21.7 1.8-4.1-2.8-7.7-4.6-3.7-3.5 8.4-9.5 14.1-15.4 19.1-2.9 2.5-0.2 8.8 2.7 6.3z"/><path class="f" d="m189.5 283.1c5.7-5.5 11.4-10.8 15.2-18.8 1.9-3.8-2.7-7.5-4.6-3.6-3.3 6.9-8.4 11.4-13.3 16.1-2.7 2.8-0.1 9 2.7 6.3z"/><path class="f" d="m190.2 315.1c5.7-4.6 10.6-10.6 14.5-17.8 2.1-3.8-2.6-7.4-4.6-3.7-3.3 6.3-7.7 11.3-12.5 15.1-3 2.5-0.3 8.8 2.6 6.4z"/><path class="f" d="m189.5 345.1c6.3-5.3 12.2-10.9 15.9-19.7 1.8-4.1-2.9-7.7-4.6-3.7-3.3 7.8-8.5 12.5-14 17.2-2.9 2.4-0.2 8.7 2.7 6.2z"/><path class="f" d="m189.4 229.2c4.3-6 8.2-12.4 11.8-19.2 2-3.8-2.7-7.4-4.6-3.7-3.4 6.3-7 12.3-11 17.8-2.4 3.4 1.3 8.4 3.8 5.1z"/><path class="f" d="m189.5-155c6.7-5.7 13.3-12.3 17.3-21.7 1.8-4.1-2.8-7.7-4.6-3.7-3.5 8.4-9.5 14.1-15.4 19.1-2.9 2.5-0.2 8.8 2.7 6.3z"/><path class="f" d="m189.5-126.9c5.7-5.5 11.4-10.8 15.2-18.8 1.9-3.8-2.7-7.5-4.6-3.6-3.3 6.9-8.4 11.4-13.3 16.1-2.7 2.8-0.1 9 2.7 6.3z"/><path class="f" d="m190.2-94.9c5.7-4.6 10.6-10.6 14.5-17.8 2.1-3.8-2.6-7.4-4.6-3.7-3.3 6.3-7.7 11.3-12.5 15.1-3 2.5-0.3 8.8 2.6 6.4z"/><path class="f" d="m189.5-64.9c6.3-5.3 12.2-10.9 15.9-19.7 1.8-4.1-2.9-7.7-4.6-3.7-3.3 7.8-8.5 12.5-14 17.2-2.9 2.4-0.2 8.7 2.7 6.2z"/><path class="f" d="m189.5-34.9c6.3-4.3 11.4-10.6 15.2-18.6 1.9-4-2.7-7.7-4.6-3.7-3.3 6.9-7.8 12.3-13.3 16.1-3 2.2-0.3 8.4 2.7 6.2z"/><path class="f" d="m190.2-4.7c5.2-4.8 10.1-10 13.8-16.9 2-3.7-2.6-7.4-4.6-3.7-3.2 5.9-7.5 10.2-11.8 14.3-2.9 2.6-0.2 8.9 2.6 6.3z"/><path class="f" d="m192.2 24.7c4.5-6.1 9.3-11.8 13.5-18.4 2.3-3.5-1.5-8.7-3.8-5.2-4.1 6.6-8.9 12.3-13.5 18.5-2.4 3.2 1.4 8.4 3.8 5.1z"/><path class="f" d="m192.4 52.4c5.2-3.8 9.1-10.3 12.3-16.8 1.9-3.9-2.7-7.6-4.6-3.6-2.7 5.4-6 11-10.4 14.1-3.1 2.2-0.4 8.5 2.7 6.3z"/><path class="f" d="m193.1 81.5c5.4-3.4 8.9-10 12.6-16.1 2.2-3.6-1.6-8.8-3.8-5.1-3.3 5.5-6.5 11.8-11.5 14.9-3.1 1.9-0.4 8.2 2.7 6.3z"/><path class="f" d="m192.2 109c4.7-5.3 8.9-11.3 12.5-18.1 2-3.8-2.6-7.5-4.6-3.7-3.3 6.3-7.3 11.7-11.7 16.6-2.6 3.2 1.2 8.2 3.8 5.2z"/><path class="f" d="m190.3 135.2c7.1 2.4 12-10.8 15.1-17.2 1.9-3.9-2.7-7.6-4.6-3.7-1.4 3-2.8 6.2-4.5 8.9-0.8 1.5-2.9 5.6-4.6 4.9-3.3-1.1-4.7 5.9-1.4 7.1z"/><path class="f" d="m193.8 168.7c4.8-3.5 7.5-9.9 11.2-15.1 2.4-3.3-1.4-8.5-3.8-5.2-3.3 4.7-5.8 10.9-10.1 14.1-3 2.1-0.3 8.4 2.7 6.2z"/><path class="f" d="m194.5 194.9c4-2.3 6.9-6.4 9.5-11 0.9-1.5 0.2-4.1-1-4.9-1.3-1.1-2.7-0.3-3.6 1.2-2 3.7-4.5 6.7-7.6 8.4-1.3 0.7-1.6 3.5-0.9 5 0.8 1.9 2.3 2 3.6 1.3z"/><path class="f" d="m189.5 375.1c6.3-4.3 11.4-10.6 15.2-18.6 1.9-4-2.7-7.7-4.6-3.7-3.3 6.9-7.8 12.3-13.3 16.1-3 2.2-0.3 8.4 2.7 6.2z"/><path class="f" d="m190.2 405.3c5.2-4.8 10.1-10 13.8-16.9 2-3.7-2.6-7.4-4.6-3.7-3.2 5.9-7.5 10.2-11.8 14.3-2.9 2.6-0.2 8.9 2.6 6.3z"/><path class="f" d="m192.2 434.7c4.5-6.1 9.3-11.8 13.5-18.4 2.3-3.5-1.5-8.7-3.8-5.2-4.1 6.6-8.9 12.3-13.5 18.5-2.4 3.2 1.4 8.4 3.8 5.1z"/><path class="f" d="m192.4 462.4c5.2-3.8 9.1-10.3 12.3-16.8 1.9-3.9-2.7-7.6-4.6-3.6-2.7 5.4-6 11-10.4 14.1-3.1 2.2-0.4 8.5 2.7 6.3z"/><path class="f" d="m193.1 491.5c5.4-3.4 8.9-10 12.6-16.1 2.2-3.6-1.6-8.8-3.8-5.1-3.3 5.5-6.5 11.8-11.5 14.9-3.1 1.9-0.4 8.2 2.7 6.3z"/><path class="f" d="m192.2 519c4.7-5.3 8.9-11.3 12.5-18.1 2-3.8-2.6-7.5-4.6-3.7-3.3 6.3-7.3 11.7-11.7 16.6-2.6 3.2 1.2 8.2 3.8 5.2z"/><path class="f" d="m190.3 545.2c7.1 2.4 12-10.8 15.1-17.2 1.9-3.9-2.7-7.6-4.6-3.7-1.4 3-2.8 6.2-4.5 8.9-0.8 1.5-2.9 5.6-4.6 4.9-3.3-1.1-4.7 5.9-1.4 7.1z"/><path class="f" d="m193.8 578.7c4.8-3.5 7.5-9.9 11.2-15.1 2.4-3.3-1.4-8.5-3.8-5.2-3.3 4.7-5.8 10.9-10.1 14.1-3 2.1-0.3 8.4 2.7 6.2z"/><path class="f" d="m194.5 604.9c4-2.3 6.9-6.4 9.5-11 0.9-1.5 0.2-4.1-1-4.9-1.3-1.1-2.7-0.3-3.6 1.2-2 3.7-4.5 6.7-7.6 8.4-1.3 0.7-1.6 3.5-0.9 5 0.8 1.9 2.3 2 3.6 1.3z"/><path class="e" d="m208.1 1328.8c0 9.7-5.7 17.4-12.8 17.4h-4.3c-7 0-12.8-7.7-12.8-17.4v-383.7c0-9.7 5.8-17.5 12.8-17.5h4.3c7.1 0 12.8 7.8 12.8 17.5z"/><path class="e" d="m208.1 948.8c0 9.7-5.7 17.4-12.8 17.4h-4.3c-7 0-12.8-7.7-12.8-17.4v-383.7c0-9.7 5.8-17.5 12.8-17.5h4.3c7.1 0 12.8 7.8 12.8 17.5z"/><path class="f" d="m189.5 985c6.7-5.7 13.3-12.3 17.3-21.7 1.8-4.1-2.8-7.7-4.6-3.7-3.5 8.4-9.5 14.1-15.4 19.1-2.9 2.5-0.2 8.8 2.7 6.3z"/><path class="f" d="m189.5 1013.1c5.7-5.5 11.4-10.8 15.2-18.8 1.9-3.8-2.7-7.5-4.6-3.6-3.3 6.9-8.4 11.4-13.3 16.1-2.7 2.8-0.1 9 2.7 6.3z"/><path class="f" d="m190.2 1045.1c5.7-4.6 10.6-10.6 14.5-17.8 2.1-3.8-2.6-7.4-4.6-3.7-3.3 6.3-7.7 11.3-12.5 15.1-3 2.5-0.3 8.8 2.6 6.4z"/><path class="f" d="m189.5 1075.1c6.3-5.3 12.2-10.9 15.9-19.7 1.8-4.1-2.9-7.7-4.6-3.7-3.3 7.8-8.5 12.5-14 17.2-2.9 2.4-0.2 8.7 2.7 6.2z"/><path class="f" d="m189.4 959.2c4.3-6 8.2-12.4 11.8-19.2 2-3.8-2.7-7.4-4.6-3.7-3.4 6.3-7 12.3-11 17.8-2.4 3.4 1.3 8.4 3.8 5.1z"/><path class="f" d="m189.5 575c6.7-5.7 13.3-12.3 17.3-21.7 1.8-4.1-2.8-7.7-4.6-3.7-3.5 8.4-9.5 14.1-15.4 19.1-2.9 2.5-0.2 8.8 2.7 6.3z"/><path class="f" d="m189.5 603.1c5.7-5.5 11.4-10.8 15.2-18.8 1.9-3.8-2.7-7.5-4.6-3.6-3.3 6.9-8.4 11.4-13.3 16.1-2.7 2.8-0.1 9 2.7 6.3z"/><path class="f" d="m190.2 635.1c5.7-4.6 10.6-10.6 14.5-17.8 2.1-3.8-2.6-7.4-4.6-3.7-3.3 6.3-7.7 11.3-12.5 15.1-3 2.5-0.3 8.8 2.6 6.4z"/><path class="f" d="m189.5 665.1c6.3-5.3 12.2-10.9 15.9-19.7 1.8-4.1-2.9-7.7-4.6-3.7-3.3 7.8-8.5 12.5-14 17.2-2.9 2.4-0.2 8.7 2.7 6.2z"/><path class="f" d="m189.5 695.1c6.3-4.3 11.4-10.6 15.2-18.6 1.9-4-2.7-7.7-4.6-3.7-3.3 6.9-7.8 12.3-13.3 16.1-3 2.2-0.3 8.4 2.7 6.2z"/><path class="f" d="m190.2 725.3c5.2-4.8 10.1-10 13.8-16.9 2-3.7-2.6-7.4-4.6-3.7-3.2 5.9-7.5 10.2-11.8 14.3-2.9 2.6-0.2 8.9 2.6 6.3z"/><path class="f" d="m192.2 754.7c4.5-6.1 9.3-11.8 13.5-18.4 2.3-3.5-1.5-8.7-3.8-5.2-4.1 6.6-8.9 12.3-13.5 18.5-2.4 3.2 1.4 8.4 3.8 5.1z"/><path class="f" d="m192.4 782.4c5.2-3.8 9.1-10.3 12.3-16.8 1.9-3.9-2.7-7.6-4.6-3.6-2.7 5.4-6 11-10.4 14.1-3.1 2.2-0.4 8.5 2.7 6.3z"/><path class="f" d="m193.1 811.5c5.4-3.4 8.9-10 12.6-16.1 2.2-3.6-1.6-8.8-3.8-5.1-3.3 5.5-6.5 11.8-11.5 14.9-3.1 1.9-0.4 8.2 2.7 6.3z"/><path class="f" d="m192.2 839c4.7-5.3 8.9-11.3 12.5-18.1 2-3.8-2.6-7.5-4.6-3.7-3.3 6.3-7.3 11.7-11.7 16.6-2.6 3.2 1.2 8.2 3.8 5.2z"/><path class="f" d="m190.3 865.2c7.1 2.4 12-10.8 15.1-17.2 1.9-3.9-2.7-7.6-4.6-3.7-1.4 3-2.8 6.2-4.5 8.9-0.8 1.5-2.9 5.6-4.6 4.9-3.3-1.1-4.7 5.9-1.4 7.1z"/><path class="f" d="m193.8 898.7c4.8-3.5 7.5-9.9 11.2-15.1 2.4-3.3-1.4-8.5-3.8-5.2-3.3 4.7-5.8 10.9-10.1 14.1-3 2.1-0.3 8.4 2.7 6.2z"/><path class="f" d="m194.5 924.9c4-2.3 6.9-6.4 9.5-11 0.9-1.5 0.2-4.1-1-4.9-1.3-1.1-2.7-0.3-3.6 1.2-2 3.7-4.5 6.7-7.6 8.4-1.3 0.7-1.6 3.5-0.9 5 0.8 1.9 2.3 2 3.6 1.3z"/><path class="f" d="m189.5 1105.1c6.3-4.3 11.4-10.6 15.2-18.6 1.9-4-2.7-7.7-4.6-3.7-3.3 6.9-7.8 12.3-13.3 16.1-3 2.2-0.3 8.4 2.7 6.2z"/><path class="f" d="m190.2 1135.3c5.2-4.8 10.1-10 13.8-16.9 2-3.7-2.6-7.4-4.6-3.7-3.2 5.9-7.5 10.2-11.8 14.3-2.9 2.6-0.2 8.9 2.6 6.3z"/><path class="f" d="m192.2 1164.7c4.5-6.1 9.3-11.8 13.5-18.4 2.3-3.5-1.5-8.7-3.8-5.2-4.1 6.6-8.9 12.3-13.5 18.5-2.4 3.2 1.4 8.4 3.8 5.1z"/><path class="f" d="m192.4 1192.4c5.2-3.8 9.1-10.3 12.3-16.8 1.9-3.9-2.7-7.6-4.6-3.6-2.7 5.4-6 11-10.4 14.1-3.1 2.2-0.4 8.5 2.7 6.3z"/><path class="f" d="m193.1 1221.5c5.4-3.4 8.9-10 12.6-16.1 2.2-3.6-1.6-8.8-3.8-5.1-3.3 5.5-6.5 11.8-11.5 14.9-3.1 1.9-0.4 8.2 2.7 6.3z"/><path class="f" d="m192.2 1249c4.7-5.3 8.9-11.3 12.5-18.1 2-3.8-2.6-7.5-4.6-3.7-3.3 6.3-7.3 11.7-11.7 16.6-2.6 3.2 1.2 8.2 3.8 5.2z"/><path class="f" d="m190.3 1275.2c7.1 2.4 12-10.8 15.1-17.2 1.9-3.9-2.7-7.6-4.6-3.7-1.4 3-2.8 6.2-4.5 8.9-0.8 1.5-2.9 5.6-4.6 4.9-3.3-1.1-4.7 5.9-1.4 7.1z"/><path class="f" d="m193.8 1308.7c4.8-3.5 7.5-9.9 11.2-15.1 2.4-3.3-1.4-8.5-3.8-5.2-3.3 4.7-5.8 10.9-10.1 14.1-3 2.1-0.3 8.4 2.7 6.2z"/><path class="f" d="m194.5 1334.9c4-2.3 6.9-6.4 9.5-11 0.9-1.5 0.2-4.1-1-4.9-1.3-1.1-2.7-0.3-3.6 1.2-2 3.7-4.5 6.7-7.6 8.4-1.3 0.7-1.6 3.5-0.9 5 0.8 1.9 2.3 2 3.6 1.3z"/><path class="e" d="m215.1 1211.9q0 0.1-0.1 0.2c0.1 0.2 0.1 0 0.1-0.2z"/><path class="e" d="m259.5 1149.9c-6.6 0.5-35.7 17.6-53.3 37.3-4.9 5.5 0 17.1-5.4 21.8l13.4 1.1c-0.1 0.2-0.1 0.5-0.1 0.8 4.1-9.3 17.5-17.5 24.7-24.1 7.5-6.9 18.6-7.6 31.4-18.3 6.9-11.2-3.2-19.2-10.7-18.6z"/><path class="e" d="m183.1 1229.4q0.1 0 0.1 0.1c0 0.2 0 0.1-0.1-0.1z"/><path class="e" d="m117.4 1190.9c6.3-2.1 39.8 2.3 63.7 13.5 6.6 3.2 6.7 15.8 13.5 18.1l-11.9 6.2c0.1 0.1 0.3 0.4 0.4 0.7-7.4-7.1-23-9.3-32.2-12.6-9.6-3.4-20 0.3-36-4.5-10.8-7.6-4.6-19 2.5-21.4z"/><path class="e" d="m216.8 1205.2c-6.6-1.6-14.2 0.3-20.3 3.1-2.9 1.4-5.5 2.9-8 5.1-1.7 1.5-5.1 4.5-4.8 4.6l-3.2 0.6c-6.9-0.4-18.7 6-20.2 12.8-2 8.8 3.3 18.3 11.7 21.4 8.1 3 19.1-0.8 27.2-2.4 9.9-1.9 17.1-6.1 22.5-14.8 5.8-9.4 9.2-26.9-4.9-30.4z"/><path class="g" d="m224.8 1210.2c-5.5 2.4-10.7 9.5-14.4 12.5-9.6 7.9-20.7 13.3-32.7 17.2-4.9 1.6-10.6 2.9-15.8 3.2 2.1 4.1 5.7 7.6 10.1 9.2 8.1 3 19.1-0.8 27.2-2.4 9.9-1.9 17.1-6.1 22.5-14.8 4.2-6.9 7.2-18 3.1-24.9z"/><path class="f" d="m214.8 1204.5c4-5.6 6.5-12.3 8.3-18.8 0.9-3.3-4.2-4.7-5.2-1.4-1.7 6.1-4 12.3-7.7 17.5-2 2.8 2.6 5.4 4.6 2.7z"/><path class="f" d="m231.3 1193.3c3-4.9 4.7-10.3 7-15.5 1.3-3.1-3.3-5.8-4.6-2.7-2.3 5.2-4 10.6-7 15.5-1.7 2.9 2.9 5.6 4.6 2.7z"/><path class="f" d="m249.5 1180.5c2.7-5.1 4.9-10.5 6.1-16.1 0.7-3.4-4.4-4.8-5.1-1.5-1.1 5.3-3.1 10.2-5.6 14.9-1.7 3 2.9 5.7 4.6 2.7z"/><path class="f" d="m263.3 1174.1c1.7-3.9 3.2-7.9 4.8-11.8 1.4-3.1-3.2-5.8-4.6-2.7-1.6 3.9-3.1 7.9-4.8 11.8-1.3 3.1 3.3 5.8 4.6 2.7z"/><path class="f" d="m121 1210.3c-2.2-3.8-3.9-7.8-4.6-12.2-0.5-3.4-5.6-1.9-5.1 1.5 0.7 4.7 2.7 9.2 5 13.4 1.7 3 6.3 0.3 4.7-2.7z"/><path class="f" d="m132.7 1209.8c-2.1-3.2-3.9-6.3-4.5-10.1-0.6-3.4-5.8-1.9-5.2 1.5 0.7 4.1 2.8 7.8 5.1 11.3 1.9 2.8 6.5 0.1 4.6-2.7z"/><path class="f" d="m149.3 1211.4c-3.7-3.3-8.2-6.7-8.8-12-0.4-3.4-5.7-3.4-5.3 0 0.8 7 5.3 11.3 10.4 15.7 2.5 2.3 6.3-1.5 3.7-3.7z"/><path class="f" d="m166.1 1218.6c-0.1-4.5-2-8.3-3.3-12.5-1-3.2-6.1-1.9-5.1 1.4 1.1 3.7 3 7.2 3.1 11.1 0.1 3.4 5.4 3.4 5.3 0z"/><path class="f" d="m177.8 1217.9c-1.2-3.4-2.1-6.8-3.2-10.2-1.1-3.2-6.3-1.8-5.2 1.4 1.1 3.4 2.1 6.8 3.2 10.2 1.1 3.2 6.2 1.8 5.2-1.4z"/><path class="e" d="m1672.1 522.8c0 9.7-5.7 17.4-12.8 17.4h-4.3c-7 0-12.8-7.7-12.8-17.4v-383.7c0-9.7 5.8-17.5 12.8-17.5h4.3c7.1 0 12.8 7.8 12.8 17.5z"/><path class="e" d="m1672.1 142.8c0 9.7-5.7 17.4-12.8 17.4h-4.3c-7 0-12.8-7.7-12.8-17.4v-383.7c0-9.7 5.8-17.5 12.8-17.5h4.3c7.1 0 12.8 7.8 12.8 17.5z"/><path class="f" d="m1653.5 179c6.7-5.7 13.3-12.3 17.3-21.7 1.8-4.1-2.8-7.7-4.6-3.7-3.5 8.4-9.5 14.1-15.4 19.1-2.9 2.5-0.2 8.8 2.7 6.3z"/><path class="f" d="m1653.5 207.1c5.7-5.5 11.4-10.8 15.2-18.8 1.9-3.8-2.7-7.5-4.6-3.6-3.3 6.9-8.4 11.4-13.3 16.1-2.7 2.8-0.1 9 2.7 6.3z"/><path class="f" d="m1654.2 239.1c5.7-4.6 10.6-10.6 14.5-17.8 2.1-3.8-2.6-7.4-4.6-3.7-3.3 6.3-7.7 11.3-12.5 15.1-3 2.5-0.3 8.8 2.6 6.4z"/><path class="f" d="m1653.5 269.1c6.3-5.3 12.2-10.9 15.9-19.7 1.8-4.1-2.9-7.7-4.6-3.7-3.3 7.8-8.5 12.5-14 17.2-2.9 2.4-0.2 8.7 2.7 6.2z"/><path class="f" d="m1653.4 153.2c4.3-6 8.2-12.4 11.8-19.2 2-3.8-2.7-7.4-4.6-3.7-3.4 6.3-7 12.3-11 17.8-2.4 3.4 1.3 8.4 3.8 5.1z"/><path class="f" d="m1653.5-231c6.7-5.7 13.3-12.3 17.3-21.7 1.8-4.1-2.8-7.7-4.6-3.7-3.5 8.4-9.5 14.1-15.4 19.1-2.9 2.5-0.2 8.8 2.7 6.3z"/><path class="f" d="m1653.5-202.9c5.7-5.5 11.4-10.8 15.2-18.8 1.9-3.8-2.7-7.5-4.6-3.6-3.3 6.9-8.4 11.4-13.3 16.1-2.7 2.8-0.1 9 2.7 6.3z"/><path class="f" d="m1654.2-170.9c5.7-4.6 10.6-10.6 14.5-17.8 2.1-3.8-2.6-7.4-4.6-3.7-3.3 6.3-7.7 11.3-12.5 15.1-3 2.5-0.3 8.8 2.6 6.4z"/><path class="f" d="m1653.5-140.9c6.3-5.3 12.2-10.9 15.9-19.7 1.8-4.1-2.9-7.7-4.6-3.7-3.3 7.8-8.5 12.5-14 17.2-2.9 2.4-0.2 8.7 2.7 6.2z"/><path class="f" d="m1653.5-110.9c6.3-4.3 11.4-10.6 15.2-18.6 1.9-4-2.7-7.7-4.6-3.7-3.3 6.9-7.8 12.3-13.3 16.1-3 2.2-0.3 8.4 2.7 6.2z"/><path class="f" d="m1654.2-80.7c5.2-4.8 10.1-10 13.8-16.9 2-3.7-2.6-7.4-4.6-3.7-3.2 5.9-7.5 10.2-11.8 14.3-2.9 2.6-0.2 8.9 2.6 6.3z"/><path class="f" d="m1656.2-51.3c4.5-6.1 9.3-11.8 13.5-18.4 2.3-3.5-1.5-8.7-3.8-5.2-4.1 6.6-8.9 12.3-13.5 18.5-2.4 3.2 1.4 8.4 3.8 5.1z"/><path class="f" d="m1656.4-23.6c5.2-3.8 9.1-10.3 12.3-16.8 1.9-3.9-2.7-7.6-4.6-3.6-2.7 5.4-6 11-10.4 14.1-3.1 2.2-0.4 8.5 2.7 6.3z"/><path class="f" d="m1657.1 5.5c5.4-3.4 8.9-10 12.6-16.1 2.2-3.6-1.6-8.8-3.8-5.1-3.3 5.5-6.5 11.8-11.5 14.9-3.1 1.9-0.4 8.2 2.7 6.3z"/><path class="f" d="m1656.2 33c4.7-5.3 8.9-11.3 12.5-18.1 2-3.8-2.6-7.5-4.6-3.7-3.3 6.3-7.3 11.7-11.7 16.6-2.6 3.2 1.2 8.2 3.8 5.2z"/><path class="f" d="m1654.3 59.2c7.1 2.4 12-10.8 15.1-17.2 1.9-3.9-2.7-7.6-4.6-3.7-1.4 3-2.8 6.2-4.5 8.9-0.8 1.5-2.9 5.6-4.6 4.9-3.3-1.1-4.7 5.9-1.4 7.1z"/><path class="f" d="m1657.8 92.7c4.8-3.5 7.5-9.9 11.2-15.1 2.4-3.3-1.4-8.5-3.8-5.2-3.3 4.7-5.8 10.9-10.1 14.1-3 2.1-0.3 8.4 2.7 6.2z"/><path class="f" d="m1658.5 118.9c4-2.3 6.9-6.4 9.5-11 0.9-1.5 0.2-4.1-1-4.9-1.3-1.1-2.7-0.3-3.6 1.2-2 3.7-4.5 6.7-7.6 8.4-1.3 0.7-1.6 3.5-0.9 5 0.8 1.9 2.3 2 3.6 1.3z"/><path class="f" d="m1653.5 299.1c6.3-4.3 11.4-10.6 15.2-18.6 1.9-4-2.7-7.7-4.6-3.7-3.3 6.9-7.8 12.3-13.3 16.1-3 2.2-0.3 8.4 2.7 6.2z"/><path class="f" d="m1654.2 329.3c5.2-4.8 10.1-10 13.8-16.9 2-3.7-2.6-7.4-4.6-3.7-3.2 5.9-7.5 10.2-11.8 14.3-2.9 2.6-0.2 8.9 2.6 6.3z"/><path class="f" d="m1656.2 358.7c4.5-6.1 9.3-11.8 13.5-18.4 2.3-3.5-1.5-8.7-3.8-5.2-4.1 6.6-8.9 12.3-13.5 18.5-2.4 3.2 1.4 8.4 3.8 5.1z"/><path class="f" d="m1656.4 386.4c5.2-3.8 9.1-10.3 12.3-16.8 1.9-3.9-2.7-7.6-4.6-3.6-2.7 5.4-6 11-10.4 14.1-3.1 2.2-0.4 8.5 2.7 6.3z"/><path class="f" d="m1657.1 415.5c5.4-3.4 8.9-10 12.6-16.1 2.2-3.6-1.6-8.8-3.8-5.1-3.3 5.5-6.5 11.8-11.5 14.9-3.1 1.9-0.4 8.2 2.7 6.3z"/><path class="f" d="m1656.2 443c4.7-5.3 8.9-11.3 12.5-18.1 2-3.8-2.6-7.5-4.6-3.7-3.3 6.3-7.3 11.7-11.7 16.6-2.6 3.2 1.2 8.2 3.8 5.2z"/><path class="f" d="m1654.3 469.2c7.1 2.4 12-10.8 15.1-17.2 1.9-3.9-2.7-7.6-4.6-3.7-1.4 3-2.8 6.2-4.5 8.9-0.8 1.5-2.9 5.6-4.6 4.9-3.3-1.1-4.7 5.9-1.4 7.1z"/><path class="f" d="m1657.8 502.7c4.8-3.5 7.5-9.9 11.2-15.1 2.4-3.3-1.4-8.5-3.8-5.2-3.3 4.7-5.8 10.9-10.1 14.1-3 2.1-0.3 8.4 2.7 6.2z"/><path class="f" d="m1658.5 528.9c4-2.3 6.9-6.4 9.5-11 0.9-1.5 0.2-4.1-1-4.9-1.3-1.1-2.7-0.3-3.6 1.2-2 3.7-4.5 6.7-7.6 8.4-1.3 0.7-1.6 3.5-0.9 5 0.8 1.9 2.3 2 3.6 1.3z"/><path class="e" d="m1672.1 1252.8c0 9.7-5.7 17.4-12.8 17.4h-4.3c-7 0-12.8-7.7-12.8-17.4v-383.7c0-9.7 5.8-17.5 12.8-17.5h4.3c7.1 0 12.8 7.8 12.8 17.5z"/><path class="e" d="m1672.1 872.8c0 9.7-5.7 17.4-12.8 17.4h-4.3c-7 0-12.8-7.7-12.8-17.4v-383.7c0-9.7 5.8-17.5 12.8-17.5h4.3c7.1 0 12.8 7.8 12.8 17.5z"/><path class="f" d="m1653.5 909c6.7-5.7 13.3-12.3 17.3-21.7 1.8-4.1-2.8-7.7-4.6-3.7-3.5 8.4-9.5 14.1-15.4 19.1-2.9 2.5-0.2 8.8 2.7 6.3z"/><path class="f" d="m1653.5 937.1c5.7-5.5 11.4-10.8 15.2-18.8 1.9-3.8-2.7-7.5-4.6-3.6-3.3 6.9-8.4 11.4-13.3 16.1-2.7 2.8-0.1 9 2.7 6.3z"/><path class="f" d="m1654.2 969.1c5.7-4.6 10.6-10.6 14.5-17.8 2.1-3.8-2.6-7.4-4.6-3.7-3.3 6.3-7.7 11.3-12.5 15.1-3 2.5-0.3 8.8 2.6 6.4z"/><path class="f" d="m1653.5 999.1c6.3-5.3 12.2-10.9 15.9-19.7 1.8-4.1-2.9-7.7-4.6-3.7-3.3 7.8-8.5 12.5-14 17.2-2.9 2.4-0.2 8.7 2.7 6.2z"/><path class="f" d="m1653.4 883.2c4.3-6 8.2-12.4 11.8-19.2 2-3.8-2.7-7.4-4.6-3.7-3.4 6.3-7 12.3-11 17.8-2.4 3.4 1.3 8.4 3.8 5.1z"/><path class="f" d="m1653.5 499c6.7-5.7 13.3-12.3 17.3-21.7 1.8-4.1-2.8-7.7-4.6-3.7-3.5 8.4-9.5 14.1-15.4 19.1-2.9 2.5-0.2 8.8 2.7 6.3z"/><path class="f" d="m1653.5 527.1c5.7-5.5 11.4-10.8 15.2-18.8 1.9-3.8-2.7-7.5-4.6-3.6-3.3 6.9-8.4 11.4-13.3 16.1-2.7 2.8-0.1 9 2.7 6.3z"/><path class="f" d="m1654.2 559.1c5.7-4.6 10.6-10.6 14.5-17.8 2.1-3.8-2.6-7.4-4.6-3.7-3.3 6.3-7.7 11.3-12.5 15.1-3 2.5-0.3 8.8 2.6 6.4z"/><path class="f" d="m1653.5 589.1c6.3-5.3 12.2-10.9 15.9-19.7 1.8-4.1-2.9-7.7-4.6-3.7-3.3 7.8-8.5 12.5-14 17.2-2.9 2.4-0.2 8.7 2.7 6.2z"/><path class="f" d="m1653.5 619.1c6.3-4.3 11.4-10.6 15.2-18.6 1.9-4-2.7-7.7-4.6-3.7-3.3 6.9-7.8 12.3-13.3 16.1-3 2.2-0.3 8.4 2.7 6.2z"/><path class="f" d="m1654.2 649.3c5.2-4.8 10.1-10 13.8-16.9 2-3.7-2.6-7.4-4.6-3.7-3.2 5.9-7.5 10.2-11.8 14.3-2.9 2.6-0.2 8.9 2.6 6.3z"/><path class="f" d="m1656.2 678.7c4.5-6.1 9.3-11.8 13.5-18.4 2.3-3.5-1.5-8.7-3.8-5.2-4.1 6.6-8.9 12.3-13.5 18.5-2.4 3.2 1.4 8.4 3.8 5.1z"/><path class="f" d="m1656.4 706.4c5.2-3.8 9.1-10.3 12.3-16.8 1.9-3.9-2.7-7.6-4.6-3.6-2.7 5.4-6 11-10.4 14.1-3.1 2.2-0.4 8.5 2.7 6.3z"/><path class="f" d="m1657.1 735.5c5.4-3.4 8.9-10 12.6-16.1 2.2-3.6-1.6-8.8-3.8-5.1-3.3 5.5-6.5 11.8-11.5 14.9-3.1 1.9-0.4 8.2 2.7 6.3z"/><path class="f" d="m1656.2 763c4.7-5.3 8.9-11.3 12.5-18.1 2-3.8-2.6-7.5-4.6-3.7-3.3 6.3-7.3 11.7-11.7 16.6-2.6 3.2 1.2 8.2 3.8 5.2z"/><path class="f" d="m1654.3 789.2c7.1 2.4 12-10.8 15.1-17.2 1.9-3.9-2.7-7.6-4.6-3.7-1.4 3-2.8 6.2-4.5 8.9-0.8 1.5-2.9 5.6-4.6 4.9-3.3-1.1-4.7 5.9-1.4 7.1z"/><path class="f" d="m1657.8 822.7c4.8-3.5 7.5-9.9 11.2-15.1 2.4-3.3-1.4-8.5-3.8-5.2-3.3 4.7-5.8 10.9-10.1 14.1-3 2.1-0.3 8.4 2.7 6.2z"/><path class="f" d="m1658.5 848.9c4-2.3 6.9-6.4 9.5-11 0.9-1.5 0.2-4.1-1-4.9-1.3-1.1-2.7-0.3-3.6 1.2-2 3.7-4.5 6.7-7.6 8.4-1.3 0.7-1.6 3.5-0.9 5 0.8 1.9 2.3 2 3.6 1.3z"/><path class="f" d="m1653.5 1029.1c6.3-4.3 11.4-10.6 15.2-18.6 1.9-4-2.7-7.7-4.6-3.7-3.3 6.9-7.8 12.3-13.3 16.1-3 2.2-0.3 8.4 2.7 6.2z"/><path class="f" d="m1654.2 1059.3c5.2-4.8 10.1-10 13.8-16.9 2-3.7-2.6-7.4-4.6-3.7-3.2 5.9-7.5 10.2-11.8 14.3-2.9 2.6-0.2 8.9 2.6 6.3z"/><path class="f" d="m1656.2 1088.7c4.5-6.1 9.3-11.8 13.5-18.4 2.3-3.5-1.5-8.7-3.8-5.2-4.1 6.6-8.9 12.3-13.5 18.5-2.4 3.2 1.4 8.4 3.8 5.1z"/><path class="f" d="m1656.4 1116.4c5.2-3.8 9.1-10.3 12.3-16.8 1.9-3.9-2.7-7.6-4.6-3.6-2.7 5.4-6 11-10.4 14.1-3.1 2.2-0.4 8.5 2.7 6.3z"/><path class="f" d="m1657.1 1145.5c5.4-3.4 8.9-10 12.6-16.1 2.2-3.6-1.6-8.8-3.8-5.1-3.3 5.5-6.5 11.8-11.5 14.9-3.1 1.9-0.4 8.2 2.7 6.3z"/><path class="f" d="m1656.2 1173c4.7-5.3 8.9-11.3 12.5-18.1 2-3.8-2.6-7.5-4.6-3.7-3.3 6.3-7.3 11.7-11.7 16.6-2.6 3.2 1.2 8.2 3.8 5.2z"/><path class="f" d="m1654.3 1199.2c7.1 2.4 12-10.8 15.1-17.2 1.9-3.9-2.7-7.6-4.6-3.7-1.4 3-2.8 6.2-4.5 8.9-0.8 1.5-2.9 5.6-4.6 4.9-3.3-1.1-4.7 5.9-1.4 7.1z"/><path class="f" d="m1657.8 1232.7c4.8-3.5 7.5-9.9 11.2-15.1 2.4-3.3-1.4-8.5-3.8-5.2-3.3 4.7-5.8 10.9-10.1 14.1-3 2.1-0.3 8.4 2.7 6.2z"/><path class="f" d="m1658.5 1258.9c4-2.3 6.9-6.4 9.5-11 0.9-1.5 0.2-4.1-1-4.9-1.3-1.1-2.7-0.3-3.6 1.2-2 3.7-4.5 6.7-7.6 8.4-1.3 0.7-1.6 3.5-0.9 5 0.8 1.9 2.3 2 3.6 1.3z"/><path class="e" d="m1679.1 1135.9q0 0.1-0.1 0.2c0.1 0.2 0.1 0 0.1-0.2z"/><path class="e" d="m1723.5 1073.9c-6.6 0.5-35.7 17.6-53.3 37.3-4.9 5.5 0 17.1-5.4 21.8l13.4 1.1c-0.1 0.2-0.1 0.5-0.1 0.8 4.1-9.3 17.5-17.5 24.7-24.1 7.5-6.9 18.6-7.6 31.4-18.3 6.9-11.2-3.2-19.2-10.7-18.6z"/><path class="e" d="m1647.1 1153.4q0.1 0 0.1 0.1c0 0.2 0 0.1-0.1-0.1z"/><path class="e" d="m1581.4 1114.9c6.3-2.1 39.8 2.3 63.7 13.5 6.6 3.2 6.7 15.8 13.5 18.1l-11.9 6.2c0.1 0.1 0.3 0.4 0.4 0.7-7.4-7.1-23-9.3-32.2-12.6-9.6-3.4-20 0.3-36-4.5-10.8-7.6-4.6-19 2.5-21.4z"/><path class="e" d="m1680.8 1129.2c-6.6-1.6-14.2 0.3-20.3 3.1-2.9 1.4-5.5 2.9-8 5.1-1.7 1.5-5.1 4.5-4.8 4.6l-3.2 0.6c-6.9-0.4-18.7 6-20.2 12.8-2 8.8 3.3 18.3 11.7 21.4 8.1 3 19.1-0.8 27.2-2.4 9.9-1.9 17.1-6.1 22.5-14.8 5.8-9.4 9.2-26.9-4.9-30.4z"/><path class="g" d="m1688.8 1134.2c-5.5 2.4-10.7 9.5-14.4 12.5-9.6 7.9-20.7 13.3-32.7 17.2-4.9 1.6-10.6 2.9-15.8 3.2 2.1 4.1 5.7 7.6 10.1 9.2 8.1 3 19.1-0.8 27.2-2.4 9.9-1.9 17.1-6.1 22.5-14.8 4.2-6.9 7.2-18 3.1-24.9z"/><path class="f" d="m1678.8 1128.5c4-5.6 6.5-12.3 8.3-18.8 0.9-3.3-4.2-4.7-5.2-1.4-1.7 6.1-4 12.3-7.7 17.5-2 2.8 2.6 5.4 4.6 2.7z"/><path class="f" d="m1695.3 1117.3c3-4.9 4.7-10.3 7-15.5 1.3-3.1-3.3-5.8-4.6-2.7-2.3 5.2-4 10.6-7 15.5-1.7 2.9 2.9 5.6 4.6 2.7z"/><path class="f" d="m1713.5 1104.5c2.7-5.1 4.9-10.5 6.1-16.1 0.7-3.4-4.4-4.8-5.1-1.5-1.1 5.3-3.1 10.2-5.6 14.9-1.7 3 2.9 5.7 4.6 2.7z"/><path class="f" d="m1727.3 1098.1c1.7-3.9 3.2-7.9 4.8-11.8 1.4-3.1-3.2-5.8-4.6-2.7-1.6 3.9-3.1 7.9-4.8 11.8-1.3 3.1 3.3 5.8 4.6 2.7z"/><path class="f" d="m1585 1134.3c-2.2-3.8-3.9-7.8-4.6-12.2-0.5-3.4-5.6-1.9-5.1 1.5 0.7 4.7 2.7 9.2 5 13.4 1.7 3 6.3 0.3 4.7-2.7z"/><path class="f" d="m1596.7 1133.8c-2.1-3.2-3.9-6.3-4.5-10.1-0.6-3.4-5.8-1.9-5.2 1.5 0.7 4.1 2.8 7.8 5.1 11.3 1.9 2.8 6.5 0.1 4.6-2.7z"/><path class="f" d="m1613.3 1135.4c-3.7-3.3-8.2-6.7-8.8-12-0.4-3.4-5.7-3.4-5.3 0 0.8 7 5.3 11.3 10.4 15.7 2.5 2.3 6.3-1.5 3.7-3.7z"/><path class="f" d="m1630.1 1142.6c-0.1-4.5-2-8.3-3.3-12.5-1-3.2-6.1-1.9-5.1 1.4 1.1 3.7 3 7.2 3.1 11.1 0.1 3.4 5.4 3.4 5.3 0z"/><path class="f" d="m1641.8 1141.9c-1.2-3.4-2.1-6.8-3.2-10.2-1.1-3.2-6.3-1.8-5.2 1.4 1.1 3.4 2.1 6.8 3.2 10.2 1.1 3.2 6.2 1.8 5.2-1.4z"/></svg>