<svg version="1.2" xmlns="http://www.w3.org/2000/svg" viewBox="0 0 1800 1440" width="1800" height="1440"><style>.a{fill:#c68655}.b{fill:#da9859}.c{fill:#895b3d}.d{fill:#7c5438}.e{fill:#c6bc93}.f{fill:#968f71}.g{opacity:.5;fill:#968f71}</style><path class="a" d="m33.9 1291.8c1.9 36.8-9.3 96 23.3 104.8 34 9.1 72.9-6.6 123.6 7 0.1 5.3-0.5 8.4-2.6 13.3-15.4 1-31.4-0.3-46.7 1-6.2 2.2-4.1 15 1.6 17 38.5 13.4 95.6-7.3 139.9-8.7 65.2-2.1 129.6-5.3 194.7-5.2 74.4 0.2 149.5 0.3 224.1 3.5 47.6 2 94.9 8.4 142.4 11.9 58.5 4.3 118.7-8.3 177.7-8.1 152.6 0.4 310 2.8 460.5-22.1 56.6-9.4 116.3-12.6 173.1-16 34.9-2.1 83.7 16.2 116.5 0.5 54.9-26.3-33.2-42.1-27.7-51.4l7.2-5.7c58.8-0.3 39.1-37 43.9-90.9 2.2-23.5 9.8-46 11.3-71.1 1.4-23.9-0.7-47.2-1.2-71.1-0.9-32.6 1.9-41.8-25.8-48.5-19.7-4.8-39.1-12.7-58.9-17.4-40-9.5-82.7-5.2-122.8-15-6.9-1.7-12.1-3.6-18-8.1 58.2-5.9 114.4-5.2 174.4-5.1 28.6 0.1 58.2 8.1 54.4-36.2-2.8-32.6-3.7-68.1-35.8-66.6-2-4.7-2.5-8.2-2.2-13.3 25.7-1.2 19.9-17.7 19.2-43.1-0.6-23.5 0.8-47.5 1.2-71.1 0.3-20.7 6.2-51.1-10.9-62-15.5-10-49.9 2.4-65.7 5-80.8 13.5-165.7-2.6-247.3 2-76.1 4.4-150.3 8.2-226.7 7.9-93.8-0.2-188-3.1-280.8 16.9-104.6 22.5-204 63.1-310.3 75.7-62.7 7.4-127 6.6-189.2-3-70.1-10.8-141.1-16.4-212-12.8-52.3 2.6-92.7-0.4-143.1-13.7-22.2-5.9-32.9-11.3-48.8 10.4-14.6 20-13.8 40.4-15.2 65.4-0.9 16.7-13.6 58.5-6 74 6.8 13.7 39.4 10.8 54.2 16.4 24.5 9.2 50.9 15.5 75.1 27.1-15.5 18.7-41.1-11.6-56.6-3.8-12 6-12 33.3-19.3 45 17.2 8.8 35.8 18.8 53.4 24.1-3.9 9.1-5.6 22.1-0.4 31.1-16.4 6.8-41.4 7-59 10.3-12.8 2.4-51.5-3.2-61.2 6.8-33.2 34.4 20.5 154.5 22.5 192.9z"/><path class="b" d="m1765.6 861.5c-22.3 0.4-40 1.4-60.8 3.2-39.2 3.6-89.8 13-117.3 25.9-27.9 13.2-42.2 28.9-85.6 34.9-16 2.2-56.3 5.3-25.4 11.2 15.3 2.9 46.5-0.4 63.4-0.1 48.4 1 97.5 3.4 147.3 4.5 27.9 0.6 79.2 0.5 109.7 7.2-2.8-24.7-8.9-45.8-33.9-44.7-2-4.7-2.5-8.2-2.2-13.3 20.9-1 21-11.9 20-29.5-6.4 0.4-12.1 0.6-15.2 0.7z"/><path class="b" d="m231 1225.8c79.6-0.1 154.9 10.6 232.3 17.1 63.7 5.4 126.3 5.2 190.9 5.2 60.1 0.1 117.5-4.8 175.7-10.6 47.9-4.8 96.2-14.2 145-16 83.8-3.1 156.7 18.1 237.7 21.3 59.1 2.4 119.2 0.7 178.2-1.3 62.8-2.1 129.1 2.4 190.3-4.8 49.8-5.9 101.3-4.3 152.1-8 15.3-1.1 35.9-0.9 54.4-1.5 2-11.5 4.7-23 6.7-35-35.4 3.4-79.7 3.6-112.2 4.8-48.9 1.9-98.3 0.1-147.2 1-59.1 1.2-115.4 9.4-174.4 12-28.2 1.3-56.2 4.1-84.2 1.9-24.1-1.9-46.5-6.2-70.6-8.3-59-5.2-111.7-11.8-150.8-32-16.1-8.3-30.9-20.4-60.2-19.2-37.5 1.7-69.2 23.5-96 32.7-106.1 36.4-252.9 2.5-370.6 11.6-67.7 5.2-135.2-2.2-203.4-1-53.1 0.9-106.5 0.1-159.3-1.1-43.3-1-86.5-4.3-129.6-5.1-5.4-0.1-15.7 0.2-27.2 0.4 2.9 12.5 6.4 25.2 9.8 37.3 70.1-2.8 142.1-1.4 212.6-1.4z"/><path class="b" d="m1781.2 776.9c-12.3 0-22.9-0.4-25.6-0.5-42.4-2.8-81.6-3.1-125.1-2.3-60.1 1.2-117.5 4.4-176.3 9.8-32.6 3.1-110.6-2.6-134.9 7.6-15 6.3-10.9 18.1-15.1 26.3-4.6 8.8-14.4 18.7-24.9 26.4-17.6 13-41.8 34.8-74.2 40.9-50.4 9.6-85.9-11.6-126.8-20.1-41.3-8.7-79.9-0.1-119.2 6-57.3 8.8-118.7 13.2-176.9 21.2-65.1 9-136.3 1.8-201.5-3.5-73.1-5.9-145.1-17-211.9-31.7-46.7-10.2-73.3 4.5-119.9 7.7-49.9 3.4-100.4 6.3-152.3 6.5-14.6 0.1-39.8 1.3-65.9 1.7-1 7.7-3.2 18.2-5.1 28.9 47.5-3.1 95.1-5.9 143-9 70.4-4.4 137.9-9.7 205.3 2.5 96.4 17.3 201.2 21.1 304.3 24.2 89.1 2.8 173.3 2.7 257.9-11.5 26.5-4.4 62.2-16.2 90.8-16 52.5 0.5 94.8 25.2 151 26.8 87.6 2.5 167.7-21.8 207.2-52.6 42.8-33.4 101.4-49.9 189.8-58.1 42-3.9 85.8-1.9 128-4.3 25.6-1.4 51.6-1.4 77.6-1.3 0.3-8.5 0.6-17.1 0.7-25.6z"/><path class="b" d="m1763.8 1241.8c-56.9 2.3-114.4 1.1-171.2 4.5-118.5 6.9-242.4 14.5-362.2 4.8-83.2-6.8-166.4-13.3-251.7-10.4-62.6 2.1-115.1 10.8-176.3 16.8-51.1 5-110.6 2.4-163.5 2.4-109.9 0-209.9-9-318.4-14.9-84.8-4.7-168.8-9.4-254.3-5.6-13.8 0.6-28.6 2-43.5 3q3 10.3 5.4 19.5c38.8-1.2 81.9-2.8 121.4-2 87.7 1.6 181.9 9.4 267 19.5 62.7 7.4 140.2 12.6 205.1 11.2 33.5-0.8 66.7-1.7 99.1-5.1 16.3-1.7 45.4-7.8 61.5-3.5 59.6 15.9-59.5 28.4-77.4 30.9-61.4 8.5-121.3 20.1-184.1 27.2-39.6 4.4-79.8 3.6-120.2 5.1-55.1 2-110.8 5.1-166.2 6.1-70.2 1.4-135.9-2.8-200.7-11 0 4.9 0.2 9.7 0.5 14.4 77.7 1.3 200.2 12.4 214.1 14 74.8 8.6 161 15.5 239.3 13.8 87.8-1.8 160.8-14 234.9-33.3 44.6-11.6 83.4-26.8 130.9-36.4 49.5-10 103.4-15.3 157-19.6 106.7-8.7 223.5-6.4 331.2-3.2 106.7 3.1 211.2 12 317.6 15.7 44.2 1.6 83.4-4 125.7-6.4 0.9-15-1.3-34.3 0.7-56.6q0.1-1.6 0.3-3.1c-10.2 1.2-18.8 2-22 2.2z"/><path class="b" d="m1779.2 1377.5c-75-8.1-147.8-18.3-224.7-21.6-144.5-6.2-292.3 4.5-436.2 7.4-63.2 1.2-130.5 8-189.2 18.1-38.1 6.6-76.9 10.9-116.2 17-30.7 4.8-79.3 12.8-105.5 21.1-5.4 1.7-9.9 3.4-14 5.1 47.1 2.1 93.8 8.3 140.8 11.8 58.6 4.3 118.7-8.3 177.8-8.1 152.6 0.4 309.9 2.8 460.5-22.1 56.5-9.4 116.2-12.6 173-16 35-2.1 83.7 16.2 116.6 0.5 9.9-4.7 15.1-9.1 17.1-13.2z"/><path class="b" d="m13.6 1097.2c38 2.9 75.9 5.2 113.7 8.1 41 3 80.3 9.1 122.2 9.6 46.7 0.5 94.8-2.4 141.5-3.3 51-0.9 101.4 1.3 151.8-3.1 40-3.5 77.5-11.5 119-10.7 58 1.2 102.2 9.6 161.2 2.2 69.5-8.8 111.4-27.2 166-45.7 35.3-11.9 68.1-21.6 114-18.3 51.6 3.8 91.3 20.7 136.3 31.4 79.9 19.1 153.5 10.6 237.2-0.5 41.8-5.6 84.8-11.5 127.4-16 31.6-3.3 63.9-1.4 96-4 16.4-1.3 32.2-1.4 47.9-1.3-12.3-3.9-24.6-8-36.9-11-40.1-9.5-82.7-5.2-122.8-15-6.9-1.7-12.1-3.6-18-8.1 58.2-5.9 114.4-5.2 174.3-5.1 26 0.1 52.7 6.7 54.7-25-8.3-0.8-16.2-1.7-20.7-1.9-35.4-1.7-75.5-2.4-111.7-1.1-34.2 1.3-67.7 7.1-101.4 9.4-35.4 2.4-71 3.4-106.6 5.5-120.9 7.1-228.3-0.2-341.7-17.3-53.8-8.1-112.5-15.3-167.9-7.2-46.8 6.8-88.9 20-137.9 26.5-110.9 14.6-226.5 20.4-344.1 22.8-80.9 1.7-161.9-1.3-243.5-1.3-35.3 0-71.1 0.6-105.9-0.8-8.4-0.4-20.8-0.6-34.5-1.1-1.2 4.5-2.6 8.7-4.6 11.7 17.2 8.8 35.8 18.8 53.4 24.1-3.9 9.1-5.5 22.1-0.3 31.1-16.4 6.8-41.4 7-59.1 10.3-11.9 2.3-46.7-2.6-59 5.1z"/><path class="b" d="m6.1 1175.7c42-0.8 84.6 0 126.7 0 146.3 0 291.1 7.2 436.8 2.1 52.6-1.9 111-4.6 163.8-2.2 40.4 1.8 64.4 13.8 102.4 3.7 53.3-14.3 84.4-39.7 145.5-49.8 43.3-7.1 59.5 2.3 89.8 15.4 55.8 24.2 119.8 48.2 205 46.8 80.3-1.4 160.6-2 241-3.2 35.7-0.6 69.2-4.3 103.8-7.5 34.9-3.3 67-2.8 102.4-3.2 25.4-0.3 49-3 73.3-4.8q0.1-0.7 0.1-1.4c1.5-23.9-0.6-47.2-1.2-71.1-0.7-27.7 1.2-38.5-15.1-45.2-6.6-0.1-12-0.2-14.8-0.1-94.9 1.3-186 12.8-277 24.8-90.3 11.8-159 16-247.9 0.5-40.2-7-76.8-17.9-114.2-27.7-42.7-11.1-70.2-8.6-111.7 3.7-66.1 19.6-107.3 51.6-195.2 55.2-51 2.1-98.2-2.5-147.1-5.6-45.2-2.8-87.5 7.6-131.9 9.9-117.7 6-232 7.5-350.6 5.3-64.1-1.2-117.5-8.6-179.4-14.1-1.2-0.1-2.8-0.2-4.6-0.3-8 16-6.1 41.4-0.6 68.8q0.4 0 0.7 0z"/><path class="b" d="m273 1426.2c65.2-2.1 129.7-5.3 194.8-5.2 53.5 0.2 107.4 0.3 161.2 1.5 5.5-3.2 12.1-6.4 18.3-9.1 65-28.2 187.9-39.8 275.6-48 66.7-6.3 135-11.4 202.9-14.9 117.6-6.1 237.2-9.1 355.2-3.2 74.5 3.7 148.6 6.8 223.1 9.3 12 0.4 38.6 2.7 66.5 4.4-14.3-9.6-39.2-16.6-36.2-21.7l7.2-5.7c22.1-0.1 33.1-5.4 38.5-14.8-29.7 2.2-61.5 2.9-70.8 2.9-67.7 0-133.1-4.7-199.8-7.5-72.9-2.9-147.6-1.5-220.6-4.2-47.2-1.8-98.9-0.6-144.5-5.6-64.3-7-132.7-4.9-194.3 6.6-141.3 26.4-258.9 81.8-419 84.3-95.7 1.4-189.7-3.7-285.1-8.8-60.5-3.2-118.8-11.3-179.1-15.5-9.6-0.7-20.1-1-30.7-1.3 2.9 13.4 9 23.6 21.1 26.9 33.9 9.1 72.9-6.6 123.6 7 0.1 5.3-0.6 8.4-2.7 13.3-15.3 1-31.3-0.3-46.7 1-6.2 2.2-4 15 1.7 17 38.5 13.4 95.5-7.3 139.8-8.7z"/><path class="b" d="m129.8 1328.1c64.5-0.1 128.7 2.3 193.3 1.1 60-1.1 120.5-8.1 179-13.9 20.6-2 109-6 114.3-11.5-17.7-3.5-41.5-2.7-60.6-3.2-24-0.6-45.2-2.5-68.5-4.2-51.2-3.8-100.4-8.1-151.5-12.2-70.1-5.7-145-8-216.9-9.4-10.3-0.2-48.9 0.6-87.4 0.9 1.3 6.2 2.2 11.7 2.5 16.1 0.4 9 0.1 19.4-0.2 30 37.2 2 76.9 6.3 96 6.3z"/><path fill-rule="evenodd" class="b" d="m31.7 858.6c1-20.9 2-38.6 14.8-56.1 15.9-21.7 26.5-16.3 48.7-10.4 50.5 13.3 90.8 16.3 143.1 13.7 70.9-3.6 142 2 212 12.8 62.2 9.6 126.6 10.4 189.3 3 106.3-12.6 205.7-53.2 310.3-75.7 92.7-20 187-17.1 280.8-16.9 76.3 0.3 150.6-3.5 226.7-7.9 81.5-4.6 166.5 11.5 247.2-2 15.9-2.6 50.2-15 65.8-5 15.1 9.7 12.2 34.7 11.1 54.6-23 0.1-46.2 0.3-69.1 0-48.2-0.8-96.1-5.8-144.5-2.3-57 4.2-113.6 9.1-171.9 9.9-56.8 0.8-116.4 0.1-137.6 27.3-14.4 18.4-2.8 42.1-32.9 58-24.3 12.9-67.6 13.5-97 4.4-23.5-7.3-38.4-25.3-73-24-28.5 1.1-69.5 9.6-96.4 14-176.8 28.7-391.4 28-564.9-6.5-31.7-6.4-61.6-8.6-96.4-5.6-35.4 3.1-62.5 12.3-99.6 13.1-56.2 1.3-111.4-0.3-166.5 1.6zm1158.2-46.3l5.1-6.5c-6.9-18-48-32-86.3-36-42.2-4.6-81.4-1.3-61.4 20.7 9.8 10.7 39.7 28.9 64.6 34.7 23.7 5.4 87.4 4.5 78-12.9z"/><path class="b" d="m112 1001.9c122.9 6.1 251.4 4.7 375.2 2.1 86.5-1.8 173.9-5.6 255.7-18.1 84.3-13 156.8-29.5 248.6-33 64.8-2.5 130.4-0.9 190.9 9.8 34.9 6.2 65.6 14.2 103.9 16.8 45.6 3.1 93.6 0.5 139.4-0.3 45.5-0.7 93.6 1.2 139-0.7 37.5-1.6 74.3-8.1 111.5-10.5 25.7-1.6 52.6-1.8 78.9-1.3 16.3 0.3 30 2.4 43.8 4.1q0-0.3 0-0.6c-0.3-3.7-0.6-7.5-1-11.3-23.9 3.5-62.4 0.4-82.4-0.4-42.6-1.8-83.9-7.7-126.8-8.7-34-0.9-68.5 0.4-102 1.1-19.7 0.4-57.1 2.7-73.6-3-44.6-15.6 65.7-30.9 86.3-35.2 59.3-12.6 95.5-36.6 159.7-46.7 41-6.4 81.7-11.6 121.2-13q-0.1-2.8-0.2-5.8c-0.3-9.6-0.2-19.3 0-29-38.6 1.4-89.1-0.2-102.6 0.3-55.5 2.2-108 11.1-157.9 21.6-42.9 9-53.8 26.9-78.6 43.4-36.3 24.2-97.5 39-162.3 46.1-40.6 4.5-94.4 2.7-134.4-1.2-45.7-4.5-95.6-21.6-139.6-12.1-46.3 10-87.8 12.8-141.3 14.1-62.1 1.6-122.5 8.9-185.2 9.6-78.5 1-151.5-1.7-227-9.8-27.3-3-53.3-6.9-77.2-13-18.8-4.8-33.2-11.8-53.5-15.3-21.7-3.6-45.7-2.3-69-2.4-71.2-0.1-153.2 12.7-227.6 13.4-1.5 11.7-1.8 22.6 1.4 29 6.7 13.7 39.3 10.8 54.1 16.4 24.5 9.2 51 15.5 75.1 27.1-15.4 18.7-41-11.6-56.6-3.8-5.6 2.8-8.6 10.3-10.9 18.7 9.3 0.6 18 1.2 25 1.6z"/><g style="opacity:.5"><path class="c" d="m1759.9 1371.2c-2.8-0.2-5.6-0.5-7.5-0.7q4 0.6 7.5 0.7z"/><path class="c" d="m1762.6 903.6c-2-4.7-2.5-8.2-2.2-13.3 25.8-1.2 20-17.7 19.3-43.1-0.7-23.5 0.7-47.5 1.1-71.1 0.3-15.2 3.5-35.5-1.5-49.7-21.3 31.3-20.4 89.8-23.3 115.2-6.1 52.3 8.2 88.8 19.6 140-50.6 2.5-197.9-15.6-216.8 29.9q8.4-0.3 17-0.6c56-5.3 110.4-4.6 168.2-4.5 28.7 0.1 58.3 8.1 54.5-36.2-2.8-32.6-3.8-68.1-35.9-66.6z"/><path class="c" d="m1472.1 1406.2c56.5-9.4 116.2-12.6 173-16 35-2.1 83.7 16.2 116.6 0.5 18.5-8.9 20.7-16.5 15.8-23.2-4.3 2.7-10.3 3.9-17.6 3.7 4.1 0.3 8.4 0.5 10.9 0.2-65.9 18-90.1-6.1-213.8 3.4-89.7 6.9-208 19.2-296.5 23.8-166.8 8.9-351.4 19.1-519.1-2.5-81-10.4-142.8-8.7-226.9-7.8-84.4 1-177 14.3-259.4 15.5 24.8-47.6-79.2-28.6-118.3-29-34.7-0.3-65.2 4.8-102.1-10.8 2.4 16.2 8.4 28.9 22.2 32.6 33.9 9.1 72.9-6.6 123.6 7 0.1 5.3-0.6 8.4-2.7 13.3-15.4 1-31.3-0.3-46.7 1-6.2 2.2-4 15 1.6 17 38.6 13.4 95.6-7.3 139.9-8.7 65.2-2.1 129.7-5.3 194.8-5.2 74.3 0.2 149.5 0.3 224 3.5 47.7 2 94.9 8.4 142.4 11.9 58.5 4.3 118.7-8.3 177.8-8.1 152.6 0.4 309.9 2.8 460.5-22.1z"/><path class="c" d="m1795.1 1100.5c-0.8-31 1.7-40.8-21.8-47.5-7.1 11-9.9 114.3-12.3 134.1-5.5 45.6 5.3 92.5 4.3 135.8-13.7-1.1-30.9 3.3-44.3 1.5 2.7 7.6 7.1 12.4 12.8 15.5q0-0.3 0.2-0.6l7.2-5.7c58.7-0.3 39-37 43.9-90.9 2.1-23.5 9.7-46 11.2-71.1 1.5-23.9-0.6-47.2-1.2-71.1z"/></g><path fill-rule="evenodd" class="d" d="m193.6 894.4c-16.2 0-29.3-13.1-29.3-29.3 0-16.2 13.1-29.3 29.3-29.3 16.3 0 29.4 13.1 29.4 29.3 0 16.2-13.1 29.3-29.4 29.3z"/><path class="e" d="m215.5 722.5q-0.1 0.2-0.1 0.3c0 0.2 0 0.1 0.1-0.3z"/><path class="e" d="m183.4 741.9q0.1 0.1 0.2 0.1c0 0.2-0.1 0.1-0.2-0.1z"/><path fill-rule="evenodd" class="d" d="m1659.3 823c-16.2 0-29.3-13.1-29.3-29.4 0-16.2 13.1-29.3 29.3-29.3 16.2 0 29.3 13.1 29.3 29.3 0 16.3-13.1 29.4-29.3 29.4z"/><path class="e" d="m1681.1 664.9q0 0.1-0.1 0.2c0.1 0.2 0.1 0 0.1-0.2z"/><path class="e" d="m1725.5 602.9c-6.6 0.5-35.7 17.6-53.3 37.3-4.9 5.5 0 17.1-5.4 21.8l13.4 1.1c-0.1 0.2-0.1 0.5-0.1 0.8 4.1-9.3 17.5-17.5 24.7-24.1 7.5-6.9 18.6-7.6 31.4-18.3 6.9-11.2-3.2-19.2-10.7-18.6z"/><path class="e" d="m1649.1 682.4q0.1 0 0.1 0.1c0 0.2 0 0.1-0.1-0.1z"/><path class="e" d="m1583.4 643.9c6.3-2.1 39.8 2.3 63.7 13.5 6.6 3.2 6.7 15.8 13.5 18.1l-11.9 6.2c0.1 0.1 0.3 0.4 0.4 0.7-7.4-7.1-23-9.3-32.2-12.6-9.6-3.4-20 0.3-36-4.5-10.8-7.6-4.6-19 2.5-21.4z"/><path class="e" d="m1674.1 781.8c0 9.7-5.7 17.4-12.8 17.4h-4.3c-7 0-12.8-7.7-12.8-17.4v-383.7c0-9.7 5.8-17.5 12.8-17.5h4.3c7.1 0 12.8 7.8 12.8 17.5z"/><path class="e" d="m1674.1 401.8c0 9.7-5.7 17.4-12.8 17.4h-4.3c-7 0-12.8-7.7-12.8-17.4v-383.7c0-9.7 5.8-17.5 12.8-17.5h4.3c7.1 0 12.8 7.8 12.8 17.5z"/><path class="f" d="m1655.5 438c6.7-5.7 13.3-12.3 17.3-21.7 1.8-4.1-2.8-7.7-4.6-3.7-3.5 8.4-9.5 14.1-15.4 19.1-2.9 2.5-0.2 8.8 2.7 6.3z"/><path class="f" d="m1655.5 466.1c5.7-5.5 11.4-10.8 15.2-18.8 1.9-3.8-2.7-7.5-4.6-3.6-3.3 6.9-8.4 11.4-13.3 16.1-2.7 2.8-0.1 9 2.7 6.3z"/><path class="f" d="m1656.2 498.1c5.7-4.6 10.6-10.6 14.5-17.8 2.1-3.8-2.6-7.4-4.6-3.7-3.3 6.3-7.7 11.3-12.5 15.1-3 2.5-0.3 8.8 2.6 6.4z"/><path class="f" d="m1655.5 528.1c6.3-5.3 12.2-10.9 15.9-19.7 1.8-4.1-2.9-7.7-4.6-3.7-3.3 7.8-8.5 12.5-14 17.2-2.9 2.4-0.2 8.7 2.7 6.2z"/><path class="f" d="m1655.5 558.1c6.3-4.3 11.4-10.6 15.2-18.6 1.9-4-2.7-7.7-4.6-3.7-3.3 6.9-7.8 12.3-13.3 16.1-3 2.2-0.3 8.4 2.7 6.2z"/><path class="f" d="m1656.2 588.3c5.2-4.8 10.1-10 13.8-16.9 2-3.7-2.6-7.4-4.6-3.7-3.2 5.9-7.5 10.2-11.8 14.3-2.9 2.6-0.2 8.9 2.6 6.3z"/><path class="f" d="m1658.2 617.7c4.5-6.1 9.3-11.8 13.5-18.4 2.3-3.5-1.5-8.7-3.8-5.2-4.1 6.6-8.9 12.3-13.5 18.5-2.4 3.2 1.4 8.4 3.8 5.1z"/><path class="f" d="m1658.4 645.4c5.2-3.8 9.1-10.3 12.3-16.8 1.9-3.9-2.7-7.6-4.6-3.6-2.7 5.4-6 11-10.4 14.1-3.1 2.2-0.4 8.5 2.7 6.3z"/><path class="f" d="m1659.1 674.5c5.4-3.4 8.9-10 12.6-16.1 2.2-3.6-1.6-8.8-3.8-5.1-3.3 5.5-6.5 11.8-11.5 14.9-3.1 1.9-0.4 8.2 2.7 6.3z"/><path class="f" d="m1658.2 702c4.7-5.3 8.9-11.3 12.5-18.1 2-3.8-2.6-7.5-4.6-3.7-3.3 6.3-7.3 11.7-11.7 16.6-2.6 3.2 1.2 8.2 3.8 5.2z"/><path class="f" d="m1656.3 728.2c7.1 2.4 12-10.8 15.1-17.2 1.9-3.9-2.7-7.6-4.6-3.7-1.4 3-2.8 6.2-4.5 8.9-0.8 1.5-2.9 5.6-4.6 4.9-3.3-1.1-4.7 5.9-1.4 7.1z"/><path class="f" d="m1659.8 761.7c4.8-3.5 7.5-9.9 11.2-15.1 2.4-3.3-1.4-8.5-3.8-5.2-3.3 4.7-5.8 10.9-10.1 14.1-3 2.1-0.3 8.4 2.7 6.2z"/><path class="f" d="m1660.5 787.9c4-2.3 6.9-6.4 9.5-11 0.9-1.5 0.2-4.1-1-4.9-1.3-1.1-2.7-0.3-3.6 1.2-2 3.7-4.5 6.7-7.6 8.4-1.3 0.7-1.6 3.5-0.9 5 0.8 1.9 2.3 2 3.6 1.3z"/><path class="f" d="m1655.4 412.2c4.3-6 8.2-12.4 11.8-19.2 2-3.8-2.7-7.4-4.6-3.7-3.4 6.3-7 12.3-11 17.8-2.4 3.4 1.3 8.4 3.8 5.1z"/><path class="f" d="m1655.5 28c6.7-5.7 13.3-12.3 17.3-21.7 1.8-4.1-2.8-7.7-4.6-3.7-3.5 8.4-9.5 14.1-15.4 19.1-2.9 2.5-0.2 8.8 2.7 6.3z"/><path class="f" d="m1655.5 56.1c5.7-5.5 11.4-10.8 15.2-18.8 1.9-3.8-2.7-7.5-4.6-3.6-3.3 6.9-8.4 11.4-13.3 16.1-2.7 2.8-0.1 9 2.7 6.3z"/><path class="f" d="m1656.2 88.1c5.7-4.6 10.6-10.6 14.5-17.8 2.1-3.8-2.6-7.4-4.6-3.7-3.3 6.3-7.7 11.3-12.5 15.1-3 2.5-0.3 8.8 2.6 6.4z"/><path class="f" d="m1655.5 118.1c6.3-5.3 12.2-10.9 15.9-19.7 1.8-4.1-2.9-7.7-4.6-3.7-3.3 7.8-8.5 12.5-14 17.2-2.9 2.4-0.2 8.7 2.7 6.2z"/><path class="f" d="m1655.5 148.1c6.3-4.3 11.4-10.6 15.2-18.6 1.9-4-2.7-7.7-4.6-3.7-3.3 6.9-7.8 12.3-13.3 16.1-3 2.2-0.3 8.4 2.7 6.2z"/><path class="f" d="m1656.2 178.3c5.2-4.8 10.1-10 13.8-16.9 2-3.7-2.6-7.4-4.6-3.7-3.2 5.9-7.5 10.2-11.8 14.3-2.9 2.6-0.2 8.9 2.6 6.3z"/><path class="f" d="m1658.2 207.7c4.5-6.1 9.3-11.8 13.5-18.4 2.3-3.5-1.5-8.7-3.8-5.2-4.1 6.6-8.9 12.3-13.5 18.5-2.4 3.2 1.4 8.4 3.8 5.1z"/><path class="f" d="m1658.4 235.4c5.2-3.8 9.1-10.3 12.3-16.8 1.9-3.9-2.7-7.6-4.6-3.6-2.7 5.4-6 11-10.4 14.1-3.1 2.2-0.4 8.5 2.7 6.3z"/><path class="f" d="m1659.1 264.5c5.4-3.4 8.9-10 12.6-16.1 2.2-3.6-1.6-8.8-3.8-5.1-3.3 5.5-6.5 11.8-11.5 14.9-3.1 1.9-0.4 8.2 2.7 6.3z"/><path class="f" d="m1658.2 292c4.7-5.3 8.9-11.3 12.5-18.1 2-3.8-2.6-7.5-4.6-3.7-3.3 6.3-7.3 11.7-11.7 16.6-2.6 3.2 1.2 8.2 3.8 5.2z"/><path class="f" d="m1656.3 318.2c7.1 2.4 12-10.8 15.1-17.2 1.9-3.9-2.7-7.6-4.6-3.7-1.4 3-2.8 6.2-4.5 8.9-0.8 1.5-2.9 5.6-4.6 4.9-3.3-1.1-4.7 5.9-1.4 7.1z"/><path class="f" d="m1659.8 351.7c4.8-3.5 7.5-9.9 11.2-15.1 2.4-3.3-1.4-8.5-3.8-5.2-3.3 4.7-5.8 10.9-10.1 14.1-3 2.1-0.3 8.4 2.7 6.2z"/><path class="f" d="m1660.5 377.9c4-2.3 6.9-6.4 9.5-11 0.9-1.5 0.2-4.1-1-4.9-1.3-1.1-2.7-0.3-3.6 1.2-2 3.7-4.5 6.7-7.6 8.4-1.3 0.7-1.6 3.5-0.9 5 0.8 1.9 2.3 2 3.6 1.3z"/><path class="e" d="m1682.8 658.2c-6.6-1.6-14.2 0.3-20.3 3.1-2.9 1.4-5.5 2.9-8 5.1-1.7 1.5-5.1 4.5-4.8 4.6l-3.2 0.6c-6.9-0.4-18.7 6-20.2 12.8-2 8.8 3.3 18.3 11.7 21.4 8.1 3 19.1-0.8 27.2-2.4 9.9-1.9 17.1-6.1 22.5-14.8 5.8-9.4 9.2-26.9-4.9-30.4z"/><path class="g" d="m1690.8 663.2c-5.5 2.4-10.7 9.5-14.4 12.5-9.6 7.9-20.7 13.3-32.7 17.2-4.9 1.6-10.6 2.9-15.8 3.2 2.1 4.1 5.7 7.6 10.1 9.2 8.1 3 19.1-0.8 27.2-2.4 9.9-1.9 17.1-6.1 22.5-14.8 4.2-6.9 7.2-18 3.1-24.9z"/><path class="f" d="m1680.8 657.5c4-5.6 6.5-12.3 8.3-18.8 0.9-3.3-4.2-4.7-5.2-1.4-1.7 6.1-4 12.3-7.7 17.5-2 2.8 2.6 5.4 4.6 2.7z"/><path class="f" d="m1697.3 646.3c3-4.9 4.7-10.3 7-15.5 1.3-3.1-3.3-5.8-4.6-2.7-2.3 5.2-4 10.6-7 15.5-1.7 2.9 2.9 5.6 4.6 2.7z"/><path class="f" d="m1715.5 633.5c2.7-5.1 4.9-10.5 6.1-16.1 0.7-3.4-4.4-4.8-5.1-1.5-1.1 5.3-3.1 10.2-5.6 14.9-1.7 3 2.9 5.7 4.6 2.7z"/><path class="f" d="m1729.3 627.1c1.7-3.9 3.2-7.9 4.8-11.8 1.4-3.1-3.2-5.8-4.6-2.7-1.6 3.9-3.1 7.9-4.8 11.8-1.3 3.1 3.3 5.8 4.6 2.7z"/><path class="f" d="m1587 663.3c-2.2-3.8-3.9-7.8-4.6-12.2-0.5-3.4-5.6-1.9-5.1 1.5 0.7 4.7 2.7 9.2 5 13.4 1.7 3 6.3 0.3 4.7-2.7z"/><path class="f" d="m1598.7 662.8c-2.1-3.2-3.9-6.3-4.5-10.1-0.6-3.4-5.8-1.9-5.2 1.5 0.7 4.1 2.8 7.8 5.1 11.3 1.9 2.8 6.5 0.1 4.6-2.7z"/><path class="f" d="m1615.3 664.4c-3.7-3.3-8.2-6.7-8.8-12-0.4-3.4-5.7-3.4-5.3 0 0.8 7 5.3 11.3 10.4 15.7 2.5 2.3 6.3-1.5 3.7-3.7z"/><path class="f" d="m1632.1 671.6c-0.1-4.5-2-8.3-3.3-12.5-1-3.2-6.1-1.9-5.1 1.4 1.1 3.7 3 7.2 3.1 11.1 0.1 3.4 5.4 3.4 5.3 0z"/><path class="f" d="m1643.8 670.9c-1.2-3.4-2.1-6.8-3.2-10.2-1.1-3.2-6.3-1.8-5.2 1.4 1.1 3.4 2.1 6.8 3.2 10.2 1.1 3.2 6.2 1.8 5.2-1.4z"/><path class="e" d="m215.1 731.9q0 0.1-0.1 0.2c0.1 0.2 0.1 0 0.1-0.2z"/><path class="e" d="m259.5 669.9c-6.6 0.5-35.7 17.6-53.3 37.3-4.9 5.5 0 17.1-5.4 21.8l13.4 1.1c-0.1 0.2-0.1 0.5-0.1 0.8 4.1-9.3 17.5-17.5 24.7-24.1 7.5-6.9 18.6-7.6 31.4-18.3 6.9-11.2-3.2-19.2-10.7-18.6z"/><path class="e" d="m183.1 749.4q0.1 0 0.1 0.1c0 0.2 0 0.1-0.1-0.1z"/><path class="e" d="m117.4 710.9c6.3-2.1 39.8 2.3 63.7 13.5 6.6 3.2 6.7 15.8 13.5 18.1l-11.9 6.2c0.1 0.1 0.3 0.4 0.4 0.7-7.4-7.1-23-9.3-32.2-12.6-9.6-3.4-20 0.3-36-4.5-10.8-7.6-4.6-19 2.5-21.4z"/><path class="e" d="m208.1 848.8c0 9.7-5.7 17.4-12.8 17.4h-4.3c-7 0-12.8-7.7-12.8-17.4v-383.7c0-9.7 5.8-17.5 12.8-17.5h4.3c7.1 0 12.8 7.8 12.8 17.5z"/><path class="e" d="m208.1 468.8c0 9.7-5.7 17.4-12.8 17.4h-4.3c-7 0-12.8-7.7-12.8-17.4v-383.7c0-9.7 5.8-17.5 12.8-17.5h4.3c7.1 0 12.8 7.8 12.8 17.5z"/><path class="f" d="m189.5 505c6.7-5.7 13.3-12.3 17.3-21.7 1.8-4.1-2.8-7.7-4.6-3.7-3.5 8.4-9.5 14.1-15.4 19.1-2.9 2.5-0.2 8.8 2.7 6.3z"/><path class="f" d="m189.5 533.1c5.7-5.5 11.4-10.8 15.2-18.8 1.9-3.8-2.7-7.5-4.6-3.6-3.3 6.9-8.4 11.4-13.3 16.1-2.7 2.8-0.1 9 2.7 6.3z"/><path class="f" d="m190.2 565.1c5.7-4.6 10.6-10.6 14.5-17.8 2.1-3.8-2.6-7.4-4.6-3.7-3.3 6.3-7.7 11.3-12.5 15.1-3 2.5-0.3 8.8 2.6 6.4z"/><path class="f" d="m189.5 595.1c6.3-5.3 12.2-10.9 15.9-19.7 1.8-4.1-2.9-7.7-4.6-3.7-3.3 7.8-8.5 12.5-14 17.2-2.9 2.4-0.2 8.7 2.7 6.2z"/><path class="f" d="m189.5 625.1c6.3-4.3 11.4-10.6 15.2-18.6 1.9-4-2.7-7.7-4.6-3.7-3.3 6.9-7.8 12.3-13.3 16.1-3 2.2-0.3 8.4 2.7 6.2z"/><path class="f" d="m190.2 655.3c5.2-4.8 10.1-10 13.8-16.9 2-3.7-2.6-7.4-4.6-3.7-3.2 5.9-7.5 10.2-11.8 14.3-2.9 2.6-0.2 8.9 2.6 6.3z"/><path class="f" d="m192.2 684.7c4.5-6.1 9.3-11.8 13.5-18.4 2.3-3.5-1.5-8.7-3.8-5.2-4.1 6.6-8.9 12.3-13.5 18.5-2.4 3.2 1.4 8.4 3.8 5.1z"/><path class="f" d="m192.4 712.4c5.2-3.8 9.1-10.3 12.3-16.8 1.9-3.9-2.7-7.6-4.6-3.6-2.7 5.4-6 11-10.4 14.1-3.1 2.2-0.4 8.5 2.7 6.3z"/><path class="f" d="m193.1 741.5c5.4-3.4 8.9-10 12.6-16.1 2.2-3.6-1.6-8.8-3.8-5.1-3.3 5.5-6.5 11.8-11.5 14.9-3.1 1.9-0.4 8.2 2.7 6.3z"/><path class="f" d="m192.2 769c4.7-5.3 8.9-11.3 12.5-18.1 2-3.8-2.6-7.5-4.6-3.7-3.3 6.3-7.3 11.7-11.7 16.6-2.6 3.2 1.2 8.2 3.8 5.2z"/><path class="f" d="m190.3 795.2c7.1 2.4 12-10.8 15.1-17.2 1.9-3.9-2.7-7.6-4.6-3.7-1.4 3-2.8 6.2-4.5 8.9-0.8 1.5-2.9 5.6-4.6 4.9-3.3-1.1-4.7 5.9-1.4 7.1z"/><path class="f" d="m193.8 828.7c4.8-3.5 7.5-9.9 11.2-15.1 2.4-3.3-1.4-8.5-3.8-5.2-3.3 4.7-5.8 10.9-10.1 14.1-3 2.1-0.3 8.4 2.7 6.2z"/><path class="f" d="m194.5 854.9c4-2.3 6.9-6.4 9.5-11 0.9-1.5 0.2-4.1-1-4.9-1.3-1.1-2.7-0.3-3.6 1.2-2 3.7-4.5 6.7-7.6 8.4-1.3 0.7-1.6 3.5-0.9 5 0.8 1.9 2.3 2 3.6 1.3z"/><path class="f" d="m189.4 479.2c4.3-6 8.2-12.4 11.8-19.2 2-3.8-2.7-7.4-4.6-3.7-3.4 6.3-7 12.3-11 17.8-2.4 3.4 1.3 8.4 3.8 5.1z"/><path class="f" d="m189.5 95c6.7-5.7 13.3-12.3 17.3-21.7 1.8-4.1-2.8-7.7-4.6-3.7-3.5 8.4-9.5 14.1-15.4 19.1-2.9 2.5-0.2 8.8 2.7 6.3z"/><path class="f" d="m189.5 123.1c5.7-5.5 11.4-10.8 15.2-18.8 1.9-3.8-2.7-7.5-4.6-3.6-3.3 6.9-8.4 11.4-13.3 16.1-2.7 2.8-0.1 9 2.7 6.3z"/><path class="f" d="m190.2 155.1c5.7-4.6 10.6-10.6 14.5-17.8 2.1-3.8-2.6-7.4-4.6-3.7-3.3 6.3-7.7 11.3-12.5 15.1-3 2.5-0.3 8.8 2.6 6.4z"/><path class="f" d="m189.5 185.1c6.3-5.3 12.2-10.9 15.9-19.7 1.8-4.1-2.9-7.7-4.6-3.7-3.3 7.8-8.5 12.5-14 17.2-2.9 2.4-0.2 8.7 2.7 6.2z"/><path class="f" d="m189.5 215.1c6.3-4.3 11.4-10.6 15.2-18.6 1.9-4-2.7-7.7-4.6-3.7-3.3 6.9-7.8 12.3-13.3 16.1-3 2.2-0.3 8.4 2.7 6.2z"/><path class="f" d="m190.2 245.3c5.2-4.8 10.1-10 13.8-16.9 2-3.7-2.6-7.4-4.6-3.7-3.2 5.9-7.5 10.2-11.8 14.3-2.9 2.6-0.2 8.9 2.6 6.3z"/><path class="f" d="m192.2 274.7c4.5-6.1 9.3-11.8 13.5-18.4 2.3-3.5-1.5-8.7-3.8-5.2-4.1 6.6-8.9 12.3-13.5 18.5-2.4 3.2 1.4 8.4 3.8 5.1z"/><path class="f" d="m192.4 302.4c5.2-3.8 9.1-10.3 12.3-16.8 1.9-3.9-2.7-7.6-4.6-3.6-2.7 5.4-6 11-10.4 14.1-3.1 2.2-0.4 8.5 2.7 6.3z"/><path class="f" d="m193.1 331.5c5.4-3.4 8.9-10 12.6-16.1 2.2-3.6-1.6-8.8-3.8-5.1-3.3 5.5-6.5 11.8-11.5 14.9-3.1 1.9-0.4 8.2 2.7 6.3z"/><path class="f" d="m192.2 359c4.7-5.3 8.9-11.3 12.5-18.1 2-3.8-2.6-7.5-4.6-3.7-3.3 6.3-7.3 11.7-11.7 16.6-2.6 3.2 1.2 8.2 3.8 5.2z"/><path class="f" d="m190.3 385.2c7.1 2.4 12-10.8 15.1-17.2 1.9-3.9-2.7-7.6-4.6-3.7-1.4 3-2.8 6.2-4.5 8.9-0.8 1.5-2.9 5.6-4.6 4.9-3.3-1.1-4.7 5.9-1.4 7.1z"/><path class="f" d="m193.8 418.7c4.8-3.5 7.5-9.9 11.2-15.1 2.4-3.3-1.4-8.5-3.8-5.2-3.3 4.7-5.8 10.9-10.1 14.1-3 2.1-0.3 8.4 2.7 6.2z"/><path class="f" d="m194.5 444.9c4-2.3 6.9-6.4 9.5-11 0.9-1.5 0.2-4.1-1-4.9-1.3-1.1-2.7-0.3-3.6 1.2-2 3.7-4.5 6.7-7.6 8.4-1.3 0.7-1.6 3.5-0.9 5 0.8 1.9 2.3 2 3.6 1.3z"/><path class="e" d="m216.8 725.2c-6.6-1.6-14.2 0.3-20.3 3.1-2.9 1.4-5.5 2.9-8 5.1-1.7 1.5-5.1 4.5-4.8 4.6l-3.2 0.6c-6.9-0.4-18.7 6-20.2 12.8-2 8.8 3.3 18.3 11.7 21.4 8.1 3 19.1-0.8 27.2-2.4 9.9-1.9 17.1-6.1 22.5-14.8 5.8-9.4 9.2-26.9-4.9-30.4z"/><path class="g" d="m224.8 730.2c-5.5 2.4-10.7 9.5-14.4 12.5-9.6 7.9-20.7 13.3-32.7 17.2-4.9 1.6-10.6 2.9-15.8 3.2 2.1 4.1 5.7 7.6 10.1 9.2 8.1 3 19.1-0.8 27.2-2.4 9.9-1.9 17.1-6.1 22.5-14.8 4.2-6.9 7.2-18 3.1-24.9z"/><path class="f" d="m214.8 724.5c4-5.6 6.5-12.3 8.3-18.8 0.9-3.3-4.2-4.7-5.2-1.4-1.7 6.1-4 12.3-7.7 17.5-2 2.8 2.6 5.4 4.6 2.7z"/><path class="f" d="m231.3 713.3c3-4.9 4.7-10.3 7-15.5 1.3-3.1-3.3-5.8-4.6-2.7-2.3 5.2-4 10.6-7 15.5-1.7 2.9 2.9 5.6 4.6 2.7z"/><path class="f" d="m249.5 700.5c2.7-5.1 4.9-10.5 6.1-16.1 0.7-3.4-4.4-4.8-5.1-1.5-1.1 5.3-3.1 10.2-5.6 14.9-1.7 3 2.9 5.7 4.6 2.7z"/><path class="f" d="m263.3 694.1c1.7-3.9 3.2-7.9 4.8-11.8 1.4-3.1-3.2-5.8-4.6-2.7-1.6 3.9-3.1 7.9-4.8 11.8-1.3 3.1 3.3 5.8 4.6 2.7z"/><path class="f" d="m121 730.3c-2.2-3.8-3.9-7.8-4.6-12.2-0.5-3.4-5.6-1.9-5.1 1.5 0.7 4.7 2.7 9.2 5 13.4 1.7 3 6.3 0.3 4.7-2.7z"/><path class="f" d="m132.7 729.8c-2.1-3.2-3.9-6.3-4.5-10.1-0.6-3.4-5.8-1.9-5.2 1.5 0.7 4.1 2.8 7.8 5.1 11.3 1.9 2.8 6.5 0.1 4.6-2.7z"/><path class="f" d="m149.3 731.4c-3.7-3.3-8.2-6.7-8.8-12-0.4-3.4-5.7-3.4-5.3 0 0.8 7 5.3 11.3 10.4 15.7 2.5 2.3 6.3-1.5 3.7-3.7z"/><path class="f" d="m166.1 738.6c-0.1-4.5-2-8.3-3.3-12.5-1-3.2-6.1-1.9-5.1 1.4 1.1 3.7 3 7.2 3.1 11.1 0.1 3.4 5.4 3.4 5.3 0z"/><path class="f" d="m177.8 737.9c-1.2-3.4-2.1-6.8-3.2-10.2-1.1-3.2-6.3-1.8-5.2 1.4 1.1 3.4 2.1 6.8 3.2 10.2 1.1 3.2 6.2 1.8 5.2-1.4z"/></svg>