<svg version="1.2" xmlns="http://www.w3.org/2000/svg" viewBox="0 0 50 200" width="50" height="200">
	<title>New Project</title>
	<style>
		.s0 { fill: #7c5438 } 
		.s1 { fill: #ce9f38 } 
		.s2 { fill: #e5ae41 } 
		.s3 { opacity: .4;fill: #ce9f38 } 
	</style>
	<g id="Folder 2">
		<path id="&lt;Compound Path&gt; copy 10" fill-rule="evenodd" class="s0" d="m25.5 169.7c-13 0-23.5-10.6-23.5-23.6 0-12.9 10.5-23.5 23.5-23.5 13 0 23.5 10.6 23.5 23.5 0 13-10.5 23.6-23.5 23.6zm0-39.5c-8.8 0-16 7.1-16 15.9 0 8.9 7.2 16 16 16 8.8 0 16-7.1 16-16 0-8.8-7.2-15.9-16-15.9z"/>
		<path id="&lt;Compound Path&gt; copy 11" fill-rule="evenodd" class="s1" d="m25.7 167.2c-11.7 0-21.2-9.6-21.2-21.3 0-11.7 9.5-21.3 21.2-21.3 11.8 0 21.3 9.6 21.3 21.3 0 11.7-9.5 21.3-21.3 21.3zm0-40.1c-10.3 0-18.7 8.5-18.7 18.8 0 10.3 8.4 18.7 18.7 18.7 10.4 0 18.8-8.4 18.8-18.7 0-10.3-8.4-18.8-18.8-18.8z"/>
		<path id="&lt;Path&gt; copy 75" class="s2" d="m17 127.9c-1.1-0.1-2.3-0.1-3.2 0.5l-1.3 0.8c-1.9 2.8-4.7 4.7-6.3 8-0.8 1.7-1.3 3.7-1.5 5.5-0.3 2.2 0.2 5 2.1 2.3 2-2.8 1.7-7.3 3.6-10.3 1.4-2 7-4.5 6.6-6.8z"/>
		<path id="&lt;Path&gt; copy 76" class="s2" d="m45.4 148.6c-1.9-0.5-3.2 7.6-4.7 9.5-2.8 3.5-5.7 4.7-9.8 5.8l-0.8 0.2c-2 0.1-1.7 1.5 0 1.8 1 0.2 2.9-0.7 3.8-1.1 2.2-0.9 4.1-2.3 5.9-3.9 2.9-2.7 7.4-7.9 5.6-12.3z"/>
		<path id="&lt;Path&gt; copy 77" class="s0" d="m31.9 193.6c0 2.7-2.9 4.8-6.5 4.8-3.6 0-6.4-2.1-6.4-4.8v-40.2c0-2.7 2.8-4.8 6.4-4.8 3.6 0 6.5 2.1 6.5 4.8z"/>
		<path id="&lt;Path&gt; copy 78" class="s3" d="m28.2 181.5c0 1.8-1.6 3.3-3.7 3.3-2 0-3.6-1.5-3.6-3.3v-27.5c0-1.8 1.6-3.3 3.6-3.3 2.1 0 3.7 1.5 3.7 3.3z"/>
		<path id="&lt;Path&gt; copy 79" class="s2" d="m24.3 165.7c-0.5-3.8 1.2-7.3 0.7-10.9-0.6-0.2-1.1-0.5-1.6-0.5h-0.3c-2.4 2.4-0.3 8.1-0.4 11.1-0.1 1.7-2.1 9.8 0.9 9.8 2.8 0 0.9-8 0.7-9.5z"/>
		<g id="Folder 3">
			<path id="&lt;Compound Path&gt; copy 12" fill-rule="evenodd" class="s0" d="m25.5 109c-13 0-23.5-10.5-23.5-23.5 0-13 10.5-23.5 23.5-23.5 13 0 23.5 10.5 23.5 23.5 0 13-10.5 23.5-23.5 23.5zm0-39.5c-8.8 0-16 7.2-16 16 0 8.8 7.2 16 16 16 8.8 0 16-7.2 16-16 0-8.8-7.2-16-16-16z"/>
			<path id="&lt;Compound Path&gt; copy 13" fill-rule="evenodd" class="s1" d="m25.7 106.5c-11.7 0-21.2-9.5-21.2-21.3 0-11.7 9.5-21.2 21.2-21.2 11.8 0 21.3 9.5 21.3 21.2 0 11.8-9.5 21.3-21.3 21.3zm0-40c-10.3 0-18.7 8.4-18.7 18.7 0 10.4 8.4 18.8 18.7 18.8 10.4 0 18.8-8.4 18.8-18.8 0-10.3-8.4-18.7-18.8-18.7z"/>
			<path id="&lt;Path&gt; copy 80" class="s2" d="m17 67.3c-1.1-0.2-2.3-0.1-3.2 0.5l-1.3 0.7c-1.9 2.9-4.7 4.7-6.3 8-0.8 1.8-1.3 3.8-1.5 5.6-0.3 2.1 0.2 4.9 2.1 2.3 2-2.9 1.7-7.4 3.6-10.4 1.4-1.9 7-4.5 6.6-6.7z"/>
			<path id="&lt;Path&gt; copy 81" class="s2" d="m45.4 87.9c-1.9-0.4-3.2 7.6-4.7 9.5-2.8 3.6-5.7 4.8-9.8 5.8l-0.8 0.3c-2 0.1-1.7 1.4 0 1.7 1 0.2 2.9-0.7 3.8-1 2.2-0.9 4.1-2.3 5.9-3.9 2.9-2.7 7.4-8 5.6-12.4z"/>
			<path id="&lt;Path&gt; copy 82" class="s0" d="m31.9 133c0 2.6-2.9 4.8-6.5 4.8-3.6 0-6.4-2.2-6.4-4.8v-40.3c0-2.6 2.8-4.8 6.4-4.8 3.6 0 6.5 2.2 6.5 4.8z"/>
			<path id="&lt;Path&gt; copy 83" class="s3" d="m28.2 120.9c0 1.8-1.6 3.2-3.7 3.2-2 0-3.6-1.4-3.6-3.2v-27.6c0-1.8 1.6-3.2 3.6-3.2 2.1 0 3.7 1.4 3.7 3.2z"/>
			<path id="&lt;Path&gt; copy 84" class="s2" d="m24.3 105c-0.5-3.8 1.2-7.3 0.7-10.9-0.6-0.2-1.1-0.5-1.6-0.5h-0.3c-2.4 2.4-0.3 8.1-0.4 11.2-0.1 1.7-2.1 9.7 0.9 9.7 2.8 0 0.9-8 0.7-9.5z"/>
		</g>
		<g id="Folder 3 copy">
			<path id="&lt;Compound Path&gt; copy 12" fill-rule="evenodd" class="s0" d="m25.5 49c-13 0-23.5-10.5-23.5-23.5 0-13 10.5-23.5 23.5-23.5 13 0 23.5 10.5 23.5 23.5 0 13-10.5 23.5-23.5 23.5zm0-39.5c-8.8 0-16 7.2-16 16 0 8.8 7.2 16 16 16 8.8 0 16-7.2 16-16 0-8.8-7.2-16-16-16z"/>
			<path id="&lt;Compound Path&gt; copy 13" fill-rule="evenodd" class="s1" d="m25.7 46.5c-11.7 0-21.2-9.5-21.2-21.3 0-11.7 9.5-21.2 21.2-21.2 11.8 0 21.3 9.5 21.3 21.2 0 11.8-9.5 21.3-21.3 21.3zm0-40c-10.3 0-18.7 8.4-18.7 18.7 0 10.4 8.4 18.8 18.7 18.8 10.4 0 18.8-8.4 18.8-18.8 0-10.3-8.4-18.7-18.8-18.7z"/>
			<path id="&lt;Path&gt; copy 80" class="s2" d="m17 7.3c-1.1-0.2-2.3-0.1-3.2 0.5l-1.3 0.7c-1.9 2.9-4.7 4.7-6.3 8-0.8 1.8-1.3 3.8-1.5 5.6-0.3 2.1 0.2 4.9 2.1 2.3 2-2.9 1.7-7.4 3.6-10.4 1.4-1.9 7-4.5 6.6-6.7z"/>
			<path id="&lt;Path&gt; copy 81" class="s2" d="m45.4 27.9c-1.9-0.4-3.2 7.6-4.7 9.5-2.8 3.6-5.7 4.8-9.8 5.8l-0.8 0.3c-2 0.1-1.7 1.4 0 1.7 1 0.2 2.9-0.7 3.8-1 2.2-0.9 4.1-2.3 5.9-3.9 2.9-2.7 7.4-8 5.6-12.4z"/>
			<path id="&lt;Path&gt; copy 82" class="s0" d="m31.9 73c0 2.6-2.9 4.8-6.5 4.8-3.6 0-6.4-2.2-6.4-4.8v-40.3c0-2.6 2.8-4.8 6.4-4.8 3.6 0 6.5 2.2 6.5 4.8z"/>
			<path id="&lt;Path&gt; copy 83" class="s3" d="m28.2 60.9c0 1.8-1.6 3.2-3.7 3.2-2 0-3.6-1.4-3.6-3.2v-27.6c0-1.8 1.6-3.2 3.6-3.2 2.1 0 3.7 1.4 3.7 3.2z"/>
			<path id="&lt;Path&gt; copy 84" class="s2" d="m24.3 45c-0.5-3.8 1.2-7.3 0.7-10.9-0.6-0.2-1.1-0.5-1.6-0.5h-0.3c-2.4 2.4-0.3 8.1-0.4 11.2-0.1 1.7-2.1 9.7 0.9 9.7 2.8 0 0.9-8 0.7-9.5z"/>
		</g>
	</g>
</svg>