<svg version="1.2" xmlns="http://www.w3.org/2000/svg" viewBox="0 0 1901 1723" width="1901" height="1723">
	<title>New Project</title>
	<style>
		.s0 { fill: #c18156 } 
		.s1 { fill: #da9859 } 
		.s2 { fill: #7c5438 } 
		.s3 { fill: #c68655 } 
		.s4 { fill: #895b3d } 
		.s5 { fill: #c6bc93 } 
		.s6 { fill: #968f71 } 
		.s7 { opacity: .2;fill: #ffdc78 } 
		.s8 { opacity: .5;fill: #968f71 } 
	</style>
	<g id="&lt;Group&gt;">
		<g id="&lt;Group&gt;">
			<path id="&lt;Path&gt;" class="s0" d="m1776 218.4c-102 5.5-205.2 22.5-308.8 20.8-114.4-2-230.7 36.4-346.4 10.9-100-22.1-202.2-59.8-305.4-54-28.2 1.6-56.2 5.9-83 20.7-21.8 11.9-36.8 39.6-60.4 35.6-18.4-3.1-35.5-25.7-54.5-30.4-21.3-5.3-43.7 0.5-65.2-2.4-86.3-11.8-170.3 12.7-255.8 9.5-40.4-1.5-80.1 2-120 0.3-29.3-1.3-93.2-19.4-120 0.3-35.6 26.2-14.9 119-15 170.1-0.1 25.8-7.7 86.9-1.4 109.2 8.5 30.1 31.4 9.8 43.9 25.5-16.6 13.7-34.2 18.3-51.8 27-4.7 19.3-19 82.1-11.5 102.2 8.5 22.8 46.5 11.9 59.3 8.9 55.1-12.8 116.2 3.1 174.1 10 159.9 19 324.1 5.6 485 22.8 69.4 7.4 139.4-4.3 209.4-1.8 87.5 3.3 172.3-27.5 259.4-32 93.1-4.8 184.9-11.1 278.7-9.7 59.6 0.9 121 9.9 182.4 6.7 48.3-2.5 98.3-5 146.1 5.2 15.6 3.3 45.6 24.9 59.3 6 13-18 11.8-76 12.3-102.7 0.5-29.6 1.9-90.1-9.1-108.4-6-9.9-25.3 9.9-26.3-16.2-0.9-26.1 22-8.8 26.7-17.7 8.5-16.2 2.3-73.5-7.5-89.6-11.8-19.4-46.7-15.7-61.8-17.5-11.2-1.4-21.4 1.8-30.8-7.1 20.8-46.1 101.1-6 104.8-61.6 4.5-68.7-83.1-41.8-106.7-40.6z"/>
			<g id="&lt;Group&gt;">
				<path id="&lt;Path&gt;" class="s1" d="m1849.4 646.1c-59.8-5.4-114.7-28.3-174.5-33.4-82.5-7-164.1-13.7-247.1-13.4-88 0.3-176.7-4.2-264.1 1.9-78.9 5.4-154 22.9-232.8 30.7-80.6 8-169.3 7.8-250.2-4.1-97-14.4-192.8-73.6-291.9-46.3-40.3 11.1-76 29.9-117.7 38.3-38.3 7.7-77.8 12.5-117.1 15.3-30.2 2.2-61.7-0.7-91.9 1-12.8 0.6-28.7 3.3-43.3 3.4-0.6 10-0.2 18.7 1.9 24.2 8.4 22.8 46.5 11.9 59.3 8.9 55.1-12.8 116.2 3.1 174.1 10 159.9 19 324.1 5.6 485 22.8 69.4 7.4 139.4-4.3 209.4-1.8 87.5 3.3 172.3-27.5 259.4-32 93.1-4.8 184.9-11.1 278.7-9.7 59.6 0.9 121 9.9 182.4 6.7 48.3-2.5 98.3-5 146.1 5.2 15.6 3.3 45.6 24.9 59.3 6 4.4-6.2 7.2-17 9-29.7-12.1 0.2-26.6-3.4-34-4z"/>
				<path id="&lt;Path&gt;" class="s1" d="m1812.3 470.1c-30.4 1.6-66.8-3.7-95.8 3.2 37.8 8.7 78.2 13.7 116.4 20 15.1 2.5 34.4 5.8 52.6 11.1-1.1-13.2-3-24.8-6.2-32.3-22.9-0.8-46.6-3-67-2z"/>
				<path id="&lt;Path&gt;" class="s1" d="m258.6 347.8c78.9 16.6 168.4 37.6 250 40.6 44.3 1.6 79.9 0.7 120-6.8 22.8-4.3 93.4-12.6 101.9-31.7-13.5-1.1-25.8-0.1-38.8 0.5-97 4.7-195.1 3.8-286.6-31.3-39.3-15-75.6-37.7-114.2-55.8-16.3-7.6-51.4-19-73.6-33.6-13.6 0.3-27.2 0.3-40.8-0.3-29.3-1.3-93.2-19.4-120 0.3-21 15.5-22.4 54-20 93.6 58.6-16.5 185.3 16.8 222.1 24.5z"/>
				<path id="&lt;Path&gt;" class="s1" d="m1782.4 341.5c-55.5-4.5-114.3-14.8-170-11-83.7 5.8-166.4 14.9-250.3 22.3-158.2 14-328.3 3-473.6 69.7-62.8 28.9-89 91.1-157.8 114.6-74.3 25.4-150-8.4-223.5-24-86.4-18.3-174.2-35.8-262.5-42.7-45.8-3.6-92.4-1.1-138.5-2.8-18-0.7-47.1-3.5-68.3-1.5-0.6 17.4-0.4 33.6 2.2 42.9 8.5 30.1 31.4 9.8 43.9 25.5-16.7 13.7-34.2 18.3-51.8 27-2.5 10.2-7.6 32.5-10.8 54.2 6.4 0.7 12.6 1.5 17.5 1.6 33.6 1.3 64.3-1.2 96.6-3.1 88.6-5.2 169.1-20.5 251.1-52.8 87.5-34.5 177.6 38.6 265.6 42.8 95.5 4.5 193.3 14.6 287.1 6.6 51.3-4.4 102.1-13.4 153.5-19.9 66.2-8.4 133.9-6.2 199.7-16.2 67.9-10.5 139.6-0.6 208.1-6.9 72.8-6.7 138.8 15.1 210.4 29 46.6 9.1 94.4 10.8 141.3 18.6 7.2 1.2 21.7 2.7 33.5 6.2 0.6-12.9 0.7-25.6 0.8-35.8-16.1-2.9-33.8-4-46.3-7.1-27.1-6.8-53.5-17.9-81.2-21.1-55.5-6.3-110.2-4.8-164.9-12.8-122.7-18-242.3 9.3-366.7 0.1-63.2-4.6-121.8-29.7-182.7-39.9-16.2-2.7-45.4 0.2-56.6-12.1-16.1-17.6 5.2-32.4 23.3-38.4 21.5-7.2 50.2-5.5 73.7-7.2 39.7-2.9 79.5-8 119.5-11.4 105.3-8.7 208.6-31.1 314.2-37.2 81.9-4.7 160.5-1.9 242 2.4 40.2 2.1 80.6-2.8 120.6-5.5-1.3-20.2-5.6-41.5-11-50.4q-0.8-1.2-1.7-2.4c-29.5 3.8-68.6 0.1-86.4-1.3z"/>
				<path id="&lt;Path&gt;" class="s1" d="m1739.9 418.2c-69.8 2.7-139.2 2.2-208.5 11.9-54.3 7.6-108.4 5-162.4 10.2-87.6 8.4-175.2 15-261.2 26.7-24.6 3.3-52.2 0.4-75.4 6 8 23.5 85 31.7 108.8 37.2 43.2 9.9 84.7 23.4 130.2 25 92.6 3.4 179.3-18 274.1-14.5 77.3 2.9 154.6 8.6 229.5 21.8 36.6 6.5 71.5 16.6 109.2 21.6q1.3 0.2 2.7 0.4c0.1-10.5 0.2-22.8-0.1-35.2-44.4-10.9-84.5-25.7-132.3-29.9-53.4-4.8-107.5-14.7-161.7-17.2-94.6-4.4-179.4 20.9-271.5 25.3-33.4 1.6-85.3 6.7-117-4.2 1-16.1 94.3-19 114.7-22.8 43.5-8.1 86.8-24.2 130.6-26.1 113.1-5 227.5 7.5 339.5-2.9 21.2-2 41.5-3.3 62.4-3.6 1.9-19.3 22.1-4.8 26.5-13.1 2.3-4.4 3.5-11.7 3.9-20.3-49.1-1.5-94.1 1.8-142 3.7z"/>
				<path id="&lt;Path&gt;" class="s1" d="m1776 218.4c-102 5.5-205.2 22.5-308.8 20.8-114.4-2-230.7 36.4-346.4 10.9-100-22.1-202.2-59.8-305.4-54-28.2 1.6-56.2 5.9-83 20.7-21.8 11.9-36.8 39.6-60.4 35.6-18.4-3.1-35.5-25.7-54.5-30.4-21.3-5.3-43.7 0.5-65.2-2.4-86.3-11.8-170.3 12.7-255.8 9.5-11.5-0.4-22.9-0.4-34.2-0.3 18.4 9.7 36.1 20.7 52.7 29.3 40.4 20.8 75.7 32 119.6 45.2 109.7 32.8 225.4 17.3 338.2 29.8 15.9 1.8 53.8 6.2 36.3 23.9-6.6 6.7-50.8 10.5-62.8 12.7-59.2 10.9-111.7 36.3-175.2 39-103.3 4.4-197.1-17.2-297.2-36.2-54.9-10.5-110.5-22-166.8-21.4-22.8 0.3-45.4 4.6-68.1 5.9 1.3 15.7 2.5 30.5 2.5 42.9-0.1 8.4-0.9 20.6-1.8 34 67.4-11.9 192.7 2.5 215.2 7.3 87.8 18.6 174.9 34.3 262.9 52.9 41.7 8.8 85.5 21 127.6 24.7 49.1 4.4 74.5-6.8 109.3-34.5 61.9-49.5 110.4-110.6 197.8-124.8 42.8-6.9 86.6-8.3 130.6-10.4 47.9-2.2 93.7-12.8 141.1-17.2 89.5-8.5 181.5-1.6 270.9-12.4 92-11.2 187.2 4.1 279.8-7.4q4.7-0.5 9.1-1.1c27.2-30.6 95.3-0.9 98.7-52 4.5-68.7-83.1-41.8-106.7-40.6z"/>
			</g>
			<g id="&lt;Group&gt;" style="opacity: .5">
				<path id="&lt;Path&gt;" class="s2" d="m1877 468.7c-6-9.9-25.2 9.9-26.2-16.2-0.9-26.1 22-8.8 26.7-17.7 8.5-16.2 2.2-73.5-7.5-89.6-1.8-2.9-4.1-5.3-6.8-7.3q0 0.1 0.1 0.1c4.9 16.2 0.9 51.9 4.6 69.4-41.2-25.7-39.3 90.2 0.1 80.6 1.1 34.5 4.4 67.4 3 101.8-2.1 51.2-7.9 42.3-33.4 47.6-37.4 7.7-72.1 18.9-112.7 12.9-218.8-32.2-464-100.1-678.3 10.4-86 44.4-193.1 3.6-282.3 3.6-54.2 0-110.1-13.4-163.7 0-44.9 11.2-80.6-5.2-125.2-9.3-96.4-8.8-191.6-15.8-287-32.6-47.7-8.5-94.4 4.1-140.9-0.1-8.4-0.8-18.3 1-28.2 5.2-1.7 15-2 28.6 0.8 36.2 8.5 22.8 46.6 11.9 59.4 8.9 55.1-12.8 116.2 3.1 174.1 10 159.8 19 324.1 5.6 484.9 22.8 69.5 7.4 139.5-4.3 209.5-1.8 87.5 3.3 172.2-27.5 259.3-32 93.2-4.8 185-11.1 278.7-9.7 59.7 0.9 121.1 9.9 182.5 6.7 48.3-2.5 98.3-5 146.1 5.2 15.6 3.3 45.6 24.9 59.3 6 13-18 11.8-76 12.3-102.7 0.5-29.6 1.9-90.1-9.2-108.4z"/>
				<path id="&lt;Path&gt;" class="s2" d="m1751.4 318.9c9.3 0.7 18.1 0.6 26.6 0.3 21.9-43.8 100.6-5.2 104.2-60.2 1.5-23.4-7.7-35.7-21.3-41.7-0.6 8-1.3 16.2-3 23.1-12.2 49.5-77.2 41.5-106.5 61.4-0.3 6-0.3 11.1 0 17.1z"/>
			</g>
		</g>
		<g id="&lt;Group&gt;">
			<path id="&lt;Path&gt;" class="s3" d="m35.7 1523.7c1.9 49.5-9.8 129.2 24.6 141 35.8 12.3 77-8.9 130.6 9.4 0.1 7.1-0.6 11.4-2.8 17.9-16.3 1.4-33.1-0.4-49.4 1.4-6.5 2.9-4.3 20.2 1.8 22.9 40.7 18.1 100.9-9.8 147.7-11.8 68.9-2.8 137-7.1 205.8-6.9 78.5 0.3 157.9 0.4 236.7 4.7 50.3 2.7 100.2 11.2 150.4 15.9 61.8 5.9 125.4-11.1 187.8-10.9 161.2 0.6 327.5 3.9 486.5-29.7 59.7-12.6 122.8-16.9 182.8-21.5 36.9-2.8 88.5 21.9 123.2 0.7 58-35.4-35.1-56.7-29.3-69.3l7.6-7.6c62.1-0.4 41.2-49.7 46.4-122.4 2.3-31.5 10.3-61.8 11.9-95.6 1.5-32.2-0.7-63.5-1.3-95.8-0.9-43.8 2.1-56.1-27.3-65.2-20.7-6.5-41.3-17.1-62.2-23.4-42.2-12.7-87.3-7-129.7-20.2-7.3-2.3-12.7-4.9-19-10.9 61.5-8 120.9-7 184.2-6.8 30.3 0.1 61.6 10.8 57.6-48.7-3-44-4-91.7-37.9-89.8-2.2-6.3-2.7-10.9-2.4-17.9 27.2-1.5 21.1-23.7 20.4-57.9-0.7-31.7 0.8-64 1.2-95.7 0.3-27.9 6.6-68.8-11.5-83.5-16.4-13.4-52.7 3.2-69.4 6.8-85.3 18.1-175.1-3.6-261.3 2.7-80.4 5.8-171 12.3-250.7 24.5-108.4 16.6-182.5 0.1-280.5 27-110.4 30.2-220.4 66.7-332.7 83.7-66.3 10-134.3 8.9-200-4.1-74-14.5-149-22-224-17.2-55.2 3.5-97.8-0.5-151.1-18.5-23.5-7.9-34.7-15.1-51.5 14.1-15.5 26.9-14.7 54.4-16.1 88-1 22.4-14.4 78.7-6.3 99.6 7.1 18.5 41.5 14.6 57.2 22.1 25.9 12.4 53.8 20.9 79.3 36.5-16.3 25.1-43.3-15.6-59.8-5.1-12.6 8-12.6 44.8-20.3 60.6 18.1 11.7 37.7 25.2 56.4 32.4-4.2 12.3-5.9 29.7-0.4 41.8-17.4 9.2-43.7 9.4-62.4 13.9-13.5 3.3-54.4-4.4-64.6 9.1-35.1 46.3 21.7 208 23.8 259.7z"/>
			<g id="&lt;Group&gt;">
				<path id="&lt;Path&gt;" class="s1" d="m1865.2 944.4c-23.6 0.7-42.3 1.9-64.3 4.5-41.4 4.7-94.9 17.4-123.9 34.8-29.5 17.7-44.6 38.9-90.5 47-16.8 3-59.4 7-26.8 15 16.2 3.9 49.1-0.5 67-0.1 51.2 1.3 103 4.5 155.6 6 29.5 0.8 83.7 0.7 115.9 9.8-2.9-33.4-9.4-61.8-35.8-60.3-2.1-6.3-2.6-10.9-2.3-17.9 22-1.2 22.2-16 21.1-39.7-6.7 0.6-12.8 0.9-16 0.9z"/>
				<path id="&lt;Path&gt;" class="s1" d="m243.9 1434.8c84-0.1 163.6 14.3 245.4 23.1 67.3 7.2 133.4 7 201.7 7 63.4 0.1 124.1-6.6 185.6-14.3 50.6-6.4 101.6-19.1 153.2-21.6 88.5-4.1 165.6 24.4 251.1 28.8 62.5 3.2 126 0.9 188.3-1.8 66.3-2.8 136.4 3.3 201.1-6.5 52.5-8 106.9-5.8 160.6-10.7 16.2-1.5 37.9-1.3 57.5-2 2.1-15.6 4.9-31.1 7-47.1-37.3 4.5-84.2 4.8-118.5 6.4-51.7 2.5-103.9 0.1-155.5 1.4-62.4 1.5-121.9 12.6-184.2 16.1-29.8 1.7-59.5 5.4-89 2.5-25.4-2.5-49.1-8.3-74.5-11.1-62.4-7.1-118.1-15.9-159.4-43.1-17-11.2-32.6-27.5-63.5-25.8-39.7 2.2-73.3 31.6-101.5 44-112.1 49-267.2 3.3-391.5 15.5-71.5 7.1-142.9-2.9-214.9-1.3-56.1 1.2-112.5 0.1-168.4-1.4-45.6-1.4-91.3-5.9-136.8-6.9-5.7-0.1-16.6 0.2-28.8 0.5 3.1 16.9 6.8 33.9 10.4 50.2 74-3.8 150.1-1.8 224.6-1.9z"/>
				<path id="&lt;Path&gt;" class="s1" d="m1881.6 830.7c-13-0.1-24.1-0.6-27-0.8-44.9-3.7-86.2-4.1-132.2-3-63.5 1.5-124.1 5.9-186.2 13.2-34.5 4.1-116.9-3.6-142.6 10.2-15.8 8.5-11.5 24.3-15.9 35.3-4.9 12-15.3 25.2-26.3 35.6-18.6 17.5-44.2 46.9-78.4 55.1-53.2 12.8-90.7-15.6-134-27.2-43.6-11.6-84.4 0-125.9 8.1-60.6 11.9-125.4 17.8-186.9 28.7-68.8 12-144 2.3-212.9-4.8-77.2-7.9-153.2-22.9-223.8-42.6-49.4-13.8-77.5 6-126.7 10.3-52.7 4.5-106.1 8.5-160.9 8.8-15.4 0.1-42.1 1.7-69.6 2.3-1.1 10.3-3.4 24.4-5.4 38.8 50.1-4.1 100.4-7.9 151.1-12 74.3-6.1 145.6-13.1 216.9 3.2 101.7 23.4 212.5 28.5 321.4 32.7 94.1 3.7 183.2 3.6 272.5-15.5 27.9-5.9 65.7-21.9 95.9-21.5 55.5 0.6 100.2 33.8 159.6 36 92.5 3.4 177.1-29.3 218.8-70.7 45.3-45 107.2-67.3 200.5-78.3 44.4-5.2 90.7-2.5 135.3-5.7 27.1-2 54.5-1.9 82-1.8 0.3-11.5 0.6-23 0.7-34.4z"/>
				<path id="&lt;Path&gt;" class="s1" d="m1863.2 1456.3c-60.1 3.2-120.8 1.6-180.8 6.1-125.3 9.3-256.2 19.6-382.7 6.4-87.9-9.1-175.8-17.9-265.9-13.9-66.2 2.9-121.6 14.5-186.2 22.6-54.1 6.7-116.9 3.2-172.7 3.2-116.2 0-221.9-12-336.5-20.1-89.5-6.3-178.3-12.6-268.6-7.5-14.6 0.9-30.2 2.8-46 4.1 2.1 9.3 4 18.1 5.7 26.3 41-1.7 86.5-3.8 128.3-2.8 92.7 2.2 192.2 12.7 282 26.2 66.3 10 148.2 17 216.8 15.1 35.3-1 70.4-2.2 104.7-6.8 17.2-2.3 47.9-10.5 65-4.8 62.9 21.4-63 38.3-81.8 41.7-65 11.4-128.2 27.1-194.5 36.5-41.9 6-84.4 4.9-127 6.9-58.2 2.8-117.1 6.9-175.6 8.3-74.1 1.8-143.6-3.8-212.1-14.9 0 6.6 0.2 13.2 0.6 19.4 82 1.7 211.5 16.7 226.1 18.8 79.1 11.7 170.2 20.9 252.8 18.7 92.8-2.5 170-18.9 248.2-44.8 47.2-15.6 88.2-36.1 138.4-49 52.2-13.5 109.1-20.6 165.8-26.5 112.7-11.6 236.1-8.6 349.9-4.3 112.7 4.3 223.1 16.1 335.5 21.2 46.8 2.1 88.2-5.4 132.8-8.6 0.9-20.3-1.4-46.3 0.8-76.3q0.1-2 0.3-4.1c-10.8 1.6-19.9 2.7-23.3 2.9z"/>
				<path id="&lt;Path&gt;" class="s1" d="m1879.5 1639c-79.3-10.9-156.2-24.7-237.4-29.1-152.6-8.4-308.8 6.2-460.9 10-66.7 1.7-137.8 10.7-199.8 24.4-40.2 8.9-81.3 14.7-122.7 22.9-32.5 6.4-83.8 17.2-111.5 28.3-5.7 2.3-10.5 4.6-14.8 6.9 49.7 2.8 99.1 11.2 148.8 15.8 61.8 5.9 125.4-11.1 187.7-10.9 161.3 0.6 327.5 3.9 486.6-29.7 59.7-12.6 122.8-16.9 182.8-21.5 36.9-2.8 88.4 21.9 123.1 0.7 10.5-6.4 16-12.3 18.1-17.8z"/>
				<path id="&lt;Path&gt;" class="s1" d="m14.2 1261.7c40.1 4 80.2 7.1 120.2 10.9 43.3 4.1 84.8 12.4 129 12.9 49.4 0.7 100.2-3.1 149.5-4.3 53.9-1.3 107.2 1.7 160.4-4.2 42.2-4.7 81.8-15.6 125.7-14.4 61.3 1.6 108 12.9 170.3 2.9 73.5-11.9 117.7-36.6 175.4-61.5 37.2-16 71.9-29.1 120.5-24.6 54.4 5.1 96.4 27.8 143.9 42.3 84.4 25.6 162.1 14.2 250.6-0.8 44.2-7.5 89.6-15.4 134.6-21.5 33.4-4.5 67.6-1.8 101.4-5.3 17.4-1.8 34-1.9 50.6-1.8-13-5.2-25.9-10.8-39-14.8-42.3-12.7-87.4-7-129.7-20.2-7.3-2.3-12.8-4.9-19-10.9 61.4-8 120.8-7 184.2-6.8 27.4 0.1 55.6 8.9 57.7-33.7-8.7-1.1-17.1-2.3-21.8-2.6-37.4-2.3-79.8-3.2-118-1.4-36.2 1.6-71.6 9.5-107.2 12.6-37.3 3.2-74.9 4.6-112.6 7.4-127.7 9.5-241.2-0.3-361-23.3-56.9-10.8-118.8-20.5-177.4-9.6-49.4 9.1-93.9 26.8-145.6 35.5-117.3 19.8-239.3 27.6-363.6 30.8-85.5 2.2-171-1.8-257.3-1.8-37.2 0-75.1 0.8-111.9-1.1-8.8-0.5-21.9-0.8-36.3-1.4-1.4 6.1-2.9 11.6-4.9 15.8 18.2 11.7 37.8 25.2 56.4 32.4-4.1 12.3-5.8 29.7-0.3 41.8-17.4 9.2-43.8 9.4-62.4 13.9-12.7 3.1-49.4-3.5-62.4 6.8z"/>
				<path id="&lt;Path&gt;" class="s1" d="m6.3 1367.3c44.4-0.9 89.3 0 133.8 0 154.6 0.1 307.6 9.8 461.5 2.9 55.6-2.5 117.3-6.1 173-2.9 42.7 2.4 68.1 18.5 108.3 4.9 56.2-19.1 89.1-53.4 153.6-67 45.8-9.5 62.9 3.1 95 20.8 58.9 32.5 126.5 64.9 216.5 62.9 84.8-1.9 169.7-2.6 254.7-4.3 37.7-0.8 73.1-5.7 109.6-10.1 36.8-4.4 70.7-3.7 108.2-4.3 26.8-0.4 51.7-4 77.4-6.4q0.1-1 0.1-1.9c1.5-32.2-0.6-63.5-1.3-95.8-0.7-37.2 1.3-51.7-15.9-60.8-7 0-12.8-0.2-15.6-0.1-100.4 1.8-196.6 17.3-292.7 33.4-95.4 15.9-168 21.5-261.9 0.7-42.4-9.4-81.1-24.1-120.7-37.3-45.1-15-74.1-11.6-118 4.9-69.8 26.4-113.4 69.5-206.2 74.3-53.9 2.9-103.7-3.4-155.4-7.4-47.7-3.8-92.4 10.2-139.3 13.2-124.4 8.1-245.2 10.1-370.4 7.1-67.7-1.6-124.2-11.5-189.6-18.9-1.3-0.2-2.9-0.3-4.9-0.5-8.3 21.6-6.3 55.9-0.5 92.7q0.3-0.1 0.7-0.1z"/>
				<path id="&lt;Path&gt;" class="s1" d="m288.3 1704.5c68.8-2.8 137-7.1 205.7-6.9 56.6 0.2 113.5 0.4 170.4 2 5.8-4.3 12.7-8.6 19.3-12.2 68.6-38 198.5-53.6 291.1-64.7 70.5-8.4 142.7-15.3 214.4-20 124.3-8.2 250.6-12.3 375.3-4.3 78.6 5 156.9 9.1 235.7 12.5 12.6 0.6 40.8 3.6 70.2 6-15-13-41.4-22.5-38.2-29.4l7.6-7.6c23.3-0.2 34.9-7.2 40.6-19.9-31.3 3-65 3.9-74.8 3.9-71.5 0-140.5-6.3-211-10-77-4-156-2-233.1-5.8-49.8-2.4-104.5-0.8-152.7-7.4-67.9-9.5-140.1-6.6-205.2 8.8-149.3 35.5-273.6 110.2-442.7 113.4-101.1 2-200.3-4.9-301.1-11.7-64-4.4-125.6-15.3-189.2-20.9-10.2-1-21.3-1.4-32.6-1.8 3.2 18.1 9.6 31.9 22.4 36.2 35.8 12.3 77-8.9 130.5 9.4 0.1 7.1-0.6 11.4-2.8 17.9-16.2 1.4-33.1-0.4-49.3 1.4-6.6 2.9-4.3 20.2 1.7 22.9 40.7 18.1 101-9.8 147.8-11.8z"/>
				<path id="&lt;Path&gt;" class="s1" d="m137 1572.5c68.1-0.1 135.9 3.1 204.2 1.5 63.4-1.5 127.3-10.9 189-18.7 21.8-2.7 115.2-8 120.8-15.5-18.6-4.7-43.7-3.6-63.9-4.2-25.4-0.9-47.9-3.5-72.5-5.8-54-5.1-106-10.8-160-16.4-74.1-7.7-153.2-10.7-229.1-12.6-10.9-0.3-51.7 0.7-92.4 1.1 1.4 8.5 2.4 15.9 2.6 21.8 0.5 12.1 0.2 26-0.1 40.3 39.2 2.7 81.1 8.6 101.4 8.5z"/>
				<path id="&lt;Compound Path&gt;" fill-rule="evenodd" class="s1" d="m33.3 940.6c1-28.1 2.1-52 15.6-75.5 16.8-29.2 13.7-82.1 37.1-74.2 53.3 18 342.5 86.3 917.4-2.1 100.4-15.4 197.5-22.9 296.6-22.6 80.7 0.3 159.1-4.8 239.5-10.6 86.2-6.3 175.9 15.4 261.2-2.7 16.7-3.6 53.1-20.2 69.5-6.8 16 13 12.9 46.7 11.7 73.5-24.3 0.2-48.7 0.4-73-0.1-50.8-1-101.5-7.7-152.6-3-60.2 5.6-120.1 12.3-181.6 13.4-60.1 1-123 0-145.4 36.6-15.2 24.9-2.9 56.8-34.7 78.2-25.7 17.3-71.4 18.1-102.6 5.9-24.7-9.8-40.5-34.1-77.1-32.3-30.1 1.5-73.4 12.9-101.8 18.8-186.8 38.7-413.5 37.6-596.7-8.8-33.6-8.5-65.2-11.5-101.9-7.4-37.4 4.1-66.1 16.5-105.3 17.6-59.3 1.7-117.7-0.4-175.9 2.1zm1223.6-62.3l5.4-8.8c-7.3-24.1-50.7-43-91.1-48.5-44.7-6.1-86.1-1.7-64.9 28 10.3 14.4 41.9 38.8 68.2 46.6 25 7.4 92.3 6.1 82.4-17.3z"/>
				<path id="&lt;Path&gt;" class="s1" d="m118.1 1133.4c129.9 8.2 265.7 6.3 396.5 2.9 91.4-2.4 183.7-7.5 270.1-24.4 89.1-17.4 165.6-39.7 262.6-44.4 68.5-3.4 137.8-1.1 201.7 13.2 36.9 8.3 69.3 19.1 109.8 22.6 48.2 4.1 98.9 0.7 147.3-0.3 48-1.1 98.9 1.5 146.8-1.1 39.6-2.1 78.5-10.9 117.8-14.1 27.1-2.1 55.6-2.3 83.3-1.7 17.2 0.4 31.8 3.2 46.4 5.6q-0.1-0.4-0.1-0.8c-0.3-5.1-0.6-10.2-1-15.3-25.3 4.7-65.9 0.5-87.1-0.6-45-2.3-88.6-10.3-134-11.7-35.9-1.2-72.3 0.6-107.7 1.5-20.8 0.5-60.3 3.7-77.8-4.1-47.1-20.9 69.5-41.5 91.2-47.3 62.7-16.9 100.9-49.2 168.7-62.8 43.3-8.6 86.3-15.7 128.1-17.5q-0.2-3.8-0.3-7.8c-0.2-13-0.1-26 0.1-39-40.8 1.8-94.1-0.3-108.4 0.4-58.6 2.9-114.1 14.9-166.8 29-45.4 12.2-56.9 36.2-83.1 58.5-38.4 32.5-103 52.4-171.5 62-42.9 6-99.7 3.6-142-1.7-48.2-6.1-100.9-29-147.4-16.2-49 13.4-92.8 17.2-149.4 19-65.5 2.1-129.4 11.9-195.6 12.9-82.9 1.3-160-2.3-239.8-13.3-28.9-3.9-56.3-9.3-81.6-17.5-19.8-6.4-35-15.9-56.5-20.5-22.9-4.9-48.2-3.2-72.8-3.2-75.2-0.1-161.9 17-240.5 17.9-1.6 15.8-1.9 30.5 1.4 39.1 7.2 18.5 41.6 14.6 57.3 22.1 25.8 12.4 53.8 20.9 79.3 36.5-16.4 25.1-43.4-15.6-59.8-5.1-5.9 3.7-9.1 13.9-11.6 25.2 9.9 0.8 19 1.6 26.4 2z"/>
			</g>
			<g id="&lt;Group&gt;" style="opacity: .5">
				<path id="&lt;Path&gt;" class="s4" d="m1859.2 1630.5c-3-0.3-5.9-0.7-8-1q4.2 0.8 8 1z"/>
				<path id="&lt;Path&gt;" class="s4" d="m1862 1001.1c-2.1-6.3-2.6-10.9-2.3-17.9 27.2-1.5 21.1-23.7 20.3-57.9-0.7-31.7 0.8-64 1.2-95.7 0.3-20.4 3.7-47.9-1.6-66.9-22.5 42.1-21.5 120.9-24.6 155-6.5 70.4 8.6 119.5 20.7 188.5-53.5 3.3-209-21-229.1 40.2q9-0.5 18-0.8c59.1-7.1 116.6-6.2 177.7-6 30.3 0.1 61.6 10.8 57.6-48.7-3-44-4-91.7-37.9-89.8z"/>
				<path id="&lt;Path&gt;" class="s4" d="m1555 1677.6c59.8-12.6 122.9-16.9 182.8-21.5 37-2.8 88.5 21.9 123.2 0.7 19.6-12 21.9-22.3 16.7-31.2-4.6 3.6-10.8 5.3-18.5 4.9 4.2 0.4 8.8 0.7 11.4 0.3-69.5 24.2-95.2-8.2-225.9 4.6-94.7 9.3-219.7 25.8-313.2 32.1-176.2 11.8-371.2 25.7-548.4-3.4-85.5-14-150.8-11.8-239.7-10.5-89.2 1.3-187 19.2-274.1 20.9 26.2-64.1-83.7-38.5-124.9-39.1-36.7-0.5-68.9 6.4-107.9-14.6 2.6 21.9 8.9 39 23.4 43.9 35.9 12.3 77-8.9 130.6 9.4 0.1 7.1-0.6 11.4-2.8 17.9-16.2 1.4-33.1-0.4-49.4 1.4-6.5 2.9-4.2 20.2 1.8 22.9 40.7 18.1 101-9.8 147.8-11.8 68.8-2.8 136.9-7.1 205.7-6.9 78.6 0.3 158 0.4 236.7 4.7 50.3 2.7 100.3 11.2 150.4 15.9 61.9 5.9 125.5-11.1 187.8-10.9 161.3 0.6 327.5 3.9 486.5-29.7z"/>
				<path id="&lt;Path&gt;" class="s4" d="m1896.3 1266.1c-0.8-41.6 1.8-54.8-23-63.8-7.5 14.8-10.4 153.8-13 180.4-5.8 61.4 5.6 124.6 4.6 182.8-14.6-1.5-32.7 4.5-46.9 2.1 2.8 10.1 7.6 16.6 13.5 20.8q0-0.4 0.2-0.9l7.6-7.6c62.1-0.4 41.3-49.7 46.4-122.4 2.3-31.5 10.3-61.8 11.9-95.6 1.5-32.2-0.7-63.5-1.3-95.8z"/>
			</g>
		</g>
		<g id="&lt;Group&gt;">
			<g id="&lt;Group&gt;">
				<path id="&lt;Path&gt;" fill-rule="evenodd" class="s2" d="m311.8 600.4c-17.6 0-31.8-14.2-31.8-31.8 0-17.6 14.2-31.8 31.8-31.8 17.6 0 31.8 14.2 31.8 31.8 0 17.6-14.2 31.8-31.8 31.8z"/>
				<path id="&lt;Path&gt;" fill-rule="evenodd" class="s2" d="m311.8 919.1c-13.8 0-25-11.1-25-25 0-13.8 11.2-24.9 25-24.9 13.8 0 25 11.1 25 24.9 0 13.9-11.2 25-25 25z"/>
				<g id="&lt;Group&gt;">
					<path id="&lt;Path&gt;" class="s5" d="m327.7 886.6c0 7.5-6.1 13.6-13.6 13.6h-4.6c-7.5 0-13.6-6.1-13.6-13.6v-299.8c0-7.6 6.1-13.7 13.6-13.7h4.6c7.5 0 13.6 6.1 13.6 13.7z"/>
					<g id="&lt;Group&gt;">
						<path id="&lt;Path&gt;" class="s6" d="m307.9 618c7.1-4.5 14.1-9.6 18.4-16.9 1.9-3.2-3-6.1-4.9-2.9-3.8 6.5-10.1 10.9-16.4 14.9-3 1.9-0.2 6.8 2.9 4.9z"/>
					</g>
					<g id="&lt;Group&gt;">
						<path id="&lt;Path&gt;" class="s6" d="m307.9 639.9c6-4.2 12.1-8.3 16.2-14.6 2-3.1-2.9-5.9-4.9-2.9-3.6 5.4-9 9-14.2 12.6-2.9 2.1-0.1 7.1 2.9 4.9z"/>
					</g>
					<g id="&lt;Group&gt;">
						<path id="&lt;Path&gt;" class="s6" d="m308.7 664.9c6-3.5 11.2-8.2 15.4-13.9 2.1-2.9-2.8-5.8-4.9-2.8-3.6 4.8-8.2 8.8-13.4 11.8-3.2 1.9-0.3 6.8 2.9 4.9z"/>
					</g>
					<g id="&lt;Group&gt;">
						<path id="&lt;Path&gt;" class="s6" d="m307.9 688.4c6.6-4.1 12.9-8.5 16.9-15.4 1.9-3.2-3-6-4.9-2.9-3.5 6.1-9.1 9.8-14.9 13.4-3 1.9-0.2 6.8 2.9 4.9z"/>
					</g>
					<g id="&lt;Group&gt;">
						<path id="&lt;Path&gt;" class="s6" d="m307.9 711.9c6.7-3.5 12.1-8.4 16.2-14.7 2-3.1-3-5.9-4.9-2.8-3.6 5.4-8.4 9.6-14.2 12.6-3.2 1.6-0.3 6.5 2.9 4.9z"/>
					</g>
					<g id="&lt;Group&gt;">
						<path id="&lt;Path&gt;" class="s6" d="m308.7 735.3c5.5-3.7 10.6-7.7 14.6-13.1 2.2-3-2.7-5.8-4.9-2.9-3.4 4.6-7.9 8-12.6 11.1-3 2.1-0.2 7 2.9 4.9z"/>
					</g>
					<g id="&lt;Group&gt;">
						<path id="&lt;Path&gt;" class="s6" d="m310.8 758.4c4.8-4.8 9.9-9.3 14.3-14.4 2.4-2.8-1.6-6.8-4-4-4.4 5.1-9.5 9.6-14.4 14.3-2.6 2.6 1.5 6.6 4.1 4.1z"/>
					</g>
					<g id="&lt;Group&gt;">
						<path id="&lt;Path&gt;" class="s6" d="m310.9 780c5.6-2.9 9.7-8 13.2-13.1 2-3.1-2.9-5.9-4.9-2.9-2.9 4.3-6.5 8.6-11.1 11.1-3.3 1.7-0.4 6.6 2.8 4.9z"/>
					</g>
					<g id="&lt;Group&gt;">
						<path id="&lt;Path&gt;" class="s6" d="m311.7 802.7c5.7-2.6 9.5-7.8 13.4-12.5 2.4-2.8-1.6-6.9-4-4.1-3.6 4.4-7 9.3-12.3 11.7-3.3 1.5-0.4 6.4 2.9 4.9z"/>
					</g>
					<g id="&lt;Group&gt;">
						<path id="&lt;Path&gt;" class="s6" d="m310.8 824.2c5-4.2 9.4-8.9 13.3-14.2 2.1-2.9-2.8-5.8-4.9-2.8-3.6 4.8-7.8 9.1-12.5 13-2.8 2.4 1.3 6.4 4.1 4z"/>
					</g>
					<g id="&lt;Group&gt;">
						<path id="&lt;Path&gt;" class="s6" d="m308.8 844.6c7.5 2 12.7-8.3 16-13.4 2.1-3-2.9-5.9-4.9-2.8-1.5 2.3-3 4.7-4.7 6.9-0.9 1.2-3.2 4.3-4.9 3.9-3.6-1-5.1 4.5-1.5 5.4z"/>
					</g>
					<g id="&lt;Group&gt;">
						<path id="&lt;Path&gt;" class="s6" d="m312.5 870.8c5-2.7 8-7.7 11.9-11.7 2.5-2.7-1.5-6.7-4-4.1-3.6 3.6-6.3 8.5-10.8 10.9-3.2 1.8-0.4 6.7 2.9 4.9z"/>
					</g>
					<g id="&lt;Group&gt;">
						<path id="&lt;Path&gt;" class="s6" d="m313.2 891.3c4.2-1.8 7.4-5 10.1-8.6 1-1.2 0.2-3.2-1-3.9-1.5-0.8-2.9-0.2-3.9 1-2.1 2.9-4.8 5.2-8.1 6.6-1.4 0.6-1.7 2.7-1 3.9 0.9 1.4 2.5 1.6 3.9 1z"/>
					</g>
					<g id="&lt;Group&gt;">
						<path id="&lt;Path&gt;" class="s6" d="m307.7 597.9c4.6-4.7 8.8-9.7 12.6-15 2.1-3-2.8-5.8-4.9-2.9-3.5 4.9-7.4 9.6-11.7 13.8-2.6 2.6 1.5 6.7 4 4.1z"/>
					</g>
				</g>
			</g>
			<g id="&lt;Group&gt;">
				<path id="&lt;Path&gt;" fill-rule="evenodd" class="s2" d="m1630.3 600.4c-17.6 0-31.8-14.2-31.8-31.8 0-17.6 14.2-31.8 31.8-31.8 17.6 0 31.8 14.2 31.8 31.8 0 17.6-14.2 31.8-31.8 31.8z"/>
				<path id="&lt;Path&gt;" fill-rule="evenodd" class="s2" d="m1630.3 919.1c-13.8 0-25-11.1-25-25 0-13.8 11.2-24.9 25-24.9 13.8 0 25 11.1 25 24.9 0 13.9-11.2 25-25 25z"/>
				<g id="&lt;Group&gt;">
					<path id="&lt;Path&gt;" class="s5" d="m1646.2 886.6c0 7.5-6.1 13.6-13.6 13.6h-4.6c-7.5 0-13.6-6.1-13.6-13.6v-299.8c0-7.6 6.1-13.7 13.6-13.7h4.6c7.5 0 13.6 6.1 13.6 13.7z"/>
					<g id="&lt;Group&gt;">
						<path id="&lt;Path&gt;" class="s6" d="m1626.5 618c7-4.5 14.1-9.6 18.4-16.9 1.8-3.2-3.1-6.1-4.9-2.9-3.8 6.5-10.1 10.9-16.4 14.9-3.1 1.9-0.3 6.8 2.9 4.9z"/>
					</g>
					<g id="&lt;Group&gt;">
						<path id="&lt;Path&gt;" class="s6" d="m1626.5 639.9c6-4.2 12-8.3 16.1-14.6 2-3.1-2.9-5.9-4.9-2.9-3.5 5.4-8.9 9-14.1 12.6-3 2.1-0.1 7.1 2.9 4.9z"/>
					</g>
					<g id="&lt;Group&gt;">
						<path id="&lt;Path&gt;" class="s6" d="m1627.2 664.9c6.1-3.5 11.3-8.2 15.4-13.9 2.2-2.9-2.7-5.8-4.9-2.8-3.6 4.8-8.2 8.8-13.4 11.8-3.1 1.9-0.3 6.8 2.9 4.9z"/>
					</g>
					<g id="&lt;Group&gt;">
						<path id="&lt;Path&gt;" class="s6" d="m1626.5 688.4c6.6-4.1 12.9-8.5 16.9-15.4 1.8-3.2-3.1-6-4.9-2.9-3.5 6.1-9.1 9.8-14.9 13.4-3.1 1.9-0.3 6.8 2.9 4.9z"/>
					</g>
					<g id="&lt;Group&gt;">
						<path id="&lt;Path&gt;" class="s6" d="m1626.5 711.9c6.6-3.5 12.1-8.4 16.1-14.7 2-3.1-2.9-5.9-4.9-2.8-3.5 5.4-8.3 9.6-14.1 12.6-3.3 1.6-0.4 6.5 2.9 4.9z"/>
					</g>
					<g id="&lt;Group&gt;">
						<path id="&lt;Path&gt;" class="s6" d="m1627.2 735.3c5.5-3.7 10.7-7.7 14.7-13.1 2.1-3-2.8-5.8-4.9-2.9-3.4 4.6-8 8-12.7 11.1-3 2.1-0.1 7 2.9 4.9z"/>
					</g>
					<g id="&lt;Group&gt;">
						<path id="&lt;Path&gt;" class="s6" d="m1629.3 758.4c4.8-4.8 9.9-9.3 14.4-14.4 2.4-2.8-1.6-6.8-4-4-4.5 5.1-9.6 9.6-14.4 14.3-2.6 2.6 1.4 6.6 4 4.1z"/>
					</g>
					<g id="&lt;Group&gt;">
						<path id="&lt;Path&gt;" class="s6" d="m1629.5 780c5.5-2.9 9.7-8 13.1-13.1 2.1-3.1-2.8-5.9-4.9-2.9-2.9 4.3-6.4 8.6-11.1 11.1-3.2 1.7-0.4 6.6 2.9 4.9z"/>
					</g>
					<g id="&lt;Group&gt;">
						<path id="&lt;Path&gt;" class="s6" d="m1630.2 802.7c5.8-2.6 9.6-7.8 13.5-12.5 2.3-2.8-1.7-6.9-4-4.1-3.6 4.4-7 9.3-12.3 11.7-3.4 1.5-0.5 6.4 2.8 4.9z"/>
					</g>
					<g id="&lt;Group&gt;">
						<path id="&lt;Path&gt;" class="s6" d="m1629.3 824.2c5-4.2 9.5-8.9 13.3-14.2 2.2-2.9-2.8-5.8-4.9-2.8-3.5 4.8-7.8 9.1-12.4 13-2.8 2.4 1.2 6.4 4 4z"/>
					</g>
					<g id="&lt;Group&gt;">
						<path id="&lt;Path&gt;" class="s6" d="m1627.3 844.6c7.5 2 12.7-8.3 16.1-13.4 2-3-2.9-5.9-4.9-2.8-1.6 2.3-3.1 4.7-4.8 6.9-0.9 1.2-3.1 4.3-4.9 3.9-3.5-1-5 4.5-1.5 5.4z"/>
					</g>
					<g id="&lt;Group&gt;">
						<path id="&lt;Path&gt;" class="s6" d="m1631 870.8c5.1-2.7 8-7.7 11.9-11.7 2.6-2.7-1.4-6.7-4-4.1-3.5 3.6-6.2 8.5-10.8 10.9-3.2 1.8-0.3 6.7 2.9 4.9z"/>
					</g>
					<g id="&lt;Group&gt;">
						<path id="&lt;Path&gt;" class="s6" d="m1631.8 891.3c4.2-1.8 7.3-5 10.1-8.6 0.9-1.2 0.2-3.2-1.1-3.9-1.4-0.8-2.9-0.2-3.8 1-2.2 2.9-4.8 5.2-8.1 6.6-1.4 0.6-1.7 2.7-1 3.9 0.8 1.4 2.4 1.6 3.9 1z"/>
					</g>
					<g id="&lt;Group&gt;">
						<path id="&lt;Path&gt;" class="s6" d="m1626.3 597.9c4.6-4.7 8.7-9.7 12.5-15 2.2-3-2.8-5.8-4.9-2.9-3.5 4.9-7.4 9.6-11.6 13.8-2.6 2.6 1.4 6.7 4 4.1z"/>
					</g>
				</g>
			</g>
		</g>
		<path id="&lt;Path&gt;" class="s7" d="m1280.1 866.5c-80.6-21.9-160.8 37.4-236.4 55.9-102.8 25.2-211.5-19.4-314.4-20.4-116.7-1.1-226.6-9.6-341.9 12.7-76.4 14.7-105.9 92.9-104.2 168.1 1.2 54.8 18 57.9-20.1 107.6-28.8 37.6-43.1 44.5-89.3 55.1-89.4 20.4-122.4 62.1-109.3 151.5 14.3 96.8 35.4 103.5 130.3 103.5l84.2-12.9c38.2 12.7 134.5-18.4 168.4-51.6 60-58.8 31.4-140.1 99.5-197.9 129.4-109.9 288.6-98.7 444.1-117.5 105-12.7 209.7-10.1 300.7-71.3 73.7-49.5 96-153.6-11.6-182.8z"/>
		<path id="&lt;Path&gt;" class="s7" d="m1582.2 343.2c-11.7-23.5-87.2-15.9-106.8-16.1-55.5-0.6-109.9 2.6-165.2-0.2-136.4-6.9-271.8 15.4-407.9-5.2-57.9-8.8-116-8.2-174.5-10.7-57.7-2.4-114.8-12-172.6-14.2-128-4.8-253.6-33.5-380.2-39.8-7.1-0.4-14.4 0-21.6 0l-24.2 26.9c-33.2 44.8-16.9 155.9 4.8 204.4 24.3 54.4 23 101.5 95.6 105.7 40.9 2.4 63.9 3.4 79.6-37.7 14-36.5 0.1-76.8 12-111.2 30.7-89.1 188.2-66.1 254.9-55.3 70.9 11.5 144 8.3 215.9 10.1 66.8 1.7 133.4 10.3 200.1 13.5 122 5.7 244.4 10.8 366.8 16.3 52.9 2.3 112.5-1.1 161.7-22.3 17-7.4 76.1-34.9 61.6-64.2z"/>
		<g id="&lt;Group&gt;">
			<g id="&lt;Group&gt;">
			</g>
			<g id="&lt;Group&gt;" style="opacity: .5">
			</g>
		</g>
		<path id="&lt;Path&gt;" fill-rule="evenodd" class="s2" d="m296.2 320.3c-17.6 0-31.8-14.2-31.8-31.8 0-17.6 14.2-31.8 31.8-31.8 17.6 0 31.8 14.2 31.8 31.8 0 17.6-14.2 31.8-31.8 31.8z"/>
		<path id="&lt;Path&gt;" fill-rule="evenodd" class="s2" d="m1584.4 311.9c-17.6 0-31.8-14.2-31.8-31.8 0-17.5 14.2-31.7 31.8-31.7 17.5 0 31.8 14.2 31.8 31.7 0 17.6-14.3 31.8-31.8 31.8z"/>
		<g id="&lt;Group&gt;">
			<g id="&lt;Group&gt;">
				<path id="&lt;Path&gt;" class="s5" d="m318 173.2q-0.1 0.1-0.1 0.2c0.1 0.1 0.1 0 0.1-0.2z"/>
				<path id="&lt;Path&gt;" class="s5" d="m360.4 117.4c-6.1 0.4-33.1 15.8-49.5 33.9-4.6 5-0.1 15.8-5.1 20.1l12.3 1.1c-0.1 0.1-0.1 0.5-0.1 0.7 3.8-8.6 16.3-15.9 23-22 7-6.3 17.2-6.8 29.1-16.5 6.5-10.3-2.8-17.8-9.7-17.3z"/>
			</g>
			<g id="&lt;Group&gt;">
				<path id="&lt;Path&gt;" class="s5" d="m288.3 189q0.1 0.1 0.1 0.1c0 0.2 0 0.1-0.1-0.1z"/>
				<path id="&lt;Path&gt;" class="s5" d="m228.2 152.9c5.8-1.9 36.6 2.5 58.5 13.1 6.1 2.9 6 14.6 12.2 16.7l-10.9 5.6c0 0.2 0.2 0.5 0.3 0.7-6.7-6.5-21.1-8.7-29.6-11.9-8.8-3.2-18.4 0.1-33.1-4.5-9.8-7.1-4-17.6 2.6-19.7z"/>
			</g>
			<g id="&lt;Group&gt;">
				<path id="&lt;Path&gt;" class="s5" d="m310.4 283.7c-0.1 6.5-5.4 11.8-11.9 11.7h-4c-6.5-0.1-11.7-5.5-11.7-12l2.7-259.5c0.1-6.5 5.4-11.7 12-11.7l3.9 0.1c6.5 0 11.7 5.4 11.7 11.9z"/>
				<g id="&lt;Group&gt;">
					<path id="&lt;Path&gt;" class="s6" d="m295.7 51c6.2-3.8 12.3-8.1 16.1-14.4 1.6-2.8-2.6-5.3-4.2-2.6-3.4 5.6-8.9 9.4-14.4 12.8-2.7 1.6-0.2 5.9 2.5 4.2z"/>
				</g>
				<g id="&lt;Group&gt;">
					<path id="&lt;Path&gt;" class="s6" d="m295.5 70.1c5.2-3.7 10.5-7.2 14.1-12.6 1.8-2.6-2.5-5.1-4.2-2.5-3.1 4.7-7.8 7.6-12.4 10.8-2.5 1.8-0.1 6.1 2.5 4.3z"/>
				</g>
				<g id="&lt;Group&gt;">
					<path id="&lt;Path&gt;" class="s6" d="m295.9 91.7c5.3-3 9.8-7 13.5-11.9 1.9-2.5-2.4-5-4.3-2.5-3.1 4.1-7.1 7.5-11.6 10.1-2.8 1.6-0.3 5.9 2.4 4.3z"/>
				</g>
				<g id="&lt;Group&gt;">
					<path id="&lt;Path&gt;" class="s6" d="m295 112c5.8-3.5 11.3-7.3 14.8-13.2 1.7-2.7-2.6-5.2-4.2-2.5-3.1 5.2-7.9 8.3-13 11.4-2.7 1.7-0.3 6 2.4 4.3z"/>
				</g>
				<g id="&lt;Group&gt;">
					<path id="&lt;Path&gt;" class="s6" d="m294.8 132.3c5.8-2.9 10.6-7.1 14.2-12.5 1.7-2.7-2.5-5.2-4.3-2.5-3.1 4.7-7.3 8.2-12.3 10.7-2.8 1.5-0.4 5.7 2.4 4.3z"/>
				</g>
				<g id="&lt;Group&gt;">
					<path id="&lt;Path&gt;" class="s6" d="m295.3 152.6c4.8-3.1 9.3-6.6 12.8-11.2 1.9-2.5-2.4-5-4.2-2.5-3 3.9-7 6.8-11.1 9.5-2.6 1.7-0.2 6 2.5 4.2z"/>
				</g>
				<g id="&lt;Group&gt;">
					<path id="&lt;Path&gt;" class="s6" d="m296.9 172.6c4.2-4.1 8.7-7.9 12.6-12.3 2.1-2.4-1.4-5.9-3.5-3.5-3.9 4.3-8.3 8.2-12.6 12.3-2.2 2.2 1.2 5.7 3.5 3.5z"/>
				</g>
				<g id="&lt;Group&gt;">
					<path id="&lt;Path&gt;" class="s6" d="m296.8 191.3c4.8-2.5 8.5-6.9 11.5-11.2 1.8-2.6-2.4-5.1-4.2-2.6-2.6 3.7-5.6 7.5-9.7 9.6-2.8 1.4-0.4 5.7 2.4 4.2z"/>
				</g>
				<g id="&lt;Group&gt;">
					<path id="&lt;Path&gt;" class="s6" d="m297.3 211c5-2.2 8.3-6.7 11.7-10.8 2.1-2.4-1.3-5.9-3.4-3.5-3.2 3.8-6.2 8-10.7 10-2.9 1.3-0.5 5.6 2.4 4.3z"/>
				</g>
				<g id="&lt;Group&gt;">
					<path id="&lt;Path&gt;" class="s6" d="m296.3 229.6c4.4-3.6 8.3-7.6 11.6-12.2 1.9-2.5-2.3-5-4.2-2.5-3.1 4.2-6.8 7.9-10.9 11.2-2.4 2 1.1 5.5 3.5 3.5z"/>
				</g>
				<g id="&lt;Group&gt;">
					<path id="&lt;Path&gt;" class="s6" d="m294.4 247.3c6.5 1.7 11.1-7.2 14-11.5 1.8-2.7-2.4-5.2-4.2-2.5-1.4 2-2.7 4-4.2 5.9-0.8 1-2.8 3.7-4.3 3.3-3-0.8-4.4 3.9-1.3 4.8z"/>
				</g>
				<g id="&lt;Group&gt;">
					<path id="&lt;Path&gt;" class="s6" d="m297.3 270c4.5-2.3 7-6.7 10.5-10.1 2.2-2.3-1.2-5.8-3.5-3.5-3.1 3.1-5.4 7.2-9.4 9.3-2.8 1.5-0.4 5.7 2.4 4.3z"/>
				</g>
				<g id="&lt;Group&gt;">
					<path id="&lt;Path&gt;" class="s6" d="m297.8 287.7c3.7-1.5 6.4-4.3 8.8-7.4 0.9-1 0.2-2.7-0.8-3.3-1.3-0.8-2.6-0.2-3.4 0.8-1.9 2.4-4.2 4.4-7 5.6-1.3 0.5-1.5 2.3-0.9 3.4 0.7 1.2 2.1 1.4 3.3 0.9z"/>
				</g>
				<g id="&lt;Group&gt;">
					<path id="&lt;Path&gt;" class="s6" d="m295.7 33.6c4-3.9 7.7-8.3 11-12.8 1.9-2.6-2.4-5.1-4.2-2.5q-4.7 6.3-10.2 11.8c-2.3 2.2 1.1 5.8 3.4 3.5z"/>
				</g>
			</g>
			<path id="&lt;Path&gt;" class="s5" d="m319.6 167.1c-6.1-1.6-13.1 0.1-18.7 2.6-2.7 1.2-5.1 2.6-7.4 4.6-1.7 1.4-4.8 4.2-4.5 4.3l-3 0.4c-6.4-0.4-17.3 5.4-18.8 11.6-1.9 8.1 3 17 10.6 19.9 7.5 2.9 17.6-0.5 25.1-1.9 9.2-1.7 15.9-5.5 20.9-13.5 5.5-8.6 8.8-24.7-4.2-28z"/>
			<path id="&lt;Path&gt;" class="s8" d="m326.9 171.8c-5.1 2.1-9.9 8.5-13.4 11.3-8.9 7.2-19.2 12.1-30.2 15.5-4.6 1.5-9.9 2.6-14.6 2.8 1.9 3.9 5.1 7.1 9.1 8.6 7.5 2.9 17.6-0.5 25.1-1.9 9.2-1.7 15.9-5.5 20.9-13.5 4-6.2 6.8-16.4 3.1-22.8z"/>
			<g id="&lt;Group&gt;">
				<path id="&lt;Path&gt;" class="s6" d="m317.8 166.3c3.7-5 6-11.2 7.8-17.2 0.9-3-3.9-4.4-4.7-1.3-1.7 5.6-3.9 11.3-7.3 16-1.9 2.6 2.3 5.1 4.2 2.5z"/>
			</g>
			<g id="&lt;Group&gt;">
				<path id="&lt;Path&gt;" class="s6" d="m333.1 156.2c2.8-4.5 4.4-9.5 6.6-14.2 1.2-2.9-3-5.4-4.3-2.5-2.1 4.7-3.8 9.7-6.5 14.1-1.7 2.7 2.6 5.3 4.2 2.6z"/>
			</g>
			<g id="&lt;Group&gt;">
				<path id="&lt;Path&gt;" class="s6" d="m350 144.5c2.6-4.6 4.6-9.5 5.8-14.7 0.7-3.1-4.1-4.5-4.8-1.4-1 4.8-2.9 9.3-5.3 13.6-1.5 2.8 2.7 5.3 4.3 2.5z"/>
			</g>
			<g id="&lt;Group&gt;">
				<path id="&lt;Path&gt;" class="s6" d="m362.8 138.8c1.6-3.6 3-7.2 4.5-10.8 1.3-2.9-2.9-5.4-4.2-2.5-1.5 3.6-3 7.2-4.5 10.8-1.3 2.8 2.9 5.4 4.2 2.5z"/>
			</g>
			<g id="&lt;Group&gt;">
				<path id="&lt;Path&gt;" class="s6" d="m231.2 170.8c-1.9-3.5-3.5-7.2-4-11.2-0.5-3.2-5.2-1.9-4.8 1.2 0.6 4.4 2.4 8.6 4.5 12.5 1.6 2.7 5.8 0.3 4.3-2.5z"/>
			</g>
			<g id="&lt;Group&gt;">
				<path id="&lt;Path&gt;" class="s6" d="m242 170.4c-1.8-2.9-3.5-5.8-4-9.3-0.5-3.1-5.3-1.8-4.8 1.3 0.6 3.8 2.5 7.3 4.6 10.5 1.7 2.6 6 0.2 4.2-2.5z"/>
			</g>
			<g id="&lt;Group&gt;">
				<path id="&lt;Path&gt;" class="s6" d="m257.4 172.1c-3.5-3.1-7.5-6.3-8-11.2-0.4-3.1-5.3-3.2-5 0 0.7 6.5 4.8 10.5 9.5 14.6 2.3 2.1 5.8-1.3 3.5-3.4z"/>
			</g>
			<g id="&lt;Group&gt;">
				<path id="&lt;Path&gt;" class="s6" d="m272.8 178.9c-0.1-4.1-1.8-7.7-3-11.5-0.8-3.1-5.6-1.8-4.7 1.2 1 3.4 2.7 6.6 2.7 10.2 0.1 3.2 5 3.2 5 0.1z"/>
			</g>
			<g id="&lt;Group&gt;">
				<path id="&lt;Path&gt;" class="s6" d="m283.5 178.3c-1-3.1-1.9-6.2-2.9-9.3-0.9-3-5.7-1.8-4.7 1.2 1 3.1 1.9 6.3 2.8 9.4 1 3 5.8 1.8 4.8-1.3z"/>
			</g>
		</g>
		<g id="&lt;Group&gt;">
			<g id="&lt;Group&gt;">
				<path id="&lt;Path&gt;" class="s5" d="m1599.6 160.3q0 0.1-0.1 0.2c0.1 0.2 0.1 0 0.1-0.2z"/>
				<path id="&lt;Path&gt;" class="s5" d="m1640.2 103.1c-6.1 0.6-32.6 17-48.4 35.5-4.4 5.2 0.4 15.8-4.5 20.3l12.3 0.7c0 0.1 0 0.5 0 0.7 3.5-8.7 15.8-16.4 22.3-22.7 6.7-6.5 16.9-7.4 28.5-17.5 6.1-10.5-3.4-17.7-10.2-17z"/>
			</g>
			<g id="&lt;Group&gt;">
				<path id="&lt;Path&gt;" class="s5" d="m1595.6 271c0.2 6.6-5 12-11.5 12.1l-3.9 0.1c-6.6 0.1-12-5-12.1-11.5l-5.8-259.5c-0.2-6.5 5-11.9 11.5-12.1l3.9-0.1c6.6-0.1 12 5.1 12.1 11.6z"/>
				<g id="&lt;Group&gt;">
					<path id="&lt;Path&gt;" class="s6" d="m1573.3 39c6-4 12-8.6 15.6-15 1.6-2.8-2.7-5.2-4.3-2.4-3.2 5.7-8.5 9.7-13.9 13.2-2.6 1.7-0.1 5.9 2.6 4.2z"/>
				</g>
				<g id="&lt;Group&gt;">
					<path id="&lt;Path&gt;" class="s6" d="m1573.7 58c5.1-3.8 10.3-7.5 13.7-13 1.7-2.7-2.6-5.1-4.3-2.4-2.9 4.8-7.5 7.9-11.9 11.2-2.6 1.9 0 6.1 2.5 4.2z"/>
				</g>
				<g id="&lt;Group&gt;">
					<path id="&lt;Path&gt;" class="s6" d="m1574.9 79.6c5.1-3.2 9.5-7.3 13-12.3 1.8-2.6-2.5-5-4.3-2.4-3 4.3-6.9 7.8-11.3 10.5-2.7 1.7-0.1 5.9 2.6 4.2z"/>
				</g>
				<g id="&lt;Group&gt;">
					<path id="&lt;Path&gt;" class="s6" d="m1574.7 99.9c5.6-3.7 11-7.6 14.3-13.6 1.5-2.8-2.8-5.2-4.3-2.4-2.9 5.3-7.7 8.6-12.6 11.8-2.7 1.8-0.1 6 2.6 4.2z"/>
				</g>
				<g id="&lt;Group&gt;">
					<path id="&lt;Path&gt;" class="s6" d="m1575.1 120.2c5.7-3.1 10.3-7.4 13.7-13 1.7-2.7-2.6-5-4.3-2.3-2.9 4.8-7 8.5-12 11.1-2.7 1.6-0.2 5.7 2.6 4.2z"/>
				</g>
				<g id="&lt;Group&gt;">
					<path id="&lt;Path&gt;" class="s6" d="m1576.2 140.5c4.8-3.3 9.1-6.9 12.5-11.6 1.8-2.6-2.5-5-4.3-2.4-2.9 4-6.8 7-10.7 9.8-2.6 1.8-0.1 6.1 2.5 4.2z"/>
				</g>
				<g id="&lt;Group&gt;">
					<path id="&lt;Path&gt;" class="s6" d="m1578.5 160.4c4.1-4.2 8.4-8.2 12.2-12.7 2-2.4-1.6-5.9-3.6-3.4-3.8 4.5-8.1 8.5-12.2 12.7-2.2 2.3 1.4 5.7 3.6 3.4z"/>
				</g>
				<g id="&lt;Group&gt;">
					<path id="&lt;Path&gt;" class="s6" d="m1579.1 179.1c4.7-2.6 8.2-7.1 11.1-11.6 1.7-2.7-2.6-5-4.3-2.4-2.5 3.8-5.4 7.6-9.4 9.9-2.8 1.5-0.2 5.7 2.6 4.1z"/>
				</g>
				<g id="&lt;Group&gt;">
					<path id="&lt;Path&gt;" class="s6" d="m1580.2 198.8c4.9-2.4 8.1-7 11.4-11.1 1.9-2.5-1.6-5.9-3.6-3.4-3 3.8-5.9 8.1-10.4 10.3-2.9 1.4-0.3 5.6 2.6 4.2z"/>
				</g>
				<g id="&lt;Group&gt;">
					<path id="&lt;Path&gt;" class="s6" d="m1579.8 217.4c4.2-3.7 8-7.9 11.2-12.5 1.8-2.6-2.5-5-4.3-2.4-3 4.3-6.6 8.1-10.5 11.5-2.4 2.1 1.2 5.5 3.6 3.4z"/>
				</g>
				<g id="&lt;Group&gt;">
					<path id="&lt;Path&gt;" class="s6" d="m1578.4 235.1c6.6 1.6 10.9-7.5 13.7-11.9 1.7-2.7-2.6-5.1-4.3-2.4-1.3 2.1-2.5 4.2-4 6.1-0.8 1-2.7 3.8-4.2 3.5-3.1-0.8-4.3 4-1.2 4.7z"/>
				</g>
				<g id="&lt;Group&gt;">
					<path id="&lt;Path&gt;" class="s6" d="m1582.1 257.7c4.4-2.4 6.8-6.9 10.1-10.4 2.2-2.3-1.4-5.7-3.5-3.4-3 3.2-5.2 7.5-9.1 9.6-2.8 1.6-0.2 5.8 2.5 4.2z"/>
				</g>
				<g id="&lt;Group&gt;">
					<path id="&lt;Path&gt;" class="s6" d="m1583.2 275.4c3.6-1.6 6.3-4.5 8.6-7.6 0.8-1.1 0.1-2.8-1-3.4-1.3-0.7-2.5-0.1-3.3 1-1.8 2.5-4.1 4.6-6.9 5.8-1.2 0.6-1.4 2.4-0.8 3.4 0.8 1.3 2.2 1.4 3.4 0.8z"/>
				</g>
				<g id="&lt;Group&gt;">
					<path id="&lt;Path&gt;" class="s6" d="m1572.8 21.6c3.8-4.1 7.3-8.6 10.5-13.2 1.8-2.6-2.5-5-4.3-2.4q-4.4 6.5-9.8 12.2c-2.2 2.3 1.4 5.7 3.6 3.4z"/>
				</g>
			</g>
			<path id="&lt;Path&gt;" class="s5" d="m1601 154.2c-6.1-1.4-13.1 0.5-18.6 3.2-2.7 1.3-5 2.8-7.3 4.8-1.5 1.5-4.6 4.4-4.3 4.4l-2.9 0.6c-6.4-0.2-17.2 5.9-18.4 12.2-1.7 8.2 3.4 16.9 11.2 19.5 7.6 2.7 17.6-1.1 25-2.7 9.1-2 15.7-6 20.5-14.1 5.2-8.9 7.9-25.1-5.2-27.9z"/>
			<path id="&lt;Path&gt;" class="s8" d="m1608.5 158.6c-5 2.3-9.7 8.9-13 11.8-8.7 7.5-18.9 12.7-29.8 16.5-4.5 1.6-9.7 2.9-14.5 3.3 2.1 3.8 5.4 6.8 9.5 8.2 7.6 2.7 17.6-1.1 25-2.7 9.1-2 15.7-6 20.4-14.1 3.8-6.4 6.3-16.7 2.4-23z"/>
			<g id="&lt;Group&gt;">
				<path id="&lt;Path&gt;" class="s6" d="m1599.2 153.5c3.5-5.2 5.6-11.5 7.2-17.5 0.8-3.1-4-4.3-4.8-1.2-1.4 5.7-3.4 11.4-6.7 16.3-1.8 2.6 2.5 5 4.3 2.4z"/>
			</g>
			<g id="&lt;Group&gt;">
				<path id="&lt;Path&gt;" class="s6" d="m1614.2 142.8c2.6-4.5 4.1-9.6 6-14.4 1.2-2.9-3.1-5.3-4.3-2.4-1.9 4.8-3.4 9.9-6 14.4-1.6 2.8 2.7 5.2 4.3 2.4z"/>
			</g>
			<g id="&lt;Group&gt;">
				<path id="&lt;Path&gt;" class="s6" d="m1630.6 130.6c2.5-4.7 4.3-9.7 5.3-14.9 0.6-3.1-4.1-4.3-4.7-1.2-0.9 4.8-2.6 9.4-4.9 13.8-1.4 2.8 2.9 5.2 4.3 2.3z"/>
			</g>
			<g id="&lt;Group&gt;">
				<path id="&lt;Path&gt;" class="s6" d="m1643.3 124.5c1.4-3.7 2.7-7.3 4.1-10.9 1.2-3-3.1-5.4-4.3-2.4-1.4 3.6-2.7 7.3-4.1 10.9-1.2 2.9 3.1 5.3 4.3 2.4z"/>
			</g>
		</g>
	</g>
</svg>