<svg version="1.2" xmlns="http://www.w3.org/2000/svg" viewBox="0 0 204 91" width="204" height="91">
	<title>offer-card-hook</title>
	<style>
		.s0 { opacity: .5;mix-blend-mode: multiply;fill: #b06e0e } 
		.s1 { fill: #b06e0e } 
		.s2 { fill: #8c5700 } 
		.s3 { fill: #c08b3e } 
		.s4 { mix-blend-mode: multiply;fill: #8c5700 } 
		.s5 { fill: #af663d } 
		.s6 { fill: #843e1a } 
		.s7 { opacity: .5;fill: #ffffff } 
	</style>
	<g id="Folder 1 copy">
		<g id="&lt;Group&gt;">
			<g id="&lt;Group&gt;" style="display: none">
				<path id="&lt;Path&gt;" class="s0" d="m201.4 83.9c-12.6-13.5-75.3-79.1-99-81.2 26 7.8 83.2 67.5 95.2 80.3 1.4 1.6 1.2 3.8-0.5 5.2-0.4 0.3-0.8 0.5-1.3 0.6 0.7 0.7 1.7 1.1 2.6 1.1 0.9 0 1.8-0.3 2.6-0.9 1.7-1.3 1.8-3.6 0.4-5.1z"/>
				<g id="&lt;Group&gt;">
					<g id="&lt;Group&gt;">
						<path id="&lt;Path&gt;" class="s1" d="m198.4 89.9c-1.1 0-2.2-0.5-3-1.3-29.1-31-80.4-79.8-94.3-78.7-8.4 0.6-53.7 40.3-92.7 78.2-1.5 1.5-4 1.6-5.6 0.2-1.6-1.4-1.6-3.7-0.1-5.1 13.5-13.3 82.1-79.3 97.7-80.6 22-1.7 88 67.4 101 81.3 1.4 1.5 1.3 3.8-0.4 5.1-0.8 0.6-1.7 0.9-2.6 0.9z"/>
						<path id="&lt;Compound Path&gt;" fill-rule="evenodd" class="s2" d="m198.4 90.9c-1.3 0-2.6-0.6-3.5-1.5-16.8-17.9-36.6-37.1-52.8-51.4-26.3-23-36.8-27.4-41-27.1-8.1 0.7-54.1 41-92.1 78.1-1.8 1.7-4.7 1.8-6.6 0.2-1-0.9-1.6-2.1-1.6-3.4-0.1-1.3 0.4-2.6 1.4-3.5 13.6-13.2 82.2-79.4 98.1-80.7 22.5-1.7 88.6 67.5 101.7 81.5 0.8 0.9 1.3 2.1 1.2 3.4-0.1 1.3-0.7 2.5-1.8 3.4-0.8 0.6-1.9 1-3 1zm-96.9-82.1c14.9 0 65.6 48.2 94.5 79 0.6 0.6 1.5 1 2.4 1 0.8 0 1.6-0.2 2.2-0.7 0.5-0.5 0.9-1.1 0.9-1.8 0.1-0.6-0.2-1.2-0.6-1.7-5.7-6-25.8-27.2-47.1-46.4-25.9-23.3-44.4-35.2-53.4-34.5-4.4 0.3-16.5 6.8-49.1 35.6-21.2 18.6-42.2 38.9-48.1 44.7-0.5 0.5-0.8 1.1-0.8 1.7 0 0.6 0.4 1.3 0.9 1.7 1.3 1.1 3.4 1.1 4.6-0.1 19.8-19.3 40.9-38.6 57.9-53.1 13.2-11.4 30.1-25 35.2-25.4q0.3 0 0.5 0z"/>
					</g>
					<path id="&lt;Path&gt;" class="s0" d="m4.6 87.3c-0.5 0.5-1.1 0.8-1.8 1 1.6 1.4 4.1 1.3 5.6-0.2 39-37.9 84.3-77.6 92.7-78.2q0.3 0 0.6 0-2.6-0.9-4.5-0.9c-8.4 0.7-53.7 40.4-92.6 78.3z"/>
					<path id="&lt;Path&gt;" class="s3" d="m190.7 81.1q-0.4 0-0.8-0.3c-0.6-0.7-60.5-68.2-88.9-74.7-8.5-1.9-57.4 42.6-88.1 73.1-0.4 0.3-1 0.4-1.4 0-0.4-0.3-0.5-0.9-0.1-1.3 7.9-7.8 77.7-76.5 90.1-73.6 29 6.6 87.5 72.5 90 75.3 0.3 0.4 0.2 1-0.2 1.3-0.1 0.1-0.4 0.2-0.6 0.2z"/>
				</g>
				<g id="&lt;Group&gt;" style="opacity: .5">
					<path id="&lt;Path&gt;" class="s4" d="m18.4 68.6c-0.4 0-0.7-0.2-0.9-0.5-0.1-0.5 0.1-1 0.6-1.1 0.3-0.1 6.6-2 12.2-0.6 0.4 0.2 0.7 0.6 0.6 1.1-0.2 0.4-0.7 0.7-1.1 0.5-5.1-1.2-11.1 0.6-11.1 0.6q-0.2 0-0.3 0z"/>
				</g>
				<g id="&lt;Group&gt;" style="opacity: .5">
					<path id="&lt;Path&gt;" class="s4" d="m25 62.4c-0.4 0-0.8-0.2-0.9-0.5-0.1-0.5 0.1-0.9 0.6-1.1 0.3-0.1 6.6-2 12.1-0.6 0.5 0.2 0.8 0.6 0.7 1.1-0.2 0.4-0.7 0.7-1.1 0.6-5.1-1.3-11.1 0.5-11.1 0.5q-0.2 0-0.3 0z"/>
				</g>
				<g id="&lt;Group&gt;" style="opacity: .5">
					<path id="&lt;Path&gt;" class="s4" d="m30.8 56.5c-0.4 0-0.7-0.2-0.9-0.5-0.1-0.5 0.1-1 0.6-1.1 0.3-0.1 6.6-2 12.1-0.6 0.5 0.2 0.8 0.6 0.7 1.1-0.2 0.4-0.7 0.7-1.1 0.6-5.1-1.3-11.1 0.5-11.1 0.5q-0.2 0-0.3 0z"/>
				</g>
				<g id="&lt;Group&gt;" style="opacity: .5">
					<path id="&lt;Path&gt;" class="s4" d="m38.6 50.8c-0.3 0-0.7-0.2-0.8-0.6-0.2-0.4 0.1-0.9 0.5-1.1 0.3 0 6.6-1.9 12.2-0.5 0.5 0.1 0.8 0.6 0.6 1-0.1 0.5-0.6 0.7-1.1 0.6-5-1.3-11 0.5-11.1 0.5q-0.1 0.1-0.3 0.1z"/>
				</g>
				<g id="&lt;Group&gt;" style="opacity: .5">
					<path id="&lt;Path&gt;" class="s4" d="m45.2 44.6c-0.4 0-0.7-0.2-0.8-0.6-0.2-0.4 0.1-0.9 0.5-1.1 0.3 0 6.6-1.9 12.2-0.5 0.5 0.1 0.7 0.6 0.6 1-0.1 0.5-0.6 0.7-1.1 0.6-5-1.3-11 0.5-11.1 0.5q-0.1 0.1-0.3 0.1z"/>
				</g>
				<g id="&lt;Group&gt;" style="opacity: .5">
					<path id="&lt;Path&gt;" class="s4" d="m51.3 38.7c-0.3 0-0.7-0.2-0.8-0.6-0.2-0.4 0.1-0.9 0.5-1.1 0.3 0 6.5-1.9 11.9-0.5 0.5 0.1 0.7 0.6 0.6 1-0.1 0.5-0.6 0.7-1.1 0.6-4.9-1.3-10.7 0.5-10.8 0.5q-0.1 0.1-0.3 0.1z"/>
				</g>
				<g id="&lt;Group&gt;" style="opacity: .5">
					<path id="&lt;Path&gt;" class="s4" d="m59 32.6q-0.6 0-0.9-0.6c-0.1-0.4 0.2-0.9 0.6-1 0.3-0.1 6.5-1.8 12-0.3 0.4 0.2 0.7 0.6 0.6 1.1-0.2 0.4-0.7 0.7-1.2 0.5-4.9-1.3-10.8 0.3-10.8 0.3q-0.2 0-0.3 0z"/>
				</g>
				<g id="&lt;Group&gt;" style="opacity: .5">
					<path id="&lt;Path&gt;" class="s4" d="m65.6 26.8c-0.4 0-0.7-0.3-0.8-0.6-0.2-0.5 0.1-0.9 0.6-1.1 0.2 0 6.5-1.7 11.9-0.2 0.5 0.1 0.7 0.6 0.6 1.1-0.2 0.4-0.7 0.6-1.1 0.5-4.9-1.4-10.8 0.2-10.9 0.2q-0.1 0.1-0.3 0.1z"/>
				</g>
				<g id="&lt;Group&gt;" style="opacity: .5">
					<path id="&lt;Path&gt;" class="s4" d="m71.5 21.2c-0.4 0-0.8-0.2-0.9-0.6-0.1-0.4 0.2-0.9 0.6-1 0.3-0.1 6.5-1.8 12-0.3 0.4 0.2 0.7 0.6 0.6 1.1-0.2 0.4-0.7 0.7-1.2 0.5-4.9-1.3-10.8 0.3-10.8 0.3q-0.2 0-0.3 0z"/>
				</g>
				<g id="&lt;Group&gt;" style="opacity: .5">
					<path id="&lt;Path&gt;" class="s4" d="m79.9 16.5c-0.4 0-0.8-0.3-0.9-0.6-0.1-0.5 0.1-0.9 0.6-1.1 0.3 0 6.5-1.7 11.9-0.2 0.5 0.1 0.8 0.6 0.6 1.1-0.1 0.4-0.6 0.6-1.1 0.5-4.9-1.4-10.8 0.2-10.9 0.2q-0.1 0.1-0.2 0.1z"/>
				</g>
				<g id="&lt;Group&gt;" style="opacity: .5">
					<path id="&lt;Path&gt;" class="s4" d="m87.2 10.8q-0.6 0-0.9-0.6c-0.1-0.4 0.2-0.9 0.7-1 0.2-0.1 6.5-1.8 11.9-0.3 0.4 0.1 0.7 0.6 0.6 1.1-0.2 0.4-0.7 0.6-1.2 0.5-4.8-1.4-10.8 0.2-10.8 0.3q-0.1 0-0.3 0z"/>
				</g>
				<g id="&lt;Group&gt;" style="opacity: .5">
					<path id="&lt;Path&gt;" class="s4" d="m187.2 69.7q-0.1 0-0.3 0c0 0-6-1.8-10.9-0.5-0.5 0.1-1-0.2-1.1-0.6-0.2-0.5 0.1-0.9 0.6-1.1 5.5-1.4 11.8 0.5 12 0.6 0.5 0.2 0.8 0.6 0.6 1.1-0.1 0.3-0.5 0.5-0.9 0.5z"/>
				</g>
				<g id="&lt;Group&gt;" style="opacity: .5">
					<path id="&lt;Path&gt;" class="s4" d="m180.7 63.4q-0.1 0-0.3 0c0 0-6-1.8-10.9-0.5-0.5 0.1-1-0.2-1.2-0.6-0.1-0.5 0.2-0.9 0.7-1 5.5-1.5 11.7 0.4 12 0.5 0.5 0.2 0.7 0.6 0.6 1.1-0.2 0.3-0.5 0.5-0.9 0.5z"/>
				</g>
				<g id="&lt;Group&gt;" style="opacity: .5">
					<path id="&lt;Path&gt;" class="s4" d="m175 57.4q-0.2 0-0.3 0c-0.1 0-6-1.8-11-0.5-0.5 0.1-1-0.2-1.1-0.6-0.1-0.5 0.1-0.9 0.6-1 5.5-1.5 11.8 0.4 12.1 0.5 0.4 0.2 0.7 0.6 0.5 1.1-0.1 0.3-0.5 0.5-0.8 0.5z"/>
				</g>
				<g id="&lt;Group&gt;" style="opacity: .5">
					<path id="&lt;Path&gt;" class="s4" d="m168.3 51.3q-0.1 0-0.3 0c-0.1-0.1-6-1.9-11-0.6-0.4 0.1-0.9-0.1-1.1-0.6-0.1-0.4 0.2-0.9 0.6-1 5.6-1.4 11.8 0.5 12.1 0.6 0.5 0.1 0.7 0.6 0.6 1q-0.3 0.6-0.9 0.6z"/>
				</g>
				<g id="&lt;Group&gt;" style="opacity: .5">
					<path id="&lt;Path&gt;" class="s4" d="m161.9 45.3q-0.1 0-0.3-0.1c0 0-6-1.8-10.9-0.5-0.5 0.1-1-0.1-1.1-0.6-0.2-0.4 0.1-0.9 0.6-1 5.5-1.4 11.8 0.5 12 0.6 0.5 0.1 0.7 0.6 0.6 1-0.1 0.4-0.5 0.6-0.9 0.6z"/>
				</g>
				<g id="&lt;Group&gt;" style="opacity: .5">
					<path id="&lt;Path&gt;" class="s4" d="m154.6 39.3q-0.1 0-0.3-0.1c0 0-5.8-1.8-10.6-0.5-0.5 0.1-1-0.1-1.1-0.6-0.2-0.4 0.1-0.9 0.6-1 5.4-1.4 11.5 0.5 11.7 0.6 0.5 0.1 0.7 0.6 0.6 1q-0.3 0.6-0.9 0.6z"/>
				</g>
				<g id="&lt;Group&gt;" style="opacity: .5">
					<path id="&lt;Path&gt;" class="s4" d="m148.1 32.8q-0.1 0-0.2 0c-0.1 0-6-1.6-10.8-0.2-0.5 0.1-1-0.1-1.1-0.6-0.2-0.4 0.1-0.9 0.6-1 5.3-1.6 11.5 0.1 11.8 0.2 0.5 0.1 0.7 0.6 0.6 1.1-0.1 0.3-0.5 0.5-0.9 0.5z"/>
				</g>
				<g id="&lt;Group&gt;" style="opacity: .5">
					<path id="&lt;Path&gt;" class="s4" d="m140.5 27.2q-0.2 0-0.3 0c-0.1 0-5.9-1.7-10.7-0.3-0.5 0.2-1-0.1-1.2-0.5-0.1-0.5 0.1-0.9 0.6-1.1 5.4-1.5 11.6 0.2 11.8 0.3 0.5 0.1 0.8 0.6 0.6 1-0.1 0.4-0.5 0.6-0.8 0.6z"/>
				</g>
				<g id="&lt;Group&gt;" style="opacity: .5">
					<path id="&lt;Path&gt;" class="s4" d="m134.7 21.5q-0.2 0-0.3 0c-0.1 0-5.9-1.6-10.7-0.2-0.5 0.1-1-0.1-1.2-0.6-0.1-0.4 0.1-0.9 0.6-1 5.4-1.6 11.6 0.1 11.8 0.2 0.5 0.2 0.8 0.6 0.6 1.1-0.1 0.3-0.5 0.5-0.8 0.5z"/>
				</g>
				<g id="&lt;Group&gt;" style="opacity: .5">
					<path id="&lt;Path&gt;" class="s4" d="m126.4 16.7q-0.2 0-0.3 0c-0.1 0-5.9-1.6-10.7-0.2-0.5 0.1-1-0.2-1.2-0.6-0.1-0.4 0.1-0.9 0.6-1 5.4-1.6 11.6 0.1 11.8 0.2 0.5 0.1 0.8 0.6 0.6 1-0.1 0.4-0.4 0.6-0.8 0.6z"/>
				</g>
				<g id="&lt;Group&gt;" style="opacity: .5">
					<path id="&lt;Path&gt;" class="s4" d="m119.1 10.9q-0.1 0-0.3 0c0 0-5.9-1.6-10.7-0.2-0.5 0.1-1-0.1-1.1-0.6-0.2-0.4 0.1-0.9 0.5-1 5.4-1.6 11.6 0.1 11.9 0.2 0.4 0.1 0.7 0.6 0.6 1.1-0.2 0.3-0.5 0.5-0.9 0.5z"/>
				</g>
				<g id="&lt;Group&gt;" style="opacity: .5">
					<path id="&lt;Path&gt;" class="s4" d="m95.2 5.8c-0.4 0-0.8-0.2-0.9-0.6-0.1-0.4 0.1-0.9 0.6-1 0.3-0.1 6.5-1.8 11.9-0.3 0.5 0.2 0.8 0.6 0.6 1.1-0.1 0.4-0.6 0.7-1.1 0.5-4.9-1.3-10.8 0.3-10.9 0.3q-0.1 0-0.2 0z"/>
				</g>
			</g>
			<g id="&lt;Group&gt;">
				<g id="&lt;Group&gt;">
					<path id="&lt;Path&gt;" class="s5" d="m99.1 18.6l15.5-4.4-1.6-6.3-13.9 4.4z"/>
					<path id="&lt;Compound Path&gt;" fill-rule="evenodd" class="s6" d="m99.1 19.6q-0.3 0-0.5-0.2c-0.2-0.2-0.3-0.5-0.3-0.8v-6.3c0-0.5 0.2-0.9 0.6-1.1l13.9-4.3c0.4-0.1 0.8 0.2 1 0.7l1.6 6.2c0 0.3 0 0.6-0.1 0.9-0.1 0.2-0.3 0.4-0.5 0.5l-15.5 4.4q-0.1 0-0.2 0zm0.9-6.5v4.2l13.5-3.9-1.1-4.2z"/>
				</g>
				<g id="&lt;Group&gt;">
					<path id="&lt;Path&gt;" fill-rule="evenodd" class="s5" d="m114.6 19c-5 0-8.9-3.9-8.9-8.8 0-4.9 3.9-8.9 8.9-8.9 4.9 0 8.9 4 8.9 8.9 0 4.9-4 8.8-8.9 8.8z"/>
					<path id="&lt;Compound Path&gt;" fill-rule="evenodd" class="s6" d="m114.6 20.1c-5.4 0-9.8-4.5-9.8-9.9 0-5.5 4.4-9.9 9.8-9.9 5.4 0 9.7 4.4 9.7 9.9 0 5.4-4.3 9.9-9.7 9.9zm8.1-9.9c0-4.3-3.6-7.8-8.1-7.8-4.5 0-8.1 3.5-8.1 7.8 0 4.3 3.6 7.8 8.1 7.8 4.5 0 8.1-3.5 8.1-7.8z"/>
				</g>
				<path id="&lt;Path&gt;" class="s7" d="m122.2 7.9c0 2.5-2 4.4-4.4 4.4-2.5 0-4.5-1.9-4.5-4.4 0-2.4 2-4.4 4.5-4.4 2.4 0 4.4 2 4.4 4.4z"/>
			</g>
		</g>
	</g>
</svg>