<svg version="1.2" xmlns="http://www.w3.org/2000/svg" viewBox="0 0 1050 313" width="1050" height="313"><style>.a{fill:#895b3d}.b{fill:#c68655}.c{fill:#da9859}.d{opacity:.2;fill:#ffdc78}</style><path class="a" d="m1046 247.8c-29.3-14.1-63-18-96.8-19.5-41.9-1.9-84.4 2.4-126.7 0.5-52.1-2.4-102.3-17.5-154.3-20.2-128.8-6.8-257.1 25.6-384.5 40.1-38.4 4.4-74.8 11.7-112.9 6-24.2-3.6-48.9-3.8-73.6-3.8-23.8 0-49.9 2.1-70.5 8.5l-8.6 1.8c-4.6 5.6-22.9 17.5-16.8 27.4 4.6 7.5 35.8 4.9 44.2 5 22.8 0.2 45.8 2.3 68.1 7.2 32.3 7.2 64.7 3.5 97.8 5.1 44.9 2.3 88.6 8.3 134 6.5 48.7-1.9 97.7-1.7 146.6-1.7 99.7 0 203 5 302.5-4.7 60.3-5.9 120.2-7.5 180-17.1 25.5-4.2 48.5-10.4 75-10.9-0.3-10.1-3.2-19.3-3.5-30.2z"/><path class="b" d="m123.3 179.6c-21.6 1.8-44 4.5-65.6 7.4-21.2 26.2-37.5 54.3-48.2 83.9 59.2 5.7 119.9 0 179 0.4 145 1.2 286.8-24.3 432.5-23.2 51.5 0.4 95.6-10.1 146.4-6.8 35.6 2.3 75.6 12.8 110.8 11.6 57.1-1.9 113.1-0.6 170-0.1-27.3-58.6-76.9-110.9-142.3-152.5-16.2 0.5-33.2 0.1-34.5-9.8 6-0.3 12.4 0.2 18.7 0.2q-13.7-8.1-28.3-15.5c-15.9 0.2-32.2-0.1-48.2 0.6-16.3 0.7-33.2 1.9-50 1-15.4-0.8-25.3-8.1-39.7-11.6 22.3 0.8 46.5-2.7 69-4.7 8.3-0.7 17-2.8 25.9-5.3-81.8-34-178.4-54.1-282-54.9-188.4-1.5-354.9 61.1-452.1 157 37.8 4.3 77.2 7.2 114.4 13.5-10.1 4.2-25.5 2-37.3 3.6-12.9 1.7-25.4 4.2-38.5 5.2z"/><path class="c" d="m720.4 159.1c-58.2-3.8-117.9-8.5-173.3-17-55.7-8.6-104.3-22.5-160.6-30.6-45.5-6.5-92.1-14.7-138.9-18.2-20.6-1.5-49.6-1.6-71.9-4.7q-10 5.9-19.5 12c6.9 0.3 13.5 0.6 19.5 1 40.1 2.5 78.5 6.4 117.3 11.6 37.5 5 75.5 11.1 111 18.5 46.1 9.7 86.6 23.5 133.8 32.3 80.9 14.9 171.1 19 258.1 19.7 51.5 0.4 107.9 0.3 158.2-3.6 11.8-0.9 26.2-3.2 41.4-5.4q-6.7-7.4-13.9-14.5c-84.7 5.8-176.5 4.4-261.2-1.1z"/><path class="c" d="m255.1 66.1c-5.6-0.6-18.2-1.8-28.5-3.7q-19.9 9-38.3 19.1c23.2 0.3 51.5 3.2 64.7 4.6 41.7 4.3 82.9 9.6 122.4 16.4 80 13.8 159.2 29.7 241.7 40.6 77.4 10.2 161.2 13.3 242.8 11.1 37.1-1 73.7-2.4 110.3-4.9q-13.9-12.8-29.4-24.6c-39.6 3.4-79.9 5.9-120.8 6.9-55.7 1.3-129.5 2.7-176.2-13.4-28.5-9.8-32.8-24.6-55.3-35.5-18.5-9-42.6-9.4-68.5-8-49.5 2.7-96.5 1-145.7-1.3-39.2-1.9-81-3.3-119.2-7.3z"/><path class="c" d="m293.8 36.4q0.7 0.1 1.4 0.2c34.3 4.5 67.7 1.2 102.5 0.8 45.2-0.5 88.7 4.1 133.7 3.5 33.7-0.5 48.3-7.7 78.6-12.3 30.5-4.6 62.2 3.8 93.8 4 13.3 0.1 32-0.4 50.5-0.3-66.4-20-140-31.4-217.5-32-87.2-0.7-169.8 12.4-243 36.1z"/><path class="c" d="m169.5 242.2c39.6-3.3 63.3-17.7 99.6-24.7 85.5-16.6 178.6-21.6 272.6-17.3 52.4 2.3 97.6 9.4 148.5 15.4 52.2 6.2 107.5 7.8 161.8 7.1 46.7-0.6 95.1 0.1 141.9-0.5 12.6-0.2 25-0.3 37.4-0.5-7.5-11.9-15.9-23.5-25.2-34.7-48.8 4.7-98.2 5.6-148.5 5.2-90.9-0.8-180.7 1.1-268.6-11.8-99-14.5-188.5-38-284.5-55.3-45.2-8.1-93.8-11.3-142.4-9.3-7.4 0.3-18.4 0.5-29.6 1.1-17.4 12.7-33.4 26.2-47.8 40.4 37.8 4.3 77.2 7.2 114.4 13.5-10.1 4.2-25.5 2-37.3 3.6-12.9 1.7-25.4 4.2-38.5 5.3-21.6 1.7-44 4.4-65.6 7.3-14.8 18.3-27.2 37.6-37.1 57.6 47.9 4 104 1.4 148.9-2.4z"/><path class="c" d="m714.8 38.3c-20.4-0.7-40.1-2.8-60.2-3.7-24.6-1.1-41.3 2.4-63.4 5.9-61.2 9.8-139.1 6.8-203.2 4.8-30.9-0.9-80.1 2.4-115.8-1.4q-15.3 5.5-29.9 11.7c1.3 0.2 2.4 0.4 3.3 0.5 71.6 11.7 160.7 9.7 237.1 11.7 38.4 1.1 93.8-4.4 128.5 5.2 16.6 4.7 25.5 15.3 37.1 21.9 11.5 6.5 27.6 14.8 43.7 19.4 30.9 8.9 75.7 7.2 111.2 7.5 44.6 0.3 87.3-0.6 130.3-2.6q-13.2-9.7-27.6-18.9c-16.2 0.5-33.2 0.1-34.5-9.8 6-0.3 12.4 0.2 18.7 0.2q-13.7-8.1-28.3-15.5c-15.9 0.2-32.2-0.1-48.2 0.6-16.3 0.7-33.2 1.9-50 1-15.4-0.8-25.3-8.1-39.7-11.6 22.3 0.8 46.5-2.7 69-4.7 8.3-0.7 17-2.8 25.9-5.3q-19-7.9-39.1-14.8c-23.3 0.4-54.4-1.8-64.9-2.1z"/><path class="c" d="m1036.8 230.9c-16.7 0.5-33.4 0.6-49.7 1.1-62.3 1.6-122.1 3.4-184.4-0.9-121.6-8.3-239.2-28.8-363.5-23.7-53.4 2.2-99.7 8.6-145.3 19.8-48.5 11.9-98.4 20.8-155.2 22.9-40.3 1.5-79.2 0-118.8-3.4q-0.1 0-0.3 0-5.7 11.9-10.1 24.2c59.2 5.7 121.2 2.7 180.4 3.2 145 1.1 285.9-21.7 431.6-20.6 51.5 0.4 103.8-2.7 154.6 0.6 35.7 2.3 66.9 0 102.1-1.2 57.1-1.9 113.1-0.6 170-0.1q-5.2-11.1-11.4-21.9z"/><g style="opacity:.5"><path class="a" d="m1048.2 252.8c-17.8-38.2-46.3-73.7-81.3-105.4-4.5 12.7 26.4 36.3 31 43 5.4 7.8 7.9 16.6 12.6 24.8 4.2 7.5 12.2 14.9 13.9 22.8-10.4 1.6-110.2 7.4-155.1 5.3-46.1-2.2-100.5-8.1-146.2-1.3-58.6 8.7-123.2 0-183.8 0-19.4 0-39.7-1.6-58.7 1.6-19.8 3.2-40.4 9.6-60.4 10-28.6 0.5-57.8 2.5-86.2 2.5-107.7-0.1-216.5 7.5-323.5 8.7q-1.2 3-2.3 6.1c59.2 5.7 123.6 1.4 182.7 3.1 91.1 2.5 251.1-15.6 408.1-20.5 132.8-4.2 252.7 0.3 278-0.6 28.6-1 84-0.9 171.2-0.1z"/><path class="a" d="m81.5 194.5c20.9-0.9 41.8-3.4 61.9-7.3 15.1-2.9 50.3 3.5 58.9-11.8-1.3-1.9-3.1-3.2-5.4-4.3-10.1 3.8-25 1.8-36.4 3.3-12.9 1.7-25.3 4.2-38.5 5.2-21.6 1.8-44 4.5-65.6 7.4q-4.1 5.1-7.9 10.3c11.1-2.1 23.2-2.3 33-2.8z"/><path class="a" d="m194.8 170.3c-3-1-6.7-1.5-10.7-1.7q5.4 0.8 10.7 1.7z"/></g><path class="d" d="m605 61.1c-16-21.7-58.2-19.9-81.1-22.7-42.5-5.2-88.8-6.3-130.9 2.3-32.4 6.7-65 12.7-95.9 24.9-25.7 10.1-46.7 14.5-72.8 19.7-9.5 1.9-60.7 14.3-50.5 33 4.8 8.8 31.2 9.3 39.9 15 10.5 6.8 20.2 21.4 17.7 35.3-2.9 15.6-17 17.3-28.9 22.1-34.3 13.7-64 10.1-99.4 13.3-23 2-54.4 12-51.1 43.5l2.6 5.4c1.4 8.6 48.8-3.4 57.7-5.3 34.2-7.4 69.1-6.2 104-2.8 35.3 3.5 64.7 1.6 98.8-6.5 53-12.6 110.1-12.4 159-39.8 17.1-9.5 27.1-13.2 27-35.3-0.1-13.6-10.9-31.2-6.8-43.5 8.7-26 55.8-28.5 76.1-34.1 13-3.5 48.1-6.1 34.6-24.5z"/></svg>