<svg version="1.2" xmlns="http://www.w3.org/2000/svg" viewBox="0 0 438 438" width="438" height="438">
	<title>New Project</title>
	<defs>
		<linearGradient id="g1" x2="1" gradientUnits="userSpaceOnUse" gradientTransform="matrix(0,-366.647,366.647,0,35.447,401.931)">
			<stop offset="0" stop-color="#4e2a21"/>
			<stop offset="1" stop-color="#a36841"/>
		</linearGradient>
		<linearGradient id="g2" x2="1" gradientUnits="userSpaceOnUse" gradientTransform="matrix(0,-376.348,376.349,0,30.596,406.782)">
			<stop offset="0" stop-color="#63433b"/>
			<stop offset=".504" stop-color="#a36841"/>
			<stop offset="1" stop-color="#ffc255"/>
		</linearGradient>
		<linearGradient id="g3" x2="1" gradientUnits="userSpaceOnUse" gradientTransform="matrix(0,-376.348,376.349,0,30.596,406.782)">
			<stop offset="0" stop-color="#63433b"/>
			<stop offset=".504" stop-color="#a36841"/>
			<stop offset="1" stop-color="#ffc255"/>
		</linearGradient>
		<linearGradient id="g4" x2="1" gradientUnits="userSpaceOnUse" gradientTransform="matrix(0,-238.155,238.154,0,99.695,337.68)">
			<stop offset="0" stop-color="#f4d6a6"/>
			<stop offset=".589" stop-color="#f7edd2"/>
			<stop offset="1" stop-color="#ffffff"/>
		</linearGradient>
	</defs>
	<style>
		.s0 { fill: url(#g1) } 
		.s1 { fill: url(#g2) } 
		.s2 { fill: url(#g3) } 
		.s3 { fill: #ffcf83 } 
		.s4 { fill: #b7724b } 
		.s5 { fill: url(#g4) } 
		.s6 { fill: #42210b } 
	</style>
	<g id="no_button">
		<g id="button 14 ">
			<path id="&lt;Path&gt;" class="s0" d="m402.1 218.6c0 101.3-82.1 183.3-183.3 183.3-101.3 0-183.4-82-183.4-183.3 0-101.2 82.1-183.3 183.4-183.3 101.2 0 183.3 82.1 183.3 183.3z"/>
			<path id="&lt;Path&gt;" class="s1" d="m329.8 249.9l75.1-3.5c1.3-9.1 2-18.4 2-27.8 0-13.2-1.3-26.2-3.9-38.6l-84.1-8.8 80.2-6.3c-9.1-30.7-25.8-58.1-48-80.1l-141.4-12h128c-32.4-26.5-73.8-42.4-118.9-42.4-85.3 0-157.3 56.8-180.4 134.6l90.6 7.7-94.5 7.6c-2.5 12.3-3.9 25.2-3.9 38.3 0 9.6 0.7 19.1 2.1 28.4l48.1 5.9-44.4 12.2c10.2 40.3 33.5 75.4 65.1 100.6l16.7-13.5-3.6 23.1q9.7 6.4 20.1 11.6l14-18.9v25.3c21.7 8.7 45.3 13.5 70.1 13.5 33.4 0 64.7-8.7 91.9-24l-4.1-22.7 15.5 15.8c39.7-26.2 69-67.1 80-114.9z"/>
			<path id="&lt;Path&gt;" class="s2" d="m329.8 249.9l75.1-3.5c1.3-9.1 2-18.4 2-27.8 0-13.2-1.3-26.2-3.9-38.6l-84.1-8.8 80.2-6.3c-9.1-30.7-25.8-58.1-48-80.1l-141.4-12h128c-32.4-26.5-73.8-42.4-118.9-42.4-85.3 0-157.3 56.8-180.4 134.6l90.6 7.7-94.5 7.6c-2.5 12.3-3.9 25.2-3.9 38.3 0 9.6 0.7 19.1 2.1 28.4l48.1 5.9-44.4 12.2c10.2 40.3 33.5 75.4 65.1 100.6l16.7-13.5-3.6 23.1q9.7 6.4 20.1 11.6l14-18.9v25.3c21.7 8.7 45.3 13.5 70.1 13.5 33.4 0 64.7-8.7 91.9-24l-4.1-22.7 15.5 15.8c39.7-26.2 69-67.1 80-114.9z"/>
			<path id="&lt;Path&gt;" class="s3" d="m209.7 72.8q70.7 8.6 141.4 17.2c20.9 20.7 36.9 46.4 46.4 75.1l1.6-0.2c-9.1-30.7-25.8-58.1-48-80.1l-80.6-6.8q-30.4-2.6-60.8-5.2z"/>
			<path id="&lt;Path&gt;" class="s3" d="m318.9 171.2q42 7 84.1 13.9c2.4 11.8 3.7 24 3.9 36.5 0-1 0-2 0-3 0-13.2-1.3-26.2-3.9-38.6l-55.7-5.8q-14.2-1.5-28.4-3z"/>
			<path id="&lt;Path&gt;" class="s4" d="m67.8 256.4l-31.4 8.7c0.4 1.6 0.9 3.2 1.3 4.8q21.6-8.5 43.1-17-6.5 1.8-13 3.5z"/>
			<path id="&lt;Path&gt;" class="s4" d="m329.8 249.9q35.5 8 71 16.1c0.5-1.7 0.9-3.3 1.3-5l-46.5-7.1q-12.9-2-25.8-4z"/>
			<path id="&lt;Path&gt;" class="s3" d="m218.8 35.6c42.1 0 80.9 13.9 112.3 37.2h6.6c-32.4-26.5-73.8-42.4-118.9-42.4-85.3 0-157.3 56.8-180.4 134.6l1.6 0.1c24.7-75.2 95.3-129.5 178.8-129.5z"/>
			<path id="&lt;Path&gt;" class="s3" d="m34.5 185.4q47.3-6.3 94.5-12.7-15.6 1.2-31.2 2.5l-63.3 5.1c-2.5 12.3-3.9 25.2-3.9 38.3 0 1 0 2 0.1 3 0.1-12.4 1.4-24.5 3.8-36.2z"/>
		</g>
		<g id="symbol 14 ">
			<path id="&lt;Path&gt;" class="s5" d="m249.2 324.9v-75.9h75.9c7 0 12.7-5.7 12.7-12.8v-35.2c0-7.1-5.7-12.8-12.7-12.8h-75.9v-75.9c0-7-5.7-12.8-12.8-12.8h-35.3c-7 0-12.7 5.8-12.7 12.8v75.9h-75.9c-7.1 0-12.8 5.7-12.8 12.8v35.2c0 7.1 5.7 12.8 12.8 12.8h75.9v75.9c0 7.1 5.7 12.8 12.7 12.8h35.3c7.1 0 12.8-5.7 12.8-12.8z"/>
			<path id="&lt;Compound Path&gt;" fill-rule="evenodd" class="s6" d="m345.5 201v35.2c0 5.5-2.2 10.6-6 14.5-3.9 3.8-9 5.9-14.4 5.9h-68.3v68.3c0 11.2-9.1 20.4-20.4 20.4h-35.3c-5.4 0-10.5-2.1-14.4-6-3.8-3.8-6-9-6-14.4v-68.3h-68.2c-5.5 0-10.6-2.1-14.4-5.9-3.9-3.9-6-9-6-14.5v-35.2c0-11.3 9.1-20.4 20.4-20.4h68.2v-68.3c0-11.2 9.2-20.4 20.4-20.4h35.3c5.5 0 10.6 2.1 14.4 6 3.9 3.8 6 9 6 14.4v68.3h68.3c5.4 0 10.5 2.1 14.4 5.9 3.8 3.9 6 9 6 14.5zm-20.4-12.8h-75.9v-75.9c0-3.5-1.4-6.7-3.8-9-2.3-2.3-5.5-3.8-9-3.8h-35.3c-7 0-12.7 5.8-12.7 12.8v75.9h-75.9c-7.1 0-12.8 5.7-12.8 12.8v35.2c0 3.6 1.4 6.8 3.7 9.1 2.4 2.3 5.6 3.7 9.1 3.7h75.9v75.9c0 3.5 1.4 6.7 3.7 9 2.3 2.3 5.5 3.8 9 3.8h35.3c7.1 0 12.8-5.7 12.8-12.8v-75.9h75.9c7 0 12.7-5.7 12.7-12.8v-35.2c0-3.6-1.4-6.8-3.7-9.1-2.3-2.3-5.5-3.7-9-3.7z"/>
		</g>
	</g>
</svg>