<svg version="1.2" xmlns="http://www.w3.org/2000/svg" viewBox="0 0 800 800" width="800" height="800">
	<title>New Project</title>
	<defs>
		<linearGradient id="g1" x2="1" gradientUnits="userSpaceOnUse" gradientTransform="matrix(0,-685.393,685.393,0,57.074,743.304)">
			<stop offset="0" stop-color="#4e2a21"/>
			<stop offset="1" stop-color="#a36841"/>
		</linearGradient>
		<linearGradient id="g2" x2="1" gradientUnits="userSpaceOnUse" gradientTransform="matrix(0,-703.528,703.528,0,48.007,752.372)">
			<stop offset="0" stop-color="#63433b"/>
			<stop offset=".504" stop-color="#a36841"/>
			<stop offset="1" stop-color="#ffc255"/>
		</linearGradient>
		<linearGradient id="g3" x2="1" gradientUnits="userSpaceOnUse" gradientTransform="matrix(0,-703.528,703.528,0,48.007,752.372)">
			<stop offset="0" stop-color="#63433b"/>
			<stop offset=".504" stop-color="#a36841"/>
			<stop offset="1" stop-color="#ffc255"/>
		</linearGradient>
		<linearGradient id="g4" x2="1" gradientUnits="userSpaceOnUse" gradientTransform="matrix(0,-331.051,331.051,0,238.325,577.995)">
			<stop offset="0" stop-color="#f4d6a6"/>
			<stop offset=".589" stop-color="#f7edd2"/>
			<stop offset="1" stop-color="#ffffff"/>
		</linearGradient>
	</defs>
	<style>
		.s0 { fill: url(#g1) } 
		.s1 { fill: url(#g2) } 
		.s2 { fill: url(#g3) } 
		.s3 { fill: #ffcf83 } 
		.s4 { fill: #b7724b } 
		.s5 { fill: #000000 } 
		.s6 { fill: url(#g4) } 
	</style>
	<g id="Folder 1">
		<path id="&lt;Path&gt;" fill-rule="evenodd" class="s0" d="m399.8 743.3c-189.5 0-342.7-153.2-342.7-342.7 0-189.5 153.2-342.7 342.7-342.7 189.5 0 342.7 153.2 342.7 342.7 0 189.5-153.2 342.7-342.7 342.7z"/>
		<path id="&lt;Path&gt;" class="s1" d="m607.3 459.1l140.4-6.6c2.5-16.9 3.8-34.2 3.8-51.9 0-24.8-2.6-48.9-7.4-72.2l-157.1-16.4 149.9-11.7c-17-57.5-48.3-108.7-89.8-149.8l-264.2-22.4h239.2c-60.6-49.5-138-79.3-222.3-79.3-159.5 0-294 106.1-337.2 251.6l169.4 14.4-176.7 14.1c-4.8 23.2-7.3 47.1-7.3 71.7 0 18 1.4 35.7 4 53l89.9 11.1-83.1 22.7c19.2 75.5 62.8 141.1 121.8 188.2l31.2-25.2-6.7 43.2c12 8 24.5 15.2 37.5 21.7l26.2-35.4v47.2c40.5 16.2 84.7 25.3 131 25.3 62.4 0 120.9-16.3 171.7-44.8l-7.5-42.5 28.9 29.5c74.3-48.9 129-125.3 149.6-214.8z"/>
		<path id="&lt;Path&gt;" class="s2" d="m607.3 459.1l140.4-6.6c2.5-16.9 3.8-34.2 3.8-51.9 0-24.8-2.6-48.9-7.4-72.2l-157.1-16.4 149.9-11.7c-17-57.5-48.3-108.7-89.8-149.8l-264.2-22.4h239.2c-60.6-49.5-138-79.3-222.3-79.3-159.5 0-294 106.1-337.2 251.6l169.4 14.4-176.7 14.1c-4.8 23.2-7.3 47.1-7.3 71.7 0 18 1.4 35.7 4 53l89.9 11.1-83.1 22.7c19.2 75.5 62.8 141.1 121.8 188.2l31.2-25.2-6.7 43.2c12 8 24.5 15.2 37.5 21.7l26.2-35.4v47.2c40.5 16.2 84.7 25.3 131 25.3 62.4 0 120.9-16.3 171.7-44.8l-7.5-42.5 28.9 29.5c74.3-48.9 129-125.3 149.6-214.8z"/>
		<path id="&lt;Path&gt;" class="s3" d="m382.9 128.1q132.1 16 264.2 32.1c39.2 38.7 69.1 86.7 86.7 140.3l3.1-0.2c-17-57.5-48.3-108.7-89.8-149.8l-150.6-12.8q-56.8-4.8-113.6-9.6z"/>
		<path id="&lt;Path&gt;" class="s3" d="m587 312q78.6 13 157.1 26c4.6 22.1 7.1 44.9 7.3 68.2 0.1-1.9 0.1-3.7 0.1-5.6 0-24.8-2.6-48.9-7.4-72.2l-104.1-10.9q-26.5-2.7-53-5.5z"/>
		<path id="&lt;Path&gt;" class="s4" d="m117.6 471.3l-58.8 16.1c0.8 3.1 1.7 6 2.5 9q40.3-15.9 80.6-31.7-12.1 3.3-24.3 6.6z"/>
		<path id="&lt;Path&gt;" class="s4" d="m607.3 459.1q66.4 15 132.8 30c0.8-3.1 1.6-6.1 2.4-9.3l-87-13.3q-24.1-3.7-48.2-7.4z"/>
		<path id="&lt;Path&gt;" class="s3" d="m399.8 58.5c78.7 0 151.3 25.9 209.9 69.6h12.4c-60.6-49.5-138-79.3-222.3-79.3-159.5 0-294 106.1-337.2 251.6l3 0.2c46.1-140.5 178.2-242.1 334.2-242.1z"/>
		<path id="&lt;Path&gt;" class="s3" d="m55.3 338.6q88.4-11.9 176.7-23.8-29.2 2.3-58.4 4.7l-118.3 9.4c-4.8 23.2-7.3 47.1-7.3 71.7 0 1.9 0.1 3.7 0.1 5.6 0.3-23.2 2.7-45.8 7.2-67.6z"/>
	</g>
	<path id="zoom copy 2" fill-rule="evenodd" class="s5" d="m579.6 280.7v263.6c0 24.2-19.7 43.9-44 43.9h-263.5c-24.3 0-44-19.7-44-43.9v-263.6c0-24.3 19.7-43.9 44-43.9h263.5c24.3 0 44 19.6 44 43.9zm-22 0c0-12.1-9.8-22-22-22h-263.5c-12.2 0-22 9.9-22 22v263.6c0 12 9.8 21.9 22 21.9h263.5c12.2 0 22-9.9 22-21.9zm-47.4 25.2c2.1 1.8 3.5 4.5 3.5 7.7v54.9c0 6.1-4.9 11-11 11-6.1 0-11-4.9-11-11l0.3-28.2-52.5 52.5-15.6-15.5 52.7-52.7h-28.8c-6.1 0-11-4.9-11-11 0-6.1 4.9-11 11-11h54.6c3 0 5.8 1.3 7.8 3.3zm-126.4 141.7l-52.7 52.7h28.8c6.1 0 11 4.9 11 11 0 6-4.9 11-11 11h-54.6c-3 0-5.8-1.3-7.8-3.3-2.1-1.8-3.5-4.4-3.5-7.7v-54.9c0-6.1 4.9-11 11-11 6.1 0 11 4.9 11 11l-0.3 28.2 52.5-52.5zm129.9 8.8v54.9c0 3.3-1.3 5.9-3.4 7.7-2 2-4.8 3.3-7.8 3.3h-54.6c-6.1 0-11-5-11-11 0-6 4.9-11 11-11h28.8l-52.7-52.7 15.5-15.5 52.5 52.5-0.2-28.2c0-6 4.9-11 11-11 6 0 10.9 5 10.9 11zm-182.6-131.8l52.7 52.7-15.5 15.5-52.5-52.4 0.3 28.1c0 6.1-5 11-11 11-6.1 0-11-4.9-11-11v-54.9c0-3.2 1.3-5.9 3.5-7.7 2-2 4.7-3.3 7.8-3.3h54.6c6.1 0 11 5 11 11 0 6.1-4.9 11-11 11z"/>
	<path id="zoom copy" fill-rule="evenodd" class="s5" d="m553.4 300.3v224.3c0 20.7-16.7 37.4-37.4 37.4h-224.3c-20.7 0-37.4-16.7-37.4-37.4v-224.3c0-20.6 16.7-37.4 37.4-37.4h224.3c20.7 0 37.4 16.8 37.4 37.4zm-18.7 0c0-10.3-8.4-18.7-18.7-18.7h-224.3c-10.3 0-18.7 8.4-18.7 18.7v224.3c0 10.3 8.4 18.7 18.7 18.7h224.3c10.3 0 18.7-8.4 18.7-18.7zm-40.3 21.5c1.8 1.6 2.9 3.8 2.9 6.6v46.7c0 5.2-4.2 9.4-9.3 9.4-5.2 0-9.4-4.2-9.4-9.4l0.2-24-44.6 44.7-13.2-13.2 44.8-44.9h-24.6c-5.1 0-9.3-4.2-9.3-9.3 0-5.2 4.2-9.4 9.3-9.4h46.5c2.6 0 5 1.1 6.7 2.8zm-107.7 120.6l-44.8 44.9h24.6c5.1 0 9.3 4.2 9.3 9.3 0 5.2-4.2 9.4-9.3 9.4h-46.5c-2.6 0-5-1.2-6.7-2.8-1.8-1.5-2.9-3.8-2.9-6.6v-46.7c0-5.2 4.2-9.4 9.3-9.4 5.2 0 9.4 4.2 9.4 9.4l-0.2 24 44.6-44.7zm110.6 7.5v46.7c0 2.8-1.1 5.1-3 6.6-1.6 1.7-4 2.8-6.6 2.8h-46.5c-5.1 0-9.3-4.2-9.3-9.4 0-5.1 4.2-9.3 9.3-9.3h24.6l-44.9-44.9 13.3-13.2 44.6 44.7-0.2-24c0-5.1 4.2-9.3 9.4-9.3 5.1 0 9.3 4.2 9.3 9.3zm-155.4-112.2l44.8 44.9-13.2 13.2-44.6-44.6 0.2 23.9c0 5.2-4.2 9.4-9.4 9.4-5.1 0-9.3-4.2-9.3-9.4v-46.7c0-2.8 1.1-5 2.9-6.5 1.7-1.8 4.1-2.9 6.7-2.9h46.4c5.2 0 9.4 4.2 9.4 9.4 0 5.2-4.2 9.3-9.4 9.3z"/>
	<path id="zoom" fill-rule="evenodd" class="s6" d="m569.4 288.3v248.3c0 22.9-18.6 41.4-41.4 41.4h-248.3c-22.8 0-41.4-18.5-41.4-41.4v-248.3c0-22.8 18.6-41.4 41.4-41.4h248.3c22.8 0 41.4 18.6 41.4 41.4zm-20.7 0c0-11.4-9.3-20.7-20.7-20.7h-248.3c-11.4 0-20.7 9.3-20.7 20.7v248.3c0 11.4 9.3 20.7 20.7 20.7h248.3c11.4 0 20.7-9.3 20.7-20.7zm-44.7 23.8c2 1.7 3.3 4.2 3.3 7.2v51.8c0 5.7-4.6 10.3-10.3 10.3-5.8 0-10.4-4.6-10.4-10.3l0.2-26.6-49.4 49.5-14.6-14.7 49.6-49.6h-27.2c-5.7 0-10.3-4.6-10.3-10.4 0-5.7 4.6-10.3 10.3-10.3h51.5c2.9 0 5.5 1.2 7.3 3.1zm-119.1 133.5l-49.6 49.6h27.2c5.7 0 10.3 4.7 10.3 10.4 0 5.7-4.6 10.3-10.3 10.3h-51.5c-2.9 0-5.5-1.2-7.3-3.1-2-1.6-3.3-4.1-3.3-7.2v-51.8c0-5.7 4.6-10.3 10.3-10.3 5.8 0 10.4 4.6 10.4 10.3l-0.2 26.6 49.4-49.4zm122.4 8.3v51.7c0 3.1-1.3 5.6-3.3 7.2-1.9 1.9-4.5 3.1-7.4 3.1h-51.4c-5.7 0-10.3-4.6-10.3-10.3 0-5.7 4.6-10.4 10.3-10.4h27.2l-49.6-49.6 14.6-14.6 49.4 49.4-0.2-26.5c0-5.7 4.6-10.4 10.3-10.4 5.7 0 10.4 4.7 10.4 10.4zm-172-124.2l49.6 49.7-14.6 14.6-49.5-49.4 0.3 26.5c0 5.7-4.7 10.3-10.4 10.3-5.7 0-10.3-4.6-10.3-10.3v-51.7c0-3.1 1.2-5.6 3.2-7.3 1.9-1.9 4.5-3.1 7.4-3.1h51.4c5.8 0 10.4 4.7 10.4 10.4 0 5.7-4.6 10.3-10.4 10.3z"/>
</svg>