<svg version="1.2" xmlns="http://www.w3.org/2000/svg" viewBox="0 0 1900 995" width="1900" height="995"><style>.a{fill:#c18156}.b{fill:#da9859}.c{fill:#7c5438}.d{opacity:.2;fill:#ffdc78}.e{fill:#c6bc93}.f{fill:#968f71}.g{opacity:.5;fill:#968f71}</style><path class="a" d="m1786.6 212.4c-103.7 8.7-208.6 35.8-313.8 33-116.2-3-234.4 58.2-352 17.4-101.5-35.2-205.4-95.3-310.3-86-28.6 2.5-57.1 9.4-84.3 33-22.1 18.9-37.4 63.1-61.4 56.9-18.7-5.1-36-41.1-55.3-48.6-21.7-8.5-44.5 0.8-66.3-3.8-87.7-18.9-173.1 20.2-259.9 15.1-41.1-2.4-81.4 3.3-122 0.4-29.7-2-94.7-30.9-121.9 0.6-36.2 41.9-15.1 189.6-15.3 271.4-0.1 41-7.7 138.4-1.3 173.9 8.6 48 31.9 15.7 44.6 40.8-17 21.8-34.8 29.2-52.7 43.1-4.7 30.7-19.3 130.9-11.7 162.8 8.6 36.4 47.3 19.1 60.3 14.3 56-20.4 118.1 5.1 176.9 16 162.4 30.3 329.3 8.9 492.7 36.3 70.6 11.8 141.7-6.8 212.9-2.8 88.9 5.2 175-43.9 263.5-51.1 94.6-7.7 187.9-17.6 283.2-15.4 60.6 1.3 123 15.8 185.4 10.6 49-3.9 99.8-8 148.4 8.3 15.8 5.4 46.3 39.7 60.2 9.6 13.2-28.8 12.1-121.2 12.5-163.7 0.5-47.4 2-143.7-9.2-173.1-6.1-15.8-25.7 15.9-26.7-25.7-0.9-41.5 22.3-14 27.1-28.3 8.6-25.9 2.3-117.2-7.6-142.8-12-31-47.5-25-62.8-28-11.3-2.2-21.8 3-31.3-11.3 21.1-73.4 102.8-9.4 106.5-98.1 4.5-109.7-84.4-66.9-108.4-64.8z"/><path class="b" d="m1861.1 894.4c-60.7-8.6-116.5-45-177.2-53.2-83.9-11.2-166.8-21.8-251.2-21.4-89.3 0.4-179.5-6.7-268.3 3-80.1 8.7-156.5 36.6-236.5 49-82 12.8-172 12.4-254.2-6.6-98.6-22.9-196-117.3-296.6-73.8-41 17.8-77.3 47.8-119.6 61.1-39 12.3-79.1 20-119 24.5-30.8 3.5-62.7-1.1-93.4 1.5-13 1.1-29.2 5.1-44 5.4-0.6 16-0.2 29.9 1.9 38.5 8.6 36.4 47.3 19.1 60.3 14.3 56-20.4 118.1 5.1 176.9 16 162.4 30.3 329.3 8.9 492.7 36.3 70.6 11.8 141.7-6.8 212.9-2.8 88.9 5.2 175-43.9 263.5-51.1 94.6-7.7 187.9-17.6 283.2-15.4 60.6 1.3 123 15.8 185.4 10.6 49-3.9 99.8-8 148.4 8.3 15.8 5.4 46.3 39.7 60.2 9.6 4.6-9.8 7.4-27.2 9.2-47.4-12.3 0.3-27-5.3-34.6-6.4z"/><path class="b" d="m1823.4 613.8c-30.8 2.4-67.8-5.9-97.3 5.2 38.4 13.7 79.4 21.6 118.2 31.7 15.5 4 35 9.3 53.6 17.8-1.2-21-3.1-39.6-6.4-51.6-23.3-1.2-47.3-4.6-68.1-3.1z"/><path class="b" d="m244.8 418.8c80.1 26.5 171 59.8 254 64.7 45 2.6 81.2 1.1 121.9-10.8 23.1-6.8 94.9-20.2 103.6-50.6-13.8-1.7-26.3-0.2-39.5 0.8-98.5 7.4-198.2 6-291.2-49.9-39.9-24.1-76.8-60.2-116-89-16.6-12.1-52.3-30.3-74.8-53.6-13.8 0.4-27.6 0.4-41.5-0.6-29.7-2-94.7-30.9-121.9 0.6-21.3 24.7-22.7 86.1-20.4 149.2 59.7-26.2 188.4 26.8 225.8 39.2z"/><path class="b" d="m1793.1 408.6c-56.4-7-116.2-23.6-172.8-17.5-85.1 9.3-169.1 23.7-254.3 35.6-160.7 22.4-333.6 4.8-481.2 111.2-63.8 46-90.5 145.2-160.3 182.7-75.6 40.5-152.5-13.4-227.2-38.2-87.7-29.3-176.9-57.2-266.6-68.2-46.6-5.8-93.9-1.8-140.8-4.5-18.2-1.1-47.9-5.5-69.4-2.3-0.6 27.8-0.4 53.4 2.3 68.3 8.6 48 31.9 15.7 44.5 40.8-16.9 21.8-34.7 29.2-52.6 43.1-2.5 16.3-7.7 51.7-11 86.4 6.5 1.1 12.8 2.3 17.9 2.6 34.1 2 65.2-2.1 98.1-5.1 90-8.2 171.8-32.6 255.1-84.2 88.9-54.9 180.5 61.7 269.9 68.3 97 7.2 196.4 23.3 291.7 10.6 52.1-7.1 103.8-21.3 155.9-31.8 67.3-13.5 136.1-9.8 203-25.9 69-16.6 141.8-0.8 211.4-10.9 74-10.7 141.1 24 213.8 46.2 47.4 14.5 95.9 17.2 143.6 29.8 7.3 1.9 22.1 4.1 34 9.8 0.6-20.6 0.7-40.8 0.8-57.2-16.3-4.5-34.3-6.4-47-11.3-27.6-10.9-54.3-28.5-82.5-33.6-56.4-9.9-112-7.6-167.6-20.4-124.6-28.7-246.1 14.9-372.5 0.3-64.3-7.6-123.8-47.5-185.7-63.8-16.4-4.3-46.1 0.3-57.6-19.3-16.2-28 5.4-51.6 23.8-61.3 21.8-11.5 50.9-8.7 74.9-11.5 40.3-4.6 80.8-12.8 121.4-18 107-13.9 211.9-49.6 319.3-59.3 83.2-7.5 163-3.2 245.8 3.7 40.9 3.4 81.9-4.5 122.6-8.8-1.4-32.2-5.7-66.1-11.2-80.3q-0.8-2.1-1.7-3.9c-30 6.2-69.8 0.2-87.8-2.1z"/><path class="b" d="m1749.9 531c-70.9 4.3-141.4 3.5-211.8 18.9-55.3 12.2-110.2 8.1-165 16.3-89.1 13.3-178.1 24-265.5 42.7-24.9 5.3-53 0.6-76.6 9.5 8.1 37.4 86.4 50.5 110.6 59.2 43.9 15.8 86.1 37.4 132.3 40 94.1 5.3 182.1-28.7 278.5-23.1 78.5 4.5 157 13.5 233.2 34.8 37.1 10.4 72.6 26.4 110.9 34.4q1.4 0.3 2.7 0.6c0.2-16.8 0.3-36.3 0-56.1-45.2-17.5-85.9-41.1-134.5-47.8-54.3-7.6-109.2-23.3-164.3-27.4-96.1-7.1-182.2 33.3-275.9 40.4-33.9 2.6-86.6 10.6-118.8-6.7 1-25.8 95.8-30.3 116.5-36.3 44.2-12.9 88.2-38.6 132.7-41.7 115-7.9 231.2 12 344.9-4.7 21.6-3.1 42.2-5.2 63.5-5.7 1.9-30.7 22.5-7.5 26.9-20.9 2.3-6.9 3.6-18.5 3.9-32.3-49.8-2.5-95.6 3-144.2 5.9z"/><path class="b" d="m1786.6 212.4c-103.7 8.7-208.6 35.8-313.8 33-116.2-3-234.4 58.2-352 17.4-101.5-35.2-205.4-95.3-310.3-86-28.6 2.5-57.1 9.4-84.3 33-22.1 18.9-37.4 63.1-61.4 56.9-18.7-5.1-36-41.1-55.3-48.6-21.7-8.5-44.5 0.8-66.3-3.8-87.7-18.9-173.1 20.2-259.9 15.1-11.7-0.7-23.3-0.7-34.8-0.4 18.7 15.3 36.7 32.9 53.6 46.5 41 33.3 76.8 51.2 121.5 72.2 111.4 52.4 229 27.7 343.6 47.6 16.1 2.9 54.7 9.7 36.9 38.1-6.7 10.6-51.6 16.8-63.8 20.3-60.2 17.4-113.5 57.9-178 62.2-105 7-200.3-27.5-302-57.8-55.8-16.7-112.3-35.1-169.5-34.1-23.1 0.4-46.1 7.3-69.2 9.4 1.4 25 2.6 48.6 2.5 68.4 0 13.3-0.8 32.8-1.7 54.1 68.4-18.8 195.7 4.1 218.6 11.8 89.2 29.7 177.8 54.7 267.2 84.3 42.3 14 86.8 33.5 129.6 39.4 49.9 7.1 75.7-10.8 111-55 63-79 112.2-176.4 201-199 43.5-11.1 88-13.3 132.7-16.6 48.7-3.5 95.3-20.4 143.4-27.5 90.9-13.5 184.4-2.5 275.2-19.8 93.5-17.7 190.2 6.5 284.4-11.6q4.7-1 9.2-1.9c27.6-48.7 96.9-1.4 100.3-82.8 4.5-109.7-84.4-66.9-108.4-64.8z"/><g style="opacity:.5"><path class="c" d="m1889.2 612.4c-6.1-15.8-25.7 15.8-26.6-25.8-0.9-41.6 22.3-14 27.1-28.4 8.6-25.7 2.3-117.2-7.6-142.8-1.8-4.8-4.2-8.6-6.9-11.7q0 0.1 0 0.1c5.1 25.8 1 82.9 4.8 110.8-41.9-41-40 144.1 0 128.6 1.1 55.2 4.5 107.7 3 162.5-2.1 81.9-7.9 67.7-33.8 76-38.1 12.5-73.3 30.2-114.6 20.6-222.2-51.3-471.4-159.7-689.1 16.7-87.5 70.8-196.3 5.7-286.9 5.7-55.1 0-111.9-21.4-166.4 0-45.6 17.9-81.8-8.3-127.2-14.9-97.9-14-194.6-25.1-291.6-51.9-48.5-13.5-95.9 6.5-143.1-0.3-8.6-1.2-18.6 1.6-28.7 8.4-1.7 24.1-2 45.6 0.9 57.8 8.6 36.4 47.2 18.9 60.3 14.1 55.9-20.4 118 5.1 176.8 16 162.5 30.4 329.4 9 492.8 36.4 70.5 11.9 141.7-6.9 212.9-2.7 88.8 5.1 175-44.1 263.5-51.2 94.6-7.6 187.9-17.7 283.1-15.5 60.7 1.4 123.1 15.8 185.5 10.8 49-4.1 99.8-8.2 148.4 8.2 15.8 5.3 46.3 39.8 60.2 9.5 13.2-28.8 12-121.3 12.5-163.9 0.5-47.3 2-143.8-9.3-173.1z"/><path class="c" d="m1761.5 372.3c9.5 1.1 18.5 0.9 27.1 0.4 22.2-69.3 102.2-8.2 105.8-95.3 1.6-36.9-7.7-56.3-21.6-65.9-0.6 12.6-1.3 25.7-3 36.6-12.4 78.2-78.5 65.6-108.2 97-0.3 9.6-0.3 17.6-0.1 27.2z"/></g><path class="d" d="m1589.6 380.7c-11.8-32.6-88.6-22.1-108.5-22.3-56.3-0.7-111.6 3.6-167.8-0.2-138.6-9.5-276.2 21.3-414.5-7.3-58.8-12.2-117.9-11.4-177.3-14.8-58.6-3.4-116.6-16.6-175.3-19.8-130.1-6.7-257.8-46.5-386.4-55.2-7.2-0.4-14.6 0-21.9 0l-24.7 37.4c-33.7 62.2-17.1 216.4 4.9 283.5 24.7 75.6 23.4 140.9 97.2 146.8 41.5 3.3 64.9 4.8 80.9-52.4 14.2-50.6 0-106.6 12.1-154.3 31.3-123.5 191.3-91.7 259-76.7 72.1 16 146.4 11.6 219.4 14.1 67.9 2.3 135.6 14.3 203.4 18.6 123.9 8 248.3 15.1 372.6 22.7 53.8 3.3 114.4-1.5 164.4-31 17.3-10.2 77.3-48.4 62.5-89.1z"/><path fill-rule="evenodd" class="c" d="m283 324.7c-17.9 0-32.3-14.5-32.3-32.3 0-17.9 14.4-32.4 32.3-32.4 17.9 0 32.3 14.5 32.3 32.4 0 17.8-14.4 32.3-32.3 32.3z"/><path fill-rule="evenodd" class="c" d="m1591.8 316.2c-17.9 0-32.3-14.4-32.3-32.3 0-17.9 14.4-32.3 32.3-32.3 17.9 0 32.3 14.4 32.3 32.3 0 17.9-14.4 32.3-32.3 32.3z"/><path class="e" d="m305.1 175.1q0 0.1-0.1 0.2c0.1 0.2 0.1 0 0.1-0.2z"/><path class="e" d="m348.2 118.3c-6.2 0.5-33.6 16.2-50.3 34.5-4.6 5.1-0.1 16.1-5.2 20.5l12.5 1.1c-0.1 0.1-0.1 0.5-0.1 0.7 3.9-8.7 16.6-16.2 23.4-22.3 7.1-6.4 17.4-7 29.5-16.9 6.6-10.4-2.8-18-9.8-17.6z"/><path class="e" d="m274.9 191.2q0.1 0.1 0.2 0.1c0 0.2-0.1 0.1-0.2-0.1z"/><path class="e" d="m213.8 154.5c5.9-1.9 37.2 2.5 59.5 13.3 6.2 3 6.1 14.9 12.4 17l-11.1 5.7c0.1 0.2 0.2 0.5 0.3 0.7-6.8-6.7-21.4-8.9-30-12.1-9-3.3-18.8 0.1-33.6-4.6-10-7.2-4.1-17.8 2.5-20z"/><path class="e" d="m297.4 287.5c-0.1 6.7-5.5 12-12.1 11.9h-4c-6.7-0.1-12-5.5-11.9-12.2l2.7-263.9c0.1-6.6 5.5-11.9 12.1-11.9l4 0.1c6.7 0.1 12 5.5 11.9 12.1z"/><path class="f" d="m282.4 50.9c6.3-3.9 12.5-8.3 16.4-14.7 1.7-2.8-2.6-5.3-4.3-2.6-3.4 5.7-9 9.6-14.5 13-2.8 1.7-0.3 6 2.4 4.3z"/><path class="f" d="m282.2 70.2c5.4-3.7 10.7-7.2 14.4-12.7 1.8-2.7-2.5-5.2-4.3-2.6-3.2 4.8-8 7.8-12.5 11-2.7 1.8-0.2 6.2 2.4 4.3z"/><path class="f" d="m282.7 92.2c5.3-3 9.9-7.1 13.6-12 2-2.6-2.3-5.2-4.2-2.6-3.2 4.2-7.3 7.7-11.9 10.3-2.8 1.6-0.3 5.9 2.5 4.3z"/><path class="f" d="m281.8 112.9c5.8-3.6 11.4-7.4 15-13.4 1.7-2.8-2.6-5.3-4.3-2.6-3.1 5.3-8.1 8.5-13.2 11.7-2.7 1.6-0.3 6 2.5 4.3z"/><path class="f" d="m281.6 133.6c5.8-3 10.7-7.3 14.3-12.8 1.8-2.7-2.5-5.2-4.3-2.6-3.1 4.8-7.4 8.4-12.5 11-2.9 1.5-0.4 5.8 2.5 4.4z"/><path class="f" d="m282 154.2c4.9-3.2 9.5-6.7 13-11.4 2-2.6-2.3-5.1-4.3-2.6-3 4-7 7-11.2 9.7-2.6 1.7-0.2 6.1 2.5 4.3z"/><path class="f" d="m283.7 174.5c4.2-4.2 8.8-8 12.7-12.5 2.2-2.4-1.3-6-3.5-3.6-3.9 4.5-8.5 8.4-12.7 12.5-2.4 2.3 1.1 5.9 3.5 3.6z"/><path class="f" d="m283.6 193.6c4.9-2.6 8.6-7 11.7-11.5 1.8-2.6-2.5-5.2-4.3-2.5-2.6 3.7-5.7 7.5-9.9 9.6-2.8 1.5-0.3 5.8 2.5 4.4z"/><path class="f" d="m284.1 213.6c5-2.3 8.4-6.8 11.9-11 2.1-2.4-1.4-6-3.5-3.5-3.2 3.8-6.2 8-10.9 10.1-2.9 1.3-0.4 5.7 2.5 4.4z"/><path class="f" d="m283.1 232.5c4.4-3.7 8.4-7.8 11.8-12.4 1.9-2.6-2.4-5.1-4.3-2.6-3.2 4.3-7 8-11 11.4-2.5 2.1 1 5.6 3.5 3.6z"/><path class="f" d="m281.1 250.4c6.6 1.8 11.3-7.2 14.3-11.6 1.8-2.7-2.5-5.2-4.3-2.6-1.4 2.1-2.7 4.2-4.3 6.1-0.8 1-2.8 3.7-4.3 3.3-3.1-0.8-4.5 4-1.4 4.8z"/><path class="f" d="m284.1 273.6c4.5-2.4 7.1-6.8 10.6-10.3 2.3-2.3-1.2-5.9-3.5-3.6-3.1 3.1-5.5 7.4-9.6 9.5-2.8 1.5-0.3 5.8 2.5 4.4z"/><path class="f" d="m284.6 291.6c3.7-1.6 6.5-4.4 9-7.5 0.8-1.1 0.2-2.8-0.9-3.4-1.3-0.8-2.6-0.3-3.4 0.8-1.9 2.5-4.3 4.5-7.2 5.7-1.2 0.5-1.5 2.4-0.9 3.4 0.7 1.3 2.1 1.5 3.4 1z"/><path class="f" d="m282.5 33.2c4-4 7.7-8.4 11.1-13.1 1.9-2.6-2.4-5.1-4.3-2.5q-4.7 6.4-10.3 12c-2.3 2.3 1.2 5.9 3.5 3.6z"/><path class="e" d="m306.7 168.9c-6.2-1.6-13.3 0.1-19 2.7-2.7 1.2-5.2 2.7-7.5 4.7-1.7 1.4-4.8 4.2-4.6 4.3l-3 0.4c-6.5-0.4-17.6 5.5-19.1 11.8-1.9 8.3 3 17.3 10.8 20.3 7.6 2.9 17.9-0.6 25.5-2 9.3-1.7 16.1-5.6 21.2-13.7 5.6-8.7 9-25.2-4.3-28.5z"/><path class="g" d="m314.2 173.7c-5.2 2.1-10.1 8.7-13.6 11.5-9.1 7.3-19.6 12.3-30.8 15.8-4.6 1.5-10 2.6-14.8 2.8 1.9 4 5.2 7.2 9.3 8.8 7.6 2.9 17.9-0.6 25.5-2 9.3-1.7 16.1-5.6 21.2-13.7 4.1-6.3 6.9-16.7 3.2-23.2z"/><path class="f" d="m304.9 168.1c3.7-5.1 6.1-11.4 7.9-17.5 0.9-3.1-3.9-4.4-4.8-1.3-1.7 5.7-3.9 11.4-7.4 16.3-1.9 2.6 2.4 5.1 4.3 2.5z"/><path class="f" d="m320.5 157.8c2.8-4.5 4.5-9.6 6.6-14.4 1.3-2.9-2.9-5.5-4.3-2.6-2.1 4.8-3.8 9.9-6.6 14.4-1.7 2.8 2.6 5.4 4.3 2.6z"/><path class="f" d="m337.6 146c2.6-4.7 4.7-9.7 5.9-15 0.7-3.2-4.1-4.6-4.8-1.4-1.1 4.9-3 9.4-5.4 13.8-1.6 2.8 2.7 5.4 4.3 2.6z"/><path class="f" d="m350.6 140.1c1.6-3.6 3.1-7.3 4.6-10.9 1.3-2.9-3-5.5-4.2-2.6-1.6 3.6-3.1 7.3-4.7 11-1.2 2.9 3 5.5 4.3 2.5z"/><path class="f" d="m216.9 172.7c-1.9-3.6-3.5-7.3-4.1-11.4-0.4-3.2-5.2-1.9-4.8 1.2 0.6 4.5 2.4 8.8 4.6 12.7 1.5 2.8 5.9 0.3 4.3-2.5z"/><path class="f" d="m227.9 172.3c-1.9-2.9-3.6-5.9-4.1-9.4-0.5-3.2-5.3-1.9-4.8 1.3 0.6 3.8 2.5 7.3 4.6 10.6 1.7 2.7 6.1 0.2 4.3-2.5z"/><path class="f" d="m243.5 174c-3.5-3.1-7.6-6.4-8.1-11.3-0.4-3.2-5.4-3.3-5-0.1 0.7 6.6 4.8 10.7 9.5 14.9 2.4 2.1 6-1.4 3.6-3.5z"/><path class="f" d="m259.1 180.9c0-4.2-1.8-7.8-2.9-11.7-0.9-3.1-5.7-1.8-4.8 1.3 1 3.4 2.7 6.7 2.8 10.4 0 3.2 5 3.2 4.9 0z"/><path class="f" d="m270.1 180.4c-1.1-3.2-1.9-6.4-2.9-9.6-1-3-5.9-1.8-4.9 1.3 1 3.2 1.9 6.4 2.9 9.5 1 3.1 5.8 1.8 4.9-1.2z"/><path class="e" d="m1654.2 107.3c-6.2 0.5-33.6 16.2-50.3 34.5-4.6 5.1-0.1 16.1-5.2 20.5l12.5 1.1c-0.1 0.1-0.1 0.5-0.1 0.7 3.9-8.7 16.6-16.2 23.4-22.3 7.1-6.4 17.4-7 29.5-16.9 6.6-10.4-2.8-18-9.8-17.6z"/><path class="e" d="m1519.8 143.5c5.9-1.9 37.2 2.5 59.5 13.3 6.2 3 6.1 14.9 12.4 17l-11.1 5.7c0.1 0.2 0.2 0.5 0.3 0.7-6.8-6.7-21.4-8.9-30-12.1-9-3.3-18.8 0.1-33.6-4.6-10-7.2-4.1-17.8 2.5-20z"/><path class="e" d="m1603.4 276.5c-0.1 6.7-5.5 12-12.1 11.9h-4c-6.7-0.1-12-5.5-11.9-12.2l2.7-263.9c0.1-6.6 5.5-11.9 12.1-11.9l4 0.1c6.7 0.1 12 5.5 11.9 12.1z"/><path class="f" d="m1588.4 39.9c6.3-3.9 12.5-8.3 16.4-14.7 1.7-2.8-2.6-5.3-4.3-2.6-3.4 5.7-9 9.6-14.5 13-2.8 1.7-0.3 6 2.4 4.3z"/><path class="f" d="m1588.2 59.2c5.4-3.7 10.7-7.2 14.4-12.7 1.8-2.7-2.5-5.2-4.3-2.6-3.2 4.8-8 7.8-12.5 11-2.7 1.8-0.2 6.2 2.4 4.3z"/><path class="f" d="m1588.7 81.2c5.3-3 9.9-7.1 13.6-12 2-2.6-2.3-5.2-4.2-2.6-3.2 4.2-7.3 7.7-11.9 10.3-2.8 1.6-0.3 5.9 2.5 4.3z"/><path class="f" d="m1587.8 101.9c5.8-3.6 11.4-7.4 15-13.4 1.7-2.8-2.6-5.3-4.3-2.6-3.1 5.3-8.1 8.5-13.2 11.7-2.7 1.6-0.3 6 2.5 4.3z"/><path class="f" d="m1587.6 122.6c5.8-3 10.7-7.3 14.3-12.8 1.8-2.7-2.5-5.2-4.3-2.6-3.1 4.8-7.4 8.4-12.5 11-2.9 1.5-0.4 5.8 2.5 4.4z"/><path class="f" d="m1588 143.2c4.9-3.2 9.5-6.7 13-11.4 2-2.6-2.3-5.1-4.3-2.6-3 4-7 7-11.2 9.7-2.6 1.7-0.2 6.1 2.5 4.3z"/><path class="f" d="m1589.7 163.5c4.2-4.2 8.8-8 12.7-12.5 2.2-2.4-1.3-6-3.5-3.6-3.9 4.5-8.5 8.4-12.7 12.5-2.4 2.3 1.1 5.9 3.5 3.6z"/><path class="f" d="m1588.5 22.2c4-4 7.7-8.4 11.1-13.1 1.9-2.6-2.4-5.1-4.3-2.5q-4.7 6.4-10.3 12c-2.3 2.3 1.2 5.9 3.5 3.6z"/><path class="e" d="m1612.7 157.9c-6.2-1.6-13.3 0.1-19 2.7-2.7 1.2-5.2 2.7-7.5 4.7-1.7 1.4-4.8 4.2-4.6 4.3l-3 0.4c-6.5-0.4-17.6 5.5-19.1 11.8-1.9 8.3 3 17.3 10.8 20.3 7.6 2.9 17.9-0.6 25.5-2 9.3-1.7 16.1-5.6 21.2-13.7 5.6-8.7 9-25.2-4.3-28.5z"/><path class="g" d="m1620.2 162.7c-5.2 2.1-10.1 8.7-13.6 11.5-9.1 7.3-19.6 12.3-30.8 15.8-4.6 1.5-10 2.6-14.8 2.8 1.9 4 5.2 7.2 9.3 8.8 7.6 2.9 17.9-0.6 25.5-2 9.3-1.7 16.1-5.6 21.2-13.7 4.1-6.3 6.9-16.7 3.2-23.2z"/><path class="f" d="m1610.9 157.1c3.7-5.1 6.1-11.4 7.9-17.5 0.9-3.1-3.9-4.4-4.8-1.3-1.7 5.7-3.9 11.4-7.4 16.3-1.9 2.6 2.4 5.1 4.3 2.5z"/><path class="f" d="m1626.5 146.8c2.8-4.5 4.5-9.6 6.6-14.4 1.3-2.9-2.9-5.5-4.3-2.6-2.1 4.8-3.8 9.9-6.6 14.4-1.7 2.8 2.6 5.4 4.3 2.6z"/><path class="f" d="m1643.6 135c2.6-4.7 4.7-9.7 5.9-15 0.7-3.2-4.1-4.6-4.8-1.4-1.1 4.9-3 9.4-5.4 13.8-1.6 2.8 2.7 5.4 4.3 2.6z"/><path class="f" d="m1656.6 129.1c1.6-3.6 3.1-7.3 4.6-10.9 1.3-2.9-3-5.5-4.2-2.6-1.6 3.6-3.1 7.3-4.7 11-1.2 2.9 3 5.5 4.3 2.5z"/><path class="f" d="m1522.9 161.7c-1.9-3.6-3.5-7.3-4.1-11.4-0.4-3.2-5.2-1.9-4.8 1.2 0.6 4.5 2.4 8.8 4.6 12.7 1.5 2.8 5.9 0.3 4.3-2.5z"/><path class="f" d="m1533.9 161.3c-1.9-2.9-3.6-5.9-4.1-9.4-0.5-3.2-5.3-1.9-4.8 1.3 0.6 3.8 2.5 7.3 4.6 10.6 1.7 2.7 6.1 0.2 4.3-2.5z"/><path class="f" d="m1549.5 163c-3.5-3.1-7.6-6.4-8.1-11.3-0.4-3.2-5.4-3.3-5-0.1 0.7 6.6 4.8 10.7 9.5 14.9 2.4 2.1 6-1.4 3.6-3.5z"/><path class="f" d="m1565.1 169.9c0-4.2-1.8-7.8-2.9-11.7-0.9-3.1-5.7-1.8-4.8 1.3 1 3.4 2.7 6.7 2.8 10.4 0 3.2 5 3.2 4.9 0z"/><path class="f" d="m1576.1 169.4c-1.1-3.2-1.9-6.4-2.9-9.6-1-3-5.9-1.8-4.9 1.3 1 3.2 1.9 6.4 2.9 9.5 1 3.1 5.8 1.8 4.9-1.2z"/><path class="f" d="m1589.6 182.6c4.9-2.6 8.6-7 11.7-11.5 1.8-2.6-2.5-5.2-4.3-2.5-2.6 3.7-5.7 7.5-9.9 9.6-2.8 1.5-0.3 5.8 2.5 4.4z"/><path class="f" d="m1590.1 202.6c5-2.3 8.4-6.8 11.9-11 2.1-2.4-1.4-6-3.5-3.5-3.2 3.8-6.2 8-10.9 10.1-2.9 1.3-0.4 5.7 2.5 4.4z"/><path class="f" d="m1589.1 221.5c4.4-3.7 8.4-7.8 11.8-12.4 1.9-2.6-2.4-5.1-4.3-2.6-3.2 4.3-7 8-11 11.4-2.5 2.1 1 5.6 3.5 3.6z"/><path class="f" d="m1587.1 239.4c6.6 1.8 11.3-7.2 14.3-11.6 1.8-2.7-2.5-5.2-4.3-2.6-1.4 2.1-2.7 4.2-4.3 6.1-0.8 1-2.8 3.7-4.3 3.3-3.1-0.8-4.5 4-1.4 4.8z"/><path class="f" d="m1590.1 262.6c4.5-2.4 7.1-6.8 10.6-10.3 2.3-2.3-1.2-5.9-3.5-3.6-3.1 3.1-5.5 7.4-9.6 9.5-2.8 1.5-0.3 5.8 2.5 4.4z"/><path class="f" d="m1590.6 280.6c3.7-1.6 6.5-4.4 9-7.5 0.8-1.1 0.2-2.8-0.9-3.4-1.3-0.8-2.6-0.3-3.4 0.8-1.9 2.5-4.3 4.5-7.2 5.7-1.2 0.5-1.5 2.4-0.9 3.4 0.7 1.3 2.1 1.5 3.4 1z"/></svg>