<svg version="1.2" xmlns="http://www.w3.org/2000/svg" viewBox="0 0 1920 800" width="1920" height="800"><style>.a{fill:#c18156}.b{fill:#da9859}.c{fill:#7c5438}.d{opacity:.2;fill:#ffdc78}.e{fill:#c6bc93}.f{fill:#968f71}.g{opacity:.5;fill:#968f71}</style><path class="a" d="m1795.6 222.6c-103.7 6.4-208.6 26.3-313.8 24.2-116.2-2.2-234.4 42.7-352 12.8-101.5-25.8-205.4-69.9-310.3-63.1-28.6 1.9-57.1 6.9-84.3 24.2-22.1 13.9-37.4 46.3-61.4 41.7-18.7-3.7-36-30.1-55.3-35.6-21.7-6.2-44.5 0.6-66.3-2.8-87.7-13.8-173.1 14.8-259.9 11.1-41.1-1.8-81.4 2.4-122 0.3-29.7-1.5-94.7-22.7-121.9 0.4-36.2 30.7-15.1 139-15.3 198.9-0.1 30.1-7.7 101.5-1.3 127.5 8.6 35.2 31.9 11.5 44.6 29.9-17 16-34.8 21.4-52.7 31.6-4.7 22.5-19.3 95.9-11.7 119.3 8.6 26.7 47.3 14 60.3 10.5 56-15 118.1 3.7 176.9 11.7 162.4 22.2 329.3 6.5 492.7 26.6 70.6 8.7 141.7-5 212.9-2 88.9 3.8 175-32.2 263.5-37.5 94.6-5.6 187.9-12.9 283.2-11.3 60.6 1 123 11.6 185.4 7.8 49-2.9 99.8-5.9 148.4 6.1 15.8 3.9 46.3 29.1 60.2 7 13.2-21.1 12.1-88.8 12.5-120 0.5-34.7 2-105.3-9.2-126.8-6.1-11.6-25.7 11.6-26.7-18.9-0.9-30.4 22.3-10.2 27.1-20.7 8.6-19 2.3-85.9-7.6-104.7-12-22.7-47.5-18.3-62.8-20.5-11.3-1.6-21.8 2.2-31.3-8.3 21.1-53.8 102.8-6.9 106.5-71.9 4.5-80.4-84.4-49-108.4-47.5z"/><path class="b" d="m1870.1 722.5c-60.7-6.3-116.5-33-177.2-39-83.9-8.2-166.8-16-251.2-15.7-89.3 0.3-179.5-4.9-268.3 2.2-80.1 6.4-156.5 26.8-236.5 35.9-82 9.4-172 9.1-254.2-4.8-98.6-16.8-196-86-296.6-54.1-41 13-77.3 35-119.6 44.8-39 9-79.1 14.6-119 17.9-30.8 2.6-62.7-0.8-93.4 1.1-13 0.8-29.2 3.8-44 4-0.6 11.7-0.2 21.9 1.9 28.2 8.6 26.7 47.3 14 60.3 10.5 56-15 118.1 3.7 176.9 11.7 162.4 22.2 329.3 6.5 492.7 26.6 70.6 8.7 141.7-5 212.9-2 88.9 3.8 175-32.2 263.5-37.5 94.6-5.6 187.9-12.9 283.2-11.3 60.6 1 123 11.6 185.4 7.8 49-2.9 99.8-5.9 148.4 6.1 15.8 3.9 46.3 29.1 60.2 7 4.6-7.2 7.4-19.9 9.2-34.7-12.3 0.2-27-3.9-34.6-4.7z"/><path class="b" d="m1832.4 516.8c-30.8 1.8-67.8-4.3-97.3 3.8 38.4 10.1 79.4 15.9 118.2 23.3 15.5 2.9 35 6.8 53.6 13-1.2-15.4-3.1-29-6.4-37.8-23.3-0.9-47.3-3.4-68.1-2.3z"/><path class="b" d="m253.8 373.9c80.1 19.4 171 43.8 254 47.4 45 1.9 81.2 0.8 121.9-7.9 23.1-5 94.9-14.8 103.6-37.1-13.8-1.2-26.3-0.1-39.5 0.6-98.5 5.4-198.2 4.4-291.2-36.6-39.9-17.6-76.8-44.1-116-65.2-16.6-8.9-52.3-22.2-74.8-39.3-13.8 0.3-27.6 0.3-41.5-0.4-29.7-1.5-94.7-22.7-121.9 0.4-21.3 18.1-22.7 63.1-20.4 109.4 59.7-19.2 188.4 19.6 225.8 28.7z"/><path class="b" d="m1802.1 366.4c-56.4-5.1-116.2-17.3-172.8-12.8-85.1 6.8-169.1 17.4-254.3 26.1-160.7 16.4-333.6 3.5-481.2 81.5-63.8 33.7-90.5 106.4-160.3 133.9-75.6 29.7-152.5-9.8-227.2-28-87.7-21.5-176.9-41.9-266.6-50-46.6-4.2-93.9-1.3-140.8-3.3-18.2-0.8-47.9-4-69.4-1.7-0.6 20.4-0.4 39.2 2.3 50.1 8.6 35.2 31.9 11.5 44.5 29.9-16.9 16-34.7 21.4-52.6 31.6-2.5 11.9-7.7 37.9-11 63.3 6.5 0.8 12.8 1.7 17.9 1.9 34.1 1.5 65.2-1.5 98.1-3.7 90-6 171.8-23.9 255.1-61.7 88.9-40.3 180.5 45.2 269.9 50 97 5.3 196.4 17.1 291.7 7.8 52.1-5.2 103.8-15.6 155.9-23.3 67.3-9.9 136.1-7.2 203-19 69-12.2 141.8-0.6 211.4-8 74-7.8 141.1 17.6 213.8 33.9 47.4 10.6 95.9 12.6 143.6 21.8 7.3 1.4 22.1 3 34 7.2 0.6-15.1 0.7-29.9 0.8-41.9-16.3-3.3-34.3-4.7-47-8.3-27.6-8-54.3-20.9-82.5-24.6-56.4-7.3-112-5.6-167.6-15-124.6-21-246.1 10.9-372.5 0.2-64.3-5.5-123.8-34.8-185.7-46.7-16.4-3.2-46.1 0.2-57.6-14.2-16.2-20.5 5.4-37.8 23.8-44.9 21.8-8.4 50.9-6.4 74.9-8.4 40.3-3.4 80.8-9.4 121.4-13.2 107-10.2 211.9-36.4 319.3-43.5 83.2-5.5 163-2.3 245.8 2.7 40.9 2.5 81.9-3.3 122.6-6.4-1.4-23.6-5.7-48.5-11.2-58.9q-0.8-1.5-1.7-2.8c-30 4.5-69.8 0.1-87.8-1.6z"/><path class="b" d="m1758.9 456.1c-70.9 3.2-141.4 2.6-211.8 13.9-55.3 8.9-110.2 5.9-165 11.9-89.1 9.8-178.1 17.6-265.5 31.3-24.9 3.9-53 0.5-76.6 7 8.1 27.4 86.4 37 110.6 43.4 43.9 11.6 86.1 27.4 132.3 29.3 94.1 3.9 182.1-21 278.5-16.9 78.5 3.3 157 9.9 233.2 25.5 37.1 7.6 72.6 19.3 110.9 25.2q1.4 0.2 2.7 0.4c0.2-12.3 0.3-26.6 0-41.1-45.2-12.8-85.9-30.1-134.5-35-54.3-5.6-109.2-17.1-164.3-20.1-96.1-5.2-182.2 24.4-275.9 29.6-33.9 1.9-86.6 7.8-118.8-4.9 1-18.9 95.8-22.2 116.5-26.6 44.2-9.5 88.2-28.3 132.7-30.6 115-5.8 231.2 8.8 344.9-3.4 21.6-2.3 42.2-3.8 63.5-4.2 1.9-22.5 22.5-5.5 26.9-15.3 2.3-5.1 3.6-13.6 3.9-23.7-49.8-1.8-95.6 2.2-144.2 4.3z"/><path class="b" d="m1795.6 222.6c-103.7 6.4-208.6 26.3-313.8 24.2-116.2-2.2-234.4 42.7-352 12.8-101.5-25.8-205.4-69.9-310.3-63.1-28.6 1.9-57.1 6.9-84.3 24.2-22.1 13.9-37.4 46.3-61.4 41.7-18.7-3.7-36-30.1-55.3-35.6-21.7-6.2-44.5 0.6-66.3-2.8-87.7-13.8-173.1 14.8-259.9 11.1-11.7-0.5-23.3-0.5-34.8-0.3 18.7 11.2 36.7 24.1 53.6 34.1 41 24.4 76.8 37.5 121.5 52.9 111.4 38.4 229 20.3 343.6 34.9 16.1 2.1 54.7 7.1 36.9 27.9-6.7 7.8-51.6 12.3-63.8 14.9-60.2 12.7-113.5 42.4-178 45.6-105 5.1-200.3-20.2-302-42.4-55.8-12.2-112.3-25.7-169.5-25-23.1 0.3-46.1 5.4-69.2 6.9 1.4 18.3 2.6 35.6 2.5 50.1 0 9.8-0.8 24.1-1.7 39.7 68.4-13.8 195.7 3 218.6 8.6 89.2 21.8 177.8 40.1 267.2 61.8 42.3 10.3 86.8 24.6 129.6 28.9 49.9 5.2 75.7-7.9 111-40.3 63-57.9 112.2-129.3 201-145.9 43.5-8.1 88-9.7 132.7-12.1 48.7-2.6 95.3-15 143.4-20.2 90.9-9.9 184.4-1.8 275.2-14.5 93.5-13 190.2 4.8 284.4-8.5q4.7-0.7 9.2-1.4c27.6-35.7 96.9-1 100.3-60.7 4.5-80.4-84.4-49-108.4-47.5z"/><g style="opacity:.5"><path class="c" d="m1898.2 515.8c-6.1-11.6-25.7 11.6-26.6-18.9-0.9-30.5 22.3-10.3 27.1-20.8 8.6-18.9 2.3-85.9-7.6-104.7-1.8-3.5-4.2-6.3-6.9-8.6q0 0.1 0 0.1c5.1 18.9 1 60.8 4.8 81.2-41.9-30-40 105.6 0 94.3 1.1 40.4 4.5 78.9 3 119.1-2.1 60-7.9 49.6-33.8 55.7-38.1 9.1-73.3 22.1-114.6 15.1-222.2-37.6-471.4-117.1-689.1 12.2-87.5 51.9-196.3 4.2-286.9 4.2-55.1 0-111.9-15.7-166.4 0-45.6 13.1-81.8-6.1-127.2-10.9-97.9-10.3-194.6-18.4-291.6-38.1-48.5-9.9-95.9 4.8-143.1-0.2-8.6-0.9-18.6 1.2-28.7 6.2-1.7 17.6-2 33.4 0.9 42.3 8.6 26.7 47.2 13.9 60.3 10.4 55.9-15 118 3.7 176.8 11.7 162.5 22.3 329.4 6.6 492.8 26.7 70.5 8.7 141.7-5.1 212.9-2 88.8 3.7 175-32.3 263.5-37.5 94.6-5.6 187.9-13 283.1-11.4 60.7 1 123.1 11.6 185.5 7.9 49-3 99.8-6 148.4 6 15.8 3.9 46.3 29.2 60.2 7 13.2-21.1 12-88.9 12.5-120.1 0.5-34.7 2-105.4-9.3-126.9z"/><path class="c" d="m1770.5 339.8c9.5 0.8 18.5 0.7 27.1 0.3 22.2-50.8 102.2-6 105.8-69.8 1.6-27.1-7.7-41.3-21.6-48.3-0.6 9.2-1.3 18.8-3 26.8-12.4 57.3-78.5 48.1-108.2 71.1-0.3 7-0.3 12.9-0.1 19.9z"/></g><path class="d" d="m1598.6 346c-11.8-23.9-88.6-16.2-108.5-16.4-56.3-0.5-111.6 2.7-167.8-0.1-138.6-7-276.2 15.6-414.5-5.4-58.8-8.9-117.9-8.3-177.3-10.8-58.6-2.5-116.6-12.2-175.3-14.5-130.1-4.9-257.8-34.1-386.4-40.5-7.2-0.3-14.6 0-21.9 0l-24.7 27.4c-33.7 45.6-17.1 158.6 4.9 207.8 24.7 55.4 23.4 103.3 97.2 107.6 41.5 2.4 64.9 3.5 80.9-38.4 14.2-37.1 0-78.1 12.1-113.1 31.3-90.5 191.3-67.2 259-56.2 72.1 11.7 146.4 8.5 219.4 10.3 67.9 1.7 135.6 10.5 203.4 13.7 123.9 5.8 248.3 11 372.6 16.6 53.8 2.4 114.4-1.1 164.4-22.7 17.3-7.5 77.3-35.5 62.5-65.3z"/><path fill-rule="evenodd" class="c" d="m292 322.7c-17.9 0-32.3-14.4-32.3-32.3 0-17.9 14.4-32.4 32.3-32.4 17.8 0 32.3 14.5 32.3 32.4 0 17.9-14.5 32.3-32.3 32.3z"/><path fill-rule="evenodd" class="c" d="m1600.8 314.2c-17.8 0-32.3-14.4-32.3-32.3 0-17.9 14.5-32.3 32.3-32.3 17.9 0 32.3 14.4 32.3 32.3 0 17.9-14.4 32.3-32.3 32.3z"/><path class="e" d="m314.1 173.1q0 0.1-0.1 0.2c0.1 0.2 0.1 0 0.1-0.2z"/><path class="e" d="m357.2 116.3c-6.2 0.5-33.6 16.2-50.3 34.5-4.6 5.1-0.1 16.1-5.2 20.5l12.5 1.1c-0.1 0.1-0.1 0.5-0.1 0.7 3.9-8.7 16.6-16.2 23.4-22.3 7.1-6.4 17.4-7 29.5-16.9 6.6-10.4-2.8-18-9.8-17.6z"/><path class="e" d="m283.9 189.2q0.1 0.1 0.2 0.1c0 0.2-0.1 0.1-0.2-0.1z"/><path class="e" d="m222.8 152.5c5.9-1.9 37.2 2.5 59.5 13.3 6.2 3 6.1 14.9 12.4 17l-11.1 5.7c0.1 0.2 0.2 0.5 0.3 0.7-6.8-6.7-21.4-8.9-30-12.1-9-3.3-18.8 0.1-33.6-4.6-10-7.2-4.1-17.8 2.5-20z"/><path class="e" d="m306.4 285.5c-0.1 6.7-5.5 12-12.1 11.9h-4c-6.7-0.1-12-5.5-11.9-12.2l2.7-263.9c0.1-6.6 5.5-11.9 12.1-11.9l4 0.1c6.7 0.1 12 5.5 11.9 12.1z"/><path class="f" d="m291.4 48.9c6.3-3.9 12.5-8.3 16.4-14.7 1.7-2.8-2.6-5.3-4.3-2.6-3.4 5.7-9 9.6-14.5 13-2.8 1.7-0.3 6 2.4 4.3z"/><path class="f" d="m291.2 68.2c5.4-3.7 10.7-7.2 14.4-12.7 1.8-2.7-2.5-5.2-4.3-2.6-3.2 4.8-8 7.8-12.5 11-2.7 1.8-0.2 6.2 2.4 4.3z"/><path class="f" d="m291.7 90.2c5.3-3 9.9-7.1 13.6-12 2-2.6-2.3-5.2-4.2-2.6-3.2 4.2-7.3 7.7-11.9 10.3-2.8 1.6-0.3 5.9 2.5 4.3z"/><path class="f" d="m290.8 110.9c5.8-3.6 11.4-7.4 15-13.4 1.7-2.8-2.6-5.3-4.3-2.6-3.1 5.3-8.1 8.5-13.2 11.7-2.7 1.6-0.3 6 2.5 4.3z"/><path class="f" d="m290.6 131.6c5.8-3 10.7-7.3 14.3-12.8 1.8-2.7-2.5-5.2-4.3-2.6-3.1 4.8-7.4 8.4-12.5 11-2.9 1.5-0.4 5.8 2.5 4.4z"/><path class="f" d="m291 152.2c4.9-3.2 9.5-6.7 13-11.4 2-2.6-2.3-5.1-4.3-2.6-3 4-7 7-11.2 9.7-2.6 1.7-0.2 6.1 2.5 4.3z"/><path class="f" d="m292.7 172.5c4.2-4.2 8.8-8 12.7-12.5 2.2-2.4-1.3-6-3.5-3.6-3.9 4.5-8.5 8.4-12.7 12.5-2.4 2.3 1.1 5.9 3.5 3.6z"/><path class="f" d="m292.6 191.6c4.9-2.6 8.6-7 11.7-11.5 1.8-2.6-2.5-5.2-4.3-2.5-2.6 3.7-5.7 7.5-9.9 9.6-2.8 1.5-0.3 5.8 2.5 4.4z"/><path class="f" d="m293.1 211.6c5-2.3 8.4-6.8 11.9-11 2.1-2.4-1.4-6-3.5-3.5-3.2 3.8-6.2 8-10.9 10.1-2.9 1.3-0.4 5.7 2.5 4.4z"/><path class="f" d="m292.1 230.5c4.4-3.7 8.4-7.8 11.8-12.4 1.9-2.6-2.4-5.1-4.3-2.6-3.2 4.3-7 8-11 11.4-2.5 2.1 1 5.6 3.5 3.6z"/><path class="f" d="m290.1 248.4c6.6 1.8 11.3-7.2 14.3-11.6 1.8-2.7-2.5-5.2-4.3-2.6-1.4 2.1-2.7 4.2-4.3 6.1-0.8 1-2.8 3.7-4.3 3.3-3.1-0.8-4.5 4-1.4 4.8z"/><path class="f" d="m293.1 271.6c4.5-2.4 7.1-6.8 10.6-10.3 2.3-2.3-1.2-5.9-3.5-3.6-3.1 3.1-5.5 7.4-9.6 9.5-2.8 1.5-0.3 5.8 2.5 4.4z"/><path class="f" d="m293.6 289.6c3.7-1.6 6.5-4.4 9-7.5 0.8-1.1 0.2-2.8-0.9-3.4-1.3-0.8-2.6-0.3-3.4 0.8-1.9 2.5-4.3 4.5-7.2 5.7-1.2 0.5-1.5 2.4-0.9 3.4 0.7 1.3 2.1 1.5 3.4 1z"/><path class="f" d="m291.5 31.2c4-4 7.7-8.4 11.1-13.1 1.9-2.6-2.4-5.1-4.3-2.5q-4.7 6.4-10.3 12c-2.3 2.3 1.2 5.9 3.5 3.6z"/><path class="e" d="m315.7 166.9c-6.2-1.6-13.3 0.1-19 2.7-2.7 1.2-5.2 2.7-7.5 4.7-1.7 1.4-4.8 4.2-4.6 4.3l-3 0.4c-6.5-0.4-17.6 5.5-19.1 11.8-1.9 8.3 3 17.3 10.8 20.3 7.6 2.9 17.9-0.6 25.5-2 9.3-1.7 16.1-5.6 21.2-13.7 5.6-8.7 9-25.2-4.3-28.5z"/><path class="g" d="m323.2 171.7c-5.2 2.1-10.1 8.7-13.6 11.5-9.1 7.3-19.6 12.3-30.8 15.8-4.6 1.5-10 2.6-14.8 2.8 1.9 4 5.2 7.2 9.3 8.8 7.6 2.9 17.9-0.6 25.5-2 9.3-1.7 16.1-5.6 21.2-13.7 4.1-6.3 6.9-16.7 3.2-23.2z"/><path class="f" d="m313.9 166.1c3.7-5.1 6.1-11.4 7.9-17.5 0.9-3.1-3.9-4.4-4.8-1.3-1.7 5.7-3.9 11.4-7.4 16.3-1.9 2.6 2.4 5.1 4.3 2.5z"/><path class="f" d="m329.5 155.8c2.8-4.5 4.5-9.6 6.6-14.4 1.3-2.9-2.9-5.5-4.3-2.6-2.1 4.8-3.8 9.9-6.6 14.4-1.7 2.8 2.6 5.4 4.3 2.6z"/><path class="f" d="m346.6 144c2.6-4.7 4.7-9.7 5.9-15 0.7-3.2-4.1-4.6-4.8-1.4-1.1 4.9-3 9.4-5.4 13.8-1.6 2.8 2.7 5.4 4.3 2.6z"/><path class="f" d="m359.6 138.1c1.6-3.6 3.1-7.3 4.6-10.9 1.3-2.9-3-5.5-4.2-2.6-1.6 3.6-3.1 7.3-4.7 11-1.2 2.9 3 5.5 4.3 2.5z"/><path class="f" d="m225.9 170.7c-1.9-3.6-3.5-7.3-4.1-11.4-0.4-3.2-5.2-1.9-4.8 1.2 0.6 4.5 2.4 8.8 4.6 12.7 1.5 2.8 5.9 0.3 4.3-2.5z"/><path class="f" d="m236.9 170.3c-1.9-2.9-3.6-5.9-4.1-9.4-0.5-3.2-5.3-1.9-4.8 1.3 0.6 3.8 2.5 7.3 4.6 10.6 1.7 2.7 6.1 0.2 4.3-2.5z"/><path class="f" d="m252.5 172c-3.5-3.1-7.6-6.4-8.1-11.3-0.4-3.2-5.4-3.3-5-0.1 0.7 6.6 4.8 10.7 9.5 14.9 2.4 2.1 6-1.4 3.6-3.5z"/><path class="f" d="m268.1 178.9c0-4.2-1.8-7.8-2.9-11.7-0.9-3.1-5.7-1.8-4.8 1.3 1 3.4 2.7 6.7 2.8 10.4 0 3.2 5 3.2 4.9 0z"/><path class="f" d="m279.1 178.4c-1.1-3.2-1.9-6.4-2.9-9.6-1-3-5.9-1.8-4.9 1.3 1 3.2 1.9 6.4 2.9 9.5 1 3.1 5.8 1.8 4.9-1.2z"/><path class="e" d="m1620.1 162.1q0 0.1-0.1 0.2c0.1 0.2 0.1 0 0.1-0.2z"/><path class="e" d="m1663.2 105.3c-6.2 0.5-33.6 16.2-50.3 34.5-4.6 5.1-0.1 16.1-5.2 20.5l12.5 1.1c-0.1 0.1-0.1 0.5-0.1 0.7 3.9-8.7 16.6-16.2 23.4-22.3 7.1-6.4 17.4-7 29.5-16.9 6.6-10.4-2.8-18-9.8-17.6z"/><path class="e" d="m1589.9 178.2q0.1 0.1 0.2 0.1c0 0.2-0.1 0.1-0.2-0.1z"/><path class="e" d="m1528.8 141.5c5.9-1.9 37.2 2.5 59.5 13.3 6.2 3 6.1 14.9 12.4 17l-11.1 5.7c0.1 0.2 0.2 0.5 0.3 0.7-6.8-6.7-21.4-8.9-30-12.1-9-3.3-18.8 0.1-33.6-4.6-10-7.2-4.1-17.8 2.5-20z"/><path class="e" d="m1612.4 274.5c-0.1 6.7-5.5 12-12.1 11.9h-4c-6.7-0.1-12-5.5-11.9-12.2l2.7-263.9c0.1-6.6 5.5-11.9 12.1-11.9l4 0.1c6.7 0.1 12 5.5 11.9 12.1z"/><path class="f" d="m1597.4 37.9c6.3-3.9 12.5-8.3 16.4-14.7 1.7-2.8-2.6-5.3-4.3-2.6-3.4 5.7-9 9.6-14.5 13-2.8 1.7-0.3 6 2.4 4.3z"/><path class="f" d="m1597.2 57.2c5.4-3.7 10.7-7.2 14.4-12.7 1.8-2.7-2.5-5.2-4.3-2.6-3.2 4.8-8 7.8-12.5 11-2.7 1.8-0.2 6.2 2.4 4.3z"/><path class="f" d="m1597.7 79.2c5.3-3 9.9-7.1 13.6-12 2-2.6-2.3-5.2-4.2-2.6-3.2 4.2-7.3 7.7-11.9 10.3-2.8 1.6-0.3 5.9 2.5 4.3z"/><path class="f" d="m1596.8 99.9c5.8-3.6 11.4-7.4 15-13.4 1.7-2.8-2.6-5.3-4.3-2.6-3.1 5.3-8.1 8.5-13.2 11.7-2.7 1.6-0.3 6 2.5 4.3z"/><path class="f" d="m1596.6 120.6c5.8-3 10.7-7.3 14.3-12.8 1.8-2.7-2.5-5.2-4.3-2.6-3.1 4.8-7.4 8.4-12.5 11-2.9 1.5-0.4 5.8 2.5 4.4z"/><path class="f" d="m1597 141.2c4.9-3.2 9.5-6.7 13-11.4 2-2.6-2.3-5.1-4.3-2.6-3 4-7 7-11.2 9.7-2.6 1.7-0.2 6.1 2.5 4.3z"/><path class="f" d="m1598.7 161.5c4.2-4.2 8.8-8 12.7-12.5 2.2-2.4-1.3-6-3.5-3.6-3.9 4.5-8.5 8.4-12.7 12.5-2.4 2.3 1.1 5.9 3.5 3.6z"/><path class="f" d="m1598.6 180.6c4.9-2.6 8.6-7 11.7-11.5 1.8-2.6-2.5-5.2-4.3-2.5-2.6 3.7-5.7 7.5-9.9 9.6-2.8 1.5-0.3 5.8 2.5 4.4z"/><path class="f" d="m1599.1 200.6c5-2.3 8.4-6.8 11.9-11 2.1-2.4-1.4-6-3.5-3.5-3.2 3.8-6.2 8-10.9 10.1-2.9 1.3-0.4 5.7 2.5 4.4z"/><path class="f" d="m1598.1 219.5c4.4-3.7 8.4-7.8 11.8-12.4 1.9-2.6-2.4-5.1-4.3-2.6-3.2 4.3-7 8-11 11.4-2.5 2.1 1 5.6 3.5 3.6z"/><path class="f" d="m1596.1 237.4c6.6 1.8 11.3-7.2 14.3-11.6 1.8-2.7-2.5-5.2-4.3-2.6-1.4 2.1-2.7 4.2-4.3 6.1-0.8 1-2.8 3.7-4.3 3.3-3.1-0.8-4.5 4-1.4 4.8z"/><path class="f" d="m1599.1 260.6c4.5-2.4 7.1-6.8 10.6-10.3 2.3-2.3-1.2-5.9-3.5-3.6-3.1 3.1-5.5 7.4-9.6 9.5-2.8 1.5-0.3 5.8 2.5 4.4z"/><path class="f" d="m1599.6 278.6c3.7-1.6 6.5-4.4 9-7.5 0.8-1.1 0.2-2.8-0.9-3.4-1.3-0.8-2.6-0.3-3.4 0.8-1.9 2.5-4.3 4.5-7.2 5.7-1.2 0.5-1.5 2.4-0.9 3.4 0.7 1.3 2.1 1.5 3.4 1z"/><path class="f" d="m1597.5 20.2c4-4 7.7-8.4 11.1-13.1 1.9-2.6-2.4-5.1-4.3-2.5q-4.7 6.4-10.3 12c-2.3 2.3 1.2 5.9 3.5 3.6z"/><path class="e" d="m1621.7 155.9c-6.2-1.6-13.3 0.1-19 2.7-2.7 1.2-5.2 2.7-7.5 4.7-1.7 1.4-4.8 4.2-4.6 4.3l-3 0.4c-6.5-0.4-17.6 5.5-19.1 11.8-1.9 8.3 3 17.3 10.8 20.3 7.6 2.9 17.9-0.6 25.5-2 9.3-1.7 16.1-5.6 21.2-13.7 5.6-8.7 9-25.2-4.3-28.5z"/><path class="g" d="m1629.2 160.7c-5.2 2.1-10.1 8.7-13.6 11.5-9.1 7.3-19.6 12.3-30.8 15.8-4.6 1.5-10 2.6-14.8 2.8 1.9 4 5.2 7.2 9.3 8.8 7.6 2.9 17.9-0.6 25.5-2 9.3-1.7 16.1-5.6 21.2-13.7 4.1-6.3 6.9-16.7 3.2-23.2z"/><path class="f" d="m1619.9 155.1c3.7-5.1 6.1-11.4 7.9-17.5 0.9-3.1-3.9-4.4-4.8-1.3-1.7 5.7-3.9 11.4-7.4 16.3-1.9 2.6 2.4 5.1 4.3 2.5z"/><path class="f" d="m1635.5 144.8c2.8-4.5 4.5-9.6 6.6-14.4 1.3-2.9-2.9-5.5-4.3-2.6-2.1 4.8-3.8 9.9-6.6 14.4-1.7 2.8 2.6 5.4 4.3 2.6z"/><path class="f" d="m1652.6 133c2.6-4.7 4.7-9.7 5.9-15 0.7-3.2-4.1-4.6-4.8-1.4-1.1 4.9-3 9.4-5.4 13.8-1.6 2.8 2.7 5.4 4.3 2.6z"/><path class="f" d="m1665.6 127.1c1.6-3.6 3.1-7.3 4.6-10.9 1.3-2.9-3-5.5-4.2-2.6-1.6 3.6-3.1 7.3-4.7 11-1.2 2.9 3 5.5 4.3 2.5z"/><path class="f" d="m1531.9 159.7c-1.9-3.6-3.5-7.3-4.1-11.4-0.4-3.2-5.2-1.9-4.8 1.2 0.6 4.5 2.4 8.8 4.6 12.7 1.5 2.8 5.9 0.3 4.3-2.5z"/><path class="f" d="m1542.9 159.3c-1.9-2.9-3.6-5.9-4.1-9.4-0.5-3.2-5.3-1.9-4.8 1.3 0.6 3.8 2.5 7.3 4.6 10.6 1.7 2.7 6.1 0.2 4.3-2.5z"/><path class="f" d="m1558.5 161c-3.5-3.1-7.6-6.4-8.1-11.3-0.4-3.2-5.4-3.3-5-0.1 0.7 6.6 4.8 10.7 9.5 14.9 2.4 2.1 6-1.4 3.6-3.5z"/><path class="f" d="m1574.1 167.9c0-4.2-1.8-7.8-2.9-11.7-0.9-3.1-5.7-1.8-4.8 1.3 1 3.4 2.7 6.7 2.8 10.4 0 3.2 5 3.2 4.9 0z"/><path class="f" d="m1585.1 167.4c-1.1-3.2-1.9-6.4-2.9-9.6-1-3-5.9-1.8-4.9 1.3 1 3.2 1.9 6.4 2.9 9.5 1 3.1 5.8 1.8 4.9-1.2z"/></svg>