<svg version="1.2" xmlns="http://www.w3.org/2000/svg" viewBox="0 0 1870 595" width="1870" height="595"><style>.a{fill:#c18156}.b{fill:#da9859}.c{fill:#7c5438}.d{opacity:.2;fill:#ffdc78}.e{fill:#c6bc93}.f{fill:#968f71}.g{opacity:.5;fill:#968f71}</style><path class="a" d="m1758 209.4c-102 4.3-205.2 17.5-308.8 16.1-114.4-1.5-230.7 28.5-346.4 8.5-100-17.2-202.2-46.5-305.4-42-28.2 1.2-56.2 4.6-83 16.1-21.8 9.3-36.8 30.9-60.4 27.8-18.4-2.4-35.5-20.1-54.5-23.7-21.3-4.2-43.7 0.4-65.2-1.9-86.3-9.2-170.3 9.9-255.8 7.4-40.4-1.2-80.1 1.6-120 0.2-29.3-1-93.2-15.1-120 0.3-35.6 20.4-14.9 92.7-15 132.6-0.1 20.1-7.7 67.8-1.4 85.1 8.5 23.5 31.4 7.7 43.9 20-16.6 10.6-34.2 14.2-51.8 21-4.7 15-19 64-11.5 79.6 8.5 17.8 46.5 9.4 59.3 7 55.1-10 116.2 2.5 174.1 7.8 159.9 14.8 324.1 4.4 485 17.8 69.4 5.8 139.4-3.4 209.4-1.4 87.5 2.5 172.3-21.5 259.4-25 93.1-3.7 184.9-8.6 278.7-7.5 59.6 0.6 121 7.7 182.4 5.2 48.3-2 98.3-3.9 146.1 4 15.6 2.6 45.6 19.5 59.3 4.7 13-14 11.8-59.2 12.3-80.1 0.5-23 1.9-70.2-9.1-84.5-6-7.7-25.3 7.7-26.3-12.6-0.9-20.3 22-6.8 26.7-13.8 8.5-12.7 2.3-57.3-7.5-69.9-11.8-15.1-46.7-12.2-61.8-13.6-11.2-1.1-21.4 1.4-30.8-5.6 20.8-35.9 101.1-4.6 104.8-48 4.5-53.5-83.1-32.6-106.7-31.6z"/><path class="b" d="m1831.4 542.8c-59.8-4.1-114.7-22-174.5-26-82.5-5.4-164.1-10.6-247.1-10.4-88 0.2-176.7-3.3-264.1 1.4-78.9 4.3-154 17.9-232.8 24-80.6 6.2-169.3 6.1-250.2-3.3-97-11.1-192.8-57.3-291.9-36-40.3 8.7-76 23.3-117.7 29.9-38.3 6-77.8 9.7-117.1 11.9-30.2 1.7-61.7-0.5-91.9 0.7-12.8 0.6-28.7 2.6-43.3 2.7-0.6 7.8-0.2 14.6 1.9 18.8 8.4 17.8 46.5 9.4 59.3 7 55.1-10 116.2 2.5 174.1 7.8 159.9 14.8 324.1 4.4 485 17.8 69.4 5.8 139.4-3.4 209.4-1.4 87.5 2.5 172.3-21.5 259.4-25 93.1-3.7 184.9-8.6 278.7-7.5 59.6 0.6 121 7.7 182.4 5.2 48.3-2 98.3-3.9 146.1 4 15.6 2.6 45.6 19.5 59.3 4.7 4.4-4.8 7.2-13.2 9-23.1-12.1 0.1-26.6-2.7-34-3.2z"/><path class="b" d="m1794.3 405.7c-30.4 1.1-66.8-3-95.8 2.4 37.8 6.8 78.2 10.7 116.4 15.6 15.1 2 34.4 4.6 52.6 8.7-1.1-10.3-3-19.4-6.2-25.2-22.9-0.6-46.6-2.3-67-1.5z"/><path class="b" d="m240.6 310.3c78.9 12.9 168.4 29.2 250 31.6 44.3 1.3 79.9 0.6 120-5.3 22.8-3.3 93.4-9.8 101.9-24.7-13.5-0.8-25.8-0.1-38.8 0.4-97 3.6-195.1 2.9-286.6-24.4-39.3-11.8-75.6-29.4-114.2-43.5-16.3-5.9-51.4-14.8-73.6-26.2-13.6 0.2-27.2 0.2-40.8-0.3-29.3-1-93.2-15.1-120 0.3-21 12-22.4 42.1-20 72.9 58.6-12.8 185.3 13.2 222.1 19.2z"/><path class="b" d="m1764.4 305.3c-55.5-3.4-114.3-11.5-170-8.5-83.7 4.5-166.4 11.6-250.3 17.4-158.2 10.9-328.3 2.3-473.6 54.3-62.8 22.5-89 71-157.8 89.4-74.3 19.8-150-6.6-223.5-18.7-86.4-14.3-174.2-27.9-262.5-33.4-45.8-2.8-92.4-0.8-138.5-2.2-18-0.5-47.1-2.6-68.3-1.1-0.6 13.6-0.4 26.2 2.2 33.4 8.5 23.5 31.4 7.7 43.9 20-16.7 10.6-34.2 14.2-51.8 21-2.5 7.9-7.6 25.3-10.8 42.2 6.4 0.6 12.6 1.2 17.5 1.3 33.6 1 64.3-0.9 96.6-2.4 88.6-4.1 169.1-16 251.1-41.2 87.5-26.9 177.6 30.1 265.6 33.4 95.5 3.5 193.3 11.4 287.1 5.1 51.3-3.4 102.1-10.4 153.5-15.5 66.2-6.6 133.9-4.8 199.7-12.7 67.9-8.1 139.6-0.4 208.1-5.3 72.8-5.2 138.8 11.8 210.4 22.6 46.6 7.1 94.4 8.4 141.3 14.5 7.2 1 21.7 2.1 33.5 4.8 0.6-10 0.7-19.9 0.8-27.9-16.1-2.2-33.8-3.1-46.3-5.5-27.1-5.3-53.5-14-81.2-16.4-55.5-4.9-110.2-3.8-164.9-10-122.7-14.1-242.3 7.2-366.7 0.1-63.2-3.7-121.8-23.2-182.7-31.2-16.2-2.1-45.4 0.2-56.6-9.4-16.1-13.7 5.2-25.3 23.3-30 21.5-5.6 50.2-4.2 73.7-5.6 39.7-2.3 79.5-6.2 119.5-8.8 105.3-6.8 208.6-24.3 314.2-29 81.9-3.7 160.5-1.6 242 1.8 40.2 1.6 80.6-2.2 120.6-4.3-1.3-15.7-5.6-32.4-11-39.3q-0.8-0.9-1.7-1.8c-29.5 2.9-68.6 0-86.4-1.1z"/><path class="b" d="m1721.9 365.2c-69.8 2.1-139.2 1.7-208.5 9.2-54.3 5.9-108.4 3.9-162.4 8-87.6 6.5-175.2 11.7-261.2 20.8-24.6 2.6-52.2 0.3-75.4 4.7 8 18.3 85 24.7 108.8 29 43.2 7.7 84.7 18.2 130.2 19.5 92.6 2.6 179.3-14 274.1-11.3 77.3 2.2 154.6 6.6 229.5 17 36.6 5.1 71.5 12.9 109.2 16.8q1.3 0.2 2.7 0.3c0.1-8.2 0.2-17.8-0.1-27.4-44.4-8.5-84.5-20.1-132.3-23.4-53.4-3.7-107.5-11.4-161.7-13.4-94.6-3.4-179.4 16.3-271.5 19.8-33.4 1.2-85.3 5.2-117-3.3 1-12.6 94.3-14.8 114.7-17.8 43.5-6.3 86.8-18.8 130.6-20.3 113.1-3.9 227.5 5.9 339.5-2.3 21.2-1.5 41.5-2.6 62.4-2.8 1.9-15 22.1-3.7 26.5-10.2 2.3-3.4 3.5-9.1 3.9-15.8-49.1-1.2-94.1 1.4-142 2.9z"/><path class="b" d="m1758 209.4c-102 4.3-205.2 17.5-308.8 16.1-114.4-1.5-230.7 28.5-346.4 8.5-100-17.2-202.2-46.5-305.4-42-28.2 1.2-56.2 4.6-83 16.1-21.8 9.3-36.8 30.9-60.4 27.8-18.4-2.4-35.5-20.1-54.5-23.7-21.3-4.2-43.7 0.4-65.2-1.9-86.3-9.2-170.3 9.9-255.8 7.4-11.5-0.3-22.9-0.3-34.2-0.2 18.4 7.5 36.1 16.1 52.7 22.8 40.4 16.2 75.7 25 119.6 35.2 109.7 25.7 225.4 13.6 338.2 23.3 15.9 1.4 53.8 4.8 36.3 18.6-6.6 5.3-50.8 8.2-62.8 10-59.2 8.5-111.7 28.3-175.2 30.4-103.3 3.4-197.1-13.5-297.2-28.3-54.9-8.1-110.5-17.1-166.8-16.6-22.8 0.2-45.4 3.5-68.1 4.5 1.3 12.3 2.5 23.8 2.5 33.4-0.1 6.6-0.9 16.1-1.8 26.6 67.4-9.3 192.7 2 215.2 5.7 87.8 14.5 174.9 26.7 262.9 41.2 41.7 6.9 85.5 16.4 127.6 19.3 49.1 3.4 74.5-5.3 109.3-26.9 61.9-38.6 110.4-86.2 197.8-97.3 42.8-5.4 86.6-6.5 130.6-8.1 47.9-1.7 93.7-10 141.1-13.5 89.5-6.6 181.5-1.2 270.9-9.6 92-8.7 187.2 3.2 279.8-5.7q4.7-0.5 9.1-0.9c27.2-23.9 95.3-0.7 98.7-40.6 4.5-53.5-83.1-32.6-106.7-31.6z"/><g style="opacity:.5"><path class="c" d="m1859 404.5c-6-7.7-25.2 7.7-26.2-12.6-0.9-20.3 22-6.8 26.7-13.8 8.5-12.7 2.2-57.3-7.5-69.9-1.8-2.2-4.1-4.1-6.8-5.7q0 0.1 0.1 0.1c4.9 12.6 0.9 40.5 4.6 54.1-41.2-20-39.3 70.4 0.1 62.9 1.1 26.9 4.4 52.5 3 79.3-2.1 40-7.9 33.1-33.4 37.2-37.4 6-72.1 14.7-112.7 10-218.8-25.1-464-78-678.3 8.1-86 34.6-193.1 2.9-282.3 2.8-54.2 0-110.1-10.4-163.7 0-44.9 8.8-80.6-4-125.2-7.2-96.4-6.9-191.6-12.3-287-25.4-47.7-6.6-94.4 3.2-140.9-0.1-8.4-0.6-18.3 0.7-28.2 4.1-1.7 11.7-2 22.3 0.8 28.1 8.5 17.8 46.6 9.4 59.4 7 55.1-10 116.2 2.5 174.1 7.8 159.8 14.8 324.1 4.4 484.9 17.8 69.5 5.8 139.5-3.4 209.5-1.4 87.5 2.5 172.2-21.5 259.3-25 93.2-3.7 185-8.6 278.7-7.5 59.7 0.6 121.1 7.7 182.5 5.2 48.3-2 98.3-3.9 146.1 4 15.6 2.6 45.6 19.5 59.3 4.7 13-14 11.8-59.2 12.3-80.1 0.5-23 1.9-70.2-9.2-84.5z"/><path class="c" d="m1733.4 287.7c9.3 0.6 18.1 0.5 26.6 0.2 21.9-34.1 100.6-4 104.2-46.9 1.5-18.2-7.7-27.8-21.3-32.5-0.6 6.2-1.3 12.7-3 18-12.2 38.6-77.2 32.4-106.5 47.9-0.3 4.7-0.3 8.6 0 13.3z"/></g><path class="d" d="m1564.2 306.7c-11.7-18.4-87.2-12.5-106.8-12.6-55.5-0.4-109.9 2.1-165.2-0.1-136.4-5.4-271.8 11.9-407.9-4.1-57.9-6.8-116-6.4-174.5-8.3-57.7-1.9-114.8-9.4-172.6-11.1-128-3.8-253.6-26.1-380.2-31.1-7.1-0.2-14.4 0-21.6 0l-24.2 21.1c-33.2 34.9-16.9 121.5 4.8 159.3 24.3 42.4 23 79.1 95.6 82.4 40.9 1.9 63.9 2.7 79.6-29.4 14-28.4 0.1-59.9 12-86.7 30.7-69.4 188.2-51.5 254.9-43.1 70.9 9 144 6.5 215.9 7.9 66.8 1.3 133.4 8 200.1 10.5 122 4.5 244.4 8.4 366.8 12.7 52.9 1.8 112.5-0.8 161.7-17.4 17-5.7 76.1-27.2 61.6-50z"/><path fill-rule="evenodd" class="c" d="m278.2 316.3c-17.6 0-31.8-14.2-31.8-31.8 0-17.6 14.2-31.8 31.8-31.8 17.6 0 31.8 14.2 31.8 31.8 0 17.6-14.2 31.8-31.8 31.8z"/><path fill-rule="evenodd" class="c" d="m1566.4 307.9c-17.6 0-31.8-14.2-31.8-31.8 0-17.5 14.2-31.7 31.8-31.7 17.5 0 31.8 14.2 31.8 31.7 0 17.6-14.3 31.8-31.8 31.8z"/><path class="e" d="m300 169.2q-0.1 0.1-0.1 0.2c0.1 0.1 0.1 0 0.1-0.2z"/><path class="e" d="m342.4 113.4c-6.1 0.4-33.1 15.8-49.5 33.9-4.6 5-0.1 15.8-5.1 20.1l12.3 1.1c-0.1 0.1-0.1 0.5-0.1 0.7 3.8-8.6 16.3-15.9 23-22 7-6.3 17.2-6.8 29.1-16.5 6.5-10.3-2.8-17.8-9.7-17.3z"/><path class="e" d="m270.3 185q0.1 0.1 0.1 0.1c0 0.2 0 0.1-0.1-0.1z"/><path class="e" d="m210.2 148.9c5.8-1.9 36.6 2.5 58.5 13.1 6.1 2.9 6 14.6 12.2 16.7l-10.9 5.6c0 0.2 0.2 0.5 0.3 0.7-6.7-6.5-21.1-8.7-29.6-11.9-8.8-3.2-18.4 0.1-33.1-4.5-9.8-7.1-4-17.6 2.6-19.7z"/><path class="e" d="m292.4 279.7c-0.1 6.5-5.4 11.8-11.9 11.7h-4c-6.5-0.1-11.7-5.5-11.7-12l2.7-259.5c0.1-6.5 5.4-11.7 12-11.7l3.9 0.1c6.5 0 11.7 5.4 11.7 11.9z"/><path class="f" d="m277.7 47c6.2-3.8 12.3-8.1 16.1-14.4 1.6-2.8-2.6-5.3-4.2-2.6-3.4 5.6-8.9 9.4-14.4 12.8-2.7 1.6-0.2 5.9 2.5 4.2z"/><path class="f" d="m277.5 66.1c5.2-3.7 10.5-7.2 14.1-12.6 1.8-2.6-2.5-5.1-4.2-2.5-3.1 4.7-7.8 7.6-12.4 10.8-2.5 1.8-0.1 6.1 2.5 4.3z"/><path class="f" d="m277.9 87.7c5.3-3 9.8-7 13.5-11.9 1.9-2.5-2.4-5-4.3-2.5-3.1 4.1-7.1 7.5-11.6 10.1-2.8 1.6-0.3 5.9 2.4 4.3z"/><path class="f" d="m277 108c5.8-3.5 11.3-7.3 14.8-13.2 1.7-2.7-2.6-5.2-4.2-2.5-3.1 5.2-7.9 8.3-13 11.4-2.7 1.7-0.3 6 2.4 4.3z"/><path class="f" d="m276.8 128.3c5.8-2.9 10.6-7.1 14.2-12.5 1.7-2.7-2.5-5.2-4.3-2.5-3.1 4.7-7.3 8.2-12.3 10.7-2.8 1.5-0.4 5.7 2.4 4.3z"/><path class="f" d="m277.3 148.6c4.8-3.1 9.3-6.6 12.8-11.2 1.9-2.5-2.4-5-4.2-2.5-3 3.9-7 6.8-11.1 9.5-2.6 1.7-0.2 6 2.5 4.2z"/><path class="f" d="m278.9 168.6c4.2-4.1 8.7-7.9 12.6-12.3 2.1-2.4-1.4-5.9-3.5-3.5-3.9 4.3-8.3 8.2-12.6 12.3-2.2 2.2 1.2 5.7 3.5 3.5z"/><path class="f" d="m278.8 187.3c4.8-2.5 8.5-6.9 11.5-11.2 1.8-2.6-2.4-5.1-4.2-2.6-2.6 3.7-5.6 7.5-9.7 9.6-2.8 1.4-0.4 5.7 2.4 4.2z"/><path class="f" d="m279.3 207c5-2.2 8.3-6.7 11.7-10.8 2.1-2.4-1.3-5.9-3.4-3.5-3.2 3.8-6.2 8-10.7 10-2.9 1.3-0.5 5.6 2.4 4.3z"/><path class="f" d="m278.3 225.6c4.4-3.6 8.3-7.6 11.6-12.2 1.9-2.5-2.3-5-4.2-2.5-3.1 4.2-6.8 7.9-10.9 11.2-2.4 2 1.1 5.5 3.5 3.5z"/><path class="f" d="m276.4 243.3c6.5 1.7 11.1-7.2 14-11.5 1.8-2.7-2.4-5.2-4.2-2.5-1.4 2-2.7 4-4.2 5.9-0.8 1-2.8 3.7-4.3 3.3-3-0.8-4.4 3.9-1.3 4.8z"/><path class="f" d="m279.3 266c4.5-2.3 7-6.7 10.5-10.1 2.2-2.3-1.2-5.8-3.5-3.5-3.1 3.1-5.4 7.2-9.4 9.3-2.8 1.5-0.4 5.7 2.4 4.3z"/><path class="f" d="m279.8 283.7c3.7-1.5 6.4-4.3 8.8-7.4 0.9-1 0.2-2.7-0.8-3.3-1.3-0.8-2.6-0.2-3.4 0.8-1.9 2.4-4.2 4.4-7 5.6-1.3 0.5-1.5 2.3-0.9 3.4 0.7 1.2 2.1 1.4 3.3 0.9z"/><path class="f" d="m277.7 29.6c4-3.9 7.7-8.3 11-12.8 1.9-2.6-2.4-5.1-4.2-2.5q-4.7 6.3-10.2 11.8c-2.3 2.2 1.1 5.8 3.4 3.5z"/><path class="e" d="m301.6 163.1c-6.1-1.6-13.1 0.1-18.7 2.6-2.7 1.2-5.1 2.6-7.4 4.6-1.7 1.4-4.8 4.2-4.5 4.3l-3 0.4c-6.4-0.4-17.3 5.4-18.8 11.6-1.9 8.1 3 17 10.6 19.9 7.5 2.9 17.6-0.5 25.1-1.9 9.2-1.7 15.9-5.5 20.9-13.5 5.5-8.6 8.8-24.7-4.2-28z"/><path class="g" d="m308.9 167.8c-5.1 2.1-9.9 8.5-13.4 11.3-8.9 7.2-19.2 12.1-30.2 15.5-4.6 1.5-9.9 2.6-14.6 2.8 1.9 3.9 5.1 7.1 9.1 8.6 7.5 2.9 17.6-0.5 25.1-1.9 9.2-1.7 15.9-5.5 20.9-13.5 4-6.2 6.8-16.4 3.1-22.8z"/><path class="f" d="m299.8 162.3c3.7-5 6-11.2 7.8-17.2 0.9-3-3.9-4.4-4.7-1.3-1.7 5.6-3.9 11.3-7.3 16-1.9 2.6 2.3 5.1 4.2 2.5z"/><path class="f" d="m315.1 152.2c2.8-4.5 4.4-9.5 6.6-14.2 1.2-2.9-3-5.4-4.3-2.5-2.1 4.7-3.8 9.7-6.5 14.1-1.7 2.7 2.6 5.3 4.2 2.6z"/><path class="f" d="m332 140.5c2.6-4.6 4.6-9.5 5.8-14.7 0.7-3.1-4.1-4.5-4.8-1.4-1 4.8-2.9 9.3-5.3 13.6-1.5 2.8 2.7 5.3 4.3 2.5z"/><path class="f" d="m344.8 134.8c1.6-3.6 3-7.2 4.5-10.8 1.3-2.9-2.9-5.4-4.2-2.5q-2.2 5.4-4.5 10.8c-1.3 2.8 2.9 5.4 4.2 2.5z"/><path class="f" d="m213.2 166.8c-1.9-3.5-3.5-7.2-4-11.2-0.5-3.2-5.2-1.9-4.8 1.2 0.6 4.4 2.4 8.6 4.5 12.5 1.6 2.7 5.8 0.3 4.3-2.5z"/><path class="f" d="m224 166.4c-1.8-2.9-3.5-5.8-4-9.3-0.5-3.1-5.3-1.8-4.8 1.3 0.6 3.8 2.5 7.3 4.6 10.5 1.7 2.6 6 0.2 4.2-2.5z"/><path class="f" d="m239.4 168.1c-3.5-3.1-7.5-6.3-8-11.2-0.4-3.1-5.3-3.2-5 0 0.7 6.5 4.8 10.5 9.5 14.6 2.3 2.1 5.8-1.3 3.5-3.4z"/><path class="f" d="m254.8 174.9c-0.1-4.1-1.8-7.7-3-11.5-0.8-3.1-5.6-1.8-4.7 1.2 1 3.4 2.7 6.6 2.7 10.2 0.1 3.2 5 3.2 5 0.1z"/><path class="f" d="m265.5 174.3c-1-3.1-1.9-6.2-2.9-9.3-0.9-3-5.7-1.8-4.7 1.2 1 3.1 1.9 6.3 2.8 9.4 1 3 5.8 1.8 4.8-1.3z"/><path class="e" d="m1588 159.2q-0.1 0.1-0.1 0.2c0.1 0.1 0.1 0 0.1-0.2z"/><path class="e" d="m1630.4 103.4c-6.1 0.4-33.1 15.8-49.5 33.9-4.6 5-0.1 15.8-5.1 20.1l12.3 1.1c-0.1 0.1-0.1 0.5-0.1 0.7 3.8-8.6 16.3-15.9 23-22 7-6.3 17.2-6.8 29.1-16.5 6.5-10.3-2.8-17.8-9.7-17.3z"/><path class="e" d="m1558.3 175q0.1 0.1 0.1 0.1c0 0.2 0 0.1-0.1-0.1z"/><path class="e" d="m1498.2 138.9c5.8-1.9 36.6 2.5 58.5 13.1 6.1 2.9 6 14.6 12.2 16.7l-10.9 5.6c0 0.2 0.2 0.5 0.3 0.7-6.7-6.5-21.1-8.7-29.6-11.9-8.8-3.2-18.4 0.1-33.1-4.5-9.8-7.1-4-17.6 2.6-19.7z"/><path class="e" d="m1580.4 269.7c-0.1 6.5-5.4 11.8-11.9 11.7h-4c-6.5-0.1-11.7-5.5-11.7-12l2.7-259.5c0.1-6.5 5.4-11.7 12-11.7l3.9 0.1c6.5 0 11.7 5.4 11.7 11.9z"/><path class="f" d="m1565.7 37c6.2-3.8 12.3-8.1 16.1-14.4 1.6-2.8-2.6-5.3-4.2-2.6-3.4 5.6-8.9 9.4-14.4 12.8-2.7 1.6-0.2 5.9 2.5 4.2z"/><path class="f" d="m1565.5 56.1c5.2-3.7 10.5-7.2 14.1-12.6 1.8-2.6-2.5-5.1-4.2-2.5-3.1 4.7-7.8 7.6-12.4 10.8-2.5 1.8-0.1 6.1 2.5 4.3z"/><path class="f" d="m1565.9 77.7c5.3-3 9.8-7 13.5-11.9 1.9-2.5-2.4-5-4.3-2.5-3.1 4.1-7.1 7.5-11.6 10.1-2.8 1.6-0.3 5.9 2.4 4.3z"/><path class="f" d="m1565 98c5.8-3.5 11.3-7.3 14.8-13.2 1.7-2.7-2.6-5.2-4.2-2.5-3.1 5.2-7.9 8.3-13 11.4-2.7 1.7-0.3 6 2.4 4.3z"/><path class="f" d="m1564.8 118.3c5.8-2.9 10.6-7.1 14.2-12.5 1.7-2.7-2.5-5.2-4.3-2.5-3.1 4.7-7.3 8.2-12.3 10.7-2.8 1.5-0.4 5.7 2.4 4.3z"/><path class="f" d="m1565.3 138.6c4.8-3.1 9.3-6.6 12.8-11.2 1.9-2.5-2.4-5-4.2-2.5-3 3.9-7 6.8-11.1 9.5-2.6 1.7-0.2 6 2.5 4.2z"/><path class="f" d="m1566.9 158.6c4.2-4.1 8.7-7.9 12.6-12.3 2.1-2.4-1.4-5.9-3.5-3.5-3.9 4.3-8.3 8.2-12.6 12.3-2.2 2.2 1.2 5.7 3.5 3.5z"/><path class="f" d="m1566.8 177.3c4.8-2.5 8.5-6.9 11.5-11.2 1.8-2.6-2.4-5.1-4.2-2.6-2.6 3.7-5.6 7.5-9.7 9.6-2.8 1.4-0.4 5.7 2.4 4.2z"/><path class="f" d="m1567.3 197c5-2.2 8.3-6.7 11.7-10.8 2.1-2.4-1.3-5.9-3.4-3.5-3.2 3.8-6.2 8-10.7 10-2.9 1.3-0.5 5.6 2.4 4.3z"/><path class="f" d="m1566.3 215.6c4.4-3.6 8.3-7.6 11.6-12.2 1.9-2.5-2.3-5-4.2-2.5-3.1 4.2-6.8 7.9-10.9 11.2-2.4 2 1.1 5.5 3.5 3.5z"/><path class="f" d="m1564.4 233.3c6.5 1.7 11.1-7.2 14-11.5 1.8-2.7-2.4-5.2-4.2-2.5-1.4 2-2.7 4-4.2 5.9-0.8 1-2.8 3.7-4.3 3.3-3-0.8-4.4 3.9-1.3 4.8z"/><path class="f" d="m1567.3 256c4.5-2.3 7-6.7 10.5-10.1 2.2-2.3-1.2-5.8-3.5-3.5-3.1 3.1-5.4 7.2-9.4 9.3-2.8 1.5-0.4 5.7 2.4 4.3z"/><path class="f" d="m1567.8 273.7c3.7-1.5 6.4-4.3 8.8-7.4 0.9-1 0.2-2.7-0.8-3.3-1.3-0.8-2.6-0.2-3.4 0.8-1.9 2.4-4.2 4.4-7 5.6-1.3 0.5-1.5 2.3-0.9 3.4 0.7 1.2 2.1 1.4 3.3 0.9z"/><path class="f" d="m1565.7 19.6c4-3.9 7.7-8.3 11-12.8 1.9-2.6-2.4-5.1-4.2-2.5q-4.7 6.3-10.2 11.8c-2.3 2.2 1.1 5.8 3.4 3.5z"/><path class="e" d="m1589.6 153.1c-6.1-1.6-13.1 0.1-18.7 2.6-2.7 1.2-5.1 2.6-7.4 4.6-1.7 1.4-4.8 4.2-4.5 4.3l-3 0.4c-6.4-0.4-17.3 5.4-18.8 11.6-1.9 8.1 3 17 10.6 19.9 7.5 2.9 17.6-0.5 25.1-1.9 9.2-1.7 15.9-5.5 20.9-13.5 5.5-8.6 8.8-24.7-4.2-28z"/><path class="g" d="m1596.9 157.8c-5.1 2.1-9.9 8.5-13.4 11.3-8.9 7.2-19.2 12.1-30.2 15.5-4.6 1.5-9.9 2.6-14.6 2.8 1.9 3.9 5.1 7.1 9.1 8.6 7.5 2.9 17.6-0.5 25.1-1.9 9.2-1.7 15.9-5.5 20.9-13.5 4-6.2 6.8-16.4 3.1-22.8z"/><path class="f" d="m1587.8 152.3c3.7-5 6-11.2 7.8-17.2 0.9-3-3.9-4.4-4.7-1.3-1.7 5.6-3.9 11.3-7.3 16-1.9 2.6 2.3 5.1 4.2 2.5z"/><path class="f" d="m1603.1 142.2c2.8-4.5 4.4-9.5 6.6-14.2 1.2-2.9-3-5.4-4.3-2.5-2.1 4.7-3.8 9.7-6.5 14.1-1.7 2.7 2.6 5.3 4.2 2.6z"/><path class="f" d="m1620 130.5c2.6-4.6 4.6-9.5 5.8-14.7 0.7-3.1-4.1-4.5-4.8-1.4-1 4.8-2.9 9.3-5.3 13.6-1.5 2.8 2.7 5.3 4.3 2.5z"/><path class="f" d="m1632.8 124.8c1.6-3.6 3-7.2 4.5-10.8 1.3-2.9-2.9-5.4-4.2-2.5q-2.3 5.4-4.5 10.8c-1.3 2.8 2.9 5.4 4.2 2.5z"/><path class="f" d="m1501.2 156.8c-1.9-3.5-3.5-7.2-4-11.2-0.5-3.2-5.2-1.9-4.8 1.2 0.6 4.4 2.4 8.6 4.5 12.5 1.6 2.7 5.8 0.3 4.3-2.5z"/><path class="f" d="m1512 156.4c-1.8-2.9-3.5-5.8-4-9.3-0.5-3.1-5.3-1.8-4.8 1.3 0.6 3.8 2.5 7.3 4.6 10.5 1.7 2.6 6 0.2 4.2-2.5z"/><path class="f" d="m1527.4 158.1c-3.5-3.1-7.5-6.3-8-11.2-0.4-3.1-5.3-3.2-5 0 0.7 6.5 4.8 10.5 9.5 14.6 2.3 2.1 5.8-1.3 3.5-3.4z"/><path class="f" d="m1542.8 164.9c-0.1-4.1-1.8-7.7-3-11.5-0.8-3.1-5.6-1.8-4.7 1.2 1 3.4 2.7 6.6 2.7 10.2 0.1 3.2 5 3.2 5 0.1z"/><path class="f" d="m1553.5 164.3c-1-3.1-1.9-6.2-2.9-9.3-0.9-3-5.7-1.8-4.7 1.2 1 3.1 1.9 6.3 2.8 9.4 1 3 5.8 1.8 4.8-1.3z"/></svg>