<svg version="1.2" xmlns="http://www.w3.org/2000/svg" viewBox="0 0 1870 753" width="1870" height="753"><style>.a{fill:#c18156}.b{fill:#da9859}.c{fill:#7c5438}.d{opacity:.2;fill:#ffdc78}.e{fill:#c6bc93}.f{fill:#968f71}.g{opacity:.5;fill:#968f71}</style><path class="a" d="m1758 218.5c-102 6.1-205.2 24.5-308.8 22.6-114.4-2.1-230.7 39.9-346.4 11.9-100-24.1-202.2-65.1-305.4-58.8-28.2 1.7-56.2 6.4-83 22.5-21.8 13-36.8 43.3-60.4 38.9-18.4-3.3-35.5-28.1-54.5-33.1-21.3-5.9-43.7 0.5-65.2-2.7-86.3-12.9-170.3 13.9-255.8 10.4-40.4-1.7-80.1 2.2-120 0.2-29.3-1.4-93.2-21.1-120 0.5-35.6 28.5-14.9 129.7-15 185.6-0.1 28.1-7.7 94.9-1.4 119.1 8.5 32.9 31.4 10.8 43.9 28-16.6 14.8-34.2 19.9-51.8 29.4-4.7 21-19 89.6-11.5 111.4 8.5 24.9 46.5 13.2 59.3 9.8 55.1-14 116.2 3.5 174.1 10.9 159.9 20.8 324.1 6.2 485 25 69.4 8.1 139.4-4.8 209.4-2 87.5 3.5 172.3-30.1 259.4-35 93.1-5.2 184.9-12 278.7-10.5 59.6 0.8 121 10.8 182.4 7.3 48.3-2.8 98.3-5.5 146.1 5.6 15.6 3.6 45.6 27.3 59.3 6.6 13-19.6 11.8-82.9 12.3-112.2 0.5-32.2 1.9-98.2-9.1-118.3-6-10.7-25.3 10.8-26.3-17.6-0.9-28.4 22-9.5 26.7-19.3 8.5-17.8 2.3-80.2-7.5-97.9-11.8-21.1-46.7-17-61.8-19-11.2-1.5-21.4 2-30.8-7.8 20.8-50.3 101.1-6.5 104.8-67.2 4.5-74.9-83.1-45.7-106.7-44.3z"/><path class="b" d="m1831.4 685.2c-59.8-5.7-114.7-30.8-174.5-36.4-82.5-7.5-164.1-14.8-247.1-14.5-88 0.3-176.7-4.6-264.1 2-78.9 6-154 25-232.8 33.5-80.6 8.7-169.3 8.6-250.2-4.6-97-15.5-192.8-80.2-291.9-50.4-40.3 12.2-76 32.6-117.7 41.9-38.3 8.4-77.8 13.6-117.1 16.6-30.2 2.4-61.7-0.7-91.9 1-12.8 0.9-28.7 3.7-43.3 3.8-0.6 10.9-0.2 20.4 1.9 26.3 8.4 24.9 46.5 13.2 59.3 9.8 55.1-14 116.2 3.5 174.1 10.9 159.9 20.8 324.1 6.2 485 25 69.4 8.1 139.4-4.8 209.4-2 87.5 3.5 172.3-30.1 259.4-35 93.1-5.2 184.9-12 278.7-10.5 59.6 0.8 121 10.8 182.4 7.3 48.3-2.8 98.3-5.5 146.1 5.6 15.6 3.6 45.6 27.3 59.3 6.6 4.4-6.8 7.2-18.5 9-32.4-12.1 0.2-26.6-3.8-34-4.5z"/><path class="b" d="m1794.3 493.3c-30.4 1.6-66.8-4.2-95.8 3.4 37.8 9.5 78.2 15 116.4 21.8 15.1 2.8 34.4 6.5 52.6 12.2-1.1-14.4-3-27.2-6.2-35.3-22.9-0.8-46.6-3.2-67-2.1z"/><path class="b" d="m240.6 359.8c78.9 18 168.4 40.9 250 44.2 44.3 1.8 79.9 0.9 120-7.4 22.8-4.6 93.4-13.7 101.9-34.6-13.5-1.1-25.8-0.1-38.8 0.6-97 5-195.1 4-286.6-34.2-39.3-16.5-75.6-41.1-114.2-60.9-16.3-8.2-51.4-20.7-73.6-36.6-13.6 0.2-27.2 0.2-40.8-0.5-29.3-1.4-93.2-21.1-120 0.5-21 16.8-22.4 58.9-20 102 58.6-17.9 185.3 18.5 222.1 26.9z"/><path class="b" d="m1764.4 352.8c-55.5-4.8-114.3-16.1-170-11.9-83.7 6.3-166.4 16.2-250.3 24.3-158.2 15.3-328.3 3.3-473.6 76.1-62.8 31.5-89 99.3-157.8 125.1-74.3 27.7-150-9.2-223.5-26.2-86.4-20-174.2-39-262.5-46.7-45.8-4-92.4-1.2-138.5-3.1-18-0.7-47.1-3.7-68.3-1.6-0.6 19.1-0.4 36.7 2.2 46.8 8.5 32.9 31.4 10.8 43.9 28-16.7 14.8-34.2 19.9-51.8 29.4-2.5 11.1-7.6 35.4-10.8 59.1 6.4 0.8 12.6 1.6 17.5 1.8 33.6 1.4 64.3-1.3 96.6-3.4 88.6-5.7 169.1-22.4 251.1-57.6 87.5-37.7 177.6 42.1 265.6 46.7 95.5 4.9 193.3 16 287.1 7.1 51.3-4.7 102.1-14.5 153.5-21.6 66.2-9.3 133.9-6.8 199.7-17.8 67.9-11.4 139.6-0.6 208.1-7.4 72.8-7.3 138.8 16.5 210.4 31.6 46.6 9.9 94.4 11.8 141.3 20.3 7.2 1.4 21.7 2.9 33.5 6.7 0.6-14 0.7-27.8 0.8-39-16.1-3.1-33.8-4.4-46.3-7.7-27.1-7.5-53.5-19.6-81.2-23-55.5-6.9-110.2-5.3-164.9-14-122.7-19.7-242.3 10.1-366.7 0.1-63.2-5.1-121.8-32.4-182.7-43.6-16.2-3-45.4 0.2-56.6-13.2-16.1-19.2 5.2-35.4 23.3-42 21.5-7.8 50.2-5.9 73.7-7.8 39.7-3.2 79.5-8.7 119.5-12.3 105.3-9.6 208.6-34.1 314.2-40.6 81.9-5.2 160.5-2.3 242 2.5 40.2 2.2 80.6-3.1 120.6-6-1.3-22-5.6-45.4-11-55.1q-0.8-1.2-1.7-2.5c-29.5 4.1-68.6 0-86.4-1.5z"/><path class="b" d="m1721.9 436.6c-69.8 3-139.2 2.4-208.5 12.9-54.3 8.3-108.4 5.5-162.4 11.2-87.6 9.1-175.2 16.4-261.2 29.1-24.6 3.7-52.2 0.4-75.4 6.6 8 25.6 85 34.6 108.8 40.6 43.2 10.8 84.7 25.5 130.2 27.3 92.6 3.6 179.3-19.6 274.1-15.8 77.3 3.1 154.6 9.2 229.5 23.8 36.6 7.1 71.5 18 109.2 23.5q1.3 0.3 2.7 0.4c0.1-11.5 0.2-24.9-0.1-38.3-44.4-11.9-84.5-28.2-132.3-32.8-53.4-5.2-107.5-16-161.7-18.8-94.6-4.7-179.4 22.9-271.5 27.8-33.4 1.6-85.3 7.2-117-4.7 1-17.6 94.3-20.7 114.7-24.9 43.5-8.8 86.8-26.3 130.6-28.4 113.1-5.4 227.5 8.3 339.5-3.2 21.2-2.1 41.5-3.6 62.4-3.9 1.9-21 22.1-5.2 26.5-14.3 2.3-4.8 3.5-12.7 3.9-22.1-49.1-1.7-94.1 1.9-142 4z"/><path class="b" d="m1758 218.5c-102 6.1-205.2 24.5-308.8 22.6-114.4-2.1-230.7 39.9-346.4 11.9-100-24.1-202.2-65.1-305.4-58.8-28.2 1.7-56.2 6.4-83 22.5-21.8 13-36.8 43.3-60.4 38.9-18.4-3.3-35.5-28.1-54.5-33.1-21.3-5.9-43.7 0.5-65.2-2.7-86.3-12.9-170.3 13.9-255.8 10.4-11.5-0.5-22.9-0.5-34.2-0.3 18.4 10.5 36.1 22.5 52.7 31.9 40.4 22.7 75.7 35 119.6 49.3 109.7 35.9 225.4 19 338.2 32.6 15.9 1.9 53.8 6.7 36.3 26-6.6 7.4-50.8 11.5-62.8 14-59.2 11.9-111.7 39.6-175.2 42.6-103.3 4.7-197.1-18.9-297.2-39.6-54.9-11.4-110.5-24-166.8-23.3-22.8 0.3-45.4 4.9-68.1 6.3 1.3 17.2 2.5 33.3 2.5 46.8-0.1 9.2-0.9 22.5-1.8 37.2 67.4-13 192.7 2.8 215.2 8 87.8 20.3 174.9 37.4 262.9 57.7 41.7 9.6 85.5 22.9 127.6 27 49.1 4.7 74.5-7.4 109.3-37.7 61.9-54 110.4-120.6 197.8-136.2 42.8-7.5 86.6-9.1 130.6-11.3 47.9-2.4 93.7-14 141.1-18.9 89.5-9.3 181.5-1.7 270.9-13.5 92-12.1 187.2 4.5 279.8-7.9q4.7-0.7 9.1-1.3c27.2-33.4 95.3-1 98.7-56.8 4.5-74.9-83.1-45.7-106.7-44.3z"/><g style="opacity:.5"><path class="c" d="m1859 491.6c-6-10.7-25.2 10.8-26.2-17.6-0.9-28.4 22-9.5 26.7-19.3 8.5-17.8 2.2-80.2-7.5-97.9-1.8-3-4.1-5.7-6.8-7.9q0 0.1 0.1 0.1c4.9 17.6 0.9 56.7 4.6 75.7-41.2-28-39.3 98.6 0.1 88.1 1.1 37.6 4.4 73.5 3 111-2.1 56-7.9 46.3-33.4 52.1-37.4 8.4-72.1 20.5-112.7 14-218.8-35.2-464-109.2-678.3 11.3-86 48.4-193.1 4.1-282.3 3.9-54.2 0-110.1-14.5-163.7 0-44.9 12.3-80.6-5.6-125.2-10.1-96.4-9.6-191.6-17.2-287-35.5-47.7-9.3-94.4 4.5-140.9-0.2-8.4-0.8-18.3 1-28.2 5.8-1.7 16.4-2 31.2 0.8 39.3 8.5 24.9 46.6 13.2 59.4 9.8 55.1-14 116.2 3.5 174.1 10.9 159.8 20.8 324.1 6.2 484.9 25 69.5 8.1 139.5-4.8 209.5-2 87.5 3.5 172.2-30.1 259.3-35 93.2-5.2 185-12 278.7-10.5 59.7 0.8 121.1 10.8 182.5 7.3 48.3-2.8 98.3-5.5 146.1 5.6 15.6 3.6 45.6 27.3 59.3 6.6 13-19.6 11.8-82.9 12.3-112.2 0.5-32.2 1.9-98.2-9.2-118.3z"/><path class="c" d="m1733.4 328.1c9.3 0.9 18.1 0.7 26.6 0.3 21.9-47.7 100.6-5.6 104.2-65.6 1.5-25.5-7.7-38.9-21.3-45.5-0.6 8.7-1.3 17.8-3 25.2-12.2 54-77.2 45.3-106.5 67-0.3 6.6-0.3 12.1 0 18.6z"/></g><path class="d" d="m1564.2 354.7c-11.7-25.7-87.2-17.5-106.8-17.6-55.5-0.6-109.9 2.9-165.2-0.1-136.4-7.6-271.8 16.6-407.9-5.8-57.9-9.5-116-8.9-174.5-11.6-57.7-2.7-114.8-13.1-172.6-15.5-128-5.3-253.6-36.6-380.2-43.6-7.1-0.2-14.4 0-21.6 0l-24.2 29.6c-33.2 48.8-16.9 170.1 4.8 223 24.3 59.3 23 110.7 95.6 115.3 40.9 2.7 63.9 3.8 79.6-41.1 14-39.8 0.1-83.9 12-121.4 30.7-97.2 188.2-72.1 254.9-60.3 70.9 12.6 144 9.1 215.9 11 66.8 1.8 133.4 11.2 200.1 14.7 122 6.3 244.4 11.8 366.8 17.8 52.9 2.5 112.5-1.1 161.7-24.4 17-7.9 76.1-38 61.6-70z"/><path fill-rule="evenodd" class="c" d="m278.2 318.3c-17.6 0-31.8-14.2-31.8-31.8 0-17.6 14.2-31.8 31.8-31.8 17.6 0 31.8 14.2 31.8 31.8 0 17.6-14.2 31.8-31.8 31.8z"/><path fill-rule="evenodd" class="c" d="m1566.4 309.9c-17.6 0-31.8-14.2-31.8-31.8 0-17.5 14.2-31.7 31.8-31.7 17.5 0 31.8 14.2 31.8 31.7 0 17.6-14.3 31.8-31.8 31.8z"/><path class="e" d="m300 171.2q-0.1 0.1-0.1 0.2c0.1 0.1 0.1 0 0.1-0.2z"/><path class="e" d="m342.4 115.4c-6.1 0.4-33.1 15.8-49.5 33.9-4.6 5-0.1 15.8-5.1 20.1l12.3 1.1c-0.1 0.1-0.1 0.5-0.1 0.7 3.8-8.6 16.3-15.9 23-22 7-6.3 17.2-6.8 29.1-16.5 6.5-10.3-2.8-17.8-9.7-17.3z"/><path class="e" d="m270.3 187q0.1 0.1 0.1 0.1c0 0.2 0 0.1-0.1-0.1z"/><path class="e" d="m210.2 150.9c5.8-1.9 36.6 2.5 58.5 13.1 6.1 2.9 6 14.6 12.2 16.7l-10.9 5.6c0 0.2 0.2 0.5 0.3 0.7-6.7-6.5-21.1-8.7-29.6-11.9-8.8-3.2-18.4 0.1-33.1-4.5-9.8-7.1-4-17.6 2.6-19.7z"/><path class="e" d="m292.4 281.7c-0.1 6.5-5.4 11.8-11.9 11.7h-4c-6.5-0.1-11.7-5.5-11.7-12l2.7-259.5c0.1-6.5 5.4-11.7 12-11.7l3.9 0.1c6.5 0 11.7 5.4 11.7 11.9z"/><path class="f" d="m277.7 49c6.2-3.8 12.3-8.1 16.1-14.4 1.6-2.8-2.6-5.3-4.2-2.6-3.4 5.6-8.9 9.4-14.4 12.8-2.7 1.6-0.2 5.9 2.5 4.2z"/><path class="f" d="m277.5 68.1c5.2-3.7 10.5-7.2 14.1-12.6 1.8-2.6-2.5-5.1-4.2-2.5-3.1 4.7-7.8 7.6-12.4 10.8-2.5 1.8-0.1 6.1 2.5 4.3z"/><path class="f" d="m277.9 89.7c5.3-3 9.8-7 13.5-11.9 1.9-2.5-2.4-5-4.3-2.5-3.1 4.1-7.1 7.5-11.6 10.1-2.8 1.6-0.3 5.9 2.4 4.3z"/><path class="f" d="m277 110c5.8-3.5 11.3-7.3 14.8-13.2 1.7-2.7-2.6-5.2-4.2-2.5-3.1 5.2-7.9 8.3-13 11.4-2.7 1.7-0.3 6 2.4 4.3z"/><path class="f" d="m276.8 130.3c5.8-2.9 10.6-7.1 14.2-12.5 1.7-2.7-2.5-5.2-4.3-2.5-3.1 4.7-7.3 8.2-12.3 10.7-2.8 1.5-0.4 5.7 2.4 4.3z"/><path class="f" d="m277.3 150.6c4.8-3.1 9.3-6.6 12.8-11.2 1.9-2.5-2.4-5-4.2-2.5-3 3.9-7 6.8-11.1 9.5-2.6 1.7-0.2 6 2.5 4.2z"/><path class="f" d="m278.9 170.6c4.2-4.1 8.7-7.9 12.6-12.3 2.1-2.4-1.4-5.9-3.5-3.5-3.9 4.3-8.3 8.2-12.6 12.3-2.2 2.2 1.2 5.7 3.5 3.5z"/><path class="f" d="m278.8 189.3c4.8-2.5 8.5-6.9 11.5-11.2 1.8-2.6-2.4-5.1-4.2-2.6-2.6 3.7-5.6 7.5-9.7 9.6-2.8 1.4-0.4 5.7 2.4 4.2z"/><path class="f" d="m279.3 209c5-2.2 8.3-6.7 11.7-10.8 2.1-2.4-1.3-5.9-3.4-3.5-3.2 3.8-6.2 8-10.7 10-2.9 1.3-0.5 5.6 2.4 4.3z"/><path class="f" d="m278.3 227.6c4.4-3.6 8.3-7.6 11.6-12.2 1.9-2.5-2.3-5-4.2-2.5-3.1 4.2-6.8 7.9-10.9 11.2-2.4 2 1.1 5.5 3.5 3.5z"/><path class="f" d="m276.4 245.3c6.5 1.7 11.1-7.2 14-11.5 1.8-2.7-2.4-5.2-4.2-2.5-1.4 2-2.7 4-4.2 5.9-0.8 1-2.8 3.7-4.3 3.3-3-0.8-4.4 3.9-1.3 4.8z"/><path class="f" d="m279.3 268c4.5-2.3 7-6.7 10.5-10.1 2.2-2.3-1.2-5.8-3.5-3.5-3.1 3.1-5.4 7.2-9.4 9.3-2.8 1.5-0.4 5.7 2.4 4.3z"/><path class="f" d="m279.8 285.7c3.7-1.5 6.4-4.3 8.8-7.4 0.9-1 0.2-2.7-0.8-3.3-1.3-0.8-2.6-0.2-3.4 0.8-1.9 2.4-4.2 4.4-7 5.6-1.3 0.5-1.5 2.3-0.9 3.4 0.7 1.2 2.1 1.4 3.3 0.9z"/><path class="f" d="m277.7 31.6c4-3.9 7.7-8.3 11-12.8 1.9-2.6-2.4-5.1-4.2-2.5q-4.7 6.3-10.2 11.8c-2.3 2.2 1.1 5.8 3.4 3.5z"/><path class="e" d="m301.6 165.1c-6.1-1.6-13.1 0.1-18.7 2.6-2.7 1.2-5.1 2.6-7.4 4.6-1.7 1.4-4.8 4.2-4.5 4.3l-3 0.4c-6.4-0.4-17.3 5.4-18.8 11.6-1.9 8.1 3 17 10.6 19.9 7.5 2.9 17.6-0.5 25.1-1.9 9.2-1.7 15.9-5.5 20.9-13.5 5.5-8.6 8.8-24.7-4.2-28z"/><path class="g" d="m308.9 169.8c-5.1 2.1-9.9 8.5-13.4 11.3-8.9 7.2-19.2 12.1-30.2 15.5-4.6 1.5-9.9 2.6-14.6 2.8 1.9 3.9 5.1 7.1 9.1 8.6 7.5 2.9 17.6-0.5 25.1-1.9 9.2-1.7 15.9-5.5 20.9-13.5 4-6.2 6.8-16.4 3.1-22.8z"/><path class="f" d="m299.8 164.3c3.7-5 6-11.2 7.8-17.2 0.9-3-3.9-4.4-4.7-1.3-1.7 5.6-3.9 11.3-7.3 16-1.9 2.6 2.3 5.1 4.2 2.5z"/><path class="f" d="m315.1 154.2c2.8-4.5 4.4-9.5 6.6-14.2 1.2-2.9-3-5.4-4.3-2.5-2.1 4.7-3.8 9.7-6.5 14.1-1.7 2.7 2.6 5.3 4.2 2.6z"/><path class="f" d="m332 142.5c2.6-4.6 4.6-9.5 5.8-14.7 0.7-3.1-4.1-4.5-4.8-1.4-1 4.8-2.9 9.3-5.3 13.6-1.5 2.8 2.7 5.3 4.3 2.5z"/><path class="f" d="m344.8 136.8c1.6-3.6 3-7.2 4.5-10.8 1.3-2.9-2.9-5.4-4.2-2.5q-2.2 5.4-4.5 10.8c-1.3 2.8 2.9 5.4 4.2 2.5z"/><path class="f" d="m213.2 168.8c-1.9-3.5-3.5-7.2-4-11.2-0.5-3.2-5.2-1.9-4.8 1.2 0.6 4.4 2.4 8.6 4.5 12.5 1.6 2.7 5.8 0.3 4.3-2.5z"/><path class="f" d="m224 168.4c-1.8-2.9-3.5-5.8-4-9.3-0.5-3.1-5.3-1.8-4.8 1.3 0.6 3.8 2.5 7.3 4.6 10.5 1.7 2.6 6 0.2 4.2-2.5z"/><path class="f" d="m239.4 170.1c-3.5-3.1-7.5-6.3-8-11.2-0.4-3.1-5.3-3.2-5 0 0.7 6.5 4.8 10.5 9.5 14.6 2.3 2.1 5.8-1.3 3.5-3.4z"/><path class="f" d="m254.8 176.9c-0.1-4.1-1.8-7.7-3-11.5-0.8-3.1-5.6-1.8-4.7 1.2 1 3.4 2.7 6.6 2.7 10.2 0.1 3.2 5 3.2 5 0.1z"/><path class="f" d="m265.5 176.3c-1-3.1-1.9-6.2-2.9-9.3-0.9-3-5.7-1.8-4.7 1.2 1 3.1 1.9 6.3 2.8 9.4 1 3 5.8 1.8 4.8-1.3z"/><path class="e" d="m1588 161.2q-0.1 0.1-0.1 0.2c0.1 0.1 0.1 0 0.1-0.2z"/><path class="e" d="m1630.4 105.4c-6.1 0.4-33.1 15.8-49.5 33.9-4.6 5-0.1 15.8-5.1 20.1l12.3 1.1c-0.1 0.1-0.1 0.5-0.1 0.7 3.8-8.6 16.3-15.9 23-22 7-6.3 17.2-6.8 29.1-16.5 6.5-10.3-2.8-17.8-9.7-17.3z"/><path class="e" d="m1558.3 177q0.1 0.1 0.1 0.1c0 0.2 0 0.1-0.1-0.1z"/><path class="e" d="m1498.2 140.9c5.8-1.9 36.6 2.5 58.5 13.1 6.1 2.9 6 14.6 12.2 16.7l-10.9 5.6c0 0.2 0.2 0.5 0.3 0.7-6.7-6.5-21.1-8.7-29.6-11.9-8.8-3.2-18.4 0.1-33.1-4.5-9.8-7.1-4-17.6 2.6-19.7z"/><path class="e" d="m1580.4 271.7c-0.1 6.5-5.4 11.8-11.9 11.7h-4c-6.5-0.1-11.7-5.5-11.7-12l2.7-259.5c0.1-6.5 5.4-11.7 12-11.7l3.9 0.1c6.5 0 11.7 5.4 11.7 11.9z"/><path class="f" d="m1565.7 39c6.2-3.8 12.3-8.1 16.1-14.4 1.6-2.8-2.6-5.3-4.2-2.6-3.4 5.6-8.9 9.4-14.4 12.8-2.7 1.6-0.2 5.9 2.5 4.2z"/><path class="f" d="m1565.5 58.1c5.2-3.7 10.5-7.2 14.1-12.6 1.8-2.6-2.5-5.1-4.2-2.5-3.1 4.7-7.8 7.6-12.4 10.8-2.5 1.8-0.1 6.1 2.5 4.3z"/><path class="f" d="m1565.9 79.7c5.3-3 9.8-7 13.5-11.9 1.9-2.5-2.4-5-4.3-2.5-3.1 4.1-7.1 7.5-11.6 10.1-2.8 1.6-0.3 5.9 2.4 4.3z"/><path class="f" d="m1565 100c5.8-3.5 11.3-7.3 14.8-13.2 1.7-2.7-2.6-5.2-4.2-2.5-3.1 5.2-7.9 8.3-13 11.4-2.7 1.7-0.3 6 2.4 4.3z"/><path class="f" d="m1564.8 120.3c5.8-2.9 10.6-7.1 14.2-12.5 1.7-2.7-2.5-5.2-4.3-2.5-3.1 4.7-7.3 8.2-12.3 10.7-2.8 1.5-0.4 5.7 2.4 4.3z"/><path class="f" d="m1565.3 140.6c4.8-3.1 9.3-6.6 12.8-11.2 1.9-2.5-2.4-5-4.2-2.5-3 3.9-7 6.8-11.1 9.5-2.6 1.7-0.2 6 2.5 4.2z"/><path class="f" d="m1566.9 160.6c4.2-4.1 8.7-7.9 12.6-12.3 2.1-2.4-1.4-5.9-3.5-3.5-3.9 4.3-8.3 8.2-12.6 12.3-2.2 2.2 1.2 5.7 3.5 3.5z"/><path class="f" d="m1566.8 179.3c4.8-2.5 8.5-6.9 11.5-11.2 1.8-2.6-2.4-5.1-4.2-2.6-2.6 3.7-5.6 7.5-9.7 9.6-2.8 1.4-0.4 5.7 2.4 4.2z"/><path class="f" d="m1567.3 199c5-2.2 8.3-6.7 11.7-10.8 2.1-2.4-1.3-5.9-3.4-3.5-3.2 3.8-6.2 8-10.7 10-2.9 1.3-0.5 5.6 2.4 4.3z"/><path class="f" d="m1565.7 21.6c4-3.9 7.7-8.3 11-12.8 1.9-2.6-2.4-5.1-4.2-2.5q-4.7 6.3-10.2 11.8c-2.3 2.2 1.1 5.8 3.4 3.5z"/><path class="e" d="m1589.6 155.1c-6.1-1.6-13.1 0.1-18.7 2.6-2.7 1.2-5.1 2.6-7.4 4.6-1.7 1.4-4.8 4.2-4.5 4.3l-3 0.4c-6.4-0.4-17.3 5.4-18.8 11.6-1.9 8.1 3 17 10.6 19.9 7.5 2.9 17.6-0.5 25.1-1.9 9.2-1.7 15.9-5.5 20.9-13.5 5.5-8.6 8.8-24.7-4.2-28z"/><path class="g" d="m1596.9 159.8c-5.1 2.1-9.9 8.5-13.4 11.3-8.9 7.2-19.2 12.1-30.2 15.5-4.6 1.5-9.9 2.6-14.6 2.8 1.9 3.9 5.1 7.1 9.1 8.6 7.5 2.9 17.6-0.5 25.1-1.9 9.2-1.7 15.9-5.5 20.9-13.5 4-6.2 6.8-16.4 3.1-22.8z"/><path class="f" d="m1587.8 154.3c3.7-5 6-11.2 7.8-17.2 0.9-3-3.9-4.4-4.7-1.3-1.7 5.6-3.9 11.3-7.3 16-1.9 2.6 2.3 5.1 4.2 2.5z"/><path class="f" d="m1603.1 144.2c2.8-4.5 4.4-9.5 6.6-14.2 1.2-2.9-3-5.4-4.3-2.5-2.1 4.7-3.8 9.7-6.5 14.1-1.7 2.7 2.6 5.3 4.2 2.6z"/><path class="f" d="m1620 132.5c2.6-4.6 4.6-9.5 5.8-14.7 0.7-3.1-4.1-4.5-4.8-1.4-1 4.8-2.9 9.3-5.3 13.6-1.5 2.8 2.7 5.3 4.3 2.5z"/><path class="f" d="m1632.8 126.8c1.6-3.6 3-7.2 4.5-10.8 1.3-2.9-2.9-5.4-4.2-2.5q-2.3 5.4-4.5 10.8c-1.3 2.8 2.9 5.4 4.2 2.5z"/><path class="f" d="m1501.2 158.8c-1.9-3.5-3.5-7.2-4-11.2-0.5-3.2-5.2-1.9-4.8 1.2 0.6 4.4 2.4 8.6 4.5 12.5 1.6 2.7 5.8 0.3 4.3-2.5z"/><path class="f" d="m1512 158.4c-1.8-2.9-3.5-5.8-4-9.3-0.5-3.1-5.3-1.8-4.8 1.3 0.6 3.8 2.5 7.3 4.6 10.5 1.7 2.6 6 0.2 4.2-2.5z"/><path class="f" d="m1527.4 160.1c-3.5-3.1-7.5-6.3-8-11.2-0.4-3.1-5.3-3.2-5 0 0.7 6.5 4.8 10.5 9.5 14.6 2.3 2.1 5.8-1.3 3.5-3.4z"/><path class="f" d="m1542.8 166.9c-0.1-4.1-1.8-7.7-3-11.5-0.8-3.1-5.6-1.8-4.7 1.2 1 3.4 2.7 6.6 2.7 10.2 0.1 3.2 5 3.2 5 0.1z"/><path class="f" d="m1553.5 166.3c-1-3.1-1.9-6.2-2.9-9.3-0.9-3-5.7-1.8-4.7 1.2 1 3.1 1.9 6.3 2.8 9.4 1 3 5.8 1.8 4.8-1.3z"/><path class="f" d="m1566.3 217.6c4.4-3.6 8.3-7.6 11.6-12.2 1.9-2.5-2.3-5-4.2-2.5-3.1 4.2-6.8 7.9-10.9 11.2-2.4 2 1.1 5.5 3.5 3.5z"/><path class="f" d="m1564.4 235.3c6.5 1.7 11.1-7.2 14-11.5 1.8-2.7-2.4-5.2-4.2-2.5-1.4 2-2.7 4-4.2 5.9-0.8 1-2.8 3.7-4.3 3.3-3-0.8-4.4 3.9-1.3 4.8z"/><path class="f" d="m1567.3 258c4.5-2.3 7-6.7 10.5-10.1 2.2-2.3-1.2-5.8-3.5-3.5-3.1 3.1-5.4 7.2-9.4 9.3-2.8 1.5-0.4 5.7 2.4 4.3z"/><path class="f" d="m1567.8 275.7c3.7-1.5 6.4-4.3 8.8-7.4 0.9-1 0.2-2.7-0.8-3.3-1.3-0.8-2.6-0.2-3.4 0.8-1.9 2.4-4.2 4.4-7 5.6-1.3 0.5-1.5 2.3-0.9 3.4 0.7 1.2 2.1 1.4 3.3 0.9z"/></svg>