<svg version="1.2" xmlns="http://www.w3.org/2000/svg" viewBox="0 0 2155 1372" width="2155" height="1372"><defs><linearGradient id="P" gradientUnits="userSpaceOnUse"/><radialGradient id="g1" cx="0" cy="0" r="1" href="#P" gradientTransform="matrix(2597.733,0,0,2597.733,270.181,-266.187)"><stop stop-color="#f67a02"/><stop offset="1" stop-color="#753d08"/></radialGradient><radialGradient id="g2" cx="0" cy="0" r="1" href="#P" gradientTransform="matrix(2723.015,0,0,2723.015,112.778,65.122)"><stop stop-color="#f6a95f"/><stop offset="1" stop-color="#ae5a0c"/></radialGradient><radialGradient id="g3" cx="0" cy="0" r="1" href="#P" gradientTransform="matrix(2723.015,0,0,2723.015,112.778,65.122)"><stop stop-color="#f6a95f"/><stop offset="1" stop-color="#ae5a0c"/></radialGradient><radialGradient id="g4" cx="0" cy="0" r="1" href="#P" gradientTransform="matrix(2941.141,0,0,2941.141,1647.84,1035.582)"><stop stop-color="#fff"/><stop offset="1" stop-color="#d4ab7b"/></radialGradient><clipPath clipPathUnits="userSpaceOnUse" id="cp1"><path d="m2030.34 1369.08c21.23 0.14 26.21-8.76 38.78-17.65 26.15-18.5 37.31-22.14 69.1-36.61 19.92-9.08 16.1-18.98 15.6-32.35-6.18-165.33-6.18-1001.28-0.48-1177.77 0.16-5.15-3.04-9.43-9.54-12.94-30.44-16.47-60.89-32.94-91.35-49.52-6.37-3.46-14.42-5.08-23.63-4.96-622.96 8.26-1280.02 8.26-1902.97 0-9.21-0.12-17.26 1.5-23.62 4.96-30.48 16.58-60.92 33.05-91.36 49.52-6.51 3.51-9.71 7.79-9.54 12.94 5.7 176.48 5.7 1012.44-0.48 1177.77-0.5 13.37-4.33 23.27 15.6 32.35 31.79 14.47 42.95 18.11 69.09 36.61 12.58 8.89 17.55 17.79 38.79 17.65 634.8-4.19 1271.2-4.19 1906.01 0z"/></clipPath><radialGradient id="g5" cx="0" cy="0" r="1" href="#P" gradientTransform="matrix(2723.015,0,0,2723.015,112.778,65.122)"><stop stop-color="#f6a95f"/><stop offset="1" stop-color="#ae5a0c"/></radialGradient><radialGradient id="g6" cx="0" cy="0" r="1" href="#P" gradientTransform="matrix(3574.579,0,0,3574.579,2938.513,573.918)"><stop stop-color="#fff"/><stop offset="1" stop-color="#d4ab7b"/></radialGradient><radialGradient id="g7" cx="0" cy="0" r="1" href="#P" gradientTransform="matrix(2832.636,0,0,2832.636,2971.115,785.571)"><stop stop-color="#fff"/><stop offset="1" stop-color="#d4ab7b"/></radialGradient><radialGradient id="g8" cx="0" cy="0" r="1" href="#P" gradientTransform="matrix(1621.511,0,0,1621.511,2856.226,505.578)"><stop stop-color="#fff"/><stop offset="1" stop-color="#d4ab7b"/></radialGradient><radialGradient id="g9" cx="0" cy="0" r="1" href="#P" gradientTransform="matrix(2096.853,0,0,2096.853,-535.361,193.219)"><stop stop-color="#fff"/><stop offset="1" stop-color="#d4ab7b"/></radialGradient><radialGradient id="g10" cx="0" cy="0" r="1" href="#P" gradientTransform="matrix(1797.936,0,0,1797.936,-634.82,229.018)"><stop stop-color="#fff"/><stop offset="1" stop-color="#d4ab7b"/></radialGradient><radialGradient id="g11" cx="0" cy="0" r="1" href="#P" gradientTransform="matrix(2093.222,0,0,2093.222,1197.921,837.929)"><stop stop-color="#fff"/><stop offset="1" stop-color="#d4ab7b"/></radialGradient><radialGradient id="g12" cx="0" cy="0" r="1" href="#P" gradientTransform="matrix(2148.388,0,0,2148.388,1685.589,1432.34)"><stop stop-color="#c75d38"/><stop offset="1" stop-color="#030000"/></radialGradient><clipPath clipPathUnits="userSpaceOnUse" id="cp2"><path d="m2030.34 1369.08c21.23 0.14 26.21-8.76 38.78-17.65 26.15-18.5 37.31-22.14 69.1-36.61 19.92-9.08 16.1-18.98 15.6-32.35-6.18-165.33-6.18-1001.28-0.48-1177.77 0.16-5.15-3.04-9.43-9.54-12.94-30.44-16.47-60.89-32.94-91.35-49.52-6.37-3.46-14.42-5.08-23.63-4.96-622.96 8.26-1280.02 8.26-1902.97 0-9.21-0.12-17.26 1.5-23.62 4.96-30.48 16.58-60.92 33.05-91.36 49.52-6.51 3.51-9.71 7.79-9.54 12.94 5.7 176.48 5.7 1012.44-0.48 1177.77-0.5 13.37-4.33 23.27 15.6 32.35 31.79 14.47 42.95 18.11 69.09 36.61 12.58 8.89 17.55 17.79 38.79 17.65 634.8-4.19 1271.2-4.19 1906.01 0z"/></clipPath><radialGradient id="g13" cx="0" cy="0" r="1" href="#P" gradientTransform="matrix(2723.015,0,0,2723.015,112.778,65.122)"><stop stop-color="#f6a95f"/><stop offset="1" stop-color="#ae5a0c"/></radialGradient><linearGradient id="g14" x2="1" href="#P" gradientTransform="matrix(55.571,-12.567,2.934,12.973,122.79,31.925)"><stop/><stop offset="1" stop-color="#ccb297"/></linearGradient><radialGradient id="g15" cx="0" cy="0" r="1" href="#P" gradientTransform="matrix(1990.975,0,0,1990.975,312.339,7.898)"><stop stop-color="#c75d38"/><stop offset="1" stop-color="#030000"/></radialGradient><clipPath clipPathUnits="userSpaceOnUse" id="cp3"><path d="m2028.16 92.76c18.28 9.62 36.32 19.17 54.7 28.72-1.79 69.8-3.19 884.36-3.13 954.04 0.06 69.75 1.79 139.62 3.92 209.36-18.27 9.68-36.31 19.29-54.48 28.78-634.82-3.92-1273.86-3.92-1908.69 0-18.15-9.49-36.2-19.1-54.47-28.78 2.13-69.74 3.87-139.61 3.93-209.36 0.04-69.68-1.35-884.24-3.15-954.04 18.39-9.55 36.43-19.1 54.7-28.72 628.63 6.28 1278.04 6.28 1906.67 0z"/></clipPath><radialGradient id="g16" cx="0" cy="0" r="1" href="#P" gradientTransform="matrix(3579.071,0,0,3579.071,335.167,-86.04)"><stop stop-color="#eb9747"/><stop offset="1" stop-color="#a8570c"/></radialGradient><linearGradient id="g17" x2="1" href="#P" gradientTransform="matrix(490.315,-66.766,11.278,82.825,327.669,161.517)"><stop stop-color="#fff"/><stop offset="1" stop-color="#918173"/></linearGradient><clipPath clipPathUnits="userSpaceOnUse" id="cp4"><path d="m2026.77 92.76c18.2 9.62 36.17 19.17 54.48 28.72-1.79 69.8-3.19 884.36-3.13 954.04 0.06 69.75 1.79 139.62 3.91 209.36-18.19 9.68-36.16 19.29-54.25 28.78-632.16-3.92-1268.52-3.92-1900.68 0-18.08-9.49-36.05-19.1-54.25-28.78 2.13-69.74 3.86-139.61 3.92-209.36 0.04-69.68-1.35-884.24-3.13-954.04 18.3-9.55 36.27-19.1 54.47-28.72 625.99 6.28 1272.67 6.28 1898.66 0z"/></clipPath><linearGradient id="g18" x2="1" href="#P" gradientTransform="matrix(12.153,0,0,7.014,2094.642,52.874)"><stop stop-color="#d9b89a"/><stop offset="1" stop-color="#d9b89a"/></linearGradient><linearGradient id="g19" x2="1" href="#P" gradientTransform="matrix(2016.665,0,0,45.177,66.952,1268.608)"><stop stop-color="#8f4a0a"/><stop offset="1" stop-color="#e07610"/></linearGradient></defs><style>.a{fill:url(#g1)}.b{fill:url(#g2)}.c{fill:url(#g3)}.d{opacity:.4;mix-blend-mode:multiply;fill:url(#g4)}.e{fill:url(#g5)}.f{opacity:.4;mix-blend-mode:multiply;fill:url(#g6)}.g{opacity:.4;mix-blend-mode:multiply;fill:url(#g7)}.h{opacity:.4;mix-blend-mode:multiply;fill:url(#g8)}.i{opacity:.4;mix-blend-mode:multiply;fill:url(#g9)}.j{opacity:.4;mix-blend-mode:multiply;fill:url(#g10)}.k{opacity:.4;mix-blend-mode:multiply;fill:url(#g11)}.l{mix-blend-mode:screen;fill:url(#g12)}.m{fill:url(#g13)}.n{opacity:.5;mix-blend-mode:multiply;fill:#ccb297}.o{opacity:.2;mix-blend-mode:screen;fill:#e6e6e6}.p{opacity:.5;mix-blend-mode:multiply;fill:#846a45}.q{opacity:.5;mix-blend-mode:screen;fill:url(#g14)}.r{mix-blend-mode:screen;fill:url(#g15)}.s{fill:url(#g16)}.t{mix-blend-mode:multiply;fill:url(#g17)}.u{mix-blend-mode:multiply;fill:url(#g18)}.v{fill:url(#g19)}</style><path class="a" d="m125.1 37.3c137.5 1.8 1098.5 16.7 1236 16.7 137.4 0 530.1-14.9 667.7-16.7 9.2-0.1 17.3 1.5 23.7 4.9 30.4 16.6 60.9 33.1 91.3 49.6q4.6 2.5 7 5.5-8.2-16-16.1-32c-4-8.2-6.8-11.2-18.3-17.4-26.3-14.1-52.6-28.3-78.7-42.5-6.3-3.4-13.8-5-22.7-4.9-66.5 1-132.9 2.1-199.4 2.6-66.4 0.5-387.9 0.7-454.3 0.8-66.6 0-956.3-0.2-1022.7-0.8-66.4-0.6-132.9-1.5-199.3-2.5-4.4 0-8.7 0.4-12.6 1.2-3.8 0.8-7.3 2-10.4 3.7-26.3 14.2-52.7 28.3-79 42.5-11.4 6.1-14.2 9.2-18.3 17.3-5.4 10.8-10.8 21.6-16.3 32.3 1.5-2.1 3.9-4 7.1-5.8 30.4-16.5 60.8-33 91.6-49.4 3.2-1.7 6.9-3 10.8-3.9 4-0.8 8.4-1.2 12.9-1.2z"/><path class="b" d="m2030.3 1369.1c21.3 0.1 26.2-8.8 38.8-17.7 26.2-18.5 37.3-22.1 69.1-36.6 19.9-9.1 16.1-19 15.6-32.3-6.2-165.4-6.2-1001.3-0.5-1177.8 0.2-5.2-3-9.4-9.5-12.9-30.4-16.5-60.9-33-91.3-49.6-6.4-3.4-14.5-5-23.7-4.9-622.9 8.2-1280 8.2-1902.9 0-9.3-0.1-17.3 1.5-23.7 4.9-30.4 16.6-60.9 33.1-91.3 49.6-6.5 3.5-9.7 7.7-9.6 12.9 5.7 176.5 5.7 1012.4-0.4 1177.8-0.6 13.3-4.4 23.2 15.5 32.3 31.8 14.5 43 18.1 69.1 36.6 12.6 8.9 17.6 17.8 38.8 17.7 634.8-4.2 1271.2-4.2 1906 0z"/><path class="c" d="m2030.3 1369.1c21.3 0.1 26.2-8.8 38.8-17.7 26.2-18.5 37.3-22.1 69.1-36.6 19.9-9.1 16.1-19 15.6-32.3-6.2-165.4-6.2-1001.3-0.5-1177.8 0.2-5.2-3-9.4-9.5-12.9-30.4-16.5-60.9-33-91.3-49.6-6.4-3.4-14.5-5-23.7-4.9-622.9 8.2-1280 8.2-1902.9 0-9.3-0.1-17.3 1.5-23.7 4.9-30.4 16.6-60.9 33.1-91.3 49.6-6.5 3.5-9.7 7.7-9.6 12.9 5.7 176.5 5.7 1012.4-0.4 1177.8-0.6 13.3-4.4 23.2 15.5 32.3 31.8 14.5 43 18.1 69.1 36.6 12.6 8.9 17.6 17.8 38.8 17.7 634.8-4.2 1271.2-4.2 1906 0z"/><path class="d" d="m375 584.9c-119.8 67.3-243.7 132.3-370.3 195.8 0 26.5 0.1 52.2 0.1 76.9q12.2-5.4 24.6-10.7c71.2-30.6 138.7-63 202.3-98.1 66.2-36.5 127.3-75.4 186.6-115.2 44-29.5 88-58.9 134.7-87.2 53.8-32.7 118.7-59.6 171.9-92.6 200.2-124.3 369.3-262 574.4-384q17.9-10.7 35.9-21.3-43.4 0.1-86.9 0.2l-2.5 1.7c-230.6 157.8-612.8 389.6-870.8 534.5z"/><g clip-path="url(#cp1)"><path class="e" d="m2030.3 1369.1c21.3 0.1 26.2-8.8 38.8-17.7 26.2-18.5 37.3-22.1 69.1-36.6 19.9-9.1 16.1-19 15.6-32.3-6.2-165.4-6.2-1001.3-0.5-1177.8 0.2-5.2-3-9.4-9.5-12.9-30.4-16.5-60.9-33-91.3-49.6-6.4-3.4-14.5-5-23.7-4.9-622.9 8.2-1280 8.2-1902.9 0-9.3-0.1-17.3 1.5-23.7 4.9-30.4 16.6-60.9 33.1-91.3 49.6-6.5 3.5-9.7 7.7-9.6 12.9 5.7 176.5 5.7 1012.4-0.4 1177.8-0.6 13.3-4.4 23.2 15.5 32.3 31.8 14.5 43 18.1 69.1 36.6 12.6 8.9 17.6 17.8 38.8 17.7 634.8-4.2 1271.2-4.2 1906 0z"/><path class="f" d="m979.1 727.8c-163.5 133.3-310.8 272-498.2 396.5-46 30.5-90.8 61.6-133.1 93.6-46.6 35.4-89.7 71.8-129 109.7q-19 18.2-37.1 36.7c300-1.6 600.8-2.4 901.6-2.4 44.7-22.2 90.7-43.6 138.9-63.5 59.8-24.8 122.4-47 188.4-66.7 74.5-22.2 152.2-40.8 231.9-56.9 52.6-10.7 105-21.8 156.2-34.3 50-12.3 98.4-25.8 145.8-40.8 66-20.9 134.2-39.4 203.1-57.1 0-20.6 0.1-45.1 0.1-72.6-29.5 6.1-59.1 12.1-88.6 18.2-251.8 51.3-501.8 105.5-747.7 164.6-38.1 9.1-75.5 19.1-112.6 29.3-39.3 10.8-78.4 21.8-117.8 32.6-48.6 13.3-97.6 26.4-147.8 37.9-45.4 10.5-92.8 20-141 26.1q-9.2 1.2-18.5 2.1c-35.5 3.6-87.9 6-118-7-22-9.5-26.2-24.7-24.4-39 2.2-19 15.8-39.6 29.8-56.9 56.3-69.5 126.7-135.4 189.5-203.2 82.1-88.5 166.2-176.4 245.3-265.6 57.2-64.5 106.3-130.9 163.4-195.4 109.4-123.6 252.7-244.5 440.8-338.2 94.7-47.1 197.4-89.8 302.1-130.4l1.4-0.5q-71 0.7-142.3 1.2c-54.5 25.3-107.7 51.3-159.9 78.3-45.5 23.6-91.2 47-134.9 71.5-50.2 28.2-98.7 58.4-138 91.3-23.2 19.4-45.2 39.3-66.5 59.5 19.5-20.9 39.9-41.6 63.5-61.3 38.4-32.3 84.1-62.4 132.1-90.7 43.7-25.8 89.9-50.4 137-74.4 49.7-25.3 100.5-50 152.2-74.1q-58.7 0.5-117.5 0.8c-67.5 30.3-129.3 62.7-186.7 98.7-79.8 50-149 104.9-212.2 161.3-73.9 65.9-130.5 137.1-203.9 203.4-33.8 30.4-69.5 60.3-106.8 89.5-35.4 27.9-72.1 55.2-109.3 82.3-19.9 14.5-39.9 28.9-59.9 43.3-58.7 42.3-116 85-173.3 127.9-51 38.2-102 76.5-154.7 114.1-55.6 39.7-113.1 78.6-173.6 116.2-68.9 42.9-141.2 84.1-216.4 123.8-26.6 14.1-53.3 28.2-79.7 42.5q-25.4 13.6-50.2 27.4-0.7 28.4-1.6 56.8c19.5 10.5 38.7 20.9 58.1 31.2q43.1-0.3 86.2-0.6 24-25.1 49.5-49.6c48.2-46.4 105-89.7 164.9-131.9 59.1-41.7 121-82.2 180.1-123.8 13.8-9.7 27.4-19.5 40.8-29.4 75.7-55.6 146.2-113 215.5-170.9 54.7-45.8 108.9-91.9 164.6-137.3 98.1-79.9 188.1-162.5 275.2-245.9-48.3 51.8-96 103.7-148 154.4-34.1 33.2-69.9 66-108.8 97.7z"/></g><path class="g" d="m1184.9 917.7c-9.3 11.7-18.2 23.8-24.9 36.1-8.5 15.9-16.4 37.5 2.9 52 15.8 11.9 44.3 15.3 69.9 16.2 19.1 0.6 38.9-0.2 57.9-1.4 25.4-1.7 50.8-4.3 75.8-7.3 24-2.9 47.9-6.2 71.6-9.8 44.9-6.8 89.3-14.7 133.4-22.9 33.1-6.2 66-12.8 99-19.1 63.2-12.1 127.3-23 191.3-33.7 71.6-11.9 143.3-23.6 214.8-35.8q35.7-6 71.3-12.2c0-21.7 0-44.4 0.1-67.9-63.3 13.3-126.1 25.5-189.4 36.8-30.7 5.4-61.6 10.6-92.6 15.5-51.7 8.1-104.4 15.4-157.4 20.6-38.8 3.8-83.5 7.1-123 5.4-14.6-0.6-29.5-2.5-43-5.6-12.1-2.9-23.4-6.8-32.5-12-9.5-5.5-16.7-12.1-21.4-19.2-4.9-7.2-7.2-15-6.6-22.7 0.6-7.1 2.4-14.4 4.4-21.4 2.7-9.5 6-19 9.5-28.4 8.5-22.9 18.2-45.6 28.3-68.3 8.5-19.2 17.3-38.3 26.1-57.5 16.4-35.6 30.5-71.5 45.9-107.2 13.5-31.5 28.4-62.9 48.6-93.4 22-33.1 49.9-64 86.1-93.3 43.6-35.5 96.9-67.2 154.7-96.2 43.5-21.9 91.1-41.4 140.5-59.3 40.3-14.6 81.8-28.1 123.8-41.2 0.3-45.7 0.6-77.8 0.9-89.7q-3.5-1.8-6.9-3.6-19.2 6.7-38.1 13.6c-86.5 31.7-172.3 64.7-252.1 101.2-69.7 31.8-134.3 66.3-190.6 105.1-70.2 48.3-123.6 100.8-165.7 157.6-31.3 42.1-52.4 86.4-72.4 130.3-13.5 29.9-26.5 59.9-41.6 89.6-14.6 28.6-31.3 57-53 84.3-32.8 41.3-71.6 81.3-108.3 121.6-13 14.2-25.7 28.6-37.3 43.2z"/><path class="h" d="m1949.8 552.4c1.3 23.2 11.3 47.5 47.6 62.2 40.3 16.2 102.6 15.7 151 14.2 0-25 0.1-50.1 0.2-75-6-1.4-11.8-2.9-17.4-4.7-10.5-3.2-20.2-7.3-27.9-12.4-7.3-4.8-13.2-10.5-16.7-16.5-3.2-5.4-4.7-11.3-3-16.9 2.5-8.6 7.7-17 14.6-24.9 7.5-8.7 17.2-16.8 28.2-24.4q10.7-7.3 22.5-14.2c0.1-28.9 0.2-57.2 0.3-84.3-42.8 13-81.2 29.7-111.7 52.9-19.7 15-36.5 31.2-50.1 48-23.8 29.6-39.3 63.7-37.6 96z"/><path class="i" d="m4.1 536c273.4-134.6 595.1-333.8 657-488-78.4-0.3-156.7-0.7-234.9-1.2-36.9 174.7-221.2 309.1-422.2 437.4 0 17.1 0.1 34.5 0.1 51.8z"/><path class="j" d="m3.6 374.7c167.6-114.8 204.8-187 202.4-329.6q-56.4-0.5-112.5-1c8.6 70.3-11.2 126.5-40.2 180.7-14.1 26.3-30.2 52-49.9 78.6 0.1 22.8 0.1 46.6 0.2 71.3z"/><path class="k" d="m2102.1 1159.4c-102.5 34.3-205.6 68.2-308.6 102-90.1 29.6-183 55.7-277 81.4-23.7 6.5-47.3 13-70.9 19.5q119.1 0.3 238.1 0.7c10.9-3.9 21.8-7.7 32.7-11.5 41.8-14.6 83.9-28.9 125.5-43.6 56.5-19.9 113.3-40.8 165.3-63.9 45.7-20.4 92.8-39.4 141-57.5q-0.3-21.2-0.5-42.4-22.8 7.7-45.6 15.3z"/><path class="l" d="m68 1338.4c15.2 9.6 34.1 21.9 45.5 28.9 570.9 8.7 1343.8 3.1 1922.2-0.1 3.6-0.1 6.9-1.2 9.4-2.8 15.1-9.5 30.9-18.8 45.3-28.7-17.7 8.6-46.2 25.1-52.6 27.6-641.3-4.4-1418.4 2.3-1922.4 0.5-10.3-6.4-31.6-17-47.4-25.4z"/><g clip-path="url(#cp2)"><path class="m" d="m2030.3 1369.1c21.3 0.1 26.2-8.8 38.8-17.7 26.2-18.5 37.3-22.1 69.1-36.6 19.9-9.1 16.1-19 15.6-32.3-6.2-165.4-6.2-1001.3-0.5-1177.8 0.2-5.2-3-9.4-9.5-12.9-30.4-16.5-60.9-33-91.3-49.6-6.4-3.4-14.5-5-23.7-4.9-622.9 8.2-1280 8.2-1902.9 0-9.3-0.1-17.3 1.5-23.7 4.9-30.4 16.6-60.9 33.1-91.3 49.6-6.5 3.5-9.7 7.7-9.6 12.9 5.7 176.5 5.7 1012.4-0.4 1177.8-0.6 13.3-4.4 23.2 15.5 32.3 31.8 14.5 43 18.1 69.1 36.6 12.6 8.9 17.6 17.8 38.8 17.7 634.8-4.2 1271.2-4.2 1906 0z"/><path fill-rule="evenodd" class="n" d="m1732.1 41.8c-67.5 30.4-129.2 62.9-186.7 99.1-79.8 50.2-149 105.3-212.1 161.9-74 66.2-130.5 137.7-203.9 204.2-33.8 30.6-69.5 60.6-106.8 90-35.4 27.9-72.1 55.3-109.4 82.6-19.8 14.5-39.8 29-59.8 43.4-58.7 42.5-116.1 85.5-173.3 128.5-51.1 38.4-102.1 76.8-154.7 114.5-55.7 39.9-113.2 79-173.7 116.8-68.8 43.1-141.1 84.4-216.3 124.3-26.7 14.1-53.4 28.3-79.8 42.6q-25.3 13.7-50.1 27.6 0.3-12.9 0.6-25.8 14.6-8 29.5-16.1c25.8-13.9 51.9-27.8 77.9-41.6 50.1-26.6 100-53.2 148.8-80.4 59.8-33.2 117.8-67.3 174.3-102.1 36.8-22.7 71.7-46.6 105.8-70.4 39.9-28 78.9-56.3 117.6-84.7 61.9-45.5 122.9-91.4 185.5-136.7 67.9-49.2 131.5-99.8 191.4-151.9 60.2-52.4 116.5-106 171.6-160 36.1-35.4 72.2-70.8 111-105.4 56.4-50.4 118.7-98.6 189.2-143.6 61.3-39.1 127.8-75 199.5-108.6q8.8-4.1 17.6-8.2zm-1724.6 725.9q21.7-10.5 43.3-21.2c109.7-54.3 217-110.2 319.9-168.2 122.4-69.1 243.5-138.8 360.9-210.3 118-71.8 356.8-231.1 466.6-306.6 8.3-5.6 16-11.6 23.6-17.6q14.7 0 29.4 0l-2.5 1.7c-230.6 158.5-612.8 391.2-870.8 536.7-119.8 67.6-243.7 132.9-370.3 196.6zm0.1 88.3q12.2-5.4 24.6-10.7c71.2-30.8 138.7-63.2 202.3-98.5 66.2-36.7 127.3-75.8 186.6-115.7 44-29.6 88-59.1 134.7-87.6 53.8-32.8 118.7-59.8 171.9-93 200.2-124.7 369.3-263 574.4-385.6q17.9-10.7 35.9-21.3 15.6-0.1 31.2-0.1-25.2 15.1-50.5 30.2c-124.1 74.2-233.3 155.2-344.2 235-39.6 28.5-81.5 55.9-126 82.2-37.7 22.3-77 43.6-116.7 64.8-27.1 14.4-54.2 28.9-80.8 43.5-29 16-57.4 32.3-84.9 49.1-38.2 23.3-74.1 47.5-108.8 72.4-31.7 22.6-62.3 45.6-93.8 68.3-40.8 29.4-83 57.8-130.2 84.4-55.4 31.3-115.8 59.1-180.9 84.4q-22.5 8.7-44.7 17.7zm1500-813.1q-15.7 9.1-31.6 18c-62.1 34.7-127.8 67.6-189.4 102.6-37 21-72.3 42.8-104.8 65.9-26.2 18.6-50.3 37.8-73.5 57.5-9.3 7.9-18.6 15.9-27.8 23.9-15.8 13.7-31.6 27.4-48 40.9-18.8 15.6-38.3 31-58.5 46.1-69.8 52.2-144.6 102.6-221.3 151.8-66.2 42.5-134.1 84.2-202.7 125.6-43.9 26.5-88.7 52.7-134.8 78.1-65.1 36-131.2 71.4-198.3 106.4-67 34.9-135 69.4-203.8 103.3l-5.3 2.7-0.1-26c220.7-108.6 445.5-215.4 644.9-335.6 42.7-25.8 84.5-52 124.6-78.9q53.7-36.1 103.5-73.7c64.7-49 124.4-99.8 183.3-150.8 9.3-8 18.6-16.1 28-24.1 23.3-19.7 47.4-39 73.8-57.7 32.7-23.2 68.1-45.1 105.3-66.2 61.6-35 131.6-65.3 193.7-100q8.6-4.8 17.2-9.7zm-1499.8 968.2q8.6-4 17.1-7.9c88.8-40.9 174.9-83.6 259.1-127.2 95.1-49.1 187.9-99.6 278.2-151.3 86.5-49.5 170.8-100.2 251.6-152.3 46.8-30.2 93.1-60.7 137.5-91.9 39.6-27.8 78-56.3 112.8-85.9 33.7-28.7 63.5-58.8 93.8-88.6 35.6-34.8 72.7-70.4 118-101.9 23.1-16.1 49-31.2 75.4-45.8 29.2-16.1 59.6-31.6 90.4-46.9 46.3-23.1 93.8-45.6 139.9-68.8h4.4c-45.7 23.7-90.8 47.8-134.9 72.4-28.7 16-57 32.3-84.5 48.9-25 15.2-49.6 30.7-72.7 46.8-45.2 31.4-85.5 65.2-124.3 98.9-33.3 28.9-65.7 58.2-99.4 86.9-49.6 42.1-103.1 82.8-159.6 122.3-57.3 40.1-117.3 79-178.1 117.5-87.4 55.3-177 109.6-269.5 162.4-66.1 37.7-134.8 74.4-204.3 110.3-69.9 36.1-141.4 72-215.1 105.9q-17.9 8.3-35.7 16.6zm0.1 80.6l2.3-1c34.4-14.8 67.8-30.4 100.8-46.1 41.8-19.9 83-40.2 123.8-60.8 95.9-48.3 189.9-97.9 282.1-148.3 89.7-49 178-98.9 263.3-150.2 36.6-22 72.8-44.4 107.7-67.2 28.2-18.4 56-37.2 81.4-56.7 44.4-34 82.8-70.1 119.2-106.6 37-37.3 72-75.1 108.8-112.4 46-46.6 95.1-92.7 154.3-134.9 37.4-26.7 82.6-48.6 129.7-70.1 29.9-13.7 60.2-27.2 89-41.6-27.5 14.6-55.1 29.1-82 44-40.6 22.4-78.8 45.5-113.8 70.5-98.5 70.2-179.7 147.8-259.7 224.4-46.1 44-92.3 88.2-146.5 129.6-53.1 40.6-114.7 77.8-176 114.8-116 69.9-229.1 141.3-347.2 210.2-130.3 76.1-266.1 148.5-416.5 213.2q-10.4 4.5-20.7 9v-4.7c0-3.4 0-8.6 0-15.1zm2142.5-122.9c-29.5 6.2-59.1 12.2-88.6 18.3-251.9 51.6-501.9 105.9-747.8 165.3-38 9.2-75.4 19.2-112.5 29.5-39.4 10.8-78.5 21.9-117.8 32.7-48.6 13.4-97.7 26.5-147.8 38.1-45.5 10.5-92.9 20-141 26.2q-9.2 1.1-18.5 2.1c-35.5 3.6-87.9 5.9-118-7.1-22-9.5-26.2-24.8-24.5-39.1 2.3-19.1 15.9-39.8 29.9-57.2 56.2-69.8 126.6-136 189.5-204.1 82-88.8 166.2-177 245.3-266.6 57.1-64.8 106.2-131.5 163.4-196.2 109.3-124.1 252.6-245.6 440.8-339.6 94.7-47.3 197.4-90.2 302.1-130.9l1.4-0.6 21.3-0.2q-8.4 3.2-16.9 6.4c-104.7 39.6-208.5 81.6-302.4 128.5-50.7 25.4-96.4 53.9-138.3 83.6-46.4 32.9-88.6 67.5-128.2 102.9-86.1 77.1-160.8 158.6-231.3 240.1-54.5 63.1-106.6 126.7-159.2 190.2-47.8 57.7-96 115.5-148.2 172.1-60.4 65.4-128 128.9-182 195.9-13.6 16.9-27.2 35.8-33 54-4.2 13-5.1 28.7 11 39.6 26.2 17.7 82.2 13 117.5 8.5 46.6-5.9 92.5-15.2 136.5-25.4 48.3-11.2 95.5-23.8 142.2-36.7 37.6-10.4 75-21 112.6-31.3 35-9.7 70.3-19.2 106.2-27.9 236.6-57 477-109.4 719.3-159 38.9-8 77.9-15.7 117-23.4zm-2143.2-278.8c137.5-66.8 269.5-136.4 397.8-208.4 112.7-63.2 556.9-334.7 727.7-437.8h27.3c-210 144.5-490.4 310.2-710.3 429.4-142.8 77.3-291.8 151.4-442.5 224.2zm140.8 675q24-25.2 49.5-49.9c48.2-46.5 105-90 164.9-132.4 59.1-41.9 121-82.5 180.1-124.4 13.8-9.7 27.4-19.5 40.8-29.4 75.7-55.9 146.2-113.5 215.5-171.7 54.7-46 108.9-92.2 164.6-137.8 98.1-80.3 188.1-163.2 275.2-246.9-48.3 51.9-96 104-148 155-34.1 33.4-69.9 66.3-108.8 98.1-163.5 133.8-310.8 273.2-498.2 398.1-46 30.7-90.8 61.9-133.1 94.1-46.6 35.5-89.7 72.1-129 110.1q-19 18.3-37.1 36.9-18.2 0.1-36.4 0.2zm1216.7-1022.4c19.5-21 39.9-41.7 63.5-61.5 38.4-32.4 84.1-62.7 132.1-91.1 43.7-25.9 89.9-50.6 137-74.7 49.7-25.4 100.5-50.2 152.2-74.4l14.5-0.1c-54.5 25.3-107.7 51.5-159.9 78.6-45.5 23.7-91.2 47.2-134.9 71.8-50.2 28.3-98.7 58.6-138 91.6-23.2 19.6-45.2 39.6-66.5 59.8zm786 467.5c-63.3 13.3-126.1 25.6-189.4 36.9-30.7 5.4-61.6 10.6-92.6 15.5-51.7 8.2-104.4 15.5-157.4 20.7-38.8 3.8-83.5 7.2-123 5.5-14.6-0.7-29.5-2.5-43-5.7-12.1-2.8-23.4-6.8-32.5-12-9.5-5.5-16.7-12.2-21.4-19.2-4.9-7.3-7.2-15.2-6.6-22.9 0.6-7.1 2.5-14.4 4.4-21.5 2.7-9.5 6-19 9.5-28.5 8.5-22.9 18.3-45.8 28.3-68.6 8.5-19.2 17.3-38.5 26.1-57.7 16.4-35.8 30.5-71.8 45.9-107.7 13.5-31.6 28.4-63.1 48.6-93.7 22-33.3 49.9-64.3 86.1-93.8 43.6-35.6 96.9-67.4 154.7-96.5 43.5-22 91.1-41.6 140.5-59.6 40.3-14.6 81.8-28.2 123.8-41.3v7.7q-22.4 6.5-44.5 13.3c-43.4 13.2-86.7 26.9-127.7 42.3-33.6 12.5-67.3 26.7-94.8 43.1-65.5 38.9-128.5 81.2-175.6 127.3-34.6 33.8-58 67.7-74.9 105.2-10.7 23.6-18.7 47.6-26.9 71.6-9.3 27.3-19.2 54.4-31.6 81.4-7.2 15.9-14 31.8-20.3 47.8-8.7 21.9-16.7 43.9-23.5 66-2.8 9.1-5.4 18.3-7.6 27.5-1.6 7-3.1 14.2-3.7 21.2-2.6 31 38.7 52.1 94.6 54.6 37.7 1.6 77.3 0.4 114.8-1.9 49.3-3 98.5-8.5 146.1-16 65-10.3 129.8-21.1 193.8-33 26.8-5 53.4-10.1 79.8-15.6zm0.2-82.9c-44.5 7.6-90.8 13.8-136.4 18.2-54.8 5.3-168.3 13.6-214.2-7.9-41.9-19.7-49.4-52-49.2-80.2 1.5-180.1 55.6-338.1 394.5-415.5l6.7-1.6v12.5c-121.5 32.6-217.4 78.4-278.2 144.4-69.8 75.7-81.7 165.3-82.3 248.5-0.2 26.6 13.4 47.9 51 65.6 41.4 19.4 110.7 18.4 161.8 15.4 50-3 98.8-7.9 146.3-14.6zm-0.3 162.8c-50 9-100.1 17.7-150 26.8-110.9 20.3-222.1 40.2-332.4 61.4-113.2 21.7-394.3 75-505.2 55.9-13.6-2.3-26.8-5.9-36.5-11.7-30.1-17.8-13.3-48.5 1-67.9 51.8-70.6 116.3-129.5 170.7-198.3 39.9-50.4 82.8-136.7 113.6-192.2 23-41.3 46-82.6 75.6-122.7 51.4-69.5 118.8-131 210.5-187.4 54.4-33.4 114.7-63.5 178-91.9 69.9-31.3 143.4-60.4 217.2-89q19.2-7.4 38.7-14.7 7.4 4 14.9 8-19.1 6.7-38 13.7c-86.6 31.8-172.4 65-252.1 101.6-69.7 32-134.4 66.6-190.7 105.5-70.2 48.6-123.5 101.2-165.7 158.3-31.2 42.3-52.4 86.7-72.3 130.9-13.6 30-26.5 60.1-41.7 89.9-14.6 28.7-31.3 57.3-52.9 84.7-32.8 41.5-71.6 81.6-108.4 122.1-12.9 14.3-25.6 28.7-37.2 43.3-9.4 11.8-18.3 24-24.9 36.3-8.6 16-16.4 37.6 2.9 52.3 15.7 11.9 44.2 15.3 69.8 16.1 19.2 0.7 38.9-0.1 57.9-1.3 25.5-1.7 50.9-4.3 75.9-7.3 24-2.9 47.8-6.3 71.5-9.9 44.9-6.9 89.4-14.7 133.4-23 33.2-6.2 66-12.8 99.1-19.2 63.1-12.1 127.2-23 191.2-33.8 71.6-12 143.4-23.7 214.9-35.9q35.6-6.1 71.2-12.3zm-534.1-818.8c16.9-9.6 33.3-19.3 49.8-29.1h5.4q-27.7 14.5-55.2 29.1zm-530.4 1291.1c44.7-22.2 90.7-43.7 138.9-63.7 59.8-24.9 122.3-47.2 188.4-67 74.4-22.3 152.2-41 231.8-57.1 52.7-10.7 105.1-21.9 156.3-34.5 50-12.3 98.4-25.9 145.8-40.9 66-21 134.1-39.6 203.1-57.4v15.7l-6.4 1.8c-60.4 16.6-120.1 33.9-178.5 52.4-47.4 15.1-96 28.8-146.1 41.1-51.6 12.7-104.3 23.9-157.3 34.7-80.9 16.4-160.3 35-236.8 56.9-67.9 19.4-132.8 41.3-195 65.7-41.9 16.5-82.3 34-121.6 52.3zm325.4 0.4c49.2-15.9 98.9-31.5 148.6-46.9 72.1-22.5 144.5-44.8 215.6-68.2 105.3-34.8 212.3-68.1 319-101.5q27.8-8.8 55.6-17.5 0.1 7.5 0.1 15.1-22.7 7.7-45.6 15.3c-102.5 34.5-205.5 68.5-308.6 102.4-90.1 29.8-183 55.9-277 81.8-23.6 6.5-47.3 13-70.9 19.6q-18.4-0.1-36.8-0.1zm275 0.8c10.9-3.9 21.8-7.7 32.7-11.6 41.7-14.6 83.8-29 125.4-43.7 56.5-20.1 113.4-41 165.4-64.3 45.6-20.4 92.7-39.5 140.9-57.7q0.1 6.6 0.2 13.2c-43.7 17.2-86.8 35-129.2 53.2-95.3 40.7-199 76.3-302.3 111zm166.8 0.7q15.3-7.2 30.6-14.5c81.9-39.2 168.3-74.5 258.7-107.9q4.7-1.7 9.3-3.4 0.1 6.2 0.3 12.5c-87 35-170.8 71.9-252 110.7l-5.8 2.8q-20.5-0.1-41.1-0.2zm158 0.8c35.7-15 72-29.6 108.8-43.8q16.7-6.5 33.6-12.8l0.3 10.3q-56.5 22.7-111.6 46.5zm139.7-731.6c-48.9 2.4-115.1 1.9-159.9-10.2q-6.1-1.6-11.5-3.8c-15.9-6.5-26.4-16.1-33-26.1-8.6-12.9-11.5-27.3-11.4-41 0.4-34.5 19.7-71 46.5-102.1 15.6-18.1 34.5-35.3 56.2-51.4 32.2-23.7 71-41.3 114-55.4l-0.1 8.4c-42.7 13.1-81.1 29.8-111.6 53.1-19.7 15.1-36.5 31.3-50.1 48.2-23.8 29.7-39.4 64-37.6 96.5 1.3 23.2 11.2 47.6 47.6 62.4 40.3 16.3 102.6 15.7 151 14.2zm0.2-82.5c-6-1.3-11.8-2.9-17.4-4.6-10.5-3.3-20.2-7.4-27.9-12.5-7.3-4.8-13.2-10.6-16.7-16.5-3.2-5.5-4.7-11.4-3-17.1 2.5-8.6 7.7-17 14.5-24.9 7.6-8.8 17.3-17 28.3-24.5q10.7-7.4 22.5-14.4l-0.1 15.1q-9.7 5.9-18.5 11.9c-18.2 12.5-32.8 27.3-37.5 43.1-2.8 9.2 5 19.7 15.7 26.8 10.2 6.7 25 11.3 40.1 14.5zm-2144.3 53.6c340.6-173.2 660.7-345.9 918.5-560.7q17.2 0 34.4 0c-266.9 225.9-597.6 414.4-952.8 597.2zm-0.2-71.4c273.4-135.2 595.1-335.2 657-490q12 0 23.9 0c-98.9 180.8-406.2 382-680.8 518zm-0.3-89.1c190.2-118.4 365.6-239.3 394.7-402.4q13.9 0.1 27.7 0.2c-36.9 175.5-221.3 310.4-422.3 439.2zm-0.2-72.9c167.6-115.3 204.8-187.8 202.4-331l22.6 0.2c-21.7 180.4-39.4 234.5-224.9 356.3zm-0.4-101.3c13.4-17.7 24.9-35.3 34.4-53.1 28.3-53.1 38.6-108.5 27.5-177.9q14.2 0.1 28.4 0.3c8.5 70.6-11.2 127-40.2 181.4-14.1 26.4-30.3 52.3-50 78.9z"/></g><path class="o" d="m112.2 38.5l14.5-36.7c-3.8 0.8-7.3 2-10.4 3.7-26.3 14.2-52.7 28.3-79 42.5-11.4 6.1-14.2 9.2-18.3 17.3-5.4 10.8-10.8 21.6-16.3 32.3 1.5-2.1 3.9-4 7.1-5.8 30.4-16.5 60.8-33 91.6-49.4 3.2-1.7 6.9-3 10.8-3.9z"/><path class="p" d="m2052.5 42.2c30.4 16.6 60.9 33.1 91.3 49.6q4.6 2.5 7 5.5-8.2-16-16.1-32c-4-8.2-6.8-11.2-18.3-17.4-26.3-14.1-52.6-28.3-78.7-42.5q-4.7-2.5-10.4-3.8l14.3 36.8q6 1.2 10.9 3.8z"/><path class="q" d="m94.1 33.8c6.5 4.4 26.7 1.1 35.1 0.8 24.5-0.9 49.2-0.2 73.7-0.1-7.8-3.9-5-9 0-14.2-35.2-0.1-70.4 1.8-105.2 1.9-5 4.3-7.9 8.7-3.6 11.6zm3.6-11.6c34.8-0.1 70-2 105.2-1.9 6-6.1 15.1-12.2 13.1-16-32.2-0.2-58.7-0.4-78.3-0.5-9.5-0.1-14.1 2-21 6.1-3.8 2.2-12.9 7.2-19 12.3zm105.2 12.3c271.3 0.5 1614.9 2.3 1791.9-2.9 16.3-0.5 25.9-1.5 30.6-3.8-6.4 0-9.3-3.3-14.3-3.2-219.2 4.8-1492.2-2.9-1808.2-4.3-5 5.2-7.8 10.3 0 14.2zm0-14.2c316 1.4 1589 9.1 1808.2 4.3 5-0.1 7.9 3.2 14.3 3.2 5.6-2.8 4.3-7.5-1-15.8-2.5-3.9-12.9-7.3-20.2-7.2-233.6 4.6-1408.9 1.9-1788.2-0.5 2 3.8-7.1 9.9-13.1 16z"/><path class="r" d="m2019.6 38.5c-63.1 0.7-126.2 1.6-189.2 2.5-503.7 6.4-1002.5 6.4-1506.1 0-63.1-0.9-126.1-1.8-189.2-2.5-22-0.2-26.4 2-41.1 9.4-22.8 11.5-44.8 23.6-67.3 35.3 21.6-12.5 43.1-25 64.8-37.4 4.5-2.6 8.5-4.9 13.8-6.9 10.6-4 18.9-3.6 30.5-3.4 62.1 0.9 124.2 2.7 186.2 2.8 504.5 0.2 1006.1 0 1510.6 0 62.1 0 124.2-1.9 186.2-2.8 11.7-0.2 20-0.6 30.6 3.4 5.2 2 9.3 4.3 13.7 6.9 21.7 12.4 43.3 24.9 64.9 37.4-22.5-11.7-44.5-23.8-67.4-35.3-14.6-7.4-19-9.6-41-9.4z"/><g clip-path="url(#cp3)"><path class="s" d="m2028.2 92.8c18.2 9.6 36.3 19.1 54.7 28.7-1.8 69.8-3.2 884.3-3.2 954 0.1 69.8 1.8 139.6 3.9 209.4-18.2 9.7-36.3 19.3-54.4 28.8-634.8-4-1273.9-4-1908.7 0-18.2-9.5-36.2-19.1-54.5-28.8 2.1-69.8 3.9-139.6 3.9-209.4 0.1-69.7-1.3-884.2-3.1-954 18.4-9.6 36.4-19.1 54.7-28.7 628.6 6.2 1278 6.2 1906.7 0z"/><path fill-rule="evenodd" class="n" d="m1728.1 42.8c-67.5 30.4-129.2 62.9-186.7 99.1-79.8 50.2-149 105.3-212.1 161.9-74 66.2-130.5 137.7-203.9 204.2-33.8 30.6-69.5 60.6-106.8 90-35.4 27.9-72.1 55.3-109.4 82.6-19.8 14.5-39.8 29-59.8 43.4-58.7 42.5-116.1 85.5-173.3 128.5-51.1 38.4-102.1 76.8-154.7 114.5-55.7 39.9-113.2 79-173.7 116.8-68.8 43.1-141.1 84.4-216.3 124.3-26.7 14.1-53.4 28.3-79.8 42.6q-25.3 13.7-50.1 27.6 0.3-12.9 0.6-25.8 14.6-8 29.5-16.1c25.8-13.9 51.9-27.8 77.9-41.6 50.1-26.6 100-53.2 148.8-80.4 59.8-33.2 117.8-67.3 174.3-102.1 36.8-22.7 71.7-46.6 105.8-70.4 39.9-28 78.9-56.3 117.6-84.7 61.9-45.5 122.9-91.4 185.5-136.7 67.9-49.2 131.5-99.8 191.4-151.9 60.2-52.4 116.5-106 171.6-160 36.1-35.4 72.2-70.8 111-105.4 56.4-50.4 118.7-98.6 189.2-143.6 61.3-39.1 127.8-75 199.5-108.6q8.8-4.1 17.6-8.2zm-1724.6 725.9q21.7-10.5 43.3-21.2c109.7-54.3 217-110.2 319.9-168.2 122.4-69.1 243.5-138.8 360.9-210.3 118-71.8 356.8-231.1 466.6-306.6 8.3-5.6 16-11.6 23.6-17.6q14.7 0 29.4 0l-2.5 1.7c-230.6 158.5-612.8 391.2-870.8 536.7-119.8 67.6-243.7 132.9-370.3 196.6zm0.1 88.3q12.2-5.4 24.6-10.7c71.2-30.8 138.7-63.2 202.3-98.5 66.2-36.7 127.3-75.8 186.6-115.7 44-29.6 88-59.1 134.7-87.6 53.8-32.8 118.7-59.8 171.9-93 200.2-124.7 369.3-263 574.4-385.6q17.9-10.7 35.9-21.3 15.6-0.1 31.2-0.1-25.2 15.1-50.5 30.2c-124.1 74.2-233.3 155.2-344.2 235-39.6 28.5-81.5 55.9-126 82.2-37.7 22.3-77 43.6-116.7 64.8-27.1 14.4-54.2 28.9-80.8 43.5-29 16-57.4 32.3-84.9 49.1-38.2 23.3-74.1 47.5-108.8 72.4-31.7 22.6-62.3 45.6-93.8 68.3-40.8 29.4-83 57.8-130.2 84.4-55.4 31.3-115.8 59.1-180.9 84.4q-22.5 8.7-44.7 17.7zm1500-813.1q-15.7 9.1-31.6 18c-62.1 34.7-127.8 67.6-189.4 102.6-37 21-72.3 42.8-104.8 65.9-26.2 18.6-50.3 37.8-73.5 57.5-9.3 7.9-18.6 15.9-27.8 23.9-15.8 13.7-31.6 27.4-48 40.9-18.8 15.6-38.3 31-58.5 46.1-69.8 52.2-144.6 102.6-221.3 151.8-66.2 42.5-134.1 84.2-202.7 125.6-43.9 26.5-88.7 52.7-134.8 78.1-65.1 36-131.2 71.4-198.3 106.4-67 34.9-135 69.4-203.8 103.3l-5.3 2.7-0.1-26c220.7-108.6 445.5-215.4 644.9-335.6 42.7-25.8 84.5-52 124.6-78.9q53.7-36.1 103.5-73.7c64.7-49 124.4-99.8 183.3-150.8 9.3-8 18.6-16.1 28-24.1 23.3-19.7 47.4-39 73.8-57.7 32.7-23.2 68.1-45.1 105.3-66.2 61.6-35 131.6-65.3 193.7-100q8.6-4.8 17.2-9.7zm-1499.8 968.2q8.6-4 17.1-7.9c88.8-40.9 174.9-83.6 259.1-127.2 95.1-49.1 187.9-99.6 278.2-151.3 86.5-49.5 170.8-100.2 251.6-152.3 46.8-30.2 93.1-60.7 137.5-91.9 39.6-27.8 78-56.3 112.8-85.9 33.7-28.7 63.5-58.8 93.8-88.6 35.6-34.8 72.7-70.4 118-101.9 23.1-16.1 49-31.2 75.4-45.8 29.2-16.1 59.6-31.6 90.4-46.9 46.3-23.1 93.8-45.6 139.9-68.8h4.4c-45.7 23.7-90.8 47.8-134.9 72.4-28.7 16-57 32.3-84.5 48.9-25 15.2-49.6 30.7-72.7 46.8-45.2 31.4-85.5 65.2-124.3 98.9-33.3 28.9-65.7 58.2-99.4 86.9-49.6 42.1-103.1 82.8-159.6 122.3-57.3 40.1-117.3 79-178.1 117.5-87.4 55.3-177 109.6-269.5 162.4-66.1 37.7-134.8 74.4-204.3 110.3-69.9 36.1-141.4 72-215.1 105.9q-17.9 8.3-35.7 16.6zm0.1 80.6l2.3-1c34.4-14.8 67.8-30.4 100.8-46.1 41.8-19.9 83-40.2 123.8-60.8 95.9-48.3 189.9-97.9 282.1-148.3 89.7-49 178-98.9 263.3-150.2 36.6-22 72.8-44.4 107.7-67.2 28.2-18.4 56-37.2 81.4-56.7 44.4-34 82.8-70.1 119.2-106.6 37-37.3 72-75.1 108.8-112.4 46-46.6 95.1-92.7 154.3-134.9 37.4-26.7 82.6-48.6 129.7-70.1 29.9-13.7 60.2-27.2 89-41.6-27.5 14.6-55.1 29.1-82 44-40.6 22.4-78.8 45.5-113.8 70.5-98.5 70.2-179.7 147.8-259.7 224.4-46.1 44-92.3 88.2-146.5 129.6-53.1 40.6-114.7 77.8-176 114.8-116 69.9-229.1 141.3-347.2 210.2-130.3 76.1-266.1 148.5-416.5 213.2q-10.4 4.5-20.7 9v-4.7c0-3.4 0-8.6 0-15.1zm2142.5-122.9c-29.5 6.2-59.1 12.2-88.6 18.3-251.9 51.6-501.9 105.9-747.8 165.3-38 9.2-75.4 19.2-112.5 29.5-39.4 10.8-78.5 21.9-117.8 32.7-48.6 13.4-97.7 26.5-147.8 38.1-45.5 10.5-92.9 20-141 26.2q-9.2 1.1-18.5 2.1c-35.5 3.6-87.9 5.9-118-7.1-22-9.5-26.2-24.8-24.5-39.1 2.3-19.1 15.9-39.8 29.9-57.2 56.2-69.8 126.6-136 189.5-204.1 82-88.8 166.2-177 245.3-266.6 57.1-64.8 106.2-131.5 163.4-196.2 109.3-124.1 252.6-245.6 440.8-339.6 94.7-47.3 197.4-90.2 302.1-130.9l1.4-0.6 21.3-0.2q-8.4 3.2-16.9 6.4c-104.7 39.6-208.5 81.6-302.4 128.5-50.7 25.4-96.4 53.9-138.3 83.6-46.4 32.9-88.6 67.5-128.2 102.9-86.1 77.1-160.8 158.6-231.3 240.1-54.5 63.1-106.6 126.7-159.2 190.2-47.8 57.7-96 115.5-148.2 172.1-60.4 65.4-128 128.9-182 195.9-13.6 16.9-27.2 35.8-33 54-4.2 13-5.1 28.7 11 39.6 26.2 17.7 82.2 13 117.5 8.5 46.6-5.9 92.5-15.2 136.5-25.4 48.3-11.2 95.5-23.8 142.2-36.7 37.6-10.4 75-21 112.6-31.3 35-9.7 70.3-19.2 106.2-27.9 236.6-57 477-109.4 719.3-159 38.9-8 77.9-15.7 117-23.4zm-2143.2-278.8c137.5-66.8 269.5-136.4 397.8-208.4 112.7-63.2 556.9-334.7 727.7-437.8h27.3c-210 144.5-490.4 310.2-710.3 429.4-142.8 77.3-291.8 151.4-442.5 224.2zm140.8 675q24-25.2 49.5-49.9c48.2-46.5 105-90 164.9-132.4 59.1-41.9 121-82.5 180.1-124.4 13.8-9.7 27.4-19.5 40.8-29.4 75.7-55.9 146.2-113.5 215.5-171.7 54.7-46 108.9-92.2 164.6-137.8 98.1-80.3 188.1-163.2 275.2-246.9-48.3 51.9-96 104-148 155-34.1 33.4-69.9 66.3-108.8 98.1-163.5 133.8-310.8 273.2-498.2 398.1-46 30.7-90.8 61.9-133.1 94.1-46.6 35.5-89.7 72.1-129 110.1q-19 18.3-37.1 36.9-18.2 0.1-36.4 0.2zm1216.7-1022.4c19.5-21 39.9-41.7 63.5-61.5 38.4-32.4 84.1-62.7 132.1-91.1 43.7-25.9 89.9-50.6 137-74.7 49.7-25.4 100.5-50.2 152.2-74.4l14.5-0.1c-54.5 25.3-107.7 51.5-159.9 78.6-45.5 23.7-91.2 47.2-134.9 71.8-50.2 28.3-98.7 58.6-138 91.6-23.2 19.6-45.2 39.6-66.5 59.8zm786 467.5c-63.3 13.3-126.1 25.6-189.4 36.9-30.7 5.4-61.6 10.6-92.6 15.5-51.7 8.2-104.4 15.5-157.4 20.7-38.8 3.8-83.5 7.2-123 5.5-14.6-0.7-29.5-2.5-43-5.7-12.1-2.8-23.4-6.8-32.5-12-9.5-5.5-16.7-12.2-21.4-19.2-4.9-7.3-7.2-15.2-6.6-22.9 0.6-7.1 2.5-14.4 4.4-21.5 2.7-9.5 6-19 9.5-28.5 8.5-22.9 18.3-45.8 28.3-68.6 8.5-19.2 17.3-38.5 26.1-57.7 16.4-35.8 30.5-71.8 45.9-107.7 13.5-31.6 28.4-63.1 48.6-93.7 22-33.3 49.9-64.3 86.1-93.8 43.6-35.6 96.9-67.4 154.7-96.5 43.5-22 91.1-41.6 140.5-59.6 40.3-14.6 81.8-28.2 123.8-41.3v7.7q-22.4 6.5-44.5 13.3c-43.4 13.2-86.7 26.9-127.7 42.3-33.6 12.5-67.3 26.7-94.8 43.1-65.5 38.9-128.5 81.2-175.6 127.3-34.6 33.8-58 67.7-74.9 105.2-10.7 23.6-18.7 47.6-26.9 71.6-9.3 27.3-19.2 54.4-31.6 81.4-7.2 15.9-14 31.8-20.3 47.8-8.7 21.9-16.7 43.9-23.5 66-2.8 9.1-5.4 18.3-7.6 27.5-1.6 7-3.1 14.2-3.7 21.2-2.6 31 38.7 52.1 94.6 54.6 37.7 1.6 77.3 0.4 114.8-1.9 49.3-3 98.5-8.5 146.1-16 65-10.3 129.8-21.1 193.8-33 26.8-5 53.4-10.1 79.8-15.6zm0.2-82.9c-44.5 7.6-90.8 13.8-136.4 18.2-54.8 5.3-168.3 13.6-214.2-7.9-41.9-19.7-49.4-52-49.2-80.2 1.5-180.1 55.6-338.1 394.5-415.5l6.7-1.6v12.5c-121.5 32.6-217.4 78.4-278.2 144.4-69.8 75.7-81.7 165.3-82.3 248.5-0.2 26.6 13.4 47.9 51 65.6 41.4 19.4 110.7 18.4 161.8 15.4 50-3 98.8-7.9 146.3-14.6zm-0.3 162.8c-50 9-100.1 17.7-150 26.8-110.9 20.3-222.1 40.2-332.4 61.4-113.2 21.7-394.3 75-505.2 55.9-13.6-2.3-26.8-5.9-36.5-11.7-30.1-17.8-13.3-48.5 1-67.9 51.8-70.6 116.3-129.5 170.7-198.3 39.9-50.4 82.8-136.7 113.6-192.2 23-41.3 46-82.6 75.6-122.7 51.4-69.5 118.8-131 210.5-187.4 54.4-33.4 114.7-63.5 178-91.9 69.9-31.3 143.4-60.4 217.2-89q19.2-7.4 38.7-14.7 7.4 4 14.9 8-19.1 6.7-38 13.7c-86.6 31.8-172.4 65-252.1 101.6-69.7 32-134.4 66.6-190.7 105.5-70.2 48.6-123.5 101.2-165.7 158.3-31.2 42.3-52.4 86.7-72.3 130.9-13.6 30-26.5 60.1-41.7 89.9-14.6 28.7-31.3 57.3-52.9 84.7-32.8 41.5-71.6 81.6-108.4 122.1-12.9 14.3-25.6 28.7-37.2 43.3-9.4 11.8-18.3 24-24.9 36.3-8.6 16-16.4 37.6 2.9 52.3 15.7 11.9 44.2 15.3 69.8 16.1 19.2 0.7 38.9-0.1 57.9-1.3 25.5-1.7 50.9-4.3 75.9-7.3 24-2.9 47.8-6.3 71.5-9.9 44.9-6.9 89.4-14.7 133.4-23 33.2-6.2 66-12.8 99.1-19.2 63.1-12.1 127.2-23 191.2-33.8 71.6-12 143.4-23.7 214.9-35.9q35.6-6.1 71.2-12.3zm-534.1-818.8c16.9-9.6 33.3-19.3 49.8-29.1h5.4q-27.7 14.5-55.2 29.1zm-530.4 1291.1c44.7-22.2 90.7-43.7 138.9-63.7 59.8-24.9 122.3-47.2 188.4-67 74.4-22.3 152.2-41 231.8-57.1 52.7-10.7 105.1-21.9 156.3-34.5 50-12.3 98.4-25.9 145.8-40.9 66-21 134.1-39.6 203.1-57.4v15.7l-6.4 1.8c-60.4 16.6-120.1 33.9-178.5 52.4-47.4 15.1-96 28.8-146.1 41.1-51.6 12.7-104.3 23.9-157.3 34.7-80.9 16.4-160.3 35-236.8 56.9-67.9 19.4-132.8 41.3-195 65.7-41.9 16.5-82.3 34-121.6 52.3zm325.4 0.4c49.2-15.9 98.9-31.5 148.6-46.9 72.1-22.5 144.5-44.8 215.6-68.2 105.3-34.8 212.3-68.1 319-101.5q27.8-8.8 55.6-17.5 0.1 7.5 0.1 15.1-22.7 7.7-45.6 15.3c-102.5 34.5-205.5 68.5-308.6 102.4-90.1 29.8-183 55.9-277 81.8-23.6 6.5-47.3 13-70.9 19.6q-18.4-0.1-36.8-0.1zm275 0.8c10.9-3.9 21.8-7.7 32.7-11.6 41.7-14.6 83.8-29 125.4-43.7 56.5-20.1 113.4-41 165.4-64.3 45.6-20.4 92.7-39.5 140.9-57.7q0.1 6.6 0.2 13.2c-43.7 17.2-86.8 35-129.2 53.2-95.3 40.7-199 76.3-302.3 111zm166.8 0.7q15.3-7.2 30.6-14.5c81.9-39.2 168.3-74.5 258.7-107.9q4.7-1.7 9.3-3.4 0.1 6.2 0.3 12.5c-87 35-170.8 71.9-252 110.7l-5.8 2.8q-20.5-0.1-41.1-0.2zm158 0.8c35.7-15 72-29.6 108.8-43.8q16.7-6.5 33.6-12.8l0.3 10.3q-56.5 22.7-111.6 46.5zm139.7-731.6c-48.9 2.4-115.1 1.9-159.9-10.2q-6.1-1.6-11.5-3.8c-15.9-6.5-26.4-16.1-33-26.1-8.6-12.9-11.5-27.3-11.4-41 0.4-34.5 19.7-71 46.5-102.1 15.6-18.1 34.5-35.3 56.2-51.4 32.2-23.7 71-41.3 114-55.4l-0.1 8.4c-42.7 13.1-81.1 29.8-111.6 53.1-19.7 15.1-36.5 31.3-50.1 48.2-23.8 29.7-39.4 64-37.6 96.5 1.3 23.2 11.2 47.6 47.6 62.4 40.3 16.3 102.6 15.7 151 14.2zm0.2-82.5c-6-1.3-11.8-2.9-17.4-4.6-10.5-3.3-20.2-7.4-27.9-12.5-7.3-4.8-13.2-10.6-16.7-16.5-3.2-5.5-4.7-11.4-3-17.1 2.5-8.6 7.7-17 14.5-24.9 7.6-8.8 17.3-17 28.3-24.5q10.7-7.4 22.5-14.4l-0.1 15.1q-9.7 5.9-18.5 11.9c-18.2 12.5-32.8 27.3-37.5 43.1-2.8 9.2 5 19.7 15.7 26.8 10.2 6.7 25 11.3 40.1 14.5zm-2144.3 53.6c340.6-173.2 660.7-345.9 918.5-560.7q17.2 0 34.4 0c-266.9 225.9-597.6 414.4-952.8 597.2zm-0.2-71.4c273.4-135.2 595.1-335.2 657-490q12 0 23.9 0c-98.9 180.8-406.2 382-680.8 518zm-0.3-89.1c190.2-118.4 365.6-239.3 394.7-402.4q13.9 0.1 27.7 0.2c-36.9 175.5-221.3 310.4-422.3 439.2zm-0.2-72.9c167.6-115.3 204.8-187.8 202.4-331l22.6 0.2c-21.7 180.4-39.4 234.5-224.9 356.3zm-0.4-101.3c13.4-17.7 24.9-35.3 34.4-53.1 28.3-53.1 38.6-108.5 27.5-177.9q14.2 0.1 28.4 0.3c8.5 70.6-11.2 127-40.2 181.4-14.1 26.4-30.3 52.3-50 78.9z"/></g><path class="t" d="m67.3 167.5c0.3 8.5 5.5-15.6 16.6-21.5 7-3.6 14.2-7.4 21.2-11.1 11.1-5.9 24.9-8.7 40.8-8.6 70 0.6 498 1.1 878.5 1.4-25.9-11 79.6-21.8 54-32.8-342.8-0.3-863.9-1.1-957.4-2-18.4 9.6-36.4 19.1-54.7 28.6 0.4 15.4 0.5 30.7 1 46zm957.1-39.8c291.1 0.2 554.4 0.4 608.1 0.4 123.6-0.1 247.5-0.7 371.3-1.8 15.9-0.2 29.6 2.6 40.7 8.5 18.3 9.7 37.8 17.8 37.6 32.7 0.4-15.4 0.7-30.7 1.2-46-18.3-9.6-36.4-19.1-54.7-28.7-132.1 1.3-528 2.3-659.9 2.4-38.5 0-149.3-0.1-290.3-0.3 25.6 11-79.9 21.8-54 32.8z"/><g clip-path="url(#cp4)"><path fill-rule="evenodd" class="u" d="m2094.9 52.7q-7.9 9.9-7.9 9.9c8 1.7 15.3 4.1 21.3 7.1q0 0 14.9-7.5c-8-4.1-17.7-7.3-28.3-9.5zm28.3 9.5q-14.9 7.5-14.9 7.5 28.2 14.3 56.4 28.5 0 0 14.8-7.6-28.2-14.2-56.3-28.4zm81.8 59.9q0-0.3 0-0.5c-0.1-11.2-8.5-22.4-25.4-30.9l-0.1-0.1q-14.8 7.6-14.8 7.6l0.1 0.1c12.7 6.4 19.1 14.8 19.1 23.2q0 0.2 0 0.4v0.1q0 0 21.1 0.2zm0 0.1q-21.1-0.1-21.1-0.1-1.6 476.6-3.2 953.3 0 0 21 0 1.7-476.6 3.3-953.2zm-3.3 953.2q-21 0-21 0 0 0.1 0 0.3 0 0 21 0 0-0.2 0-0.3zm0 0.3q-21 0-21 0 2 104.3 4 208.6 0 0 21.1-0.2-2-104.2-4.1-208.4zm-20.7 239.7c15.4-7.9 25-18.9 24.8-30.9q0-0.1 0-0.3v-0.1q-21.1 0.2-21.1 0.2v0.1q0 0.1 0 0.2c0.2 9-7 17.3-18.6 23.2l-0.2 0.1q0 0 15 7.6zm-0.2 0.1q-15-7.6-15-7.6-28.2 14.4-56.5 28.8 0 0 14.8 7.6 28.4-14.4 56.7-28.8zm-117.7 41.4q0.9 0 1.7 0c21.4 0 42.8-4.2 59.2-12.5l0.1-0.1q-14.8-7.6-14.8-7.6l-0.2 0.1c-12.2 6.2-28.3 9.4-44.5 9.4q-0.6 0-1.3 0h-0.2q0 0-0.3 10.7zm-0.2 0q0.2-10.7 0.2-10.7-989.8 0-1979.7 0 0 0 0.2 10.7 989.7 0 1979.3 0zm-2040.4-12.5c15.2 7.7 36.3 12.5 59.4 12.5q0.8 0 1.5 0h0.2q-0.2-10.7-0.2-10.7h-0.3q-0.5 0-1.1 0c-17.4 0-33.2-3.7-44.7-9.4l-0.1-0.1q0 0-14.9 7.6zm-0.1-0.1q14.8-7.6 14.8-7.6-28.3-14.4-56.5-28.8 0 0-15 7.6 28.3 14.4 56.7 28.8zm-81.6-60.1q0 0.2 0 0.5c-0.2 11.1 8.1 22.2 24.8 30.7l0.1 0.1q15-7.6 15-7.6h-0.2c-12.6-6.4-18.8-14.8-18.7-23.2q0-0.2 0-0.3l0.1-0.2q0 0-21.1-0.1zm0-0.2q21.1 0.2 21.1 0.2 2-104.3 4-208.6 0 0-21 0-2.1 104.2-4.1 208.4zm4.1-208.4q21 0 21 0 0-0.1 0-0.2 0 0-21 0 0 0.1 0 0.2zm0-0.2q21 0 21 0-1.6-476.7-3.2-953.4 0 0-21.1 0.2 1.6 476.6 3.3 953.2zm22.1-984.7c-15.6 7.9-25.4 18.9-25.4 31q0 0.2 0 0.4v0.1q21.1-0.2 21.1-0.2v-0.1q0-0.1 0-0.3c0-9 7.3-17.3 19.1-23.3l0.1-0.1q0 0-14.7-7.6zm0.1-0.1q14.8 7.6 14.8 7.6 28.1-14.2 56.2-28.4 0 0-14.9-7.6-28 14.2-56.1 28.4zm118-41.1c-22.2-0.1-44.8 4.1-61.7 12.7h-0.2q14.9 7.6 14.9 7.6l0.1-0.1c12.8-6.4 29.8-9.6 46.5-9.5l0.2 0.1q0 0 0.4-10.7zm0.3 0q-0.4 10.7-0.4 10.7c329.4 3.1 658.9 4.6 988.3 4.7q0 0 0-10.7c-329.3-0.1-658.7-1.6-987.9-4.7zm987.9 4.7q0 10.7 0 10.7c329.6-0.1 659.2-1.6 988.7-4.7q0 0-0.4-10.7c-329.4 3.1-658.8 4.6-988.3 4.7zm988.3-4.7q0.4 10.7 0.4 10.7c8.8-0.1 17.3 0.7 25 2.3q0 0 7.9-9.9c-10.3-2.1-21.6-3.3-33.3-3.1zm25.4 13q-3.9 5-7.8 9.9c5.4 1.2 10.2 2.8 14.3 4.8q7.4-3.8 14.9-7.6c-6.1-3-13.3-5.4-21.4-7.1zm21.4 7.1q-7.5 3.8-14.9 7.6 28.2 14.3 56.4 28.5 7.4-3.8 14.8-7.6-28.2-14.2-56.3-28.5zm75.6 52.2q0-0.2 0-0.4c-0.1-8.4-6.4-16.8-19.1-23.2l-0.2-0.1q-7.4 3.8-14.8 7.6l0.2 0.1c8.5 4.3 12.8 10 12.8 15.6q0 0.1 0 0.3v0.1q10.5 0.1 21.1 0.1zm0 0.2q-10.6-0.1-21.1-0.2-1.6 476.8-3.2 953.5 10.5 0 21 0 1.6-476.7 3.3-953.3zm-3.3 953.3q-10.5 0-21 0 0 0.1 0 0.3 10.5 0 21 0 0-0.2 0-0.3zm0 0.3q-10.5 0-21 0 2 104.3 4 208.7 10.5-0.1 21.1-0.1-2-104.3-4.1-208.6zm-14.6 232.1c11.6-5.9 18.9-14.2 18.7-23.2q0-0.1 0-0.2v-0.1q-10.6 0-21.1 0.1v0.2 0.1c0.1 6.1-4.7 11.6-12.5 15.6l-0.2 0.1q7.5 3.8 15 7.5zm-0.2 0.1q-7.5-3.8-14.9-7.5-28.3 14.3-56.5 28.7 7.4 3.8 14.9 7.6 28.2-14.4 56.5-28.8zm-102.5 38.3q0.6 0 1.3 0c16.1 0 32.2-3.2 44.5-9.4l0.2-0.1q-7.5-3.8-14.9-7.6l-0.1 0.1c-8.3 4.2-19.1 6.3-29.9 6.3q-0.4 0-0.9 0h-0.2q-0.1 5.3-0.3 10.7zm-0.2 0q0.1-5.4 0.2-10.7-990.1 0-1980.2 0 0.1 5.3 0.2 10.7 989.9 0 1979.8 0zm-2025.8-9.4c11.4 5.7 27.3 9.4 44.7 9.4q0.5 0 1.1 0h0.2q-0.1-5.4-0.2-10.7h-0.3q-0.3 0-0.7 0c-11.7 0-22.3-2.5-30-6.3l-0.2-0.1q-7.4 3.8-14.8 7.6zm-0.2-0.1q7.4-3.8 14.9-7.6-28.3-14.4-56.5-28.7-7.4 3.8-14.9 7.5 28.3 14.4 56.5 28.8zm-75.3-52.3q0 0.1 0 0.3c-0.1 8.4 6.1 16.8 18.6 23.2h0.2q7.5-3.7 14.9-7.5l-0.1-0.1c-8.4-4.3-12.6-9.9-12.5-15.5q0-0.1 0-0.3v-0.1q-10.6-0.1-21.1-0.2zm0-0.1q10.5 0.1 21.1 0.2 2-104.4 4-208.8-10.5 0-21 0-2.1 104.3-4.1 208.6zm4.1-208.6q10.5 0 21 0 0-0.1 0-0.2-10.5 0-21 0 0 0.1 0 0.2zm0-0.2q10.5 0 21 0-1.6-476.8-3.2-953.5-10.6 0-21.1 0.1 1.6 476.7 3.3 953.4zm15.8-977.1c-11.7 6-19.1 14.3-19.1 23.3q0 0.2 0 0.3v0.1q10.5-0.1 21.1-0.1v-0.1-0.2c0-6.1 4.9-11.7 12.8-15.7l0.2-0.1q-7.4-3.8-14.8-7.6zm0.2-0.1q7.4 3.8 14.8 7.6 28.1-14.2 56.2-28.4-7.4-3.8-14.9-7.6-28.1 14.2-56.1 28.4zm102.7-38c-16.7-0.1-33.7 3.1-46.4 9.5l-0.2 0.1q7.5 3.8 14.9 7.6l0.2-0.1c8.5-4.3 19.9-6.4 31.1-6.4h0.3q0.2-5.3 0.4-10.6zm0.2 0q-0.2 5.3-0.4 10.7c329.6 3.1 659.2 4.6 988.8 4.7q0-5.4 0-10.7c-329.5-0.1-659-1.6-988.4-4.7zm988.4 4.7q0 5.3 0 10.7c329.7-0.1 659.4-1.6 989-4.7q-0.2-5.4-0.4-10.7c-329.5 3.1-659 4.6-988.6 4.7zm988.6-4.7q0.2 5.3 0.4 10.7c5.9-0.1 11.6 0.5 16.8 1.5q4-4.9 7.9-9.9c-7.8-1.6-16.3-2.4-25.1-2.3zm17.2 12.2q-3.9 5-7.8 10c2.7 0.5 5.2 1.4 7.3 2.4q7.4-3.8 14.8-7.6c-4-2-8.9-3.6-14.3-4.8zm14.3 4.8q-7.4 3.8-14.8 7.6 28.2 14.3 56.5 28.6 7.4-3.8 14.8-7.7-28.2-14.2-56.5-28.5zm69.5 44.5q0-0.2 0-0.3c-0.1-5.6-4.4-11.3-12.9-15.6l-0.1-0.1q-7.4 3.9-14.8 7.7l0.2 0.1c4.3 2.1 6.5 5 6.5 7.9v0.1 0.2q10.5 0 21 0.1zm0 0.1q-10.5-0.1-21-0.1-1.6 476.8-3.3 953.6 10.6 0 21.1 0 1.6-476.7 3.2-953.5zm-3.2 953.5q-10.5 0-21.1 0 0 0.1 0 0.3 10.6 0 21.1 0 0-0.2 0-0.3zm0 0.3q-10.5 0-21.1 0 2.1 104.4 4.1 208.9 10.5-0.1 21.1-0.2-2.1-104.4-4.1-208.7zm-8.4 224.6c7.7-4 12.6-9.5 12.5-15.6v-0.1-0.2q-10.6 0.1-21.1 0.2v0.1 0.1c0.1 3.1-2.4 5.9-6.4 7.9l-0.2 0.1q7.5 3.8 15 7.6zm-0.2 0.1q-7.5-3.8-14.9-7.6-28.2 14.4-56.4 28.7 7.5 3.8 14.9 7.6 28.2-14.4 56.4-28.7zm-87.3 35.1q0.4 0 0.8 0c10.9 0 21.7-2.1 29.9-6.3l0.2-0.1q-7.4-3.8-14.9-7.6l-0.1 0.1c-4.2 2.1-9.7 3.2-15.2 3.2q-0.3 0-0.5 0h-0.2q-0.1 5.3-0.3 10.7zm-0.2 0q0.1-5.4 0.2-10.7-990.4 0-1980.7 0 0.1 5.3 0.2 10.7 990.1 0 1980.3 0zm-2011.2-6.3c7.6 3.8 18.3 6.3 29.9 6.3q0.4 0 0.8 0h0.2q-0.1-5.4-0.2-10.7h-0.3q-0.1 0-0.3 0c-6 0-11.4-1.3-15.3-3.2l-0.2-0.1q-7.4 3.8-14.8 7.6zm-0.2-0.1q7.4-3.8 14.8-7.6-28.1-14.3-56.3-28.7-7.5 3.8-14.9 7.6 28.2 14.3 56.4 28.7zm-69.1-44.6q0 0.2 0 0.3c-0.1 5.6 4.1 11.2 12.5 15.5l0.2 0.1q7.4-3.8 14.9-7.6l-0.2-0.1c-4.2-2.1-6.4-5-6.3-7.9v-0.1-0.1q-10.6-0.1-21.1-0.2zm0-0.1q10.5 0.1 21.1 0.2 2-104.5 4-209-10.5 0-21 0-2.1 104.4-4.1 208.8zm4.1-208.8q10.5 0 21 0 0-0.1 0-0.2-10.5 0-21 0 0 0.1 0 0.2zm0-0.2q10.5 0 21 0-1.6-476.8-3.2-953.7-10.6 0.1-21.1 0.2 1.6 476.7 3.3 953.5zm9.5-969.5c-7.8 4-12.8 9.6-12.8 15.7v0.2 0.1q10.5-0.1 21.1-0.2v-0.1-0.1c0-3.1 2.5-5.9 6.5-8h0.2q-7.4-3.9-14.8-7.7zm0.2-0.1q7.4 3.8 14.8 7.7 28.2-14.3 56.3-28.5-7.4-3.8-14.9-7.6-28.1 14.2-56.2 28.4zm87.6-34.9c-11.2 0-22.6 2.1-31.2 6.4l-0.2 0.1q7.5 3.8 14.9 7.6l0.2-0.1c4.3-2.2 10.2-3.3 15.9-3.3h0.2q0.2-5.3 0.4-10.7zm0.3 0.1q-0.2 5.3-0.4 10.6c329.7 3.2 659.4 4.7 989.1 4.8q0-5.4 0-10.7c-329.6-0.1-659.2-1.6-988.7-4.7zm988.7 4.7q0 5.3 0 10.7c329.9-0.1 659.7-1.6 989.4-4.8q-0.2-5.3-0.4-10.7c-329.6 3.2-659.3 4.7-989 4.8zm989-4.8q0.2 5.4 0.4 10.7c3.1 0 6 0.3 8.6 0.9q3.9-5 7.9-10c-5.2-1-10.9-1.6-16.9-1.6zm9 11.6q-3.9 4.9-7.9 9.9c0.1 0 0.3 0 0.3 0.1q7.5-3.8 14.9-7.6c-2.1-1-4.5-1.9-7.3-2.4zm7.3 2.4q-7.4 3.8-14.9 7.6 28.3 14.3 56.7 28.6 7.3-3.8 14.7-7.6-28.2-14.3-56.5-28.6zm63.2 36.7v-0.1c0-2.9-2.2-5.8-6.5-7.9l-0.2-0.1q-7.4 3.8-14.7 7.6l0.1 0.1q0.3 0.1 0.3 0.3v0.1q10.5 0.1 21 0.1zm0 0.2q-10.5-0.1-21-0.2-1.7 476.9-3.3 953.8 10.5 0 21.1 0 1.6-476.8 3.2-953.6zm-3.2 953.6q-10.6 0-21.1 0 0 0.1 0 0.3 10.5 0 21.1 0 0-0.2 0-0.3zm0 0.3q-10.6 0-21.1 0 2 104.5 4.1 209.1 10.5-0.1 21-0.2-2-104.5-4-208.9zm-2.3 217c3.9-2 6.4-4.8 6.3-7.9v-0.1-0.1q-10.5 0.1-21 0.2v0.1q0 0.2-0.3 0.3l-0.1 0.1q7.4 3.8 14.9 7.5zm-0.2 0.1q-7.4-3.8-14.9-7.5-28.1 14.3-56.2 28.6 7.4 3.8 14.8 7.6 28.2-14.3 56.3-28.7zm-72.1 32q0.2 0 0.4 0c5.5 0 11-1.1 15.2-3.2l0.2-0.1q-7.4-3.8-14.8-7.6l-0.2 0.1c-0.2 0-0.4 0.1-0.6 0.1h-0.2q-0.2 5.3-0.3 10.7zm-0.2 0q0.1-5.4 0.2-10.7-990.6 0-1981.2 0 0.1 5.3 0.2 10.7 990.4 0 1980.8 0zm-1996.7-3.2c3.9 1.9 9.4 3.2 15.3 3.2q0.2 0 0.4 0h0.2q-0.1-5.4-0.2-10.7h-0.3c-0.2 0-0.4-0.1-0.5-0.1l-0.2-0.1q-7.4 3.8-14.8 7.6zm-0.2-0.1q7.4-3.8 14.8-7.6-28.1-14.3-56.2-28.6-7.5 3.7-15 7.5 28.2 14.4 56.4 28.7zm-62.9-36.8v0.1c0 2.9 2.1 5.8 6.4 7.9l0.1 0.1q7.5-3.8 15-7.5l-0.2-0.1q-0.2-0.1-0.2-0.3v-0.1q-10.6-0.1-21.1-0.2zm0-0.1q10.6 0 21.1 0.1 2-104.5 4.1-209.1-10.6 0-21.1 0-2 104.5-4.1 209zm4.1-209q10.5 0 21.1 0 0-0.1 0-0.2-10.6 0-21.1 0 0 0.1 0 0.2zm0-0.2q10.5 0 21.1 0-1.7-476.9-3.3-953.8-10.5 0.1-21.1 0.1 1.7 476.9 3.3 953.7zm3.3-961.9c-4.1 2.1-6.6 4.9-6.6 8v0.1 0.1q10.6 0 21.1-0.1v-0.1q0-0.2 0.2-0.3l0.2-0.1q-7.4-3.8-14.8-7.6zm0.2-0.1q7.4 3.8 14.8 7.6 28.2-14.3 56.5-28.6-7.5-3.7-14.9-7.5-28.2 14.2-56.4 28.5zm72.4-31.9c-5.7 0-11.5 1.1-15.9 3.3l-0.1 0.1q7.4 3.8 14.9 7.5h0.1q0.3-0.2 0.6-0.2h0.3q0.2-5.3 0.4-10.7zm0.2 0q-0.2 5.4-0.4 10.7c329.8 3.2 659.7 4.7 989.6 4.8q0-5.4 0-10.7c-329.8-0.1-659.5-1.6-989.2-4.8zm989.2 4.8q0 5.3 0 10.7c329.9-0.1 659.9-1.6 989.8-4.8q-0.2-5.3-0.4-10.7c-329.8 3.2-659.6 4.7-989.4 4.8zm989.4-4.8q0.2 5.4 0.4 10.7c0.1 0 0.2 0.1 0.3 0.1q3.9-5 7.9-9.9c-2.7-0.6-5.6-0.9-8.6-0.9zm0.7 10.8l-0.3 0.4 0.6-0.3c-0.1-0.1-0.2-0.1-0.3-0.1zm0.3 0.1l-0.6 0.3q28.3 14.3 56.6 28.6l0.6-0.3q-28.3-14.3-56.6-28.6zm57 29q0-0.2-0.2-0.3l-0.2-0.1-0.6 0.3 0.2 0.1v0.1h0.8zm0 0.1h-0.8q-1.6 476.9-3.3 953.8h0.9q1.6-476.9 3.2-953.8zm-3.2 953.8h-0.9q0 0.1 0 0.3h0.9q0-0.2 0-0.3zm0 0.3h-0.9q2.1 104.5 4.1 209.1h0.8q-2-104.6-4-209.1zm3.8 209.5q0.2-0.1 0.2-0.3v-0.1h-0.8v0.1l-0.2 0.1 0.6 0.3zm-0.2 0.1l-0.5-0.3q-28.1 14.3-56.3 28.6l0.6 0.3q28.1-14.3 56.2-28.6zm-56.9 28.8c0.2 0 0.4-0.1 0.6-0.1l0.1-0.1-0.6-0.3-0.1 0.1h-0.3v0.4zm-0.2 0v-0.4q-990.7 0-1981.3 0v0.4q990.6 0 1981.3 0zm-1982.1-0.1c0.1 0 0.4 0.1 0.6 0.1h0.2v-0.4h-0.2l-0.2-0.1-0.6 0.3zm-0.2-0.1l0.6-0.3q-28.1-14.3-56.2-28.6l-0.6 0.3q28.1 14.3 56.2 28.6zm-56.6-29q0 0.2 0.3 0.3l0.1 0.1 0.6-0.3-0.2-0.1v-0.1h-0.8zm0-0.2h0.8q2.1-104.5 4.1-209.1h-0.8q-2 104.6-4.1 209.1zm4.1-209.1h0.8q0-0.1 0-0.2h-0.8q0 0.1 0 0.2zm0-0.2h0.8q-1.6-476.9-3.2-953.8h-0.9q1.7 476.9 3.3 953.8zm-3-954.2q-0.3 0.1-0.3 0.3v0.1h0.9v-0.1l0.1-0.1-0.5-0.3zm0.2-0.1l0.5 0.3q28.3-14.3 56.5-28.6l-0.6-0.3q-28.2 14.3-56.4 28.6zm57.1-28.8q-0.3 0-0.5 0.2h-0.2l0.6 0.3h0.1 0.3v-0.5zm0.3 0v0.5c329.8 3.1 659.7 4.7 989.5 4.7v-0.5c-329.8 0-659.7-1.5-989.5-4.7zm989.5 4.7v0.5c330 0 659.9-1.6 989.8-4.7v-0.5c-329.9 3.2-659.8 4.7-989.8 4.7zm989.8-4.7v0.5l0.3-0.4c-0.1 0-0.2-0.1-0.3-0.1zm0 0.5l-0.3 0.4q28.1 14.2 56.2 28.4l0.8-0.2q-28.3-14.3-56.7-28.6zm-989.8 4.7v0.4c329.8 0 660.3-1.6 989.5-4.7l0.3-0.4c-329.9 3.1-659.8 4.7-989.8 4.7zm1046.6 24l-0.1-0.1-0.8 0.2h0.1v0.2l0.8-0.2zm0 0.1l-0.8 0.2q-1.6 476.8-3.2 953.6h0.8q1.6-476.9 3.2-953.8zm-3.2 953.8h-0.8q0 0.1 0 0.3h0.8q0-0.2 0-0.3zm0 0.3h-0.8q2 104.4 4 208.9l0.9 0.2q-2.1-104.6-4.1-209.1zm4.1 209.2v-0.1l-0.9-0.2v0.1l-0.1 0.1 0.8 0.2zm-0.2 0.1l-0.8-0.2q-27.9 14.2-55.8 28.4l0.4 0.4q28.1-14.3 56.2-28.6zm-56.4 28.7l0.2-0.1-0.4-0.4h-0.1v0.1h-0.3l0.4 0.4zm-0.3 0l-0.3-0.4q-990.3 0-1980.6 0l-0.3 0.4q990.6 0 1981.2 0zm-1981.5 0h0.3l0.3-0.4h-0.2v-0.1h-0.2l-0.4 0.4zm-0.1-0.1l0.3-0.4q-27.9-14.2-55.7-28.4l-0.9 0.2q28.2 14.3 56.3 28.6zm-56.4-28.7l0.1 0.1 0.9-0.2-0.2-0.1v-0.1l-0.8 0.2zm0-0.2l0.8-0.1q2-104.5 4.1-209h-0.8q-2.1 104.6-4.1 209.1zm4.1-209.1h0.8q0-0.1 0-0.2h-0.8q0 0.1 0 0.2zm0-0.2h0.8q-1.7-476.8-3.3-953.7l-0.8-0.1q1.6 476.9 3.3 953.8zm-3.3-953.9v0.1l0.8 0.1v-0.1l0.2-0.1-0.8-0.1zm0.2-0.1l0.8 0.1q28-14.1 56-28.3l-0.4-0.4q-28.2 14.3-56.4 28.6zm56.6-28.6h-0.2l0.4 0.4h0.1 0.3l-0.4-0.4zm0.3 0l0.3 0.4c329.2 3.1 659.5 4.7 989.3 4.7v-0.4c-329.9 0-659.8-1.6-989.6-4.7zm1979.4 0l-0.3 0.4 0.3-0.4zm0 0l-0.3 0.4 0.3-0.4zm-0.3 0.4q-4.3 5.4-8.6 10.7 21.8 11.1 43.7 22.1 10.5-2.2 21-4.4-28.1-14.2-56.1-28.4zm-989.5 4.7q0 5.3 0 10.7 247.5 0 495.1-1.2 123.8-0.7 247.6-1.5 119.1-1 238.2-2 4.3-5.3 8.6-10.7c-329.3 3.1-659.7 4.7-989.5 4.7zm1045.8 23.7h-0.2q-10.5 2.2-21 4.4l0.1 0.1v0.1q10.5-2.2 21.1-4.4zm0 0.1q-10.6 2.2-21.1 4.4-1.6 474.6-3.2 949.2 10.5 0 21 0 1.6-476.8 3.3-953.6zm-3.3 953.6q-10.5 0-21 0 0 0.1 0 0.3 10.5 0 21 0 0-0.2 0-0.3zm0 0.3q-10.5 0-21 0 1.9 102.3 3.9 204.6 10.6 2.1 21.2 4.3-2.1-104.5-4.1-208.9zm4.1 209v-0.1q-10.6-2.2-21.2-4.3l-0.1 0.1q10.6 2.2 21.1 4.4zm-0.2 0.1q-10.5-2.2-21.1-4.4-21.7 11-43.4 22.1 4.4 5.3 8.8 10.7 27.9-14.2 55.7-28.4zm-55.9 28.4h0.2q-4.4-5.4-8.8-10.7h-0.1-0.2q4.3 5.4 8.7 10.7zm-0.3 0q-4.3-5.3-8.6-10.7-981.7 0-1963.3 0-4.3 5.4-8.7 10.7 990.3 0 1980.6 0zm-1980.8 0h0.2q4.4-5.3 8.7-10.7h-0.2-0.1q-4.4 5.3-8.8 10.7zm-0.2-0.1q4.4-5.4 8.8-10.7-21.7-11.1-43.4-22.1-10.5 2.2-21.1 4.4 27.9 14.2 55.7 28.4zm-55.9-28.5l0.2 0.1q10.6-2.2 21.1-4.4l-0.1-0.1v-0.1q-10.6 2.2-21.2 4.4zm0.1-0.1q10.5-2.2 21.1-4.4 2-102.3 4-204.6-10.5 0-21.1 0-2 104.5-4 209zm4-209q10.6 0 21.1 0 0-0.1 0-0.2-10.5 0-21.1 0 0 0.1 0 0.2zm0-0.2q10.6 0 21.1 0-1.6-474.6-3.3-949.2-10.5-2.3-21-4.5 1.6 476.9 3.2 953.7zm-3.2-953.8v0.1q10.5 2.2 21 4.5v-0.1l0.2-0.1q-10.5-2.2-21.1-4.5zm0.2-0.1q10.5 2.3 21.1 4.5 21.7-11 43.5-22-4.3-5.4-8.6-10.8-28 14.2-56 28.3zm56.2-28.3h-0.2q4.3 5.4 8.6 10.8l0.1-0.1h0.2q-4.2-5.3-8.5-10.7zm0.3 0q4.2 5.4 8.5 10.8 119.1 0.9 238.2 1.9 123.8 0.8 247.5 1.5 247.5 1.2 495 1.2 0-5.4 0-10.7c-329.7 0-660.1-1.6-989.2-4.7zm1978.7 0q-4.3 5.4-8.5 10.7 4.2-5.3 8.5-10.7zm0 0q-4.3 5.4-8.5 10.7 4.2-5.3 8.5-10.7zm-8.5 10.7q-4.3 5.4-8.6 10.8 15.6 7.9 31.2 15.8 10.5-2.3 21-4.5-21.8-11-43.6-22.1zm-238.3 2q-123.8 0.8-247.5 1.5-247.6 1.2-495.2 1.2 0 5.3 0 10.7 247.7 0 495.4-1.2 123.8-0.7 247.6-1.5 114.7-0.9 229.4-1.9 4.3-5.4 8.6-10.8-119.2 1-238.3 2zm282 20.2l-0.1-0.1q-10.5 2.2-21 4.5h0.1v0.1q10.5-2.2 21-4.4zm0 0.1q-10.5 2.2-21 4.4-1.7 472.4-3.3 944.8 10.6 0 21.1 0 1.6-474.6 3.2-949.2zm-3.2 949.2q-10.5 0-21.1 0 0 0.1 0 0.2 10.6 0 21.1 0 0-0.1 0-0.2zm0 0.2q-10.5 0-21.1 0 2 100.2 3.9 200.3 10.6 2.1 21.2 4.3-2-102.3-4-204.6zm4 204.7v-0.1q-10.6-2.2-21.2-4.3l-0.1 0.1q10.6 2.2 21.1 4.4zm-0.1 0q-10.5-2.2-21.1-4.4-15.5 7.9-31.1 15.9 4.4 5.3 8.8 10.6 21.7-11 43.4-22.1zm-43.5 22.2l0.1-0.1q-4.4-5.3-8.8-10.6h-0.1-0.1q4.4 5.3 8.7 10.7zm-0.2 0q-4.3-5.4-8.7-10.7-972.9 0-1945.9 0-4.3 5.3-8.6 10.7 981.6 0 1963.2 0zm-1963.4 0h0.2q4.3-5.4 8.6-10.7h-0.1l-0.1-0.1q-4.3 5.4-8.7 10.7zm-0.2 0q4.4-5.4 8.8-10.7-15.5-7.9-31.1-15.8-10.5 2.2-21.1 4.4 21.7 11 43.4 22.1zm-43.5-22.2l0.1 0.1q10.6-2.2 21.1-4.4v-0.1q-10.6 2.1-21.2 4.3zm0-0.1q10.6-2.2 21.2-4.3 1.9-100.2 3.9-200.3-10.6 0-21.1 0-2 102.3-4 204.6zm4-204.6q10.5 0 21.1 0 0-0.1 0-0.2-10.6 0-21.1 0 0 0.1 0 0.2zm0-0.2q10.5 0 21.1 0-1.7-472.4-3.3-944.8-10.5-2.2-21.1-4.4 1.7 474.6 3.3 949.2zm-3.3-949.3v0.1q10.6 2.2 21.1 4.4v-0.1h0.1q-10.5-2.3-21-4.5zm0.1-0.1q10.5 2.3 21.1 4.5 15.5-7.9 31-15.7-4.3-5.4-8.6-10.8-21.7 11-43.5 22zm43.7-22h-0.2q4.3 5.4 8.6 10.8h0.1 0.1q-4.2-5.4-8.5-10.8zm486 3.4q-123.7-0.7-247.5-1.4-119.1-1-238.3-2 4.3 5.4 8.5 10.8 114.8 0.9 229.5 1.9 123.8 0.7 247.6 1.4 247.6 1.2 495.2 1.2 0-5.3 0-10.7-247.5 0-495-1.2zm1476-3.4q-4.3 5.4-8.6 10.8 4.3-5.4 8.6-10.8zm0 0q-4.3 5.4-8.6 10.8 4.3-5.4 8.6-10.8zm-8.6 10.8q-4.3 5.3-8.5 10.7 9.3 4.7 18.6 9.5 10.5-2.3 21.1-4.5-15.6-7.9-31.2-15.7zm-229.4 1.9q-123.8 0.7-247.7 1.4-247.6 1.2-495.3 1.2 0 5.4 0 10.7 247.8 0 495.5-1.2 123.9-0.7 247.8-1.4 110.3-1 220.6-1.9 4.2-5.4 8.5-10.7-114.7 0.9-229.4 1.9zm260.7 13.8h-0.1q-10.6 2.2-21.1 4.5h0.1q10.5-2.2 21.1-4.4zm0 0.1q-10.6 2.2-21.1 4.4-1.6 470.2-3.2 940.4 10.5 0 21 0 1.6-472.4 3.3-944.8zm-3.3 944.8q-10.5 0-21 0 0 0.1 0 0.2 10.5 0 21 0 0-0.1 0-0.2zm0 0.2q-10.5 0-21 0 1.9 98 3.8 195.9 10.5 2.2 21.1 4.4-1.9-100.2-3.9-200.3zm3.9 200.3q-10.6-2.2-21.1-4.4l-0.1 0.1q10.6 2.2 21.1 4.4zm-0.1 0q-10.5-2.2-21.1-4.4-9.3 4.8-18.7 9.5 4.4 5.4 8.8 10.7 15.5-7.9 31-15.8zm-31.1 15.9l0.1-0.1q-4.4-5.3-8.8-10.7l-0.1 0.1q4.3 5.3 8.7 10.7zm-0.2 0q-4.3-5.4-8.6-10.7-964.3 0-1928.6 0-4.3 5.3-8.7 10.7 973 0 1945.9 0zm-1946 0h0.1q4.4-5.4 8.7-10.7l-0.1-0.1q-4.4 5.4-8.8 10.7zm0 0q4.3-5.4 8.7-10.7-9.3-4.8-18.7-9.5-10.6 2.2-21.1 4.4 15.5 7.9 31.1 15.8zm-31.2-15.9l0.1 0.1q10.5-2.2 21.1-4.4l-0.1-0.1q-10.5 2.2-21.1 4.4zm0-0.1q10.6-2.2 21.1-4.4 2-97.9 3.9-195.8-10.6 0-21.1 0-2 100.1-3.9 200.2zm3.9-200.2q10.5 0 21.1 0 0-0.2 0-0.3-10.6 0-21.1 0 0 0.1 0 0.3zm0-0.3q10.5 0 21.1 0-1.6-470.2-3.3-940.4-10.5-2.2-21-4.4 1.6 472.4 3.2 944.8zm-3.2-944.9v0.1q10.5 2.2 21 4.4h0.1q-10.5-2.3-21-4.5zm0-0.1q10.6 2.3 21.1 4.5 9.3-4.7 18.6-9.4-4.3-5.4-8.6-10.8-15.5 7.9-31.1 15.7zm31.2-15.7h-0.1q4.3 5.4 8.6 10.8h0.1q-4.2-5.4-8.5-10.8zm477.2 3.4q-123.8-0.8-247.6-1.5-114.7-0.9-229.5-1.9 4.3 5.4 8.5 10.8 110.4 0.9 220.7 1.8 123.9 0.7 247.7 1.5 247.7 1.2 495.4 1.2 0-5.4 0-10.7-247.6 0-495.2-1.2zm1467.6-3.4q-4.2 5.4-8.5 10.8 4.3-5.4 8.5-10.8zm0 0q-4.2 5.4-8.5 10.8 4.3-5.4 8.5-10.8zm-8.5 10.8q0 0-8.5 10.8 1.4 0.7 2.9 1.4 1.7 0.9 3.4 1.7h-0.1-0.1q21-4.5 21-4.5-9.3-4.7-18.6-9.4zm-220.6 1.8q-123.9 0.7-247.7 1.5-247.8 1.2-495.6 1.2 0 0 0 10.7 247.9 0 495.8-1.2 229.8-1.6 459.6-3.2 8.5-10.8 8.5-10.8-110.3 0.9-220.6 1.8zm239.3 7.6h-0.1q0 0-21 4.5 21.1-4.4 21.1-4.4zm0 0q0 0-21.1 4.4-1.6 468-3.2 936 21.1 0 21.1 0 1.6-470.2 3.2-940.4zm-3.2 940.4q0 0-21.1 0 0 0.1 0 0.3 21.1 0 21.1 0 0-0.2 0-0.3zm0 0.3q0 0-21.1 0 1.9 95.7 3.7 191.5 21.2 4.3 21.2 4.3-1.9-97.9-3.8-195.8zm3.8 195.9v-0.1q0 0-21.2-4.3 21.1 4.4 21.1 4.4zm0 0q0 0-21.1-4.4c3.7-1.9-9.7 4.9-6.4 3.3q8.7 10.6 8.7 10.6 9.4-4.7 18.8-9.5zm-18.8 9.6v-0.1q0 0-8.7-10.6 8.7 10.7 8.6 10.7zm0 0q0 0-8.7-10.7-955.6 0-1911.2 0-8.6 10.7-8.6 10.7 964.2 0 1928.5 0zm-1928.6 0h0.1q0 0 8.6-10.7-8.7 10.6-8.7 10.6zm-0.1 0q0 0 8.8-10.7-1.8-0.9-3.5-1.7-1.5-0.8-3-1.6l0.1 0.1q-21.1 4.4-21.1 4.4 9.3 4.7 18.7 9.5zm-18.8-9.5h0.1q0 0 21.1-4.4-21.2 4.3-21.2 4.3zm0 0q0 0 21.2-4.4 1.8-95.7 3.7-191.5-21.1 0-21.1 0-1.9 98-3.8 195.9zm3.8-195.9q0 0 21.1 0 0-0.1 0-0.2-21.1 0-21.1 0 0 0.1 0 0.2zm0-0.2q0 0 21.1 0-1.6-468-3.2-936-21.1-4.4-21.1-4.4 1.6 470.2 3.2 940.4zm-3.2-940.5v0.1q0 0 21.1 4.4-21-4.5-21-4.5zm0 0q0 0 21 4.4v0.1h-0.1q1.7-0.8 3.3-1.7 1.5-0.7 3-1.5-8.6-10.7-8.6-10.7-9.3 4.7-18.6 9.4zm18.7-9.4h-0.1q0 0 8.6 10.7-8.5-10.7-8.5-10.7zm468.5 3.3q-123.8-0.8-247.7-1.5-110.3-0.9-220.7-1.8 0 0 8.5 10.7 229.8 1.6 459.7 3.3 247.8 1.1 495.6 1.1 0-10.7 0-10.7-247.7 0-495.4-1.1zm1459.3-3.3q0 0-8.6 10.7 8.6-10.7 8.6-10.7zm0 0q0 0-8.6 10.7 8.6-10.7 8.6-10.7z"/></g><path class="v" d="m2028.6 1297.6c-132.1-0.8-264.1-1.5-396.1-1.5-132.2 0-1378.4 0.7-1510.4 1.5-18.3-9.6-36.4-19.3-54.6-28.9-0.1 5.4-0.3 10.8-0.5 16.2 16 8.5 31.8 16.9 47.9 25.3 2.2 1.3 4.3 2.4 6.7 3.6 132.2-1 1378.6-1.6 1510.9-1.6 132.2 0 264.3 0.6 396.7 1.5 2.1-1.1 4.4-2.3 6.6-3.6 15.9-8.4 31.8-16.8 47.8-25.2-0.2-5.4-0.4-10.8-0.5-16.3-18.3 9.7-36.4 19.4-54.5 29z"/></svg>