<?xml version="1.0" encoding="UTF-8"?>
<svg xmlns="http://www.w3.org/2000/svg" viewBox="0 0 321.97 51.65">
  <defs>
    <style>
      .cls-1 {
        fill: #64270f;
        mix-blend-mode: multiply;
      }

      .cls-2 {
        fill: none;
        isolation: isolate;
      }
    </style>
  </defs>
  <g class="cls-2">
    <g id="Layer_1" data-name="Layer 1">
      <path class="cls-1" d="m321.11.7c-.97-1.68-3.13.23-4.9,0-2.15-.28-4.31.09-6.47,0-3.19-.13-6.39.29-9.58,0-3.51-.32-7.03.26-10.55,0-6.99-.51-14-.24-21.01,0-13.84.48-27.68.33-41.54,0-6.54-.15-13.05-.09-19.59,0-6.5.09-13.01-.81-19.46,0-1.29.16-2.58-.19-3.86,0-10.34.15-20.68-.35-30.99,0-8.37.29-16.73-.1-25.1,0-8.19.1-16.38-.39-24.56,0-8.18.39-16.35-.5-24.52,0-8.27.5-16.56-.83-24.81,0-8.07.82-16.1-1.05-24.14,0-4.09.54-8.19-.31-12.31,0-3.95.3-7.98-1.03-11.84,0C3.3,1.39.94,16.09.45,18.96c-.24,1.4-.19,2.85-.31,4.27-.13,1.6-.28,3.19.17,4.76.21.72.39,1.74,1.05,2.2.65.45,1.64.3,2.38.33,1.28.05,2.57.09,3.86.14-2.2.76-3.92,1.98-4.49,4.56-.74,3.35.29,12.43-.15,15.8-.24,1.8-1.04-.83,1.2,0,1.45.54,3.21.03,4.72,0,2.78-.05,5.57.03,8.35,0,5.66-.06,11.32,0,16.99,0,11.18,0,22.34.43,33.51,0,11.12-.43,22.22.6,33.33,0,11.07-.59,22.17.85,33.23,0,15.04-1.15,29.98,1.76,44.95,0,1.18-.02,2.36,0,3.53,0,3.97.02,7.94-.18,11.91,0,15.88.72,31.78-.76,47.66,0,4.53.22,9.07-.22,13.62,0,4.04.66,8.12.3,12.21,0,4.29-.31,8.56.62,12.81,0,4.41-.64,8.81.56,13.24,0,3.33-.42,6.62-.08,9.97,0,3.17.08,6.6.95,9.68,0,1.49-.46,2.92-11.65,3.64-13.09.77-1.52.5-3.3,1.14-4.87.22-.54-.19-1.02-.73-1.05-4.54-.21-8.96-1.28-13.43-2.01.93-.22,1.85-.45,2.76-.74,2.75-.87,5.79-2.13,7.06-4.92.18-.4-.06-.86-.46-.99-4.53-1.43-9.33-1.06-14-1.5-1.46-.14-2.92-.32-4.37-.53,8.08-.65,16.15-1.66,24.26-1.22.69.04,1.52-.61,1.56-1.32.12-2.26.47-15.81.6-18.07.12-2.03.29,1.83-.77,0Z"/>
    </g>
  </g>
</svg>