<svg version="1.2" xmlns="http://www.w3.org/2000/svg" viewBox="0 0 900 750" width="900" height="750"><style>.a{fill:#7c5438}.b{fill:#ce9f38}.c{fill:#e5ae41}.d{opacity:.5;fill:#ce9f38}.e{fill:#c68655}.f{fill:#c18156}.g{fill:#da9859}.h{opacity:.5;fill:#7c5438}.i{opacity:.4;fill:#ce9f38}</style><path fill-rule="evenodd" class="a" d="m119.5 152.4c-21 0-38-17-38-38 0-21 17-38 38-38 21 0 38 17 38 38 0 21-17 38-38 38zm25.8-38c0-14.3-11.5-25.8-25.8-25.8-14.3 0-25.8 11.5-25.8 25.8 0 14.3 11.5 25.8 25.8 25.8 14.3 0 25.8-11.5 25.8-25.8z"/><g style="opacity:.5"><path fill-rule="evenodd" class="b" d="m119.9 148.4c-19 0-34.3-15.4-34.3-34.4 0-19 15.3-34.3 34.3-34.3 19 0 34.4 15.3 34.4 34.3 0 19-15.4 34.4-34.4 34.4zm30.3-34.4c0-16.7-13.5-30.3-30.3-30.3-16.7 0-30.3 13.6-30.3 30.3 0 16.8 13.6 30.3 30.3 30.3 16.8 0 30.3-13.5 30.3-30.3z"/></g><path class="c" d="m105.8 85c-1.8-0.3-3.7-0.2-5.2 0.8l-2 1.2c-3 4.6-7.7 7.6-10.2 13-1.3 2.8-2 6-2.4 8.9-0.5 3.5 0.3 8 3.3 3.7 3.3-4.6 2.7-11.8 5.9-16.7 2.1-3.1 11.3-7.3 10.6-10.9z"/><path class="c" d="m151.8 118.4c-3.1-0.8-5.3 12.3-7.7 15.3-4.5 5.7-9.3 7.7-15.8 9.4l-1.3 0.4c-3.2 0.1-2.8 2.4 0 2.8 1.5 0.3 4.6-1.1 6-1.7 3.7-1.5 6.8-3.7 9.6-6.3 4.7-4.4 12-12.9 9.2-19.9z"/><path fill-rule="evenodd" class="a" d="m127 150.8v29.7h-15v-29.7z"/><path class="d" d="m114 154.5l0.2 24.8 6.3 1-1.2-22.4z"/><path fill-rule="evenodd" class="a" d="m788.6 152.4c-21 0-38-17-38-38 0-21 17-38 38-38 21 0 38 17 38 38 0 21-17 38-38 38zm25.8-38c0-14.3-11.5-25.8-25.8-25.8-14.3 0-25.8 11.5-25.8 25.8 0 14.3 11.5 25.8 25.8 25.8 14.3 0 25.8-11.5 25.8-25.8z"/><g style="opacity:.5"><path fill-rule="evenodd" class="b" d="m789 148.4c-19 0-34.3-15.4-34.3-34.4 0-19 15.3-34.3 34.3-34.3 19 0 34.4 15.3 34.4 34.3 0 19-15.4 34.4-34.4 34.4zm30.3-34.4c0-16.7-13.5-30.3-30.3-30.3-16.7 0-30.3 13.6-30.3 30.3 0 16.8 13.6 30.3 30.3 30.3 16.8 0 30.3-13.5 30.3-30.3z"/></g><path class="c" d="m774.9 85c-1.8-0.3-3.7-0.2-5.2 0.8l-2 1.2c-3.1 4.6-7.7 7.6-10.2 13-1.3 2.8-2 6-2.4 8.9-0.5 3.5 0.3 8 3.3 3.7 3.3-4.6 2.7-11.8 5.9-16.7 2.1-3.1 11.3-7.3 10.6-10.9z"/><path class="c" d="m820.9 118.4c-3.1-0.8-5.3 12.3-7.7 15.3-4.5 5.7-9.3 7.7-15.8 9.4l-1.3 0.4c-3.2 0.1-2.8 2.4 0 2.8 1.5 0.3 4.6-1.1 6-1.7 3.7-1.5 6.8-3.7 9.6-6.3 4.7-4.4 11.9-12.9 9.2-19.9z"/><path fill-rule="evenodd" class="a" d="m796.1 150.8v29.7h-15v-29.7z"/><path class="d" d="m783.1 154.5l0.2 24.8 6.3 1-1.2-22.4z"/><path fill-rule="evenodd" class="e" d="m142.7 184.7v558.9h-47.6v-558.9z"/><path fill-rule="evenodd" class="a" d="m142.2 330v16.9h-46.6v-16.9z"/><path fill-rule="evenodd" class="a" d="m142.2 539.4v16.8h-46.6v-16.8z"/><path fill-rule="evenodd" class="a" d="m142.2 715.7v16.9h-46.6v-16.9z"/><path fill-rule="evenodd" class="e" d="m809.1 184.7v558.9h-47.6v-558.9z"/><path fill-rule="evenodd" class="a" d="m808.6 331.4v16.8h-46.6v-16.8z"/><path fill-rule="evenodd" class="a" d="m808.6 708.6v16.9h-46.6v-16.9z"/><path fill-rule="evenodd" class="a" d="m808.6 543.8v16.8h-46.6v-16.8z"/><path class="f" d="m839.2 441.4c-32.7-0.7-65 0.5-97.6 1.5-75.7 2.2-150.8 5.1-226.9 3.6-55.4-1.2-110.1-2.7-165.7-1.1-50.7 1.4-102.5 6.3-153.8 2.7-42.4-2.9-87-3.8-129.2-2.7-16.4 0.5-45.8-4.2-47.8 15.6-2.8 27 19.1 16.7 31 30.1l2.4 2.4c-28.3-4.8-18.7 20.1-19 36.2-0.2 10.5-2.7 18.2 5.3 23.9 7 5.1 18.3 3 27 3.9 23.6 2.5 46.6 9.3 70.5 10.6 29.1 1.6 57.8-9.6 86.9-12.1 68.4-5.8 135.1 4 203.5 5.4 93.2 1.9 186.4-3.4 279.2-1.3 38.1 0.9 75.1-8.5 112.3-5.9 15.1 1 32.5 3.7 47.6 1 9-1.7 11.9-3.4 11.2-13.9-0.4-7.3-2.1-14.1-11.7-12.3-1-2.2-1.5-6.7-1.1-9.1 17-4.3 20.8-3.9 17.4-22.1-2.3-11.9 1.7-24.8-1.9-36.5-4.7 0.2-10 0-13.3-2.8 5.3-5.5 15.7-8.7 2.9-15.4-7.1-3.7-20.9-1.5-29.2-1.7z"/><path class="g" d="m851 517.3c-21.3-0.4-42.6-1.8-63.7-2.8-15.6-0.7-30.3-2.6-46-3.6-25.3-1.7-53.5-1.2-79.1-1.8-59-1.2-121-2-179.1-6.5-43.9-3.3-79.6-12.6-122.8-16-47.8-3.8-104.2-3.7-151-0.3-39.4 2.9-60 15.7-98.1 19.2-15 1.3-31.9 1.1-47.4 1.7-9.9 0.3-22 0.9-32.5-0.1-0.1 2.5 0.1 5.2 0.3 7.9 8.3 0.2 16.2 0.6 19.5 0.8 25.9 1.6 51.1 2.8 77.1 1.9 43-1.4 73.7-7.9 107.3-14.8 47-9.6 100.5-5.5 152.5-2.1 15.5 1 30.2 2.4 45 4.3 10.9 1.3 22.3 3.7 33.8 3.8 9.2 0.1 18.6-1 28.3-0.9 11.2 0.1 22 1.1 33 1.5 26.5 0.9 52.8 0.6 78.9 0.4 38.9-0.2 78.3 1.7 116 5.8 33 3.6 63.2 6 97.4 7.2 14.2 0.4 28.6 0.7 42.9 1.3-0.2-1.6-0.2-3.2 0-4.3 3.1-0.7 5.7-1.4 7.9-2-7-0.2-13.9-0.5-20.2-0.6z"/><path fill-rule="evenodd" class="g" d="m32.3 535.7q0.2-2.9 0.3-6c0.1-2.9-0.2-6-0.5-9.2 43.5 0.7 86.6 0.6 130.2-0.3 33.9-0.8 63.8-3.1 91.3-9.1 25.5-5.5 46.3-7.9 78.5-7.3 44.6 1 81.4 5.2 123.1 10.6 24.1 3.1 40.5 1.7 64.1 0.6 23.1-1.1 49 0.2 72.5 0.4 26.7 0.3 53.5 0.4 79.9 2.1 43.4 2.6 83.8 8.9 127.5 11.1 21.7 1.1 43.9 1.3 65.9 1.8 2 0 4.6 0.1 7.6 0.2 1.8 1.6 2.6 4.2 3.1 7.1-13-0.3-26.6-0.3-33.4-0.5-41.3-1-82.6-1.2-123.5-2.5-44.7-1.4-88.6 0.4-132.9 0-14.7-0.2-29.1-1.4-44.1-1.8-15.8-0.3-30.8 0.5-46.4 0.6-12.8 0.2-25.4 0-37.5 1.3-9 0.9-15.6 2.9-24.4 3.9-18.9 2.2-41.6 7.1-63.2 4.9-29.5-3-58.9-6.7-88.3-9.9-44.7-5-87 1.2-131.4 2-30.5 0.6-62 0.9-92.7 1.2-5.9 0-16.5-0.8-25.7-1.2zm343.1-13.5l-3.7 1.4c-2.3 8.8 60.1 9.6 63.1 2.9 1.6-3.6-19.3-6-27.7-6.9-13.2-1.3-22.3-0.3-31.7 2.6zm-25.9 11c14.5 1.4 44.4 5.1 58.5 2.4l-2.4-0.8c-23.5-0.6-77.9-3.3-92.2-10.9-21.3-11.2 63-5.9 76.5-7.3 1.4-3.1-10.2-2.5-16.8-2.6-19.1-0.4-42.3-2.1-60.9-1.3-19 0.8-30.5 8.6-13.7 12.9 14 3.6 34.5 6 51 7.6z"/><path class="g" d="m761.2 542.2c-79.5-0.6-159.3-0.5-238.7-1.9-27.8-0.5-55-0.9-81 2.3-30.1 3.7-43.6 8.1-78.9 5.7-34.1-2.3-66.1-9.6-100.6-10.3-34.4-0.8-70.3 0.7-104 2-43.6 1.7-83.2 1.9-125.9 0.3-0.1 5.4 0.8 9.7 5.8 13.3 7 5.1 18.2 3 27 3.9 23.6 2.5 46.6 9.3 70.5 10.6 29.1 1.6 57.8-9.6 86.9-12.1 68.4-5.8 135.1 4 203.4 5.4 93.3 1.9 186.5-3.4 279.3-1.3 38.1 0.9 75.1-8.5 112.3-5.9 15.1 1 32.5 3.7 47.6 1 8.2-1.5 11.3-3 11.3-11.1-37.4 0.5-77.6-1.6-115-1.9z"/><path class="g" d="m871.6 464.3c-35.9-1.1-70.9-0.4-106.1 1.4-64.1 3.2-124.6 9.2-190.1 10.3-41.9 0.7-83.9-0.3-125.8-2.1-91.9-4-177.8-17.3-267-7.1-53.2 6.1-108.3 4.6-164.2 3.5 2.9 15.3 20.6 9.2 30.8 20.8l2.4 2.4c-12.5-2.1-17.6 1.6-19.4 7.8 1.6 0.2 3.2 0.3 4.6 0.4 11.6 0.8 23.2 1.4 35.4 1.4 29.3 0.1 42.3-6.3 62.7-11.9 56.9-15.7 139.6-16.7 213.3-12.5 34.6 2 66.2 5.9 98.3 10.8 32.4 5 68.4 11.7 104 12.7 21.5 0.6 41.9-1.6 63.3-1.4 26.4 0.3 53.2 0.9 79.3 2.1 39.2 1.7 77.3 4.3 116.4 6.2 20.2 0.9 40.8 1.5 61.1 2.4 2 0.1 5.8 0.3 10.4 0.5 1.2-2.9 1-7.1-0.3-14.2-2.1-10.7 1-22.2-1-33-3.5-0.2-6.4-0.4-8.1-0.5z"/><path class="g" d="m839.2 441.4c-32.7-0.7-65 0.5-97.6 1.5-75.7 2.2-150.8 5.1-226.9 3.6-55.4-1.2-110.1-2.7-165.7-1.1-50.7 1.4-102.5 6.3-153.8 2.7-42.4-2.9-87-3.8-129.2-2.7-16.4 0.5-45.8-4.2-47.8 15.6q-0.4 3.6-0.2 6.4c6.5 0.1 13.2 0.5 16.7 0.5 19.9 0.2 39.5-0.5 58.9-1.1 29.9-0.9 53.3-2.6 82.1-5.6 22.9-2.3 44.9-4.5 69.3-4 22.6 0.4 47.5 1.8 70.4 3 28.1 1.4 55 3.1 82.8 4.8 12.5 0.8 24.2 2.6 36.8 3.1 15.2 0.6 30.1 0 45.4 0.6 37.6 1.5 74.9 3.9 112.1 1.8 35.7-2.1 69.1-7.8 104.8-9 35.7-1.2 72.9-0.7 108.4-1.7 18.5-0.5 36.6-2.3 55.4-1.9 1.4 0.1 3 0.1 4.8 0.2 5.5-5.3 15-8.5 2.5-15-7.1-3.7-20.9-1.5-29.2-1.7z"/><path class="h" d="m880.7 497.8c-2.3-11.9 1.7-24.8-1.9-36.5-4.7 0.2-10 0-13.3-2.8 5.3-5.5 15.7-8.7 2.9-15.4-4.3-2.2 6.5 5.6-1.4 10.6-6.2 3.8-13.7 3.4-13.8 3.8-1.8 7.8 14.9 1.4 20.5 6.3 4.6 4.1-0.3 5.7 1.2 12.2 1.1 4.5 0.5 7.9 1.1 12.4 1.5 10.1 2.2 21-2.7 22.8-7.5 2.8-14.9 4.4-13.5 13.3-0.2 3.8 3.7 6.6 8.9 6.6 2.8 0 1.4 9.2 1.1 14.5-7.8 1.6-14.4 0.6-21.8 0.2-42.5-2.1-84.7 6.9-125.6 4.8-26.1-1.3-52-1.1-78.2 0-27.1 1.2-54.2 8.9-81.5 7.4-41.6-2.3-82.1-4.9-123.1-11.1-54.6-8.1-112.8-3.1-167.9-6-46.5-2.5-91.2 4.2-135.6 11-20.3 3.1-39.3-4-58.5-7.4-15.4-2.7-29.9-4.9-45.5-5.7-0.2 6 0.4 10.9 5.8 14.8 7 5.1 18.3 3 27 3.9 23.6 2.5 46.6 9.3 70.5 10.6 29.1 1.6 57.8-9.6 86.9-12.1 68.4-5.8 135.1 4 203.5 5.4 93.2 1.9 186.4-3.4 279.2-1.3 38.1 0.9 75.1-8.5 112.3-5.9 15.1 1 32.5 3.7 47.6 1 9-1.7 11.9-3.4 11.2-13.9-0.4-7.3-2.1-14.1-11.7-12.3-1-2.2-1.5-6.7-1.1-9.1 17-4.3 20.8-3.9 17.4-22.1z"/><path class="f" d="m834.7 171.2c-47.7 1.4-95.9 5.9-144.3 5.4-53.5-0.5-107.8 9.6-161.9 2.9-46.7-5.8-94.5-15.7-142.7-14.2-13.2 0.5-26.3 1.6-38.8 5.4-10.2 3.2-17.2 10.4-28.3 9.4-8.6-0.8-16.5-6.8-25.4-8-10-1.4-20.4 0.2-30.5-0.6-40.3-3.1-79.6 3.3-119.5 2.5-18.9-0.4-37.5 0.5-56.1 0.1-13.7-0.4-43.6-5.1-56.1 0-16.6 6.9-6.9 31.2-7 44.6-0.1 6.7-3.6 22.8-0.6 28.6 3.9 7.9 14.6 2.5 20.5 6.7-7.8 3.6-16 4.8-24.2 7-2.2 5.1-8.9 21.5-5.4 26.8 3.9 6 21.7 3.1 27.7 2.3 25.7-3.3 54.3 0.9 81.4 2.7 74.7 4.9 151.4 1.4 226.6 5.9 32.4 2 65.2-1.1 97.9-0.4 40.9 0.8 80.5-7.2 121.2-8.4 43.5-1.3 86.4-2.9 130.2-2.6 27.9 0.3 56.6 2.6 85.3 1.8 22.6-0.7 45.9-1.3 68.3 1.3 7.2 0.9 21.3 6.6 27.7 1.6 6-4.7 5.5-19.9 5.7-26.9 0.2-7.7 0.9-23.6-4.2-28.4-2.8-2.6-11.9 2.6-12.3-4.2-0.4-6.8 10.3-2.3 12.5-4.7 3.9-4.2 1-19.2-3.5-23.4-5.5-5.1-21.9-4.1-28.9-4.6-5.2-0.4-10 0.5-14.4-1.9 9.7-12 47.2-1.5 48.9-16.1 2.1-18-38.8-10.9-49.8-10.6z"/><path class="g" d="m869 283.2c-28-1.4-53.6-7.4-81.5-8.7-38.6-1.9-76.8-3.6-115.5-3.6-41.1 0.1-82.6-1.1-123.5 0.5-36.8 1.5-71.9 6-108.7 8.1-37.7 2.1-79.2 2-117-1.1-45.3-3.8-90.1-19.3-136.4-12.1-18.8 2.9-35.5 7.8-55 10-17.9 2-36.3 3.3-54.7 4-14.2 0.6-28.9-0.2-42.9 0.3-6 0.1-13.5 0.8-20.3 0.9-0.3 2.6-0.1 4.9 0.9 6.3 3.9 6 21.7 3.1 27.7 2.3 25.7-3.3 54.3 0.9 81.4 2.7 74.7 4.9 151.4 1.4 226.6 5.9 32.4 2 65.2-1.1 97.9-0.4 40.9 0.8 80.5-7.2 121.2-8.4 43.5-1.3 86.4-2.9 130.2-2.6 27.9 0.3 56.6 2.6 85.3 1.8 22.6-0.7 45.9-1.3 68.3 1.3 7.2 0.9 21.3 6.6 27.7 1.6 2-1.6 3.4-4.4 4.2-7.7-5.7 0-12.4-0.9-15.9-1.1z"/><path class="g" d="m851.6 237.1c-14.2 0.4-31.2-1-44.7 0.8 17.6 2.3 36.5 3.6 54.4 5.3 7.1 0.6 16.1 1.5 24.6 2.9-0.5-3.5-1.4-6.5-2.9-8.5-10.8-0.2-21.8-0.8-31.4-0.5z"/><path class="g" d="m125.6 205.1c36.8 4.3 78.7 9.8 116.8 10.6 20.7 0.4 37.4 0.2 56.1-1.8 10.6-1.1 43.6-3.3 47.6-8.3-6.3-0.3-12.1 0-18.1 0.2-45.4 1.2-91.2 0.9-134-8.2-18.3-4-35.3-9.9-53.3-14.7-7.7-1.9-24.1-4.9-34.4-8.8-6.4 0.1-12.7 0.1-19.1 0-13.7-0.4-43.6-5.1-56.1 0-9.8 4.1-10.4 14.2-9.4 24.5 27.5-4.3 86.7 4.5 103.9 6.5z"/><path class="g" d="m837.7 203.4c-25.9-1.1-53.4-3.9-79.5-2.9-39.1 1.6-77.7 3.9-116.9 5.9-74 3.7-153.5 0.8-221.4 18.2-29.3 7.6-41.6 23.9-73.7 30.1-34.7 6.6-70.1-2.2-104.5-6.3-40.3-4.8-81.4-9.4-122.6-11.2-21.4-1-43.2-0.3-64.8-0.8-8.3-0.1-22-0.9-31.9-0.4-0.3 4.6-0.2 8.8 1.1 11.3 3.9 7.9 14.6 2.5 20.5 6.7-7.8 3.6-16 4.8-24.2 7-1.2 2.7-3.6 8.5-5.1 14.2 3 0.2 5.9 0.4 8.2 0.5 15.7 0.3 30-0.4 45.1-0.9 41.4-1.3 79.1-5.3 117.4-13.8 40.9-9 83 10.1 124.1 11.2 44.6 1.2 90.3 3.9 134.2 1.8 23.9-1.2 47.7-3.5 71.7-5.3 30.9-2.2 62.6-1.6 93.3-4.2 31.8-2.7 65.3-0.1 97.3-1.8 34-1.8 64.9 3.9 98.3 7.6 21.8 2.4 44.1 2.8 66.1 4.9 3.3 0.3 10.1 0.7 15.6 1.6 0.3-3.4 0.3-6.7 0.4-9.4-7.5-0.7-15.8-1-21.6-1.9-12.7-1.7-25.1-4.6-38-5.5-25.9-1.6-51.5-1.2-77.1-3.3-57.3-4.7-113.2 2.4-171.3 0-29.6-1.2-56.9-7.8-85.4-10.5-7.6-0.7-21.2 0.1-26.5-3.1-7.5-4.6 2.5-8.5 10.9-10.1 10.1-1.9 23.5-1.4 34.5-1.9 18.5-0.7 37.1-2.1 55.8-2.9 49.2-2.3 97.5-8.2 146.9-9.8 38.2-1.2 75-0.5 113 0.6 18.8 0.6 37.7-0.7 56.4-1.4-0.6-5.3-2.6-10.9-5.1-13.2q-0.4-0.3-0.8-0.6c-13.8 1-32.1 0-40.4-0.4z"/><path class="g" d="m817.8 223.5c-32.6 0.7-65 0.6-97.4 3.1-25.4 2-50.7 1.3-75.9 2.7-40.9 2.2-81.9 3.9-122.1 7-11.5 0.9-24.4 0.1-35.2 1.6 3.7 6.1 39.7 8.3 50.9 9.7 20.1 2.6 39.5 6.1 60.8 6.6 43.3 0.8 83.8-4.8 128.1-3.8 36.1 0.7 72.2 2.2 107.2 5.7 17.1 1.7 33.4 4.3 51.1 5.6q0.6 0.1 1.2 0.1c0.1-2.7 0.1-6 0-9.2-20.8-2.9-39.5-6.7-61.8-7.8-25-1.3-50.3-3.9-75.6-4.5-44.2-1.2-83.8 5.4-126.9 6.6-15.6 0.4-39.9 1.8-54.7-1.1 0.5-4.2 44.1-5 53.6-6 20.3-2.1 40.6-6.3 61.1-6.8 52.8-1.3 106.3 2 158.6-0.8 9.9-0.5 19.4-0.8 29.2-0.9 0.9-5.1 10.3-1.3 12.4-3.5 1-1.1 1.6-3 1.8-5.3-22.9-0.4-44 0.5-66.4 1z"/><path class="g" d="m834.7 171.2c-47.7 1.4-95.9 5.9-144.3 5.4-53.5-0.5-107.8 9.6-161.9 2.9-46.7-5.8-94.5-15.7-142.7-14.2-13.2 0.5-26.3 1.6-38.8 5.4-10.2 3.2-17.2 10.4-28.3 9.4-8.6-0.8-16.5-6.8-25.4-8-10-1.4-20.4 0.2-30.5-0.6-40.3-3.1-79.6 3.3-119.5 2.5-5.4-0.1-10.7-0.1-16-0.1 8.6 2.5 16.9 5.4 24.6 7.7 18.9 5.4 35.4 8.4 55.9 11.8 51.3 8.6 105.3 4.5 158.1 7.8 7.4 0.5 25.1 1.6 16.9 6.3-3.1 1.7-23.7 2.7-29.3 3.3-27.7 2.9-52.2 9.5-81.9 10.2-48.3 1.2-92.1-4.5-138.9-9.5-25.7-2.7-51.6-5.7-78-5.6-10.6 0.1-21.1 1.2-31.8 1.6 0.7 4.1 1.2 8 1.2 11.2 0 2.2-0.4 5.4-0.8 8.9 31.5-3.1 90 0.7 100.5 1.9 41.1 4.9 81.8 9 122.9 13.9 19.5 2.3 39.9 5.5 59.6 6.5 23 1.1 34.8-1.8 51.1-9.1 29-12.9 51.6-28.9 92.5-32.7 19.9-1.8 40.4-2.1 61-2.7 22.4-0.6 43.8-3.3 65.9-4.5 41.9-2.2 84.8-0.4 126.6-3.3 43-2.9 87.5 1.1 130.8-1.9q2.2-0.1 4.2-0.3c12.7-8 44.6-0.2 46.1-13.6 2.1-18-38.8-10.9-49.8-10.6z"/><g style="opacity:.5"><path class="a" d="m881.9 236.7c-2.8-2.6-11.8 2.6-12.2-4.2-0.5-6.8 10.2-2.3 12.4-4.7 4-4.2 1.1-19.2-3.5-23.4-0.8-0.8-1.9-1.4-3.1-1.9 2.3 4.2 0.4 13.6 2.2 18.2-19.3-6.7-18.4 23.6 0 21.1 0.5 9 2 17.6 1.4 26.6-1 13.5-3.7 11.1-15.6 12.5-17.5 2-33.7 5-52.7 3.4-102.2-8.4-216.8-26.2-317 2.7-40.2 11.6-90.2 1-131.9 1-25.3 0-51.4-3.5-76.5 0-21 2.9-37.7-1.4-58.5-2.5-45.1-2.3-89.5-4.1-134.1-8.5-22.4-2.2-44.2 1.1-65.9 0-3.9-0.2-8.5 0.2-13.2 1.3-0.8 4-0.9 7.5 0.4 9.5 4 6 21.8 3.1 27.8 2.3 25.7-3.3 54.3 0.9 81.3 2.7 74.7 4.9 151.5 1.4 226.7 5.9 32.4 2 65.1-1.1 97.8-0.4 40.9 0.8 80.5-7.2 121.2-8.4 43.6-1.3 86.5-2.9 130.3-2.6 27.9 0.3 56.6 2.6 85.3 1.8 22.5-0.7 45.9-1.3 68.2 1.3 7.3 0.9 21.3 6.6 27.7 1.6 6.1-4.7 5.6-19.9 5.8-26.9 0.2-7.7 0.9-23.6-4.3-28.4z"/><path class="a" d="m823.2 197.5c4.3 0.2 8.5 0.2 12.4 0.1 10.3-11.5 47-1.4 48.7-15.8 0.7-6.1-3.6-9.3-9.9-10.9-0.3 2.1-0.6 4.2-1.4 6.1-5.7 12.9-36.1 10.8-49.8 16-0.1 1.6-0.1 2.9 0 4.5z"/></g><path class="f" d="m8.2 338.4c7.2 19.4 21 23.6 40.6 27.4-5.3-0.1-26.1-3.3-29.9 0-4.6 4.2-1.8 23.5-1.6 29 0.4 9.9-3.3 34.8 4.6 41.6 7.2 6.1 156 2.3 218.5 2.7 75.6 0.5 150.7 1 226.4 1.6l15.8 1.3c10.7 3.6 36.8-6.8 50-8.3 14.7-1.6 30.8-2.6 45.5-1.8 30 1.8 59.3 7.5 89.9 7.7 62 0.5 205.8-2.6 213.3-5.9 9.1-3.9 6.9-11.4 7.5-21.8 0.6-10.1 3.5-18.2 1.5-28.1-1.7-8.1-4.5-15.9-6.2-24.2-5.5 0.2-11.5-0.2-16.7-1.8 8-9.7 25.2 1 30.4-10.5 6.4-13.9-6-23.2-17.9-22.3 2.8-30-33.8-22-55.8-22.2-54.9-0.3-277 1.6-334.4 6.3-40 3.2-80.6-7-120.7-3.3-41.2 3.8-240.9-16.7-313.3-3.4-12.6 2.3-51.6-7.2-54.9 2.1-2.9 8.1 4.6 26.3 7.4 33.9z"/><path class="g" d="m796.6 426.1c-54.4 1.2-111.6 1-165.6-2.4-72.7-4.7-144.7-11.6-218.5-12.2-41.8-0.3-79 9.6-119.6 13-32.5 2.7-56.8-3.1-87.7-5.4-41.4-3-81.2 4.5-122 5.5-19.6 0.5-45.7 1.5-66.1-1.1 0.6 5.6 1.9 10.4 4.8 12.9 7.2 6.1 156 2.3 218.5 2.7 75.6 0.5 150.7 1 226.4 1.6l15.8 1.3c10.7 3.6 36.9-6.8 50-8.3 14.7-1.6 30.8-2.6 45.5-1.8 30 1.8 59.3 7.5 89.9 7.7 62 0.5 205.8-2.6 213.3-5.9 5.8-2.5 7-6.4 7.3-11.6-26 3.2-84 3.8-92 4z"/><path class="g" d="m46.3 375.9c11.8 0.1 23.2 0.1 34.6-1.5 8.7-1.2 8.3-2.5 16.8-4.1 8-1.4 146.6 3.2 153.3 1.6-2.7 0-120.2-9.5-122.9-9.5-9.2-0.1-26-0.3-35.2-1.3-10.8-1.2-19.7-3-30.3-5.1-10.6-2.1-21-3.6-31.4-6.2-4.4-1.1-12.4-1-18.5-2.4 7.8 11.9 20 15.2 36.1 18.4-5.3-0.1-26.1-3.3-29.9 0-1.5 1.4-2.2 4.5-2.5 8.2 9.8 0 20 1.9 29.9 1.9z"/><path class="g" d="m23.1 342.8c10.1 1.5 20.3 2.6 30.5 4.8 19.2 4.3 37.2 8.6 56.8 9.9 15.1 1 30.3-0.2 45.4 1.3 15.4 1.5 30.7 2.1 46.1 3.5 8.1 0.8 16.1 3.5 24.3 4.1 8 0.5 16.2 0 24.3 0.8 12.1 1.1 24.1 1.5 36.3 2.4-2 4.2-15 5.1-19.5 5.7-11.7 1.6-23.5 0.9-35.2 0.2-20.6-1.3-39.7 2.5-60.2 0.8-17.6-1.5-42.2-3.5-59.6-1.5-10.8 1.2-18.8 1.3-29.2 4.7-9 2.9-17.8 3.5-27.2 4.6-13.4 1.6-26.3-1.3-39.5-2.2 0.2 5.1 0.8 10.1 0.9 12.6 9.1 0 19.6 2.6 24.6 3.6 13.6 2.6 25.5 6 39.3 4.6 14.7-1.3 28.8-2.8 42.9-5.1 13.5-2.2 25.8-9.8 40.7-8.9 19.9 1.1 40.3-2.7 60.1-0.6 21.7 2.2 39.3 1.6 60.9 0.7 41.2-1.8 99.7-7 138.1-18.4-13.7-1.3-48.2-5.2-61.2-10.2-13.4-5.1-21.8-11.8-36.3-12.6-27-1.6-54.5 1.2-82.2 1-41.7-0.3-83.9-1.3-125.1-3.7-20.6-1.2-41-1.1-60.8-5-14.6-2.9-37.5-3.1-52.8-8.8 1 2.9 2 5.4 2.7 7.3q0.6 1.7 1.3 3.2c4.4-0.6 10.2 0.7 13.6 1.2z"/><path class="g" d="m489.7 309.1c-40 3.2-80.6-7-120.7-3.3-10.6 1-31.7 0.3-58.5-0.9 13.3 3.9 27.2 5.8 41.7 6.9 33.7 2.4 68.9 3.3 102.4 8.3 39.5 5.9 74.1 18.4 114.4 17.2 40.1-1.3 81.2-0.8 120.7-3.8 20.8-1.6 41.1-3.4 62.2-3.2 20.6 0.1 39.6-3.7 59.8-4.3 20.5-0.6 40.4-1.5 59.8-2.3 2.5-0.1 5.4-0.3 8.5-0.5 1.2-27.9-34.3-20.2-55.9-20.4-54.9-0.3-277 1.6-334.4 6.3z"/><path class="g" d="m847 329.1c-41.5 0.7-84.1 6.5-125.3 10.2-81.2 7.1-168.4 12.9-247.7-5.7-43-10-85.5-11.3-129.4-17-19.2-2.6-37-7.5-54.6-12.7-72.4-3.7-172.1-9.7-224.7-3 12.9 7.8 24.4 14.9 28.4 15.6 16.3 2.9 34.4 3.8 51.2 5 38 2.9 77.7 3 115.8 3.2 20 0.2 36.9 0.6 55.8 3.8 17.3 3 36.8 4.9 55 6.7 18.8 1.9 38.1 3.2 55.8 7 15.9 3.4 30.4 10.3 45.5 15.2 16.4 5.4 34.7 9.7 52.1 12.8 17.4 3 35.5 0.6 52.7 1.1q-0.6-0.2-0.4-0.6c15.3 0.7 32.3-1.5 47.7-2.3 15.8-0.8 32.6-0.5 48.8-1.3 41.4-2 81.1 0.6 121.9 2.5 19.9 0.9 40.4 1.2 60.9 2 10 0.4 19.1 2.6 29.2 2.6q1.1 0 2.2 0c-1.4-4.8-2.8-9.6-3.8-14.6-5.5 0.2-11.5-0.2-16.7-1.8 8-9.7 25.2 1 30.4-10.5 3-6.6 1.8-12.2-1.6-16.1-18.6 0-39.5-2.3-49.2-2.1z"/><path class="g" d="m865 376.5c-20.8-0.1-40.9-2.1-61.2-2.8-64.1-2.4-125.1-1.6-188.7 0.9-32.8 1.3-66.1 3-98.5-1.3-27.4-3.6-45.2-15-70.9-20.9-37.5-8.5-78.3-11.3-116.8-16.7-43.6-6-86.8-4.8-131.7-5-25 0-55.5-2.2-80.4-5.4-9.4-1.2-39-11.6-64.6-22.6-15.1 0.6-48.3-6.8-51.4 1.8-1.6 4.6 0.1 12.6 2.4 19.9 15.2-5.9 59.4 4.3 70.9 5.5 32.8 3.7 65.8 7.4 98.7 10.4 53 5 106.3-3.3 159.7 2.4 21 2.2 38 16.2 59.6 18.7 10.5 1.2 50.3 2.9 52.2 14.9-26.2 5-52.8 3.7-79.3 11.8-32.1 9.8-60.5 8-94.1 7.9-44.1-0.2-88.7-8-130.2 3-22.3 6-45.3 9.3-68.6 6.6-17-2-38.6-4-55-1.2-0.2 3.8-0.4 7.9-0.3 12.1 9.6 0.3 21.3 1.9 25 2.1 15.9 0.9 32.7 0.5 48.8 0.5 33.2 0 62.4-6.8 95.1-5.6 38.6 1.3 79.4 8.1 117 3 38.6-5.2 76.9-16.1 117.2-14.7 40.1 1.5 80.8 2.1 120.6 5.7 39.6 3.7 78.4 10.1 119.4 11.3 40.9 1.3 81 2 121.9 2.3 21.3 0.1 40.4-1.4 61-2.4 13.5-0.7 30.9-2.3 45.9-1.6 0-1.6 0-3.4 0.1-5.2 0.6-10.1 3.5-18.2 1.5-28.1q-0.7-3.3-1.6-6.4c-8.6-0.2-17.4-0.8-23.7-0.9z"/><g style="opacity:.5"><path class="a" d="m867.5 310.8c1.9 4.4 3.5 8.3 4.2 12.9 1.4 8.5-1.6 5.7 6.5 9.1 6.5 2.8 20.5 10.5 6.5 14.5-3.5 1-30.4-0.9-25.9 9.6 1.3 2.9 7.8 2.7 14.3 2.2-2-0.3-3.9-0.7-5.7-1.3 8-9.7 25.2 1 30.4-10.5 6.4-13.9-6-23.1-17.9-22.3 1.8-19.4-12.9-22.9-29.5-23 4.2 4 11.7 1.1 17.1 8.8z"/><path class="a" d="m888.8 411.9c0.6-10 3.5-18.2 1.5-28.1-1.5-7.3-4.5-16.7-6.2-24.2-1.4 0.3-9.1 1.8-8.4 12.1 0.4 4.9 5.6 10.8 6.6 15.4 1.2 5.8-0.8 13.9-1.7 19.6-2.4 15.1-9.1 17.8-22.8 21.1-17.2 4.1-35.7 1.8-53.6 0-16.2-1.7-33.1-0.8-49.6-0.8-33.5 0-68.1 5.4-102.4 2.5-14.3-1.2-28.1-6.6-42.2-8.8-18.7-3-39.3-4.4-58.5-3.3-15.1 0.9-27 6.2-40.7 12-13.6 5.8-24.5 3.8-38.2 0.2-40.1-10.6-86.9-2.6-128.4-2.6-28.2 0-56.3 2.2-84.5 3.4-33 1.5-66.2-2.2-99.2-3.6-30.8-1.2-61.9-0.6-92.9-0.6-11.9 0-23.7 1.4-35.7 0.8-3.3-0.1-9.7 0.7-14.3 0 0.7 4.1 2 7.5 4.3 9.4 7.2 6.2 156 2.3 218.5 2.7 75.6 0.6 150.7 1.1 226.4 1.6l15.8 1.3c10.7 3.7 36.8-6.8 50-8.2 14.7-1.7 30.8-2.7 45.5-1.8 30 1.7 59.3 7.4 89.9 7.7 62 0.4 205.8-2.7 213.3-5.9 9.1-4 6.9-11.4 7.5-21.9z"/></g><path class="h" d="m134.3 233c0.7 7.5-4.3 14.2-11.3 14.8-6.9 0.7-13.1-4.9-13.8-12.4-0.7-7.6 4.3-14.2 11.3-14.8 6.9-0.7 13.1 4.9 13.8 12.4z"/><path fill-rule="evenodd" class="a" d="m119.7 242.2c-6.6 0-11.9-5.3-11.9-11.9 0-6.6 5.3-12 11.9-12 6.6 0 11.9 5.4 11.9 12 0 6.6-5.3 11.9-11.9 11.9z"/><path fill-rule="evenodd" class="d" d="m118 235.4c-4 0-7.2-3.2-7.2-7.2 0-3.9 3.2-7.2 7.2-7.2 3.9 0 7.1 3.3 7.1 7.2 0 4-3.2 7.2-7.1 7.2z"/><path fill-rule="evenodd" class="c" d="m116.7 230.5c-1.8 0-3.2-1.4-3.2-3.2 0-1.8 1.4-3.3 3.2-3.3 1.8 0 3.3 1.5 3.3 3.3 0 1.8-1.5 3.2-3.3 3.2z"/><path class="h" d="m133.8 362.1c0.7 7.5-4.4 14.1-11.3 14.8-6.9 0.6-13.1-4.9-13.8-12.5-0.7-7.5 4.3-14.1 11.2-14.8 7-0.6 13.1 4.9 13.9 12.5z"/><path fill-rule="evenodd" class="a" d="m119.2 371.2c-6.6 0-11.9-5.3-11.9-11.9 0-6.6 5.3-11.9 11.9-11.9 6.6 0 11.9 5.3 11.9 11.9 0 6.6-5.3 11.9-11.9 11.9z"/><path fill-rule="evenodd" class="d" d="m117.4 364.5c-4 0-7.2-3.2-7.2-7.2 0-4 3.2-7.2 7.2-7.2 4 0 7.2 3.2 7.2 7.2 0 4-3.2 7.2-7.2 7.2z"/><path fill-rule="evenodd" class="c" d="m116.2 359.6c-1.8 0-3.3-1.5-3.3-3.3 0-1.8 1.5-3.2 3.3-3.2 1.8 0 3.3 1.4 3.3 3.2 0 1.8-1.5 3.3-3.3 3.3z"/><path class="h" d="m131.6 502.5c0.7 7.5-4.3 14.2-11.3 14.8-6.9 0.7-13.1-4.9-13.8-12.4-0.7-7.6 4.3-14.2 11.3-14.8 6.9-0.7 13.1 4.9 13.8 12.4z"/><path fill-rule="evenodd" class="a" d="m117 511.7c-6.6 0-11.9-5.4-11.9-11.9 0-6.6 5.3-12 11.9-12 6.6 0 11.9 5.4 11.9 12 0 6.5-5.3 11.9-11.9 11.9z"/><path fill-rule="evenodd" class="d" d="m115.3 504.9c-4 0-7.2-3.2-7.2-7.2 0-4 3.2-7.2 7.2-7.2 3.9 0 7.1 3.2 7.1 7.2 0 4-3.2 7.2-7.1 7.2z"/><path fill-rule="evenodd" class="c" d="m114 500c-1.8 0-3.2-1.4-3.2-3.2 0-1.8 1.4-3.3 3.2-3.3 1.8 0 3.3 1.5 3.3 3.3 0 1.8-1.5 3.2-3.3 3.2z"/><path class="h" d="m802.8 238.3c0.7 7.5-4.3 14.2-11.3 14.8-6.9 0.7-13.1-4.9-13.8-12.4-0.7-7.6 4.3-14.2 11.3-14.9 6.9-0.6 13.1 5 13.8 12.5z"/><path fill-rule="evenodd" class="a" d="m788.2 247.5c-6.6 0-11.9-5.4-11.9-12 0-6.6 5.3-11.9 11.9-11.9 6.6 0 11.9 5.3 11.9 11.9 0 6.6-5.3 12-11.9 12z"/><path fill-rule="evenodd" class="d" d="m786.5 240.7c-4 0-7.2-3.2-7.2-7.2 0-4 3.2-7.2 7.2-7.2 3.9 0 7.1 3.2 7.1 7.2 0 4-3.2 7.2-7.1 7.2z"/><path fill-rule="evenodd" class="c" d="m785.2 235.8c-1.8 0-3.2-1.4-3.2-3.2 0-1.8 1.4-3.3 3.2-3.3 1.8 0 3.3 1.5 3.3 3.3 0 1.8-1.5 3.2-3.3 3.2z"/><path class="h" d="m802.2 367.3c0.8 7.6-4.3 14.2-11.2 14.9-6.9 0.6-13.1-5-13.8-12.5-0.7-7.5 4.3-14.2 11.2-14.8 7-0.7 13.1 4.9 13.8 12.4z"/><path fill-rule="evenodd" class="a" d="m787.7 376.5c-6.6 0-11.9-5.3-11.9-11.9 0-6.6 5.3-11.9 11.9-11.9 6.6 0 11.9 5.3 11.9 11.9 0 6.6-5.3 11.9-11.9 11.9z"/><path fill-rule="evenodd" class="d" d="m785.9 369.7c-4 0-7.2-3.2-7.2-7.1 0-4 3.2-7.2 7.2-7.2 4 0 7.2 3.2 7.2 7.2 0 3.9-3.2 7.1-7.2 7.1z"/><path fill-rule="evenodd" class="c" d="m784.7 364.9c-1.8 0-3.3-1.5-3.3-3.3 0-1.8 1.5-3.2 3.3-3.2 1.8 0 3.2 1.4 3.2 3.2 0 1.8-1.4 3.3-3.2 3.3z"/><path class="f" d="m8.2 611.4c7.2 19.4 21 23.6 40.6 27.4-5.3-0.1-26.1-3.3-29.9 0-4.6 4.2-1.8 23.5-1.6 29 0.4 9.9-3.3 34.8 4.6 41.6 7.2 6.1 156 2.3 218.5 2.7 75.6 0.5 150.7 1 226.4 1.6l15.8 1.3c10.7 3.6 36.8-6.8 50-8.3 14.7-1.6 30.8-2.6 45.5-1.8 30 1.8 59.3 7.5 89.9 7.7 62 0.5 205.8-2.6 213.3-5.9 9.1-3.9 6.9-11.4 7.5-21.8 0.6-10.1 3.5-18.2 1.5-28.1-1.7-8.1-4.5-15.9-6.2-24.2-5.5 0.2-11.5-0.2-16.7-1.8 8-9.7 25.2 1 30.4-10.5 6.4-13.9-6-23.2-17.9-22.3 2.8-30-33.8-22-55.8-22.2-54.9-0.3-277 1.6-334.4 6.3-40 3.2-80.6-7-120.7-3.3-41.2 3.8-240.9-16.7-313.3-3.4-12.6 2.3-51.6-7.2-54.9 2.1-2.9 8.1 4.6 26.3 7.4 33.9z"/><path class="g" d="m796.6 699.1c-54.4 1.2-111.6 1-165.6-2.4-72.7-4.7-144.7-11.6-218.5-12.2-41.8-0.3-79 9.6-119.6 13-32.5 2.7-56.8-3.1-87.7-5.4-41.4-3-81.2 4.5-122 5.5-19.6 0.5-45.7 1.5-66.1-1.1 0.6 5.6 1.9 10.4 4.8 12.9 7.2 6.1 156 2.3 218.5 2.7 75.6 0.5 150.7 1 226.4 1.6l15.8 1.3c10.7 3.6 36.9-6.8 50-8.3 14.7-1.6 30.8-2.6 45.5-1.8 30 1.8 59.3 7.5 89.9 7.7 62 0.5 205.8-2.6 213.3-5.9 5.8-2.5 7-6.4 7.3-11.6-26 3.2-84 3.8-92 4z"/><path class="g" d="m46.3 648.9c11.8 0.1 23.2 0.1 34.6-1.5 8.7-1.2 8.3-2.5 16.8-4.1 8-1.4 146.6 3.2 153.3 1.6-2.7 0-120.2-9.5-122.9-9.5-9.2-0.1-26-0.3-35.2-1.3-10.8-1.2-19.7-3-30.3-5.1-10.6-2.1-21-3.6-31.4-6.2-4.4-1.1-12.4-1-18.5-2.4 7.8 11.9 20 15.2 36.1 18.4-5.3-0.1-26.1-3.3-29.9 0-1.5 1.4-2.2 4.5-2.5 8.2 9.8 0 20 1.9 29.9 1.9z"/><path class="g" d="m23.1 615.8c10.1 1.5 20.3 2.6 30.5 4.8 19.2 4.3 37.2 8.6 56.8 9.9 15.1 1 30.3-0.2 45.4 1.3 15.4 1.5 30.7 2.1 46.1 3.5 8.1 0.8 16.1 3.5 24.3 4.1 8 0.5 16.2 0 24.3 0.8 12.1 1.1 24.1 1.5 36.3 2.4-2 4.2-15 5.1-19.5 5.7-11.7 1.6-23.5 0.9-35.2 0.2-20.6-1.3-39.7 2.5-60.2 0.8-17.6-1.5-42.2-3.5-59.6-1.5-10.8 1.2-18.8 1.3-29.2 4.7-9 2.9-17.8 3.5-27.2 4.6-13.4 1.6-26.3-1.3-39.5-2.2 0.2 5.1 0.8 10.1 0.9 12.6 9.1 0 19.6 2.6 24.6 3.6 13.6 2.6 25.5 6 39.3 4.6 14.7-1.3 28.8-2.8 42.9-5.1 13.5-2.2 25.8-9.8 40.7-8.9 19.9 1.1 40.3-2.7 60.1-0.6 21.7 2.2 39.3 1.6 60.9 0.7 41.2-1.8 99.7-7 138.1-18.4-13.7-1.3-48.2-5.2-61.2-10.2-13.4-5.1-21.8-11.8-36.3-12.6-27-1.6-54.5 1.2-82.2 1-41.7-0.3-83.9-1.3-125.1-3.7-20.6-1.2-41-1.1-60.8-5-14.6-2.9-37.5-3.1-52.8-8.8 1 2.9 2 5.4 2.7 7.3q0.6 1.7 1.3 3.2c4.4-0.6 10.2 0.7 13.6 1.2z"/><path class="g" d="m489.7 582.1c-40 3.2-80.6-7-120.7-3.3-10.6 1-31.7 0.3-58.5-0.9 13.3 3.9 27.2 5.8 41.7 6.9 33.7 2.4 68.9 3.3 102.4 8.3 39.5 5.9 74.1 18.4 114.4 17.2 40.1-1.3 81.2-0.8 120.7-3.8 20.8-1.6 41.1-3.4 62.2-3.2 20.6 0.1 39.6-3.7 59.8-4.3 20.5-0.6 40.4-1.5 59.8-2.3 2.5-0.1 5.4-0.3 8.5-0.5 1.2-27.9-34.3-20.2-55.9-20.4-54.9-0.3-277 1.6-334.4 6.3z"/><path class="g" d="m847 602.1c-41.5 0.7-84.1 6.5-125.3 10.2-81.2 7.1-168.4 12.9-247.7-5.7-43-10-85.5-11.3-129.4-17-19.2-2.6-37-7.5-54.6-12.7-72.4-3.7-172.1-9.7-224.7-3 12.9 7.8 24.4 14.9 28.4 15.6 16.3 2.9 34.4 3.8 51.2 5 38 2.9 77.7 3 115.8 3.2 20 0.2 36.9 0.6 55.8 3.8 17.3 3 36.8 4.9 55 6.7 18.8 1.9 38.1 3.2 55.8 7 15.9 3.4 30.4 10.3 45.5 15.2 16.4 5.4 34.7 9.7 52.1 12.8 17.4 3 35.5 0.6 52.7 1.1q-0.6-0.2-0.4-0.6c15.3 0.7 32.3-1.5 47.7-2.3 15.8-0.8 32.6-0.5 48.8-1.3 41.4-2 81.1 0.6 121.9 2.5 19.9 0.9 40.4 1.2 60.9 2 10 0.4 19.1 2.6 29.2 2.6q1.1 0 2.2 0c-1.4-4.8-2.8-9.6-3.8-14.6-5.5 0.2-11.5-0.2-16.7-1.8 8-9.7 25.2 1 30.4-10.5 3-6.6 1.8-12.2-1.6-16.1-18.6 0-39.5-2.3-49.2-2.1z"/><path class="g" d="m865 649.5c-20.8-0.1-40.9-2.1-61.2-2.8-64.1-2.4-125.1-1.6-188.7 0.9-32.8 1.3-66.1 3-98.5-1.3-27.4-3.6-45.2-15-70.9-20.9-37.5-8.5-78.3-11.3-116.8-16.7-43.6-6-86.8-4.8-131.7-5-25 0-55.5-2.2-80.4-5.4-9.4-1.2-39-11.6-64.6-22.6-15.1 0.6-48.3-6.8-51.4 1.8-1.6 4.6 0.1 12.6 2.4 19.9 15.2-5.9 59.4 4.3 70.9 5.5 32.8 3.7 65.8 7.4 98.7 10.4 53 5 106.3-3.3 159.7 2.4 21 2.2 38 16.2 59.6 18.7 10.5 1.2 50.3 2.9 52.2 14.9-26.2 5-52.8 3.7-79.3 11.8-32.1 9.8-60.5 8-94.1 7.9-44.1-0.2-88.7-8-130.2 3-22.3 6-45.3 9.3-68.6 6.6-17-2-38.6-4-55-1.2-0.2 3.8-0.4 7.9-0.3 12.1 9.6 0.3 21.3 1.9 25 2.1 15.9 0.9 32.7 0.5 48.8 0.5 33.2 0 62.4-6.8 95.1-5.6 38.6 1.3 79.4 8.1 117 3 38.6-5.2 76.9-16.1 117.2-14.7 40.1 1.5 80.8 2.1 120.6 5.7 39.6 3.7 78.4 10.1 119.4 11.3 40.9 1.3 81 2 121.9 2.3 21.3 0.1 40.4-1.4 61-2.4 13.5-0.7 30.9-2.3 45.9-1.6 0-1.6 0-3.4 0.1-5.2 0.6-10.1 3.5-18.2 1.5-28.1q-0.7-3.3-1.6-6.4c-8.6-0.2-17.4-0.8-23.7-0.9z"/><g style="opacity:.5"><path class="a" d="m867.5 583.8c1.9 4.4 3.5 8.3 4.2 12.9 1.4 8.5-1.6 5.7 6.5 9.1 6.5 2.8 20.5 10.5 6.5 14.5-3.5 1-30.4-0.9-25.9 9.6 1.3 2.9 7.8 2.7 14.3 2.2-2-0.3-3.9-0.7-5.7-1.3 8-9.7 25.2 1 30.4-10.5 6.4-13.9-6-23.1-17.9-22.3 1.8-19.4-12.9-22.9-29.5-23 4.2 4 11.7 1.1 17.1 8.8z"/><path class="a" d="m888.8 684.9c0.6-10 3.5-18.2 1.5-28.1-1.5-7.3-4.5-16.7-6.2-24.2-1.4 0.3-9.1 1.8-8.4 12.1 0.4 4.9 5.6 10.8 6.6 15.4 1.2 5.8-0.8 13.9-1.7 19.6-2.4 15.1-9.1 17.8-22.8 21.1-17.2 4.1-35.7 1.8-53.6 0-16.2-1.7-33.1-0.8-49.6-0.8-33.5 0-68.1 5.4-102.4 2.5-14.3-1.2-28.1-6.6-42.2-8.8-18.7-3-39.3-4.4-58.5-3.3-15.1 0.9-27 6.2-40.7 12-13.6 5.8-24.5 3.8-38.2 0.2-40.1-10.6-86.9-2.6-128.4-2.6-28.2 0-56.3 2.2-84.5 3.4-33 1.5-66.2-2.2-99.2-3.6-30.8-1.2-61.9-0.6-92.9-0.6-11.9 0-23.7 1.4-35.7 0.8-3.3-0.1-9.7 0.7-14.3 0 0.7 4.1 2 7.5 4.3 9.4 7.2 6.2 156 2.3 218.5 2.7 75.6 0.6 150.7 1.1 226.4 1.6l15.8 1.3c10.7 3.7 36.8-6.8 50-8.2 14.7-1.7 30.8-2.7 45.5-1.8 30 1.7 59.3 7.4 89.9 7.7 62 0.4 205.8-2.7 213.3-5.9 9.1-4 6.9-11.4 7.5-21.9z"/></g><path class="h" d="m133.8 635.1c0.7 7.5-4.4 14.1-11.3 14.8-6.9 0.6-13.1-4.9-13.8-12.5-0.7-7.5 4.3-14.1 11.2-14.8 7-0.6 13.1 4.9 13.9 12.5z"/><path fill-rule="evenodd" class="a" d="m119.2 644.2c-6.6 0-11.9-5.3-11.9-11.9 0-6.6 5.3-11.9 11.9-11.9 6.6 0 11.9 5.3 11.9 11.9 0 6.6-5.3 11.9-11.9 11.9z"/><path fill-rule="evenodd" class="d" d="m117.4 637.5c-4 0-7.2-3.2-7.2-7.2 0-4 3.2-7.2 7.2-7.2 4 0 7.2 3.2 7.2 7.2 0 4-3.2 7.2-7.2 7.2z"/><path fill-rule="evenodd" class="c" d="m116.2 632.6c-1.8 0-3.3-1.5-3.3-3.3 0-1.8 1.5-3.2 3.3-3.2 1.8 0 3.3 1.4 3.3 3.2 0 1.8-1.5 3.3-3.3 3.3z"/><path class="h" d="m802.2 640.3c0.8 7.6-4.3 14.2-11.2 14.9-6.9 0.6-13.1-5-13.8-12.5-0.7-7.5 4.3-14.2 11.2-14.8 7-0.7 13.1 4.9 13.8 12.4z"/><path fill-rule="evenodd" class="a" d="m787.7 649.5c-6.6 0-11.9-5.3-11.9-11.9 0-6.6 5.3-11.9 11.9-11.9 6.6 0 11.9 5.3 11.9 11.9 0 6.6-5.3 11.9-11.9 11.9z"/><path fill-rule="evenodd" class="d" d="m785.9 642.7c-4 0-7.2-3.2-7.2-7.1 0-4 3.2-7.2 7.2-7.2 4 0 7.2 3.2 7.2 7.2 0 3.9-3.2 7.1-7.2 7.1z"/><path fill-rule="evenodd" class="c" d="m784.7 637.9c-1.8 0-3.3-1.5-3.3-3.3 0-1.8 1.5-3.2 3.3-3.2 1.8 0 3.2 1.4 3.2 3.2 0 1.8-1.4 3.3-3.2 3.3z"/><path class="h" d="m800.1 507.8c0.7 7.5-4.4 14.1-11.3 14.8-6.9 0.7-13.1-4.9-13.8-12.5-0.7-7.5 4.3-14.1 11.3-14.8 6.9-0.6 13.1 5 13.8 12.5z"/><path fill-rule="evenodd" class="a" d="m785.5 517c-6.6 0-11.9-5.4-11.9-12 0-6.6 5.3-11.9 11.9-11.9 6.6 0 11.9 5.3 11.9 11.9 0 6.6-5.3 12-11.9 12z"/><path fill-rule="evenodd" class="d" d="m783.7 510.2c-3.9 0-7.1-3.2-7.1-7.2 0-4 3.2-7.2 7.1-7.2 4 0 7.2 3.2 7.2 7.2 0 4-3.2 7.2-7.2 7.2z"/><path fill-rule="evenodd" class="c" d="m782.5 505.3c-1.8 0-3.2-1.4-3.2-3.2 0-1.8 1.4-3.3 3.2-3.3 1.8 0 3.3 1.5 3.3 3.3 0 1.8-1.5 3.2-3.3 3.2z"/><path fill-rule="evenodd" class="a" d="m119.5 62.8c-15.2 0-27.5-12.3-27.5-27.5 0-15.2 12.3-27.4 27.5-27.4 15.1 0 27.4 12.2 27.4 27.4 0 15.2-12.3 27.5-27.4 27.5zm18.6-27.5c0-10.3-8.3-18.6-18.6-18.6-10.3 0-18.7 8.3-18.7 18.6 0 10.3 8.4 18.7 18.7 18.7 10.3 0 18.6-8.4 18.6-18.7z"/><g style="opacity:.5"><path fill-rule="evenodd" class="b" d="m119.8 59.8c-13.7 0-24.8-11-24.8-24.8 0-13.7 11.1-24.8 24.8-24.8 13.7 0 24.8 11.1 24.8 24.8 0 13.8-11.1 24.8-24.8 24.8zm21.8-24.8c0-12.1-9.7-21.8-21.8-21.8-12.1 0-21.9 9.7-21.9 21.8 0 12.1 9.8 21.9 21.9 21.9 12.1 0 21.8-9.8 21.8-21.9z"/></g><path class="c" d="m109.6 14.1c-1.3-0.2-2.7-0.2-3.8 0.5l-1.4 0.9c-2.2 3.4-5.6 5.5-7.4 9.4-0.9 2-1.5 4.3-1.7 6.5-0.3 2.5 0.2 5.7 2.4 2.6 2.3-3.3 1.9-8.5 4.2-12 1.6-2.3 8.2-5.3 7.7-7.9z"/><path class="c" d="m142.8 38.2c-2.3-0.5-3.8 8.9-5.6 11.1-3.2 4.1-6.7 5.5-11.4 6.7l-0.9 0.3c-2.3 0.1-2.1 1.7 0 2.1 1.1 0.2 3.3-0.9 4.3-1.3 2.7-1 4.9-2.7 6.9-4.5 3.5-3.2 8.7-9.3 6.7-14.4z"/><path class="a" d="m126.9 90.7c0 3.1-3.4 5.6-7.5 5.6-4.2 0-7.5-2.5-7.5-5.6v-47c0-3 3.3-5.5 7.5-5.5 4.1 0 7.5 2.5 7.5 5.5z"/><path class="i" d="m122.6 76.6c0 2.1-1.9 3.8-4.2 3.8-2.4 0-4.3-1.7-4.3-3.8v-32.1c0-2.1 1.9-3.8 4.3-3.8 2.3 0 4.2 1.7 4.2 3.8z"/><path class="c" d="m118.1 58.1c-0.6-4.4 1.4-8.5 0.8-12.7-0.6-0.2-1.2-0.6-1.9-0.6h-0.3c-2.8 2.8-0.3 9.4-0.5 13-0.1 2-2.4 11.4 1.1 11.4 3.2 0 1-9.3 0.8-11.1z"/><path fill-rule="evenodd" class="a" d="m788.6 66.1c-15.2 0-27.4-12.3-27.4-27.5 0-15.1 12.2-27.4 27.4-27.4 15.2 0 27.4 12.3 27.4 27.4 0 15.2-12.2 27.5-27.4 27.5zm18.6-27.5c0-10.3-8.3-18.6-18.6-18.6-10.3 0-18.6 8.3-18.6 18.6 0 10.4 8.3 18.7 18.6 18.7 10.3 0 18.6-8.3 18.6-18.7z"/><g style="opacity:.5"><path fill-rule="evenodd" class="b" d="m788.9 63.2c-13.7 0-24.8-11.1-24.8-24.8 0-13.8 11.1-24.9 24.8-24.9 13.7 0 24.8 11.1 24.8 24.9 0 13.7-11.1 24.8-24.8 24.8zm21.9-24.8c0-12.1-9.8-21.9-21.9-21.9-12.1 0-21.8 9.8-21.8 21.9 0 12.1 9.7 21.8 21.8 21.8 12.1 0 21.9-9.7 21.9-21.8z"/></g><path class="c" d="m778.7 17.4c-1.3-0.2-2.6-0.1-3.7 0.6l-1.5 0.8c-2.2 3.4-5.5 5.5-7.3 9.4-1 2.1-1.5 4.4-1.8 6.5-0.3 2.5 0.2 5.7 2.4 2.6 2.4-3.3 2-8.5 4.3-12 1.5-2.3 8.1-5.3 7.6-7.9z"/><path class="c" d="m811.9 41.5c-2.2-0.5-3.8 8.9-5.5 11.1-3.3 4.1-6.7 5.5-11.5 6.7l-0.9 0.3c-2.3 0.1-2 1.7 0 2.1 1.1 0.2 3.4-0.9 4.4-1.3 2.6-1 4.8-2.7 6.9-4.5 3.4-3.2 8.6-9.3 6.6-14.4z"/><path class="a" d="m796 94.1c0 3-3.3 5.5-7.5 5.5-4.1 0-7.5-2.5-7.5-5.5v-47c0-3.1 3.4-5.6 7.5-5.6 4.2 0 7.5 2.5 7.5 5.6z"/><path class="i" d="m791.8 79.9c0 2.1-1.9 3.8-4.3 3.8-2.4 0-4.3-1.7-4.3-3.8v-32.1c0-2.1 1.9-3.8 4.3-3.8 2.4 0 4.3 1.7 4.3 3.8z"/><path class="c" d="m787.2 61.4c-0.6-4.4 1.5-8.5 0.8-12.7-0.6-0.2-1.2-0.5-1.8-0.6h-0.3c-2.8 2.8-0.4 9.5-0.6 13-0.1 2-2.4 11.4 1.1 11.4 3.2 0 1.1-9.3 0.8-11.1z"/></svg>