<svg version="1.2" xmlns="http://www.w3.org/2000/svg" viewBox="0 0 435 435" width="435" height="435">
	<title>Wood_circle_game_buttons</title>
	<defs>
		<radialGradient id="g1" cx="0" cy="0" r="1" gradientUnits="userSpaceOnUse" gradientTransform="matrix(1000,0,0,1000,1000,998)">
			<stop offset="0" stop-color="#4d4d4d"/>
			<stop offset="1" stop-color="#333333"/>
		</radialGradient>
		<linearGradient id="g2" x2="1" gradientUnits="userSpaceOnUse" gradientTransform="matrix(0,-366.647,366.647,0,1480.364,1839.704)">
			<stop offset="0" stop-color="#4e2a21"/>
			<stop offset="1" stop-color="#a36841"/>
		</linearGradient>
		<linearGradient id="g3" x2="1" gradientUnits="userSpaceOnUse" gradientTransform="matrix(0,-376.348,376.349,0,1475.514,1844.554)">
			<stop offset="0" stop-color="#63433b"/>
			<stop offset=".504" stop-color="#a36841"/>
			<stop offset="1" stop-color="#ffc255"/>
		</linearGradient>
		<linearGradient id="g4" x2="1" gradientUnits="userSpaceOnUse" gradientTransform="matrix(0,-376.348,376.349,0,1475.514,1844.554)">
			<stop offset="0" stop-color="#63433b"/>
			<stop offset=".504" stop-color="#a36841"/>
			<stop offset="1" stop-color="#ffc255"/>
		</linearGradient>
		<linearGradient id="g5" x2="1" gradientUnits="userSpaceOnUse" gradientTransform="matrix(0,-241.662,129.115,0,1437.53,1777.211)">
			<stop offset="0" stop-color="#f4d6a6"/>
			<stop offset=".589" stop-color="#f7edd2"/>
			<stop offset="1" stop-color="#ffffff"/>
		</linearGradient>
		<linearGradient id="g6" x2="1" gradientUnits="userSpaceOnUse" gradientTransform="matrix(0,-366.647,366.647,0,1037.906,1839.704)">
			<stop offset="0" stop-color="#4e2a21"/>
			<stop offset="1" stop-color="#a36841"/>
		</linearGradient>
		<linearGradient id="g7" x2="1" gradientUnits="userSpaceOnUse" gradientTransform="matrix(0,-376.348,376.349,0,1033.055,1844.554)">
			<stop offset="0" stop-color="#63433b"/>
			<stop offset=".504" stop-color="#a36841"/>
			<stop offset="1" stop-color="#ffc255"/>
		</linearGradient>
		<linearGradient id="g8" x2="1" gradientUnits="userSpaceOnUse" gradientTransform="matrix(0,-376.348,376.349,0,1033.055,1844.554)">
			<stop offset="0" stop-color="#63433b"/>
			<stop offset=".504" stop-color="#a36841"/>
			<stop offset="1" stop-color="#ffc255"/>
		</linearGradient>
		<linearGradient id="g9" x2="1" gradientUnits="userSpaceOnUse" gradientTransform="matrix(0,-170.638,157.682,0,1128.9,1715.711)">
			<stop offset="0" stop-color="#f4d6a6"/>
			<stop offset=".589" stop-color="#f7edd2"/>
			<stop offset="1" stop-color="#ffffff"/>
		</linearGradient>
		<linearGradient id="g10" x2="1" gradientUnits="userSpaceOnUse" gradientTransform="matrix(0,-44.479,170.049,0,1215.412,1773.642)">
			<stop offset="0" stop-color="#f4d6a6"/>
			<stop offset=".589" stop-color="#f7edd2"/>
			<stop offset="1" stop-color="#ffffff"/>
		</linearGradient>
		<linearGradient id="g11" x2="1" gradientUnits="userSpaceOnUse" gradientTransform="matrix(0,-366.647,366.647,0,595.447,1839.704)">
			<stop offset="0" stop-color="#4e2a21"/>
			<stop offset="1" stop-color="#a36841"/>
		</linearGradient>
		<linearGradient id="g12" x2="1" gradientUnits="userSpaceOnUse" gradientTransform="matrix(0,-376.348,376.349,0,590.596,1844.554)">
			<stop offset="0" stop-color="#63433b"/>
			<stop offset=".504" stop-color="#a36841"/>
			<stop offset="1" stop-color="#ffc255"/>
		</linearGradient>
		<linearGradient id="g13" x2="1" gradientUnits="userSpaceOnUse" gradientTransform="matrix(0,-376.348,376.349,0,590.596,1844.554)">
			<stop offset="0" stop-color="#63433b"/>
			<stop offset=".504" stop-color="#a36841"/>
			<stop offset="1" stop-color="#ffc255"/>
		</linearGradient>
		<linearGradient id="g14" x2="1" gradientUnits="userSpaceOnUse" gradientTransform="matrix(0,-228.063,221.597,0,661.412,1770.412)">
			<stop offset="0" stop-color="#f4d6a6"/>
			<stop offset=".589" stop-color="#f7edd2"/>
			<stop offset="1" stop-color="#ffffff"/>
		</linearGradient>
		<linearGradient id="g15" x2="1" gradientUnits="userSpaceOnUse" gradientTransform="matrix(0,-366.647,366.647,0,152.988,1839.704)">
			<stop offset="0" stop-color="#4e2a21"/>
			<stop offset="1" stop-color="#a36841"/>
		</linearGradient>
		<linearGradient id="g16" x2="1" gradientUnits="userSpaceOnUse" gradientTransform="matrix(0,-376.348,376.349,0,148.138,1844.554)">
			<stop offset="0" stop-color="#63433b"/>
			<stop offset=".504" stop-color="#a36841"/>
			<stop offset="1" stop-color="#ffc255"/>
		</linearGradient>
		<linearGradient id="g17" x2="1" gradientUnits="userSpaceOnUse" gradientTransform="matrix(0,-376.348,376.349,0,148.138,1844.554)">
			<stop offset="0" stop-color="#63433b"/>
			<stop offset=".504" stop-color="#a36841"/>
			<stop offset="1" stop-color="#ffc255"/>
		</linearGradient>
		<linearGradient id="g18" x2="1" gradientUnits="userSpaceOnUse" gradientTransform="matrix(0,-215.697,170.397,0,199.792,1757.429)">
			<stop offset="0" stop-color="#f4d6a6"/>
			<stop offset=".589" stop-color="#f7edd2"/>
			<stop offset="1" stop-color="#ffffff"/>
		</linearGradient>
		<linearGradient id="g19" x2="1" gradientUnits="userSpaceOnUse" gradientTransform="matrix(0,-366.647,366.647,0,1480.364,1385.447)">
			<stop offset="0" stop-color="#4e2a21"/>
			<stop offset="1" stop-color="#a36841"/>
		</linearGradient>
		<linearGradient id="g20" x2="1" gradientUnits="userSpaceOnUse" gradientTransform="matrix(0,-376.348,376.349,0,1475.514,1390.297)">
			<stop offset="0" stop-color="#63433b"/>
			<stop offset=".504" stop-color="#a36841"/>
			<stop offset="1" stop-color="#ffc255"/>
		</linearGradient>
		<linearGradient id="g21" x2="1" gradientUnits="userSpaceOnUse" gradientTransform="matrix(0,-376.348,376.349,0,1475.514,1390.297)">
			<stop offset="0" stop-color="#63433b"/>
			<stop offset=".504" stop-color="#a36841"/>
			<stop offset="1" stop-color="#ffc255"/>
		</linearGradient>
		<linearGradient id="g22" x2="1" gradientUnits="userSpaceOnUse" gradientTransform="matrix(0,-179.126,193.461,0,1580.764,1306.13)">
			<stop offset="0" stop-color="#f4d6a6"/>
			<stop offset=".589" stop-color="#f7edd2"/>
			<stop offset="1" stop-color="#ffffff"/>
		</linearGradient>
		<linearGradient id="g23" x2="1" gradientUnits="userSpaceOnUse" gradientTransform="matrix(0,-109.843,35.71,0,1494.753,1213.936)">
			<stop offset="0" stop-color="#f4d6a6"/>
			<stop offset=".589" stop-color="#f7edd2"/>
			<stop offset="1" stop-color="#ffffff"/>
		</linearGradient>
		<linearGradient id="g24" x2="1" gradientUnits="userSpaceOnUse" gradientTransform="matrix(0,-366.647,366.647,0,1037.906,1385.447)">
			<stop offset="0" stop-color="#4e2a21"/>
			<stop offset="1" stop-color="#a36841"/>
		</linearGradient>
		<linearGradient id="g25" x2="1" gradientUnits="userSpaceOnUse" gradientTransform="matrix(0,-376.348,376.349,0,1033.055,1390.297)">
			<stop offset="0" stop-color="#63433b"/>
			<stop offset=".504" stop-color="#a36841"/>
			<stop offset="1" stop-color="#ffc255"/>
		</linearGradient>
		<linearGradient id="g26" x2="1" gradientUnits="userSpaceOnUse" gradientTransform="matrix(0,-376.348,376.349,0,1033.055,1390.297)">
			<stop offset="0" stop-color="#63433b"/>
			<stop offset=".504" stop-color="#a36841"/>
			<stop offset="1" stop-color="#ffc255"/>
		</linearGradient>
		<linearGradient id="g27" x2="1" gradientUnits="userSpaceOnUse" gradientTransform="matrix(0,-159.771,55.265,0,990.281,1319.574)">
			<stop offset="0" stop-color="#f4d6a6"/>
			<stop offset=".589" stop-color="#f7edd2"/>
			<stop offset="1" stop-color="#ffffff"/>
		</linearGradient>
		<linearGradient id="g28" x2="1" gradientUnits="userSpaceOnUse" gradientTransform="matrix(0,-55.265,55.265,0,1193.597,1139.936)">
			<stop offset="0" stop-color="#f4d6a6"/>
			<stop offset=".589" stop-color="#f7edd2"/>
			<stop offset="1" stop-color="#ffffff"/>
		</linearGradient>
		<linearGradient id="g29" x2="1" gradientUnits="userSpaceOnUse" gradientTransform="matrix(0,-366.647,366.647,0,595.447,1385.447)">
			<stop offset="0" stop-color="#4e2a21"/>
			<stop offset="1" stop-color="#a36841"/>
		</linearGradient>
		<linearGradient id="g30" x2="1" gradientUnits="userSpaceOnUse" gradientTransform="matrix(0,-376.348,376.349,0,590.596,1390.297)">
			<stop offset="0" stop-color="#63433b"/>
			<stop offset=".504" stop-color="#a36841"/>
			<stop offset="1" stop-color="#ffc255"/>
		</linearGradient>
		<linearGradient id="g31" x2="1" gradientUnits="userSpaceOnUse" gradientTransform="matrix(0,-376.348,376.349,0,590.596,1390.297)">
			<stop offset="0" stop-color="#63433b"/>
			<stop offset=".504" stop-color="#a36841"/>
			<stop offset="1" stop-color="#ffc255"/>
		</linearGradient>
		<linearGradient id="g32" x2="1" gradientUnits="userSpaceOnUse" gradientTransform="matrix(0,-195.869,259.071,0,704.728,1303.033)">
			<stop offset="0" stop-color="#f4d6a6"/>
			<stop offset=".589" stop-color="#f7edd2"/>
			<stop offset="1" stop-color="#ffffff"/>
		</linearGradient>
		<linearGradient id="g33" x2="1" gradientUnits="userSpaceOnUse" gradientTransform="matrix(0,-366.647,366.647,0,152.988,1385.447)">
			<stop offset="0" stop-color="#4e2a21"/>
			<stop offset="1" stop-color="#a36841"/>
		</linearGradient>
		<linearGradient id="g34" x2="1" gradientUnits="userSpaceOnUse" gradientTransform="matrix(0,-376.348,376.349,0,148.138,1390.297)">
			<stop offset="0" stop-color="#63433b"/>
			<stop offset=".504" stop-color="#a36841"/>
			<stop offset="1" stop-color="#ffc255"/>
		</linearGradient>
		<linearGradient id="g35" x2="1" gradientUnits="userSpaceOnUse" gradientTransform="matrix(0,-376.348,376.349,0,148.138,1390.297)">
			<stop offset="0" stop-color="#63433b"/>
			<stop offset=".504" stop-color="#a36841"/>
			<stop offset="1" stop-color="#ffc255"/>
		</linearGradient>
		<linearGradient id="g36" x2="1" gradientUnits="userSpaceOnUse" gradientTransform="matrix(0,-42.968,117.989,0,364.721,1149.864)">
			<stop offset="0" stop-color="#f4d6a6"/>
			<stop offset=".589" stop-color="#f7edd2"/>
			<stop offset="1" stop-color="#ffffff"/>
		</linearGradient>
		<linearGradient id="g37" x2="1" gradientUnits="userSpaceOnUse" gradientTransform="matrix(0,-42.968,42.968,0,241.085,1149.864)">
			<stop offset="0" stop-color="#f4d6a6"/>
			<stop offset=".589" stop-color="#f7edd2"/>
			<stop offset="1" stop-color="#ffffff"/>
		</linearGradient>
		<linearGradient id="g38" x2="1" gradientUnits="userSpaceOnUse" gradientTransform="matrix(0,-42.968,42.968,0,241.085,1223.607)">
			<stop offset="0" stop-color="#f4d6a6"/>
			<stop offset=".589" stop-color="#f7edd2"/>
			<stop offset="1" stop-color="#ffffff"/>
		</linearGradient>
		<linearGradient id="g39" x2="1" gradientUnits="userSpaceOnUse" gradientTransform="matrix(0,-42.968,42.968,0,241.085,1297.35)">
			<stop offset="0" stop-color="#f4d6a6"/>
			<stop offset=".589" stop-color="#f7edd2"/>
			<stop offset="1" stop-color="#ffffff"/>
		</linearGradient>
		<linearGradient id="g40" x2="1" gradientUnits="userSpaceOnUse" gradientTransform="matrix(0,-42.968,117.989,0,364.721,1223.607)">
			<stop offset="0" stop-color="#f4d6a6"/>
			<stop offset=".589" stop-color="#f7edd2"/>
			<stop offset="1" stop-color="#ffffff"/>
		</linearGradient>
		<linearGradient id="g41" x2="1" gradientUnits="userSpaceOnUse" gradientTransform="matrix(0,-42.968,117.989,0,364.721,1297.35)">
			<stop offset="0" stop-color="#f4d6a6"/>
			<stop offset=".589" stop-color="#f7edd2"/>
			<stop offset="1" stop-color="#ffffff"/>
		</linearGradient>
		<linearGradient id="g42" x2="1" gradientUnits="userSpaceOnUse" gradientTransform="matrix(0,-366.647,366.647,0,1480.364,931.189)">
			<stop offset="0" stop-color="#4e2a21"/>
			<stop offset="1" stop-color="#a36841"/>
		</linearGradient>
		<linearGradient id="g43" x2="1" gradientUnits="userSpaceOnUse" gradientTransform="matrix(0,-376.348,376.349,0,1475.514,936.039)">
			<stop offset="0" stop-color="#63433b"/>
			<stop offset=".504" stop-color="#a36841"/>
			<stop offset="1" stop-color="#ffc255"/>
		</linearGradient>
		<linearGradient id="g44" x2="1" gradientUnits="userSpaceOnUse" gradientTransform="matrix(0,-376.348,376.349,0,1475.514,936.039)">
			<stop offset="0" stop-color="#63433b"/>
			<stop offset=".504" stop-color="#a36841"/>
			<stop offset="1" stop-color="#ffc255"/>
		</linearGradient>
		<linearGradient id="g45" x2="1" gradientUnits="userSpaceOnUse" gradientTransform="matrix(0,-167.414,65.541,0,1399.412,831.572)">
			<stop offset="0" stop-color="#f4d6a6"/>
			<stop offset=".589" stop-color="#f7edd2"/>
			<stop offset="1" stop-color="#ffffff"/>
		</linearGradient>
		<linearGradient id="g46" x2="1" gradientUnits="userSpaceOnUse" gradientTransform="matrix(0,-167.414,65.541,0,1500.329,831.572)">
			<stop offset="0" stop-color="#f4d6a6"/>
			<stop offset=".589" stop-color="#f7edd2"/>
			<stop offset="1" stop-color="#ffffff"/>
		</linearGradient>
		<linearGradient id="g47" x2="1" gradientUnits="userSpaceOnUse" gradientTransform="matrix(0,-366.647,366.647,0,1037.906,931.189)">
			<stop offset="0" stop-color="#4e2a21"/>
			<stop offset="1" stop-color="#a36841"/>
		</linearGradient>
		<linearGradient id="g48" x2="1" gradientUnits="userSpaceOnUse" gradientTransform="matrix(0,-376.348,376.349,0,1033.055,936.039)">
			<stop offset="0" stop-color="#63433b"/>
			<stop offset=".504" stop-color="#a36841"/>
			<stop offset="1" stop-color="#ffc255"/>
		</linearGradient>
		<linearGradient id="g49" x2="1" gradientUnits="userSpaceOnUse" gradientTransform="matrix(0,-376.348,376.349,0,1033.055,936.039)">
			<stop offset="0" stop-color="#63433b"/>
			<stop offset=".504" stop-color="#a36841"/>
			<stop offset="1" stop-color="#ffc255"/>
		</linearGradient>
		<linearGradient id="g50" x2="1" gradientUnits="userSpaceOnUse" gradientTransform="matrix(0,-257.29,240.061,0,1083.351,876.519)">
			<stop offset="0" stop-color="#f4d6a6"/>
			<stop offset=".589" stop-color="#f7edd2"/>
			<stop offset="1" stop-color="#ffffff"/>
		</linearGradient>
		<linearGradient id="g51" x2="1" gradientUnits="userSpaceOnUse" gradientTransform="matrix(0,-366.647,366.647,0,595.447,931.189)">
			<stop offset="0" stop-color="#4e2a21"/>
			<stop offset="1" stop-color="#a36841"/>
		</linearGradient>
		<linearGradient id="g52" x2="1" gradientUnits="userSpaceOnUse" gradientTransform="matrix(0,-376.348,376.349,0,590.596,936.039)">
			<stop offset="0" stop-color="#63433b"/>
			<stop offset=".504" stop-color="#a36841"/>
			<stop offset="1" stop-color="#ffc255"/>
		</linearGradient>
		<linearGradient id="g53" x2="1" gradientUnits="userSpaceOnUse" gradientTransform="matrix(0,-376.348,376.349,0,590.596,936.039)">
			<stop offset="0" stop-color="#63433b"/>
			<stop offset=".504" stop-color="#a36841"/>
			<stop offset="1" stop-color="#ffc255"/>
		</linearGradient>
		<linearGradient id="g54" x2="1" gradientUnits="userSpaceOnUse" gradientTransform="matrix(0,-215.235,224.435,0,675.565,855.486)">
			<stop offset="0" stop-color="#f4d6a6"/>
			<stop offset=".589" stop-color="#f7edd2"/>
			<stop offset="1" stop-color="#ffffff"/>
		</linearGradient>
		<linearGradient id="g55" x2="1" gradientUnits="userSpaceOnUse" gradientTransform="matrix(0,-366.647,366.647,0,152.988,931.189)">
			<stop offset="0" stop-color="#4e2a21"/>
			<stop offset="1" stop-color="#a36841"/>
		</linearGradient>
		<linearGradient id="g56" x2="1" gradientUnits="userSpaceOnUse" gradientTransform="matrix(0,-376.348,376.349,0,148.138,936.039)">
			<stop offset="0" stop-color="#63433b"/>
			<stop offset=".504" stop-color="#a36841"/>
			<stop offset="1" stop-color="#ffc255"/>
		</linearGradient>
		<linearGradient id="g57" x2="1" gradientUnits="userSpaceOnUse" gradientTransform="matrix(0,-376.348,376.349,0,148.138,936.039)">
			<stop offset="0" stop-color="#63433b"/>
			<stop offset=".504" stop-color="#a36841"/>
			<stop offset="1" stop-color="#ffc255"/>
		</linearGradient>
		<linearGradient id="g58" x2="1" gradientUnits="userSpaceOnUse" gradientTransform="matrix(0,-241.662,241.662,0,215.481,868.696)">
			<stop offset="0" stop-color="#f4d6a6"/>
			<stop offset=".589" stop-color="#f7edd2"/>
			<stop offset="1" stop-color="#ffffff"/>
		</linearGradient>
		<linearGradient id="g59" x2="1" gradientUnits="userSpaceOnUse" gradientTransform="matrix(0,-366.647,366.647,0,1480.364,476.931)">
			<stop offset="0" stop-color="#4e2a21"/>
			<stop offset="1" stop-color="#a36841"/>
		</linearGradient>
		<linearGradient id="g60" x2="1" gradientUnits="userSpaceOnUse" gradientTransform="matrix(0,-376.348,376.349,0,1475.514,481.782)">
			<stop offset="0" stop-color="#63433b"/>
			<stop offset=".504" stop-color="#a36841"/>
			<stop offset="1" stop-color="#ffc255"/>
		</linearGradient>
		<linearGradient id="g61" x2="1" gradientUnits="userSpaceOnUse" gradientTransform="matrix(0,-376.348,376.349,0,1475.514,481.782)">
			<stop offset="0" stop-color="#63433b"/>
			<stop offset=".504" stop-color="#a36841"/>
			<stop offset="1" stop-color="#ffc255"/>
		</linearGradient>
		<linearGradient id="g62" x2="1" gradientUnits="userSpaceOnUse" gradientTransform="matrix(0,-234.296,209.002,0,1532.362,407.076)">
			<stop offset="0" stop-color="#f4d6a6"/>
			<stop offset=".589" stop-color="#f7edd2"/>
			<stop offset="1" stop-color="#ffffff"/>
		</linearGradient>
		<linearGradient id="g63" x2="1" gradientUnits="userSpaceOnUse" gradientTransform="matrix(0,-366.647,366.647,0,1037.906,476.931)">
			<stop offset="0" stop-color="#4e2a21"/>
			<stop offset="1" stop-color="#a36841"/>
		</linearGradient>
		<linearGradient id="g64" x2="1" gradientUnits="userSpaceOnUse" gradientTransform="matrix(0,-376.348,376.349,0,1033.055,481.782)">
			<stop offset="0" stop-color="#63433b"/>
			<stop offset=".504" stop-color="#a36841"/>
			<stop offset="1" stop-color="#ffc255"/>
		</linearGradient>
		<linearGradient id="g65" x2="1" gradientUnits="userSpaceOnUse" gradientTransform="matrix(0,-376.348,376.349,0,1033.055,481.782)">
			<stop offset="0" stop-color="#63433b"/>
			<stop offset=".504" stop-color="#a36841"/>
			<stop offset="1" stop-color="#ffc255"/>
		</linearGradient>
		<linearGradient id="g66" x2="1" gradientUnits="userSpaceOnUse" gradientTransform="matrix(0,-201.341,220.334,0,1129.236,394.279)">
			<stop offset="0" stop-color="#f4d6a6"/>
			<stop offset=".589" stop-color="#f7edd2"/>
			<stop offset="1" stop-color="#ffffff"/>
		</linearGradient>
		<linearGradient id="g67" x2="1" gradientUnits="userSpaceOnUse" gradientTransform="matrix(0,-366.647,366.647,0,34.447,400.931)">
			<stop offset="0" stop-color="#4e2a21"/>
			<stop offset="1" stop-color="#a36841"/>
		</linearGradient>
		<linearGradient id="g68" x2="1" gradientUnits="userSpaceOnUse" gradientTransform="matrix(0,-376.348,376.349,0,29.596,405.782)">
			<stop offset="0" stop-color="#63433b"/>
			<stop offset=".504" stop-color="#a36841"/>
			<stop offset="1" stop-color="#ffc255"/>
		</linearGradient>
		<linearGradient id="g69" x2="1" gradientUnits="userSpaceOnUse" gradientTransform="matrix(0,-376.348,376.349,0,29.596,405.782)">
			<stop offset="0" stop-color="#63433b"/>
			<stop offset=".504" stop-color="#a36841"/>
			<stop offset="1" stop-color="#ffc255"/>
		</linearGradient>
		<linearGradient id="g70" x2="1" gradientUnits="userSpaceOnUse" gradientTransform="matrix(0,-200.816,200.816,0,117.363,318.016)">
			<stop offset="0" stop-color="#f4d6a6"/>
			<stop offset=".589" stop-color="#f7edd2"/>
			<stop offset="1" stop-color="#ffffff"/>
		</linearGradient>
		<linearGradient id="g71" x2="1" gradientUnits="userSpaceOnUse" gradientTransform="matrix(0,-366.647,366.647,0,152.988,476.931)">
			<stop offset="0" stop-color="#4e2a21"/>
			<stop offset="1" stop-color="#a36841"/>
		</linearGradient>
		<linearGradient id="g72" x2="1" gradientUnits="userSpaceOnUse" gradientTransform="matrix(0,-376.348,376.349,0,148.138,481.782)">
			<stop offset="0" stop-color="#63433b"/>
			<stop offset=".504" stop-color="#a36841"/>
			<stop offset="1" stop-color="#ffc255"/>
		</linearGradient>
		<linearGradient id="g73" x2="1" gradientUnits="userSpaceOnUse" gradientTransform="matrix(0,-376.348,376.349,0,148.138,481.782)">
			<stop offset="0" stop-color="#63433b"/>
			<stop offset=".504" stop-color="#a36841"/>
			<stop offset="1" stop-color="#ffc255"/>
		</linearGradient>
		<linearGradient id="g74" x2="1" gradientUnits="userSpaceOnUse" gradientTransform="matrix(0,-201.113,180.817,0,239.14,397.163)">
			<stop offset="0" stop-color="#f4d6a6"/>
			<stop offset=".589" stop-color="#f7edd2"/>
			<stop offset="1" stop-color="#ffffff"/>
		</linearGradient>
	</defs>
	<style>
		.s0 { fill: url(#g1) } 
		.s1 { opacity: .3;fill: #1a1a1a } 
		.s2 { fill: #42210b } 
		.s3 { fill: url(#g2) } 
		.s4 { fill: url(#g3) } 
		.s5 { fill: url(#g4) } 
		.s6 { fill: #ffcf83 } 
		.s7 { fill: #b7724b } 
		.s8 { fill: url(#g5) } 
		.s9 { fill: url(#g6) } 
		.s10 { fill: url(#g7) } 
		.s11 { fill: url(#g8) } 
		.s12 { fill: url(#g9) } 
		.s13 { fill: url(#g10) } 
		.s14 { fill: url(#g11) } 
		.s15 { fill: url(#g12) } 
		.s16 { fill: url(#g13) } 
		.s17 { fill: url(#g14) } 
		.s18 { fill: url(#g15) } 
		.s19 { fill: url(#g16) } 
		.s20 { fill: url(#g17) } 
		.s21 { fill: url(#g18) } 
		.s22 { fill: url(#g19) } 
		.s23 { fill: url(#g20) } 
		.s24 { fill: url(#g21) } 
		.s25 { fill: url(#g22) } 
		.s26 { fill: url(#g23) } 
		.s27 { fill: url(#g24) } 
		.s28 { fill: url(#g25) } 
		.s29 { fill: url(#g26) } 
		.s30 { fill: url(#g27) } 
		.s31 { fill: url(#g28) } 
		.s32 { fill: url(#g29) } 
		.s33 { fill: url(#g30) } 
		.s34 { fill: url(#g31) } 
		.s35 { fill: url(#g32) } 
		.s36 { fill: url(#g33) } 
		.s37 { fill: url(#g34) } 
		.s38 { fill: url(#g35) } 
		.s39 { fill: url(#g36) } 
		.s40 { fill: url(#g37) } 
		.s41 { fill: url(#g38) } 
		.s42 { fill: url(#g39) } 
		.s43 { fill: url(#g40) } 
		.s44 { fill: url(#g41) } 
		.s45 { fill: url(#g42) } 
		.s46 { fill: url(#g43) } 
		.s47 { fill: url(#g44) } 
		.s48 { fill: url(#g45) } 
		.s49 { fill: url(#g46) } 
		.s50 { fill: url(#g47) } 
		.s51 { fill: url(#g48) } 
		.s52 { fill: url(#g49) } 
		.s53 { fill: url(#g50) } 
		.s54 { fill: url(#g51) } 
		.s55 { fill: url(#g52) } 
		.s56 { fill: url(#g53) } 
		.s57 { fill: url(#g54) } 
		.s58 { fill: url(#g55) } 
		.s59 { fill: url(#g56) } 
		.s60 { fill: url(#g57) } 
		.s61 { fill: url(#g58) } 
		.s62 { fill: url(#g59) } 
		.s63 { fill: url(#g60) } 
		.s64 { fill: url(#g61) } 
		.s65 { fill: url(#g62) } 
		.s66 { fill: url(#g63) } 
		.s67 { fill: url(#g64) } 
		.s68 { fill: url(#g65) } 
		.s69 { fill: url(#g66) } 
		.s70 { fill: url(#g67) } 
		.s71 { fill: url(#g68) } 
		.s72 { fill: url(#g69) } 
		.s73 { fill: url(#g70) } 
		.s74 { fill: url(#g71) } 
		.s75 { fill: url(#g72) } 
		.s76 { fill: url(#g73) } 
		.s77 { fill: url(#g74) } 
	</style>
	<g id="_Artboards_" style="display: none">
	</g>
	<g id="background" style="display: none">
		<path id="&lt;Path&gt;" class="s0" d="m2000 1998h-2000v-2000h2000z"/>
	</g>
	<g id="Layer 1">
		<g id="currency_button" style="display: none">
			<path id="shadow" class="s1" d="m1860.4 1690.6c0 110.5-88.1 200-196.7 200-108.6 0-196.7-89.5-196.7-200 0-110.4 88.1-199.9 196.7-199.9 108.6 0 196.7 89.5 196.7 199.9z"/>
			<g id="button">
				<path id="&lt;Path&gt;" class="s2" d="m1860.4 1669.8c0 110.4-88.1 199.9-196.7 199.9-108.6 0-196.7-89.5-196.7-199.9 0-110.4 88.1-199.9 196.7-199.9 108.6 0 196.7 89.5 196.7 199.9z"/>
				<path id="&lt;Path&gt;" class="s3" d="m1847 1656.4c0 101.2-82.1 183.3-183.3 183.3-101.3 0-183.3-82.1-183.3-183.3 0-101.3 82-183.3 183.3-183.3 101.2 0 183.3 82 183.3 183.3z"/>
				<path id="&lt;Path&gt;" class="s4" d="m1774.7 1687.7l75.1-3.5c1.3-9.1 2.1-18.4 2.1-27.8 0-13.3-1.4-26.2-4-38.7l-84-8.7 80.2-6.3c-9.2-30.7-25.9-58.1-48.1-80.1l-141.4-12h128c-32.4-26.5-73.8-42.4-118.9-42.4-85.3 0-157.3 56.8-180.4 134.6l90.7 7.7-94.6 7.5c-2.5 12.4-3.9 25.2-3.9 38.4 0 9.6 0.7 19.1 2.1 28.3l48.2 5.9-44.5 12.2c10.3 40.4 33.6 75.5 65.1 100.7l16.7-13.5-3.6 23.1q9.7 6.4 20.1 11.6l14-18.9v25.2c21.7 8.7 45.3 13.6 70.1 13.6 33.4 0 64.7-8.8 91.9-24l-4.1-22.7 15.5 15.7c39.8-26.1 69-67 80-114.8z"/>
				<path id="&lt;Path&gt;" class="s5" d="m1774.7 1687.7l75.1-3.5c1.3-9.1 2.1-18.4 2.1-27.8 0-13.3-1.4-26.2-4-38.7l-84-8.7 80.2-6.3c-9.2-30.7-25.9-58.1-48.1-80.1l-141.4-12h128c-32.4-26.5-73.8-42.4-118.9-42.4-85.3 0-157.3 56.8-180.4 134.6l90.7 7.7-94.6 7.5c-2.5 12.4-3.9 25.2-3.9 38.4 0 9.6 0.7 19.1 2.1 28.3l48.2 5.9-44.5 12.2c10.3 40.4 33.6 75.5 65.1 100.7l16.7-13.5-3.6 23.1q9.7 6.4 20.1 11.6l14-18.9v25.2c21.7 8.7 45.3 13.6 70.1 13.6 33.4 0 64.7-8.8 91.9-24l-4.1-22.7 15.5 15.7c39.8-26.1 69-67 80-114.8z"/>
				<path id="&lt;Path&gt;" class="s6" d="m1654.6 1510.6q70.7 8.6 141.4 17.2c21 20.7 37 46.4 46.4 75l1.7-0.1c-9.2-30.7-25.9-58.1-48.1-80.1l-80.6-6.8q-30.4-2.6-60.8-5.2z"/>
				<path id="&lt;Path&gt;" class="s6" d="m1763.9 1609q42 6.9 84 13.9c2.4 11.8 3.8 24 3.9 36.5 0-1 0.1-2 0.1-3 0-13.3-1.4-26.2-4-38.7l-55.7-5.8q-14.2-1.4-28.3-2.9z"/>
				<path id="&lt;Path&gt;" class="s7" d="m1512.7 1694.2l-31.4 8.6c0.4 1.6 0.9 3.2 1.3 4.8q21.6-8.5 43.2-17-6.6 1.8-13.1 3.6z"/>
				<path id="&lt;Path&gt;" class="s7" d="m1774.7 1687.7q35.5 8 71 16c0.5-1.6 0.9-3.3 1.3-4.9l-46.5-7.2q-12.9-1.9-25.8-3.9z"/>
				<path id="&lt;Path&gt;" class="s6" d="m1663.7 1473.4c42.1 0 81 13.8 112.3 37.2h6.6c-32.4-26.5-73.8-42.4-118.9-42.4-85.3 0-157.3 56.8-180.4 134.6l1.6 0.1c24.7-75.2 95.4-129.5 178.8-129.5z"/>
				<path id="&lt;Path&gt;" class="s6" d="m1479.4 1623.2q47.3-6.4 94.6-12.7-15.7 1.2-31.3 2.5l-63.3 5c-2.5 12.4-3.9 25.2-3.9 38.4 0 1 0.1 2 0.1 3 0.1-12.4 1.4-24.5 3.8-36.2z"/>
			</g>
			<g id="symbol">
				<path id="&lt;Compound Path&gt;" class="s8" d="m1658.3 1704q5 3.1 8 3.1 2.9 0 9.1-4.6 6.2-4.7 6.2-7.3 0-2.6-4.5-6.4-4.4-3.8-21.9-11.9-17.4-8.1-32.3-17.4-14.8-9.3-19.3-18.3-4.5-9-4.5-19 0-10 3.5-17.3 3.4-7.2 19.1-21.4 15.7-14.1 28.5-20.7v-11.7c0-8.6 7-15.6 15.6-15.6 8.5 0 15.5 7 15.5 15.6v12.8q30.7 13.8 44.9 37.9l-39 27-2.8-3.8q-15.2-19.4-22.4-19.4-3.8 0-10.1 4.7-6.2 4.7-6.2 7.6 0 2.9 4.3 6.4 4.4 3.4 21.5 12.1 17 8.6 32.4 18.1 15.4 9.5 19.9 17.2 4.4 7.8 4.4 23.2 0 15.3-5 21.9-5 6.6-17.6 16.2-12.6 9.7-24.3 15.9v12.8c0 8.6-7 15.5-15.5 15.5-8.6 0-15.6-6.9-15.6-15.5v-13.1q-13.4-4.5-27.8-15.1-14.3-10.5-21.2-22.6l39-26.9 2.8 3.8q10.3 13.1 15.3 16.2z"/>
				<path id="&lt;Compound Path&gt;" fill-rule="evenodd" class="s2" d="m1688.9 1551.1v7.9c19.6 9.7 34.3 22.8 43.8 39 2.1 3.4 1.1 7.8-2.2 10.1l-39 26.9c-1.1 0.8-2.4 1.2-3.7 1.4 6.9 3.7 13.7 7.6 20.1 11.6 11.4 7.1 18.8 13.6 22.5 19.9 3.7 6.5 5.5 15.3 5.5 27 0 12-2.2 20.7-6.6 26.5-3.8 5-10 10.7-19 17.7-7.3 5.5-14.5 10.3-21.4 14.3v8.3c0 12.7-10.4 23.1-23.1 23.1-12.8 0-23.2-10.4-23.2-23.1v-7.8c-8.1-3.3-16.3-8.1-24.7-14.2-10.4-7.6-18.2-16-23.3-25-2-3.4-1-7.8 2.3-10l39-27q0.9-0.6 1.9-0.9c-6.6-3.5-12.9-7.1-18.9-10.9-11.2-7-18.4-14-22.1-21.3-3.5-7-5.3-14.6-5.3-22.4 0-7.8 1.4-14.7 4.2-20.5 2.8-5.9 9.5-13.5 20.9-23.8 9.3-8.4 18-14.9 26-19.6v-7.2c0-12.8 10.4-23.2 23.2-23.2 12.7 0 23.1 10.4 23.1 23.2zm-38.7 0v11.7q-12.8 6.6-28.5 20.7-15.7 14.2-19.1 21.4-3.5 7.3-3.5 17.3 0 10 4.5 19 4.5 9 19.3 18.3 14.9 9.3 32.3 17.4 17.5 8.1 21.9 11.9 4.5 3.8 4.5 6.4 0 2.6-6.2 7.3-6.2 4.6-9.1 4.6-3 0-8-3.1-5-3.1-15.3-16.2l-2.8-3.8-39 26.9q6.9 12.1 21.2 22.6 14.4 10.6 27.8 15.1v13.1c0 8.6 7 15.5 15.6 15.5 8.5 0 15.5-6.9 15.5-15.5v-12.8q11.7-6.2 24.3-15.9 12.6-9.6 17.6-16.2 5-6.6 5-21.9 0-15.4-4.4-23.2-4.5-7.7-19.9-17.2-15.4-9.5-32.4-18.1-17.1-8.7-21.5-12.1-4.3-3.5-4.3-6.4 0-2.9 6.2-7.6 6.3-4.7 10.1-4.7 7.2 0 22.4 19.4l2.8 3.8 39-27q-14.2-24.1-44.9-37.9v-12.8c0-8.6-7-15.6-15.5-15.6-8.6 0-15.6 7-15.6 15.6zm4.6 67.2c1.4 1.1 5.8 4.1 20.1 11.3q2.7 1.3 5.5 2.8l-2.1-2.8c-10.8-13.8-15.5-16-16.4-16.3-0.5 0.1-2.2 0.7-5.4 3.1q-1.3 1-2 1.6 0.1 0.2 0.3 0.3zm7.6 79.3c1.9 1.2 3.1 1.7 3.7 1.8 0.6-0.3 2.1-1 4.7-3q1.1-0.8 1.8-1.4-0.2-0.2-0.4-0.3c-1.4-1.2-5.8-4.2-20.2-10.9q-1.9-0.9-3.8-1.8l0.8 1.2c8.6 10.8 12.2 13.6 13.4 14.4z"/>
			</g>
		</g>
		<g id="download_button" style="display: none">
			<path id="shadow 1 " class="s1" d="m1417.9 1690.6c0 110.5-88 200-196.7 200-108.6 0-196.7-89.5-196.7-200 0-110.4 88.1-199.9 196.7-199.9 108.7 0 196.7 89.5 196.7 199.9z"/>
			<g id="button 1 ">
				<path id="&lt;Path&gt;" class="s2" d="m1417.9 1669.8c0 110.4-88 199.9-196.7 199.9-108.6 0-196.7-89.5-196.7-199.9 0-110.4 88.1-199.9 196.7-199.9 108.7 0 196.7 89.5 196.7 199.9z"/>
				<path id="&lt;Path&gt;" class="s9" d="m1404.6 1656.4c0 101.2-82.1 183.3-183.4 183.3-101.2 0-183.3-82.1-183.3-183.3 0-101.3 82.1-183.3 183.3-183.3 101.3 0 183.4 82 183.4 183.3z"/>
				<path id="&lt;Path&gt;" class="s10" d="m1332.2 1687.7l75.1-3.5c1.4-9.1 2.1-18.4 2.1-27.8 0-13.3-1.4-26.2-4-38.7l-84-8.7 80.2-6.3c-9.1-30.7-25.9-58.1-48.1-80.1l-141.3-12h128c-32.4-26.5-73.8-42.4-119-42.4-85.3 0-157.3 56.8-180.3 134.6l90.6 7.7-94.5 7.5c-2.6 12.4-3.9 25.2-3.9 38.4 0 9.6 0.7 19.1 2.1 28.3l48.1 5.9-44.5 12.2c10.3 40.4 33.6 75.5 65.2 100.7l16.7-13.5-3.6 23.1q9.6 6.4 20 11.6l14.1-18.9v25.2c21.6 8.7 45.3 13.6 70 13.6 33.4 0 64.7-8.8 91.9-24l-4-22.7 15.4 15.7c39.8-26.1 69-67 80.1-114.8z"/>
				<path id="&lt;Path&gt;" class="s11" d="m1332.2 1687.7l75.1-3.5c1.4-9.1 2.1-18.4 2.1-27.8 0-13.3-1.4-26.2-4-38.7l-84-8.7 80.2-6.3c-9.1-30.7-25.9-58.1-48.1-80.1l-141.3-12h128c-32.4-26.5-73.8-42.4-119-42.4-85.3 0-157.3 56.8-180.3 134.6l90.6 7.7-94.5 7.5c-2.6 12.4-3.9 25.2-3.9 38.4 0 9.6 0.7 19.1 2.1 28.3l48.1 5.9-44.5 12.2c10.3 40.4 33.6 75.5 65.2 100.7l16.7-13.5-3.6 23.1q9.6 6.4 20 11.6l14.1-18.9v25.2c21.6 8.7 45.3 13.6 70 13.6 33.4 0 64.7-8.8 91.9-24l-4-22.7 15.4 15.7c39.8-26.1 69-67 80.1-114.8z"/>
				<path id="&lt;Path&gt;" class="s6" d="m1212.2 1510.6q70.7 8.6 141.3 17.2c21 20.7 37 46.4 46.4 75l1.7-0.1c-9.1-30.7-25.9-58.1-48.1-80.1l-80.5-6.8q-30.4-2.6-60.8-5.2z"/>
				<path id="&lt;Path&gt;" class="s6" d="m1321.4 1609q42 6.9 84 13.9c2.5 11.8 3.8 24 3.9 36.5 0.1-1 0.1-2 0.1-3 0-13.3-1.4-26.2-4-38.7l-55.7-5.8q-14.1-1.4-28.3-2.9z"/>
				<path id="&lt;Path&gt;" class="s7" d="m1070.3 1694.2l-31.5 8.6c0.5 1.6 0.9 3.2 1.4 4.8q21.5-8.5 43.1-17-6.5 1.8-13 3.6z"/>
				<path id="&lt;Path&gt;" class="s7" d="m1332.2 1687.7q35.6 8 71.1 16c0.4-1.6 0.9-3.3 1.3-4.9l-46.5-7.2q-13-1.9-25.9-3.9z"/>
				<path id="&lt;Path&gt;" class="s6" d="m1221.2 1473.4c42.1 0 81 13.8 112.3 37.2h6.7c-32.4-26.5-73.8-42.4-119-42.4-85.3 0-157.3 56.8-180.3 134.6l1.6 0.1c24.6-75.2 95.3-129.5 178.7-129.5z"/>
				<path id="&lt;Path&gt;" class="s6" d="m1037 1623.2q47.2-6.4 94.5-12.7-15.6 1.2-31.3 2.5l-63.2 5c-2.6 12.4-3.9 25.2-3.9 38.4 0 1 0 2 0 3 0.2-12.4 1.5-24.5 3.9-36.2z"/>
			</g>
			<g id="symbol 1 ">
				<g id="&lt;Group&gt;">
					<path id="&lt;Path&gt;" class="s12" d="m1262.5 1626.9v-65.7c0-8.9-7.2-16.1-16.1-16.1h-50.4c-8.9 0-16.1 7.2-16.1 16.1v65.7h-32.7c-4.2 0-6.4 5-3.5 8l74.1 79.3c1.8 2 5 2 6.9 0l74.1-79.3c2.8-3 0.7-8-3.5-8z"/>
					<path id="&lt;Compound Path&gt;" fill-rule="evenodd" class="s2" d="m1270.1 1561.2v58.1h25.2c4.9 0 9.4 2.9 11.4 7.4 1.9 4.6 1 9.8-2.4 13.4l-74 79.3c-2.4 2.5-5.7 3.9-9.1 3.9-3.4 0-6.7-1.4-9-3.9l-74.1-79.3c-3.4-3.6-4.3-8.8-2.3-13.4 2-4.5 6.4-7.4 11.4-7.4h25.1v-58.1c0-13.1 10.6-23.7 23.7-23.7h50.4c13.1 0 23.7 10.6 23.7 23.7zm-74.1-16.1c-8.9 0-16.1 7.2-16.1 16.1v65.7h-32.7c-4.2 0-6.4 5-3.5 8l74.1 79.3c0.9 1 2.2 1.5 3.4 1.5 1.3 0 2.6-0.5 3.5-1.5l74.1-79.3c2.8-3 0.7-8-3.5-8h-32.8v-65.7c0-8.9-7.2-16.1-16.1-16.1z"/>
				</g>
				<g id="&lt;Group&gt;">
					<path id="&lt;Path&gt;" class="s13" d="m1297.8 1773.6h-153.1c-4.7 0-8.5-3.7-8.5-8.4v-27.6c0-4.6 3.8-8.4 8.5-8.4h153.1c4.7 0 8.5 3.8 8.5 8.4v27.6c0 4.7-3.8 8.4-8.5 8.4z"/>
					<path id="&lt;Compound Path&gt;" fill-rule="evenodd" class="s2" d="m1313.9 1737.6v27.6c0 8.8-7.2 16.1-16.1 16.1h-153.1c-8.9 0-16.1-7.3-16.1-16.1v-27.6c0-8.8 7.2-16.1 16.1-16.1h153.1c8.9 0 16.1 7.3 16.1 16.1zm-169.2-8.4c-4.7 0-8.5 3.8-8.5 8.4v27.6c0 4.7 3.8 8.4 8.5 8.4h153.1c4.7 0 8.5-3.7 8.5-8.4v-27.6c0-4.6-3.8-8.4-8.5-8.4z"/>
				</g>
			</g>
		</g>
		<g id="share_button" style="display: none">
			<path id="shadow 2 " class="s1" d="m975.5 1690.6c0 110.5-88.1 200-196.7 200-108.7 0-196.7-89.5-196.7-200 0-110.4 88-199.9 196.7-199.9 108.6 0 196.7 89.5 196.7 199.9z"/>
			<g id="button 2 ">
				<path id="&lt;Path&gt;" class="s2" d="m975.5 1669.8c0 110.4-88.1 199.9-196.7 199.9-108.7 0-196.7-89.5-196.7-199.9 0-110.4 88-199.9 196.7-199.9 108.6 0 196.7 89.5 196.7 199.9z"/>
				<path id="&lt;Path&gt;" class="s14" d="m962.1 1656.4c0 101.2-82.1 183.3-183.3 183.3-101.3 0-183.4-82.1-183.4-183.3 0-101.3 82.1-183.3 183.4-183.3 101.2 0 183.3 82 183.3 183.3z"/>
				<path id="&lt;Path&gt;" class="s15" d="m889.8 1687.7l75.1-3.5c1.3-9.1 2-18.4 2-27.8 0-13.3-1.3-26.2-3.9-38.7l-84.1-8.7 80.2-6.3c-9.1-30.7-25.8-58.1-48-80.1l-141.4-12h128c-32.4-26.5-73.8-42.4-118.9-42.4-85.3 0-157.3 56.8-180.4 134.6l90.6 7.7-94.5 7.5c-2.5 12.4-3.9 25.2-3.9 38.4 0 9.6 0.7 19.1 2.1 28.3l48.1 5.9-44.4 12.2c10.2 40.4 33.5 75.5 65.1 100.7l16.7-13.5-3.6 23.1q9.7 6.4 20.1 11.6l14-18.9v25.2c21.7 8.7 45.3 13.6 70.1 13.6 33.4 0 64.7-8.8 91.9-24l-4.1-22.7 15.5 15.7c39.7-26.1 69-67 80-114.8z"/>
				<path id="&lt;Path&gt;" class="s16" d="m889.8 1687.7l75.1-3.5c1.3-9.1 2-18.4 2-27.8 0-13.3-1.3-26.2-3.9-38.7l-84.1-8.7 80.2-6.3c-9.1-30.7-25.8-58.1-48-80.1l-141.4-12h128c-32.4-26.5-73.8-42.4-118.9-42.4-85.3 0-157.3 56.8-180.4 134.6l90.6 7.7-94.5 7.5c-2.5 12.4-3.9 25.2-3.9 38.4 0 9.6 0.7 19.1 2.1 28.3l48.1 5.9-44.4 12.2c10.2 40.4 33.5 75.5 65.1 100.7l16.7-13.5-3.6 23.1q9.7 6.4 20.1 11.6l14-18.9v25.2c21.7 8.7 45.3 13.6 70.1 13.6 33.4 0 64.7-8.8 91.9-24l-4.1-22.7 15.5 15.7c39.7-26.1 69-67 80-114.8z"/>
				<path id="&lt;Path&gt;" class="s6" d="m769.7 1510.6q70.7 8.6 141.4 17.2c20.9 20.7 36.9 46.4 46.4 75l1.6-0.1c-9.1-30.7-25.8-58.1-48-80.1l-80.6-6.8q-30.4-2.6-60.8-5.2z"/>
				<path id="&lt;Path&gt;" class="s6" d="m878.9 1609q42 6.9 84.1 13.9c2.4 11.8 3.7 24 3.9 36.5 0-1 0-2 0-3 0-13.3-1.3-26.2-3.9-38.7l-55.7-5.8q-14.2-1.4-28.4-2.9z"/>
				<path id="&lt;Path&gt;" class="s7" d="m627.8 1694.2l-31.4 8.6c0.4 1.6 0.9 3.2 1.3 4.8q21.6-8.5 43.1-17-6.5 1.8-13 3.6z"/>
				<path id="&lt;Path&gt;" class="s7" d="m889.8 1687.7q35.5 8 71 16c0.5-1.6 0.9-3.3 1.3-4.9l-46.5-7.2q-12.9-1.9-25.8-3.9z"/>
				<path id="&lt;Path&gt;" class="s6" d="m778.8 1473.4c42.1 0 80.9 13.8 112.3 37.2h6.6c-32.4-26.5-73.8-42.4-118.9-42.4-85.3 0-157.3 56.8-180.4 134.6l1.6 0.1c24.7-75.2 95.3-129.5 178.8-129.5z"/>
				<path id="&lt;Path&gt;" class="s6" d="m594.5 1623.2q47.3-6.4 94.5-12.7-15.6 1.2-31.2 2.5l-63.3 5c-2.5 12.4-3.9 25.2-3.9 38.4 0 1 0 2 0.1 3 0.1-12.4 1.4-24.5 3.8-36.2z"/>
			</g>
			<g id="symbol 2 ">
				<path id="&lt;Path&gt;" class="s17" d="m849.7 1619c-9.1 0-17.4 3-24.1 8.1l-74.8-47.1c0.2-1.4 0.3-2.8 0.3-4.2 0-18.5-15-33.5-33.4-33.5-18.5 0-33.4 15-33.4 33.5 0 18.4 14.9 33.4 33.4 33.4 6.7 0 12.9-2 18.1-5.4l74.8 47.1q-0.8 3.9-0.8 8 0 2.2 0.2 4.3l-75.2 38c-7.1-6.5-16.5-10.6-26.9-10.6-22.1 0-39.9 17.9-39.9 39.9 0 22.1 17.8 39.9 39.9 39.9 22 0 39.8-17.8 39.8-39.9q0-2.1-0.2-4.3l75.3-38c7.1 6.5 16.5 10.6 26.9 10.6 22 0 39.9-17.9 39.9-39.9 0-22-17.9-39.9-39.9-39.9z"/>
				<path id="&lt;Compound Path&gt;" fill-rule="evenodd" class="s2" d="m758.7 1575.8q0 0.1 0 0.2l66.8 42c7.3-4.3 15.6-6.6 24.2-6.6 26.2 0 47.5 21.3 47.5 47.5 0 26.2-21.3 47.5-47.5 47.5-10.1 0-19.8-3.2-27.9-9.1l-66.4 33.5c-0.2 26.1-21.4 47.2-47.5 47.2-26.2 0-47.5-21.3-47.5-47.5 0-26.2 21.3-47.5 47.5-47.5 10 0 19.8 3.2 27.9 9.1l66.4-33.5q0-2 0.2-3.9l-66.8-42c-5.6 2.7-11.7 4.1-17.9 4.1-22.6 0-41.1-18.4-41.1-41 0-22.7 18.5-41.1 41.1-41.1 22.6 0 41 18.4 41 41.1zm-74.4 0c0 18.4 14.9 33.4 33.4 33.4 6.7 0 12.9-2 18.1-5.4l74.8 47.1q-0.8 3.9-0.8 8 0 2.2 0.2 4.3l-75.2 38c-7.1-6.5-16.5-10.6-26.9-10.6-22.1 0-39.9 17.9-39.9 39.9 0 22.1 17.8 39.9 39.9 39.9 22 0 39.8-17.8 39.8-39.9q0-2.1-0.2-4.3l75.3-38c7.1 6.5 16.5 10.6 26.9 10.6 22 0 39.9-17.9 39.9-39.9 0-22-17.9-39.9-39.9-39.9-9.1 0-17.4 3-24.1 8.1l-74.8-47.1c0.2-1.4 0.3-2.8 0.3-4.2 0-18.5-15-33.5-33.4-33.5-18.5 0-33.4 15-33.4 33.5z"/>
			</g>
		</g>
		<g id="lock_button" style="display: none">
			<path id="shadow 3 " class="s1" d="m533 1690.6c0 110.5-88.1 200-196.7 200-108.6 0-196.7-89.5-196.7-200 0-110.4 88.1-199.9 196.7-199.9 108.6 0 196.7 89.5 196.7 199.9z"/>
			<g id="button 3 ">
				<path id="&lt;Path&gt;" class="s2" d="m533 1669.8c0 110.4-88.1 199.9-196.7 199.9-108.6 0-196.7-89.5-196.7-199.9 0-110.4 88.1-199.9 196.7-199.9 108.6 0 196.7 89.5 196.7 199.9z"/>
				<path id="&lt;Path&gt;" class="s18" d="m519.6 1656.4c0 101.2-82 183.3-183.3 183.3-101.2 0-183.3-82.1-183.3-183.3 0-101.3 82.1-183.3 183.3-183.3 101.3 0 183.3 82 183.3 183.3z"/>
				<path id="&lt;Path&gt;" class="s19" d="m447.3 1687.7l75.1-3.5c1.4-9.1 2.1-18.4 2.1-27.8 0-13.3-1.4-26.2-4-38.7l-84-8.7 80.2-6.3c-9.2-30.7-25.9-58.1-48.1-80.1l-141.3-12h128c-32.5-26.5-73.9-42.4-119-42.4-85.3 0-157.3 56.8-180.4 134.6l90.7 7.7-94.5 7.5c-2.6 12.4-4 25.2-4 38.4 0 9.6 0.8 19.1 2.2 28.3l48.1 5.9-44.5 12.2c10.3 40.4 33.6 75.5 65.2 100.7l16.7-13.5-3.6 23.1q9.6 6.4 20 11.6l14.1-18.9v25.2c21.6 8.7 45.2 13.6 70 13.6 33.4 0 64.7-8.8 91.9-24l-4-22.7 15.4 15.7c39.8-26.1 69-67 80-114.8z"/>
				<path id="&lt;Path&gt;" class="s20" d="m447.3 1687.7l75.1-3.5c1.4-9.1 2.1-18.4 2.1-27.8 0-13.3-1.4-26.2-4-38.7l-84-8.7 80.2-6.3c-9.2-30.7-25.9-58.1-48.1-80.1l-141.3-12h128c-32.5-26.5-73.9-42.4-119-42.4-85.3 0-157.3 56.8-180.4 134.6l90.7 7.7-94.5 7.5c-2.6 12.4-4 25.2-4 38.4 0 9.6 0.8 19.1 2.2 28.3l48.1 5.9-44.5 12.2c10.3 40.4 33.6 75.5 65.2 100.7l16.7-13.5-3.6 23.1q9.6 6.4 20 11.6l14.1-18.9v25.2c21.6 8.7 45.2 13.6 70 13.6 33.4 0 64.7-8.8 91.9-24l-4-22.7 15.4 15.7c39.8-26.1 69-67 80-114.8z"/>
				<path id="&lt;Path&gt;" class="s6" d="m327.3 1510.6q70.6 8.6 141.3 17.2c21 20.7 37 46.4 46.4 75l1.7-0.1c-9.2-30.7-25.9-58.1-48.1-80.1l-80.5-6.8q-30.4-2.6-60.8-5.2z"/>
				<path id="&lt;Path&gt;" class="s6" d="m436.5 1609q42 6.9 84 13.9c2.5 11.8 3.8 24 3.9 36.5 0-1 0.1-2 0.1-3 0-13.3-1.4-26.2-4-38.7l-55.7-5.8q-14.2-1.4-28.3-2.9z"/>
				<path id="&lt;Path&gt;" class="s7" d="m185.4 1694.2l-31.5 8.6c0.4 1.6 0.9 3.2 1.4 4.8q21.5-8.5 43.1-17-6.5 1.8-13 3.6z"/>
				<path id="&lt;Path&gt;" class="s7" d="m447.3 1687.7q35.5 8 71.1 16c0.4-1.6 0.9-3.3 1.2-4.9l-46.5-7.2q-12.9-1.9-25.8-3.9z"/>
				<path id="&lt;Path&gt;" class="s6" d="m336.3 1473.4c42.1 0 81 13.8 112.3 37.2h6.7c-32.5-26.5-73.9-42.4-119-42.4-85.3 0-157.3 56.8-180.4 134.6l1.6 0.1c24.7-75.2 95.4-129.5 178.8-129.5z"/>
				<path id="&lt;Path&gt;" class="s6" d="m152.1 1623.2q47.2-6.4 94.5-12.7-15.7 1.2-31.3 2.5l-63.2 5c-2.6 12.4-4 25.2-4 38.4 0 1 0.1 2 0.1 3 0.1-12.4 1.4-24.5 3.9-36.2z"/>
			</g>
			<g id="symbol 3 ">
				<path id="&lt;Compound Path&gt;" fill-rule="evenodd" class="s21" d="m421.5 1629.4v108.5c0 10.8-8.7 19.5-19.5 19.5h-131.4c-10.7 0-19.5-8.7-19.5-19.5v-108.5c0-8 4.8-14.8 11.6-17.8 2-38.9 34.2-69.9 73.6-69.9 39.4 0 71.6 31 73.6 69.9 6.9 3 11.6 9.8 11.6 17.8zm-59.3 33c0-16-14.5-28.6-31.1-25.4-10.4 2-18.6 10.6-20.3 21-1.6 9.7 2.2 18.7 8.9 24.3v37.8c0 6.2 5 11.2 11.2 11.2h10.8c6.2 0 11.2-5 11.2-11.2v-37.8c5.7-4.8 9.3-11.9 9.3-19.9zm14.5-52.5c-2.7-19.9-19.7-35.3-40.4-35.3-20.6 0-37.7 15.4-40.4 35.3z"/>
				<path id="&lt;Compound Path&gt;" fill-rule="evenodd" class="s2" d="m417.2 1606.9c7.4 5 11.9 13.4 11.9 22.5v108.5c0 15-12.1 27.1-27.1 27.1h-131.4c-14.9 0-27.1-12.1-27.1-27.1v-108.5c0-9.1 4.5-17.5 11.9-22.5 4.3-41.1 39-72.8 80.9-72.8 41.9 0 76.6 31.7 80.9 72.8zm-154.5 4.7c-6.8 3-11.6 9.8-11.6 17.8v108.5c0 10.8 8.8 19.5 19.5 19.5h131.4c10.8 0 19.5-8.7 19.5-19.5v-108.5c0-8-4.7-14.8-11.6-17.8-2-38.9-34.2-69.9-73.6-69.9-39.4 0-71.6 31-73.6 69.9zm57 108.5v-37.8c-6.7-5.6-10.5-14.6-8.9-24.3 1.7-10.4 9.9-19 20.3-21q2.7-0.5 5.2-0.5c14.3 0 25.9 11.6 25.9 25.9 0 8-3.6 15.1-9.3 19.9v37.8c0 6.2-5 11.2-11.2 11.2h-10.8c-6.2 0-11.2-5-11.2-11.2zm16.6-145.5c20.7 0 37.7 15.4 40.4 35.3h-80.8c2.7-19.9 19.8-35.3 40.4-35.3zm30.5 27.6c-5.2-11.8-17.1-20-30.5-20-13.4 0-25.3 8.2-30.4 20zm-25.1 121.5c2 0 3.6-1.6 3.6-3.6v-37.8c0-2.3 1-4.4 2.7-5.9 4.2-3.5 6.6-8.6 6.6-14 0-4.9-1.9-9.5-5.3-12.9-3.5-3.5-8.1-5.4-13-5.4q-1.8 0-3.7 0.4c-7.2 1.4-13.1 7.4-14.3 14.7-1.1 6.6 1.3 13 6.3 17.2 1.7 1.5 2.7 3.6 2.7 5.9v37.8c0 2 1.6 3.6 3.6 3.6z"/>
			</g>
		</g>
		<g id="off_button" style="display: none">
			<path id="shadow 8 " class="s1" d="m1860.4 1236.4c0 110.4-88.1 199.9-196.7 199.9-108.6 0-196.7-89.5-196.7-199.9 0-110.4 88.1-199.9 196.7-199.9 108.6 0 196.7 89.5 196.7 199.9z"/>
			<g id="button 8 ">
				<path id="&lt;Path&gt;" class="s2" d="m1860.4 1215.5c0 110.5-88.1 200-196.7 200-108.6 0-196.7-89.5-196.7-200 0-110.4 88.1-199.9 196.7-199.9 108.6 0 196.7 89.5 196.7 199.9z"/>
				<path id="&lt;Path&gt;" class="s22" d="m1847 1202.1c0 101.3-82.1 183.3-183.3 183.3-101.3 0-183.3-82-183.3-183.3 0-101.2 82-183.3 183.3-183.3 101.2 0 183.3 82.1 183.3 183.3z"/>
				<path id="&lt;Path&gt;" class="s23" d="m1774.7 1233.4l75.1-3.5c1.3-9.1 2.1-18.3 2.1-27.8 0-13.2-1.4-26.1-4-38.6l-84-8.8 80.2-6.3c-9.2-30.7-25.9-58.1-48.1-80.1l-141.4-12h128c-32.4-26.5-73.8-42.4-118.9-42.4-85.3 0-157.3 56.8-180.4 134.6l90.7 7.7-94.6 7.6c-2.5 12.4-3.9 25.2-3.9 38.3 0 9.7 0.7 19.1 2.1 28.4l48.2 5.9-44.5 12.2c10.3 40.3 33.6 75.5 65.1 100.7l16.7-13.5-3.6 23q9.7 6.4 20.1 11.7l14-19v25.3c21.7 8.7 45.3 13.5 70.1 13.5 33.4 0 64.7-8.7 91.9-24l-4.1-22.7 15.5 15.8c39.8-26.2 69-67.1 80-114.9z"/>
				<path id="&lt;Path&gt;" class="s24" d="m1774.7 1233.4l75.1-3.5c1.3-9.1 2.1-18.3 2.1-27.8 0-13.2-1.4-26.1-4-38.6l-84-8.8 80.2-6.3c-9.2-30.7-25.9-58.1-48.1-80.1l-141.4-12h128c-32.4-26.5-73.8-42.4-118.9-42.4-85.3 0-157.3 56.8-180.4 134.6l90.7 7.7-94.6 7.6c-2.5 12.4-3.9 25.2-3.9 38.3 0 9.7 0.7 19.1 2.1 28.4l48.2 5.9-44.5 12.2c10.3 40.3 33.6 75.5 65.1 100.7l16.7-13.5-3.6 23q9.7 6.4 20.1 11.7l14-19v25.3c21.7 8.7 45.3 13.5 70.1 13.5 33.4 0 64.7-8.7 91.9-24l-4.1-22.7 15.5 15.8c39.8-26.2 69-67.1 80-114.9z"/>
				<path id="&lt;Path&gt;" class="s6" d="m1654.6 1056.3q70.7 8.6 141.4 17.2c21 20.7 37 46.4 46.4 75.1l1.7-0.2c-9.2-30.7-25.9-58.1-48.1-80.1l-80.6-6.8q-30.4-2.6-60.8-5.2z"/>
				<path id="&lt;Path&gt;" class="s6" d="m1763.9 1154.7q42 7 84 13.9c2.4 11.8 3.8 24 3.9 36.5 0-1 0.1-2 0.1-3 0-13.2-1.4-26.1-4-38.6l-55.7-5.8q-14.2-1.5-28.3-3z"/>
				<path id="&lt;Path&gt;" class="s7" d="m1512.7 1240l-31.4 8.6c0.4 1.6 0.9 3.2 1.3 4.8q21.6-8.5 43.2-17-6.6 1.8-13.1 3.6z"/>
				<path id="&lt;Path&gt;" class="s7" d="m1774.7 1233.4q35.5 8.1 71 16.1c0.5-1.7 0.9-3.3 1.3-5l-46.5-7.1q-12.9-2-25.8-4z"/>
				<path id="&lt;Path&gt;" class="s6" d="m1663.7 1019.1c42.1 0 81 13.9 112.3 37.2h6.6c-32.4-26.5-73.8-42.4-118.9-42.4-85.3 0-157.3 56.8-180.4 134.6l1.6 0.1c24.7-75.2 95.4-129.5 178.8-129.5z"/>
				<path id="&lt;Path&gt;" class="s6" d="m1479.4 1168.9q47.3-6.3 94.6-12.7-15.7 1.3-31.3 2.5l-63.3 5.1c-2.5 12.4-3.9 25.2-3.9 38.3 0 1 0.1 2 0.1 3 0.1-12.4 1.4-24.5 3.8-36.2z"/>
			</g>
			<g id="symbol 8 ">
				<g id="&lt;Group&gt;">
					<path id="&lt;Path&gt;" class="s25" d="m1695.6 1141.7c0 4.8 2.2 9.4 6.1 12.1 19.9 13.7 32.1 37.6 28.8 64.2-3.7 30.5-28.5 54.9-59 58.3-40.7 4.6-75.2-27.1-75.2-66.9 0-23.1 11.7-43.5 29.4-55.6 3.9-2.7 6.1-7.2 6.1-12 0-11.8-13.1-18.8-22.8-12.2-27.8 19.1-45.2 52.4-41.6 89.4 4.5 46.8 43.1 84 90 87 56.3 3.5 103-41.1 103-96.6 0-33.2-16.7-62.5-42.3-79.9-9.5-6.6-22.5 0.6-22.5 12.2z"/>
					<path id="&lt;Compound Path&gt;" fill-rule="evenodd" class="s2" d="m1722.4 1123.2c28.6 19.5 45.6 51.7 45.6 86.2 0 57.6-46.8 104.4-104.3 104.4-2.3 0-4.5-0.1-6.8-0.2-24.5-1.6-47.8-12-65.7-29.2-17.9-17.3-29-40.3-31.4-64.7-1.8-19.1 1.6-38.3 9.8-55.4 7.9-16.4 20-30.6 35.1-40.9 3.7-2.6 8-3.9 12.4-3.9 12.3 0 22.3 10 22.3 22.3 0 7.4-3.5 14.3-9.4 18.3-16.3 11.2-26 29.6-26 49.3 0 33 26.8 59.7 59.7 59.7 2.3 0 4.6-0.1 6.9-0.3 27-3.1 49-24.8 52.3-51.8 2.8-22.4-7-44.2-25.5-56.9-5.9-4-9.5-10.9-9.5-18.4 0-12.3 10-22.3 22.3-22.3 4.4 0 8.6 1.3 12.2 3.8zm-26.8 18.5c0 4.8 2.2 9.4 6.1 12.1 19.9 13.7 32.1 37.6 28.8 64.2-3.7 30.5-28.5 54.9-59 58.3q-4 0.5-7.8 0.5c-37.2 0-67.4-30.2-67.4-67.4 0-23.1 11.7-43.5 29.4-55.6 3.9-2.7 6.1-7.2 6.1-12 0-8.6-7.1-14.7-14.7-14.7-2.7 0-5.5 0.8-8.1 2.5-27.8 19.1-45.2 52.4-41.6 89.4 4.5 46.8 43.1 84 90 87q3.2 0.1 6.3 0.1c53.4 0 96.7-43.3 96.7-96.7 0-33.2-16.7-62.5-42.3-79.9-2.5-1.7-5.2-2.5-7.9-2.5-7.5 0-14.6 6.2-14.6 14.7z"/>
				</g>
				<g id="&lt;Group&gt;">
					<path id="&lt;Path&gt;" class="s26" d="m1663.7 1213.9c-9.9 0-17.9-8-17.9-17.8v-74.2c0-9.8 8-17.8 17.9-17.8 9.8 0 17.8 8 17.8 17.8v74.2c0 9.8-8 17.8-17.8 17.8z"/>
					<path id="&lt;Compound Path&gt;" fill-rule="evenodd" class="s2" d="m1689.2 1121.9v74.2c0 14-11.5 25.5-25.5 25.5-14.1 0-25.5-11.5-25.5-25.5v-74.2c0-14 11.4-25.4 25.5-25.4 14 0 25.5 11.4 25.5 25.4zm-25.5-17.8c-9.9 0-17.9 8-17.9 17.8v74.2c0 9.8 8 17.8 17.9 17.8 9.8 0 17.8-8 17.8-17.8v-74.2c0-9.8-8-17.8-17.8-17.8z"/>
				</g>
			</g>
		</g>
		<g id="info_button" style="display: none">
			<path id="shadow 7 " class="s1" d="m1417.9 1236.4c0 110.4-88 199.9-196.7 199.9-108.6 0-196.7-89.5-196.7-199.9 0-110.4 88.1-199.9 196.7-199.9 108.7 0 196.7 89.5 196.7 199.9z"/>
			<g id="button 7 ">
				<path id="&lt;Path&gt;" class="s2" d="m1417.9 1215.5c0 110.5-88 200-196.7 200-108.6 0-196.7-89.5-196.7-200 0-110.4 88.1-199.9 196.7-199.9 108.7 0 196.7 89.5 196.7 199.9z"/>
				<path id="&lt;Path&gt;" class="s27" d="m1404.6 1202.1c0 101.3-82.1 183.3-183.4 183.3-101.2 0-183.3-82-183.3-183.3 0-101.2 82.1-183.3 183.3-183.3 101.3 0 183.4 82.1 183.4 183.3z"/>
				<path id="&lt;Path&gt;" class="s28" d="m1332.2 1233.4l75.1-3.5c1.4-9.1 2.1-18.3 2.1-27.8 0-13.2-1.4-26.1-4-38.6l-84-8.8 80.2-6.3c-9.1-30.7-25.9-58.1-48.1-80.1l-141.3-12h128c-32.4-26.5-73.8-42.4-119-42.4-85.3 0-157.3 56.8-180.3 134.6l90.6 7.7-94.5 7.6c-2.6 12.4-3.9 25.2-3.9 38.3 0 9.7 0.7 19.1 2.1 28.4l48.1 5.9-44.5 12.2c10.3 40.3 33.6 75.5 65.2 100.7l16.7-13.5-3.6 23q9.6 6.4 20 11.7l14.1-19v25.3c21.6 8.7 45.3 13.5 70 13.5 33.4 0 64.7-8.7 91.9-24l-4-22.7 15.4 15.8c39.8-26.2 69-67.1 80.1-114.9z"/>
				<path id="&lt;Path&gt;" class="s29" d="m1332.2 1233.4l75.1-3.5c1.4-9.1 2.1-18.3 2.1-27.8 0-13.2-1.4-26.1-4-38.6l-84-8.8 80.2-6.3c-9.1-30.7-25.9-58.1-48.1-80.1l-141.3-12h128c-32.4-26.5-73.8-42.4-119-42.4-85.3 0-157.3 56.8-180.3 134.6l90.6 7.7-94.5 7.6c-2.6 12.4-3.9 25.2-3.9 38.3 0 9.7 0.7 19.1 2.1 28.4l48.1 5.9-44.5 12.2c10.3 40.3 33.6 75.5 65.2 100.7l16.7-13.5-3.6 23q9.6 6.4 20 11.7l14.1-19v25.3c21.6 8.7 45.3 13.5 70 13.5 33.4 0 64.7-8.7 91.9-24l-4-22.7 15.4 15.8c39.8-26.2 69-67.1 80.1-114.9z"/>
				<path id="&lt;Path&gt;" class="s6" d="m1212.2 1056.3q70.7 8.6 141.3 17.2c21 20.7 37 46.4 46.4 75.1l1.7-0.2c-9.1-30.7-25.9-58.1-48.1-80.1l-80.5-6.8q-30.4-2.6-60.8-5.2z"/>
				<path id="&lt;Path&gt;" class="s6" d="m1321.4 1154.7q42 7 84 13.9c2.5 11.8 3.8 24 3.9 36.5 0.1-1 0.1-2 0.1-3 0-13.2-1.4-26.1-4-38.6l-55.7-5.8q-14.1-1.5-28.3-3z"/>
				<path id="&lt;Path&gt;" class="s7" d="m1070.3 1240l-31.5 8.6c0.5 1.6 0.9 3.2 1.4 4.8q21.5-8.5 43.1-17-6.5 1.8-13 3.6z"/>
				<path id="&lt;Path&gt;" class="s7" d="m1332.2 1233.4q35.6 8.1 71.1 16.1c0.4-1.7 0.9-3.3 1.3-5l-46.5-7.1q-13-2-25.9-4z"/>
				<path id="&lt;Path&gt;" class="s6" d="m1221.2 1019.1c42.1 0 81 13.9 112.3 37.2h6.7c-32.4-26.5-73.8-42.4-119-42.4-85.3 0-157.3 56.8-180.3 134.6l1.6 0.1c24.6-75.2 95.3-129.5 178.7-129.5z"/>
				<path id="&lt;Path&gt;" class="s6" d="m1037 1168.9q47.2-6.3 94.5-12.7-15.6 1.3-31.3 2.5l-63.2 5.1c-2.6 12.4-3.9 25.2-3.9 38.3 0 1 0 2 0 3 0.2-12.4 1.5-24.5 3.9-36.2z"/>
			</g>
			<g id="symbol 7 ">
				<g id="&lt;Group&gt;">
					<path id="&lt;Path&gt;" class="s30" d="m1221.2 1319.6c-15.2 0-27.6-12.4-27.6-27.7v-104.5c0-15.2 12.4-27.6 27.6-27.6 15.3 0 27.7 12.4 27.7 27.6v104.5c0 15.3-12.4 27.7-27.7 27.7z"/>
					<path id="&lt;Compound Path&gt;" fill-rule="evenodd" class="s2" d="m1256.5 1187.4v104.5c0 19.5-15.8 35.3-35.3 35.3-19.4 0-35.2-15.8-35.2-35.3v-104.5c0-19.4 15.8-35.2 35.2-35.2 19.5 0 35.3 15.8 35.3 35.2zm-35.3-27.6c-15.2 0-27.6 12.4-27.6 27.6v104.5c0 15.3 12.4 27.7 27.6 27.7 15.3 0 27.7-12.4 27.7-27.7v-104.5c0-15.2-12.4-27.6-27.7-27.6z"/>
				</g>
				<g id="&lt;Group&gt;">
					<path id="&lt;Path&gt;" class="s31" d="m1248.9 1112.3c0 15.3-12.4 27.6-27.7 27.6-15.2 0-27.6-12.3-27.6-27.6 0-15.3 12.4-27.6 27.6-27.6 15.3 0 27.7 12.3 27.7 27.6z"/>
					<path id="&lt;Compound Path&gt;" fill-rule="evenodd" class="s2" d="m1256.5 1112.3c0 19.4-15.8 35.3-35.3 35.3-19.4 0-35.2-15.9-35.2-35.3 0-19.4 15.8-35.2 35.2-35.2 19.5 0 35.3 15.8 35.3 35.2zm-62.9 0c0 15.3 12.4 27.6 27.6 27.6 15.3 0 27.7-12.3 27.7-27.6 0-15.3-12.4-27.6-27.7-27.6-15.2 0-27.6 12.3-27.6 27.6z"/>
				</g>
			</g>
		</g>
		<g id="yes_button" style="display: none">
			<path id="shadow 11 " class="s1" d="m975.5 1236.4c0 110.4-88.1 199.9-196.7 199.9-108.7 0-196.7-89.5-196.7-199.9 0-110.4 88-199.9 196.7-199.9 108.6 0 196.7 89.5 196.7 199.9z"/>
			<g id="button 11 ">
				<path id="&lt;Path&gt;" class="s2" d="m975.5 1215.5c0 110.5-88.1 200-196.7 200-108.7 0-196.7-89.5-196.7-200 0-110.4 88-199.9 196.7-199.9 108.6 0 196.7 89.5 196.7 199.9z"/>
				<path id="&lt;Path&gt;" class="s32" d="m962.1 1202.1c0 101.3-82.1 183.3-183.3 183.3-101.3 0-183.4-82-183.4-183.3 0-101.2 82.1-183.3 183.4-183.3 101.2 0 183.3 82.1 183.3 183.3z"/>
				<path id="&lt;Path&gt;" class="s33" d="m889.8 1233.4l75.1-3.5c1.3-9.1 2-18.3 2-27.8 0-13.2-1.3-26.1-3.9-38.6l-84.1-8.8 80.2-6.3c-9.1-30.7-25.8-58.1-48-80.1l-141.4-12h128c-32.4-26.5-73.8-42.4-118.9-42.4-85.3 0-157.3 56.8-180.4 134.6l90.6 7.7-94.5 7.6c-2.5 12.4-3.9 25.2-3.9 38.3 0 9.7 0.7 19.1 2.1 28.4l48.1 5.9-44.4 12.2c10.2 40.3 33.5 75.5 65.1 100.7l16.7-13.5-3.6 23q9.7 6.4 20.1 11.7l14-19v25.3c21.7 8.7 45.3 13.5 70.1 13.5 33.4 0 64.7-8.7 91.9-24l-4.1-22.7 15.5 15.8c39.7-26.2 69-67.1 80-114.9z"/>
				<path id="&lt;Path&gt;" class="s34" d="m889.8 1233.4l75.1-3.5c1.3-9.1 2-18.3 2-27.8 0-13.2-1.3-26.1-3.9-38.6l-84.1-8.8 80.2-6.3c-9.1-30.7-25.8-58.1-48-80.1l-141.4-12h128c-32.4-26.5-73.8-42.4-118.9-42.4-85.3 0-157.3 56.8-180.4 134.6l90.6 7.7-94.5 7.6c-2.5 12.4-3.9 25.2-3.9 38.3 0 9.7 0.7 19.1 2.1 28.4l48.1 5.9-44.4 12.2c10.2 40.3 33.5 75.5 65.1 100.7l16.7-13.5-3.6 23q9.7 6.4 20.1 11.7l14-19v25.3c21.7 8.7 45.3 13.5 70.1 13.5 33.4 0 64.7-8.7 91.9-24l-4.1-22.7 15.5 15.8c39.7-26.2 69-67.1 80-114.9z"/>
				<path id="&lt;Path&gt;" class="s6" d="m769.7 1056.3q70.7 8.6 141.4 17.2c20.9 20.7 36.9 46.4 46.4 75.1l1.6-0.2c-9.1-30.7-25.8-58.1-48-80.1l-80.6-6.8q-30.4-2.6-60.8-5.2z"/>
				<path id="&lt;Path&gt;" class="s6" d="m878.9 1154.7q42 7 84.1 13.9c2.4 11.8 3.7 24 3.9 36.5 0-1 0-2 0-3 0-13.2-1.3-26.1-3.9-38.6l-55.7-5.8q-14.2-1.5-28.4-3z"/>
				<path id="&lt;Path&gt;" class="s7" d="m627.8 1240l-31.4 8.6c0.4 1.6 0.9 3.2 1.3 4.8q21.6-8.5 43.1-17-6.5 1.8-13 3.6z"/>
				<path id="&lt;Path&gt;" class="s7" d="m889.8 1233.4q35.5 8.1 71 16.1c0.5-1.7 0.9-3.3 1.3-5l-46.5-7.1q-12.9-2-25.8-4z"/>
				<path id="&lt;Path&gt;" class="s6" d="m778.8 1019.1c42.1 0 80.9 13.9 112.3 37.2h6.6c-32.4-26.5-73.8-42.4-118.9-42.4-85.3 0-157.3 56.8-180.4 134.6l1.6 0.1c24.7-75.2 95.3-129.5 178.8-129.5z"/>
				<path id="&lt;Path&gt;" class="s6" d="m594.5 1168.9q47.3-6.3 94.5-12.7-15.6 1.3-31.2 2.5l-63.3 5.1c-2.5 12.4-3.9 25.2-3.9 38.3 0 1 0 2 0.1 3 0.1-12.4 1.4-24.5 3.8-36.2z"/>
			</g>
			<g id="symbol 11 ">
				<path id="&lt;Path&gt;" class="s35" d="m904.8 1133.9l-23.2-23.2c-4.7-4.7-12.2-4.7-16.9 0l-122 122-49.9-49.8c-4.6-4.7-12.2-4.7-16.8 0l-23.3 23.2c-4.6 4.7-4.6 12.2 0 16.9l58.3 58.2 14.8 14.9c9.3 9.3 24.4 9.3 33.7 0l14.8-14.9 130.5-130.4c4.7-4.7 4.7-12.2 0-16.9z"/>
				<path id="&lt;Compound Path&gt;" fill-rule="evenodd" class="s2" d="m887 1105.3l23.2 23.2c7.6 7.6 7.6 20 0 27.7l-130.5 130.4-14.8 14.8c-5.9 6-13.8 9.3-22.2 9.3-8.4 0-16.3-3.3-22.3-9.3l-14.8-14.8-58.3-58.2c-3.7-3.7-5.7-8.6-5.7-13.9 0-5.2 2-10.1 5.7-13.8l23.3-23.2c3.7-3.7 8.6-5.8 13.8-5.8 5.2 0 10.1 2.1 13.8 5.8l44.5 44.4 116.6-116.6c3.7-3.7 8.6-5.8 13.8-5.8 5.3 0 10.2 2.1 13.9 5.8zm-22.3 5.4l-122 122-49.9-49.8c-2.3-2.4-5.3-3.5-8.4-3.5-3 0-6.1 1.1-8.4 3.5l-23.3 23.2c-4.6 4.7-4.6 12.2 0 16.9l58.3 58.2 14.8 14.9c4.7 4.6 10.8 6.9 16.9 6.9 6.1 0 12.2-2.3 16.8-6.9l145.3-145.3c4.7-4.7 4.7-12.2 0-16.9l-23.2-23.2c-2.4-2.4-5.4-3.5-8.5-3.5-3 0-6.1 1.1-8.4 3.5z"/>
			</g>
		</g>
		<g id="menu_button" style="display: none">
			<path id="shadow 13 " class="s1" d="m533 1236.4c0 110.4-88.1 199.9-196.7 199.9-108.6 0-196.7-89.5-196.7-199.9 0-110.4 88.1-199.9 196.7-199.9 108.6 0 196.7 89.5 196.7 199.9z"/>
			<g id="button 13 ">
				<path id="&lt;Path&gt;" class="s2" d="m533 1215.5c0 110.5-88.1 200-196.7 200-108.6 0-196.7-89.5-196.7-200 0-110.4 88.1-199.9 196.7-199.9 108.6 0 196.7 89.5 196.7 199.9z"/>
				<path id="&lt;Path&gt;" class="s36" d="m519.6 1202.1c0 101.3-82 183.3-183.3 183.3-101.2 0-183.3-82-183.3-183.3 0-101.2 82.1-183.3 183.3-183.3 101.3 0 183.3 82.1 183.3 183.3z"/>
				<path id="&lt;Path&gt;" class="s37" d="m447.3 1233.4l75.1-3.5c1.4-9.1 2.1-18.3 2.1-27.8 0-13.2-1.4-26.1-4-38.6l-84-8.8 80.2-6.3c-9.2-30.7-25.9-58.1-48.1-80.1l-141.3-12h128c-32.5-26.5-73.9-42.4-119-42.4-85.3 0-157.3 56.8-180.4 134.6l90.7 7.7-94.5 7.6c-2.6 12.4-4 25.2-4 38.3 0 9.7 0.8 19.1 2.2 28.4l48.1 5.9-44.5 12.2c10.3 40.3 33.6 75.5 65.2 100.7l16.7-13.5-3.6 23q9.6 6.4 20 11.7l14.1-19v25.3c21.6 8.7 45.2 13.5 70 13.5 33.4 0 64.7-8.7 91.9-24l-4-22.7 15.4 15.8c39.8-26.2 69-67.1 80-114.9z"/>
				<path id="&lt;Path&gt;" class="s38" d="m447.3 1233.4l75.1-3.5c1.4-9.1 2.1-18.3 2.1-27.8 0-13.2-1.4-26.1-4-38.6l-84-8.8 80.2-6.3c-9.2-30.7-25.9-58.1-48.1-80.1l-141.3-12h128c-32.5-26.5-73.9-42.4-119-42.4-85.3 0-157.3 56.8-180.4 134.6l90.7 7.7-94.5 7.6c-2.6 12.4-4 25.2-4 38.3 0 9.7 0.8 19.1 2.2 28.4l48.1 5.9-44.5 12.2c10.3 40.3 33.6 75.5 65.2 100.7l16.7-13.5-3.6 23q9.6 6.4 20 11.7l14.1-19v25.3c21.6 8.7 45.2 13.5 70 13.5 33.4 0 64.7-8.7 91.9-24l-4-22.7 15.4 15.8c39.8-26.2 69-67.1 80-114.9z"/>
				<path id="&lt;Path&gt;" class="s6" d="m327.3 1056.3q70.6 8.6 141.3 17.2c21 20.7 37 46.4 46.4 75.1l1.7-0.2c-9.2-30.7-25.9-58.1-48.1-80.1l-80.5-6.8q-30.4-2.6-60.8-5.2z"/>
				<path id="&lt;Path&gt;" class="s6" d="m436.5 1154.7q42 7 84 13.9c2.5 11.8 3.8 24 3.9 36.5 0-1 0.1-2 0.1-3 0-13.2-1.4-26.1-4-38.6l-55.7-5.8q-14.2-1.5-28.3-3z"/>
				<path id="&lt;Path&gt;" class="s7" d="m185.4 1240l-31.5 8.6c0.4 1.6 0.9 3.2 1.4 4.8q21.5-8.5 43.1-17-6.5 1.8-13 3.6z"/>
				<path id="&lt;Path&gt;" class="s7" d="m447.3 1233.4q35.5 8.1 71.1 16.1c0.4-1.7 0.9-3.3 1.2-5l-46.5-7.1q-12.9-2-25.8-4z"/>
				<path id="&lt;Path&gt;" class="s6" d="m336.3 1019.1c42.1 0 81 13.9 112.3 37.2h6.7c-32.5-26.5-73.9-42.4-119-42.4-85.3 0-157.3 56.8-180.4 134.6l1.6 0.1c24.7-75.2 95.4-129.5 178.8-129.5z"/>
				<path id="&lt;Path&gt;" class="s6" d="m152.1 1168.9q47.2-6.3 94.5-12.7-15.7 1.3-31.3 2.5l-63.2 5.1c-2.6 12.4-4 25.2-4 38.3 0 1 0.1 2 0.1 3 0.1-12.4 1.4-24.5 3.9-36.2z"/>
			</g>
			<g id="symbol 13 ">
				<g id="&lt;Group&gt;">
					<path id="&lt;Path&gt;" class="s39" d="m422.3 1149.9h-99.5c-5.1 0-9.2-4.2-9.2-9.2v-24.6c0-5.1 4.1-9.2 9.2-9.2h99.5c5.1 0 9.2 4.1 9.2 9.2v24.6c0 5-4.1 9.2-9.2 9.2z"/>
					<path id="&lt;Compound Path&gt;" fill-rule="evenodd" class="s2" d="m439.2 1116.1v24.6c0 9.2-7.6 16.8-16.9 16.8h-99.5c-9.3 0-16.9-7.6-16.9-16.8v-24.6c0-9.3 7.6-16.8 16.9-16.8h99.5c9.3 0 16.9 7.5 16.9 16.8zm-116.4-9.2c-5.1 0-9.2 4.1-9.2 9.2v24.6c0 5 4.1 9.2 9.2 9.2h99.5c5.1 0 9.2-4.2 9.2-9.2v-24.6c0-5.1-4.1-9.2-9.2-9.2z"/>
				</g>
				<g id="&lt;Group&gt;">
					<path id="&lt;Path&gt;" class="s40" d="m275.4 1149.9h-25.6c-4.8 0-8.7-3.9-8.7-8.7v-25.6c0-4.8 3.9-8.7 8.7-8.7h25.6c4.8 0 8.7 3.9 8.7 8.7v25.6c0 4.8-3.9 8.7-8.7 8.7z"/>
					<path id="&lt;Compound Path&gt;" fill-rule="evenodd" class="s2" d="m291.7 1115.6v25.6c0 9-7.3 16.3-16.3 16.3h-25.6c-9 0-16.3-7.3-16.3-16.3v-25.6c0-9 7.3-16.3 16.3-16.3h25.6c9 0 16.3 7.3 16.3 16.3zm-41.9-8.7c-4.8 0-8.7 3.9-8.7 8.7v25.6c0 4.8 3.9 8.7 8.7 8.7h25.6c4.8 0 8.7-3.9 8.7-8.7v-25.6c0-4.8-3.9-8.7-8.7-8.7z"/>
				</g>
				<g id="&lt;Group&gt;">
					<path id="&lt;Path&gt;" class="s41" d="m275.4 1223.6h-25.6c-4.8 0-8.7-3.9-8.7-8.7v-25.6c0-4.8 3.9-8.7 8.7-8.7h25.6c4.8 0 8.7 3.9 8.7 8.7v25.6c0 4.8-3.9 8.7-8.7 8.7z"/>
					<path id="&lt;Compound Path&gt;" fill-rule="evenodd" class="s2" d="m291.7 1189.3v25.6c0 9-7.3 16.3-16.3 16.3h-25.6c-9 0-16.3-7.3-16.3-16.3v-25.6c0-9 7.3-16.3 16.3-16.3h25.6c9 0 16.3 7.3 16.3 16.3zm-41.9-8.7c-4.8 0-8.7 3.9-8.7 8.7v25.6c0 4.8 3.9 8.7 8.7 8.7h25.6c4.8 0 8.7-3.9 8.7-8.7v-25.6c0-4.8-3.9-8.7-8.7-8.7z"/>
				</g>
				<g id="&lt;Group&gt;">
					<path id="&lt;Path&gt;" class="s42" d="m275.4 1297.3h-25.6c-4.8 0-8.7-3.8-8.7-8.6v-25.6c0-4.8 3.9-8.7 8.7-8.7h25.6c4.8 0 8.7 3.9 8.7 8.7v25.6c0 4.8-3.9 8.6-8.7 8.6z"/>
					<path id="&lt;Compound Path&gt;" fill-rule="evenodd" class="s2" d="m291.7 1263.1v25.6c0 9-7.3 16.3-16.3 16.3h-25.6c-9 0-16.3-7.3-16.3-16.3v-25.6c0-9 7.3-16.3 16.3-16.3h25.6c9 0 16.3 7.3 16.3 16.3zm-41.9-8.7c-4.8 0-8.7 3.9-8.7 8.7v25.6c0 4.8 3.9 8.6 8.7 8.6h25.6c4.8 0 8.7-3.8 8.7-8.6v-25.6c0-4.8-3.9-8.7-8.7-8.7z"/>
				</g>
				<g id="&lt;Group&gt;">
					<path id="&lt;Path&gt;" class="s43" d="m422.3 1223.6h-99.5c-5.1 0-9.2-4.1-9.2-9.2v-24.6c0-5 4.1-9.2 9.2-9.2h99.5c5.1 0 9.2 4.2 9.2 9.3v24.5c0 5.1-4.1 9.2-9.2 9.2z"/>
					<path id="&lt;Compound Path&gt;" fill-rule="evenodd" class="s2" d="m439.2 1189.8v24.6c0 9.3-7.6 16.8-16.9 16.8h-99.5c-9.3 0-16.9-7.5-16.9-16.8v-24.6c0-9.2 7.6-16.8 16.9-16.8h99.5c9.3 0 16.9 7.6 16.9 16.8zm-116.4-9.2c-5.1 0-9.2 4.2-9.2 9.2v24.6c0 5.1 4.1 9.2 9.2 9.2h99.5c5.1 0 9.2-4.1 9.2-9.2v-24.6c0-5-4.1-9.2-9.2-9.2z"/>
				</g>
				<g id="&lt;Group&gt;">
					<path id="&lt;Path&gt;" class="s44" d="m422.3 1297.3h-99.5c-5.1 0-9.2-4.1-9.2-9.2v-24.5c0-5.1 4.1-9.2 9.2-9.2h99.5c5.1 0 9.2 4.1 9.2 9.2v24.5c0 5.1-4.1 9.2-9.2 9.2z"/>
					<path id="&lt;Compound Path&gt;" fill-rule="evenodd" class="s2" d="m439.2 1263.6v24.5c0 9.3-7.6 16.9-16.9 16.9h-99.5c-9.3 0-16.9-7.6-16.9-16.9v-24.5c0-9.3 7.6-16.8 16.9-16.8h99.5c9.3 0 16.9 7.5 16.9 16.8zm-116.4-9.2c-5.1 0-9.2 4.1-9.2 9.2v24.5c0 5.1 4.1 9.3 9.2 9.3l99.5-0.1c5.1 0 9.2-4.1 9.2-9.2v-24.5c0-5.1-4.1-9.2-9.2-9.2z"/>
				</g>
			</g>
		</g>
		<g id="pause_button" style="display: none">
			<path id="shadow 12 " class="s1" d="m1860.4 782.1c0 110.4-88.1 200-196.7 200-108.6 0-196.7-89.6-196.7-200 0-110.4 88.1-199.9 196.7-199.9 108.6 0 196.7 89.5 196.7 199.9z"/>
			<g id="button 12 ">
				<path id="&lt;Path&gt;" class="s2" d="m1860.4 761.3c0 110.4-88.1 199.9-196.7 199.9-108.6 0-196.7-89.5-196.7-199.9 0-110.4 88.1-199.9 196.7-199.9 108.6 0 196.7 89.5 196.7 199.9z"/>
				<path id="&lt;Path&gt;" class="s45" d="m1847 747.9c0 101.2-82.1 183.3-183.3 183.3-101.3 0-183.3-82.1-183.3-183.3 0-101.3 82-183.4 183.3-183.4 101.2 0 183.3 82.1 183.3 183.4z"/>
				<path id="&lt;Path&gt;" class="s46" d="m1774.7 779.2l75.1-3.6c1.3-9 2.1-18.3 2.1-27.7 0-13.3-1.4-26.2-4-38.7l-84-8.7 80.2-6.3c-9.2-30.7-25.9-58.2-48.1-80.1l-141.4-12h128c-32.4-26.5-73.8-42.4-118.9-42.4-85.3 0-157.3 56.7-180.4 134.5l90.7 7.7-94.6 7.6c-2.5 12.4-3.9 25.2-3.9 38.4 0 9.6 0.7 19.1 2.1 28.3l48.2 5.9-44.5 12.2c10.3 40.4 33.6 75.5 65.1 100.7l16.7-13.5-3.6 23.1q9.7 6.4 20.1 11.6l14-19v25.3c21.7 8.7 45.3 13.5 70.1 13.5 33.4 0 64.7-8.7 91.9-23.9l-4.1-22.7 15.5 15.7c39.8-26.2 69-67 80-114.9z"/>
				<path id="&lt;Path&gt;" class="s47" d="m1774.7 779.2l75.1-3.6c1.3-9 2.1-18.3 2.1-27.7 0-13.3-1.4-26.2-4-38.7l-84-8.7 80.2-6.3c-9.2-30.7-25.9-58.2-48.1-80.1l-141.4-12h128c-32.4-26.5-73.8-42.4-118.9-42.4-85.3 0-157.3 56.7-180.4 134.5l90.7 7.7-94.6 7.6c-2.5 12.4-3.9 25.2-3.9 38.4 0 9.6 0.7 19.1 2.1 28.3l48.2 5.9-44.5 12.2c10.3 40.4 33.6 75.5 65.1 100.7l16.7-13.5-3.6 23.1q9.7 6.4 20.1 11.6l14-19v25.3c21.7 8.7 45.3 13.5 70.1 13.5 33.4 0 64.7-8.7 91.9-23.9l-4.1-22.7 15.5 15.7c39.8-26.2 69-67 80-114.9z"/>
				<path id="&lt;Path&gt;" class="s6" d="m1654.6 602.1q70.7 8.6 141.4 17.1c21 20.8 37 46.5 46.4 75.1l1.7-0.1c-9.2-30.7-25.9-58.2-48.1-80.1l-80.6-6.9q-30.4-2.5-60.8-5.1z"/>
				<path id="&lt;Path&gt;" class="s6" d="m1763.9 700.5q42 6.9 84 13.9c2.4 11.8 3.8 24 3.9 36.5 0-1 0.1-2 0.1-3 0-13.3-1.4-26.2-4-38.7l-55.7-5.8q-14.2-1.5-28.3-2.9z"/>
				<path id="&lt;Path&gt;" class="s7" d="m1512.7 785.7l-31.4 8.6c0.4 1.6 0.9 3.2 1.3 4.8q21.6-8.5 43.2-17-6.6 1.8-13.1 3.6z"/>
				<path id="&lt;Path&gt;" class="s7" d="m1774.7 779.2q35.5 8 71 16c0.5-1.6 0.9-3.3 1.3-5l-46.5-7.1q-12.9-1.9-25.8-3.9z"/>
				<path id="&lt;Path&gt;" class="s6" d="m1663.7 564.9c42.1 0 81 13.8 112.3 37.2h6.6c-32.4-26.5-73.8-42.4-118.9-42.4-85.3 0-157.3 56.7-180.4 134.5l1.6 0.2c24.7-75.2 95.4-129.5 178.8-129.5z"/>
				<path id="&lt;Path&gt;" class="s6" d="m1479.4 714.7q47.3-6.4 94.6-12.8-15.7 1.3-31.3 2.6l-63.3 5c-2.5 12.4-3.9 25.2-3.9 38.4 0 1 0.1 1.9 0.1 2.9 0.1-12.3 1.4-24.4 3.8-36.1z"/>
			</g>
			<g id="symbol 12 ">
				<g id="&lt;Group&gt;">
					<path id="&lt;Path&gt;" class="s48" d="m1633.1 831.6h-39.8c-7.1 0-12.8-5.8-12.8-12.9v-141.7c0-7.1 5.7-12.8 12.8-12.8h39.8c7.1 0 12.9 5.7 12.9 12.8v141.7c0 7.1-5.8 12.9-12.9 12.9z"/>
					<path id="&lt;Compound Path&gt;" fill-rule="evenodd" class="s2" d="m1653.6 677v141.7c0 11.3-9.2 20.5-20.5 20.5h-39.8c-11.3 0-20.5-9.2-20.5-20.5v-141.7c0-11.3 9.2-20.5 20.5-20.5h39.8c11.3 0 20.5 9.2 20.5 20.5zm-60.3-12.8c-7.1 0-12.8 5.7-12.8 12.8v141.7c0 7.1 5.7 12.9 12.8 12.9h39.8c7.1 0 12.9-5.8 12.9-12.9v-141.7c0-7.1-5.8-12.8-12.9-12.8z"/>
				</g>
				<g id="&lt;Group&gt;">
					<path id="&lt;Path&gt;" class="s49" d="m1734.1 831.6h-39.9c-7.1 0-12.8-5.8-12.8-12.9v-141.7c0-7.1 5.7-12.8 12.8-12.8h39.9c7.1 0 12.8 5.7 12.8 12.8v141.7c0 7.1-5.7 12.9-12.8 12.9z"/>
					<path id="&lt;Compound Path&gt;" fill-rule="evenodd" class="s2" d="m1754.5 677v141.7c0 11.3-9.1 20.5-20.4 20.5h-39.9c-11.3 0-20.4-9.2-20.4-20.5v-141.7c0-11.3 9.1-20.5 20.4-20.5h39.9c11.3 0 20.4 9.2 20.4 20.5zm-60.3-12.8c-7.1 0-12.8 5.7-12.8 12.8v141.7c0 7.1 5.7 12.9 12.8 12.9h39.9c7.1 0 12.8-5.8 12.8-12.9v-141.7c0-7.1-5.7-12.8-12.8-12.8z"/>
				</g>
			</g>
		</g>
		<g id="retry_button" style="display: none">
			<path id="shadow 10 " class="s1" d="m1417.9 782.1c0 110.4-88 200-196.7 200-108.6 0-196.7-89.6-196.7-200 0-110.4 88.1-199.9 196.7-199.9 108.7 0 196.7 89.5 196.7 199.9z"/>
			<g id="button 10 ">
				<path id="&lt;Path&gt;" class="s2" d="m1417.9 761.3c0 110.4-88 199.9-196.7 199.9-108.6 0-196.7-89.5-196.7-199.9 0-110.4 88.1-199.9 196.7-199.9 108.7 0 196.7 89.5 196.7 199.9z"/>
				<path id="&lt;Path&gt;" class="s50" d="m1404.6 747.9c0 101.2-82.1 183.3-183.4 183.3-101.2 0-183.3-82.1-183.3-183.3 0-101.3 82.1-183.4 183.3-183.4 101.3 0 183.4 82.1 183.4 183.4z"/>
				<path id="&lt;Path&gt;" class="s51" d="m1332.2 779.2l75.1-3.6c1.4-9 2.1-18.3 2.1-27.7 0-13.3-1.4-26.2-4-38.7l-84-8.7 80.2-6.3c-9.1-30.7-25.9-58.2-48.1-80.1l-141.3-12h128c-32.4-26.5-73.8-42.4-119-42.4-85.3 0-157.3 56.7-180.3 134.5l90.6 7.7-94.5 7.6c-2.6 12.4-3.9 25.2-3.9 38.4 0 9.6 0.7 19.1 2.1 28.3l48.1 5.9-44.5 12.2c10.3 40.4 33.6 75.5 65.2 100.7l16.7-13.5-3.6 23.1q9.6 6.4 20 11.6l14.1-19v25.3c21.6 8.7 45.3 13.5 70 13.5 33.4 0 64.7-8.7 91.9-23.9l-4-22.7 15.4 15.7c39.8-26.2 69-67 80.1-114.9z"/>
				<path id="&lt;Path&gt;" class="s52" d="m1332.2 779.2l75.1-3.6c1.4-9 2.1-18.3 2.1-27.7 0-13.3-1.4-26.2-4-38.7l-84-8.7 80.2-6.3c-9.1-30.7-25.9-58.2-48.1-80.1l-141.3-12h128c-32.4-26.5-73.8-42.4-119-42.4-85.3 0-157.3 56.7-180.3 134.5l90.6 7.7-94.5 7.6c-2.6 12.4-3.9 25.2-3.9 38.4 0 9.6 0.7 19.1 2.1 28.3l48.1 5.9-44.5 12.2c10.3 40.4 33.6 75.5 65.2 100.7l16.7-13.5-3.6 23.1q9.6 6.4 20 11.6l14.1-19v25.3c21.6 8.7 45.3 13.5 70 13.5 33.4 0 64.7-8.7 91.9-23.9l-4-22.7 15.4 15.7c39.8-26.2 69-67 80.1-114.9z"/>
				<path id="&lt;Path&gt;" class="s6" d="m1212.2 602.1q70.7 8.6 141.3 17.1c21 20.8 37 46.5 46.4 75.1l1.7-0.1c-9.1-30.7-25.9-58.2-48.1-80.1l-80.5-6.9q-30.4-2.5-60.8-5.1z"/>
				<path id="&lt;Path&gt;" class="s6" d="m1321.4 700.5q42 6.9 84 13.9c2.5 11.8 3.8 24 3.9 36.5 0.1-1 0.1-2 0.1-3 0-13.3-1.4-26.2-4-38.7l-55.7-5.8q-14.1-1.5-28.3-2.9z"/>
				<path id="&lt;Path&gt;" class="s7" d="m1070.3 785.7l-31.5 8.6c0.5 1.6 0.9 3.2 1.4 4.8q21.5-8.5 43.1-17-6.5 1.8-13 3.6z"/>
				<path id="&lt;Path&gt;" class="s7" d="m1332.2 779.2q35.6 8 71.1 16c0.4-1.6 0.9-3.3 1.3-5l-46.5-7.1q-13-1.9-25.9-3.9z"/>
				<path id="&lt;Path&gt;" class="s6" d="m1221.2 564.9c42.1 0 81 13.8 112.3 37.2h6.7c-32.4-26.5-73.8-42.4-119-42.4-85.3 0-157.3 56.7-180.3 134.5l1.6 0.2c24.6-75.2 95.3-129.5 178.7-129.5z"/>
				<path id="&lt;Path&gt;" class="s6" d="m1037 714.7q47.2-6.4 94.5-12.8-15.6 1.3-31.3 2.6l-63.2 5c-2.6 12.4-3.9 25.2-3.9 38.4 0 1 0 1.9 0 2.9 0.2-12.3 1.5-24.4 3.9-36.1z"/>
			</g>
			<g id="symbol 10 ">
				<path id="&lt;Path&gt;" class="s53" d="m1340.9 729.6c-4.6-58.7-52.4-106-111.1-110.1-70.2-4.8-128.6 50.6-128.6 119.7 0 53.7 35.3 99.2 83.9 114.5v12.8c0 8 9.1 12.8 15.8 8.2l52-35.6c5.9-4 5.9-12.6 0-16.6l-52-35.7c-6.7-4.6-15.8 0.2-15.8 8.3v12.7c-24.6-13-41.4-38.8-41.4-68.6 0-44.2 37.1-79.8 81.9-77.4 40 2.2 72.3 35.6 73.2 75.7 0.4 18.6-5.8 35.7-16.3 49.2-6.9 8.8-5.9 21.4 2.4 29 9 8.1 23.1 7.3 30.7-2.3 17.9-22.7 27.8-52.1 25.3-83.8z"/>
				<path id="&lt;Compound Path&gt;" fill-rule="evenodd" class="s2" d="m1230.3 611.9c62.5 4.3 113.3 54.7 118.2 117.1 2.5 32.3-7.1 63.9-27 89.2-5.3 6.7-13.4 10.6-22.2 10.6-7.2 0-14.2-2.6-19.5-7.5-5.5-4.9-8.8-11.7-9.4-19-0.6-7.3 1.6-14.5 6.1-20.3 9.9-12.8 15-28.1 14.6-44.3-0.7-36.3-29.7-66.3-65.9-68.3q-2-0.1-4-0.1c-38.5 0-69.9 31.4-69.9 69.9 0 21.5 9.8 41.5 26.3 54.6 0.3-4.4 2.2-8.5 5.4-11.5 3.3-3.1 7.7-4.9 12.2-4.9 3.6 0 7 1.1 10 3.1l52.1 35.7c4.8 3.3 7.6 8.7 7.6 14.6 0 5.8-2.8 11.2-7.6 14.5l-52.1 35.7c-3 2.1-6.4 3.1-10 3.1-9.7 0-17.7-7.9-17.7-17.6v-7.3c-23.4-8.6-43.6-23.6-58.7-43.8-16.5-22.1-25.2-48.5-25.2-76.2 0-34.1 13.3-66.1 37.4-90.2 24.1-24.1 56.1-37.4 90.2-37.4 3 0 6.1 0.1 9.1 0.3zm-129.1 127.3c0 53.7 35.3 99.2 83.9 114.5v12.8c0 5.9 4.9 10 10.1 10 1.9 0 3.9-0.5 5.7-1.8l52-35.6c5.9-4 5.9-12.6 0-16.6l-52-35.7c-1.8-1.2-3.8-1.8-5.7-1.8-5.2 0-10.1 4.2-10.1 10.1v12.7c-24.6-13-41.4-38.8-41.4-68.6 0-42.8 34.7-77.5 77.5-77.5q2.2 0 4.4 0.1c40 2.2 72.3 35.6 73.2 75.7 0.4 18.6-5.8 35.7-16.3 49.2-6.9 8.8-5.9 21.4 2.4 29 4.1 3.7 9.3 5.5 14.4 5.5 6.1 0 12.2-2.6 16.3-7.8 17.9-22.7 27.8-52.1 25.3-83.8-4.6-58.7-52.4-106-111.1-110.1q-4.3-0.3-8.6-0.3c-66.3 0-120 53.7-120 120z"/>
			</g>
		</g>
		<g id="favorite_button" style="display: none">
			<path id="shadow 6 " class="s1" d="m975.5 782.1c0 110.4-88.1 200-196.7 200-108.7 0-196.7-89.6-196.7-200 0-110.4 88-199.9 196.7-199.9 108.6 0 196.7 89.5 196.7 199.9z"/>
			<g id="button 6 ">
				<path id="&lt;Path&gt;" class="s2" d="m975.5 761.3c0 110.4-88.1 199.9-196.7 199.9-108.7 0-196.7-89.5-196.7-199.9 0-110.4 88-199.9 196.7-199.9 108.6 0 196.7 89.5 196.7 199.9z"/>
				<path id="&lt;Path&gt;" class="s54" d="m962.1 747.9c0 101.2-82.1 183.3-183.3 183.3-101.3 0-183.4-82.1-183.4-183.3 0-101.3 82.1-183.4 183.4-183.4 101.2 0 183.3 82.1 183.3 183.4z"/>
				<path id="&lt;Path&gt;" class="s55" d="m889.8 779.2l75.1-3.6c1.3-9 2-18.3 2-27.7 0-13.3-1.3-26.2-3.9-38.7l-84.1-8.7 80.2-6.3c-9.1-30.7-25.8-58.2-48-80.1l-141.4-12h128c-32.4-26.5-73.8-42.4-118.9-42.4-85.3 0-157.3 56.7-180.4 134.5l90.6 7.7-94.5 7.6c-2.5 12.4-3.9 25.2-3.9 38.4 0 9.6 0.7 19.1 2.1 28.3l48.1 5.9-44.4 12.2c10.2 40.4 33.5 75.5 65.1 100.7l16.7-13.5-3.6 23.1q9.7 6.4 20.1 11.6l14-19v25.3c21.7 8.7 45.3 13.5 70.1 13.5 33.4 0 64.7-8.7 91.9-23.9l-4.1-22.7 15.5 15.7c39.7-26.2 69-67 80-114.9z"/>
				<path id="&lt;Path&gt;" class="s56" d="m889.8 779.2l75.1-3.6c1.3-9 2-18.3 2-27.7 0-13.3-1.3-26.2-3.9-38.7l-84.1-8.7 80.2-6.3c-9.1-30.7-25.8-58.2-48-80.1l-141.4-12h128c-32.4-26.5-73.8-42.4-118.9-42.4-85.3 0-157.3 56.7-180.4 134.5l90.6 7.7-94.5 7.6c-2.5 12.4-3.9 25.2-3.9 38.4 0 9.6 0.7 19.1 2.1 28.3l48.1 5.9-44.4 12.2c10.2 40.4 33.5 75.5 65.1 100.7l16.7-13.5-3.6 23.1q9.7 6.4 20.1 11.6l14-19v25.3c21.7 8.7 45.3 13.5 70.1 13.5 33.4 0 64.7-8.7 91.9-23.9l-4.1-22.7 15.5 15.7c39.7-26.2 69-67 80-114.9z"/>
				<path id="&lt;Path&gt;" class="s6" d="m769.7 602.1q70.7 8.6 141.4 17.1c20.9 20.8 36.9 46.5 46.4 75.1l1.6-0.1c-9.1-30.7-25.8-58.2-48-80.1l-80.6-6.9q-30.4-2.5-60.8-5.1z"/>
				<path id="&lt;Path&gt;" class="s6" d="m878.9 700.5q42 6.9 84.1 13.9c2.4 11.8 3.7 24 3.9 36.5 0-1 0-2 0-3 0-13.3-1.3-26.2-3.9-38.7l-55.7-5.8q-14.2-1.5-28.4-2.9z"/>
				<path id="&lt;Path&gt;" class="s7" d="m627.8 785.7l-31.4 8.6c0.4 1.6 0.9 3.2 1.3 4.8q21.6-8.5 43.1-17-6.5 1.8-13 3.6z"/>
				<path id="&lt;Path&gt;" class="s7" d="m889.8 779.2q35.5 8 71 16c0.5-1.6 0.9-3.3 1.3-5l-46.5-7.1q-12.9-1.9-25.8-3.9z"/>
				<path id="&lt;Path&gt;" class="s6" d="m778.8 564.9c42.1 0 80.9 13.8 112.3 37.2h6.6c-32.4-26.5-73.8-42.4-118.9-42.4-85.3 0-157.3 56.7-180.4 134.5l1.6 0.2c24.7-75.2 95.3-129.5 178.8-129.5z"/>
				<path id="&lt;Path&gt;" class="s6" d="m594.5 714.7q47.3-6.4 94.5-12.8-15.6 1.3-31.2 2.6l-63.3 5c-2.5 12.4-3.9 25.2-3.9 38.4 0 1 0 1.9 0.1 2.9 0.1-12.3 1.4-24.4 3.8-36.1z"/>
			</g>
			<g id="symbol 6 ">
				<path id="&lt;Path&gt;" class="s57" d="m795.1 650.4l20.6 41.7c2.6 5.3 7.8 9.1 13.7 9.9l46 6.7c14.9 2.2 20.9 20.6 10.1 31.1l-33.3 32.4c-4.3 4.2-6.3 10.2-5.2 16.2l7.8 45.7c2.6 14.9-13.1 26.3-26.4 19.3l-41.2-21.7c-5.3-2.8-11.6-2.8-16.9 0l-41.1 21.7c-13.4 7-29-4.4-26.5-19.3l7.9-45.7c1-6-1-12-5.3-16.2l-33.2-32.4c-10.8-10.5-4.9-28.9 10.1-31.1l45.9-6.7c6-0.8 11.1-4.6 13.8-9.9l20.5-41.7c6.7-13.5 26-13.5 32.7 0z"/>
				<path id="&lt;Compound Path&gt;" fill-rule="evenodd" class="s2" d="m801.9 647l20.6 41.7c1.6 3.1 4.5 5.3 8 5.8l46 6.7c9.8 1.4 17.8 8.1 20.8 17.6 3.1 9.4 0.6 19.5-6.5 26.4l-33.3 32.5c-2.5 2.4-3.6 5.9-3 9.4l7.8 45.8c1.3 7.5-0.7 15.1-5.6 20.9-5 5.9-12.2 9.3-19.8 9.3-4.2 0-8.3-1-12.1-3l-41.1-21.6c-1.5-0.8-3.2-1.2-4.9-1.2-1.7 0-3.4 0.4-5 1.2l-41.1 21.6c-3.8 2-7.8 3-12 3-7.6 0-14.9-3.4-19.8-9.3-4.9-5.8-7-13.4-5.7-20.9l7.9-45.8c0.6-3.5-0.6-7-3.1-9.4l-33.2-32.5c-7.1-6.9-9.6-17-6.6-26.4 3.1-9.5 11.1-16.2 20.9-17.6l46-6.7c3.4-0.5 6.4-2.7 7.9-5.8l20.6-41.7c4.4-8.9 13.3-14.4 23.2-14.4 9.9 0 18.8 5.5 23.1 14.4zm-39.5 3.4l-20.5 41.7c-2.7 5.3-7.8 9.1-13.8 9.9l-45.9 6.7c-15 2.2-20.9 20.6-10.1 31.1l33.2 32.4c4.3 4.2 6.3 10.2 5.3 16.2l-7.9 45.7c-2 11.8 7.4 21.4 18 21.4 2.8 0 5.7-0.7 8.5-2.1l41.1-21.7c2.6-1.4 5.6-2.1 8.5-2.1 2.9 0 5.8 0.7 8.4 2.1l41.2 21.7c2.8 1.4 5.7 2.1 8.5 2.1 10.6 0 19.9-9.6 17.9-21.4l-7.8-45.7c-1.1-6 0.9-12 5.2-16.2l33.3-32.4c10.8-10.5 4.8-28.9-10.1-31.1l-46-6.7c-5.9-0.8-11.1-4.6-13.7-9.9l-20.6-41.7c-3.3-6.8-9.8-10.2-16.3-10.2-6.5 0-13 3.4-16.4 10.2z"/>
			</g>
		</g>
		<g id="option_button" style="display: none">
			<path id="shadow 4 " class="s1" d="m533 782.1c0 110.4-88.1 200-196.7 200-108.6 0-196.7-89.6-196.7-200 0-110.4 88.1-199.9 196.7-199.9 108.6 0 196.7 89.5 196.7 199.9z"/>
			<g id="button 4 ">
				<path id="&lt;Path&gt;" class="s2" d="m533 761.3c0 110.4-88.1 199.9-196.7 199.9-108.6 0-196.7-89.5-196.7-199.9 0-110.4 88.1-199.9 196.7-199.9 108.6 0 196.7 89.5 196.7 199.9z"/>
				<path id="&lt;Path&gt;" class="s58" d="m519.6 747.9c0 101.2-82 183.3-183.3 183.3-101.2 0-183.3-82.1-183.3-183.3 0-101.3 82.1-183.4 183.3-183.4 101.3 0 183.3 82.1 183.3 183.4z"/>
				<path id="&lt;Path&gt;" class="s59" d="m447.3 779.2l75.1-3.6c1.4-9 2.1-18.3 2.1-27.7 0-13.3-1.4-26.2-4-38.7l-84-8.7 80.2-6.3c-9.2-30.7-25.9-58.2-48.1-80.1l-141.3-12h128c-32.5-26.5-73.9-42.4-119-42.4-85.3 0-157.3 56.7-180.4 134.5l90.7 7.7-94.5 7.6c-2.6 12.4-4 25.2-4 38.4 0 9.6 0.8 19.1 2.2 28.3l48.1 5.9-44.5 12.2c10.3 40.4 33.6 75.5 65.2 100.7l16.7-13.5-3.6 23.1q9.6 6.4 20 11.6l14.1-19v25.3c21.6 8.7 45.2 13.5 70 13.5 33.4 0 64.7-8.7 91.9-23.9l-4-22.7 15.4 15.7c39.8-26.2 69-67 80-114.9z"/>
				<path id="&lt;Path&gt;" class="s60" d="m447.3 779.2l75.1-3.6c1.4-9 2.1-18.3 2.1-27.7 0-13.3-1.4-26.2-4-38.7l-84-8.7 80.2-6.3c-9.2-30.7-25.9-58.2-48.1-80.1l-141.3-12h128c-32.5-26.5-73.9-42.4-119-42.4-85.3 0-157.3 56.7-180.4 134.5l90.7 7.7-94.5 7.6c-2.6 12.4-4 25.2-4 38.4 0 9.6 0.8 19.1 2.2 28.3l48.1 5.9-44.5 12.2c10.3 40.4 33.6 75.5 65.2 100.7l16.7-13.5-3.6 23.1q9.6 6.4 20 11.6l14.1-19v25.3c21.6 8.7 45.2 13.5 70 13.5 33.4 0 64.7-8.7 91.9-23.9l-4-22.7 15.4 15.7c39.8-26.2 69-67 80-114.9z"/>
				<path id="&lt;Path&gt;" class="s6" d="m327.3 602.1q70.6 8.6 141.3 17.1c21 20.8 37 46.5 46.4 75.1l1.7-0.1c-9.2-30.7-25.9-58.2-48.1-80.1l-80.5-6.9q-30.4-2.5-60.8-5.1z"/>
				<path id="&lt;Path&gt;" class="s6" d="m436.5 700.5q42 6.9 84 13.9c2.5 11.8 3.8 24 3.9 36.5 0-1 0.1-2 0.1-3 0-13.3-1.4-26.2-4-38.7l-55.7-5.8q-14.2-1.5-28.3-2.9z"/>
				<path id="&lt;Path&gt;" class="s7" d="m185.4 785.7l-31.5 8.6c0.4 1.6 0.9 3.2 1.4 4.8q21.5-8.5 43.1-17-6.5 1.8-13 3.6z"/>
				<path id="&lt;Path&gt;" class="s7" d="m447.3 779.2q35.5 8 71.1 16c0.4-1.6 0.9-3.3 1.2-5l-46.5-7.1q-12.9-1.9-25.8-3.9z"/>
				<path id="&lt;Path&gt;" class="s6" d="m336.3 564.9c42.1 0 81 13.8 112.3 37.2h6.7c-32.5-26.5-73.9-42.4-119-42.4-85.3 0-157.3 56.7-180.4 134.5l1.6 0.2c24.7-75.2 95.4-129.5 178.8-129.5z"/>
				<path id="&lt;Path&gt;" class="s6" d="m152.1 714.7q47.2-6.4 94.5-12.8-15.7 1.3-31.3 2.6l-63.2 5c-2.6 12.4-4 25.2-4 38.4 0 1 0.1 1.9 0.1 2.9 0.1-12.3 1.4-24.4 3.9-36.1z"/>
			</g>
			<g id="symbol 4 ">
				<path id="&lt;Compound Path&gt;" fill-rule="evenodd" class="s61" d="m457.1 733.7v28.3c0 5.2-4.1 9.4-9.3 9.4h-25.6c-2 7.3-4.9 14.2-8.5 20.6l18.1 18.1c3.6 3.6 3.6 9.6 0 13.2l-20.1 20c-3.6 3.7-9.5 3.7-13.2 0l-18-18.1c-6.5 3.7-13.4 6.6-20.7 8.6v25.6c0 5.1-4.2 9.3-9.3 9.3h-28.3c-5.2 0-9.4-4.2-9.4-9.3v-25.6c-7.3-2-14.2-4.9-20.6-8.6l-18.1 18.1c-3.7 3.7-9.6 3.7-13.2 0l-20-20c-3.7-3.6-3.7-9.6 0-13.2l18.1-18.1c-3.7-6.4-6.6-13.3-8.6-20.6h-25.6c-5.1 0-9.3-4.2-9.3-9.4v-28.3c0-5.1 4.2-9.3 9.3-9.3h25.6c2-7.3 4.9-14.3 8.6-20.7l-18.1-18.1c-3.7-3.6-3.7-9.5 0-13.2l20-20c3.6-3.6 9.5-3.6 13.2 0l18.1 18.1c6.4-3.7 13.3-6.6 20.6-8.6v-25.5c0-5.2 4.2-9.4 9.4-9.4h28.3c5.1 0 9.3 4.2 9.3 9.4v25.5c7.3 2 14.2 4.9 20.7 8.6l18-18.1c3.7-3.6 9.6-3.6 13.2 0l20.1 20c3.6 3.7 3.6 9.6 0 13.2l-18.1 18.1c3.6 6.4 6.5 13.4 8.5 20.7h25.6c5.2 0 9.3 4.2 9.3 9.3zm-71.6 14.2c0-27.2-22-49.2-49.2-49.2-27.2 0-49.2 22-49.2 49.2 0 27.1 22 49.2 49.2 49.2 27.2 0 49.2-22.1 49.2-49.2z"/>
				<path id="&lt;Compound Path&gt;" fill-rule="evenodd" class="s2" d="m367.4 636.4v19.9q6 2 11.7 4.8l14.1-14.1c3.2-3.2 7.4-4.9 11.9-4.9 4.6 0 8.8 1.7 12 4.9l20.1 20c6.6 6.7 6.6 17.4 0 24l-14.2 14.1q2.8 5.7 4.9 11.7h19.9c9.4 0 17 7.6 17 16.9v28.3c0 9.4-7.6 17-17 17h-19.9q-2.1 5.9-4.9 11.6l14.2 14.1c6.6 6.6 6.6 17.4 0 24l-20.1 20c-3.2 3.2-7.4 5-12 5-4.5 0-8.7-1.8-11.9-5l-14.1-14.1q-5.7 2.8-11.7 4.8v20c0 9.3-7.6 16.9-16.9 16.9h-28.3c-9.4 0-17-7.6-17-16.9v-20q-6-2-11.6-4.8l-14.1 14.1c-3.2 3.2-7.5 5-12 5-4.5 0-8.8-1.8-12-5l-20-20c-6.6-6.6-6.6-17.4 0-24l14.1-14.1q-2.8-5.7-4.8-11.6h-20c-9.3 0-16.9-7.6-16.9-17v-28.3c0-9.3 7.6-16.9 16.9-16.9h20q2-6 4.8-11.7l-14.1-14.1c-6.6-6.6-6.6-17.3 0-24l20-20c3.2-3.2 7.5-4.9 12-4.9 4.5 0 8.8 1.7 12 4.9l14.1 14.1q5.6-2.8 11.6-4.8v-19.9c0-9.4 7.6-17 17-17h28.3c9.3 0 16.9 7.6 16.9 17zm-45.2-9.4c-5.2 0-9.4 4.2-9.4 9.4v25.5c-7.3 2-14.2 4.9-20.6 8.6l-18.1-18.1c-1.8-1.8-4.2-2.7-6.6-2.7-2.4 0-4.8 0.9-6.6 2.7l-20 20c-3.7 3.7-3.7 9.6 0 13.2l18.1 18.1c-3.7 6.4-6.6 13.4-8.6 20.7h-25.6c-5.1 0-9.3 4.2-9.3 9.3v28.3c0 5.2 4.2 9.4 9.3 9.4h25.6c2 7.3 4.9 14.2 8.6 20.6l-18.1 18.1c-3.7 3.6-3.7 9.6 0 13.2l20 20c1.8 1.8 4.2 2.7 6.6 2.7 2.4 0 4.8-0.9 6.6-2.7l18.1-18.1c6.4 3.7 13.3 6.6 20.6 8.6v25.6c0 5.1 4.2 9.3 9.4 9.3h28.3c5.1 0 9.3-4.2 9.3-9.3v-25.6c7.3-2 14.2-4.9 20.7-8.6l18 18.1c1.9 1.8 4.3 2.7 6.6 2.7 2.4 0 4.8-0.9 6.6-2.7l20.1-20c3.6-3.6 3.6-9.6 0-13.2l-18.1-18.1c3.6-6.4 6.5-13.3 8.5-20.6h25.6c5.2 0 9.3-4.2 9.3-9.4v-28.3c0-5.1-4.1-9.3-9.3-9.3h-25.6c-2-7.3-4.9-14.3-8.5-20.7l18.1-18.1c3.6-3.6 3.6-9.5 0-13.2l-20.1-20c-1.8-1.8-4.2-2.7-6.6-2.7-2.3 0-4.7 0.9-6.6 2.7l-18 18.1c-6.5-3.7-13.4-6.6-20.7-8.6v-25.5c0-5.2-4.2-9.4-9.3-9.4zm-35.1 120.9c0-27.2 22.1-49.2 49.2-49.2 27.2 0 49.2 22 49.2 49.2 0 27.1-22 49.2-49.2 49.2-27.1 0-49.2-22.1-49.2-49.2zm90.8 0c0-23-18.7-41.6-41.6-41.6-22.9 0-41.5 18.6-41.5 41.6 0 22.9 18.6 41.5 41.5 41.5 22.9 0 41.6-18.6 41.6-41.5z"/>
			</g>
		</g>
		<g id="home_button" style="display: none">
			<path id="shadow 5 " class="s1" d="m1860.4 327.9c0 110.4-88.1 199.9-196.7 199.9-108.6 0-196.7-89.5-196.7-199.9 0-110.4 88.1-199.9 196.7-199.9 108.6 0 196.7 89.5 196.7 199.9z"/>
			<g id="button 5 ">
				<path id="&lt;Path&gt;" class="s2" d="m1860.4 307c0 110.4-88.1 199.9-196.7 199.9-108.6 0-196.7-89.5-196.7-199.9 0-110.4 88.1-199.9 196.7-199.9 108.6 0 196.7 89.5 196.7 199.9z"/>
				<path id="&lt;Path&gt;" class="s62" d="m1847 293.6c0 101.3-82.1 183.3-183.3 183.3-101.3 0-183.3-82-183.3-183.3 0-101.2 82-183.3 183.3-183.3 101.2 0 183.3 82.1 183.3 183.3z"/>
				<path id="&lt;Path&gt;" class="s63" d="m1774.7 324.9l75.1-3.5c1.3-9.1 2.1-18.4 2.1-27.8 0-13.2-1.4-26.2-4-38.6l-84-8.8 80.2-6.3c-9.2-30.7-25.9-58.1-48.1-80.1l-141.4-12h128c-32.4-26.5-73.8-42.4-118.9-42.4-85.3 0-157.3 56.8-180.4 134.6l90.7 7.7-94.6 7.6c-2.5 12.3-3.9 25.2-3.9 38.3 0 9.6 0.7 19.1 2.1 28.4l48.2 5.9-44.5 12.2c10.3 40.3 33.6 75.4 65.1 100.6l16.7-13.5-3.6 23.1q9.7 6.4 20.1 11.6l14-18.9v25.3c21.7 8.7 45.3 13.5 70.1 13.5 33.4 0 64.7-8.7 91.9-24l-4.1-22.7 15.5 15.8c39.8-26.2 69-67.1 80-114.9z"/>
				<path id="&lt;Path&gt;" class="s64" d="m1774.7 324.9l75.1-3.5c1.3-9.1 2.1-18.4 2.1-27.8 0-13.2-1.4-26.2-4-38.6l-84-8.8 80.2-6.3c-9.2-30.7-25.9-58.1-48.1-80.1l-141.4-12h128c-32.4-26.5-73.8-42.4-118.9-42.4-85.3 0-157.3 56.8-180.4 134.6l90.7 7.7-94.6 7.6c-2.5 12.3-3.9 25.2-3.9 38.3 0 9.6 0.7 19.1 2.1 28.4l48.2 5.9-44.5 12.2c10.3 40.3 33.6 75.4 65.1 100.6l16.7-13.5-3.6 23.1q9.7 6.4 20.1 11.6l14-18.9v25.3c21.7 8.7 45.3 13.5 70.1 13.5 33.4 0 64.7-8.7 91.9-24l-4.1-22.7 15.5 15.8c39.8-26.2 69-67.1 80-114.9z"/>
				<path id="&lt;Path&gt;" class="s6" d="m1654.6 147.8q70.7 8.6 141.4 17.2c21 20.7 37 46.4 46.4 75.1l1.7-0.2c-9.2-30.7-25.9-58.1-48.1-80.1l-80.6-6.8q-30.4-2.6-60.8-5.2z"/>
				<path id="&lt;Path&gt;" class="s6" d="m1763.9 246.2q42 7 84 13.9c2.4 11.8 3.8 24 3.9 36.5 0-1 0.1-2 0.1-3 0-13.2-1.4-26.2-4-38.6l-55.7-5.8q-14.2-1.5-28.3-3z"/>
				<path id="&lt;Path&gt;" class="s7" d="m1512.7 331.4l-31.4 8.7c0.4 1.6 0.9 3.2 1.3 4.8q21.6-8.5 43.2-17-6.6 1.8-13.1 3.5z"/>
				<path id="&lt;Path&gt;" class="s7" d="m1774.7 324.9q35.5 8 71 16.1c0.5-1.7 0.9-3.3 1.3-5l-46.5-7.1q-12.9-2-25.8-4z"/>
				<path id="&lt;Path&gt;" class="s6" d="m1663.7 110.6c42.1 0 81 13.9 112.3 37.2h6.6c-32.4-26.5-73.8-42.4-118.9-42.4-85.3 0-157.3 56.8-180.4 134.6l1.6 0.1c24.7-75.2 95.4-129.5 178.8-129.5z"/>
				<path id="&lt;Path&gt;" class="s6" d="m1479.4 260.4q47.3-6.3 94.6-12.7-15.7 1.2-31.3 2.5l-63.3 5.1c-2.5 12.3-3.9 25.2-3.9 38.3 0 1 0.1 2 0.1 3 0.1-12.4 1.4-24.5 3.8-36.2z"/>
			</g>
			<g id="symbol 5 ">
				<path id="&lt;Compound Path&gt;" fill-rule="evenodd" class="s65" d="m1754.8 297.3h-17.9v90.3c0 10.7-8.7 19.5-19.5 19.5h-107.4c-10.8 0-19.5-8.8-19.5-19.5v-90.3h-18c-11.6 0-17.7-13.9-9.7-22.5l91.1-97.8c5.3-5.6 14.3-5.6 19.5 0l91.2 97.8c7.9 8.6 1.9 22.5-9.8 22.5zm-64.3 9.8h-53.6v53.5h53.6z"/>
				<path id="&lt;Compound Path&gt;" fill-rule="evenodd" class="s2" d="m1679 171.8l91.2 97.8c5.7 6.2 7.2 14.9 3.8 22.7-3.3 7.8-10.7 12.6-19.2 12.6h-10.3v82.7c0 14.9-12.1 27.1-27.1 27.1h-107.4c-15 0-27.2-12.2-27.2-27.1v-82.7h-10.3c-8.4 0-15.8-4.8-19.2-12.6-3.3-7.8-1.9-16.5 3.9-22.7l91.2-97.8c3.9-4.2 9.5-6.6 15.3-6.6 5.8 0 11.4 2.4 15.3 6.6zm-25.1 5.2l-91.1 97.8c-8 8.6-1.9 22.5 9.7 22.5h18v90.3c0 10.7 8.7 19.5 19.5 19.5h107.4c10.8 0 19.5-8.8 19.5-19.5v-90.3h17.9c11.7 0 17.7-13.9 9.8-22.5l-91.2-97.8c-2.6-2.8-6.2-4.2-9.7-4.2-3.6 0-7.1 1.4-9.8 4.2zm-17 130.1h53.6v53.5h-53.6zm7.6 46h38.4v-38.3h-38.4z"/>
			</g>
		</g>
		<g id="sound_button" style="display: none">
			<path id="shadow 9 " class="s1" d="m1417.9 327.9c0 110.4-88 199.9-196.7 199.9-108.6 0-196.7-89.5-196.7-199.9 0-110.4 88.1-199.9 196.7-199.9 108.7 0 196.7 89.5 196.7 199.9z"/>
			<g id="button 9 ">
				<path id="&lt;Path&gt;" class="s2" d="m1417.9 307c0 110.4-88 199.9-196.7 199.9-108.6 0-196.7-89.5-196.7-199.9 0-110.4 88.1-199.9 196.7-199.9 108.7 0 196.7 89.5 196.7 199.9z"/>
				<path id="&lt;Path&gt;" class="s66" d="m1404.6 293.6c0 101.3-82.1 183.3-183.4 183.3-101.2 0-183.3-82-183.3-183.3 0-101.2 82.1-183.3 183.3-183.3 101.3 0 183.4 82.1 183.4 183.3z"/>
				<path id="&lt;Path&gt;" class="s67" d="m1332.2 324.9l75.1-3.5c1.4-9.1 2.1-18.4 2.1-27.8 0-13.2-1.4-26.2-4-38.6l-84-8.8 80.2-6.3c-9.1-30.7-25.9-58.1-48.1-80.1l-141.3-12h128c-32.4-26.5-73.8-42.4-119-42.4-85.3 0-157.3 56.8-180.3 134.6l90.6 7.7-94.5 7.6c-2.6 12.3-3.9 25.2-3.9 38.3 0 9.6 0.7 19.1 2.1 28.4l48.1 5.9-44.5 12.2c10.3 40.3 33.6 75.4 65.2 100.6l16.7-13.5-3.6 23.1q9.6 6.4 20 11.6l14.1-18.9v25.3c21.6 8.7 45.3 13.5 70 13.5 33.4 0 64.7-8.7 91.9-24l-4-22.7 15.4 15.8c39.8-26.2 69-67.1 80.1-114.9z"/>
				<path id="&lt;Path&gt;" class="s68" d="m1332.2 324.9l75.1-3.5c1.4-9.1 2.1-18.4 2.1-27.8 0-13.2-1.4-26.2-4-38.6l-84-8.8 80.2-6.3c-9.1-30.7-25.9-58.1-48.1-80.1l-141.3-12h128c-32.4-26.5-73.8-42.4-119-42.4-85.3 0-157.3 56.8-180.3 134.6l90.6 7.7-94.5 7.6c-2.6 12.3-3.9 25.2-3.9 38.3 0 9.6 0.7 19.1 2.1 28.4l48.1 5.9-44.5 12.2c10.3 40.3 33.6 75.4 65.2 100.6l16.7-13.5-3.6 23.1q9.6 6.4 20 11.6l14.1-18.9v25.3c21.6 8.7 45.3 13.5 70 13.5 33.4 0 64.7-8.7 91.9-24l-4-22.7 15.4 15.8c39.8-26.2 69-67.1 80.1-114.9z"/>
				<path id="&lt;Path&gt;" class="s6" d="m1212.2 147.8q70.7 8.6 141.3 17.2c21 20.7 37 46.4 46.4 75.1l1.7-0.2c-9.1-30.7-25.9-58.1-48.1-80.1l-80.5-6.8q-30.4-2.6-60.8-5.2z"/>
				<path id="&lt;Path&gt;" class="s6" d="m1321.4 246.2q42 7 84 13.9c2.5 11.8 3.8 24 3.9 36.5 0.1-1 0.1-2 0.1-3 0-13.2-1.4-26.2-4-38.6l-55.7-5.8q-14.1-1.5-28.3-3z"/>
				<path id="&lt;Path&gt;" class="s7" d="m1070.3 331.4l-31.5 8.7c0.5 1.6 0.9 3.2 1.4 4.8q21.5-8.5 43.1-17-6.5 1.8-13 3.5z"/>
				<path id="&lt;Path&gt;" class="s7" d="m1332.2 324.9q35.6 8 71.1 16.1c0.4-1.7 0.9-3.3 1.3-5l-46.5-7.1q-13-2-25.9-4z"/>
				<path id="&lt;Path&gt;" class="s6" d="m1221.2 110.6c42.1 0 81 13.9 112.3 37.2h6.7c-32.4-26.5-73.8-42.4-119-42.4-85.3 0-157.3 56.8-180.3 134.6l1.6 0.1c24.6-75.2 95.3-129.5 178.7-129.5z"/>
				<path id="&lt;Path&gt;" class="s6" d="m1037 260.4q47.2-6.3 94.5-12.7-15.6 1.2-31.3 2.5l-63.2 5.1c-2.6 12.3-3.9 25.2-3.9 38.3 0 1 0 2 0 3 0.2-12.4 1.5-24.5 3.9-36.2z"/>
			</g>
			<g id="symbol 9 ">
				<path id="&lt;Path&gt;" class="s69" d="m1297.5 261.8v-49.4c0-15-16.2-24.3-29.2-16.8l-72 41.6h-66c-10.6 0-19.2 8.6-19.2 19.2v78.5c0 10.7 8.6 19.3 19.2 19.3h73.2l64.8 37.5c13 7.4 29.2-1.9 29.2-16.9v-45.2c18.7 0 33.9-15.2 33.9-33.9 0-18.7-15.2-33.9-33.9-33.9z"/>
				<path id="&lt;Compound Path&gt;" fill-rule="evenodd" class="s2" d="m1305.1 212.4v42.5c19.3 3.5 33.9 20.5 33.9 40.8 0 20.3-14.6 37.2-33.9 40.8v38.3c0 15-12.1 27.1-27.1 27.1-4.7 0-9.3-1.3-13.5-3.6l-63.1-36.5h-71.1c-14.8 0-26.9-12-26.9-26.9v-78.5c0-14.8 12.1-26.9 26.9-26.9h64l70.2-40.5c4.2-2.4 8.8-3.7 13.5-3.7 15 0 27.1 12.2 27.1 27.1zm-36.8-16.8l-72 41.6h-66c-10.6 0-19.2 8.6-19.2 19.2v78.5c0 10.7 8.6 19.3 19.2 19.3h73.2l64.8 37.5c3.2 1.8 6.5 2.6 9.7 2.6 10.2 0 19.5-8.1 19.5-19.5v-45.2c18.7 0 33.9-15.2 33.9-33.9 0-18.7-15.2-33.9-33.9-33.9v-49.4c0-11.4-9.3-19.5-19.5-19.5-3.2 0-6.5 0.9-9.7 2.7z"/>
			</g>
		</g>
		<g id="no_button">
			<g id="button 14 ">
				<path id="&lt;Path&gt;" class="s70" d="m401.1 217.6c0 101.3-82.1 183.3-183.3 183.3-101.3 0-183.4-82-183.4-183.3 0-101.2 82.1-183.3 183.4-183.3 101.2 0 183.3 82.1 183.3 183.3z"/>
				<path id="&lt;Path&gt;" class="s71" d="m328.8 248.9l75.1-3.5c1.3-9.1 2-18.4 2-27.8 0-13.2-1.3-26.2-3.9-38.6l-84.1-8.8 80.2-6.3c-9.1-30.7-25.8-58.1-48-80.1l-141.4-12h128c-32.4-26.5-73.8-42.4-118.9-42.4-85.3 0-157.3 56.8-180.4 134.6l90.6 7.7-94.5 7.6c-2.5 12.3-3.9 25.2-3.9 38.3 0 9.6 0.7 19.1 2.1 28.4l48.1 5.9-44.4 12.2c10.2 40.3 33.5 75.4 65.1 100.6l16.7-13.5-3.6 23.1q9.7 6.4 20.1 11.6l14-18.9v25.3c21.7 8.7 45.3 13.5 70.1 13.5 33.4 0 64.7-8.7 91.9-24l-4.1-22.7 15.5 15.8c39.7-26.2 69-67.1 80-114.9z"/>
				<path id="&lt;Path&gt;" class="s72" d="m328.8 248.9l75.1-3.5c1.3-9.1 2-18.4 2-27.8 0-13.2-1.3-26.2-3.9-38.6l-84.1-8.8 80.2-6.3c-9.1-30.7-25.8-58.1-48-80.1l-141.4-12h128c-32.4-26.5-73.8-42.4-118.9-42.4-85.3 0-157.3 56.8-180.4 134.6l90.6 7.7-94.5 7.6c-2.5 12.3-3.9 25.2-3.9 38.3 0 9.6 0.7 19.1 2.1 28.4l48.1 5.9-44.4 12.2c10.2 40.3 33.5 75.4 65.1 100.6l16.7-13.5-3.6 23.1q9.7 6.4 20.1 11.6l14-18.9v25.3c21.7 8.7 45.3 13.5 70.1 13.5 33.4 0 64.7-8.7 91.9-24l-4.1-22.7 15.5 15.8c39.7-26.2 69-67.1 80-114.9z"/>
				<path id="&lt;Path&gt;" class="s6" d="m208.7 71.8q70.7 8.6 141.4 17.2c20.9 20.7 36.9 46.4 46.4 75.1l1.6-0.2c-9.1-30.7-25.8-58.1-48-80.1l-80.6-6.8q-30.4-2.6-60.8-5.2z"/>
				<path id="&lt;Path&gt;" class="s6" d="m317.9 170.2q42 7 84.1 13.9c2.4 11.8 3.7 24 3.9 36.5 0-1 0-2 0-3 0-13.2-1.3-26.2-3.9-38.6l-55.7-5.8q-14.2-1.5-28.4-3z"/>
				<path id="&lt;Path&gt;" class="s7" d="m66.8 255.4l-31.4 8.7c0.4 1.6 0.9 3.2 1.3 4.8q21.6-8.5 43.1-17-6.5 1.8-13 3.5z"/>
				<path id="&lt;Path&gt;" class="s7" d="m328.8 248.9q35.5 8 71 16.1c0.5-1.7 0.9-3.3 1.3-5l-46.5-7.1q-12.9-2-25.8-4z"/>
				<path id="&lt;Path&gt;" class="s6" d="m217.8 34.6c42.1 0 80.9 13.9 112.3 37.2h6.6c-32.4-26.5-73.8-42.4-118.9-42.4-85.3 0-157.3 56.8-180.4 134.6l1.6 0.1c24.7-75.2 95.3-129.5 178.8-129.5z"/>
				<path id="&lt;Path&gt;" class="s6" d="m33.5 184.4q47.3-6.3 94.5-12.7-15.6 1.2-31.2 2.5l-63.3 5.1c-2.5 12.3-3.9 25.2-3.9 38.3 0 1 0 2 0.1 3 0.1-12.4 1.4-24.5 3.8-36.2z"/>
			</g>
			<g id="symbol 14 ">
				<path id="&lt;Path&gt;" class="s73" d="m314.4 271.3l-53.6-53.7 53.6-53.6c5-5 5-13.1 0-18.1l-24.9-25c-5-5-13.1-5-18.1 0l-53.6 53.7-53.7-53.7c-5-5-13.1-5-18.1 0l-24.9 25c-5 5-5 13.1 0 18.1l53.7 53.6-53.7 53.7c-5 5-5 13 0 18l24.9 25c5 5 13.1 5 18.1 0l53.7-53.7 53.6 53.7c5 5 13.1 5 18.1 0l24.9-25c5-5 5-13 0-18z"/>
				<path id="&lt;Compound Path&gt;" fill-rule="evenodd" class="s2" d="m294.9 115.6l24.9 24.9c3.9 3.8 6 9 6 14.4 0 5.5-2.1 10.6-6 14.4l-48.2 48.3 48.2 48.3c8 7.9 8 20.9 0 28.8l-24.9 25c-3.9 3.8-9 5.9-14.4 5.9-5.5 0-10.6-2.1-14.5-5.9l-48.2-48.3-48.3 48.3c-3.8 3.8-9 5.9-14.4 5.9-5.5 0-10.6-2.1-14.5-5.9l-24.9-25c-7.9-7.9-7.9-20.9 0-28.8l48.3-48.3-48.3-48.3c-7.9-7.9-7.9-20.9 0-28.8l24.9-24.9c3.9-3.9 9-6 14.5-6 5.4 0 10.6 2.1 14.4 6l48.3 48.2 48.2-48.2c3.9-3.9 9-6 14.5-6 5.4 0 10.5 2.1 14.4 6zm-23.5 5.3l-53.6 53.7-53.7-53.7c-2.5-2.5-5.7-3.7-9-3.7-3.3 0-6.6 1.2-9.1 3.7l-24.9 25c-5 5-5 13.1 0 18.1l53.7 53.6-53.7 53.7c-5 5-5 13 0 18l24.9 25c2.5 2.5 5.8 3.7 9.1 3.7 3.3 0 6.5-1.2 9-3.7l53.7-53.7 53.6 53.7c2.5 2.5 5.8 3.7 9.1 3.7 3.2 0 6.5-1.2 9-3.7l24.9-25c5-5 5-13 0-18l-53.6-53.7 53.6-53.6c5-5 5-13.1 0-18.1l-24.9-25c-2.5-2.5-5.8-3.7-9-3.7-3.3 0-6.6 1.2-9.1 3.7z"/>
			</g>
		</g>
		<g id="play_button" style="display: none">
			<path id="shadow 15 " class="s1" d="m533 327.9c0 110.4-88.1 199.9-196.7 199.9-108.6 0-196.7-89.5-196.7-199.9 0-110.4 88.1-199.9 196.7-199.9 108.6 0 196.7 89.5 196.7 199.9z"/>
			<g id="button 15 ">
				<path id="&lt;Path&gt;" class="s2" d="m533 307c0 110.4-88.1 199.9-196.7 199.9-108.6 0-196.7-89.5-196.7-199.9 0-110.4 88.1-199.9 196.7-199.9 108.6 0 196.7 89.5 196.7 199.9z"/>
				<path id="&lt;Path&gt;" class="s74" d="m519.6 293.6c0 101.3-82 183.3-183.3 183.3-101.2 0-183.3-82-183.3-183.3 0-101.2 82.1-183.3 183.3-183.3 101.3 0 183.3 82.1 183.3 183.3z"/>
				<path id="&lt;Path&gt;" class="s75" d="m447.3 324.9l75.1-3.5c1.4-9.1 2.1-18.4 2.1-27.8 0-13.2-1.4-26.2-4-38.6l-84-8.8 80.2-6.3c-9.2-30.7-25.9-58.1-48.1-80.1l-141.3-12h128c-32.5-26.5-73.9-42.4-119-42.4-85.3 0-157.3 56.8-180.4 134.6l90.7 7.7-94.5 7.6c-2.6 12.3-4 25.2-4 38.3 0 9.6 0.8 19.1 2.2 28.4l48.1 5.9-44.5 12.2c10.3 40.3 33.6 75.4 65.2 100.6l16.7-13.5-3.6 23.1q9.6 6.4 20 11.6l14.1-18.9v25.3c21.6 8.7 45.2 13.5 70 13.5 33.4 0 64.7-8.7 91.9-24l-4-22.7 15.4 15.8c39.8-26.2 69-67.1 80-114.9z"/>
				<path id="&lt;Path&gt;" class="s76" d="m447.3 324.9l75.1-3.5c1.4-9.1 2.1-18.4 2.1-27.8 0-13.2-1.4-26.2-4-38.6l-84-8.8 80.2-6.3c-9.2-30.7-25.9-58.1-48.1-80.1l-141.3-12h128c-32.5-26.5-73.9-42.4-119-42.4-85.3 0-157.3 56.8-180.4 134.6l90.7 7.7-94.5 7.6c-2.6 12.3-4 25.2-4 38.3 0 9.6 0.8 19.1 2.2 28.4l48.1 5.9-44.5 12.2c10.3 40.3 33.6 75.4 65.2 100.6l16.7-13.5-3.6 23.1q9.6 6.4 20 11.6l14.1-18.9v25.3c21.6 8.7 45.2 13.5 70 13.5 33.4 0 64.7-8.7 91.9-24l-4-22.7 15.4 15.8c39.8-26.2 69-67.1 80-114.9z"/>
				<path id="&lt;Path&gt;" class="s6" d="m327.3 147.8q70.6 8.6 141.3 17.2c21 20.7 37 46.4 46.4 75.1l1.7-0.2c-9.2-30.7-25.9-58.1-48.1-80.1l-80.5-6.8q-30.4-2.6-60.8-5.2z"/>
				<path id="&lt;Path&gt;" class="s6" d="m436.5 246.2q42 7 84 13.9c2.5 11.8 3.8 24 3.9 36.5 0-1 0.1-2 0.1-3 0-13.2-1.4-26.2-4-38.6l-55.7-5.8q-14.2-1.5-28.3-3z"/>
				<path id="&lt;Path&gt;" class="s7" d="m185.4 331.4l-31.5 8.7c0.4 1.6 0.9 3.2 1.4 4.8q21.5-8.5 43.1-17-6.5 1.8-13 3.5z"/>
				<path id="&lt;Path&gt;" class="s7" d="m447.3 324.9q35.5 8 71.1 16.1c0.4-1.7 0.9-3.3 1.2-5l-46.5-7.1q-12.9-2-25.8-4z"/>
				<path id="&lt;Path&gt;" class="s6" d="m336.3 110.6c42.1 0 81 13.9 112.3 37.2h6.7c-32.5-26.5-73.9-42.4-119-42.4-85.3 0-157.3 56.8-180.4 134.6l1.6 0.1c24.7-75.2 95.4-129.5 178.8-129.5z"/>
				<path id="&lt;Path&gt;" class="s6" d="m152.1 260.4q47.2-6.3 94.5-12.7-15.7 1.2-31.3 2.5l-63.2 5.1c-2.6 12.3-4 25.2-4 38.3 0 1 0.1 2 0.1 3 0.1-12.4 1.4-24.5 3.9-36.2z"/>
			</g>
			<g id="symbol 15 ">
				<path id="&lt;Path&gt;" class="s77" d="m428.9 274.9l-130.8-75.5c-16.7-9.6-37.5 2.4-37.5 21.7v151c0 19.3 20.8 31.3 37.5 21.7l130.8-75.5c16.7-9.6 16.7-33.7 0-43.4z"/>
				<path id="&lt;Compound Path&gt;" fill-rule="evenodd" class="s2" d="m301.9 192.8l130.8 75.5c10.2 5.9 16.3 16.5 16.3 28.3 0 11.8-6.1 22.4-16.3 28.3l-130.8 75.5c-5 2.9-10.6 4.4-16.2 4.4-18.1 0-32.7-14.7-32.7-32.7v-151c0-18 14.6-32.7 32.7-32.7 5.6 0 11.2 1.5 16.2 4.4zm-41.3 28.3v151c0 14.6 12 25.1 25.1 25.1 4.1 0 8.4-1.1 12.4-3.4l130.8-75.5c16.7-9.6 16.7-33.7 0-43.4l-130.8-75.5c-4-2.3-8.3-3.4-12.4-3.4-13.1 0-25.1 10.5-25.1 25.1z"/>
			</g>
		</g>
	</g>
</svg>