<?xml version="1.0" encoding="utf-8"?>
<!-- Generator: Adobe Illustrator 27.6.1, SVG Export Plug-In . SVG Version: 6.00 Build 0)  -->
<svg version="1.1" id="Layer_1" xmlns="http://www.w3.org/2000/svg" xmlns:xlink="http://www.w3.org/1999/xlink" x="0px" y="0px"
	 viewBox="0 0 940.6 753.3" style="enable-background:new 0 0 940.6 753.3;" xml:space="preserve">
<style type="text/css">
	.st0{display:none;}
	.st1{display:inline;}
	.st2{fill:#C18156;}
	.st3{fill:#DA9859;}
	.st4{opacity:0.5;}
	.st5{fill:#7C5438;}
	.st6{opacity:0.5;fill:#7C5438;enable-background:new    ;}
	.st7{fill-rule:evenodd;clip-rule:evenodd;fill:#7C5438;}
	.st8{opacity:0.5;fill-rule:evenodd;clip-rule:evenodd;fill:#CE9F38;enable-background:new    ;}
	.st9{fill-rule:evenodd;clip-rule:evenodd;fill:#E5AE41;}
	.st10{fill-rule:evenodd;clip-rule:evenodd;fill:#CE9F38;}
	.st11{fill:#E5AE41;}
	.st12{opacity:0.5;fill:#CE9F38;enable-background:new    ;}
	.st13{fill-rule:evenodd;clip-rule:evenodd;fill:#AF663D;}
	.st14{opacity:0.4;fill:#CE9F38;enable-background:new    ;}
	.st15{fill:#B0673E;}
	.st16{fill:#8E4121;}
	.st17{fill:#EDC38F;}
	.st18{fill:#F0D2AA;}
	.st19{fill:#AF663D;}
	.st20{fill-rule:evenodd;clip-rule:evenodd;fill:#B0673E;}
	.st21{fill-rule:evenodd;clip-rule:evenodd;fill:#F0D2AA;}
	.st22{opacity:0.56;fill:#AF663D;}
</style>
<g id="_x34_th-slide" class="st0">
	<g id="_x34_th" class="st1">
		<path class="st2" d="M24.3,613.4c7.2,19.4,21,23.6,40.6,27.4c-5.3-0.1-26.1-3.3-29.9,0c-4.6,4.2-1.8,23.5-1.6,29
			c0.4,9.9-3.3,34.8,4.6,41.6c7.2,6.1,156,2.3,218.5,2.7c75.6,0.5,150.7,1,226.4,1.6l15.8,1.3c10.7,3.6,36.8-6.8,50-8.3
			c14.7-1.6,30.8-2.6,45.5-1.8c30,1.8,59.3,7.5,89.9,7.7c62,0.5,205.8-2.6,213.3-5.9c9.1-3.9,6.9-11.4,7.5-21.8
			c0.6-10.1,3.5-18.2,1.5-28.1c-1.7-8.1-4.5-15.9-6.2-24.2c-5.5,0.2-11.5-0.2-16.7-1.8c8-9.7,25.2,1,30.4-10.5
			c6.4-13.9-6-23.2-17.9-22.3c2.8-30-33.8-22-55.8-22.2c-54.9-0.3-277,1.6-334.4,6.3c-40,3.2-80.6-7-120.7-3.3
			c-41.2,3.8-240.9-16.7-313.3-3.4c-12.6,2.3-51.6-7.2-54.9,2.1C14,587.6,21.5,605.8,24.3,613.4L24.3,613.4z"/>
		<path class="st3" d="M812.7,701.1c-54.4,1.2-111.6,1-165.6-2.4c-72.7-4.7-144.7-11.6-218.5-12.2c-41.8-0.3-79,9.6-119.6,13
			c-32.5,2.7-56.8-3.1-87.7-5.4c-41.4-3-81.2,4.5-122,5.5c-19.6,0.5-45.7,1.5-66.1-1.1c0.6,5.6,1.9,10.4,4.8,12.9
			c7.2,6.1,156,2.3,218.5,2.7c75.6,0.5,150.7,1,226.4,1.6l15.8,1.3c10.7,3.6,36.9-6.8,50-8.3c14.7-1.6,30.8-2.6,45.5-1.8
			c30,1.8,59.3,7.5,89.9,7.7c62,0.5,205.8-2.6,213.3-5.9c5.8-2.5,7-6.4,7.3-11.6C878.7,700.3,820.7,700.9,812.7,701.1z"/>
		<path class="st3" d="M62.4,650.9c11.8,0.1,23.2,0.1,34.6-1.5c8.7-1.2,8.3-2.5,16.8-4.1c8-1.4,146.6,3.2,153.3,1.6
			c-2.7,0-120.2-9.5-122.9-9.5c-9.2-0.1-26-0.3-35.2-1.3c-10.8-1.2-19.7-3-30.3-5.1s-21-3.6-31.4-6.2c-4.4-1.1-12.4-1-18.5-2.4
			c7.8,11.9,20,15.2,36.1,18.4c-5.3-0.1-26.1-3.3-29.9,0c-1.5,1.4-2.2,4.5-2.5,8.2C42.3,649,52.5,650.9,62.4,650.9L62.4,650.9z"/>
		<path class="st3" d="M39.2,617.8c10.1,1.5,20.3,2.6,30.5,4.8c19.2,4.3,37.2,8.6,56.8,9.9c15.1,1,30.3-0.2,45.4,1.3
			c15.4,1.5,30.7,2.1,46.1,3.5c8.1,0.8,16.1,3.5,24.3,4.1c8,0.5,16.2,0,24.3,0.8c12.1,1.1,24.1,1.5,36.3,2.4c-2,4.2-15,5.1-19.5,5.7
			c-11.7,1.6-23.5,0.9-35.2,0.2c-20.6-1.3-39.7,2.5-60.2,0.8c-17.6-1.5-42.2-3.5-59.6-1.5c-10.8,1.2-18.8,1.3-29.2,4.7
			c-9,2.9-17.8,3.5-27.2,4.6c-13.4,1.6-26.3-1.3-39.5-2.2c0.2,5.1,0.8,10.1,0.9,12.6c9.1,0,19.6,2.6,24.6,3.6
			c13.6,2.6,25.5,6,39.3,4.6c14.7-1.3,28.8-2.8,42.9-5.1c13.5-2.2,25.8-9.8,40.7-8.9c19.9,1.1,40.3-2.7,60.1-0.6
			c21.7,2.2,39.3,1.6,60.9,0.7c41.2-1.8,99.7-7,138.1-18.4c-13.7-1.3-48.2-5.2-61.2-10.2c-13.4-5.1-21.8-11.8-36.3-12.6
			c-27-1.6-54.5,1.2-82.2,1c-41.7-0.3-83.9-1.3-125.1-3.7c-20.6-1.2-41-1.1-60.8-5c-14.6-2.9-37.5-3.1-52.8-8.8c1,2.9,2,5.4,2.7,7.3
			c0.4,1.1,0.8,2.2,1.3,3.2C30,616,35.8,617.3,39.2,617.8L39.2,617.8z"/>
		<path class="st3" d="M505.8,584.1c-40,3.2-80.6-7-120.7-3.3c-10.6,1-31.7,0.3-58.5-0.9c13.3,3.9,27.2,5.8,41.7,6.9
			c33.7,2.4,68.9,3.3,102.4,8.3c39.5,5.9,74.1,18.4,114.4,17.2c40.1-1.3,81.2-0.8,120.7-3.8c20.8-1.6,41.1-3.4,62.2-3.2
			c20.6,0.1,39.6-3.7,59.8-4.3c20.5-0.6,40.4-1.5,59.8-2.3c2.5-0.1,5.4-0.3,8.5-0.5c1.2-27.9-34.3-20.2-55.9-20.4
			C785.3,577.5,563.2,579.4,505.8,584.1L505.8,584.1z"/>
		<path class="st3" d="M863.1,604.1c-41.5,0.7-84.1,6.5-125.3,10.2c-81.2,7.1-168.4,12.9-247.7-5.7c-43-10-85.5-11.3-129.4-17
			c-19.2-2.6-37-7.5-54.6-12.7c-72.4-3.7-172.1-9.7-224.7-3c12.9,7.8,24.4,14.9,28.4,15.6c16.3,2.9,34.4,3.8,51.2,5
			c38,2.9,77.7,3,115.8,3.2c20,0.2,36.9,0.6,55.8,3.8c17.3,3,36.8,4.9,55,6.7c18.8,1.9,38.1,3.2,55.8,7
			c15.9,3.4,30.4,10.3,45.5,15.2c16.4,5.4,34.7,9.7,52.1,12.8c17.4,3,35.5,0.6,52.7,1.1c-0.4-0.1-0.5-0.3-0.4-0.6
			c15.3,0.7,32.3-1.5,47.7-2.3c15.8-0.8,32.6-0.5,48.8-1.3c41.4-2,81.1,0.6,121.9,2.5c19.9,0.9,40.4,1.2,60.9,2
			c10,0.4,19.1,2.6,29.2,2.6c0.7,0,1.5,0,2.2,0c-1.4-4.8-2.8-9.6-3.8-14.6c-5.5,0.2-11.5-0.2-16.7-1.8c8-9.7,25.2,1,30.4-10.5
			c3-6.6,1.8-12.2-1.6-16.1C893.7,606.2,872.8,603.9,863.1,604.1L863.1,604.1z"/>
		<path class="st3" d="M881.1,651.5c-20.8-0.1-40.9-2.1-61.2-2.8c-64.1-2.4-125.1-1.6-188.7,0.9c-32.8,1.3-66.1,3-98.5-1.3
			c-27.4-3.6-45.2-15-70.9-20.9c-37.5-8.5-78.3-11.3-116.8-16.7c-43.6-6-86.8-4.8-131.7-5c-25,0-55.5-2.2-80.4-5.4
			c-9.4-1.2-39-11.6-64.6-22.6c-15.1,0.6-48.3-6.8-51.4,1.8c-1.6,4.6,0.1,12.6,2.4,19.9c15.2-5.9,59.4,4.3,70.9,5.5
			c32.8,3.7,65.8,7.4,98.7,10.4c53,5,106.3-3.3,159.7,2.4c21,2.2,38,16.2,59.6,18.7c10.5,1.2,50.3,2.9,52.2,14.9
			c-26.2,5-52.8,3.7-79.3,11.8c-32.1,9.8-60.5,8-94.1,7.9c-44.1-0.2-88.7-8-130.2,3c-22.3,6-45.3,9.3-68.6,6.6c-17-2-38.6-4-55-1.2
			c-0.2,3.8-0.4,7.9-0.3,12.1c9.6,0.3,21.3,1.9,25,2.1c15.9,0.9,32.7,0.5,48.8,0.5c33.2,0,62.4-6.8,95.1-5.6
			c38.6,1.3,79.4,8.1,117,3c38.6-5.2,76.9-16.1,117.2-14.7c40.1,1.5,80.8,2.1,120.6,5.7c39.6,3.7,78.4,10.1,119.4,11.3
			c40.9,1.3,81,2,121.9,2.3c21.3,0.1,40.4-1.4,61-2.4c13.5-0.7,30.9-2.3,45.9-1.6c0-1.6,0-3.4,0.1-5.2c0.6-10.1,3.5-18.2,1.5-28.1
			c-0.5-2.2-1-4.3-1.6-6.4C896.2,652.2,887.4,651.6,881.1,651.5z"/>
		<g class="st4">
			<path class="st5" d="M883.6,585.8c1.9,4.4,3.5,8.3,4.2,12.9c1.4,8.5-1.6,5.7,6.5,9.1c6.5,2.8,20.5,10.5,6.5,14.5
				c-3.5,1-30.4-0.9-25.9,9.6c1.3,2.9,7.8,2.7,14.3,2.2c-2-0.3-3.9-0.7-5.7-1.3c8-9.7,25.2,1,30.4-10.5c6.4-13.9-6-23.1-17.9-22.3
				c1.8-19.4-12.9-22.9-29.5-23C870.7,581,878.2,578.1,883.6,585.8L883.6,585.8z"/>
			<path class="st5" d="M904.9,686.9c0.6-10,3.5-18.2,1.5-28.1c-1.5-7.3-4.5-16.7-6.2-24.2c-1.4,0.3-9.1,1.8-8.4,12.1
				c0.4,4.9,5.6,10.8,6.6,15.4c1.2,5.8-0.8,13.9-1.7,19.6c-2.4,15.1-9.1,17.8-22.8,21.1c-17.2,4.1-35.7,1.8-53.6,0
				c-16.2-1.7-33.1-0.8-49.6-0.8c-33.5,0-68.1,5.4-102.4,2.5c-14.3-1.2-28.1-6.6-42.2-8.8c-18.7-3-39.3-4.4-58.5-3.3
				c-15.1,0.9-27,6.2-40.7,12c-13.6,5.8-24.5,3.8-38.2,0.2c-40.1-10.6-86.9-2.6-128.4-2.6c-28.2,0-56.3,2.2-84.5,3.4
				c-33,1.5-66.2-2.2-99.2-3.6c-30.8-1.2-61.9-0.6-92.9-0.6c-11.9,0-23.7,1.4-35.7,0.8c-3.3-0.1-9.7,0.7-14.3,0
				c0.7,4.1,2,7.5,4.3,9.4c7.2,6.2,156,2.3,218.5,2.7c75.6,0.6,150.7,1.1,226.4,1.6l15.8,1.3c10.7,3.7,36.8-6.8,50-8.2
				c14.7-1.7,30.8-2.7,45.5-1.8c30,1.7,59.3,7.4,89.9,7.7c62,0.4,205.8-2.7,213.3-5.9C906.5,704.8,904.3,697.4,904.9,686.9
				L904.9,686.9z"/>
		</g>
	</g>
	<g id="_x34_th-dot" class="st1">
		<path class="st6" d="M149.9,637.1c0.7,7.5-4.4,14.1-11.3,14.8c-6.9,0.6-13.1-4.9-13.8-12.5c-0.7-7.5,4.3-14.1,11.2-14.8
			C143,624,149.1,629.5,149.9,637.1L149.9,637.1z"/>
		<path class="st7" d="M135.3,646.2c-6.6,0-11.9-5.3-11.9-11.9c0-6.6,5.3-11.9,11.9-11.9c6.6,0,11.9,5.3,11.9,11.9
			C147.2,640.9,141.9,646.2,135.3,646.2z"/>
		<path class="st8" d="M133.5,639.5c-4,0-7.2-3.2-7.2-7.2s3.2-7.2,7.2-7.2s7.2,3.2,7.2,7.2S137.5,639.5,133.5,639.5z"/>
		<path class="st9" d="M132.3,634.6c-1.8,0-3.3-1.5-3.3-3.3s1.5-3.2,3.3-3.2s3.3,1.4,3.3,3.2S134.1,634.6,132.3,634.6z"/>
	</g>
	<g id="_x34_th-dot_00000084516990637777579080000015318639905738451598_" class="st1">
		<path class="st6" d="M818.3,642.3c0.8,7.6-4.3,14.2-11.2,14.9c-6.9,0.6-13.1-5-13.8-12.5s4.3-14.2,11.2-14.8
			C811.5,629.2,817.6,634.8,818.3,642.3L818.3,642.3z"/>
		<path class="st7" d="M803.8,651.5c-6.6,0-11.9-5.3-11.9-11.9c0-6.6,5.3-11.9,11.9-11.9c6.6,0,11.9,5.3,11.9,11.9
			C815.7,646.2,810.4,651.5,803.8,651.5z"/>
		<path class="st8" d="M802,644.7c-4,0-7.2-3.2-7.2-7.1c0-4,3.2-7.2,7.2-7.2s7.2,3.2,7.2,7.2C809.2,641.5,806,644.7,802,644.7z"/>
		<path class="st9" d="M800.8,639.9c-1.8,0-3.3-1.5-3.3-3.3s1.5-3.2,3.3-3.2s3.2,1.4,3.2,3.2S802.6,639.9,800.8,639.9z"/>
	</g>
</g>
<g>
	<g id="back-side">
		<path class="st7" d="M140,155.7c-21,0-38-17-38-38s17-38,38-38s38,17,38,38S161,155.7,140,155.7z M165.8,117.7
			c0-14.3-11.5-25.8-25.8-25.8s-25.8,11.5-25.8,25.8s11.5,25.8,25.8,25.8S165.8,132,165.8,117.7z"/>
		<g class="st4">
			<path class="st10" d="M140.4,151.7c-19,0-34.3-15.4-34.3-34.4S121.4,83,140.4,83s34.4,15.3,34.4,34.3S159.4,151.7,140.4,151.7
				L140.4,151.7z M170.7,117.3c0-16.7-13.5-30.3-30.3-30.3c-16.7,0-30.3,13.6-30.3,30.3c0,16.8,13.6,30.3,30.3,30.3
				C157.2,147.6,170.7,134.1,170.7,117.3z"/>
		</g>
		<path class="st11" d="M126.3,88.3c-1.8-0.3-3.7-0.2-5.2,0.8l-2,1.2c-3,4.6-7.7,7.6-10.2,13c-1.3,2.8-2,6-2.4,8.9
			c-0.5,3.5,0.3,8,3.3,3.7c3.3-4.6,2.7-11.8,5.9-16.7C117.8,96.1,127,91.9,126.3,88.3z"/>
		<path class="st11" d="M172.3,121.7c-3.1-0.8-5.3,12.3-7.7,15.3c-4.5,5.7-9.3,7.7-15.8,9.4l-1.3,0.4c-3.2,0.1-2.8,2.4,0,2.8
			c1.5,0.3,4.6-1.1,6-1.7c3.7-1.5,6.8-3.7,9.6-6.3C167.8,137.2,175.1,128.7,172.3,121.7z"/>
		<path class="st7" d="M147.5,154.1v29.7h-15v-29.7H147.5z"/>
		<path class="st12" d="M134.5,157.8l0.2,24.8l6.3,1l-1.2-22.4L134.5,157.8z"/>
		<path class="st7" d="M809.1,155.7c-21,0-38-17-38-38s17-38,38-38s38,17,38,38S830.1,155.7,809.1,155.7z M834.9,117.7
			c0-14.3-11.5-25.8-25.8-25.8s-25.8,11.5-25.8,25.8s11.5,25.8,25.8,25.8S834.9,132,834.9,117.7z"/>
		<g class="st4">
			<path class="st10" d="M809.5,151.7c-19,0-34.3-15.4-34.3-34.4S790.5,83,809.5,83s34.4,15.3,34.4,34.3S828.5,151.7,809.5,151.7z
				 M839.8,117.3c0-16.7-13.5-30.3-30.3-30.3c-16.7,0-30.3,13.6-30.3,30.3c0,16.8,13.6,30.3,30.3,30.3
				C826.3,147.6,839.8,134.1,839.8,117.3z"/>
		</g>
		<path class="st11" d="M795.4,88.3c-1.8-0.3-3.7-0.2-5.2,0.8l-2,1.2c-3.1,4.6-7.7,7.6-10.2,13c-1.3,2.8-2,6-2.4,8.9
			c-0.5,3.5,0.3,8,3.3,3.7c3.3-4.6,2.7-11.8,5.9-16.7C786.9,96.1,796.1,91.9,795.4,88.3L795.4,88.3z"/>
		<path class="st11" d="M841.4,121.7c-3.1-0.8-5.3,12.3-7.7,15.3c-4.5,5.7-9.3,7.7-15.8,9.4l-1.3,0.4c-3.2,0.1-2.8,2.4,0,2.8
			c1.5,0.3,4.6-1.1,6-1.7c3.7-1.5,6.8-3.7,9.6-6.3C836.9,137.2,844.1,128.7,841.4,121.7z"/>
		<path class="st7" d="M816.6,154.1v29.7h-15v-29.7H816.6z"/>
		<path class="st12" d="M803.6,157.8l0.2,24.8l6.3,1l-1.2-22.4L803.6,157.8z"/>
		<path class="st13" d="M163.2,188v554.1h-47.6V188L163.2,188z"/>
		<path class="st7" d="M162.7,698v16.9h-46.6V698H162.7z"/>
		<path class="st13" d="M829.6,188v554.1H782V188L829.6,188z"/>
		<path class="st7" d="M829.1,700.9v16.9h-46.6v-16.9H829.1z"/>
		<path class="st7" d="M140,66.1c-15.2,0-27.5-12.3-27.5-27.5s12.3-27.4,27.5-27.4c15.1,0,27.4,12.2,27.4,27.4S155.1,66.1,140,66.1z
			 M158.6,38.6c0-10.3-8.3-18.6-18.6-18.6s-18.7,8.3-18.7,18.6s8.4,18.7,18.7,18.7S158.6,48.9,158.6,38.6z"/>
		<g class="st4">
			<path class="st10" d="M140.3,63.1c-13.7,0-24.8-11-24.8-24.8c0-13.7,11.1-24.8,24.8-24.8s24.8,11.1,24.8,24.8
				C165.1,52.1,154,63.1,140.3,63.1z M162.1,38.3c0-12.1-9.7-21.8-21.8-21.8s-21.9,9.7-21.9,21.8s9.8,21.9,21.9,21.9
				S162.1,50.4,162.1,38.3z"/>
		</g>
		<path class="st11" d="M130.1,17.4c-1.3-0.2-2.7-0.2-3.8,0.5l-1.4,0.9c-2.2,3.4-5.6,5.5-7.4,9.4c-0.9,2-1.5,4.3-1.7,6.5
			c-0.3,2.5,0.2,5.7,2.4,2.6c2.3-3.3,1.9-8.5,4.2-12C124,23,130.6,20,130.1,17.4z"/>
		<path class="st11" d="M163.3,41.5c-2.3-0.5-3.8,8.9-5.6,11.1c-3.2,4.1-6.7,5.5-11.4,6.7l-0.9,0.3c-2.3,0.1-2.1,1.7,0,2.1
			c1.1,0.2,3.3-0.9,4.3-1.3c2.7-1,4.9-2.7,6.9-4.5C160.1,52.7,165.3,46.6,163.3,41.5L163.3,41.5z"/>
		<path class="st5" d="M147.4,94c0,3.1-3.4,5.6-7.5,5.6c-4.2,0-7.5-2.5-7.5-5.6V47c0-3,3.3-5.5,7.5-5.5c4.1,0,7.5,2.5,7.5,5.5V94z"
			/>
		<path class="st14" d="M143.1,79.9c0,2.1-1.9,3.8-4.2,3.8c-2.4,0-4.3-1.7-4.3-3.8V47.8c0-2.1,1.9-3.8,4.3-3.8
			c2.3,0,4.2,1.7,4.2,3.8V79.9z"/>
		<path class="st11" d="M138.6,61.4c-0.6-4.4,1.4-8.5,0.8-12.7c-0.6-0.2-1.2-0.6-1.9-0.6h-0.3c-2.8,2.8-0.3,9.4-0.5,13
			c-0.1,2-2.4,11.4,1.1,11.4C141,72.5,138.8,63.2,138.6,61.4z"/>
		<path class="st7" d="M809.1,69.4c-15.2,0-27.4-12.3-27.4-27.5c0-15.1,12.2-27.4,27.4-27.4s27.4,12.3,27.4,27.4
			C836.5,57.1,824.3,69.4,809.1,69.4z M827.7,41.9c0-10.3-8.3-18.6-18.6-18.6s-18.6,8.3-18.6,18.6c0,10.4,8.3,18.7,18.6,18.7
			S827.7,52.3,827.7,41.9z"/>
		<g class="st4">
			<path class="st10" d="M809.4,66.5c-13.7,0-24.8-11.1-24.8-24.8c0-13.8,11.1-24.9,24.8-24.9s24.8,11.1,24.8,24.9
				C834.2,55.4,823.1,66.5,809.4,66.5z M831.3,41.7c0-12.1-9.8-21.9-21.9-21.9c-12.1,0-21.8,9.8-21.8,21.9s9.7,21.8,21.8,21.8
				S831.3,53.8,831.3,41.7z"/>
		</g>
		<path class="st11" d="M799.2,20.7c-1.3-0.2-2.6-0.1-3.7,0.6l-1.5,0.8c-2.2,3.4-5.5,5.5-7.3,9.4c-1,2.1-1.5,4.4-1.8,6.5
			c-0.3,2.5,0.2,5.7,2.4,2.6c2.4-3.3,2-8.5,4.3-12C793.1,26.3,799.7,23.3,799.2,20.7z"/>
		<path class="st11" d="M832.4,44.8c-2.2-0.5-3.8,8.9-5.5,11.1c-3.3,4.1-6.7,5.5-11.5,6.7l-0.9,0.3c-2.3,0.1-2,1.7,0,2.1
			c1.1,0.2,3.4-0.9,4.4-1.3c2.6-1,4.8-2.7,6.9-4.5C829.2,56,834.4,49.9,832.4,44.8z"/>
		<path class="st5" d="M816.5,97.4c0,3-3.3,5.5-7.5,5.5c-4.1,0-7.5-2.5-7.5-5.5v-47c0-3.1,3.4-5.6,7.5-5.6c4.2,0,7.5,2.5,7.5,5.6
			V97.4z"/>
		<path class="st14" d="M812.3,83.2c0,2.1-1.9,3.8-4.3,3.8c-2.4,0-4.3-1.7-4.3-3.8V51.1c0-2.1,1.9-3.8,4.3-3.8
			c2.4,0,4.3,1.7,4.3,3.8V83.2z"/>
		<path class="st11" d="M807.7,64.7c-0.6-4.4,1.5-8.5,0.8-12.7c-0.6-0.2-1.2-0.5-1.8-0.6h-0.3c-2.8,2.8-0.4,9.5-0.6,13
			c-0.1,2-2.4,11.4,1.1,11.4C810.1,75.8,808,66.5,807.7,64.7z"/>
	</g>
	<g>
		<path class="st15" d="M393,316.3c-8.8,0-16.8-0.2-24.5-0.7c-36.9-2.4-74.9-2.7-111.6-3c-38.7-0.3-78.7-0.7-117.6-3.4
			c-6.5-0.5-13.3-1.1-19.8-1.7l-0.3,0c-13.3-1.2-27.1-2.5-40.2-2.5l-1.3,0c-7,0-13.3,0.5-19.2,1.3l-1.2,0.2
			c-3.5,0.5-9.4,1.4-15.1,1.4l-0.4,0c-8.9,0-14.6-2.3-17.4-6.8c-2.1-3.5-2.5-8.2-1.3-14.8l0.4-2l0.4-0.4l0.3-1.2
			c1.7-6.9,4.4-13.7,5.5-16.2l0.6-1.4l1.9-1.7l1.4-0.4c1.2-0.4,2.5-0.7,3.7-1c-1.4-1.2-2.7-2.8-3.8-5.1c-0.2-0.4-0.4-0.9-0.6-1.5
			c-0.1-0.2-0.1-0.4-0.2-0.6c-0.1-0.4-0.2-0.7-0.3-1c-0.7-3-0.9-6.9-0.6-12.2l0.2-2.9l0.1-0.1l0,0c0.2-2.5,0.5-5,0.7-7.2
			c0.4-3.3,0.7-6.3,0.7-8.2c0-2.6-0.4-6.2-1.1-11l-0.6-3.6l0.1-0.2c-0.1-0.9-0.2-1.8-0.4-2.8l-0.1-0.1l-0.4-3.4
			c-0.5-5.2-0.5-9.2-0.1-12.9l0-0.2c0.1-0.4,0.1-0.8,0.2-1.1l0-0.1c0.1-0.4,0.1-0.7,0.2-1.1c0.1-0.3,0.1-0.6,0.2-0.9
			c0.1-0.4,0.2-0.9,0.3-1.3c0.1-0.2,0.1-0.5,0.2-0.7c0.1-0.5,0.3-1.1,0.5-1.6l0.1-0.4c0.9-2.3,2-4.4,3.4-6.2
			c0.1-0.1,0.2-0.2,0.3-0.3c0.4-0.5,0.8-1,1.3-1.5c0.1-0.1,0.2-0.2,0.4-0.4c0.4-0.4,0.9-0.8,1.4-1.2c0.2-0.2,0.3-0.3,0.5-0.4
			c0.5-0.4,1-0.7,1.6-1.1c0.1-0.1,0.3-0.2,0.4-0.3c0.8-0.5,1.5-0.8,2.3-1.2c1-0.4,2.1-0.8,3.3-1.2c1.1-0.3,2.2-0.6,3.5-0.8
			c2.2-0.4,4.7-0.7,7.5-0.9c1.9-0.1,4-0.2,6.2-0.2c0.6,0,1.2,0,1.8,0c0.7,0,1.4,0,2.1,0c3.6,0.1,7.6,0.3,12.5,0.7l2,0.2
			c2.5,0.2,4.9,0.4,7.2,0.6L91,168c2.5,0.2,4.8,0.4,7,0.6c1.1,0.1,2.1,0.2,3,0.2c0.9,0.1,1.8,0.1,2.6,0.1c3.1,0.1,6.3,0.1,9.5,0.1
			c3.1,0,6.4,0,9.6-0.1l0.2,0l0-0.2l21.1,0l2,0c1.1,0,2.2,0,3.2,0c4.1,0,7.7,0,11,0.1c2.3,0,4.6,0.1,7,0.1c14.8,0,29.8-0.9,44.3-1.8
			l0.1,0c14.7-0.9,29.9-1.9,45.2-1.9c8.8,0,16.8,0.3,24.5,0.9c1.9,0.2,4,0.2,6.4,0.2c2.2,0,4.5-0.1,6.7-0.1c2.3-0.1,4.7-0.1,7-0.1
			c4.3,0,7.9,0.2,11.1,0.7c5.2,0.7,9.7,2.8,14.2,4.8c4,1.8,7.7,3.5,11.2,3.8c0.5,0,1,0.1,1.5,0.1c4.7,0,8.7-2.1,13.6-4.8
			c3.4-1.8,6.9-3.7,11-5.1c13.9-4.5,28.4-5.6,40.8-6.1c3.4-0.1,6.8-0.2,10.2-0.2c33.4,0,66.6,5.2,98.7,10.1
			c12,1.9,24.3,3.8,36.3,5.4c12.3,1.6,25.5,2.4,40.4,2.4c19.8,0,39.8-1.4,59.2-2.8c19.5-1.4,39.6-2.8,59.5-2.8c1.3,0,2.6,0,3.9,0
			c2.5,0,5.1,0,7.6,0c27.6,0,55.5-1.6,82.5-3.1l0.2,0c18.2-1,36.9-2.1,55.3-2.7c1.6,0,4.2-0.3,7.1-0.6c1.4-0.1,2.8-0.3,4.4-0.4
			c0.7-0.1,1.4-0.1,2.1-0.2c1.4-0.1,2.9-0.2,4.3-0.3c2.1-0.1,3.9-0.2,5.7-0.3c0.4,0,0.8,0,1.2,0c0.6,0,1.3,0,1.9,0
			c0.9,0,1.9,0,2.8,0c0.8,0,1.5,0.1,2.3,0.1c20.2,1.1,24.7,10,24.9,17.3c0,0.9,0,1.8-0.1,2.6c-0.1,0.8-0.2,1.6-0.4,2.4l-0.1,0.4
			c-0.2,0.6-0.4,1.2-0.7,1.8c-0.1,0.2-0.2,0.4-0.3,0.5c-0.3,0.5-0.6,1.1-0.9,1.5c-0.1,0.1-0.2,0.3-0.3,0.4c-0.3,0.5-0.7,0.9-1.1,1.3
			c-0.1,0.1-0.3,0.3-0.4,0.4c-0.4,0.4-0.8,0.7-1.2,1c-0.2,0.1-0.4,0.3-0.6,0.4c-0.4,0.3-0.7,0.5-1.1,0.7c-0.2,0.1-0.5,0.3-0.7,0.4
			c-0.3,0.2-0.6,0.3-0.9,0.5c-0.3,0.1-0.6,0.3-1,0.4c-0.2,0.1-0.4,0.2-0.6,0.2c-0.5,0.2-0.9,0.3-1.3,0.5l-0.2,0.1
			c-1.8,0.6-3.7,1-5.7,1.3c3.9,0.9,7.5,2.4,10,4.9l0.2,0.2c2.9,2.9,5.2,8.2,6.3,14.5c0,0.2,0.1,0.5,0.1,0.8c0.3,1.8,0.5,3.5,0.6,5.2
			l0,0l0.4,0.5l-0.4,3.5c-0.1,0.9-0.2,1.8-0.4,2.7l-0.1,0.3l-0.1,0.1l0.1,0.1l-0.1,0.3c-0.6,2.4-1.5,4.3-2.8,5.8
			c-0.2,0.3-0.5,0.5-0.7,0.7c0.1,0.1,0.3,0.3,0.3,0.3l-0.1,0.1l0.7,0.4l1,1.5c0.2,0.3,0.4,0.6,0.5,0.8c1.6,2.8,2.7,6.3,3.4,10.9
			l0.6,4.3l-0.2,0.2l0,0l0,0.4l0.1,0.1l0.1,2.7c0.1,3.7,0.1,7.3,0,10.4l-0.1,2.9l0,0l-0.1,3c0,0.8,0,1.5-0.1,2.3l0,0.3
			c-0.1,2.4-0.1,5.1-0.4,7.9l-0.3,3.3l-0.1,0.1l0.1,0c-0.1,0.4-0.1,0.9-0.2,1.3l0,0l0.2,0.2l-0.9,4c-0.7,3.1-1.7,5.7-3.1,7.9
			c-0.2,0.4-0.5,0.8-0.8,1.2c-0.4,0.5-0.7,0.9-1.1,1.3c-0.5,0.5-0.9,0.9-1.3,1.3c-2.9,2.4-6.6,3.6-11.3,3.6l-0.5,0
			c-4.9,0-10.1-1.4-14.7-2.5c-2.4-0.6-4.7-1.2-6.3-1.4c-11-1.4-22.7-2-37-2l-0.8,0c-10,0-19.9,0.3-30,0.6c-3.6,0.1-7.3,0.2-11.2,0.2
			l-2.1,0c-13.5,0-27-0.6-40.2-1.1l-0.2,0c-10.9-0.4-22.1-0.9-33-1c-3.5,0-7.1,0-10.8,0c-1.8,0-3.6,0-5.5,0
			c-24.2,0.1-47.7,0.7-65.6,1.2c-10.2,0.3-20.3,0.6-30.5,1l-0.5,0c-6.1,0.2-12.1,0.4-18.2,0.6c-17.7,0.6-35.6,2.5-53,4.4
			c-20.2,2.2-41.2,4.5-62.2,4.7c-0.6,0-1.3,0-1.9,0c-2.1,0-4.1,0-6.1-0.1c-3.3-0.1-6.6-0.1-10.1-0.1l-1.9,0c-9.9,0-20,0.3-29.7,0.6
			c-8.5,0.3-17.3,0.5-25.9,0.6c-2,0-4.1,0-6.1,0L393,316.3z"/>
		<path class="st16" d="M415.2,162.3c33.2,0,66.2,5.1,98.2,10.1c12,1.9,24.3,3.8,36.4,5.4c13.5,1.8,27.1,2.4,40.8,2.4
			c19.9,0,39.9-1.4,59.4-2.8c19.5-1.4,39.5-2.8,59.3-2.8c1.3,0,2.6,0,3.9,0c2.5,0,5.1,0,7.6,0c27.7,0,55.7-1.6,82.9-3.2
			c18.1-1,36.9-2.1,55.3-2.7c1.7-0.1,4.3-0.3,7.3-0.6c1.4-0.1,2.8-0.3,4.4-0.4c0.7-0.1,1.4-0.1,2-0.2c1.4-0.1,2.8-0.2,4.3-0.3
			c2-0.1,3.8-0.2,5.6-0.3c0.4,0,0.8,0,1.1,0c0.6,0,1.2,0,1.8,0c0.9,0,1.8,0,2.7,0c0.7,0,1.5,0.1,2.2,0.1
			c14.4,0.8,21.8,5.7,22.1,14.4c0,0.7,0,1.5-0.1,2.2c-0.1,0.6-0.2,1.3-0.4,1.9l-0.1,0.3c-0.1,0.5-0.3,1-0.6,1.5
			c-0.1,0.1-0.1,0.2-0.2,0.3c-0.2,0.4-0.5,0.8-0.7,1.2c-0.1,0.1-0.2,0.2-0.2,0.3c-0.3,0.4-0.6,0.7-0.9,1c-0.1,0.1-0.2,0.2-0.3,0.3
			c-0.3,0.3-0.6,0.6-1,0.8c-0.1,0.1-0.3,0.2-0.5,0.3c-0.3,0.2-0.6,0.4-0.9,0.6c-0.2,0.1-0.4,0.2-0.6,0.4c-0.3,0.1-0.5,0.3-0.8,0.4
			c-0.3,0.1-0.5,0.3-0.8,0.4c-0.2,0.1-0.3,0.1-0.5,0.2c-0.4,0.2-0.8,0.3-1.2,0.4l-0.1,0c-4.7,1.5-10.6,1.9-16.8,2.3
			c-6.5,0.4-13.7,0.9-18.6,2.9c0.9,0,1.9,0.1,2.9,0.1c1.5,0,3,0,4.6,0.2c1.4,0.1,3.2,0.1,5.4,0.2c9.1,0.2,20.4,0.4,25.7,5.6l0.1,0.1
			c2.4,2.5,4.5,7.3,5.5,13c0,0.2,0.1,0.5,0.1,0.7c0.3,1.7,0.5,3.3,0.5,4.8h0.4l-0.4,3.5c-0.1,0.8-0.2,1.6-0.3,2.4l0,0.2l-2.6-0.5v0
			l2.6,0.6l-0.1,0.3c-0.4,1.8-1.2,3.3-2.1,4.5c-1.4,1.7-3.5,1.9-5.6,1.9c0,0-0.1,0-0.1,0c-0.1,0-0.1,0-0.2,0c-0.6,0-1.2,0-1.8-0.1
			c-0.6,0-1.2,0-1.8,0c-1.3,0-1.9,0.2-2.2,0.3l-0.1,0.5c0,0,0,0.1,0,0.1c0,0.5,0.1,0.7,0.1,0.8c0,0,0,0,0,0c0,0,0.3,0.1,1.2,0.2
			c0.6,0,1.4-0.1,2.2-0.1c0.9-0.1,1.8-0.2,2.7-0.2c0,0,0,0,0.1,0c0.1,0,0.2,0,0.2,0c1.4,0,3.4,0.2,4.9,1.7c0,0,0.1,0.1,0.1,0.1h0.2
			l1,1.5c0.2,0.2,0.3,0.4,0.4,0.7c1.4,2.4,2.4,5.6,3,9.8l0.6,4.3l-0.2,0c0,0.1,0,0.3,0,0.4l0.1,0l0.1,2.7c0.1,3.5,0.1,7.1,0,10.1
			l-0.1,3l0,0l-0.1,3c0,0.8,0,1.7-0.1,2.5c-0.1,2.3-0.1,5-0.3,7.7l-0.3,3.3l-0.1,0c-0.1,0.4-0.1,0.8-0.2,1.2h0.2l-0.9,4
			c-0.6,2.7-1.5,5.1-2.7,7c-0.2,0.3-0.4,0.7-0.7,1c-0.3,0.4-0.6,0.8-0.9,1.1c-0.4,0.4-0.7,0.7-1,1c-2.3,1.9-5.4,2.9-9.4,2.9
			c-0.2,0-0.3,0-0.5,0c-4.5,0-9.6-1.3-14-2.4c-2.5-0.6-4.9-1.2-6.7-1.5c-11-1.4-22.9-2-37.4-2c-0.3,0-0.6,0-0.9,0
			c-10,0-19.9,0.3-30.1,0.6c-3.6,0.1-7.2,0.2-11.1,0.2c-0.7,0-1.4,0-2,0c-13.5,0-27.1-0.6-40.3-1.1c-10.9-0.4-22.2-0.9-33.1-1
			c-3.5,0-7.1,0-10.8,0c-1.8,0-3.7,0-5.5,0c-24.2,0.1-47.8,0.7-65.6,1.2c-10.2,0.3-20.3,0.6-30.5,1c-6.2,0.2-12.5,0.4-18.8,0.6
			c-17.8,0.6-35.8,2.5-53.2,4.5c-20.2,2.2-41,4.5-61.9,4.6c-0.6,0-1.3,0-1.9,0c-2,0-4.1,0-6-0.1c-3.3-0.1-6.6-0.1-10.2-0.1
			c-0.6,0-1.3,0-1.9,0c-9.9,0-20.1,0.3-29.9,0.6c-8.5,0.3-17.2,0.5-25.8,0.6c-2,0-4.1,0-6.1,0c-0.3,0-0.6,0-0.9,0
			c-8.9,0-16.9-0.3-24.3-0.7c-37-2.4-75-2.7-111.8-3c-38.7-0.3-78.6-0.7-117.4-3.4c-6.5-0.5-13.2-1.1-19.7-1.7
			c-13.5-1.2-27.5-2.5-40.8-2.5c-0.4,0-0.9,0-1.3,0c-7.2,0-13.6,0.5-19.6,1.3l-1.2,0.2c-3.5,0.5-9.2,1.4-14.7,1.4
			c-0.1,0-0.3,0-0.4,0c-7.8,0-12.6-1.8-14.9-5.4c-1.7-2.7-1.9-6.9-0.9-12.7l0.4-2l0.3-0.1l0.3-1.4c1.7-6.7,4.3-13.3,5.3-15.8
			l0.6-1.4l1.4-0.4c2.2-0.6,4.4-1.2,6.3-1.7l0.9-0.2c2-0.5,3.9-1,5.8-1.5c-0.2,0-0.4,0-0.6,0c-0.3,0-0.5-0.1-0.8-0.1
			c-3-0.4-7.4-1.5-9.8-6.7c-0.2-0.3-0.3-0.7-0.5-1.2c-0.1-0.2-0.1-0.3-0.2-0.5c-0.1-0.3-0.2-0.6-0.2-0.9c-0.7-2.7-0.8-6.3-0.5-11.3
			l0.2-2.9l0.1,0c0.2-2.5,0.5-4.9,0.7-7.2c0.4-3.3,0.7-6.4,0.7-8.4c0-2.8-0.4-6.6-1.2-11.5l-0.6-3.6l0.1,0c-0.1-0.9-0.3-1.9-0.4-2.8
			l-0.1,0l-0.4-3.4c-0.4-4.9-0.5-8.8-0.1-12.2l0-0.2c0-0.3,0.1-0.7,0.1-1l0-0.1c0-0.3,0.1-0.6,0.2-1c0.1-0.3,0.1-0.5,0.2-0.8
			c0.1-0.4,0.2-0.8,0.3-1.2c0.1-0.2,0.1-0.4,0.2-0.6c0.1-0.5,0.3-1,0.5-1.4l0.1-0.4c0.7-2,1.7-3.8,2.9-5.3c0.1-0.1,0.1-0.1,0.2-0.2
			c0.4-0.5,0.8-0.9,1.2-1.3c0.1-0.1,0.2-0.2,0.3-0.3c0.4-0.4,0.8-0.7,1.2-1.1c0.2-0.1,0.3-0.2,0.4-0.3c0.4-0.3,0.9-0.6,1.4-1
			c0.2-0.1,0.3-0.2,0.4-0.2c0.7-0.4,1.3-0.7,2-1c0.9-0.4,1.9-0.7,2.9-1c1-0.3,2.1-0.5,3.2-0.7c2.1-0.4,4.5-0.7,7.1-0.8
			c1.8-0.1,3.9-0.2,6-0.2c0.6,0,1.2,0,1.8,0c0.7,0,1.3,0,2,0c3.6,0.1,7.5,0.3,12.3,0.7l2,0.2c2.5,0.2,4.9,0.4,7.2,0.6l0.6,0.1
			c2.5,0.2,4.8,0.4,7,0.6c1.1,0.1,2.1,0.2,3.1,0.2c1,0.1,1.9,0.1,2.7,0.1c3.2,0.1,6.4,0.1,9.5,0.1c3.2,0,6.4,0,9.6-0.1l0.6,0
			l0.2,0.1c0.1,0,0.2,0,0.2,0l-0.8-0.2l21.1,0l2,0c1.1,0,2.2,0,3.2,0c4,0,7.6,0,11,0.1c2.4,0.1,4.7,0.1,7.1,0.1
			c14.9,0,30-0.9,44.6-1.8c14.8-0.9,29.8-1.8,45.1-1.8c8,0,16.1,0.3,24.2,0.9c2.2,0.2,4.4,0.2,6.6,0.2c2.3,0,4.5-0.1,6.8-0.1
			c2.3-0.1,4.6-0.1,6.9-0.1c3.5,0,7.1,0.1,10.7,0.7c4.8,0.7,9.1,2.6,13.4,4.5c4.2,1.9,8.2,3.7,12.2,4.1c0.6,0.1,1.2,0.1,1.8,0.1
			c5.5,0,10-2.4,15.1-5.2c3.3-1.8,6.6-3.6,10.5-4.9c13.5-4.4,27.8-5.5,40-6C408.5,162.3,411.8,162.3,415.2,162.3 M415.2,156.3
			C415.2,156.3,415.2,156.3,415.2,156.3c-3.5,0-7,0.1-10.3,0.2c-12.7,0.5-27.5,1.7-41.7,6.2l-0.1,0c-4.4,1.5-8.2,3.5-11.5,5.3
			c-4.6,2.5-8.2,4.5-12.2,4.5c-0.4,0-0.8,0-1.3-0.1c-3-0.3-6.5-1.9-10.3-3.6c-4.4-2-9.4-4.2-15-5c-3.4-0.5-7-0.7-11.5-0.7
			c-2.4,0-4.8,0.1-7.1,0.1c-2.2,0.1-4.4,0.1-6.6,0.1c-2.3,0-4.3-0.1-6.1-0.2c-7.8-0.6-15.8-0.9-24.7-0.9c-15.4,0-30.7,0.9-45.4,1.9
			l-0.1,0c-14.4,0.9-29.4,1.8-44.1,1.8c-2.4,0-4.7,0-7-0.1c-3.4-0.1-7-0.1-11.1-0.1c-1.1,0-2.1,0-3.2,0l-2,0l-21.1,0l0,0.2l-0.2,0
			c-3.2,0.1-6.4,0.1-9.5,0.1c-3.1,0-6.3,0-9.4-0.1c-0.7,0-1.6-0.1-2.5-0.1c-0.9-0.1-1.9-0.1-3-0.2c-2.2-0.2-4.5-0.4-6.9-0.6
			l-0.6-0.1c-2.3-0.2-4.7-0.4-7.2-0.6l-2-0.2c-4.9-0.4-8.9-0.6-12.6-0.7c-0.7,0-1.4,0-2.1,0c-0.6,0-1.3,0-1.9,0
			c-2.3,0-4.4,0.1-6.4,0.2c-2.9,0.2-5.5,0.5-7.8,0.9c-1.3,0.2-2.6,0.5-3.8,0.9c-1.3,0.4-2.5,0.8-3.7,1.3c-0.9,0.4-1.7,0.8-2.6,1.3
			c-0.2,0.1-0.3,0.2-0.6,0.3c-0.7,0.4-1.3,0.8-1.8,1.2c-0.1,0.1-0.3,0.2-0.5,0.4c-0.6,0.5-1.1,0.9-1.6,1.4c-0.1,0.1-0.3,0.3-0.4,0.4
			c-0.5,0.5-1,1.1-1.5,1.7c-0.1,0.1-0.2,0.2-0.3,0.4c-1.6,2-2.8,4.3-3.8,6.9l0,0.1l-0.1,0.4c-0.2,0.6-0.4,1.2-0.6,1.8
			c-0.1,0.2-0.1,0.5-0.2,0.8c-0.1,0.5-0.2,1-0.3,1.5c-0.1,0.3-0.1,0.6-0.2,1c-0.1,0.4-0.1,0.8-0.2,1.2l0,0.1
			c-0.1,0.4-0.1,0.7-0.2,1.1l0,0.1l0,0.2c-0.4,3.8-0.4,8.1,0.1,13.4l0,0.1l0.4,3.4l0.1,0.1l0,0c0.1,1,0.2,2,0.4,2.9l-0.1,0.2
			l0.6,3.6c0.7,4.5,1.1,8,1.1,10.5c0,1.7-0.4,4.8-0.7,7.8c-0.3,2.3-0.5,4.8-0.8,7.3l0.1,0l-0.1,0.1l-0.2,2.9
			c-0.3,5.6-0.1,9.8,0.7,13.1c0.1,0.4,0.2,0.7,0.3,1.1c0.1,0.3,0.2,0.5,0.2,0.7c0.2,0.7,0.5,1.3,0.7,1.8c0.3,0.7,0.7,1.4,1.1,2.1
			l-0.6,0.2l-3.9,3.5l-0.6,1.4c-1.1,2.6-3.8,9.5-5.6,16.7l-0.3,1.4l-0.4,0.4l-0.4,2c-1.4,7.4-0.9,12.8,1.6,16.9l0,0.1
			c3.5,5.5,10,8.2,20,8.2l0.4,0c5.9,0,11.9-0.9,15.6-1.4l1.2-0.2c5.7-0.8,11.9-1.2,18.8-1.2c0.4,0,0.9,0,1.3,0
			c13,0,26.7,1.3,39.9,2.5l0.3,0c6.5,0.6,13.3,1.2,19.9,1.7c39,2.7,79,3.1,117.8,3.4c36.7,0.3,74.6,0.6,111.4,3
			c7.7,0.5,15.8,0.8,24.6,0.8l0.9,0c2,0,4.1,0,6.1,0c8.6-0.1,17.4-0.4,25.9-0.6c9.8-0.3,19.9-0.6,29.7-0.6c0.6,0,1.3,0,1.9,0
			c3.5,0,6.8,0,10,0.1c2,0,4,0.1,6.1,0.1c0.6,0,1.3,0,1.9,0c21.2-0.1,42.2-2.4,62.5-4.7c17.3-1.9,35.1-3.9,52.7-4.4
			c6.2-0.2,12.3-0.4,18.4-0.6l0.3,0c9.4-0.3,20-0.7,30.5-1c17.8-0.5,41.3-1.2,65.5-1.2c1.8,0,3.7,0,5.5,0c3.6,0,7.3,0,10.8,0
			c10.8,0.1,22,0.6,32.9,1l0.2,0c13.1,0.5,26.7,1.1,40.3,1.1c0.7,0,1.4,0,2.1,0c4,0,7.7-0.1,11.3-0.2c10.1-0.3,20-0.6,29.9-0.6
			l0.8,0c14.1,0,25.8,0.6,36.6,2c1.4,0.2,3.7,0.8,5.9,1.3c4.8,1.2,10.2,2.6,15.4,2.6c0.2,0,0.4,0,0.5,0c5.4,0,9.8-1.4,13.2-4.3
			c0.6-0.5,1.1-0.9,1.6-1.6c0.5-0.5,0.9-1,1.3-1.6c0.4-0.5,0.7-1,1-1.4c1.5-2.5,2.7-5.4,3.4-8.8l0-0.1l0.9-4l-0.4-0.5l0.3,0
			c0.1-0.4,0.1-0.9,0.2-1.3l-0.2,0l0.3-0.2l0.3-3.3c0.2-2.9,0.3-5.6,0.4-8l0-0.1c0-0.9,0-1.7,0.1-2.5l0-0.1l0.1-3l0,0l0.1-2.9
			c0.1-3.1,0.1-6.8,0-10.5l0-0.1l-0.1-2.7l-0.1-0.1l0,0l0-0.2l0-0.2l-0.3,0l0.4-0.4l-0.6-4.3c-0.7-5-1.9-8.9-3.8-12.1
			c-0.2-0.3-0.4-0.6-0.6-0.9l0-0.1l-0.4-0.5c1.1-1.6,1.9-3.5,2.4-5.7l0-0.1l0.1-0.3l-0.1-0.2l0.2-0.1l0-0.2l0-0.1c0.2-1,0.3-2,0.4-3
			l0.4-3.4l-0.8-0.9l0.5,0c-0.1-1.8-0.3-3.6-0.6-5.5c0-0.3-0.1-0.6-0.2-0.9c-1.3-6.8-3.9-12.7-7.1-16l-0.1-0.1l-0.1-0.1
			c-0.8-0.8-1.8-1.6-2.8-2.2c0.2-0.1,0.5-0.2,0.7-0.3c0.3-0.2,0.7-0.3,1-0.5c0.3-0.2,0.6-0.3,0.9-0.5c0.4-0.3,0.8-0.5,1.2-0.8
			c0.3-0.2,0.5-0.4,0.7-0.5c0.5-0.3,0.9-0.7,1.4-1.2c0.2-0.2,0.3-0.3,0.5-0.5c0.5-0.5,0.9-1,1.3-1.5c0.1-0.2,0.3-0.4,0.4-0.6
			c0.4-0.6,0.8-1.2,1.1-1.8c0.1-0.2,0.2-0.4,0.3-0.6c0.4-0.8,0.6-1.5,0.9-2.3l0.1-0.3l0.1-0.2c0.3-1,0.4-1.9,0.5-2.9
			c0.1-1,0.2-2,0.1-3c-0.2-7-4.1-18.9-27.7-20.2c-0.8,0-1.6-0.1-2.4-0.1c-0.9,0-1.9,0-2.9,0c-0.6,0-1.3,0-1.9,0c-0.4,0-0.8,0-1.2,0
			c-1.8,0-3.7,0.1-5.8,0.3c-1.4,0.1-2.8,0.2-4.4,0.3c-0.7,0.1-1.4,0.1-2.1,0.2c-1.5,0.1-3,0.3-4.4,0.4c-2.8,0.3-5.4,0.5-6.9,0.6
			c-18.5,0.6-37.3,1.7-55.4,2.7l-0.2,0c-26.9,1.5-54.8,3.1-82.3,3.1c-2.5,0-5.1,0-7.6,0c-1.3,0-2.6,0-3.9,0c-20,0-40.2,1.4-59.7,2.8
			c-19.3,1.4-39.3,2.8-59,2.8c-14.7,0-27.8-0.8-40-2.4c-12-1.6-24.3-3.5-36.2-5.4C482.2,161.5,448.8,156.3,415.2,156.3L415.2,156.3
			L415.2,156.3z"/>
	</g>
	<g id="_x31_st-slide">
		<g id="_x31_st">
			<path class="st17" d="M855.2,174.5c-47.7,1.4-95.9,5.9-144.3,5.4c-53.5-0.5-107.8,9.6-161.9,2.9c-46.7-5.8-94.5-15.7-142.7-14.2
				c-13.2,0.5-26.3,1.6-38.8,5.4c-10.2,3.2-17.2,10.4-28.3,9.4c-8.6-0.8-16.5-6.8-25.4-8c-10-1.4-20.4,0.2-30.5-0.6
				c-40.3-3.1-79.6,3.3-119.5,2.5c-18.9-0.4-37.5,0.5-56.1,0.1c-13.7-0.4-43.6-5.1-56.1,0c-16.6,6.9-6.9,31.2-7,44.6
				c-0.1,6.7-3.6,22.8-0.6,28.6c3.9,7.9,14.6,2.5,20.5,6.7c-7.8,3.6-16,4.8-24.2,7c-2.2,5.1-8.9,21.5-5.4,26.8
				c3.9,6,21.7,3.1,27.7,2.3c25.7-3.3,54.3,0.9,81.4,2.7c74.7,4.9,151.4,1.4,226.6,5.9c32.4,2,65.2-1.1,97.9-0.4
				c40.9,0.8,80.5-7.2,121.2-8.4c43.5-1.3,86.4-2.9,130.2-2.6c27.9,0.3,56.6,2.6,85.3,1.8c22.6-0.7,45.9-1.3,68.3,1.3
				c7.2,0.9,21.3,6.6,27.7,1.6c6-4.7,5.5-19.9,5.7-26.9c0.2-7.7,0.9-23.6-4.2-28.4c-2.8-2.6-11.9,2.6-12.3-4.2
				c-0.4-6.8,10.3-2.3,12.5-4.7c3.9-4.2,1-19.2-3.5-23.4c-5.5-5.1-21.9-4.1-28.9-4.6c-5.2-0.4-10,0.5-14.4-1.9
				c9.7-12,47.2-1.5,48.9-16.1C907.1,167.1,866.2,174.2,855.2,174.5L855.2,174.5z"/>
			<path class="st18" d="M889.5,286.5c-28-1.4-53.6-7.4-81.5-8.7c-38.6-1.9-76.8-3.6-115.5-3.6c-41.1,0.1-82.6-1.1-123.5,0.5
				c-36.8,1.5-71.9,6-108.7,8.1c-37.7,2.1-79.2,2-117-1.1c-45.3-3.8-90.1-19.3-136.4-12.1c-18.8,2.9-35.5,7.8-55,10
				c-17.9,2-36.3,3.3-54.7,4c-14.2,0.6-28.9-0.2-42.9,0.3c-6,0.1-13.5,0.8-20.3,0.9c-0.3,2.6-0.1,4.9,0.9,6.3
				c3.9,6,21.7,3.1,27.7,2.3c25.7-3.3,54.3,0.9,81.4,2.7c74.7,4.9,151.4,1.4,226.6,5.9c32.4,2,65.2-1.1,97.9-0.4
				c40.9,0.8,80.5-7.2,121.2-8.4c43.5-1.3,86.4-2.9,130.2-2.6c27.9,0.3,56.6,2.6,85.3,1.8c22.6-0.7,45.9-1.3,68.3,1.3
				c7.2,0.9,21.3,6.6,27.7,1.6c2-1.6,3.4-4.4,4.2-7.7C899.7,287.6,893,286.7,889.5,286.5L889.5,286.5z"/>
			<path class="st17" d="M872.1,240.4c-14.2,0.4-31.2-1-44.7,0.8c17.6,2.3,36.5,3.6,54.4,5.3c7.1,0.6,16.1,1.5,24.6,2.9
				c-0.5-3.5-1.4-6.5-2.9-8.5C892.7,240.7,881.7,240.1,872.1,240.4L872.1,240.4z"/>
			<path class="st18" d="M146.1,208.4c36.8,4.3,78.7,9.8,116.8,10.6c20.7,0.4,37.4,0.2,56.1-1.8c10.6-1.1,43.6-3.3,47.6-8.3
				c-6.3-0.3-12.1,0-18.1,0.2c-45.4,1.2-91.2,0.9-134-8.2c-18.3-4-35.3-9.9-53.3-14.7c-7.7-1.9-24.1-4.9-34.4-8.8
				c-6.4,0.1-12.7,0.1-19.1,0c-13.7-0.4-43.6-5.1-56.1,0c-9.8,4.1-10.4,14.2-9.4,24.5C69.7,197.6,128.9,206.4,146.1,208.4z"/>
			<path class="st18" d="M858.2,206.7c-25.9-1.1-53.4-3.9-79.5-2.9c-39.1,1.6-77.7,3.9-116.9,5.9c-74,3.7-153.5,0.8-221.4,18.2
				c-29.3,7.6-41.6,23.9-73.7,30.1c-34.7,6.6-70.1-2.2-104.5-6.3c-40.3-4.8-81.4-9.4-122.6-11.2c-21.4-1-43.2-0.3-64.8-0.8
				c-8.3-0.1-22-0.9-31.9-0.4c-0.3,4.6-0.2,8.8,1.1,11.3c3.9,7.9,14.6,2.5,20.5,6.7c-7.8,3.6-16,4.8-24.2,7
				c-1.2,2.7-3.6,8.5-5.1,14.2c3,0.2,5.9,0.4,8.2,0.5c15.7,0.3,30-0.4,45.1-0.9c41.4-1.3,79.1-5.3,117.4-13.8
				c40.9-9,83,10.1,124.1,11.2c44.6,1.2,90.3,3.9,134.2,1.8c23.9-1.2,47.7-3.5,71.7-5.3c30.9-2.2,62.6-1.6,93.3-4.2
				c31.8-2.7,65.3-0.1,97.3-1.8c34-1.8,64.9,3.9,98.3,7.6c21.8,2.4,44.1,2.8,66.1,4.9c3.3,0.3,10.1,0.7,15.6,1.6
				c0.3-3.4,0.3-6.7,0.4-9.4c-7.5-0.7-15.8-1-21.6-1.9c-12.7-1.7-25.1-4.6-38-5.5c-25.9-1.6-51.5-1.2-77.1-3.3
				c-57.3-4.7-113.2,2.4-171.3,0c-29.6-1.2-56.9-7.8-85.4-10.5c-7.6-0.7-21.2,0.1-26.5-3.1c-7.5-4.6,2.5-8.5,10.9-10.1
				c10.1-1.9,23.5-1.4,34.5-1.9c18.5-0.7,37.1-2.1,55.8-2.9c49.2-2.3,97.5-8.2,146.9-9.8c38.2-1.2,75-0.5,113,0.6
				c18.8,0.6,37.7-0.7,56.4-1.4c-0.6-5.3-2.6-10.9-5.1-13.2c-0.3-0.2-0.5-0.4-0.8-0.6C884.8,208.1,866.5,207.1,858.2,206.7
				L858.2,206.7z"/>
			<path class="st18" d="M838.3,226.8c-32.6,0.7-65,0.6-97.4,3.1c-25.4,2-50.7,1.3-75.9,2.7c-40.9,2.2-81.9,3.9-122.1,7
				c-11.5,0.9-24.4,0.1-35.2,1.6c3.7,6.1,39.7,8.3,50.9,9.7c20.1,2.6,39.5,6.1,60.8,6.6c43.3,0.8,83.8-4.8,128.1-3.8
				c36.1,0.7,72.2,2.2,107.2,5.7c17.1,1.7,33.4,4.3,51.1,5.6c0.4,0.1,0.8,0.1,1.2,0.1c0.1-2.7,0.1-6,0-9.2
				c-20.8-2.9-39.5-6.7-61.8-7.8c-25-1.3-50.3-3.9-75.6-4.5c-44.2-1.2-83.8,5.4-126.9,6.6c-15.6,0.4-39.9,1.8-54.7-1.1
				c0.5-4.2,44.1-5,53.6-6c20.3-2.1,40.6-6.3,61.1-6.8c52.8-1.3,106.3,2,158.6-0.8c9.9-0.5,19.4-0.8,29.2-0.9
				c0.9-5.1,10.3-1.3,12.4-3.5c1-1.1,1.6-3,1.8-5.3C881.8,225.4,860.7,226.3,838.3,226.8L838.3,226.8z"/>
			<path class="st18" d="M855.2,174.5c-47.7,1.4-95.9,5.9-144.3,5.4c-53.5-0.5-107.8,9.6-161.9,2.9c-46.7-5.8-94.5-15.7-142.7-14.2
				c-13.2,0.5-26.3,1.6-38.8,5.4c-10.2,3.2-17.2,10.4-28.3,9.4c-8.6-0.8-16.5-6.8-25.4-8c-10-1.4-20.4,0.2-30.5-0.6
				c-40.3-3.1-79.6,3.3-119.5,2.5c-5.4-0.1-10.7-0.1-16-0.1c8.6,2.5,16.9,5.4,24.6,7.7c18.9,5.4,35.4,8.4,55.9,11.8
				c51.3,8.6,105.3,4.5,158.1,7.8c7.4,0.5,25.1,1.6,16.9,6.3c-3.1,1.7-23.7,2.7-29.3,3.3c-27.7,2.9-52.2,9.5-81.9,10.2
				c-48.3,1.2-92.1-4.5-138.9-9.5c-25.7-2.7-51.6-5.7-78-5.6c-10.6,0.1-21.1,1.2-31.8,1.6c0.7,4.1,1.2,8,1.2,11.2
				c0,2.2-0.4,5.4-0.8,8.9c31.5-3.1,90,0.7,100.5,1.9c41.1,4.9,81.8,9,122.9,13.9c19.5,2.3,39.9,5.5,59.6,6.5
				c23,1.1,34.8-1.8,51.1-9.1c29-12.9,51.6-28.9,92.5-32.7c19.9-1.8,40.4-2.1,61-2.7c22.4-0.6,43.8-3.3,65.9-4.5
				c41.9-2.2,84.8-0.4,126.6-3.3c43-2.9,87.5,1.1,130.8-1.9c1.5-0.1,2.9-0.2,4.2-0.3c12.7-8,44.6-0.2,46.1-13.6
				C907.1,167.1,866.2,174.2,855.2,174.5L855.2,174.5z"/>
			<g class="st4">
				<path class="st19" d="M902.4,240c-2.8-2.6-11.8,2.6-12.2-4.2c-0.5-6.8,10.2-2.3,12.4-4.7c4-4.2,1.1-19.2-3.5-23.4
					c-0.8-0.8-1.9-1.4-3.1-1.9c2.3,4.2,0.4,13.6,2.2,18.2c-19.3-6.7-18.4,23.6,0,21.1c0.5,9,2,17.6,1.4,26.6
					c-1,13.5-3.7,11.1-15.6,12.5c-17.5,2-33.7,5-52.7,3.4c-102.2-8.4-216.8-26.2-317,2.7c-40.2,11.6-90.2,1-131.9,1
					c-25.3,0-51.4-3.5-76.5,0c-21,2.9-37.7-1.4-58.5-2.5c-45.1-2.3-89.5-4.1-134.1-8.5c-22.4-2.2-44.2,1.1-65.9,0
					c-3.9-0.2-8.5,0.2-13.2,1.3c-0.8,4-0.9,7.5,0.4,9.5c4,6,21.8,3.1,27.8,2.3c25.7-3.3,54.3,0.9,81.3,2.7
					c74.7,4.9,151.5,1.4,226.7,5.9c32.4,2,65.1-1.1,97.8-0.4c40.9,0.8,80.5-7.2,121.2-8.4c43.6-1.3,86.5-2.9,130.3-2.6
					c27.9,0.3,56.6,2.6,85.3,1.8c22.5-0.7,45.9-1.3,68.2,1.3c7.3,0.9,21.3,6.6,27.7,1.6c6.1-4.7,5.6-19.9,5.8-26.9
					C906.9,260.7,907.6,244.8,902.4,240L902.4,240z"/>
				<path class="st17" d="M843.7,200.8c4.3,0.2,8.5,0.2,12.4,0.1c10.3-11.5,47-1.4,48.7-15.8c0.7-6.1-3.6-9.3-9.9-10.9
					c-0.3,2.1-0.6,4.2-1.4,6.1c-5.7,12.9-36.1,10.8-49.8,16C843.6,197.9,843.6,199.2,843.7,200.8L843.7,200.8z"/>
			</g>
		</g>
		<g id="_x31_st-dot">
			<path class="st6" d="M154.8,236.3c0.7,7.5-4.3,14.2-11.3,14.8c-6.9,0.7-13.1-4.9-13.8-12.4c-0.7-7.6,4.3-14.2,11.3-14.8
				C147.9,223.2,154.1,228.8,154.8,236.3z"/>
			<path class="st7" d="M140.2,245.5c-6.6,0-11.9-5.3-11.9-11.9c0-6.6,5.3-12,11.9-12c6.6,0,11.9,5.4,11.9,12
				S146.8,245.5,140.2,245.5z"/>
			<path class="st8" d="M138.5,238.7c-4,0-7.2-3.2-7.2-7.2c0-3.9,3.2-7.2,7.2-7.2c3.9,0,7.1,3.3,7.1,7.2
				C145.6,235.5,142.4,238.7,138.5,238.7z"/>
			<path class="st9" d="M137.2,233.8c-1.8,0-3.2-1.4-3.2-3.2s1.4-3.3,3.2-3.3s3.3,1.5,3.3,3.3S139,233.8,137.2,233.8z"/>
		</g>
		<g id="_x31_st-dot_00000021080615924451360850000010931939555182278290_">
			<path class="st6" d="M823.3,241.6c0.7,7.5-4.3,14.2-11.3,14.8c-6.9,0.7-13.1-4.9-13.8-12.4c-0.7-7.6,4.3-14.2,11.3-14.9
				C816.4,228.5,822.6,234.1,823.3,241.6L823.3,241.6z"/>
			<path class="st7" d="M808.7,250.8c-6.6,0-11.9-5.4-11.9-12s5.3-11.9,11.9-11.9c6.6,0,11.9,5.3,11.9,11.9
				C820.6,245.4,815.3,250.8,808.7,250.8z"/>
			<path class="st8" d="M807,244c-4,0-7.2-3.2-7.2-7.2s3.2-7.2,7.2-7.2c3.9,0,7.1,3.2,7.1,7.2S810.9,244,807,244z"/>
			<path class="st9" d="M805.7,239.1c-1.8,0-3.2-1.4-3.2-3.2s1.4-3.3,3.2-3.3s3.3,1.5,3.3,3.3S807.5,239.1,805.7,239.1z"/>
		</g>
	</g>
	<g>
		<path class="st20" d="M508.7,502c-2.5,0-4.5-0.3-6.3-0.9l-15.3-1.3c-83.7-0.6-153.5-1.1-226.3-1.7c-3.2,0-6.6,0-10.2,0
			c-16.5,0-37.1,0.2-58.9,0.4c-24.7,0.2-50.3,0.5-73.5,0.5c-67.4,0-75.5-2.2-78-4.5c-2.5-2.1-4.2-5.7-5.1-10.8L35,483l0,0
			c-0.2-1.3-0.4-2.5-0.5-3.8l0,0c-0.3-2.9-0.4-6.2-0.4-10c0-2.4,0.1-4.8,0.2-7.8l0.1-2.7c0.2-3.8,0.3-7.1,0.2-9.5
			c0-1-0.2-2.6-0.3-4.4c-1-12.4-1.6-23.9,2.9-28.1c1.5-1.3,3.7-2,7.3-2.3c-7.3-3.9-13.2-9.8-17.4-19.4l0,0c-0.5-1.1-1-2.3-1.4-3.6
			l0,0c-0.2-0.6-0.4-1.2-0.7-2c-0.4-1.1-0.8-2.3-1.3-3.6c-4.1-11.5-7.9-24.2-5.4-31.6l0,0l0,0l0,0c0.2-0.5,0.4-1,0.7-1.4
			c0.1-0.2,0.3-0.4,0.4-0.6l2.4,1.9l-2.4-1.9c0.2-0.2,0.3-0.4,0.5-0.6c0.1-0.1,0.3-0.3,0.5-0.4l2,2.3l-1.9-2.4
			c0.2-0.2,0.4-0.3,0.6-0.5c0.1-0.1,0.3-0.2,0.4-0.3c0.3-0.2,0.6-0.4,0.9-0.5c0.1-0.1,0.2-0.1,0.3-0.2c0.4-0.2,0.8-0.3,1.1-0.5
			l0.2-0.1c0.4-0.1,0.9-0.3,1.4-0.4l0,0.1l0,0l0-0.1c2.4-0.6,5.3-0.8,9.1-0.8c5.9,0,12.8,0.7,19.4,1.3c6.2,0.6,12,1.2,16.5,1.2
			c0.6,0,1.2,0,1.8,0l0.2,0c1.2,0,2.2-0.1,2.9-0.3c3-0.6,6.2-1.1,9.8-1.6l0,0c5.9-0.8,12.6-1.4,20-1.9c0.6,0,2.2-0.1,2.2-0.1
			c12.1-0.8,26.5-1.1,42.7-1.1c44.8,0,96.8,2.8,142.7,5.3c15.1,0.8,29.4,1.6,42.3,2.2c19.2,0.9,31.2,1.2,40.4,1.2l0.5,0
			c5.5,0,10-0.2,13.1-0.5c6.1-0.6,12.4-0.9,19.3-0.9c1.2,0,2.5,0,3.7,0c11.7,0.2,23.3,1.1,34.2,2l7.6,0.7c2.5,0.2,5,0.4,7.5,0.6
			c9.6,0.8,20.8,1.6,32,1.6c5.9,0,11.2-0.2,16.5-0.6c54.4-4.6,251.9-6.6,321.3-6.6c5.1,0,9.6,0,13.3,0l0.8,0c0.4,0,1.3,0,1.3,0
			c0.6,0,1.2,0,1.8,0c0,0,1.5,0,2-0.1l2.1-0.1l7.6-0.4l2.5-0.1c0.5,0,2.5-0.1,2.5-0.1l1.4,0c0.5,0,1.6,0,1.6,0l1.9,0
			c4.7,0,8.6,0.3,12.1,0.8c0.8,0.1,1.5,0.3,2.2,0.4l0.3,0.1c0.6,0.1,1.3,0.3,1.9,0.5l0.5,0.1c0.6,0.2,1.1,0.3,1.6,0.5
			c0.2,0.1,0.4,0.1,0.6,0.2c0.5,0.2,0.9,0.3,1.4,0.5c0.3,0.1,0.5,0.2,0.8,0.4c0.4,0.2,0.7,0.3,1.1,0.5c0.3,0.2,0.6,0.3,0.9,0.5
			c0.3,0.2,0.6,0.3,0.8,0.5c0.4,0.2,0.7,0.5,1.1,0.7c0.2,0.1,0.4,0.3,0.6,0.4c0.4,0.3,0.8,0.7,1.2,1l0.3,0.3
			c0.5,0.4,0.9,0.9,1.3,1.4l0.1,0.1c2.1,2.5,3.5,5.6,4.2,9.1c0.3,1.6,0.5,3.3,0.5,5.1c0,0,0,0.6,0,0.7c5.5,0.4,10.7,2.6,14.3,6.3
			c3.4,3.4,5.2,7.7,5.2,12.4c0,2.8-0.7,5.8-2,8.8l0,0l0,0c-3.5,8-11.2,8-15.8,8l-3.4,0c-2.1,0-3.8,0.1-5.4,0.3
			c1.7,0.2,3.6,0.3,5.5,0.3l0.5,0c0.7,0,1.3,0,2,0l2.4,1l0.5,1.4l0.2,0c0.8,3.5,1.8,7.5,2.8,11.4c1.2,4.7,2.5,9.6,3.4,13.8
			c0.5,2.6,0.8,5.2,0.8,8c0,4.3-0.6,8.4-1.1,12.3c-0.4,3.1-0.9,6.3-1.1,9.6l0,0c-0.1,1.8-0.1,3.6-0.1,5.2l0,0l0,0.6
			c0,1.7,0,3.2-0.1,4.7l0,0c-0.1,1.4-0.2,2.6-0.4,3.6l0,0.1c0,0.2-0.1,0.4-0.1,0.6c-1,4.9-3.7,8.2-8.5,10.4
			c-8.4,3.7-146.7,6.5-202.8,6.5c-4.2,0-8.1,0-11.8,0c-17.8-0.2-35.4-2.3-52.3-4.3c-12.3-1.5-25.1-3-37.7-3.7
			c-3.6-0.2-7.4-0.3-11.4-0.3c-10.1,0-21.4,0.7-33.5,2.2c-4.5,0.5-10.8,2.2-17.5,4C526.3,499.3,516.3,502,508.7,502z"/>
		<path class="st16" d="M150.2,348.1c59.7,0,133.5,5.1,184.8,7.5c16.1,0.7,30,1.2,40.5,1.2c0.2,0,0.3,0,0.5,0c5.5,0,10-0.2,13.4-0.5
			c6.3-0.6,12.6-0.9,19-0.9c1.2,0,2.4,0,3.6,0c11.3,0.2,22.7,1,34,2c2.5,0.2,5,0.4,7.6,0.7c2.5,0.2,5,0.4,7.6,0.6
			c10.8,0.9,21.5,1.6,32.2,1.6c5.6,0,11.2-0.2,16.7-0.7c53.5-4.6,250.3-6.6,321.1-6.6c5.1,0,9.6,0,13.3,0c0.3,0,0.5,0,0.8,0
			c0.4,0,0.8,0,1.2,0c0,0,0.1,0,0.1,0c0.6,0,1.2,0,1.9,0c0.1,0,0.2,0,0.4,0c0.6,0,1.1,0,1.7-0.1c0.2,0,0.5,0,0.7,0
			c0.5,0,0.9,0,1.4-0.1c0.5,0,0.9,0,1.4-0.1c0.2,0,0.4,0,0.7,0c1.7-0.1,3.4-0.2,5.1-0.3c0.2,0,0.3,0,0.5,0c0.6,0,1.1-0.1,1.7-0.1
			c0.3,0,0.5,0,0.8,0c0.5,0,1,0,1.5-0.1c0.3,0,0.7,0,1,0c0.4,0,0.9,0,1.3,0c0.5,0,1,0,1.4,0c0.3,0,0.6,0,0.9,0c0.4,0,0.7,0,1.1,0
			c4,0,8,0.2,11.6,0.8c0,0,0.1,0,0.1,0c0.7,0.1,1.3,0.2,2,0.4c0.1,0,0.2,0,0.3,0.1c0.6,0.1,1.2,0.3,1.7,0.4c0.1,0,0.3,0.1,0.4,0.1
			c0.5,0.1,1,0.3,1.5,0.5c0.2,0.1,0.4,0.1,0.6,0.2c0.4,0.1,0.8,0.3,1.2,0.5c0.2,0.1,0.5,0.2,0.7,0.3c0.3,0.1,0.6,0.3,1,0.5
			c0.3,0.1,0.6,0.3,0.8,0.5c0.2,0.1,0.5,0.3,0.7,0.4c0.3,0.2,0.6,0.4,0.9,0.6c0.2,0.1,0.3,0.2,0.5,0.4c0.4,0.3,0.7,0.6,1,0.9
			c0.1,0.1,0.2,0.2,0.3,0.2c0.4,0.4,0.7,0.7,1.1,1.1c0,0,0,0.1,0.1,0.1c1.7,2,2.9,4.6,3.5,7.7c0,0,0,0,0,0c0.3,1.4,0.4,2.9,0.4,4.6
			c0,0.1,0,0.2,0,0.3c0,0.4,0,0.9,0,1.3c0,0.1,0,0.3,0,0.4c0,0.6-0.1,1.1-0.1,1.7c0.5,0,1.1-0.1,1.6-0.1c9.1,0,18.1,6.1,18,15.7
			c0,2.3-0.5,4.9-1.7,7.6c0,0,0,0,0,0c-2.4,5.6-7.5,6.1-13,6.2c-0.1,0-0.3,0-0.4,0c-1,0-1.9,0-2.9,0c0,0,0,0,0,0
			c-5.2,0-10.5,0.4-14,4.8c4.4,1.4,9.4,1.9,14.1,1.9c0.2,0,0.3,0,0.5,0c0.7,0,1.4,0,2.1,0c0,0,0,0,0,0v0c0,0,0,0,0,0
			c1.7,7.8,4.7,17.6,6.2,25.2c0,0,0,0,0,0c0.5,2.6,0.7,5,0.7,7.4c0,0,0,0,0,0c0,7.2-1.7,14-2.2,21.8c0,0,0,0,0,0c0,0,0,0,0,0
			c-0.1,1.9-0.1,3.7-0.1,5.4c0,0,0,0,0,0c0,1.9,0,3.6-0.1,5.2c0,0,0,0,0,0c-0.1,1.2-0.2,2.2-0.4,3.3c0,0,0,0.1,0,0.1
			c0,0.2-0.1,0.4-0.1,0.5c-0.7,3.5-2.5,6.3-6.8,8.2c-7.1,3.1-134.9,6.2-201.6,6.2c-4.2,0-8.1,0-11.7,0c-30.6-0.3-59.9-6.2-89.9-8
			c-3.8-0.2-7.7-0.4-11.6-0.4c-11.3,0-23,0.9-33.9,2.2c-11.2,1.2-31.8,9.4-44.3,9.4c-2.2,0-4.1-0.2-5.7-0.8l-15.8-1.4
			c-75.7-0.5-150.8-1-226.4-1.7c-3.2,0-6.6,0-10.2,0c-35,0-88.4,0.9-132.4,0.9c-40.3,0-72.7-0.8-75.9-3.7c-2.2-1.9-3.4-5.1-4.2-9
			c0-0.2-0.1-0.3-0.1-0.5c0-0.1,0-0.2,0-0.2c0,0,0,0,0,0c-0.2-1.2-0.4-2.4-0.5-3.6c0,0,0,0,0,0c-0.3-3.1-0.4-6.4-0.4-9.7
			c0-2.6,0.1-5.2,0.2-7.7c0.2-4.9,0.4-9.4,0.3-12.5c-0.2-5.7-3-25.8,1.6-30.2c1.3-1.2,4.5-1.6,8.4-1.6c7.7,0,18,1.5,21.5,1.6
			c-18.5-3.7-31.8-7.8-39.3-25.2c0,0,0,0,0,0c-0.5-1-0.9-2.2-1.3-3.3c0,0,0,0,0,0c0,0,0,0,0,0c-0.5-1.5-1.3-3.5-2-5.6
			c-3.3-9.2-7.7-22.8-5.4-29.6c0,0,0,0,0,0c0.1-0.3,0.2-0.6,0.4-0.8c0.1-0.1,0.2-0.2,0.3-0.3c0.1-0.1,0.2-0.3,0.3-0.4
			c0.1-0.1,0.2-0.2,0.3-0.3c0.1-0.1,0.3-0.2,0.4-0.4c0.1-0.1,0.2-0.1,0.3-0.2c0.2-0.1,0.4-0.2,0.6-0.3c0.1,0,0.2-0.1,0.3-0.1
			c0.3-0.1,0.6-0.2,0.9-0.3c0.1,0,0.1,0,0.2-0.1c0.4-0.1,0.8-0.2,1.2-0.3c0,0,0,0,0,0c2.3-0.6,5.1-0.8,8.4-0.8
			c11.1,0,26.3,2.5,35.9,2.5c0.7,0,1.3,0,1.9,0c0,0,0,0,0.1,0c1.3-0.1,2.4-0.2,3.4-0.3c3-0.6,6.2-1.1,9.6-1.5c0,0,0,0,0,0
			c6-0.8,12.6-1.4,19.8-1.9c0.6,0,1.2-0.1,1.8-0.1c0.1,0,0.2,0,0.3,0C120.5,348.4,134.9,348,150.2,348.1 M150.2,341.9
			c-16.3,0-30.7,0.4-42.9,1.1l-0.3,0l-0.1,0c-0.6,0-1.2,0.1-1.9,0.1c-7.4,0.5-14.2,1.1-20.1,1.9l0,0c-3.6,0.5-6.9,1-9.9,1.6
			c-0.6,0.1-1.4,0.2-2.5,0.2l-0.1,0c-0.5,0-1.1,0-1.6,0c-4.4,0-10.1-0.6-16.2-1.2c-6.7-0.7-13.7-1.4-19.7-1.4c-4,0-7.2,0.3-9.8,0.9
			l0,0c0,0,0,0,0,0c0,0,0,0,0,0c-0.6,0.1-1.1,0.3-1.6,0.5c-0.1,0-0.2,0.1-0.3,0.1c-0.5,0.2-0.9,0.3-1.4,0.5l0,0
			c-0.2,0.1-0.3,0.1-0.5,0.2c-0.5,0.2-0.9,0.5-1.1,0.6l0,0c-0.2,0.1-0.4,0.3-0.6,0.4c-0.4,0.3-0.7,0.6-0.9,0.7
			c-0.2,0.1-0.4,0.4-0.7,0.7c-0.4,0.4-0.6,0.7-0.8,0.9l0,0c-0.1,0.2-0.4,0.5-0.6,0.9c-0.4,0.7-0.7,1.4-1,2.1l0,0
			c-2.9,8.3,1.1,21.7,5.4,33.7c0.4,1.3,0.9,2.5,1.3,3.6c0.3,0.7,0.5,1.4,0.7,2c0.5,1.3,1,2.6,1.5,3.8l0,0C27.6,403.6,32,409,37,413
			c-0.7,0.4-1.3,0.8-1.8,1.3l-0.1,0.1c-5.4,5.1-4.9,16.9-3.8,30.5c0.1,1.8,0.3,3.4,0.3,4.3c0.1,2.3-0.1,5.7-0.2,9.3
			c0,0.9-0.1,1.8-0.1,2.7c-0.1,3-0.2,5.5-0.2,8c0,3.9,0.1,7.3,0.4,10.3l0,0c0.1,1.3,0.3,2.7,0.6,4l0,0c0,0.1,0,0.2,0.1,0.3l0,0
			l0,0.1c0,0.2,0.1,0.4,0.1,0.6c1.1,5.7,3.1,9.8,6.1,12.5c2.2,2,5.8,3.6,27.9,4.5c12.3,0.5,29.4,0.8,52.1,0.8
			c23.3,0,48.8-0.3,73.6-0.5c21.8-0.2,42.3-0.4,58.8-0.4c3.7,0,7.1,0,10.1,0c72.6,0.6,142.5,1.1,226.2,1.7l14.9,1.3
			c2,0.6,4.3,0.9,6.9,0.9c8,0,18.2-2.8,28-5.4c6.6-1.8,12.7-3.5,17-3.9l0.1,0c12-1.4,23.2-2.2,33.2-2.2c3.9,0,7.7,0.1,11.2,0.3
			c12.6,0.7,25.3,2.3,37.6,3.7c17.1,2,34.7,4.1,52.6,4.3c3.6,0,7.6,0,11.8,0c33.3,0,81.7-0.8,123.3-1.9c74.6-2.1,78.9-4,80.7-4.8
			l0.1,0c5.7-2.6,9-6.7,10.3-12.5c0-0.2,0.1-0.5,0.1-0.7l0-0.2c0.2-1.2,0.4-2.5,0.4-4l0,0l0,0c0.1-1.6,0.1-3.2,0.1-4.9l0-0.6h0l0,0
			c0-1.6,0-3.4,0.1-5.1l0,0c0.2-3.2,0.6-6.3,1-9.4c0.6-4.1,1.2-8.3,1.2-12.8l0,0c0-3-0.3-5.8-0.8-8.6l0,0l0,0
			c-0.8-4.3-2.1-9.2-3.4-14c-1-3.7-2-7.5-2.7-10.8c4.7-0.7,10.3-2.8,13.2-9.5l0,0c1.5-3.4,2.2-6.7,2.2-10c0-5.6-2.1-10.6-6.1-14.6
			c-3.6-3.6-8.3-6-13.5-6.8c-0.1-1.3-0.2-2.5-0.5-3.7l0,0l0,0c-0.8-4.1-2.4-7.6-4.8-10.5c-0.1-0.1-0.1-0.1-0.2-0.2
			c-0.5-0.5-0.9-1-1.4-1.5c-0.1-0.1-0.2-0.2-0.3-0.3c-0.4-0.4-0.9-0.8-1.4-1.2c-0.2-0.2-0.4-0.3-0.6-0.5c-0.4-0.3-0.8-0.6-1.3-0.9
			c-0.3-0.2-0.6-0.4-0.9-0.6c-0.4-0.2-0.7-0.4-1.1-0.6c-0.4-0.2-0.8-0.4-1.2-0.6c-0.3-0.1-0.6-0.3-0.9-0.4c-0.5-0.2-1-0.4-1.5-0.6
			c-0.2-0.1-0.5-0.2-0.7-0.2c-0.6-0.2-1.2-0.4-1.8-0.5l-0.1,0c-0.1,0-0.3-0.1-0.4-0.1c-0.6-0.2-1.3-0.3-2-0.5l-0.1,0l-0.2-0.1
			c-0.7-0.2-1.5-0.3-2.3-0.4l-0.1,0c-3.6-0.6-7.7-0.9-12.6-0.9c-0.4,0-0.8,0-1.2,0c-0.3,0-0.6,0-0.9,0c-0.5,0-1,0-1.5,0
			c-0.5,0-0.9,0-1.4,0l-1,0c-0.5,0-1,0-1.5,0.1l-0.8,0c-0.6,0-1.2,0.1-1.7,0.1l-0.5,0c-1,0-2,0.1-3,0.2l-2.1,0.1l-0.6,0l-1.4,0.1
			c-0.5,0-0.9,0-1.4,0.1l-0.7,0c-0.6,0-1.1,0-1.7,0.1l-0.2,0l-0.1,0c-0.6,0-1.2,0-1.8,0l-0.1,0c-0.4,0-0.7,0-1.1,0
			c-0.2,0-0.5,0-0.7,0c-3.7,0-8.2,0-13.4,0c-69.5,0-267.1,2-321.6,6.6c-5.1,0.4-10.4,0.6-16.2,0.6c-11.1,0-22.3-0.8-31.7-1.6
			c-2.5-0.2-5-0.4-7.5-0.6l-2.7-0.2c-1.6-0.1-3.3-0.3-4.9-0.4c-10.9-0.9-22.6-1.9-34.4-2c-1.2,0-2.5,0-3.7,0c-7,0-13.4,0.3-19.6,0.9
			c-3.1,0.3-7.4,0.5-12.9,0.5l-0.5,0c-9.1,0-21.1-0.4-40.3-1.2c-12.8-0.6-27.1-1.4-42.2-2.2C247.1,344.8,195,341.9,150.2,341.9
			L150.2,341.9z"/>
	</g>
	<g id="_x32_nd-slide">
		<g id="_x32_nd">
			<path class="st17" d="M28.7,389.7c7.2,19.4,21,23.6,40.6,27.4c-5.3-0.1-26.1-3.3-29.9,0c-4.6,4.2-1.8,23.5-1.6,29
				c0.4,9.9-3.3,34.8,4.6,41.6c7.2,6.1,156,2.3,218.5,2.7c75.6,0.5,150.7,1,226.4,1.6l15.8,1.3c10.7,3.6,36.8-6.8,50-8.3
				c14.7-1.6,30.8-2.6,45.5-1.8c30,1.8,59.3,7.5,89.9,7.7c62,0.5,205.8-2.6,213.3-5.9c9.1-3.9,6.9-11.4,7.5-21.8
				c0.6-10.1,3.5-18.2,1.5-28.1c-1.7-8.1-4.5-15.9-6.2-24.2c-5.5,0.2-11.5-0.2-16.7-1.8c8-9.7,25.2,1,30.4-10.5
				c6.4-13.9-6-23.2-17.9-22.3c2.8-30-33.8-22-55.8-22.2c-54.9-0.3-277,1.6-334.4,6.3c-40,3.2-80.6-7-120.7-3.3
				c-41.2,3.8-240.9-16.7-313.3-3.4c-12.6,2.3-51.6-7.2-54.9,2.1C18.4,363.9,25.9,382.1,28.7,389.7L28.7,389.7z"/>
			<path class="st18" d="M817.1,477.4c-54.4,1.2-111.6,1-165.6-2.4c-72.7-4.7-144.7-11.6-218.5-12.2c-41.8-0.3-79,9.6-119.6,13
				c-32.5,2.7-56.8-3.1-87.7-5.4c-41.4-3-81.2,4.5-122,5.5c-19.6,0.5-45.7,1.5-66.1-1.1c0.6,5.6,1.9,10.4,4.8,12.9
				c7.2,6.1,156,2.3,218.5,2.7c75.6,0.5,150.7,1,226.4,1.6l15.8,1.3c10.7,3.6,36.9-6.8,50-8.3c14.7-1.6,30.8-2.6,45.5-1.8
				c30,1.8,59.3,7.5,89.9,7.7c62,0.5,205.8-2.6,213.3-5.9c5.8-2.5,7-6.4,7.3-11.6C883.1,476.6,825.1,477.2,817.1,477.4L817.1,477.4z
				"/>
			<path class="st18" d="M66.8,427.2c11.8,0.1,23.2,0.1,34.6-1.5c8.7-1.2,8.3-2.5,16.8-4.1c8-1.4,146.6,3.2,153.3,1.6
				c-2.7,0-120.2-9.5-122.9-9.5c-9.2-0.1-26-0.3-35.2-1.3c-10.8-1.2-19.7-3-30.3-5.1s-21-3.6-31.4-6.2c-4.4-1.1-12.4-1-18.5-2.4
				c7.8,11.9,20,15.2,36.1,18.4c-5.3-0.1-26.1-3.3-29.9,0c-1.5,1.4-2.2,4.5-2.5,8.2C46.7,425.3,56.9,427.2,66.8,427.2L66.8,427.2z"
				/>
			<path class="st18" d="M43.6,394.1c10.1,1.5,20.3,2.6,30.5,4.8c19.2,4.3,37.2,8.6,56.8,9.9c15.1,1,30.3-0.2,45.4,1.3
				c15.4,1.5,30.7,2.1,46.1,3.5c8.1,0.8,16.1,3.5,24.3,4.1c8,0.5,16.2,0,24.3,0.8c12.1,1.1,24.1,1.5,36.3,2.4
				c-2,4.2-15,5.1-19.5,5.7c-11.7,1.6-23.5,0.9-35.2,0.2c-20.6-1.3-39.7,2.5-60.2,0.8c-17.6-1.5-42.2-3.5-59.6-1.5
				c-10.8,1.2-18.8,1.3-29.2,4.7c-9,2.9-17.8,3.5-27.2,4.6c-13.4,1.6-26.3-1.3-39.5-2.2c0.2,5.1,0.8,10.1,0.9,12.6
				c9.1,0,19.6,2.6,24.6,3.6c13.6,2.6,25.5,6,39.3,4.6c14.7-1.3,28.8-2.8,42.9-5.1c13.5-2.2,25.8-9.8,40.7-8.9
				c19.9,1.1,40.3-2.7,60.1-0.6c21.7,2.2,39.3,1.6,60.9,0.7c41.2-1.8,99.7-7,138.1-18.4c-13.7-1.3-48.2-5.2-61.2-10.2
				c-13.4-5.1-21.8-11.8-36.3-12.6c-27-1.6-54.5,1.2-82.2,1c-41.7-0.3-83.9-1.3-125.1-3.7c-20.6-1.2-41-1.1-60.8-5
				c-14.6-2.9-37.5-3.1-52.8-8.8c1,2.9,2,5.4,2.7,7.3c0.4,1.1,0.8,2.2,1.3,3.2C34.4,392.3,40.2,393.6,43.6,394.1z"/>
			<path class="st18" d="M510.2,360.4c-40,3.2-80.6-7-120.7-3.3c-10.6,1-31.7,0.3-58.5-0.9c13.3,3.9,27.2,5.8,41.7,6.9
				c33.7,2.4,68.9,3.3,102.4,8.3c39.5,5.9,74.1,18.4,114.4,17.2c40.1-1.3,81.2-0.8,120.7-3.8c20.8-1.6,41.1-3.4,62.2-3.2
				c20.6,0.1,39.6-3.7,59.8-4.3c20.5-0.6,40.4-1.5,59.8-2.3c2.5-0.1,5.4-0.3,8.5-0.5c1.2-27.9-34.3-20.2-55.9-20.4
				C789.7,353.8,567.6,355.7,510.2,360.4L510.2,360.4z"/>
			<path class="st18" d="M867.5,380.4c-41.5,0.7-84.1,6.5-125.3,10.2c-81.2,7.1-168.4,12.9-247.7-5.7c-43-10-85.5-11.3-129.4-17
				c-19.2-2.6-37-7.5-54.6-12.7c-72.4-3.7-172.1-9.7-224.7-3c12.9,7.8,24.4,14.9,28.4,15.6c16.3,2.9,34.4,3.8,51.2,5
				c38,2.9,77.7,3,115.8,3.2c20,0.2,36.9,0.6,55.8,3.8c17.3,3,36.8,4.9,55,6.7c18.8,1.9,38.1,3.2,55.8,7
				c15.9,3.4,30.4,10.3,45.5,15.2c16.4,5.4,34.7,9.7,52.1,12.8c17.4,3,35.5,0.6,52.7,1.1c-0.4-0.1-0.5-0.3-0.4-0.6
				c15.3,0.7,32.3-1.5,47.7-2.3c15.8-0.8,32.6-0.5,48.8-1.3c41.4-2,81.1,0.6,121.9,2.5c19.9,0.9,40.4,1.2,60.9,2
				c10,0.4,19.1,2.6,29.2,2.6c0.7,0,1.5,0,2.2,0c-1.4-4.8-2.8-9.6-3.8-14.6c-5.5,0.2-11.5-0.2-16.7-1.8c8-9.7,25.2,1,30.4-10.5
				c3-6.6,1.8-12.2-1.6-16.1C898.1,382.5,877.2,380.2,867.5,380.4L867.5,380.4z"/>
			<path class="st18" d="M885.5,427.8c-20.8-0.1-40.9-2.1-61.2-2.8c-64.1-2.4-125.1-1.6-188.7,0.9c-32.8,1.3-66.1,3-98.5-1.3
				c-27.4-3.6-45.2-15-70.9-20.9c-37.5-8.5-78.3-11.3-116.8-16.7c-43.6-6-86.8-4.8-131.7-5c-25,0-55.5-2.2-80.4-5.4
				c-9.4-1.2-39-11.6-64.6-22.6c-15.1,0.6-48.3-6.8-51.4,1.8c-1.6,4.6,0.1,12.6,2.4,19.9c15.2-5.9,59.4,4.3,70.9,5.5
				c32.8,3.7,65.8,7.4,98.7,10.4c53,5,106.3-3.3,159.7,2.4c21,2.2,38,16.2,59.6,18.7c10.5,1.2,50.3,2.9,52.2,14.9
				c-26.2,5-52.8,3.7-79.3,11.8c-32.1,9.8-60.5,8-94.1,7.9c-44.1-0.2-88.7-8-130.2,3c-22.3,6-45.3,9.3-68.6,6.6c-17-2-38.6-4-55-1.2
				c-0.2,3.8-0.4,7.9-0.3,12.1c9.6,0.3,21.3,1.9,25,2.1c15.9,0.9,32.7,0.5,48.8,0.5c33.2,0,62.4-6.8,95.1-5.6
				c38.6,1.3,79.4,8.1,117,3c38.6-5.2,76.9-16.1,117.2-14.7c40.1,1.5,80.8,2.1,120.6,5.7c39.6,3.7,78.4,10.1,119.4,11.3
				c40.9,1.3,81,2,121.9,2.3c21.3,0.1,40.4-1.4,61-2.4c13.5-0.7,30.9-2.3,45.9-1.6c0-1.6,0-3.4,0.1-5.2c0.6-10.1,3.5-18.2,1.5-28.1
				c-0.5-2.2-1-4.3-1.6-6.4C900.6,428.5,891.8,427.9,885.5,427.8L885.5,427.8z"/>
			<g class="st4">
				<path class="st5" d="M888,362.1c1.9,4.4,3.5,8.3,4.2,12.9c1.4,8.5-1.6,5.7,6.5,9.1c6.5,2.8,20.5,10.5,6.5,14.5
					c-3.5,1-30.4-0.9-25.9,9.6c1.3,2.9,7.8,2.7,14.3,2.2c-2-0.3-3.9-0.7-5.7-1.3c8-9.7,25.2,1,30.4-10.5c6.4-13.9-6-23.1-17.9-22.3
					c1.8-19.4-12.9-22.9-29.5-23C875.1,357.3,882.6,354.4,888,362.1L888,362.1z"/>
				<path class="st19" d="M909.3,463.2c0.6-10,3.5-18.2,1.5-28.1c-1.5-7.3-4.5-16.7-6.2-24.2c-1.4,0.3-9.1,1.8-8.4,12.1
					c0.4,4.9,5.6,10.8,6.6,15.4c1.2,5.8-0.8,13.9-1.7,19.6c-2.4,15.1-9.1,17.8-22.8,21.1c-17.2,4.1-35.7,1.8-53.6,0
					c-16.2-1.7-33.1-0.8-49.6-0.8c-33.5,0-68.1,5.4-102.4,2.5c-14.3-1.2-28.1-6.6-42.2-8.8c-18.7-3-39.3-4.4-58.5-3.3
					c-15.1,0.9-27,6.2-40.7,12c-13.6,5.8-24.5,3.8-38.2,0.2c-40.1-10.6-86.9-2.6-128.4-2.6c-28.2,0-56.3,2.2-84.5,3.4
					c-33,1.5-66.2-2.2-99.2-3.6c-30.8-1.2-61.9-0.6-92.9-0.6c-11.9,0-23.7,1.4-35.7,0.8c-3.3-0.1-9.7,0.7-14.3,0
					c0.7,4.1,2,7.5,4.3,9.4c7.2,6.2,156,2.3,218.5,2.7c75.6,0.6,150.7,1.1,226.4,1.6l15.8,1.3c10.7,3.7,36.8-6.8,50-8.2
					c14.7-1.7,30.8-2.7,45.5-1.8c30,1.7,59.3,7.4,89.9,7.7c62,0.4,205.8-2.7,213.3-5.9C910.9,481.1,908.7,473.7,909.3,463.2
					L909.3,463.2z"/>
			</g>
		</g>
		<g id="_x32_nd-dot">
			<path class="st6" d="M154.3,413.4c0.7,7.5-4.4,14.1-11.3,14.8c-6.9,0.6-13.1-4.9-13.8-12.5c-0.7-7.5,4.3-14.1,11.2-14.8
				C147.4,400.3,153.5,405.8,154.3,413.4L154.3,413.4z"/>
			<path class="st7" d="M139.7,422.5c-6.6,0-11.9-5.3-11.9-11.9s5.3-11.9,11.9-11.9c6.6,0,11.9,5.3,11.9,11.9
				S146.3,422.5,139.7,422.5z"/>
			<path class="st8" d="M137.9,415.8c-4,0-7.2-3.2-7.2-7.2s3.2-7.2,7.2-7.2s7.2,3.2,7.2,7.2S141.9,415.8,137.9,415.8z"/>
			<path class="st9" d="M136.7,410.9c-1.8,0-3.3-1.5-3.3-3.3s1.5-3.2,3.3-3.2s3.3,1.4,3.3,3.2C140,409.4,138.5,410.9,136.7,410.9z"
				/>
		</g>
		<g id="_x32_nd-dot_00000078733377367250017270000005205654186688866948_">
			<path class="st6" d="M822.7,418.6c0.8,7.6-4.3,14.2-11.2,14.9c-6.9,0.6-13.1-5-13.8-12.5s4.3-14.2,11.2-14.8
				C815.9,405.5,822,411.1,822.7,418.6z"/>
			<path class="st7" d="M808.2,427.8c-6.6,0-11.9-5.3-11.9-11.9s5.3-11.9,11.9-11.9c6.6,0,11.9,5.3,11.9,11.9
				S814.8,427.8,808.2,427.8z"/>
			<path class="st8" d="M806.4,421c-4,0-7.2-3.2-7.2-7.1c0-4,3.2-7.2,7.2-7.2s7.2,3.2,7.2,7.2C813.6,417.8,810.4,421,806.4,421z"/>
			<path class="st9" d="M805.2,416.2c-1.8,0-3.3-1.5-3.3-3.3s1.5-3.2,3.3-3.2s3.2,1.4,3.2,3.2C808.4,414.7,807,416.2,805.2,416.2z"
				/>
		</g>
	</g>
	<g>
		<path class="st20" d="M158.9,673.9c-2,0-4.1-0.1-6-0.2c-13.9-0.8-27.5-3.6-40.8-6.3c-10.1-2.1-20.6-4.2-30.9-5.4l-0.1,0
			c-2.4-0.3-5.1-0.3-7.9-0.3c-7.1,0-15.1,0-21-4.6l-0.1,0c-6.2-4.8-7.1-10.8-7.1-16c0-0.9,0-1.8,0-2.8l0,0c0-1.1,0.1-2.3,0.2-3.5
			l0,0l0,0c0.1-2.1,0.2-4.3,0.3-6.5v0c0.1-3.5-0.3-7.3-0.6-11.4c-0.4-4.5-0.8-9.1-0.7-13.4l0-0.1c0.2-4.3,0.6-17.5,15.3-18.6
			c0,0,0.2,0,0.3,0c-3.4-2.5-7.3-3.8-11.2-5c-3.6-1.1-7.4-2.3-10.5-4.5l-0.2-0.1c-0.3-0.2-0.5-0.4-0.8-0.6c-0.2-0.1-0.3-0.2-0.4-0.4
			c-0.2-0.2-0.4-0.4-0.6-0.6c-0.2-0.1-0.3-0.3-0.5-0.5c-0.2-0.2-0.4-0.4-0.6-0.6c-0.2-0.2-0.3-0.4-0.5-0.6c-0.2-0.2-0.3-0.5-0.5-0.7
			c-0.1-0.1-0.2-0.3-0.3-0.4l-0.1-0.1c-1-1.6-1.7-3.4-2.2-5.4c-0.4-1.6-0.7-3.4-0.8-5.3l0,0c-0.1-2.2-0.1-4.8,0.2-7.6
			c1.9-20.2,24.9-20.2,34.7-20.2c2.6,0,5.1,0.1,7.6,0.1c2.3,0.1,4.4,0.1,6.4,0.1c1,0,2,0,2.9,0c11.8-0.3,23.8-0.5,35.9-0.5
			c32.3,0,64.5,1.2,95.6,3.5c12.5,1,25.7,1.4,40.3,1.4c23.5,0,47.4-1.2,70.5-2.4c14.8-0.8,30-1.5,44.9-2c16.5-0.5,33.7-0.8,52.6-0.8
			c33.5,0,67.5,0.8,100.3,1.6l15.5,0.4c14.3,0.3,28.8,0.5,44.3,0.5c51.4,0,103.4-1.7,153.8-3.4c10.7-0.4,21.4-0.7,32.1-1l9.8-0.3
			c22.5-0.8,45.7-1.6,68.7-1.6c7.2,0,14.2,0.1,20.8,0.2c0.4,0,0.7,0,1.1,0c2,0,4.2-0.1,6.7-0.2c2.8-0.1,5.6-0.3,8.4-0.3
			c6.1,0,10.5,0.7,13.8,2.2c0.3,0.1,0.6,0.3,1.1,0.5c5.2,2.9,7.6,5.6,7.9,8.8c0.4,4.1-3,6.9-6.2,9.6c-0.3,0.2-0.5,0.4-0.8,0.7
			c1.5,0.4,3.4,0.6,5.7,0.6c0.8,0,1.6,0,2.3-0.1l3.2,2.3c0.4,1.2,0.6,2.5,0.9,4.1l0.1,0.1c1.1,6.2,0.8,12.6,0.5,18.7
			c-0.1,1.3-0.1,2.5-0.2,3.8c0,0.5,0,1.1,0,1.6l0,0.4c0,0.7,0,1.5,0,2.2c0,0.9,0,1.7,0,2.5l0,0.1c0.1,2.5,0.3,4.8,0.7,6.9l0,0
			c3,17.5,0.7,22.2-13,26c-1.4,0.4-2.9,0.9-4.7,1.3c0,0.3,0,0.6,0,1c0,0.3,0,0.6,0.1,0.9l-0.1,0.1l0.1,0c0.1,0.7,0.2,1.5,0.3,2.1
			c0.2,0,0.4,0,0.6,0c3.1,0,5.7,1,7.7,2.9l0,0l0.2,0.2l0,0v0c0.1,0.1,0.3,0.2,0.4,0.4c0.1,0.1,0.2,0.2,0.2,0.3
			c0.2,0.3,0.4,0.5,0.6,0.9c0,0.1,0.1,0.1,0.1,0.2c1.2,1.9,2,4.3,2.6,7.7l-0.1,0.1l0,0c0.2,1.3,0.3,2.7,0.4,4.2
			c0.1,1,0.1,2.1,0.1,3.2l0,0c0,0.1,0,1,0,1.2c0,0.5,0,1-0.1,1.4l0,0.2c-0.8,9.2-6.5,11.1-13.9,12.5l0,0c-4.7,0.9-9.8,1.3-15.7,1.3
			c-7.7,0-15.5-0.7-23-1.5c-3.7-0.4-7.1-0.7-10.5-0.9c-4.4-0.3-8.8-0.5-13.6-0.5c-15.4,0-31.2,1.8-46.5,3.5
			c-15.7,1.8-32,3.6-48.3,3.6c-1.8,0-3.6,0-5.4-0.1c-15.1-0.4-30.8-0.6-48.2-0.6c-31.7,0-63.9,0.6-95.1,1.2
			c-31.3,0.6-63.7,1.2-95.5,1.2c-3,0-6.1,0-9.1,0c-12.6,0-24.2-0.2-35.6-0.4c-24.4-0.5-49-2.3-72.7-3.9c-22.7-1.6-46.2-3.2-69.4-3.8
			c-6.1-0.2-12.1-0.2-17.7-0.2c-16.6,0-31.7,0.7-46.3,2c-11.8,1.1-23.8,3.8-35.4,6.4C190.8,670.3,174.8,673.9,158.9,673.9z"/>
		<path class="st16" d="M883.8,530.6c4.7,0,9.3,0.4,12.6,2c0.2,0.1,0.4,0.2,0.8,0.4c0,0,0,0,0,0c12.7,7.1,3.1,10.7-2.5,16.5
			c-0.1,0.2-0.3,0.3-0.4,0.5c2.8,2.6,7,3.1,11,3.1c0.8,0,1.7,0,2.5-0.1c0,0,0,0,0,0c0.4,1.3,0.6,2.6,0.9,3.8c0,0,0,0,0.1,0
			c1.2,7.1,0.6,14.5,0.3,21.9c0,0.6,0,1.1,0,1.7c0,0.1,0,0.3,0,0.4c0,0.8,0,1.5,0,2.3c0,0,0,0.1,0,0.1c0,0.8,0,1.7,0,2.5
			c0,0,0,0,0,0c0.1,2.5,0.3,5,0.7,7.5c0,0,0,0,0,0c0,0,0,0,0,0c2.9,17,0.6,19.3-10.7,22.4c-2,0.6-4.3,1.2-6.9,1.9c0,0,0,0,0,0
			c-0.2,1-0.2,2.3-0.1,3.7c0,0.4,0.1,0.7,0.1,1.1c0,0,0,0,0,0c0.2,2,0.6,4,1.1,5.3c1.1-0.2,2-0.3,2.9-0.3c2.4,0,4.2,0.8,5.5,2.1
			c0,0,0,0,0,0c0,0,0.1,0.1,0.1,0.1c0.1,0.1,0.2,0.1,0.2,0.2c0,0.1,0.1,0.1,0.1,0.2c0.2,0.2,0.3,0.4,0.5,0.7c0,0,0,0.1,0.1,0.1
			c1.1,1.7,1.7,4,2.1,6.5c0,0,0,0-0.1,0c0.2,1.3,0.3,2.6,0.4,4c0.1,1.1,0.1,2.1,0.1,3.1c0,0,0,0,0,0c0,0.2,0,0.3,0,0.5
			c0,0.2,0,0.4,0,0.6c0,0.4,0,0.9-0.1,1.3c0,0.1,0,0.1,0,0.2c-0.6,6.7-3.9,8.2-11.3,9.7c0,0,0,0,0,0c-4.8,0.9-9.9,1.3-15.1,1.3
			c-11.2,0-22.8-1.6-33.3-2.4c-4.6-0.3-9.2-0.5-13.8-0.5c-31.4,0-62.7,7.1-94.8,7.1c-1.8,0-3.6,0-5.3-0.1
			c-16.1-0.4-32.2-0.6-48.3-0.6c-63.4,0-127,2.4-190.7,2.4c-3,0-6,0-9.1,0c-11.9,0-23.7-0.2-35.6-0.4c-47.8-1.1-94.8-6.5-142.1-7.7
			c-5.9-0.2-11.9-0.2-17.8-0.2c-15.5,0-31,0.6-46.6,2c-27.6,2.6-54.8,13.5-82.4,13.5c-2,0-3.9-0.1-5.9-0.2
			c-24.3-1.4-47.6-8.9-71.6-11.7c0,0,0,0-0.1,0c-8.9-1-20.2,1.3-27.3-4.3c0,0,0,0,0,0c-4.8-3.7-5.9-8.2-5.9-13.6c0-0.9,0-1.8,0-2.7
			c0,0,0,0,0,0c0-1.1,0.1-2.2,0.2-3.4c0,0,0,0,0,0c0.1-2.1,0.2-4.3,0.3-6.6c0,0,0,0,0,0c0.1-7.6-1.6-16.9-1.3-24.7c0,0,0-0.1,0-0.1
			c0,0,0,0,0,0c0.3-8.3,2.9-14.9,12.4-15.6c0.1,0,0.1,0,0.2,0c0.5,0,1-0.1,1.5-0.1c0,0,0,0,0,0c0.1,0,0.3,0,0.4,0c0.5,0,1,0,1.6,0.1
			c0.2,0,0.5,0,0.7,0.1c0.5,0,1,0.1,1.5,0.1c0.8,0.1,1.5,0.2,2.4,0.4l-2.4-2.6c-7.4-9.1-18.7-8.3-25.6-13.2c-0.1,0-0.1-0.1-0.2-0.1
			c-0.2-0.2-0.4-0.3-0.6-0.5c-0.1-0.1-0.2-0.2-0.4-0.3c-0.2-0.2-0.3-0.3-0.5-0.5c-0.1-0.1-0.3-0.3-0.4-0.4c-0.2-0.2-0.3-0.3-0.4-0.5
			c-0.1-0.1-0.2-0.3-0.4-0.5c-0.1-0.2-0.3-0.4-0.4-0.6c-0.1-0.1-0.2-0.3-0.3-0.4c-0.8-1.2-1.4-2.7-1.9-4.5c0,0,0,0,0,0
			c-0.4-1.4-0.6-2.9-0.7-4.7c0,0,0,0,0,0c-0.1-2.1-0.1-4.4,0.2-7c1.4-15.4,16.8-17.3,31.5-17.3c4.9,0,9.7,0.2,14,0.2c1,0,2,0,3,0
			c11.8-0.3,23.7-0.5,35.8-0.5c31.8,0,64.2,1.2,95.4,3.5c13.5,1,27,1.4,40.6,1.4c38.7,0,77.4-3.3,115.6-4.4
			c17.6-0.5,35-0.8,52.5-0.8c38.6,0,77,1.1,115.7,2c14.8,0.3,29.6,0.5,44.3,0.5c62.2,0,123.9-2.5,186-4.4
			c26.2-0.9,52.2-1.9,78.4-1.9c6.9,0,13.8,0.1,20.7,0.2c0.4,0,0.8,0,1.2,0C873,531.1,878.5,530.6,883.8,530.6 M883.8,524.2
			c-2.9,0-5.8,0.1-8.6,0.3c-2.4,0.1-4.6,0.2-6.5,0.2c-0.3,0-0.7,0-1,0c-6.6-0.2-13.7-0.2-20.8-0.2c-23,0-46.3,0.8-68.8,1.6
			c-3.3,0.1-6.5,0.2-9.8,0.3c-10.7,0.3-21.4,0.7-32.1,1c-50.3,1.7-102.3,3.4-153.7,3.4c-15.3,0-30.1-0.2-44.2-0.5
			c-5.2-0.1-10.3-0.2-15.5-0.4c-32.9-0.8-66.9-1.6-100.4-1.6c-18.9,0-36.1,0.3-52.7,0.8c-14.9,0.4-30.2,1.2-45,2
			c-23.1,1.2-46.9,2.4-70.4,2.4c-14.5,0-27.6-0.5-40.1-1.4c-31.2-2.3-63.5-3.5-95.8-3.5c-12.1,0-24.2,0.2-36,0.5c-0.9,0-1.8,0-2.8,0
			c-2,0-4.1,0-6.3-0.1c-2.5-0.1-5-0.1-7.6-0.1c-7,0-15.9,0.4-23.2,3.4c-8.7,3.6-13.8,10.4-14.7,19.7c-0.3,3-0.4,5.7-0.2,8.1l0,0
			c0.1,2.1,0.4,4,0.9,5.8l0,0l0,0c0.6,2.3,1.5,4.4,2.6,6.3l0.1,0.1c0.1,0.2,0.2,0.4,0.4,0.6c0.2,0.3,0.4,0.6,0.6,0.8
			c0.2,0.2,0.4,0.5,0.5,0.7c0.2,0.3,0.4,0.5,0.7,0.7c0.2,0.2,0.4,0.4,0.6,0.6c0.2,0.2,0.5,0.5,0.7,0.7c0.2,0.2,0.3,0.3,0.5,0.4
			c0.3,0.2,0.6,0.5,0.9,0.7c0.1,0.1,0.2,0.1,0.3,0.2c3.5,2.5,7.5,3.7,11.3,5c1.1,0.4,2.2,0.7,3.2,1.1c-5.2,2.7-9.5,8.3-9.9,19.4l0,0
			c0,0.1,0,0.2,0,0.2c-0.1,4.4,0.3,9.1,0.7,13.7c0.4,4,0.7,7.8,0.6,11.1c-0.1,2.2-0.2,4.3-0.3,6.3l0,0l0,0c-0.1,1.2-0.1,2.4-0.2,3.5
			l0,0l-0.1,0.1c0,1.1,0,2,0,3c0,5.7,1,12.9,8.4,18.5l0,0l0.4,0.3c-0.1-0.1-0.3-0.2-0.4-0.3c6.7,5.3,15.3,5.3,22.9,5.3
			c2.7,0,5.3,0,7.6,0.3l0.1,0c10.2,1.2,20.6,3.3,30.6,5.3c13.3,2.7,27.1,5.5,41.2,6.4c2,0.1,4.1,0.2,6.2,0.2c16.3,0,32.4-3.6,48-7.2
			c11.5-2.6,23.4-5.3,35-6.4c14.4-1.3,29.5-2,46-2c5.6,0,11.6,0.1,17.6,0.2c23.1,0.6,46.5,2.2,69.2,3.8c23.8,1.7,48.4,3.4,72.9,3.9
			c11.4,0.3,23.1,0.4,35.7,0.4c3,0,6.1,0,9.1,0c31.9,0,64.3-0.6,95.6-1.2c31.2-0.6,63.4-1.2,95.1-1.2c17.3,0,33,0.2,48.1,0.5
			c1.8,0,3.6,0.1,5.5,0.1c16.5,0,32.8-1.8,48.6-3.6c15.9-1.8,30.9-3.5,46.2-3.5c4.7,0,9.1,0.2,13.4,0.5c3.4,0.2,6.8,0.6,10.5,0.9
			c7.6,0.7,15.5,1.5,23.3,1.5c6.1,0,11.4-0.5,16.3-1.4l0.1,0l0,0c6.1-1.2,15.3-3.1,16.4-15.3l0-0.2l0-0.1c0-0.5,0.1-1,0.1-1.6
			c0-0.2,0-0.4,0-0.7l0-0.1c0-0.2,0-0.3,0-0.5l0,0c0-1.2,0-2.3-0.1-3.4c-0.1-1.6-0.2-3.1-0.4-4.5l-0.1,0l0.1-0.1
			c-0.6-3.9-1.6-6.7-3.1-9c0-0.1-0.1-0.2-0.2-0.2c-0.2-0.4-0.5-0.7-0.7-1c-0.1-0.1-0.2-0.3-0.4-0.5c-0.2-0.2-0.3-0.4-0.4-0.5
			c-0.1-0.1-0.1-0.2-0.2-0.2l0,0c-1.4-1.4-3.1-2.4-5-3.1c5.9-1.7,11.4-3.7,14.3-9.1c2.6-5,2.3-11.3,0.7-20.4l0,0l0,0c0,0,0,0,0,0
			l0,0l0,0c-0.3-1.9-0.6-4.1-0.6-6.5l0,0c0-0.7,0-1.5,0-2.3l-6.3-0.1l6.3,0c0-0.7,0-1.5,0-2.2l0-0.2l0-0.2c0-0.5,0-1.1,0-1.6
			c0-1.2,0.1-2.5,0.2-3.8c0.3-6.3,0.6-12.8-0.6-19.4l-0.1-0.1c-0.3-1.7-0.6-3.1-1-4.5l-6.4-4.6c-0.2,0-0.3,0-0.5,0
			c1.8-2.2,3.1-4.7,2.8-8c-0.5-5.6-5.6-9.1-9.4-11.3c-0.5-0.3-1-0.5-1.4-0.7C895.1,525,890.3,524.2,883.8,524.2L883.8,524.2z"/>
	</g>
	<g id="_x33_rd-slide">
		<g id="_x33_rd">
			<path class="st17" d="M859.7,535.7c-32.7-0.7-65,0.5-97.6,1.5c-75.7,2.2-150.8,5.1-226.9,3.6c-55.4-1.2-110.1-2.7-165.7-1.1
				c-50.7,1.4-102.5,6.3-153.8,2.7c-42.4-2.9-87-3.8-129.2-2.7c-16.4,0.5-45.8-4.2-47.8,15.6c-2.8,27,19.1,16.7,31,30.1l2.4,2.4
				c-28.3-4.8-18.7,20.1-19,36.2c-0.2,10.5-2.7,18.2,5.3,23.9c7,5.1,18.3,3,27,3.9c23.6,2.5,46.6,9.3,70.5,10.6
				c29.1,1.6,57.8-9.6,86.9-12.1c68.4-5.8,135.1,4,203.5,5.4c93.2,1.9,186.4-3.4,279.2-1.3c38.1,0.9,75.1-8.5,112.3-5.9
				c15.1,1,32.5,3.7,47.6,1c9-1.7,11.9-3.4,11.2-13.9c-0.4-7.3-2.1-14.1-11.7-12.3c-1-2.2-1.5-6.7-1.1-9.1
				c17-4.3,20.8-3.9,17.4-22.1c-2.3-11.9,1.7-24.8-1.9-36.5c-4.7,0.2-10,0-13.3-2.8c5.3-5.5,15.7-8.7,2.9-15.4
				C881.8,533.7,868,535.9,859.7,535.7L859.7,535.7z"/>
			<path class="st17" d="M871.5,611.6c-21.3-0.4-42.6-1.8-63.7-2.8c-15.6-0.7-30.3-2.6-46-3.6c-25.3-1.7-53.5-1.2-79.1-1.8
				c-59-1.2-121-2-179.1-6.5c-43.9-3.3-79.6-12.6-122.8-16c-47.8-3.8-104.2-3.7-151-0.3c-39.4,2.9-60,15.7-98.1,19.2
				c-15,1.3-31.9,1.1-47.4,1.7c-9.9,0.3-22,0.9-32.5-0.1c-0.1,2.5,0.1,5.2,0.3,7.9c8.3,0.2,16.2,0.6,19.5,0.8
				c25.9,1.6,51.1,2.8,77.1,1.9c43-1.4,73.7-7.9,107.3-14.8c47-9.6,100.5-5.5,152.5-2.1c15.5,1,30.2,2.4,45,4.3
				c10.9,1.3,22.3,3.7,33.8,3.8c9.2,0.1,18.6-1,28.3-0.9c11.2,0.1,22,1.1,33,1.5c26.5,0.9,52.8,0.6,78.9,0.4
				c38.9-0.2,78.3,1.7,116,5.8c33,3.6,63.2,6,97.4,7.2c14.2,0.4,28.6,0.7,42.9,1.3c-0.2-1.6-0.2-3.2,0-4.3c3.1-0.7,5.7-1.4,7.9-2
				C884.7,612,877.8,611.7,871.5,611.6L871.5,611.6z"/>
			<path class="st21" d="M52.8,630c0.1-1.9,0.2-3.9,0.3-6c0.1-2.9-0.2-6-0.5-9.2c43.5,0.7,86.6,0.6,130.2-0.3
				c33.9-0.8,63.8-3.1,91.3-9.1c25.5-5.5,46.3-7.9,78.5-7.3c44.6,1,81.4,5.2,123.1,10.6c24.1,3.1,40.5,1.7,64.1,0.6
				c23.1-1.1,49,0.2,72.5,0.4c26.7,0.3,53.5,0.4,79.9,2.1c43.4,2.6,83.8,8.9,127.5,11.1c21.7,1.1,43.9,1.3,65.9,1.8
				c2,0,4.6,0.1,7.6,0.2c1.8,1.6,2.6,4.2,3.1,7.1c-13-0.3-26.6-0.3-33.4-0.5c-41.3-1-82.6-1.2-123.5-2.5c-44.7-1.4-88.6,0.4-132.9,0
				c-14.7-0.2-29.1-1.4-44.1-1.8c-15.8-0.3-30.8,0.5-46.4,0.6c-12.8,0.2-25.4,0-37.5,1.3c-9,0.9-15.6,2.9-24.4,3.9
				c-18.9,2.2-41.6,7.1-63.2,4.9c-29.5-3-58.9-6.7-88.3-9.9c-44.7-5-87,1.2-131.4,2c-30.5,0.6-62,0.9-92.7,1.2
				C72.6,631.2,62,630.4,52.8,630L52.8,630z M395.9,616.5l-3.7,1.4c-2.3,8.8,60.1,9.6,63.1,2.9c1.6-3.6-19.3-6-27.7-6.9
				C414.4,612.6,405.3,613.6,395.9,616.5L395.9,616.5z M370,627.5c14.5,1.4,44.4,5.1,58.5,2.4l-2.4-0.8
				c-23.5-0.6-77.9-3.3-92.2-10.9c-21.3-11.2,63-5.9,76.5-7.3c1.4-3.1-10.2-2.5-16.8-2.6c-19.1-0.4-42.3-2.1-60.9-1.3
				c-19,0.8-30.5,8.6-13.7,12.9C333,623.5,353.5,625.9,370,627.5L370,627.5z"/>
			<path class="st18" d="M781.7,636.5c-79.5-0.6-159.3-0.5-238.7-1.9c-27.8-0.5-55-0.9-81,2.3c-30.1,3.7-43.6,8.1-78.9,5.7
				c-34.1-2.3-66.1-9.6-100.6-10.3c-34.4-0.8-70.3,0.7-104,2c-43.6,1.7-83.2,1.9-125.9,0.3c-0.1,5.4,0.8,9.7,5.8,13.3
				c7,5.1,18.2,3,27,3.9c23.6,2.5,46.6,9.3,70.5,10.6c29.1,1.6,57.8-9.6,86.9-12.1c68.4-5.8,135.1,4,203.4,5.4
				c93.3,1.9,186.5-3.4,279.3-1.3c38.1,0.9,75.1-8.5,112.3-5.9c15.1,1,32.5,3.7,47.6,1c8.2-1.5,11.3-3,11.3-11.1
				C859.3,638.9,819.1,636.8,781.7,636.5L781.7,636.5z"/>
			<path class="st18" d="M892.1,558.6c-35.9-1.1-70.9-0.4-106.1,1.4c-64.1,3.2-124.6,9.2-190.1,10.3C554,571,512,570,470.1,568.2
				c-91.9-4-177.8-17.3-267-7.1c-53.2,6.1-108.3,4.6-164.2,3.5c2.9,15.3,20.6,9.2,30.8,20.8l2.4,2.4c-12.5-2.1-17.6,1.6-19.4,7.8
				c1.6,0.2,3.2,0.3,4.6,0.4c11.6,0.8,23.2,1.4,35.4,1.4c29.3,0.1,42.3-6.3,62.7-11.9c56.9-15.7,139.6-16.7,213.3-12.5
				c34.6,2,66.2,5.9,98.3,10.8c32.4,5,68.4,11.7,104,12.7c21.5,0.6,41.9-1.6,63.3-1.4c26.4,0.3,53.2,0.9,79.3,2.1
				c39.2,1.7,77.3,4.3,116.4,6.2c20.2,0.9,40.8,1.5,61.1,2.4c2,0.1,5.8,0.3,10.4,0.5c1.2-2.9,1-7.1-0.3-14.2c-2.1-10.7,1-22.2-1-33
				C896.7,558.9,893.8,558.7,892.1,558.6L892.1,558.6z"/>
			<path class="st18" d="M859.7,535.7c-32.7-0.7-65,0.5-97.6,1.5c-75.7,2.2-150.8,5.1-226.9,3.6c-55.4-1.2-110.1-2.7-165.7-1.1
				c-50.7,1.4-102.5,6.3-153.8,2.7c-42.4-2.9-87-3.8-129.2-2.7c-16.4,0.5-45.8-4.2-47.8,15.6c-0.3,2.4-0.3,4.5-0.2,6.4
				c6.5,0.1,13.2,0.5,16.7,0.5c19.9,0.2,39.5-0.5,58.9-1.1c29.9-0.9,53.3-2.6,82.1-5.6c22.9-2.3,44.9-4.5,69.3-4
				c22.6,0.4,47.5,1.8,70.4,3c28.1,1.4,55,3.1,82.8,4.8c12.5,0.8,24.2,2.6,36.8,3.1c15.2,0.6,30.1,0,45.4,0.6
				c37.6,1.5,74.9,3.9,112.1,1.8c35.7-2.1,69.1-7.8,104.8-9s72.9-0.7,108.4-1.7c18.5-0.5,36.6-2.3,55.4-1.9c1.4,0.1,3,0.1,4.8,0.2
				c5.5-5.3,15-8.5,2.5-15C881.8,533.7,868,535.9,859.7,535.7L859.7,535.7z"/>
			<path class="st22" d="M901.2,592.1c-2.3-11.9,1.7-24.8-1.9-36.5c-4.7,0.2-10,0-13.3-2.8c5.3-5.5,15.7-8.7,2.9-15.4
				c-4.3-2.2,6.5,5.6-1.4,10.6c-6.2,3.8-13.7,3.4-13.8,3.8c-1.8,7.8,14.9,1.4,20.5,6.3c4.6,4.1-0.3,5.7,1.2,12.2
				c1.1,4.5,0.5,7.9,1.1,12.4c1.5,10.1,2.2,21-2.7,22.8c-7.5,2.8-14.9,4.4-13.5,13.3c-0.2,3.8,3.7,6.6,8.9,6.6
				c2.8,0,1.4,9.2,1.1,14.5c-7.8,1.6-14.4,0.6-21.8,0.2c-42.5-2.1-84.7,6.9-125.6,4.8c-26.1-1.3-52-1.1-78.2,0
				c-27.1,1.2-54.2,8.9-81.5,7.4c-41.6-2.3-82.1-4.9-123.1-11.1c-54.6-8.1-112.8-3.1-167.9-6c-46.5-2.5-91.2,4.2-135.6,11
				c-20.3,3.1-39.3-4-58.5-7.4c-15.4-2.7-29.9-4.9-45.5-5.7c-0.2,6,0.4,10.9,5.8,14.8c7,5.1,18.3,3,27,3.9
				c23.6,2.5,46.6,9.3,70.5,10.6c29.1,1.6,57.8-9.6,86.9-12.1c68.4-5.8,135.1,4,203.5,5.4c93.2,1.9,186.4-3.4,279.2-1.3
				c38.1,0.9,75.1-8.5,112.3-5.9c15.1,1,32.5,3.7,47.6,1c9-1.7,11.9-3.4,11.2-13.9c-0.4-7.3-2.1-14.1-11.7-12.3
				c-1-2.2-1.5-6.7-1.1-9.1C900.8,609.9,904.6,610.3,901.2,592.1L901.2,592.1z"/>
		</g>
		<g id="_x33_rd-dot">
			<path class="st6" d="M152.1,596.8c0.7,7.5-4.3,14.2-11.3,14.8c-6.9,0.7-13.1-4.9-13.8-12.4c-0.7-7.6,4.3-14.2,11.3-14.8
				C145.2,583.7,151.4,589.3,152.1,596.8z"/>
			<path class="st7" d="M137.5,606c-6.6,0-11.9-5.4-11.9-11.9c0-6.6,5.3-12,11.9-12c6.6,0,11.9,5.4,11.9,12
				C149.4,600.6,144.1,606,137.5,606z"/>
			<path class="st8" d="M135.8,599.2c-4,0-7.2-3.2-7.2-7.2s3.2-7.2,7.2-7.2c3.9,0,7.1,3.2,7.1,7.2S139.7,599.2,135.8,599.2z"/>
			<path class="st9" d="M134.5,594.3c-1.8,0-3.2-1.4-3.2-3.2s1.4-3.3,3.2-3.3s3.3,1.5,3.3,3.3S136.3,594.3,134.5,594.3z"/>
		</g>
		<g id="_x33_rd-dot_00000167391486267395685900000017902279884643773089_">
			<path class="st6" d="M820.6,602.1c0.7,7.5-4.4,14.1-11.3,14.8c-6.9,0.7-13.1-4.9-13.8-12.5c-0.7-7.5,4.3-14.1,11.3-14.8
				C813.7,589,819.9,594.6,820.6,602.1z"/>
			<path class="st7" d="M806,611.3c-6.6,0-11.9-5.4-11.9-12s5.3-11.9,11.9-11.9c6.6,0,11.9,5.3,11.9,11.9
				C817.9,605.9,812.6,611.3,806,611.3z"/>
			<path class="st8" d="M804.2,604.5c-3.9,0-7.1-3.2-7.1-7.2s3.2-7.2,7.1-7.2c4,0,7.2,3.2,7.2,7.2S808.2,604.5,804.2,604.5z"/>
			<path class="st9" d="M803,599.6c-1.8,0-3.2-1.4-3.2-3.2s1.4-3.3,3.2-3.3s3.3,1.5,3.3,3.3S804.8,599.6,803,599.6z"/>
		</g>
	</g>
</g>
</svg>
