<svg version="1.2" xmlns="http://www.w3.org/2000/svg" viewBox="0 0 1920 945" width="1920" height="945">
	<title>New Project</title>
	<defs>
		<clipPath clipPathUnits="userSpaceOnUse" id="cp1">
			<path d="m1919-1v945h-1920v-945z"/>
		</clipPath>
	</defs>
	<style>
		.sss0 { fill: #fcee21 } 
		.sss1 { mix-blend-mode: multiply;fill: #fcee21 } 
		.sss2 { fill: #ffffff } 
		.sss3 { fill: #d7ecf9 } 
	</style>
	<g id="anim2">
		<g id="Clip-Path: Clip-Path: Clip-Path: Clip-Path: Clip-Path: &lt;Clip Group&gt;" clip-path="url(#cp1)">
			<g id="Clip-Path: Clip-Path: Clip-Path: Clip-Path: &lt;Clip Group&gt;">
				<g id="Clip-Path: &lt;Clip Group&gt;">
					<g id="&lt;Clip Group&gt;">
						<g id="OBJECTS">
							<g id="cloud-group">
								<g id="cleft1">
									<path id="&lt;Path&gt;" class="sss2" d="m476.3 215.5l-71.6 5-6.9 0.5-20.8 1.4c-1.4 10.6-7.4 18.6-17.8 21.8-11.5 3.4-26 0.2-39.7-7.7-3.3 6.3-7.6 10.5-12.5 13.1-6.7 3.7-14.7 4.6-23.3 4.6-8.6 0-16.6-0.9-23.3-4.6-4.9-2.6-9.2-6.8-12.4-13.1-13.8 7.9-28.3 11.1-39.8 7.7-10.4-3.2-16.4-11.2-17.8-21.8l-20.8-1.4-6.9-0.5-71.6-5 65.1-11.8c-3.1-5.4-3.9-12.1-1.3-18.6 1-2.6 2.5-5 4.6-6.9q2.2-2.1 4.9-3.4c6.8-3.3 15.8-3 25.7 0.2-0.4-20.3 5.7-36.2 18.1-41.7 11.5-5.1 26-0.3 39.8 11.4 7.6-22.1 20.7-36.6 35.7-36.6 15 0 28.1 14.5 35.8 36.6 13.7-11.7 28.2-16.5 39.7-11.4 12.4 5.5 18.5 21.4 18.1 41.7 9.9-3.2 19-3.5 25.7-0.2q2.8 1.3 5 3.4c2 1.9 3.5 4.3 4.6 6.9 2.5 6.5 1.7 13.2-1.4 18.6z"/>
									<path id="&lt;Path&gt;" class="sss3" d="m476.3 215.5l-65.1-11.8c3.1-5.4 3.9-12.1 1.4-18.6-1.1-2.6-2.6-5-4.6-6.9q-2.2-2.1-5-3.4 0 0 0 0.1c2.4 9-4 18.1-13.3 19.2-4.8 0.6-10.7-0.2-17.4-3.9 0 0-28.3 24.8-53.4 0.2 0 0-7.9 16.6-35.2 18.1-27.3-1.5-35.1-18.1-35.1-18.1-25.2 24.6-53.5-0.2-53.5-0.2-7.2 4-13.4 4.6-18.5 3.8-8.8-1.4-14.5-10.4-12.2-19.1q0 0 0-0.1-2.7 1.3-4.9 3.4c-2.1 1.9-3.6 4.3-4.6 6.9-2.6 6.5-1.8 13.2 1.3 18.6l-65.1 11.8h0.1-0.1l55.5 3.9 23 1.6 10.5 0.7 10.3 0.7c1.4 10.6 7.4 18.6 17.8 21.8 2.9 0.8 6 1.3 9.1 1.3 2.5 0.1 5-0.2 7.5-0.5 7.5-1.2 15.4-4.1 23.2-8.5 0.1 0.4 0.3 0.6 0.5 0.9q0.4 0.8 0.8 1.5 0.4 0.6 0.8 1.2 0.3 0.5 0.7 1 0.4 0.6 0.8 1.1 0.4 0.5 0.8 0.9 0.4 0.5 0.9 1 0.3 0.4 0.7 0.8 0.5 0.5 1 0.9 0.4 0.4 0.8 0.7 0.5 0.4 1 0.8 0.1 0.1 0.2 0.1c7.3 5.5 16.6 6.8 26.7 6.8 10.2 0 19.5-1.3 26.8-6.8q0 0 0.1-0.1 0.5-0.4 1.1-0.8 0.3-0.3 0.7-0.7 0.5-0.4 1-0.9 0.4-0.4 0.7-0.8 0.5-0.5 1-1 0.3-0.4 0.7-0.9 0.4-0.5 0.8-1.1 0.4-0.5 0.7-1 0.4-0.6 0.8-1.2 0.4-0.7 0.8-1.4c0.2-0.4 0.4-0.6 0.6-1 7.6 4.4 15.5 7.3 22.9 8.4 2.6 0.4 5.2 0.7 7.7 0.6 3.1 0 6.2-0.5 9.1-1.3 10.4-3.2 16.4-11.2 17.8-21.8l10.3-0.7 10.5-0.7 22.8-1.6z"/>
								</g>
								<g id="cright1">
									<path id="&lt;Path&gt;" class="sss2" d="m1515.3 201.6l-52.3 3.6-5 0.4-15.2 1c-1 7.8-5.4 13.6-13 15.9-8.4 2.5-18.9 0.2-29-5.6-2.4 4.6-5.5 7.7-9.1 9.6-4.9 2.6-10.7 3.3-17 3.3-6.3 0-12.1-0.7-17-3.3-3.6-1.9-6.7-5-9.1-9.6-10.1 5.8-20.6 8.1-29 5.6-7.6-2.3-12-8.1-13-15.9l-15.2-1-5-0.4-52.3-3.6 47.5-8.6c-2.2-4-2.8-8.9-1-13.6q1.2-2.9 3.4-5.1 1.6-1.5 3.6-2.4c4.9-2.4 11.5-2.3 18.8 0.1-0.3-14.8 4.1-26.4 13.2-30.4 8.4-3.8 18.9-0.3 29 8.3 5.6-16.1 15.2-26.7 26.1-26.7 10.9 0 20.5 10.6 26.1 26.7 10.1-8.6 20.6-12.1 29-8.3 9.1 4 13.5 15.6 13.2 30.4 7.3-2.4 13.9-2.5 18.8-0.1q2 0.9 3.6 2.4 2.2 2.2 3.4 5.1c1.8 4.7 1.2 9.6-1 13.6z"/>
									<path id="&lt;Path&gt;" class="sss3" d="m1515.3 201.6l-47.5-8.6c2.2-4 2.8-8.9 1-13.6q-1.2-2.9-3.4-5.1-1.6-1.5-3.6-2.4c1.7 6.6-2.9 13.3-9.7 14.1-3.5 0.4-7.8-0.2-12.7-2.9 0 0-20.7 18.1-39 0.2 0 0-5.8 12.1-25.7 13.2-19.9-1.1-25.7-13.2-25.7-13.2-18.3 17.9-39-0.2-39-0.2-5.2 2.9-9.8 3.3-13.5 2.8-6.4-1.1-10.6-7.6-8.9-13.9q0-0.1 0-0.1-2 0.9-3.6 2.4-2.2 2.2-3.4 5.1c-1.8 4.7-1.2 9.6 1 13.6l-47.5 8.6 40.5 2.8 16.8 1.2 7.7 0.5 7.5 0.5c1 7.8 5.4 13.6 13 15.9q3.2 0.9 6.7 1c1.7 0 3.6-0.1 5.4-0.4 5.5-0.8 11.3-2.9 16.9-6.2q0.2 0.4 0.4 0.7 0.3 0.5 0.6 1.1 0.3 0.4 0.5 0.8 0.3 0.4 0.6 0.8 0.3 0.4 0.6 0.8 0.2 0.3 0.5 0.6 0.3 0.4 0.7 0.8 0.3 0.3 0.5 0.6 0.4 0.3 0.7 0.6 0.3 0.3 0.6 0.5 0.4 0.3 0.8 0.6 0 0.1 0.1 0.1c5.3 4 12.1 4.9 19.5 4.9 7.4 0 14.2-0.9 19.6-4.9q0-0.1 0-0.1 0.4-0.3 0.8-0.6 0.3-0.2 0.6-0.5 0.3-0.3 0.7-0.7 0.2-0.2 0.5-0.5 0.4-0.4 0.7-0.8 0.3-0.3 0.5-0.6 0.3-0.4 0.6-0.8 0.3-0.4 0.6-0.8 0.2-0.4 0.5-0.8 0.3-0.6 0.6-1.1 0.2-0.3 0.4-0.7c5.6 3.2 11.3 5.3 16.8 6.2 1.9 0.3 3.7 0.4 5.5 0.4q3.5-0.1 6.7-1c7.6-2.3 12-8.1 13-15.9l7.5-0.5 7.7-0.5 16.7-1.2z"/>
								</g>
								<g id="cmid1">
									<path id="&lt;Path&gt;" class="sss2" d="m1078.2 303.4l-88.4 6.2-8.5 0.6-25.7 1.8c-1.7 13-9.1 23-22 26.8-14.1 4.3-32 0.3-49-9.4-4 7.8-9.2 12.9-15.4 16.2-8.2 4.4-18.1 5.6-28.7 5.6-10.6 0-20.4-1.2-28.7-5.6-6.1-3.3-11.4-8.4-15.4-16.2-17 9.7-34.8 13.7-49 9.4-12.9-3.8-20.3-13.8-22-26.8l-25.6-1.8-8.6-0.6-88.4-6.2 80.4-14.5c-3.8-6.7-4.9-15-1.7-23 1.3-3.2 3.2-6.1 5.7-8.5q2.7-2.6 6.1-4.2c8.3-4 19.5-3.7 31.7 0.3-0.5-25.1 7-44.7 22.4-51.5 14.2-6.3 32-0.4 49 14 9.4-27.2 25.7-45.1 44.1-45.1 18.5 0 34.7 17.9 44.1 45.1 17-14.4 34.9-20.3 49-14 15.4 6.8 23 26.4 22.4 51.5 12.2-4 23.4-4.3 31.7-0.3q3.4 1.6 6.1 4.2c2.5 2.4 4.4 5.3 5.7 8.5 3.2 8 2.2 16.3-1.6 23z"/>
									<path id="&lt;Path&gt;" class="sss3" d="m1078.2 303.4l-80.3-14.5c3.8-6.7 4.8-15 1.6-23-1.3-3.2-3.2-6.1-5.7-8.5q-2.7-2.6-6.1-4.2 0 0.1 0.1 0.1c2.9 11.2-5 22.4-16.5 23.8-5.9 0.6-13.2-0.3-21.5-4.9 0 0-34.9 30.6-65.9 0.3 0 0-9.7 20.4-43.4 22.3-33.6-1.9-43.4-22.3-43.4-22.3-31 30.3-65.9-0.3-65.9-0.3-8.9 4.9-16.6 5.7-22.8 4.7-10.9-1.7-17.9-12.8-15.1-23.5q0-0.1 0-0.2-3.4 1.6-6.1 4.2c-2.5 2.4-4.4 5.3-5.7 8.5-3.2 8-2.1 16.3 1.7 23l-80.4 14.5h0.1l-0.1 0.1 68.5 4.7 28.5 2 12.9 0.9 12.7 0.9c1.7 13 9.1 23 22 26.8 3.5 1.1 7.3 1.6 11.2 1.7 3 0.1 6.1-0.2 9.3-0.7 9.2-1.4 19-5 28.5-10.4 0.2 0.4 0.4 0.7 0.6 1.1q0.5 0.9 1.1 1.8 0.4 0.8 0.9 1.5 0.4 0.6 0.9 1.3 0.5 0.6 1 1.3 0.5 0.6 0.9 1.1 0.6 0.7 1.1 1.3 0.5 0.5 1 0.9 0.6 0.6 1.2 1.2 0.5 0.4 0.9 0.8 0.7 0.5 1.4 1 0 0.1 0.1 0.2c9.1 6.7 20.5 8.3 33 8.3 12.5 0 24-1.6 33.1-8.4q0 0 0.1-0.1 0.6-0.5 1.3-1.1 0.5-0.3 0.9-0.7 0.6-0.6 1.2-1.2 0.5-0.4 1-0.9 0.5-0.6 1.1-1.3 0.5-0.5 0.9-1.1 0.5-0.6 1-1.4 0.5-0.6 0.9-1.2 0.5-0.7 1-1.5 0.5-0.8 1-1.8c0.2-0.3 0.4-0.7 0.6-1.1 9.5 5.4 19.2 8.9 28.4 10.4 3.2 0.5 6.3 0.8 9.4 0.7 3.9-0.1 7.7-0.6 11.2-1.7 12.9-3.8 20.3-13.8 22-26.8l12.8-0.9 12.9-0.9 28.2-2 68.7-4.7-0.1-0.1z"/>
								</g>
							</g>
							<g id="cloud-group2">
								<g id="cleft2">
									<path id="&lt;Path&gt;" class="sss2" d="m2076.3 215.5l-71.6 5-6.9 0.5-20.8 1.4c-1.4 10.6-7.4 18.6-17.8 21.8-11.5 3.4-26 0.2-39.7-7.7-3.3 6.3-7.6 10.5-12.5 13.1-6.7 3.7-14.7 4.6-23.3 4.6-8.6 0-16.6-0.9-23.3-4.6-4.9-2.6-9.2-6.8-12.4-13.1-13.8 7.9-28.3 11.1-39.8 7.7-10.4-3.2-16.4-11.2-17.8-21.8l-20.8-1.4-6.9-0.5-71.6-5 65.1-11.8c-3.1-5.4-3.9-12.1-1.3-18.6 1-2.6 2.5-5 4.6-6.9q2.2-2.1 4.9-3.4c6.8-3.3 15.8-3 25.7 0.2-0.4-20.3 5.7-36.2 18.1-41.7 11.5-5.1 26-0.3 39.8 11.4 7.6-22.1 20.7-36.6 35.7-36.6 15 0 28.1 14.5 35.8 36.6 13.7-11.7 28.2-16.5 39.7-11.4 12.4 5.5 18.5 21.4 18.1 41.7 9.9-3.2 19-3.5 25.7-0.2q2.8 1.3 5 3.4c2 1.9 3.5 4.3 4.6 6.9 2.5 6.5 1.7 13.2-1.4 18.6z"/>
									<path id="&lt;Path&gt;" class="sss3" d="m2076.3 215.5l-65.1-11.8c3.1-5.4 3.9-12.1 1.4-18.6-1.1-2.6-2.6-5-4.6-6.9q-2.2-2.1-5-3.4 0 0 0 0.1c2.4 9-4 18.1-13.3 19.2-4.8 0.6-10.7-0.2-17.4-3.9 0 0-28.3 24.8-53.4 0.2 0 0-7.9 16.6-35.2 18.1-27.3-1.5-35.1-18.1-35.1-18.1-25.2 24.6-53.5-0.2-53.5-0.2-7.2 4-13.4 4.6-18.5 3.8-8.8-1.4-14.5-10.4-12.2-19.1q0 0 0-0.1-2.7 1.3-4.9 3.4c-2.1 1.9-3.6 4.3-4.6 6.9-2.6 6.5-1.8 13.2 1.3 18.6l-65.1 11.8h0.1-0.1l55.5 3.9 23 1.6 10.5 0.7 10.3 0.7c1.4 10.6 7.4 18.6 17.8 21.8 2.9 0.8 6 1.3 9.1 1.3 2.5 0.1 5-0.2 7.5-0.5 7.5-1.2 15.4-4.1 23.2-8.5 0.1 0.4 0.3 0.6 0.5 0.9q0.4 0.8 0.8 1.5 0.4 0.6 0.8 1.2 0.3 0.5 0.7 1 0.4 0.6 0.8 1.1 0.4 0.5 0.8 0.9 0.4 0.5 0.9 1 0.3 0.4 0.7 0.8 0.5 0.5 1 0.9 0.4 0.4 0.8 0.7 0.5 0.4 1 0.8 0.1 0.1 0.2 0.1c7.3 5.5 16.6 6.8 26.7 6.8 10.2 0 19.5-1.3 26.8-6.8q0 0 0.1-0.1 0.5-0.4 1.1-0.8 0.3-0.3 0.7-0.7 0.5-0.4 1-0.9 0.4-0.4 0.7-0.8 0.5-0.5 1-1 0.3-0.4 0.7-0.9 0.4-0.5 0.8-1.1 0.4-0.5 0.7-1 0.4-0.6 0.8-1.2 0.4-0.7 0.8-1.4c0.2-0.4 0.4-0.6 0.6-1 7.6 4.4 15.5 7.3 22.9 8.4 2.6 0.4 5.2 0.7 7.7 0.6 3.1 0 6.2-0.5 9.1-1.3 10.4-3.2 16.4-11.2 17.8-21.8l10.3-0.7 10.5-0.7 22.8-1.6z"/>
								</g>
								<g id="cright2">
									<path id="&lt;Path&gt;" class="sss2" d="m3115.3 201.6l-52.3 3.6-5 0.4-15.2 1c-1 7.8-5.4 13.6-13 15.9-8.4 2.5-18.9 0.2-29-5.6-2.4 4.6-5.5 7.7-9.1 9.6-4.9 2.6-10.7 3.3-17 3.3-6.3 0-12.1-0.7-17-3.3-3.6-1.9-6.7-5-9.1-9.6-10.1 5.8-20.6 8.1-29 5.6-7.6-2.3-12-8.1-13-15.9l-15.2-1-5-0.4-52.3-3.6 47.5-8.6c-2.2-4-2.8-8.9-1-13.6q1.2-2.9 3.4-5.1 1.6-1.5 3.6-2.4c4.9-2.4 11.5-2.3 18.8 0.1-0.3-14.8 4.1-26.4 13.2-30.4 8.4-3.8 18.9-0.3 29 8.3 5.6-16.1 15.2-26.7 26.1-26.7 10.9 0 20.5 10.6 26.1 26.7 10.1-8.6 20.6-12.1 29-8.3 9.1 4 13.5 15.6 13.2 30.4 7.3-2.4 13.9-2.5 18.8-0.1q2 0.9 3.6 2.4 2.2 2.2 3.4 5.1c1.8 4.7 1.2 9.6-1 13.6z"/>
									<path id="&lt;Path&gt;" class="sss3" d="m3115.3 201.6l-47.5-8.6c2.2-4 2.8-8.9 1-13.6q-1.2-2.9-3.4-5.1-1.6-1.5-3.6-2.4c1.7 6.6-2.9 13.3-9.7 14.1-3.5 0.4-7.8-0.2-12.7-2.9 0 0-20.7 18.1-39 0.2 0 0-5.8 12.1-25.7 13.2-19.9-1.1-25.7-13.2-25.7-13.2-18.3 17.9-39-0.2-39-0.2-5.2 2.9-9.8 3.3-13.5 2.8-6.4-1.1-10.6-7.6-8.9-13.9q0-0.1 0-0.1-2 0.9-3.6 2.4-2.2 2.2-3.4 5.1c-1.8 4.7-1.2 9.6 1 13.6l-47.5 8.6 40.5 2.8 16.8 1.2 7.7 0.5 7.5 0.5c1 7.8 5.4 13.6 13 15.9q3.2 0.9 6.7 1c1.7 0 3.6-0.1 5.4-0.4 5.5-0.8 11.3-2.9 16.9-6.2q0.2 0.4 0.4 0.7 0.3 0.5 0.6 1.1 0.3 0.4 0.5 0.8 0.3 0.4 0.6 0.8 0.3 0.4 0.6 0.8 0.2 0.3 0.5 0.6 0.3 0.4 0.7 0.8 0.3 0.3 0.5 0.6 0.4 0.3 0.7 0.6 0.3 0.3 0.6 0.5 0.4 0.3 0.8 0.6 0 0.1 0.1 0.1c5.3 4 12.1 4.9 19.5 4.9 7.4 0 14.2-0.9 19.6-4.9q0-0.1 0-0.1 0.4-0.3 0.8-0.6 0.3-0.2 0.6-0.5 0.3-0.3 0.7-0.7 0.2-0.2 0.5-0.5 0.4-0.4 0.7-0.8 0.3-0.3 0.5-0.6 0.3-0.4 0.6-0.8 0.3-0.4 0.6-0.8 0.2-0.4 0.5-0.8 0.3-0.6 0.6-1.1 0.2-0.3 0.4-0.7c5.6 3.2 11.3 5.3 16.8 6.2 1.9 0.3 3.7 0.4 5.5 0.4q3.5-0.1 6.7-1c7.6-2.3 12-8.1 13-15.9l7.5-0.5 7.7-0.5 16.7-1.2z"/>
								</g>
								<g id="cmid2">
									<path id="&lt;Path&gt;" class="sss2" d="m2678.2 303.4l-88.4 6.2-8.5 0.6-25.7 1.8c-1.7 13-9.1 23-22 26.8-14.1 4.3-32 0.3-49-9.4-4 7.8-9.2 12.9-15.4 16.2-8.2 4.4-18.1 5.6-28.7 5.6-10.6 0-20.4-1.2-28.7-5.6-6.1-3.3-11.4-8.4-15.4-16.2-17 9.7-34.8 13.7-49 9.4-12.9-3.8-20.3-13.8-22-26.8l-25.6-1.8-8.6-0.6-88.4-6.2 80.4-14.5c-3.8-6.7-4.9-15-1.7-23 1.3-3.2 3.2-6.1 5.7-8.5q2.7-2.6 6.1-4.2c8.3-4 19.5-3.7 31.7 0.3-0.5-25.1 7-44.7 22.4-51.5 14.2-6.3 32-0.4 49 14 9.4-27.2 25.7-45.1 44.1-45.1 18.5 0 34.7 17.9 44.1 45.1 17-14.4 34.9-20.3 49-14 15.4 6.8 23 26.4 22.4 51.5 12.2-4 23.4-4.3 31.7-0.3q3.4 1.6 6.1 4.2c2.5 2.4 4.4 5.3 5.7 8.5 3.2 8 2.2 16.3-1.6 23z"/>
									<path id="&lt;Path&gt;" class="sss3" d="m2678.2 303.4l-80.3-14.5c3.8-6.7 4.8-15 1.6-23-1.3-3.2-3.2-6.1-5.7-8.5q-2.7-2.6-6.1-4.2 0 0.1 0.1 0.1c2.9 11.2-5 22.4-16.5 23.8-5.9 0.6-13.2-0.3-21.5-4.9 0 0-34.9 30.6-65.9 0.3 0 0-9.7 20.4-43.4 22.3-33.6-1.9-43.4-22.3-43.4-22.3-31 30.3-65.9-0.3-65.9-0.3-8.9 4.9-16.6 5.7-22.8 4.7-10.9-1.7-17.9-12.8-15.1-23.5q0-0.1 0-0.2-3.4 1.6-6.1 4.2c-2.5 2.4-4.4 5.3-5.7 8.5-3.2 8-2.1 16.3 1.7 23l-80.4 14.5h0.1l-0.1 0.1 68.5 4.7 28.5 2 12.9 0.9 12.7 0.9c1.7 13 9.1 23 22 26.8 3.5 1.1 7.3 1.6 11.2 1.7 3 0.1 6.1-0.2 9.3-0.7 9.2-1.4 19-5 28.5-10.4 0.2 0.4 0.4 0.7 0.6 1.1q0.5 0.9 1.1 1.8 0.4 0.8 0.9 1.5 0.4 0.6 0.9 1.3 0.5 0.6 1 1.3 0.5 0.6 0.9 1.1 0.6 0.7 1.1 1.3 0.5 0.5 1 0.9 0.6 0.6 1.2 1.2 0.5 0.4 0.9 0.8 0.7 0.5 1.4 1 0 0.1 0.1 0.2c9.1 6.7 20.5 8.3 33 8.3 12.5 0 24-1.6 33.1-8.4q0 0 0.1-0.1 0.6-0.5 1.3-1.1 0.5-0.3 0.9-0.7 0.6-0.6 1.2-1.2 0.5-0.4 1-0.9 0.5-0.6 1.1-1.3 0.5-0.5 0.9-1.1 0.5-0.6 1-1.4 0.5-0.6 0.9-1.2 0.5-0.7 1-1.5 0.5-0.8 1-1.8c0.2-0.3 0.4-0.7 0.6-1.1 9.5 5.4 19.2 8.9 28.4 10.4 3.2 0.5 6.3 0.8 9.4 0.7 3.9-0.1 7.7-0.6 11.2-1.7 12.9-3.8 20.3-13.8 22-26.8l12.8-0.9 12.9-0.9 28.2-2 68.7-4.7-0.1-0.1z"/>
								</g>
							</g>
							<g id="cloud-group3">
								<g id="cleft3">
									<path id="&lt;Path&gt;" class="sss2" d="m3586.3 215.5l-71.6 5-6.9 0.5-20.8 1.4c-1.4 10.6-7.4 18.6-17.8 21.8-11.5 3.4-26 0.2-39.7-7.7-3.3 6.3-7.6 10.5-12.5 13.1-6.7 3.7-14.7 4.6-23.3 4.6-8.6 0-16.6-0.9-23.3-4.6-4.9-2.6-9.2-6.8-12.4-13.1-13.8 7.9-28.3 11.1-39.8 7.7-10.4-3.2-16.4-11.2-17.8-21.8l-20.8-1.4-6.9-0.5-71.6-5 65.1-11.8c-3.1-5.4-3.9-12.1-1.3-18.6 1-2.6 2.5-5 4.6-6.9q2.2-2.1 4.9-3.4c6.8-3.3 15.8-3 25.7 0.2-0.4-20.3 5.7-36.2 18.1-41.7 11.5-5.1 26-0.3 39.8 11.4 7.6-22.1 20.7-36.6 35.7-36.6 15 0 28.1 14.5 35.8 36.6 13.7-11.7 28.2-16.5 39.7-11.4 12.4 5.5 18.5 21.4 18.1 41.7 9.9-3.2 19-3.5 25.7-0.2q2.8 1.3 5 3.4c2 1.9 3.5 4.3 4.6 6.9 2.5 6.5 1.7 13.2-1.4 18.6z"/>
									<path id="&lt;Path&gt;" class="sss3" d="m3586.3 215.5l-65.1-11.8c3.1-5.4 3.9-12.1 1.4-18.6-1.1-2.6-2.6-5-4.6-6.9q-2.2-2.1-5-3.4 0 0 0 0.1c2.4 9-4 18.1-13.3 19.2-4.8 0.6-10.7-0.2-17.4-3.9 0 0-28.3 24.8-53.4 0.2 0 0-7.9 16.6-35.2 18.1-27.3-1.5-35.1-18.1-35.1-18.1-25.2 24.6-53.5-0.2-53.5-0.2-7.2 4-13.4 4.6-18.5 3.8-8.8-1.4-14.5-10.4-12.2-19.1q0 0 0-0.1-2.7 1.3-4.9 3.4c-2.1 1.9-3.6 4.3-4.6 6.9-2.6 6.5-1.8 13.2 1.3 18.6l-65.1 11.8h0.1-0.1l55.5 3.9 23 1.6 10.5 0.7 10.3 0.7c1.4 10.6 7.4 18.6 17.8 21.8 2.9 0.8 6 1.3 9.1 1.3 2.5 0.1 5-0.2 7.5-0.5 7.5-1.2 15.4-4.1 23.2-8.5 0.1 0.4 0.3 0.6 0.5 0.9q0.4 0.8 0.8 1.5 0.4 0.6 0.8 1.2 0.3 0.5 0.7 1 0.4 0.6 0.8 1.1 0.4 0.5 0.8 0.9 0.4 0.5 0.9 1 0.3 0.4 0.7 0.8 0.5 0.5 1 0.9 0.4 0.4 0.8 0.7 0.5 0.4 1 0.8 0.1 0.1 0.2 0.1c7.3 5.5 16.6 6.8 26.7 6.8 10.2 0 19.5-1.3 26.8-6.8q0 0 0.1-0.1 0.5-0.4 1.1-0.8 0.3-0.3 0.7-0.7 0.5-0.4 1-0.9 0.4-0.4 0.7-0.8 0.5-0.5 1-1 0.3-0.4 0.7-0.9 0.4-0.5 0.8-1.1 0.4-0.5 0.7-1 0.4-0.6 0.8-1.2 0.4-0.7 0.8-1.4c0.2-0.4 0.4-0.6 0.6-1 7.6 4.4 15.5 7.3 22.9 8.4 2.6 0.4 5.2 0.7 7.7 0.6 3.1 0 6.2-0.5 9.1-1.3 10.4-3.2 16.4-11.2 17.8-21.8l10.3-0.7 10.5-0.7 22.8-1.6z"/>
								</g>
								<g id="cright3">
									<path id="&lt;Path&gt;" class="sss2" d="m4625.3 201.6l-52.3 3.6-5 0.4-15.2 1c-1 7.8-5.4 13.6-13 15.9-8.4 2.5-18.9 0.2-29-5.6-2.4 4.6-5.5 7.7-9.1 9.6-4.9 2.6-10.7 3.3-17 3.3-6.3 0-12.1-0.7-17-3.3-3.6-1.9-6.7-5-9.1-9.6-10.1 5.8-20.6 8.1-29 5.6-7.6-2.3-12-8.1-13-15.9l-15.2-1-5-0.4-52.3-3.6 47.5-8.6c-2.2-4-2.8-8.9-1-13.6q1.2-2.9 3.4-5.1 1.6-1.5 3.6-2.4c4.9-2.4 11.5-2.3 18.8 0.1-0.3-14.8 4.1-26.4 13.2-30.4 8.4-3.8 18.9-0.3 29 8.3 5.6-16.1 15.2-26.7 26.1-26.7 10.9 0 20.5 10.6 26.1 26.7 10.1-8.6 20.6-12.1 29-8.3 9.1 4 13.5 15.6 13.2 30.4 7.3-2.4 13.9-2.5 18.8-0.1q2 0.9 3.6 2.4 2.2 2.2 3.4 5.1c1.8 4.7 1.2 9.6-1 13.6z"/>
									<path id="&lt;Path&gt;" class="sss3" d="m4625.3 201.6l-47.5-8.6c2.2-4 2.8-8.9 1-13.6q-1.2-2.9-3.4-5.1-1.6-1.5-3.6-2.4c1.7 6.6-2.9 13.3-9.7 14.1-3.5 0.4-7.8-0.2-12.7-2.9 0 0-20.7 18.1-39 0.2 0 0-5.8 12.1-25.7 13.2-19.9-1.1-25.7-13.2-25.7-13.2-18.3 17.9-39-0.2-39-0.2-5.2 2.9-9.8 3.3-13.5 2.8-6.4-1.1-10.6-7.6-8.9-13.9q0-0.1 0-0.1-2 0.9-3.6 2.4-2.2 2.2-3.4 5.1c-1.8 4.7-1.2 9.6 1 13.6l-47.5 8.6 40.5 2.8 16.8 1.2 7.7 0.5 7.5 0.5c1 7.8 5.4 13.6 13 15.9q3.2 0.9 6.7 1c1.7 0 3.6-0.1 5.4-0.4 5.5-0.8 11.3-2.9 16.9-6.2q0.2 0.4 0.4 0.7 0.3 0.5 0.6 1.1 0.3 0.4 0.5 0.8 0.3 0.4 0.6 0.8 0.3 0.4 0.6 0.8 0.2 0.3 0.5 0.6 0.3 0.4 0.7 0.8 0.3 0.3 0.5 0.6 0.4 0.3 0.7 0.6 0.3 0.3 0.6 0.5 0.4 0.3 0.8 0.6 0 0.1 0.1 0.1c5.3 4 12.1 4.9 19.5 4.9 7.4 0 14.2-0.9 19.6-4.9q0-0.1 0-0.1 0.4-0.3 0.8-0.6 0.3-0.2 0.6-0.5 0.3-0.3 0.7-0.7 0.2-0.2 0.5-0.5 0.4-0.4 0.7-0.8 0.3-0.3 0.5-0.6 0.3-0.4 0.6-0.8 0.3-0.4 0.6-0.8 0.2-0.4 0.5-0.8 0.3-0.6 0.6-1.1 0.2-0.3 0.4-0.7c5.6 3.2 11.3 5.3 16.8 6.2 1.9 0.3 3.7 0.4 5.5 0.4q3.5-0.1 6.7-1c7.6-2.3 12-8.1 13-15.9l7.5-0.5 7.7-0.5 16.7-1.2z"/>
								</g>
								<g id="cmid3">
									<path id="&lt;Path&gt;" class="sss2" d="m4188.2 303.4l-88.4 6.2-8.5 0.6-25.7 1.8c-1.7 13-9.1 23-22 26.8-14.1 4.3-32 0.3-49-9.4-4 7.8-9.2 12.9-15.4 16.2-8.2 4.4-18.1 5.6-28.7 5.6-10.6 0-20.4-1.2-28.7-5.6-6.1-3.3-11.4-8.4-15.4-16.2-17 9.7-34.8 13.7-49 9.4-12.9-3.8-20.3-13.8-22-26.8l-25.6-1.8-8.6-0.6-88.4-6.2 80.4-14.5c-3.8-6.7-4.9-15-1.7-23 1.3-3.2 3.2-6.1 5.7-8.5q2.7-2.6 6.1-4.2c8.3-4 19.5-3.7 31.7 0.3-0.5-25.1 7-44.7 22.4-51.5 14.2-6.3 32-0.4 49 14 9.4-27.2 25.7-45.1 44.1-45.1 18.5 0 34.7 17.9 44.1 45.1 17-14.4 34.9-20.3 49-14 15.4 6.8 23 26.4 22.4 51.5 12.2-4 23.4-4.3 31.7-0.3q3.4 1.6 6.1 4.2c2.5 2.4 4.4 5.3 5.7 8.5 3.2 8 2.2 16.3-1.6 23z"/>
									<path id="&lt;Path&gt;" class="sss3" d="m4188.2 303.4l-80.3-14.5c3.8-6.7 4.8-15 1.6-23-1.3-3.2-3.2-6.1-5.7-8.5q-2.7-2.6-6.1-4.2 0 0.1 0.1 0.1c2.9 11.2-5 22.4-16.5 23.8-5.9 0.6-13.2-0.3-21.5-4.9 0 0-34.9 30.6-65.9 0.3 0 0-9.7 20.4-43.4 22.3-33.6-1.9-43.4-22.3-43.4-22.3-31 30.3-65.9-0.3-65.9-0.3-8.9 4.9-16.6 5.7-22.8 4.7-10.9-1.7-17.9-12.8-15.1-23.5q0-0.1 0-0.2-3.4 1.6-6.1 4.2c-2.5 2.4-4.4 5.3-5.7 8.5-3.2 8-2.1 16.3 1.7 23l-80.4 14.5h0.1l-0.1 0.1 68.5 4.7 28.5 2 12.9 0.9 12.7 0.9c1.7 13 9.1 23 22 26.8 3.5 1.1 7.3 1.6 11.2 1.7 3 0.1 6.1-0.2 9.3-0.7 9.2-1.4 19-5 28.5-10.4 0.2 0.4 0.4 0.7 0.6 1.1q0.5 0.9 1.1 1.8 0.4 0.8 0.9 1.5 0.4 0.6 0.9 1.3 0.5 0.6 1 1.3 0.5 0.6 0.9 1.1 0.6 0.7 1.1 1.3 0.5 0.5 1 0.9 0.6 0.6 1.2 1.2 0.5 0.4 0.9 0.8 0.7 0.5 1.4 1 0 0.1 0.1 0.2c9.1 6.7 20.5 8.3 33 8.3 12.5 0 24-1.6 33.1-8.4q0 0 0.1-0.1 0.6-0.5 1.3-1.1 0.5-0.3 0.9-0.7 0.6-0.6 1.2-1.2 0.5-0.4 1-0.9 0.5-0.6 1.1-1.3 0.5-0.5 0.9-1.1 0.5-0.6 1-1.4 0.5-0.6 0.9-1.2 0.5-0.7 1-1.5 0.5-0.8 1-1.8c0.2-0.3 0.4-0.7 0.6-1.1 9.5 5.4 19.2 8.9 28.4 10.4 3.2 0.5 6.3 0.8 9.4 0.7 3.9-0.1 7.7-0.6 11.2-1.7 12.9-3.8 20.3-13.8 22-26.8l12.8-0.9 12.9-0.9 28.2-2 68.7-4.7-0.1-0.1z"/>
								</g>
							</g>
						</g>
					</g>
				</g>
			</g>
		</g>
	</g>
</svg>