<svg version="1.2" xmlns="http://www.w3.org/2000/svg" viewBox="0 0 1920 680" width="1920" height="680">
	<title>a3</title>
	<defs>
		<clipPath clipPathUnits="userSpaceOnUse" id="cp1">
			<path d="m1920-107v787h-1920v-787z"/>
		</clipPath>
	</defs>
	<style>
		.ss0 { fill: #fcee21 } 
		.ss1 { mix-blend-mode: multiply;fill: #fcee21 } 
		.ss2 { fill: #fcfcfc } 
		.ss3 { opacity: .1;mix-blend-mode: multiply;fill: #808080 } 
		.ss4 { fill: #8ce4f9 } 
		.ss5 { opacity: .5;mix-blend-mode: screen;fill: #8ce4f9 } 
		.ss6 { opacity: .7;mix-blend-mode: screen;fill: #ffffff } 
	</style>
	<g id="Sun">
		<path id="&lt;Path&gt;" class="ss0" d="m1201.7-295.9c0 50-40.5 90.5-90.5 90.5-50 0-90.5-40.5-90.5-90.5 0-49.9 40.5-90.5 90.5-90.5 50 0 90.5 40.6 90.5 90.5z"/>
		<path id="&lt;Path&gt;" class="ss1" d="m1111.2-247.2c-39.1 0-73-19.2-90.4-47.4 0.6 49.4 40.9 89.2 90.4 89.2 49.6 0 89.8-39.8 90.5-89.2-17.4 28.2-51.4 47.4-90.5 47.4z"/>
	</g>
	<g id="moon">
		<path id="&lt;Path&gt;" class="ss2" d="m1061.7 884.1c0 50-40.5 90.5-90.5 90.5-50 0-90.5-40.5-90.5-90.5 0-49.9 40.5-90.5 90.5-90.5 50 0 90.5 40.6 90.5 90.5z"/>
		<path id="&lt;Path&gt;" class="ss3" d="m971.2 932.8c-39.1 0-73-19.2-90.4-47.4 0.6 49.4 40.9 89.2 90.4 89.2 49.6 0 89.8-39.8 90.5-89.2-17.4 28.2-51.4 47.4-90.5 47.4z"/>
	</g>
	<g id="anim3">
		<g id="Clip-Path: Clip-Path: Clip-Path: Clip-Path: Clip-Path: Clip-Path: Clip-Path: Clip-Path: Clip-Path: &lt;Clip Group&gt;" clip-path="url(#cp1)">
			<g id="&lt;Clip Group&gt;">
				<g id="OBJECTS">
					<g id="mount">
						<g id="m1">
							<path id="&lt;Path&gt;" class="ss4" d="m-66.1 702.8h550.6c-1.7-56.7-18.3-116.7-42.5-175.1-4.9-11.8-10.1-23.4-15.5-35.1-17.8-37.9-38.3-74.8-59.4-109.2-18-29.2-36.4-56.8-54-81.7q-0.3-0.4-0.5-0.7c-17.1-24.1-33.4-45.7-47.8-64.1-29.7-38.1-81.4-38.1-111.1 0-14.4 18.4-30.7 40-47.8 64.1-17.8 25.1-36.4 52.9-54.5 82.4-21.1 34.4-41.6 71.3-59.4 109.2-32.5 69.3-56 142.1-58.1 210.2z"/>
							<path id="&lt;Path&gt;" class="ss5" d="m105.9 301c17.1-24.1 33.4-45.7 47.8-64.1 29.7-38.1 81.4-38.1 111.1 0 14.4 18.4 30.7 40 47.8 64.1-6.8 3.8-14.4 5.9-22.5 5.9q-4.1 0-8.1-0.7c-0.8 8.7-4.6 16.5-11 20.8-8.1 5.2-18.1 3.7-26.2-2.8-9.5 13-21.9 21-35.6 21-13.6 0-26-8-35.5-21-8.1 6.5-18.1 8-26.2 2.8-6.5-4.3-10.3-12.1-11.1-20.9q-3.9 0.8-8 0.8c-8.1 0-15.7-2.1-22.5-5.9z"/>
						</g>
						<g id="m2">
							<path id="&lt;Path&gt;" class="ss4" d="m217.6 702.8h782.5c-2.9-93.7-34.3-193.8-78.3-289.6q-2.1-4.6-4.2-9.1c-25.3-54-54.4-106.3-84.4-155.3-25.8-42-52.2-81.5-77.5-117.1-24.2-34.3-47.4-65.1-67.9-91.2-42.2-54-115.8-54-158 0-20.4 26.1-43.6 56.9-67.8 91.2-25.3 35.6-51.8 75.1-77.5 117.1-30 49-59.1 101.3-84.4 155.3-46.2 98.5-79.6 202-82.5 298.7z"/>
							<path id="&lt;Path&gt;" class="ss5" d="m461.9 131.7c24.3-34.3 47.5-65.1 67.9-91.2 42.2-54 115.8-54 158 0 20.5 26.1 43.6 56.9 67.9 91.2-9.7 5.3-20.5 8.4-32 8.4q-5.8 0-11.4-1c-1.2 12.4-6.6 23.4-15.8 29.4-11.4 7.6-25.7 5.4-37.1-3.9-13.5 18.6-31.2 29.8-50.6 29.8-19.4 0-37.1-11.2-50.6-29.8-11.4 9.3-25.7 11.5-37.1 3.9-9.2-6-14.6-17-15.8-29.4q-5.6 1-11.4 1c-11.5 0-22.3-3.1-32-8.4z"/>
						</g>
						<g id="m3">
							<path id="&lt;Path&gt;" class="ss4" d="m869.9 702.8h671c-2.5-82.9-31.2-171.7-70.8-256.1-21.6-46.3-46.6-91.2-72.3-133.2-22.1-36-44.8-69.8-66.5-100.4-20.7-29.3-40.6-55.8-58.2-78.2-36.2-46.3-99.2-46.3-135.4 0-17.6 22.4-37.4 48.9-58.2 78.2-21.7 30.6-44.4 64.4-66.5 100.4-25.7 42-50.7 86.9-72.3 133.2-39.6 84.4-68.3 173.2-70.8 256.1z"/>
							<path id="&lt;Path&gt;" class="ss5" d="m1079.5 213.1c20.8-29.3 40.6-55.8 58.2-78.2 36.2-46.3 99.2-46.3 135.4 0 17.6 22.4 37.5 48.9 58.2 78.2-8.2 4.6-17.5 7.2-27.4 7.2q-5 0-9.8-0.9c-0.9 10.7-5.6 20.2-13.5 25.3-9.8 6.5-22 4.7-31.9-3.4-11.5 15.9-26.7 25.6-43.3 25.6-16.6 0-31.8-9.7-43.4-25.6-9.8 8.1-22 9.9-31.8 3.4-7.9-5.1-12.6-14.6-13.5-25.3q-4.8 0.9-9.8 0.9c-9.9 0-19.2-2.6-27.4-7.2z"/>
						</g>
						<g id="m4">
							<path id="&lt;Path&gt;" class="ss4" d="m2184 702.8h-777.7c2.9-93.7 34.1-193.8 77.8-289.6q2.1-4.6 4.2-9.1c25.1-54 54.1-106.3 83.9-155.3 25.6-42 51.9-81.5 77-117.1 24.1-34.3 47.1-65.1 67.5-91.2 41.9-54 115.1-54 157 0 20.3 26.1 43.4 56.9 67.4 91.2 25.2 35.6 51.5 75.1 77 117.1 29.9 49 58.8 101.3 83.9 155.3 46 98.5 79.1 202 82 298.7z"/>
							<path id="&lt;Path&gt;" class="ss5" d="m1941.2 131.7c-24.1-34.3-47.2-65.1-67.5-91.2-41.9-54-115.1-54-157 0-20.4 26.1-43.3 56.9-67.5 91.2 9.7 5.3 20.4 8.4 31.8 8.4q5.8 0 11.3-1c1.2 12.4 6.6 23.4 15.8 29.4 11.3 7.6 25.5 5.4 36.8-3.9 13.4 18.6 31 29.8 50.3 29.8 19.3 0 36.9-11.2 50.3-29.8 11.3 9.3 25.6 11.5 36.9 3.9 9.1-6 14.5-17 15.7-29.4q5.6 1 11.3 1c11.4 0 22.2-3.1 31.8-8.4z"/>
						</g>
					</g>
					<g id="mount2">
						<g id="m6">
							<path id="&lt;Path&gt;" class="ss4" d="m3494 702.8h-777.7c2.9-93.7 34.1-193.8 77.8-289.6q2.1-4.6 4.2-9.1c25.1-54 54.1-106.3 83.9-155.3 25.6-42 51.9-81.5 77-117.1 24.1-34.3 47.1-65.1 67.5-91.2 41.9-54 115.1-54 157 0 20.3 26.1 43.4 56.9 67.4 91.2 25.2 35.6 51.5 75.1 77 117.1 29.9 49 58.8 101.3 83.9 155.3 46 98.5 79.1 202 82 298.7z"/>
							<path id="&lt;Path&gt;" class="ss5" d="m3251.2 131.7c-24.1-34.3-47.2-65.1-67.5-91.2-41.9-54-115.1-54-157 0-20.4 26.1-43.3 56.9-67.5 91.2 9.7 5.3 20.4 8.4 31.8 8.4q5.8 0 11.3-1c1.2 12.4 6.6 23.4 15.8 29.4 11.3 7.6 25.5 5.4 36.8-3.9 13.4 18.6 31 29.8 50.3 29.8 19.3 0 36.9-11.2 50.3-29.8 11.3 9.3 25.6 11.5 36.9 3.9 9.1-6 14.5-17 15.7-29.4q5.6 1 11.3 1c11.4 0 22.2-3.1 31.8-8.4z"/>
						</g>
						<g id="m5">
							<path id="&lt;Path&gt;" class="ss4" d="m2785.7 702.8h-666.9c2.5-82.9 31-171.7 70.4-256.1 21.4-46.3 46.3-91.2 71.8-133.2 22-36 44.6-69.8 66.1-100.4 20.6-29.3 40.4-55.8 57.9-78.2 35.9-46.3 98.6-46.3 134.5 0 17.5 22.4 37.2 48.9 57.9 78.2 21.6 30.6 44.1 64.4 66.1 100.4 25.5 42 50.4 86.9 71.8 133.2 39.4 84.4 67.9 173.2 70.4 256.1z"/>
							<path id="&lt;Path&gt;" class="ss5" d="m2577.4 213.1c-20.7-29.3-40.4-55.8-57.9-78.2-35.9-46.3-98.6-46.3-134.5 0-17.5 22.4-37.3 48.9-57.9 78.2 8.2 4.6 17.4 7.2 27.3 7.2q4.9 0 9.7-0.9c0.9 10.7 5.6 20.2 13.4 25.3 9.8 6.5 21.9 4.7 31.7-3.4 11.4 15.9 26.6 25.6 43.1 25.6 16.5 0 31.6-9.7 43.1-25.6 9.7 8.1 21.9 9.9 31.6 3.4 7.8-5.1 12.5-14.6 13.4-25.3q4.8 0.9 9.8 0.9c9.8 0 19-2.6 27.2-7.2z"/>
						</g>
						<g id="m7">
							<path id="&lt;Path&gt;" class="ss4" d="m4075.7 702.8h-666.9c2.5-82.9 31-171.7 70.4-256.1 21.4-46.3 46.3-91.2 71.8-133.2 22-36 44.6-69.8 66.1-100.4 20.6-29.3 40.4-55.8 57.9-78.2 35.9-46.3 98.6-46.3 134.5 0 17.5 22.4 37.2 48.9 57.9 78.2 21.6 30.6 44.1 64.4 66.1 100.4 25.5 42 50.4 86.9 71.8 133.2 39.4 84.4 67.9 173.2 70.4 256.1z"/>
							<path id="&lt;Path&gt;" class="ss5" d="m3867.4 213.1c-20.7-29.3-40.4-55.8-57.9-78.2-35.9-46.3-98.6-46.3-134.5 0-17.5 22.4-37.3 48.9-57.9 78.2 8.2 4.6 17.4 7.2 27.3 7.2q4.9 0 9.7-0.9c0.9 10.7 5.6 20.2 13.4 25.3 9.8 6.5 21.9 4.7 31.7-3.4 11.4 15.9 26.6 25.6 43.1 25.6 16.5 0 31.6-9.7 43.1-25.6 9.7 8.1 21.9 9.9 31.6 3.4 7.8-5.1 12.5-14.6 13.4-25.3q4.8 0.9 9.8 0.9c9.8 0 19-2.6 27.2-7.2z"/>
						</g>
						<g id="m8">
							<path id="&lt;Path&gt;" class="ss4" d="m4794 702.8h-777.7c2.9-93.7 34.1-193.8 77.8-289.6q2.1-4.6 4.2-9.1c25.1-54 54.1-106.3 83.9-155.3 25.6-42 51.9-81.5 77-117.1 24.1-34.3 47.1-65.1 67.5-91.2 41.9-54 115.1-54 157 0 20.3 26.1 43.4 56.9 67.4 91.2 25.2 35.6 51.5 75.1 77 117.1 29.9 49 58.8 101.3 83.9 155.3 46 98.5 79.1 202 82 298.7z"/>
							<path id="&lt;Path&gt;" class="ss5" d="m4551.2 131.7c-24.1-34.3-47.2-65.1-67.5-91.2-41.9-54-115.1-54-157 0-20.4 26.1-43.3 56.9-67.5 91.2 9.7 5.3 20.4 8.4 31.8 8.4q5.8 0 11.3-1c1.2 12.4 6.6 23.4 15.8 29.4 11.3 7.6 25.5 5.4 36.8-3.9 13.4 18.6 31 29.8 50.3 29.8 19.3 0 36.9-11.2 50.3-29.8 11.3 9.3 25.6 11.5 36.9 3.9 9.1-6 14.5-17 15.7-29.4q5.6 1 11.3 1c11.4 0 22.2-3.1 31.8-8.4z"/>
						</g>
					</g>
					<g id="cloud-light-screen">
						<path id="cloud-light" fill-rule="evenodd" class="ss6" d="m0 787v-429c6.1 2.7 10.7 8 12 14.4 5.5-2.5 11.6-3.9 18-3.9 5.7 0 11.1 1.1 16 3 8.7-21.2 30.7-36.3 56.5-36.3 28.1 0 51.7 18 58.5 42.3 5.4-1.3 11-1.9 16.9-1.9 38 0 68.9 28.8 68.9 64.4 0 7.8-1.5 15.3-4.2 22.2 14.8 5.2 28 13.3 38.9 23.5 10-9.5 23.8-15.3 39.1-15.3 12.9 0 24.6 4.1 34 11 16.8-13.4 38.5-21.4 62.3-21.4 2.9 0 5.7 0.1 8.6 0.3 7.3-20.4 27.9-35.3 52.3-35.3 22.3 0 41.4 12.3 50.1 30 5.6-0.8 11.4-1.3 17.3-1.3 28.1 0 53.6 10.4 72.5 27.1 9.2-3.5 19.2-5.4 29.7-5.4 13.8 0 26.8 3.3 38.2 9 19-24.5 50.1-40.6 85.1-40.6 40.6 0 75.8 21.5 93.3 53.1 5.3-0.9 10.8-1.3 16.3-1.3 20.8 0 40 6 55.7 16.4 17.1-28.8 49.9-48.3 87.6-48.3q7 0 13.9 0.9c8.3-31.9 39.1-55.7 75.9-55.7 11.7 0 22.7 2.4 32.6 6.6 14.2-30.2 46.5-51.3 84.1-51.3 10.1 0 19.8 1.5 28.8 4.3 9.5-21.6 32.2-37 58.7-37 34.6 0 62.7 25.9 63.4 58.1 21.7 7.1 37.8 25.2 40.7 47.2q5.8-0.9 11.9-0.9c10.9 0 21.3 2.3 30.6 6.3 6.9-15.9 19.6-28.9 35.8-36.7 15.9 7.8 28.4 20.8 35.2 36.7 9.2-4 19.4-6.3 30.1-6.3q6 0 11.7 0.9c2.9-22 18.7-40.1 40.1-47.2 0.7-32.2 28.3-58.1 62.4-58.1 26.1 0 48.4 15.4 57.7 37 8.9-2.8 18.4-4.3 28.4-4.3 37 0 68.8 21.1 82.7 51.3 9.8-4.2 20.6-6.6 32.1-6.6 36.2 0 66.5 23.8 74.7 55.7q6.8-0.9 13.7-0.9c37.1 0 69.3 19.5 86.2 48.3 15.4-10.4 34.3-16.4 54.8-16.4 5.4 0 10.8 0.4 16 1.3 17.2-31.6 51.9-53.1 91.8-53.1 34.5 0 65.1 16.1 83.8 40.6 11.2-5.7 24-9 37.6-9 10.3 0 20.1 1.9 29.2 5.4 18.6-16.7 43.7-27.1 71.3-27.1 5.8 0 11.5 0.5 17 1.3 8.6-17.7 27.4-30 49.3-30 24.1 0 44.3 14.9 51.5 35.3 2.9-0.2 5.6-0.3 8.5-0.3 23.4 0 44.7 8 61.3 21.4 9.2-6.9 20.7-11 33.4-11 15.1 0 28.7 5.8 38.5 15.3 10.7-10.2 23.7-18.3 38.3-23.5-2.7-6.9-4.2-14.4-4.2-22.2 0-35.6 30.5-64.4 67.8-64.4 5.9 0 11.4 0.6 16.7 1.9 6.7-24.3 29.9-42.3 57.5-42.3 25.4 0 47.1 15.1 55.6 36.3 4.9-1.9 10.2-3 15.8-3 6.3 0 12.3 1.4 17.7 3.9 1.3-6.4 5.8-11.7 11.8-14.4v429zm4440.2-344.8c-9.3-4-19.7-6.3-30.6-6.3q-6.1 0-11.9 0.9c-2.9-22-19-40.1-40.7-47.2-0.7-32.2-28.8-58.1-63.4-58.1-26.5 0-49.2 15.4-58.7 37-9-2.8-18.7-4.3-28.8-4.3-37.6 0-69.9 21.1-84.1 51.3-9.9-4.2-20.9-6.6-32.6-6.6-36.8 0-67.6 23.8-75.9 55.7q-6.9-0.9-13.9-0.9c-37.7 0-70.5 19.5-87.6 48.3-15.7-10.4-34.9-16.4-55.7-16.4-5.5 0-11 0.4-16.3 1.3-17.5-31.6-52.7-53.1-93.3-53.1-35 0-66.1 16.1-85.1 40.6-11.4-5.7-24.4-9-38.2-9-10.5 0-20.5 1.9-29.7 5.4-18.9-16.7-44.4-27.1-72.5-27.1-5.9 0-11.7 0.5-17.3 1.3-8.7-17.7-27.8-30-50.1-30-24.4 0-45 14.9-52.3 35.3-2.9-0.2-5.7-0.3-8.6-0.3-23.8 0-45.5 8-62.3 21.4-9.4-6.9-21.1-11-34-11-15.3 0-29.1 5.8-39.1 15.3-10.9-10.2-24.1-18.3-38.9-23.5 2.7-6.9 4.2-14.4 4.2-22.2 0-35.6-30.9-64.4-68.9-64.4-5.9 0-11.5 0.6-16.9 1.9-6.8-24.3-30.4-42.3-58.5-42.3-25.8 0-47.8 15.1-56.5 36.3-4.9-1.9-10.3-3-16-3-6.4 0-12.5 1.4-18 3.9-1.3-6.4-5.9-11.7-12-14.4v429h1500v-381.5c-16.2 7.8-28.9 20.8-35.8 36.7z"/>
					</g>
					<g id="cloud-dark-screen">
						<path id="cloud-dark" fill-rule="evenodd" class="ss6" d="m0 787v-332.6c6.1 2.7 10.7 8 12 14.3 5.5-2.4 11.6-3.9 18-3.9 5.7 0 11.1 1.1 16 3.1 8.7-21.2 30.7-36.3 56.5-36.3 28.1 0 51.7 18 58.5 42.3 5.4-1.3 11-2 16.9-2 38 0 68.9 28.9 68.9 64.5 0 7.8-1.5 15.3-4.2 22.2 14.8 5.2 28 13.2 38.9 23.4 10-9.3 23.8-15.2 39.1-15.2 12.9 0 24.6 4.1 34 10.9 16.8-13.2 38.5-21.4 62.3-21.4 2.9 0 5.7 0.2 8.6 0.4 7.3-20.5 27.9-35.2 52.3-35.2 22.3 0 41.4 12.2 50.1 30 5.6-1 11.4-1.4 17.3-1.4 28.1 0 53.6 10.3 72.5 27.1 9.2-3.5 19.2-5.4 29.7-5.4 13.8 0 26.8 3.3 38.2 9.1 19-24.7 50.1-40.7 85.1-40.7 40.6 0 75.8 21.5 93.3 53 5.3-0.8 10.8-1.3 16.3-1.3 20.8 0 40 6.1 55.7 16.5 17.1-28.8 49.9-48.2 87.6-48.2q7 0 13.9 0.8c8.3-32 39.1-55.7 75.9-55.7 11.7 0 22.7 2.3 32.6 6.6 14.2-30.3 46.5-51.4 84.1-51.4 10.1 0 19.8 1.5 28.8 4.3 9.5-21.6 32.2-36.8 58.7-36.8 34.6 0 62.7 25.8 63.4 57.9 21.7 7.1 37.8 25.3 40.7 47.3q5.8-0.9 11.9-0.9c10.9 0 21.3 2.2 30.6 6.3 6.9-15.8 19.6-28.9 35.8-36.8 16.2 7.9 28.8 21 35.7 36.8 9.3-4.1 19.7-6.3 30.5-6.3q6.1 0 11.9 0.9c2.9-22 18.9-40.2 40.6-47.3 0.7-32.1 28.7-57.9 63.2-57.9 26.4 0 49.1 15.2 58.6 36.8 8.9-2.8 18.6-4.3 28.7-4.3 37.5 0 69.7 21.1 83.9 51.4 9.8-4.3 20.8-6.6 32.5-6.6 36.7 0 67.4 23.7 75.7 55.7q6.8-0.8 13.8-0.8c37.6 0 70.3 19.4 87.4 48.2 15.7-10.4 34.8-16.5 55.5-16.5 5.5 0 11 0.5 16.3 1.3 17.5-31.5 52.6-53 93.1-53 34.9 0 65.9 16 84.8 40.7 11.4-5.8 24.4-9.1 38.1-9.1 10.5 0 20.5 1.9 29.6 5.4 18.9-16.8 44.3-27.1 72.4-27.1 5.8 0 11.6 0.4 17.2 1.4 8.7-17.8 27.7-30 50-30 24.3 0 44.9 14.7 52.1 35.2 2.9-0.2 5.7-0.4 8.6-0.4 23.7 0 45.4 8.2 62.1 21.4 9.4-6.8 21.1-10.9 34-10.9 15.2 0 29 5.9 39 15.2 10.8-10.2 24-18.2 38.7-23.4-2.6-6.9-4.1-14.4-4.1-22.2 0-35.6 30.8-64.5 68.7-64.5 5.9 0 11.4 0.7 16.8 2 6.8-24.3 30.3-42.3 58.4-42.3 25.7 0 47.6 15.1 56.3 36.3 4.9-2 10.3-3.1 16-3.1 6.4 0 12.4 1.5 17.9 3.9 1.3-6.3 5.9-11.6 12-14.3v332.6zm4460.2-248.4c-9.3-4.1-19.7-6.3-30.6-6.3q-6.1 0-11.9 0.9c-2.9-22-19-40.2-40.7-47.3-0.7-32.1-28.8-57.9-63.4-57.9-26.5 0-49.2 15.2-58.7 36.8-9-2.8-18.7-4.3-28.8-4.3-37.6 0-69.9 21.1-84.1 51.4-9.9-4.3-20.9-6.6-32.6-6.6-36.8 0-67.6 23.7-75.9 55.7q-6.9-0.8-13.9-0.8c-37.7 0-70.5 19.4-87.6 48.2-15.7-10.4-34.9-16.5-55.7-16.5-5.5 0-11 0.5-16.3 1.3-17.5-31.5-52.7-53-93.3-53-35 0-66.1 16-85.1 40.7-11.4-5.8-24.4-9.1-38.2-9.1-10.5 0-20.5 1.9-29.7 5.4-18.9-16.8-44.4-27.1-72.5-27.1-5.9 0-11.7 0.4-17.3 1.4-8.7-17.8-27.8-30-50.1-30-24.4 0-45 14.7-52.3 35.2-2.9-0.2-5.7-0.4-8.6-0.4-23.8 0-45.5 8.2-62.3 21.4-9.4-6.8-21.1-10.9-34-10.9-15.3 0-29.1 5.9-39.1 15.2-10.9-10.2-24.1-18.2-38.9-23.4 2.7-6.9 4.2-14.4 4.2-22.2 0-35.6-30.9-64.5-68.9-64.5-5.9 0-11.5 0.7-16.9 2-6.8-24.3-30.4-42.3-58.5-42.3-25.8 0-47.8 15.1-56.5 36.3-4.9-2-10.3-3.1-16-3.1-6.4 0-12.5 1.5-18 3.9-1.3-6.3-5.9-11.6-12-14.3v332.6h1500v-285.2c-16.2 7.9-28.9 21-35.8 36.8z"/>
					</g>
				</g>
			</g>
		</g>
	</g>
</svg>